M48
; DRILL file {KiCad 8.0.5} date 2024-11-19T03:03:03+0530
; FORMAT={-:-/ absolute / inch / decimal}
; #@! TF.CreationDate,2024-11-19T03:03:03+05:30
; #@! TF.GenerationSoftware,Kicad,Pcbnew,8.0.5
; #@! TF.FileFunction,Plated,1,2,PTH
FMAT,2
INCH
; #@! TA.AperFunction,Plated,PTH,ViaDrill
T1C0.0118
; #@! TA.AperFunction,Plated,PTH,ComponentDrill
T2C0.0236
; #@! TA.AperFunction,Plated,PTH,ComponentDrill
T3C0.0394
; #@! TA.AperFunction,Plated,PTH,ViaDrill
T4C0.1260
%
G90
G05
T1
X1.975Y-2.775
X2.05Y-3.8
X2.055Y-2.6089
X2.07Y-2.78
X2.073Y-3.445
X2.08Y-2.7077
X2.085Y-3.715
X2.1028Y-3.5138
X2.258Y-3.243
X2.301Y-3.2
X2.334Y-3.414
X2.4245Y-3.2041
X2.486Y-3.193
X2.515Y-2.535
X2.53Y-3.375
X2.543Y-2.638
X2.55Y-3.55
X2.5575Y-2.7925
X2.575Y-3.315
X2.618Y-2.943
X2.619Y-2.656
X2.62Y-3.024
X2.63Y-3.0706
X2.631Y-2.987
X2.633Y-2.702
X2.6586Y-3.4086
X2.717Y-2.498
X2.725Y-2.64
X2.729Y-3.306
X2.74Y-3.019
X2.742Y-2.939
X2.75Y-2.42
X2.7508Y-2.5502
X2.755Y-2.71
X2.764Y-2.981
X2.826Y-2.87
X2.863Y-2.816
X2.865Y-3.6302
X2.866Y-3.403
X2.925Y-3.698
X2.994Y-2.891
X3.014Y-3.7374
X3.025Y-2.44
X3.025Y-3.304
X3.038Y-2.814
X3.05Y-3.136
X3.07Y-2.717
X3.0716Y-3.025
X3.075Y-2.6
X3.075Y-2.2051
X3.075Y-2.3551
X3.0801Y-3.425
X3.0801Y-3.575
X3.088Y-3.232
X3.093Y-2.404
X3.228Y-3.718
X3.251Y-3.586
X3.2966Y-2.95
X3.3Y-2.525
X3.3Y-2.1301
X3.3051Y-3.35
X3.312Y-3.216
X3.328Y-3.696
X3.33Y-2.405
X3.3305Y-2.8005
X3.3716Y-2.975
X3.375Y-2.55
X3.375Y-2.1551
X3.3801Y-3.375
X3.392Y-3.712
X3.4216Y-3.1
X3.425Y-2.675
X3.425Y-2.2801
X3.4301Y-3.5
X3.5656Y-3.3596
X3.598Y-3.002
X3.6Y-2.95
X3.601Y-3.303
X3.696Y-2.768
X3.696Y-3.301
X3.708Y-3.0
X3.729Y-2.721
X3.742Y-2.501
X3.749Y-2.398
X3.75Y-2.827
X3.755Y-3.495
X3.7988Y-3.5438
X3.8Y-2.85
X3.8Y-3.05
X3.825Y-2.65
X3.835Y-3.665
X3.875Y-3.325
X3.925Y-2.65
X3.925Y-2.75
X3.925Y-2.85
X3.925Y-2.95
X3.925Y-3.05
X3.925Y-3.25
T3
X2.2Y-2.0
X2.2Y-3.8
X2.3Y-2.0
X2.3Y-3.8
X2.4Y-2.0
X2.4Y-3.8
X2.5Y-2.0
X2.5Y-3.8
X2.6Y-2.0
X2.6Y-3.8
X2.9Y-4.1
X3.0Y-4.1
X3.1Y-4.1
X3.2Y-4.1
X3.4Y-2.0
X3.4Y-3.8
X3.5Y-2.0
X3.5Y-3.8
X3.6Y-2.0
X3.6Y-3.8
X3.7Y-2.0
X3.7Y-3.8
X3.8Y-2.0
X3.8Y-3.8
X4.0Y-2.5
X4.0Y-2.6
X4.0Y-2.7
X4.0Y-2.8
X4.0Y-2.9
X4.0Y-3.0
X4.0Y-3.1
X4.0Y-3.2
T4
X2.4558Y-1.725
X2.4558Y-1.725
X2.4558Y-1.725
X2.4558Y-1.725
X2.4718Y-4.175
X2.4718Y-4.175
X2.4718Y-4.175
X2.4718Y-4.175
X3.65Y-1.725
X3.65Y-1.725
X3.65Y-1.725
X3.65Y-1.725
X3.65Y-4.175
X3.65Y-4.175
X3.65Y-4.175
X3.65Y-4.175
T2
G00X1.9642Y-3.3299
M15
G01X1.9406Y-3.3299
M16
G05
G00X1.9642Y-3.6701
M15
G01X1.9406Y-3.6701
M16
G05
G00X2.1386Y-3.3299
M15
G01X2.0953Y-3.3299
M16
G05
G00X2.1386Y-3.6701
M15
G01X2.0953Y-3.6701
M16
G05
G00X2.2063Y-2.3447
M15
G01X2.2063Y-2.3053
M16
G05
G00X2.5331Y-2.3447
M15
G01X2.5331Y-2.3053
M16
G05
G00X2.6551Y-2.3447
M15
G01X2.6551Y-2.3053
M16
G05
M30
