%TF.GenerationSoftware,KiCad,Pcbnew,8.0.5*%
%TF.CreationDate,2024-11-19T03:03:03+05:30*%
%TF.ProjectId,midi,6d696469-2e6b-4696-9361-645f70636258,rev?*%
%TF.SameCoordinates,Original*%
%TF.FileFunction,Soldermask,Bot*%
%TF.FilePolarity,Negative*%
%FSLAX46Y46*%
G04 Gerber Fmt 4.6, Leading zero omitted, Abs format (unit mm)*
G04 Created by KiCad (PCBNEW 8.0.5) date 2024-11-19 03:03:03*
%MOMM*%
%LPD*%
G01*
G04 APERTURE LIST*
G04 Aperture macros list*
%AMRoundRect*
0 Rectangle with rounded corners*
0 $1 Rounding radius*
0 $2 $3 $4 $5 $6 $7 $8 $9 X,Y pos of 4 corners*
0 Add a 4 corners polygon primitive as box body*
4,1,4,$2,$3,$4,$5,$6,$7,$8,$9,$2,$3,0*
0 Add four circle primitives for the rounded corners*
1,1,$1+$1,$2,$3*
1,1,$1+$1,$4,$5*
1,1,$1+$1,$6,$7*
1,1,$1+$1,$8,$9*
0 Add four rect primitives between the rounded corners*
20,1,$1+$1,$2,$3,$4,$5,0*
20,1,$1+$1,$4,$5,$6,$7,0*
20,1,$1+$1,$6,$7,$8,$9,0*
20,1,$1+$1,$8,$9,$2,$3,0*%
G04 Aperture macros list end*
%ADD10RoundRect,0.650000X0.650000X-0.650000X0.650000X0.650000X-0.650000X0.650000X-0.650000X-0.650000X0*%
%ADD11O,2.100000X3.100000*%
%ADD12R,1.700000X1.700000*%
%ADD13O,1.700000X1.700000*%
%ADD14C,0.650000*%
%ADD15O,2.100000X1.000000*%
%ADD16O,1.600000X1.000000*%
%ADD17R,2.000000X2.000000*%
%ADD18O,2.000000X2.000000*%
G04 APERTURE END LIST*
D10*
%TO.C,J1*%
X64340000Y-59055000D03*
D11*
X67440000Y-59055000D03*
D10*
X56040000Y-59055000D03*
%TD*%
D12*
%TO.C,J3*%
X73660000Y-104140000D03*
D13*
X76200000Y-104140000D03*
X78740000Y-104140000D03*
X81280000Y-104140000D03*
%TD*%
D14*
%TO.C,J4*%
X53240000Y-86010000D03*
X53240000Y-91790000D03*
D15*
X53770000Y-84580000D03*
D16*
X49590000Y-84580000D03*
D15*
X53770000Y-93220000D03*
D16*
X49590000Y-93220000D03*
%TD*%
D12*
%TO.C,J2*%
X101600000Y-63500000D03*
D13*
X101600000Y-66040000D03*
X101600000Y-68580000D03*
X101600000Y-71120000D03*
X101600000Y-73660000D03*
X101600000Y-76200000D03*
X101600000Y-78740000D03*
X101600000Y-81280000D03*
%TD*%
D17*
%TO.C,V_SUPPLY1*%
X55880000Y-50800000D03*
D18*
X58420000Y-50800000D03*
X60960000Y-50800000D03*
X63500000Y-50800000D03*
X66040000Y-50800000D03*
%TD*%
D17*
%TO.C,V_SUPPLY2*%
X86360000Y-50800000D03*
D18*
X88900000Y-50800000D03*
X91440000Y-50800000D03*
X93980000Y-50800000D03*
X96520000Y-50800000D03*
%TD*%
D17*
%TO.C,GND2*%
X86360000Y-96520000D03*
D18*
X88900000Y-96520000D03*
X91440000Y-96520000D03*
X93980000Y-96520000D03*
X96520000Y-96520000D03*
%TD*%
D17*
%TO.C,GND1*%
X55880000Y-96520000D03*
D18*
X58420000Y-96520000D03*
X60960000Y-96520000D03*
X63500000Y-96520000D03*
X66040000Y-96520000D03*
%TD*%
M02*
