%TF.GenerationSoftware,KiCad,Pcbnew,8.0.5*%
%TF.CreationDate,2024-11-19T03:03:03+05:30*%
%TF.ProjectId,midi,6d696469-2e6b-4696-9361-645f70636258,rev?*%
%TF.SameCoordinates,Original*%
%TF.FileFunction,Copper,L1,Top*%
%TF.FilePolarity,Positive*%
%FSLAX46Y46*%
G04 Gerber Fmt 4.6, Leading zero omitted, Abs format (unit mm)*
G04 Created by KiCad (PCBNEW 8.0.5) date 2024-11-19 03:03:03*
%MOMM*%
%LPD*%
G01*
G04 APERTURE LIST*
G04 Aperture macros list*
%AMRoundRect*
0 Rectangle with rounded corners*
0 $1 Rounding radius*
0 $2 $3 $4 $5 $6 $7 $8 $9 X,Y pos of 4 corners*
0 Add a 4 corners polygon primitive as box body*
4,1,4,$2,$3,$4,$5,$6,$7,$8,$9,$2,$3,0*
0 Add four circle primitives for the rounded corners*
1,1,$1+$1,$2,$3*
1,1,$1+$1,$4,$5*
1,1,$1+$1,$6,$7*
1,1,$1+$1,$8,$9*
0 Add four rect primitives between the rounded corners*
20,1,$1+$1,$2,$3,$4,$5,0*
20,1,$1+$1,$4,$5,$6,$7,0*
20,1,$1+$1,$6,$7,$8,$9,0*
20,1,$1+$1,$8,$9,$2,$3,0*%
%AMOutline5P*
0 Free polygon, 5 corners , with rotation*
0 The origin of the aperture is its center*
0 number of corners: always 5*
0 $1 to $10 corner X, Y*
0 $11 Rotation angle, in degrees counterclockwise*
0 create outline with 5 corners*
4,1,5,$1,$2,$3,$4,$5,$6,$7,$8,$9,$10,$1,$2,$11*%
%AMOutline6P*
0 Free polygon, 6 corners , with rotation*
0 The origin of the aperture is its center*
0 number of corners: always 6*
0 $1 to $12 corner X, Y*
0 $13 Rotation angle, in degrees counterclockwise*
0 create outline with 6 corners*
4,1,6,$1,$2,$3,$4,$5,$6,$7,$8,$9,$10,$11,$12,$1,$2,$13*%
%AMOutline7P*
0 Free polygon, 7 corners , with rotation*
0 The origin of the aperture is its center*
0 number of corners: always 7*
0 $1 to $14 corner X, Y*
0 $15 Rotation angle, in degrees counterclockwise*
0 create outline with 7 corners*
4,1,7,$1,$2,$3,$4,$5,$6,$7,$8,$9,$10,$11,$12,$13,$14,$1,$2,$15*%
%AMOutline8P*
0 Free polygon, 8 corners , with rotation*
0 The origin of the aperture is its center*
0 number of corners: always 8*
0 $1 to $16 corner X, Y*
0 $17 Rotation angle, in degrees counterclockwise*
0 create outline with 8 corners*
4,1,8,$1,$2,$3,$4,$5,$6,$7,$8,$9,$10,$11,$12,$13,$14,$15,$16,$1,$2,$17*%
G04 Aperture macros list end*
%TA.AperFunction,SMDPad,CuDef*%
%ADD10RoundRect,0.135000X-0.135000X-0.185000X0.135000X-0.185000X0.135000X0.185000X-0.135000X0.185000X0*%
%TD*%
%TA.AperFunction,SMDPad,CuDef*%
%ADD11RoundRect,0.140000X0.140000X0.170000X-0.140000X0.170000X-0.140000X-0.170000X0.140000X-0.170000X0*%
%TD*%
%TA.AperFunction,SMDPad,CuDef*%
%ADD12RoundRect,0.135000X0.135000X0.185000X-0.135000X0.185000X-0.135000X-0.185000X0.135000X-0.185000X0*%
%TD*%
%TA.AperFunction,SMDPad,CuDef*%
%ADD13RoundRect,0.140000X-0.140000X-0.170000X0.140000X-0.170000X0.140000X0.170000X-0.140000X0.170000X0*%
%TD*%
%TA.AperFunction,SMDPad,CuDef*%
%ADD14RoundRect,0.218750X0.218750X0.256250X-0.218750X0.256250X-0.218750X-0.256250X0.218750X-0.256250X0*%
%TD*%
%TA.AperFunction,SMDPad,CuDef*%
%ADD15R,1.000000X0.750000*%
%TD*%
%TA.AperFunction,ComponentPad*%
%ADD16RoundRect,0.650000X0.650000X-0.650000X0.650000X0.650000X-0.650000X0.650000X-0.650000X-0.650000X0*%
%TD*%
%TA.AperFunction,ComponentPad*%
%ADD17O,2.100000X3.100000*%
%TD*%
%TA.AperFunction,ComponentPad*%
%ADD18R,1.700000X1.700000*%
%TD*%
%TA.AperFunction,ComponentPad*%
%ADD19O,1.700000X1.700000*%
%TD*%
%TA.AperFunction,SMDPad,CuDef*%
%ADD20R,1.450000X0.600000*%
%TD*%
%TA.AperFunction,SMDPad,CuDef*%
%ADD21R,1.450000X0.300000*%
%TD*%
%TA.AperFunction,ComponentPad*%
%ADD22O,2.100000X1.000000*%
%TD*%
%TA.AperFunction,ComponentPad*%
%ADD23O,1.600000X1.000000*%
%TD*%
%TA.AperFunction,SMDPad,CuDef*%
%ADD24RoundRect,0.150000X-0.825000X-0.150000X0.825000X-0.150000X0.825000X0.150000X-0.825000X0.150000X0*%
%TD*%
%TA.AperFunction,HeatsinkPad*%
%ADD25R,2.290000X3.000000*%
%TD*%
%TA.AperFunction,SMDPad,CuDef*%
%ADD26RoundRect,0.250000X0.650000X-0.325000X0.650000X0.325000X-0.650000X0.325000X-0.650000X-0.325000X0*%
%TD*%
%TA.AperFunction,SMDPad,CuDef*%
%ADD27RoundRect,0.140000X0.170000X-0.140000X0.170000X0.140000X-0.170000X0.140000X-0.170000X-0.140000X0*%
%TD*%
%TA.AperFunction,SMDPad,CuDef*%
%ADD28R,0.800000X0.400000*%
%TD*%
%TA.AperFunction,SMDPad,CuDef*%
%ADD29R,0.400000X0.800000*%
%TD*%
%TA.AperFunction,SMDPad,CuDef*%
%ADD30Outline5P,-0.600000X0.204000X-0.204000X0.600000X0.600000X0.600000X0.600000X-0.600000X-0.600000X-0.600000X0.000000*%
%TD*%
%TA.AperFunction,SMDPad,CuDef*%
%ADD31R,1.200000X1.200000*%
%TD*%
%TA.AperFunction,SMDPad,CuDef*%
%ADD32R,0.800000X0.800000*%
%TD*%
%TA.AperFunction,ComponentPad*%
%ADD33R,2.000000X2.000000*%
%TD*%
%TA.AperFunction,ComponentPad*%
%ADD34O,2.000000X2.000000*%
%TD*%
%TA.AperFunction,ViaPad*%
%ADD35C,0.700000*%
%TD*%
%TA.AperFunction,ViaPad*%
%ADD36C,4.000000*%
%TD*%
%TA.AperFunction,Conductor*%
%ADD37C,0.300000*%
%TD*%
%TA.AperFunction,Conductor*%
%ADD38C,0.500000*%
%TD*%
%TA.AperFunction,Conductor*%
%ADD39C,0.200000*%
%TD*%
G04 APERTURE END LIST*
D10*
%TO.P,R11,1*%
%TO.N,/esp32/GATE_4*%
X88389090Y-67945000D03*
%TO.P,R11,2*%
%TO.N,Net-(D4-A)*%
X89409090Y-67945000D03*
%TD*%
D11*
%TO.P,C17,1*%
%TO.N,Net-(D8-A)*%
X89510000Y-90805000D03*
%TO.P,C17,2*%
%TO.N,GND*%
X88550000Y-90805000D03*
%TD*%
D12*
%TO.P,R3,1*%
%TO.N,V_SUPPLY*%
X63091000Y-85725000D03*
%TO.P,R3,2*%
%TO.N,Net-(SW1-B)*%
X62071000Y-85725000D03*
%TD*%
D10*
%TO.P,R20,1*%
%TO.N,Net-(R20-Pad1)*%
X88520000Y-86360000D03*
%TO.P,R20,2*%
%TO.N,/gate_process3/GATE_B_OUT*%
X89540000Y-86360000D03*
%TD*%
D12*
%TO.P,R14,1*%
%TO.N,Net-(R14-Pad1)*%
X77257500Y-75565000D03*
%TO.P,R14,2*%
%TO.N,/gate_process2/GATE_A_OUT*%
X76237500Y-75565000D03*
%TD*%
D13*
%TO.P,C3,1*%
%TO.N,GND*%
X59972000Y-85725000D03*
%TO.P,C3,2*%
%TO.N,Net-(SW1-B)*%
X60932000Y-85725000D03*
%TD*%
D11*
%TO.P,C16,1*%
%TO.N,V_SUPPLY*%
X85855000Y-84455000D03*
%TO.P,C16,2*%
%TO.N,GND*%
X84895000Y-84455000D03*
%TD*%
D14*
%TO.P,D5,1,K*%
%TO.N,GND*%
X98425000Y-73660000D03*
%TO.P,D5,2,A*%
%TO.N,Net-(D5-A)*%
X96850000Y-73660000D03*
%TD*%
D15*
%TO.P,SW1,1,A*%
%TO.N,GND*%
X58468000Y-87533000D03*
X64468000Y-87533000D03*
%TO.P,SW1,2,B*%
%TO.N,Net-(SW1-B)*%
X58468000Y-91283000D03*
X64468000Y-91283000D03*
%TD*%
D14*
%TO.P,D7,1,K*%
%TO.N,GND*%
X98425000Y-78740000D03*
%TO.P,D7,2,A*%
%TO.N,Net-(D7-A)*%
X96850000Y-78740000D03*
%TD*%
D16*
%TO.P,J1,R*%
%TO.N,/esp32/MIDI_IN*%
X64340000Y-59055000D03*
D17*
%TO.P,J1,S*%
%TO.N,MIDI_GND*%
X67440000Y-59055000D03*
D16*
%TO.P,J1,T*%
%TO.N,unconnected-(J1-PadT)*%
X56040000Y-59055000D03*
%TD*%
D13*
%TO.P,C5,1*%
%TO.N,Net-(J4-SHIELD)*%
X49685000Y-96520000D03*
%TO.P,C5,2*%
%TO.N,GND*%
X50645000Y-96520000D03*
%TD*%
D15*
%TO.P,SW2,1,A*%
%TO.N,GND*%
X66977000Y-87533000D03*
X72977000Y-87533000D03*
%TO.P,SW2,2,B*%
%TO.N,Net-(SW2-B)*%
X66977000Y-91283000D03*
X72977000Y-91283000D03*
%TD*%
D12*
%TO.P,R13,1*%
%TO.N,/esp32/GATE_5*%
X77257500Y-78105000D03*
%TO.P,R13,2*%
%TO.N,Net-(D5-A)*%
X76237500Y-78105000D03*
%TD*%
D10*
%TO.P,R12,1*%
%TO.N,Net-(R12-Pad1)*%
X88389090Y-65405000D03*
%TO.P,R12,2*%
%TO.N,/gate_process1/GATE_B_OUT*%
X89409090Y-65405000D03*
%TD*%
D11*
%TO.P,C7,1*%
%TO.N,V_SUPPLY*%
X85725000Y-53470000D03*
%TO.P,C7,2*%
%TO.N,GND*%
X84765000Y-53470000D03*
%TD*%
D14*
%TO.P,D4,1,K*%
%TO.N,GND*%
X98425000Y-71120000D03*
%TO.P,D4,2,A*%
%TO.N,Net-(D4-A)*%
X96850000Y-71120000D03*
%TD*%
D12*
%TO.P,R4,1*%
%TO.N,V_SUPPLY*%
X71755000Y-85598000D03*
%TO.P,R4,2*%
%TO.N,Net-(SW2-B)*%
X70735000Y-85598000D03*
%TD*%
D11*
%TO.P,C10,1*%
%TO.N,V_SUPPLY*%
X85724090Y-63500000D03*
%TO.P,C10,2*%
%TO.N,GND*%
X84764090Y-63500000D03*
%TD*%
D10*
%TO.P,R8,1*%
%TO.N,Net-(R8-Pad1)*%
X88390000Y-55375000D03*
%TO.P,R8,2*%
%TO.N,/gate_process/GATE_B_OUT*%
X89410000Y-55375000D03*
%TD*%
D18*
%TO.P,J3,1,Pin_1*%
%TO.N,TX*%
X73660000Y-104140000D03*
D19*
%TO.P,J3,2,Pin_2*%
%TO.N,RX*%
X76200000Y-104140000D03*
%TO.P,J3,3,Pin_3*%
%TO.N,MIDI_GND*%
X78740000Y-104140000D03*
%TO.P,J3,4,Pin_4*%
%TO.N,GND*%
X81280000Y-104140000D03*
%TD*%
D12*
%TO.P,R9,1*%
%TO.N,/esp32/GATE_3*%
X77344090Y-67310000D03*
%TO.P,R9,2*%
%TO.N,Net-(D3-A)*%
X76324090Y-67310000D03*
%TD*%
D10*
%TO.P,R16,1*%
%TO.N,Net-(R16-Pad1)*%
X88302500Y-76200000D03*
%TO.P,R16,2*%
%TO.N,/gate_process2/GATE_B_OUT*%
X89322500Y-76200000D03*
%TD*%
D13*
%TO.P,C12,1*%
%TO.N,Net-(D5-A)*%
X76267500Y-80645000D03*
%TO.P,C12,2*%
%TO.N,GND*%
X77227500Y-80645000D03*
%TD*%
D12*
%TO.P,R5,1*%
%TO.N,/esp32/GATE_1*%
X77345000Y-57280000D03*
%TO.P,R5,2*%
%TO.N,Net-(D1-A)*%
X76325000Y-57280000D03*
%TD*%
D13*
%TO.P,C15,1*%
%TO.N,Net-(D7-A)*%
X76485000Y-90805000D03*
%TO.P,C15,2*%
%TO.N,GND*%
X77445000Y-90805000D03*
%TD*%
D10*
%TO.P,R15,1*%
%TO.N,/esp32/GATE_6*%
X88302500Y-78740000D03*
%TO.P,R15,2*%
%TO.N,Net-(D6-A)*%
X89322500Y-78740000D03*
%TD*%
D20*
%TO.P,J4,A1,GND*%
%TO.N,GND*%
X54685000Y-85675000D03*
%TO.P,J4,A4,VBUS*%
%TO.N,Net-(J4-VBUS-PadA4)*%
X54685000Y-86450000D03*
D21*
%TO.P,J4,A5,CC1*%
%TO.N,unconnected-(J4-CC1-PadA5)*%
X54685000Y-87650000D03*
%TO.P,J4,A6,D+*%
%TO.N,Net-(U1-IO20)*%
X54685000Y-88650000D03*
%TO.P,J4,A7,D-*%
%TO.N,Net-(U1-IO19)*%
X54685000Y-89150000D03*
%TO.P,J4,A8,SBU1*%
%TO.N,unconnected-(J4-SBU1-PadA8)*%
X54685000Y-90150000D03*
D20*
%TO.P,J4,A9,VBUS*%
%TO.N,Net-(J4-VBUS-PadA4)*%
X54685000Y-91350000D03*
%TO.P,J4,A12,GND*%
%TO.N,GND*%
X54685000Y-92125000D03*
D21*
%TO.P,J4,B5,CC2*%
%TO.N,unconnected-(J4-CC2-PadB5)*%
X54685000Y-90650000D03*
%TO.P,J4,B6,D+*%
%TO.N,Net-(U1-IO20)*%
X54685000Y-89650000D03*
%TO.P,J4,B7,D-*%
%TO.N,Net-(U1-IO19)*%
X54685000Y-88150000D03*
%TO.P,J4,B8,SBU2*%
%TO.N,unconnected-(J4-SBU2-PadB8)*%
X54685000Y-87150000D03*
D22*
%TO.P,J4,S1,SHIELD*%
%TO.N,Net-(J4-SHIELD)*%
X53770000Y-84580000D03*
D23*
X49590000Y-84580000D03*
D22*
X53770000Y-93220000D03*
D23*
X49590000Y-93220000D03*
%TD*%
D14*
%TO.P,D2,1,K*%
%TO.N,GND*%
X98425000Y-66040000D03*
%TO.P,D2,2,A*%
%TO.N,Net-(D2-A)*%
X96850000Y-66040000D03*
%TD*%
%TO.P,D8,1,K*%
%TO.N,GND*%
X98425000Y-81280000D03*
%TO.P,D8,2,A*%
%TO.N,Net-(D8-A)*%
X96850000Y-81280000D03*
%TD*%
D12*
%TO.P,R17,1*%
%TO.N,/esp32/GATE_7*%
X77475000Y-88265000D03*
%TO.P,R17,2*%
%TO.N,Net-(D7-A)*%
X76455000Y-88265000D03*
%TD*%
D11*
%TO.P,C14,1*%
%TO.N,Net-(D6-A)*%
X89292500Y-80645000D03*
%TO.P,C14,2*%
%TO.N,GND*%
X88332500Y-80645000D03*
%TD*%
D18*
%TO.P,J2,1,Pin_1*%
%TO.N,/gate_process/GATE_A_OUT*%
X101600000Y-63500000D03*
D19*
%TO.P,J2,2,Pin_2*%
%TO.N,/gate_process/GATE_B_OUT*%
X101600000Y-66040000D03*
%TO.P,J2,3,Pin_3*%
%TO.N,/gate_process1/GATE_A_OUT*%
X101600000Y-68580000D03*
%TO.P,J2,4,Pin_4*%
%TO.N,/gate_process1/GATE_B_OUT*%
X101600000Y-71120000D03*
%TO.P,J2,5,Pin_5*%
%TO.N,/gate_process2/GATE_A_OUT*%
X101600000Y-73660000D03*
%TO.P,J2,6,Pin_6*%
%TO.N,/gate_process2/GATE_B_OUT*%
X101600000Y-76200000D03*
%TO.P,J2,7,Pin_7*%
%TO.N,/gate_process3/GATE_A_OUT*%
X101600000Y-78740000D03*
%TO.P,J2,8,Pin_8*%
%TO.N,/gate_process3/GATE_B_OUT*%
X101600000Y-81280000D03*
%TD*%
D24*
%TO.P,U3,1*%
%TO.N,Net-(R10-Pad1)*%
X80009090Y-66040000D03*
%TO.P,U3,2,-*%
%TO.N,V_MID*%
X80009090Y-67310000D03*
%TO.P,U3,3,+*%
%TO.N,/esp32/GATE_3*%
X80009090Y-68580000D03*
%TO.P,U3,4,V-*%
%TO.N,GND*%
X80009090Y-69850000D03*
%TO.P,U3,5,+*%
%TO.N,/esp32/GATE_4*%
X84959090Y-69850000D03*
%TO.P,U3,6,-*%
%TO.N,V_MID*%
X84959090Y-68580000D03*
%TO.P,U3,7*%
%TO.N,Net-(R12-Pad1)*%
X84959090Y-67310000D03*
%TO.P,U3,8,V+*%
%TO.N,V_SUPPLY*%
X84959090Y-66040000D03*
D25*
%TO.P,U3,9*%
%TO.N,N/C*%
X82484090Y-67945000D03*
%TD*%
D12*
%TO.P,R10,1*%
%TO.N,Net-(R10-Pad1)*%
X77344090Y-64770000D03*
%TO.P,R10,2*%
%TO.N,/gate_process1/GATE_A_OUT*%
X76324090Y-64770000D03*
%TD*%
D26*
%TO.P,C1,1*%
%TO.N,V_SUPPLY*%
X50419000Y-69215000D03*
%TO.P,C1,2*%
%TO.N,GND*%
X50419000Y-66265000D03*
%TD*%
D14*
%TO.P,D1,1,K*%
%TO.N,GND*%
X98425000Y-63500000D03*
%TO.P,D1,2,A*%
%TO.N,Net-(D1-A)*%
X96850000Y-63500000D03*
%TD*%
D13*
%TO.P,C9,1*%
%TO.N,Net-(D3-A)*%
X76354090Y-69850000D03*
%TO.P,C9,2*%
%TO.N,GND*%
X77314090Y-69850000D03*
%TD*%
D11*
%TO.P,C13,1*%
%TO.N,V_SUPPLY*%
X85637500Y-74295000D03*
%TO.P,C13,2*%
%TO.N,GND*%
X84677500Y-74295000D03*
%TD*%
%TO.P,C11,1*%
%TO.N,Net-(D4-A)*%
X89379090Y-69850000D03*
%TO.P,C11,2*%
%TO.N,GND*%
X88419090Y-69850000D03*
%TD*%
D12*
%TO.P,R6,1*%
%TO.N,Net-(R6-Pad1)*%
X77345000Y-54740000D03*
%TO.P,R6,2*%
%TO.N,/gate_process/GATE_A_OUT*%
X76325000Y-54740000D03*
%TD*%
D27*
%TO.P,C2,1*%
%TO.N,V_SUPPLY*%
X48514000Y-69032000D03*
%TO.P,C2,2*%
%TO.N,GND*%
X48514000Y-68072000D03*
%TD*%
D24*
%TO.P,U4,1*%
%TO.N,Net-(R14-Pad1)*%
X79922500Y-76835000D03*
%TO.P,U4,2,-*%
%TO.N,V_MID*%
X79922500Y-78105000D03*
%TO.P,U4,3,+*%
%TO.N,/esp32/GATE_5*%
X79922500Y-79375000D03*
%TO.P,U4,4,V-*%
%TO.N,GND*%
X79922500Y-80645000D03*
%TO.P,U4,5,+*%
%TO.N,/esp32/GATE_6*%
X84872500Y-80645000D03*
%TO.P,U4,6,-*%
%TO.N,V_MID*%
X84872500Y-79375000D03*
%TO.P,U4,7*%
%TO.N,Net-(R16-Pad1)*%
X84872500Y-78105000D03*
%TO.P,U4,8,V+*%
%TO.N,V_SUPPLY*%
X84872500Y-76835000D03*
D25*
%TO.P,U4,9*%
%TO.N,N/C*%
X82397500Y-78740000D03*
%TD*%
D14*
%TO.P,D3,1,K*%
%TO.N,GND*%
X98425000Y-68580000D03*
%TO.P,D3,2,A*%
%TO.N,Net-(D3-A)*%
X96850000Y-68580000D03*
%TD*%
D10*
%TO.P,R2,1*%
%TO.N,V_MID*%
X96389000Y-91567000D03*
%TO.P,R2,2*%
%TO.N,GND*%
X97409000Y-91567000D03*
%TD*%
%TO.P,R19,1*%
%TO.N,/esp32/GATE_8*%
X88520000Y-88900000D03*
%TO.P,R19,2*%
%TO.N,Net-(D8-A)*%
X89540000Y-88900000D03*
%TD*%
D13*
%TO.P,C6,1*%
%TO.N,Net-(D1-A)*%
X76355000Y-59820000D03*
%TO.P,C6,2*%
%TO.N,GND*%
X77315000Y-59820000D03*
%TD*%
%TO.P,C4,1*%
%TO.N,GND*%
X68509000Y-85598000D03*
%TO.P,C4,2*%
%TO.N,Net-(SW2-B)*%
X69469000Y-85598000D03*
%TD*%
D11*
%TO.P,C8,1*%
%TO.N,Net-(D2-A)*%
X89380000Y-59820000D03*
%TO.P,C8,2*%
%TO.N,GND*%
X88420000Y-59820000D03*
%TD*%
D10*
%TO.P,R1,1*%
%TO.N,V_SUPPLY*%
X96389000Y-88773000D03*
%TO.P,R1,2*%
%TO.N,V_MID*%
X97409000Y-88773000D03*
%TD*%
D12*
%TO.P,R18,1*%
%TO.N,Net-(R18-Pad1)*%
X77475000Y-85725000D03*
%TO.P,R18,2*%
%TO.N,/gate_process3/GATE_A_OUT*%
X76455000Y-85725000D03*
%TD*%
D28*
%TO.P,U1,1,GND*%
%TO.N,GND*%
X53960000Y-67075000D03*
%TO.P,U1,2,GND*%
X53960000Y-67925000D03*
%TO.P,U1,3,3V3*%
%TO.N,V_SUPPLY*%
X53960000Y-68775000D03*
%TO.P,U1,4,IO0*%
%TO.N,Net-(SW2-B)*%
X53960000Y-69625000D03*
%TO.P,U1,5,IO1*%
%TO.N,unconnected-(U1-IO1-Pad5)*%
X53960000Y-70475000D03*
%TO.P,U1,6,IO2*%
%TO.N,unconnected-(U1-IO2-Pad6)*%
X53960000Y-71325000D03*
%TO.P,U1,7,IO3*%
%TO.N,unconnected-(U1-IO3-Pad7)*%
X53960000Y-72175000D03*
%TO.P,U1,8,IO4*%
%TO.N,unconnected-(U1-IO4-Pad8)*%
X53960000Y-73025000D03*
%TO.P,U1,9,IO5*%
%TO.N,unconnected-(U1-IO5-Pad9)*%
X53960000Y-73875000D03*
%TO.P,U1,10,IO6*%
%TO.N,unconnected-(U1-IO6-Pad10)*%
X53960000Y-74725000D03*
%TO.P,U1,11,IO7*%
%TO.N,/esp32/GATE_1*%
X53960000Y-75575000D03*
%TO.P,U1,12,IO8*%
%TO.N,/esp32/GATE_2*%
X53960000Y-76425000D03*
%TO.P,U1,13,IO9*%
%TO.N,/esp32/GATE_3*%
X53960000Y-77275000D03*
%TO.P,U1,14,IO10*%
%TO.N,/esp32/GATE_4*%
X53960000Y-78125000D03*
%TO.P,U1,15,IO11*%
%TO.N,/esp32/GATE_5*%
X53960000Y-78975000D03*
D29*
%TO.P,U1,16,IO12*%
%TO.N,/esp32/GATE_6*%
X55010000Y-80025000D03*
%TO.P,U1,17,IO13*%
%TO.N,/esp32/GATE_7*%
X55860000Y-80025000D03*
%TO.P,U1,18,IO14*%
%TO.N,/esp32/GATE_8*%
X56710000Y-80025000D03*
%TO.P,U1,19,IO15*%
%TO.N,unconnected-(U1-IO15-Pad19)*%
X57560000Y-80025000D03*
%TO.P,U1,20,IO16*%
%TO.N,unconnected-(U1-IO16-Pad20)*%
X58410000Y-80025000D03*
%TO.P,U1,21,IO17*%
%TO.N,unconnected-(U1-IO17-Pad21)*%
X59260000Y-80025000D03*
%TO.P,U1,22,IO18*%
%TO.N,unconnected-(U1-IO18-Pad22)*%
X60110000Y-80025000D03*
%TO.P,U1,23,IO19*%
%TO.N,Net-(U1-IO19)*%
X60960000Y-80025000D03*
%TO.P,U1,24,IO20*%
%TO.N,Net-(U1-IO20)*%
X61810000Y-80025000D03*
%TO.P,U1,25,IO21*%
%TO.N,unconnected-(U1-IO21-Pad25)*%
X62660000Y-80025000D03*
%TO.P,U1,26,IO26*%
%TO.N,unconnected-(U1-IO26-Pad26)*%
X63510000Y-80025000D03*
%TO.P,U1,27,IO47*%
%TO.N,unconnected-(U1-IO47-Pad27)*%
X64360000Y-80025000D03*
%TO.P,U1,28,IO33*%
%TO.N,unconnected-(U1-IO33-Pad28)*%
X65210000Y-80025000D03*
%TO.P,U1,29,IO34*%
%TO.N,unconnected-(U1-IO34-Pad29)*%
X66060000Y-80025000D03*
%TO.P,U1,30,IO48*%
%TO.N,unconnected-(U1-IO48-Pad30)*%
X66910000Y-80025000D03*
D28*
%TO.P,U1,31,IO35*%
%TO.N,unconnected-(U1-IO35-Pad31)*%
X67960000Y-78975000D03*
%TO.P,U1,32,IO36*%
%TO.N,unconnected-(U1-IO36-Pad32)*%
X67960000Y-78125000D03*
%TO.P,U1,33,IO37*%
%TO.N,unconnected-(U1-IO37-Pad33)*%
X67960000Y-77275000D03*
%TO.P,U1,34,IO38*%
%TO.N,unconnected-(U1-IO38-Pad34)*%
X67960000Y-76425000D03*
%TO.P,U1,35,IO39*%
%TO.N,unconnected-(U1-IO39-Pad35)*%
X67960000Y-75575000D03*
%TO.P,U1,36,IO40*%
%TO.N,unconnected-(U1-IO40-Pad36)*%
X67960000Y-74725000D03*
%TO.P,U1,37,IO41*%
%TO.N,unconnected-(U1-IO41-Pad37)*%
X67960000Y-73875000D03*
%TO.P,U1,38,IO42*%
%TO.N,/esp32/MIDI_IN*%
X67960000Y-73025000D03*
%TO.P,U1,39,TXD0*%
%TO.N,TX*%
X67960000Y-72175000D03*
%TO.P,U1,40,RXD0*%
%TO.N,RX*%
X67960000Y-71325000D03*
%TO.P,U1,41,IO45*%
%TO.N,unconnected-(U1-IO45-Pad41)*%
X67960000Y-70475000D03*
%TO.P,U1,42,GND*%
%TO.N,GND*%
X67960000Y-69625000D03*
%TO.P,U1,43,GND*%
X67960000Y-68775000D03*
%TO.P,U1,44,IO46*%
%TO.N,unconnected-(U1-IO46-Pad44)*%
X67960000Y-67925000D03*
%TO.P,U1,45,EN*%
%TO.N,Net-(SW1-B)*%
X67960000Y-67075000D03*
D29*
%TO.P,U1,46,GND*%
%TO.N,GND*%
X66910000Y-66025000D03*
%TO.P,U1,47,GND*%
X66060000Y-66025000D03*
%TO.P,U1,48,GND*%
X65210000Y-66025000D03*
%TO.P,U1,49,GND*%
X64360000Y-66025000D03*
%TO.P,U1,50,GND*%
X63510000Y-66025000D03*
%TO.P,U1,51,GND*%
X62660000Y-66025000D03*
%TO.P,U1,52,GND*%
X61810000Y-66025000D03*
%TO.P,U1,53,GND*%
X60960000Y-66025000D03*
%TO.P,U1,54,GND*%
X60110000Y-66025000D03*
%TO.P,U1,55,GND*%
X59260000Y-66025000D03*
%TO.P,U1,56,GND*%
X58410000Y-66025000D03*
%TO.P,U1,57,GND*%
X57560000Y-66025000D03*
%TO.P,U1,58,GND*%
X56710000Y-66025000D03*
%TO.P,U1,59,GND*%
X55860000Y-66025000D03*
%TO.P,U1,60,GND*%
X55010000Y-66025000D03*
D30*
%TO.P,U1,61,GND*%
X59310000Y-71375000D03*
D31*
X59310000Y-73025000D03*
X59310000Y-74675000D03*
X60960000Y-71375000D03*
X60960000Y-73025000D03*
X60960000Y-74675000D03*
X62610000Y-71375000D03*
X62610000Y-73025000D03*
X62610000Y-74675000D03*
D32*
%TO.P,U1,62,GND*%
X53960000Y-66025000D03*
%TO.P,U1,63,GND*%
X53960000Y-80025000D03*
%TO.P,U1,64,GND*%
X67960000Y-80025000D03*
%TO.P,U1,65,GND*%
X67960000Y-66025000D03*
%TD*%
D24*
%TO.P,U2,1*%
%TO.N,Net-(R6-Pad1)*%
X80010000Y-56010000D03*
%TO.P,U2,2,-*%
%TO.N,V_MID*%
X80010000Y-57280000D03*
%TO.P,U2,3,+*%
%TO.N,/esp32/GATE_1*%
X80010000Y-58550000D03*
%TO.P,U2,4,V-*%
%TO.N,GND*%
X80010000Y-59820000D03*
%TO.P,U2,5,+*%
%TO.N,/esp32/GATE_2*%
X84960000Y-59820000D03*
%TO.P,U2,6,-*%
%TO.N,V_MID*%
X84960000Y-58550000D03*
%TO.P,U2,7*%
%TO.N,Net-(R8-Pad1)*%
X84960000Y-57280000D03*
%TO.P,U2,8,V+*%
%TO.N,V_SUPPLY*%
X84960000Y-56010000D03*
D25*
%TO.P,U2,9*%
%TO.N,N/C*%
X82485000Y-57915000D03*
%TD*%
D14*
%TO.P,D6,1,K*%
%TO.N,GND*%
X98425000Y-76200000D03*
%TO.P,D6,2,A*%
%TO.N,Net-(D6-A)*%
X96850000Y-76200000D03*
%TD*%
D10*
%TO.P,R7,1*%
%TO.N,/esp32/GATE_2*%
X88390000Y-57915000D03*
%TO.P,R7,2*%
%TO.N,Net-(D2-A)*%
X89410000Y-57915000D03*
%TD*%
D24*
%TO.P,U5,1*%
%TO.N,Net-(R18-Pad1)*%
X80140000Y-86995000D03*
%TO.P,U5,2,-*%
%TO.N,V_MID*%
X80140000Y-88265000D03*
%TO.P,U5,3,+*%
%TO.N,/esp32/GATE_7*%
X80140000Y-89535000D03*
%TO.P,U5,4,V-*%
%TO.N,GND*%
X80140000Y-90805000D03*
%TO.P,U5,5,+*%
%TO.N,/esp32/GATE_8*%
X85090000Y-90805000D03*
%TO.P,U5,6,-*%
%TO.N,V_MID*%
X85090000Y-89535000D03*
%TO.P,U5,7*%
%TO.N,Net-(R20-Pad1)*%
X85090000Y-88265000D03*
%TO.P,U5,8,V+*%
%TO.N,V_SUPPLY*%
X85090000Y-86995000D03*
D25*
%TO.P,U5,9*%
%TO.N,N/C*%
X82615000Y-88900000D03*
%TD*%
D33*
%TO.P,V_SUPPLY1,1,Pin_1*%
%TO.N,V_SUPPLY*%
X55880000Y-50800000D03*
D34*
%TO.P,V_SUPPLY1,2,Pin_2*%
X58420000Y-50800000D03*
%TO.P,V_SUPPLY1,3,Pin_3*%
X60960000Y-50800000D03*
%TO.P,V_SUPPLY1,4,Pin_4*%
X63500000Y-50800000D03*
%TO.P,V_SUPPLY1,5,Pin_5*%
X66040000Y-50800000D03*
%TD*%
D33*
%TO.P,V_SUPPLY2,1,Pin_1*%
%TO.N,V_SUPPLY*%
X86360000Y-50800000D03*
D34*
%TO.P,V_SUPPLY2,2,Pin_2*%
X88900000Y-50800000D03*
%TO.P,V_SUPPLY2,3,Pin_3*%
X91440000Y-50800000D03*
%TO.P,V_SUPPLY2,4,Pin_4*%
X93980000Y-50800000D03*
%TO.P,V_SUPPLY2,5,Pin_5*%
X96520000Y-50800000D03*
%TD*%
D33*
%TO.P,GND2,1,Pin_1*%
%TO.N,GND*%
X86360000Y-96520000D03*
D34*
%TO.P,GND2,2,Pin_2*%
X88900000Y-96520000D03*
%TO.P,GND2,3,Pin_3*%
X91440000Y-96520000D03*
%TO.P,GND2,4,Pin_4*%
X93980000Y-96520000D03*
%TO.P,GND2,5,Pin_5*%
X96520000Y-96520000D03*
%TD*%
D33*
%TO.P,GND1,1,Pin_1*%
%TO.N,GND*%
X55880000Y-96520000D03*
D34*
%TO.P,GND1,2,Pin_2*%
X58420000Y-96520000D03*
%TO.P,GND1,3,Pin_3*%
X60960000Y-96520000D03*
%TO.P,GND1,4,Pin_4*%
X63500000Y-96520000D03*
%TO.P,GND1,5,Pin_5*%
X66040000Y-96520000D03*
%TD*%
D35*
%TO.N,/esp32/GATE_6*%
X78435200Y-82092800D03*
%TO.N,Net-(SW2-B)*%
X64770000Y-90170000D03*
X52578000Y-70612000D03*
%TO.N,GND*%
X57353200Y-82372200D03*
X63144400Y-81102200D03*
%TO.N,Net-(SW1-B)*%
X69215000Y-67056000D03*
X65405000Y-84201000D03*
%TO.N,GND*%
X84582000Y-61087000D03*
X84595165Y-71133165D03*
X84124800Y-81686400D03*
X67528500Y-86578500D03*
X50165000Y-70485000D03*
%TO.N,V_MID*%
X96489499Y-90012499D03*
%TO.N,GND*%
X97409000Y-93091000D03*
%TO.N,V_SUPPLY*%
X95377000Y-88773000D03*
%TO.N,V_MID*%
X86156800Y-94284800D03*
X81991200Y-94437200D03*
%TO.N,MIDI_GND*%
X76555600Y-94930200D03*
X69850000Y-61468000D03*
%TO.N,RX*%
X74295000Y-93929200D03*
X72720200Y-71526400D03*
%TO.N,TX*%
X71780400Y-72898000D03*
X72771000Y-92208002D03*
%TO.N,/esp32/MIDI_IN*%
X63881000Y-64389000D03*
X64960500Y-70929500D03*
%TO.N,/esp32/GATE_8*%
X82575400Y-91084400D03*
X84531200Y-93878400D03*
X69316600Y-83972400D03*
X66802000Y-77993000D03*
%TO.N,/esp32/GATE_7*%
X61581573Y-81383070D03*
X58445400Y-81280000D03*
%TO.N,/esp32/GATE_6*%
X69596000Y-76682600D03*
X66548000Y-76809600D03*
X76835000Y-83921600D03*
%TO.N,/esp32/GATE_5*%
X70205600Y-75717400D03*
X66827400Y-75869800D03*
%TO.N,/esp32/GATE_4*%
X77165200Y-71475600D03*
X69646800Y-74650600D03*
X66497200Y-74752200D03*
X76047600Y-73431400D03*
%TO.N,/esp32/GATE_3*%
X69977000Y-68834000D03*
X66878200Y-68630800D03*
%TO.N,/esp32/GATE_2*%
X69870398Y-64775002D03*
X66522600Y-67462400D03*
X76835000Y-61976000D03*
X78562200Y-61061600D03*
%TO.N,/esp32/GATE_1*%
X69011800Y-63449200D03*
X64592200Y-67005200D03*
%TO.N,V_SUPPLY*%
X72796400Y-86436200D03*
%TO.N,GND*%
X59284500Y-86716500D03*
%TO.N,V_SUPPLY*%
X64262000Y-85725000D03*
X52832000Y-68775000D03*
%TO.N,GND*%
X52197000Y-66265000D03*
X52959000Y-94361000D03*
D36*
%TO.N,*%
X62377580Y-43815000D03*
X62784908Y-106045000D03*
X92710000Y-106045000D03*
X92710000Y-106045000D03*
X92710000Y-106045000D03*
X92710000Y-43815000D03*
X92710000Y-43815000D03*
X92710000Y-43815000D03*
X92710000Y-106045000D03*
X62377580Y-43815000D03*
X62784908Y-106045000D03*
X62784908Y-106045000D03*
X92710000Y-43815000D03*
X62784908Y-106045000D03*
X62377580Y-43815000D03*
X62377580Y-43815000D03*
D35*
%TO.N,GND*%
X83950000Y-85090000D03*
X77978000Y-69011800D03*
X83820000Y-54105000D03*
X78105000Y-59820000D03*
X83732500Y-74930000D03*
X98425000Y-84455000D03*
X78235000Y-90805000D03*
X77470000Y-79654400D03*
X52070000Y-96520000D03*
X83819090Y-64135000D03*
%TO.N,V_SUPPLY*%
X85637500Y-75565000D03*
X85855000Y-85725000D03*
X85725000Y-54740000D03*
X85724090Y-64770000D03*
%TO.N,Net-(D2-A)*%
X95224600Y-60909200D03*
X95046800Y-63525400D03*
%TO.N,Net-(U1-IO19)*%
X53411473Y-89250000D03*
X52654200Y-87503000D03*
%TO.N,V_MID*%
X86995000Y-57915000D03*
X78235000Y-86995000D03*
X78105000Y-56010000D03*
X87125000Y-88900000D03*
X78104090Y-66040000D03*
X86907500Y-78740000D03*
X78017500Y-76835000D03*
X86994090Y-67945000D03*
%TO.N,Net-(D4-A)*%
X93878400Y-70307200D03*
X95250000Y-71805800D03*
%TO.N,Net-(D6-A)*%
X91389200Y-76250800D03*
X94183200Y-76200000D03*
%TO.N,Net-(D8-A)*%
X91465400Y-83896200D03*
X93878400Y-83845400D03*
%TO.N,/gate_process1/GATE_A_OUT*%
X97155000Y-67310000D03*
X99695000Y-67310000D03*
%TO.N,/gate_process3/GATE_B_OUT*%
X99695000Y-82550000D03*
X90566200Y-85333800D03*
%TO.N,/gate_process2/GATE_A_OUT*%
X96520000Y-72390000D03*
X99695000Y-72390000D03*
%TO.N,/gate_process1/GATE_B_OUT*%
X94716600Y-69113400D03*
X99695000Y-69850000D03*
%TO.N,/gate_process3/GATE_A_OUT*%
X96520000Y-77470000D03*
X99695000Y-77470000D03*
%TO.N,/gate_process2/GATE_B_OUT*%
X99695000Y-74930000D03*
X91440000Y-74930000D03*
%TD*%
D37*
%TO.N,/esp32/GATE_6*%
X78435200Y-82092800D02*
X78527739Y-82185339D01*
X83388200Y-80645000D02*
X84872500Y-80645000D01*
X78527739Y-82185339D02*
X78527739Y-82296000D01*
X78527739Y-82296000D02*
X81737200Y-82296000D01*
X81737200Y-82296000D02*
X83388200Y-80645000D01*
%TO.N,Net-(D8-A)*%
X91465400Y-83896200D02*
X92060000Y-84490800D01*
X92060000Y-88280000D02*
X91440000Y-88900000D01*
X92060000Y-84490800D02*
X92060000Y-88280000D01*
X91440000Y-88900000D02*
X89540000Y-88900000D01*
X93878400Y-83845400D02*
X96443800Y-81280000D01*
X96443800Y-81280000D02*
X96850000Y-81280000D01*
%TO.N,/esp32/GATE_2*%
X78562200Y-61061600D02*
X79080600Y-61580000D01*
X82819000Y-61580000D02*
X84579000Y-59820000D01*
X79080600Y-61580000D02*
X82819000Y-61580000D01*
X84579000Y-59820000D02*
X84960000Y-59820000D01*
X69870398Y-64775002D02*
X72669400Y-61976000D01*
X72669400Y-61976000D02*
X76835000Y-61976000D01*
%TO.N,/esp32/GATE_1*%
X75851000Y-56610000D02*
X76675000Y-56610000D01*
X76675000Y-56610000D02*
X77345000Y-57280000D01*
X69011800Y-63449200D02*
X75851000Y-56610000D01*
%TO.N,/esp32/GATE_2*%
X66522600Y-67462400D02*
X65771000Y-68214000D01*
X54660000Y-76425000D02*
X53960000Y-76425000D01*
X56253000Y-68199000D02*
X56253000Y-74832000D01*
X65771000Y-68214000D02*
X56268000Y-68214000D01*
X56268000Y-68214000D02*
X56253000Y-68199000D01*
X56253000Y-74832000D02*
X54660000Y-76425000D01*
%TO.N,/esp32/GATE_3*%
X56769000Y-75184000D02*
X54678000Y-77275000D01*
X57023000Y-68834000D02*
X56769000Y-69088000D01*
X66878200Y-68630800D02*
X66675000Y-68834000D01*
X66675000Y-68834000D02*
X57023000Y-68834000D01*
X56769000Y-69088000D02*
X56769000Y-75184000D01*
X54678000Y-77275000D02*
X53960000Y-77275000D01*
%TO.N,/esp32/GATE_1*%
X64033400Y-67564000D02*
X55753000Y-67564000D01*
X55753000Y-67564000D02*
X55753000Y-74482000D01*
X55753000Y-74482000D02*
X54660000Y-75575000D01*
X54660000Y-75575000D02*
X53960000Y-75575000D01*
X64592200Y-67005200D02*
X64033400Y-67564000D01*
D38*
%TO.N,GND*%
X77978000Y-69011800D02*
X77314090Y-69675710D01*
X77314090Y-69675710D02*
X77314090Y-69850000D01*
X80009090Y-69850000D02*
X78816200Y-69850000D01*
X78816200Y-69850000D02*
X77978000Y-69011800D01*
D37*
%TO.N,/esp32/GATE_4*%
X77165200Y-71475600D02*
X77647800Y-71958200D01*
X77647800Y-71958200D02*
X81483200Y-71958200D01*
X81483200Y-71958200D02*
X83591400Y-69850000D01*
X83591400Y-69850000D02*
X84959090Y-69850000D01*
%TO.N,Net-(D3-A)*%
X96850000Y-68580000D02*
X92913000Y-72517000D01*
X92913000Y-72517000D02*
X76377800Y-72517000D01*
X76354090Y-72493290D02*
X76354090Y-69850000D01*
X76377800Y-72517000D02*
X76354090Y-72493290D01*
%TO.N,/gate_process2/GATE_A_OUT*%
X96520000Y-72390000D02*
X95750000Y-73160000D01*
X95750000Y-73160000D02*
X84653972Y-73160000D01*
X84653972Y-73160000D02*
X84052372Y-73761600D01*
X78040900Y-73761600D02*
X76237500Y-75565000D01*
X84052372Y-73761600D02*
X78040900Y-73761600D01*
%TO.N,/esp32/GATE_4*%
X76047600Y-73431400D02*
X74904600Y-73431400D01*
X73685400Y-74650600D02*
X69646800Y-74650600D01*
X74904600Y-73431400D02*
X73685400Y-74650600D01*
D38*
%TO.N,V_SUPPLY*%
X52832000Y-68775000D02*
X53960000Y-68775000D01*
X52832000Y-68775000D02*
X50859000Y-68775000D01*
X50859000Y-68775000D02*
X50419000Y-69215000D01*
D37*
%TO.N,RX*%
X72518800Y-71325000D02*
X67960000Y-71325000D01*
X72720200Y-71526400D02*
X72518800Y-71325000D01*
%TO.N,TX*%
X71780400Y-72898000D02*
X71550000Y-72898000D01*
X71550000Y-72898000D02*
X70827000Y-72175000D01*
X70827000Y-72175000D02*
X67960000Y-72175000D01*
%TO.N,/gate_process3/GATE_B_OUT*%
X90566200Y-85333800D02*
X89540000Y-86360000D01*
%TO.N,GND*%
X63144400Y-81102200D02*
X63703200Y-81661000D01*
X63703200Y-81661000D02*
X67024000Y-81661000D01*
X67024000Y-81661000D02*
X67960000Y-80725000D01*
X67960000Y-80725000D02*
X67960000Y-80025000D01*
%TO.N,/esp32/GATE_7*%
X63134000Y-82535000D02*
X71745000Y-82535000D01*
X61581573Y-81383070D02*
X61982070Y-81383070D01*
X61982070Y-81383070D02*
X63134000Y-82535000D01*
X71745000Y-82535000D02*
X77475000Y-88265000D01*
X56415000Y-81280000D02*
X55860000Y-80725000D01*
X58445400Y-81280000D02*
X56415000Y-81280000D01*
X55860000Y-80725000D02*
X55860000Y-80025000D01*
%TO.N,GND*%
X53960000Y-80725000D02*
X53960000Y-80025000D01*
X57353200Y-82372200D02*
X55607200Y-82372200D01*
X55607200Y-82372200D02*
X53960000Y-80725000D01*
%TO.N,/esp32/GATE_8*%
X75692000Y-87884000D02*
X75692000Y-91029105D01*
X84012800Y-93360000D02*
X84531200Y-93878400D01*
X69316600Y-83972400D02*
X71780400Y-83972400D01*
X71780400Y-83972400D02*
X75692000Y-87884000D01*
X75692000Y-91029105D02*
X78022895Y-93360000D01*
X78022895Y-93360000D02*
X84012800Y-93360000D01*
D38*
%TO.N,V_SUPPLY*%
X71958200Y-85598000D02*
X72796400Y-86436200D01*
X71755000Y-85598000D02*
X71958200Y-85598000D01*
D37*
%TO.N,/esp32/GATE_6*%
X70891400Y-77978000D02*
X75311000Y-77978000D01*
X75311000Y-82219800D02*
X76835000Y-83743800D01*
X75311000Y-77978000D02*
X75311000Y-82219800D01*
X69596000Y-76682600D02*
X70891400Y-77978000D01*
X76835000Y-83743800D02*
X76835000Y-83921600D01*
X57404000Y-77343000D02*
X55010000Y-79737000D01*
X55010000Y-79737000D02*
X55010000Y-80025000D01*
X66548000Y-76809600D02*
X66014600Y-77343000D01*
X66014600Y-77343000D02*
X57404000Y-77343000D01*
%TO.N,/esp32/GATE_5*%
X76587500Y-77435000D02*
X77257500Y-78105000D01*
X70205600Y-75717400D02*
X71923200Y-77435000D01*
X71923200Y-77435000D02*
X76587500Y-77435000D01*
X57277000Y-76454000D02*
X54756000Y-78975000D01*
X65700050Y-76469000D02*
X57292000Y-76469000D01*
X54756000Y-78975000D02*
X53960000Y-78975000D01*
X66827400Y-75869800D02*
X66299250Y-75869800D01*
X66299250Y-75869800D02*
X65700050Y-76469000D01*
X57292000Y-76469000D02*
X57277000Y-76454000D01*
%TO.N,/esp32/GATE_4*%
X66497200Y-74752200D02*
X65430400Y-75819000D01*
X65430400Y-75819000D02*
X57023000Y-75819000D01*
X54717000Y-78125000D02*
X53960000Y-78125000D01*
X57023000Y-75819000D02*
X54717000Y-78125000D01*
D38*
%TO.N,MIDI_GND*%
X76555600Y-94930200D02*
X76479400Y-95006400D01*
X76479400Y-95006400D02*
X76479400Y-101879400D01*
X76479400Y-101879400D02*
X78740000Y-104140000D01*
D37*
%TO.N,RX*%
X74310000Y-102250000D02*
X76200000Y-104140000D01*
X74295000Y-93929200D02*
X74310000Y-93944200D01*
X74310000Y-93944200D02*
X74310000Y-102250000D01*
%TO.N,TX*%
X72771000Y-103251000D02*
X73660000Y-104140000D01*
X72771000Y-92208002D02*
X72771000Y-103251000D01*
%TO.N,Net-(D6-A)*%
X91389200Y-76250800D02*
X91338400Y-76301600D01*
X91338400Y-76301600D02*
X91338400Y-78740000D01*
X91338400Y-78740000D02*
X89322500Y-78740000D01*
X96850000Y-76200000D02*
X94183200Y-76200000D01*
%TO.N,/esp32/GATE_8*%
X82854800Y-90805000D02*
X85090000Y-90805000D01*
X82575400Y-91084400D02*
X82854800Y-90805000D01*
%TO.N,Net-(D5-A)*%
X96850000Y-73660000D02*
X92710000Y-73660000D01*
X92710000Y-73660000D02*
X92710000Y-80645000D01*
X90424000Y-82931000D02*
X76729306Y-82931000D01*
X76729306Y-82931000D02*
X75905853Y-82107547D01*
X76267500Y-81745900D02*
X76267500Y-80645000D01*
X92710000Y-80645000D02*
X90424000Y-82931000D01*
X75905853Y-82107547D02*
X76267500Y-81745900D01*
D38*
%TO.N,GND*%
X77227500Y-79896900D02*
X77227500Y-80645000D01*
X77470000Y-79654400D02*
X77227500Y-79896900D01*
X79922500Y-80645000D02*
X78460600Y-80645000D01*
X78460600Y-80645000D02*
X77470000Y-79654400D01*
D37*
%TO.N,Net-(D4-A)*%
X92295600Y-71890000D02*
X89670000Y-71890000D01*
X89670000Y-71890000D02*
X89379090Y-71599090D01*
X93878400Y-70307200D02*
X92295600Y-71890000D01*
X89379090Y-71599090D02*
X89379090Y-69850000D01*
X96850000Y-71120000D02*
X95935800Y-71120000D01*
X95935800Y-71120000D02*
X95250000Y-71805800D01*
%TO.N,/gate_process1/GATE_B_OUT*%
X94716600Y-69113400D02*
X93878400Y-69113400D01*
X93878400Y-69113400D02*
X90170000Y-65405000D01*
X90170000Y-65405000D02*
X89409090Y-65405000D01*
%TO.N,Net-(D2-A)*%
X95046800Y-63525400D02*
X95885000Y-64363600D01*
X95885000Y-65075000D02*
X96850000Y-66040000D01*
X95885000Y-64363600D02*
X95885000Y-65075000D01*
X95224600Y-60909200D02*
X94553800Y-61580000D01*
X89380000Y-61440000D02*
X89380000Y-59820000D01*
X94553800Y-61580000D02*
X89550000Y-61580000D01*
X89550000Y-61580000D02*
X89535000Y-61595000D01*
X89535000Y-61595000D02*
X89380000Y-61440000D01*
D39*
%TO.N,Net-(U1-IO20)*%
X54685000Y-88650000D02*
X55660000Y-88650000D01*
X55660000Y-88650000D02*
X55710000Y-88700000D01*
X55660000Y-89650000D02*
X54685000Y-89650000D01*
X55710000Y-88700000D02*
X55710000Y-89600000D01*
X55710000Y-89600000D02*
X55660000Y-89650000D01*
%TO.N,Net-(U1-IO19)*%
X52654200Y-87503000D02*
X53301200Y-88150000D01*
X53301200Y-88150000D02*
X54685000Y-88150000D01*
D38*
%TO.N,V_MID*%
X81991200Y-94437200D02*
X82804000Y-95250000D01*
X82804000Y-95250000D02*
X84732200Y-95250000D01*
X84732200Y-95250000D02*
X85697400Y-94284800D01*
X85697400Y-94284800D02*
X86156800Y-94284800D01*
D37*
%TO.N,Net-(SW2-B)*%
X65864000Y-90170000D02*
X66977000Y-91283000D01*
X64770000Y-90170000D02*
X65864000Y-90170000D01*
X52578000Y-70612000D02*
X53565000Y-69625000D01*
X53565000Y-69625000D02*
X53960000Y-69625000D01*
%TO.N,Net-(SW1-B)*%
X62081366Y-85725000D02*
X62071000Y-85725000D01*
X67960000Y-67075000D02*
X69196000Y-67075000D01*
X63605366Y-84201000D02*
X62081366Y-85725000D01*
X69196000Y-67075000D02*
X69215000Y-67056000D01*
X65405000Y-84201000D02*
X63605366Y-84201000D01*
D38*
%TO.N,GND*%
X67960000Y-66025000D02*
X69708000Y-66025000D01*
X70675500Y-66992500D02*
X68893000Y-68775000D01*
X69708000Y-66025000D02*
X70675500Y-66992500D01*
X68893000Y-68775000D02*
X67960000Y-68775000D01*
X54685000Y-85675000D02*
X55270000Y-85090000D01*
X55270000Y-85090000D02*
X55270000Y-83591000D01*
X55270000Y-83591000D02*
X55118000Y-83439000D01*
X55118000Y-83439000D02*
X53017497Y-83439000D01*
X53017497Y-83439000D02*
X50800000Y-85656497D01*
X50800000Y-85656497D02*
X50800000Y-92786497D01*
X50840000Y-92826497D02*
X50840000Y-93004000D01*
X50800000Y-92786497D02*
X50840000Y-92826497D01*
X50840000Y-93004000D02*
X52197000Y-94361000D01*
X52197000Y-94361000D02*
X52959000Y-94361000D01*
%TO.N,V_SUPPLY*%
X55880000Y-50800000D02*
X66040000Y-50800000D01*
%TO.N,GND*%
X88420000Y-59820000D02*
X87153000Y-61087000D01*
X87153000Y-61087000D02*
X84582000Y-61087000D01*
X88419090Y-69850000D02*
X87135925Y-71133165D01*
X87135925Y-71133165D02*
X84595165Y-71133165D01*
X78235000Y-90805000D02*
X79493000Y-92063000D01*
X79493000Y-92063000D02*
X87292000Y-92063000D01*
X87292000Y-92063000D02*
X88550000Y-90805000D01*
X67528500Y-86578500D02*
X68509000Y-85598000D01*
X53960000Y-67925000D02*
X53960000Y-66025000D01*
X53510000Y-80025000D02*
X50165000Y-76680000D01*
X50165000Y-76680000D02*
X50165000Y-70485000D01*
X53960000Y-80025000D02*
X53510000Y-80025000D01*
X59310000Y-73025000D02*
X62610000Y-73025000D01*
X60960000Y-71375000D02*
X60960000Y-74675000D01*
X59310000Y-71375000D02*
X62610000Y-71375000D01*
X59310000Y-74675000D02*
X59310000Y-71375000D01*
X62610000Y-74675000D02*
X59310000Y-74675000D01*
X62610000Y-71375000D02*
X62610000Y-74675000D01*
X62610000Y-71375000D02*
X64360000Y-69625000D01*
X64360000Y-69625000D02*
X67960000Y-69625000D01*
D37*
%TO.N,/esp32/MIDI_IN*%
X64960500Y-70929500D02*
X67056000Y-73025000D01*
X67056000Y-73025000D02*
X67960000Y-73025000D01*
D38*
%TO.N,GND*%
X67960000Y-68775000D02*
X67960000Y-69625000D01*
X53960000Y-66025000D02*
X67960000Y-66025000D01*
%TO.N,V_MID*%
X96489499Y-90012500D02*
X96389000Y-90112999D01*
X96489499Y-90012499D02*
X96489499Y-90012500D01*
X96489500Y-90012499D02*
X96489499Y-90012499D01*
%TO.N,GND*%
X97409000Y-91567000D02*
X97409000Y-93091000D01*
%TO.N,V_SUPPLY*%
X96389000Y-88773000D02*
X95377000Y-88773000D01*
%TO.N,V_MID*%
X97409000Y-88773000D02*
X97409000Y-89092999D01*
X97409000Y-89092999D02*
X96489500Y-90012499D01*
X96389000Y-90112999D02*
X96389000Y-91567000D01*
D37*
%TO.N,MIDI_GND*%
X67440000Y-59055000D02*
X67440000Y-59058000D01*
D38*
X67440000Y-59058000D02*
X69850000Y-61468000D01*
D37*
%TO.N,/esp32/MIDI_IN*%
X63881000Y-64389000D02*
X64340000Y-63930000D01*
X64340000Y-63930000D02*
X64340000Y-59055000D01*
%TO.N,/esp32/GATE_8*%
X56710000Y-78926000D02*
X57658000Y-77978000D01*
X56710000Y-80025000D02*
X56710000Y-80725000D01*
X57658000Y-77978000D02*
X66787000Y-77978000D01*
X56710000Y-80725000D02*
X56710000Y-78926000D01*
X66787000Y-77978000D02*
X66802000Y-77993000D01*
%TO.N,/esp32/GATE_3*%
X72171000Y-66640000D02*
X76674090Y-66640000D01*
X69977000Y-68834000D02*
X72171000Y-66640000D01*
X76674090Y-66640000D02*
X77344090Y-67310000D01*
D38*
%TO.N,GND*%
X66977000Y-87533000D02*
X66977000Y-87130000D01*
X66977000Y-87130000D02*
X67528500Y-86578500D01*
X66977000Y-87533000D02*
X72977000Y-87533000D01*
D37*
%TO.N,Net-(SW1-B)*%
X57618000Y-86908000D02*
X59461000Y-85065000D01*
X60581999Y-85065000D02*
X60932000Y-85415001D01*
X60932000Y-85415001D02*
X60932000Y-85725000D01*
X59461000Y-85065000D02*
X60581999Y-85065000D01*
%TO.N,Net-(SW2-B)*%
X69469000Y-85598000D02*
X69469000Y-85288001D01*
X69469000Y-85288001D02*
X68889999Y-84709000D01*
X68889999Y-84709000D02*
X67564000Y-84709000D01*
X66127000Y-90433000D02*
X66977000Y-91283000D01*
X67564000Y-84709000D02*
X66127000Y-86146000D01*
X66127000Y-86146000D02*
X66127000Y-90433000D01*
X69469000Y-85598000D02*
X70735000Y-85598000D01*
%TO.N,Net-(SW1-B)*%
X60932000Y-85725000D02*
X62071000Y-85725000D01*
%TO.N,Net-(SW2-B)*%
X66977000Y-91283000D02*
X72977000Y-91283000D01*
%TO.N,Net-(SW1-B)*%
X58468000Y-91283000D02*
X57618000Y-90433000D01*
X57618000Y-90433000D02*
X57618000Y-86908000D01*
X58468000Y-91283000D02*
X64468000Y-91283000D01*
D38*
%TO.N,GND*%
X59284500Y-86716500D02*
X58468000Y-87533000D01*
%TO.N,V_SUPPLY*%
X63091000Y-85725000D02*
X64262000Y-85725000D01*
%TO.N,GND*%
X59972000Y-85725000D02*
X59972000Y-86029000D01*
X59972000Y-86029000D02*
X59284500Y-86716500D01*
X58468000Y-87533000D02*
X64468000Y-87533000D01*
D39*
%TO.N,Net-(U1-IO19)*%
X54685000Y-88150000D02*
X55660000Y-88150000D01*
X55660000Y-88150000D02*
X56515000Y-87295000D01*
X56515000Y-87295000D02*
X56515000Y-84820000D01*
X56515000Y-84820000D02*
X60960000Y-80375000D01*
X60960000Y-80375000D02*
X60960000Y-80025000D01*
D38*
%TO.N,GND*%
X52197000Y-66265000D02*
X53720000Y-66265000D01*
X50419000Y-66265000D02*
X52197000Y-66265000D01*
X53720000Y-66265000D02*
X53960000Y-66025000D01*
%TO.N,V_SUPPLY*%
X48514000Y-69032000D02*
X50236000Y-69032000D01*
X50236000Y-69032000D02*
X50419000Y-69215000D01*
%TO.N,GND*%
X48514000Y-68072000D02*
X48612000Y-68072000D01*
X48612000Y-68072000D02*
X50419000Y-66265000D01*
X52959000Y-94361000D02*
X54522503Y-94361000D01*
X55270000Y-92710000D02*
X54685000Y-92125000D01*
X55270000Y-93613503D02*
X55270000Y-92710000D01*
X54522503Y-94361000D02*
X55270000Y-93613503D01*
X84455000Y-53470000D02*
X83820000Y-54105000D01*
X78235000Y-90805000D02*
X77445000Y-90805000D01*
X84585000Y-84455000D02*
X83950000Y-85090000D01*
X50645000Y-96520000D02*
X52070000Y-96520000D01*
X80140000Y-90805000D02*
X78235000Y-90805000D01*
X78105000Y-59820000D02*
X77315000Y-59820000D01*
X84765000Y-53470000D02*
X84455000Y-53470000D01*
X84367500Y-74295000D02*
X83732500Y-74930000D01*
X86360000Y-96520000D02*
X96520000Y-96520000D01*
X55880000Y-96520000D02*
X66040000Y-96520000D01*
X84454090Y-63500000D02*
X83819090Y-64135000D01*
X84677500Y-74295000D02*
X84367500Y-74295000D01*
X98425000Y-63500000D02*
X98425000Y-81280000D01*
X84764090Y-63500000D02*
X84454090Y-63500000D01*
X80010000Y-59820000D02*
X78105000Y-59820000D01*
X84895000Y-84455000D02*
X84585000Y-84455000D01*
X98425000Y-81280000D02*
X98425000Y-84455000D01*
%TO.N,V_SUPPLY*%
X85855000Y-86230000D02*
X85090000Y-86995000D01*
X85637500Y-74295000D02*
X85637500Y-75565000D01*
X85724090Y-64770000D02*
X85724090Y-65275000D01*
X85855000Y-85725000D02*
X85855000Y-86230000D01*
X86360000Y-50800000D02*
X96520000Y-50800000D01*
X85725000Y-53470000D02*
X85725000Y-54740000D01*
X85637500Y-75565000D02*
X85637500Y-76070000D01*
X85724090Y-65275000D02*
X84959090Y-66040000D01*
X85855000Y-84455000D02*
X85855000Y-85725000D01*
X85725000Y-54740000D02*
X85725000Y-55245000D01*
X85725000Y-55245000D02*
X84960000Y-56010000D01*
X85637500Y-76070000D02*
X84872500Y-76835000D01*
X85724090Y-63500000D02*
X85724090Y-64770000D01*
D37*
%TO.N,Net-(J4-SHIELD)*%
X49590000Y-96425000D02*
X49685000Y-96520000D01*
X49590000Y-93220000D02*
X49590000Y-96425000D01*
%TO.N,Net-(D1-A)*%
X78455001Y-62230000D02*
X95580000Y-62230000D01*
X76355000Y-59820000D02*
X76355000Y-57310000D01*
X76355000Y-57310000D02*
X76325000Y-57280000D01*
X95580000Y-62230000D02*
X96850000Y-63500000D01*
X76355000Y-60129999D02*
X78455001Y-62230000D01*
X76355000Y-59820000D02*
X76355000Y-60129999D01*
%TO.N,Net-(D2-A)*%
X89410000Y-57915000D02*
X89410000Y-59790000D01*
X89410000Y-59790000D02*
X89380000Y-59820000D01*
%TO.N,/gate_process/GATE_B_OUT*%
X99695000Y-64135000D02*
X99695000Y-57150000D01*
X99695000Y-57150000D02*
X97920000Y-55375000D01*
X101600000Y-66040000D02*
X99695000Y-64135000D01*
X97920000Y-55375000D02*
X89410000Y-55375000D01*
%TO.N,/gate_process/GATE_A_OUT*%
X76325000Y-52580000D02*
X76325000Y-54740000D01*
X101600000Y-48260000D02*
X80645000Y-48260000D01*
X80645000Y-48260000D02*
X76325000Y-52580000D01*
X101600000Y-63500000D02*
X101600000Y-48260000D01*
D39*
%TO.N,Net-(U1-IO19)*%
X54685000Y-89150000D02*
X53511473Y-89150000D01*
X53511473Y-89150000D02*
X53411473Y-89250000D01*
D38*
%TO.N,V_MID*%
X79374090Y-67310000D02*
X78104090Y-66040000D01*
X86490000Y-89535000D02*
X87125000Y-88900000D01*
X84959090Y-68580000D02*
X86359090Y-68580000D01*
X86272500Y-79375000D02*
X86907500Y-78740000D01*
X84872500Y-79375000D02*
X86272500Y-79375000D01*
X80009090Y-67310000D02*
X79374090Y-67310000D01*
X79505000Y-88265000D02*
X78235000Y-86995000D01*
X86359090Y-68580000D02*
X86994090Y-67945000D01*
X79287500Y-78105000D02*
X78017500Y-76835000D01*
X80010000Y-57280000D02*
X79375000Y-57280000D01*
X86360000Y-58550000D02*
X86995000Y-57915000D01*
X80140000Y-88265000D02*
X79505000Y-88265000D01*
X79375000Y-57280000D02*
X78105000Y-56010000D01*
X85090000Y-89535000D02*
X86490000Y-89535000D01*
X84960000Y-58550000D02*
X86360000Y-58550000D01*
X79922500Y-78105000D02*
X79287500Y-78105000D01*
D37*
%TO.N,/esp32/GATE_1*%
X78615000Y-58550000D02*
X80010000Y-58550000D01*
X77345000Y-57280000D02*
X78615000Y-58550000D01*
%TO.N,/esp32/GATE_2*%
X86485000Y-59820000D02*
X84960000Y-59820000D01*
X88390000Y-57915000D02*
X86485000Y-59820000D01*
%TO.N,/esp32/GATE_5*%
X78527500Y-79375000D02*
X79922500Y-79375000D01*
X77257500Y-78105000D02*
X78527500Y-79375000D01*
%TO.N,/esp32/GATE_4*%
X86484090Y-69850000D02*
X84959090Y-69850000D01*
X88389090Y-67945000D02*
X86484090Y-69850000D01*
%TO.N,/esp32/GATE_7*%
X77475000Y-88265000D02*
X78745000Y-89535000D01*
X78745000Y-89535000D02*
X80140000Y-89535000D01*
%TO.N,/esp32/GATE_6*%
X86397500Y-80645000D02*
X84872500Y-80645000D01*
X88302500Y-78740000D02*
X86397500Y-80645000D01*
%TO.N,/esp32/GATE_8*%
X86615000Y-90805000D02*
X85090000Y-90805000D01*
X88520000Y-88900000D02*
X86615000Y-90805000D01*
%TO.N,/esp32/GATE_3*%
X77344090Y-67310000D02*
X78614090Y-68580000D01*
X78614090Y-68580000D02*
X80009090Y-68580000D01*
%TO.N,Net-(D3-A)*%
X76354090Y-67340000D02*
X76324090Y-67310000D01*
X76354090Y-69850000D02*
X76354090Y-67340000D01*
%TO.N,Net-(D4-A)*%
X89409090Y-67945000D02*
X89409090Y-69820000D01*
X89409090Y-69820000D02*
X89379090Y-69850000D01*
%TO.N,Net-(D5-A)*%
X76267500Y-80645000D02*
X76267500Y-78135000D01*
X76267500Y-78135000D02*
X76237500Y-78105000D01*
%TO.N,Net-(D6-A)*%
X89322500Y-78740000D02*
X89322500Y-80615000D01*
X89322500Y-80615000D02*
X89292500Y-80645000D01*
%TO.N,Net-(D7-A)*%
X76485000Y-90805000D02*
X76485000Y-88295000D01*
X76485000Y-91114999D02*
X76485000Y-90805000D01*
X90805000Y-92710000D02*
X78080001Y-92710000D01*
X92710000Y-90805000D02*
X90805000Y-92710000D01*
X96850000Y-78740000D02*
X92710000Y-82880000D01*
X76485000Y-88295000D02*
X76455000Y-88265000D01*
X78080001Y-92710000D02*
X76485000Y-91114999D01*
X92710000Y-82880000D02*
X92710000Y-90805000D01*
%TO.N,Net-(D8-A)*%
X89540000Y-90775000D02*
X89510000Y-90805000D01*
X89540000Y-88900000D02*
X89540000Y-90775000D01*
%TO.N,/gate_process1/GATE_A_OUT*%
X78254090Y-62840000D02*
X76324090Y-64770000D01*
X97155000Y-67310000D02*
X96834604Y-67310000D01*
X92389604Y-62865000D02*
X92075000Y-62865000D01*
X100965000Y-68580000D02*
X99695000Y-67310000D01*
X92050000Y-62840000D02*
X78254090Y-62840000D01*
X92075000Y-62865000D02*
X92050000Y-62840000D01*
X101600000Y-68580000D02*
X100965000Y-68580000D01*
X96834604Y-67310000D02*
X92389604Y-62865000D01*
%TO.N,/gate_process3/GATE_B_OUT*%
X99695000Y-82550000D02*
X100965000Y-81280000D01*
X100965000Y-81280000D02*
X101600000Y-81280000D01*
%TO.N,/gate_process2/GATE_A_OUT*%
X101600000Y-73660000D02*
X100965000Y-73660000D01*
X100965000Y-73660000D02*
X99695000Y-72390000D01*
%TO.N,/gate_process1/GATE_B_OUT*%
X100965000Y-71120000D02*
X99695000Y-69850000D01*
X101600000Y-71120000D02*
X100965000Y-71120000D01*
%TO.N,/gate_process3/GATE_A_OUT*%
X90457867Y-83604239D02*
X78575761Y-83604239D01*
X100965000Y-78740000D02*
X99695000Y-77470000D01*
X96520000Y-77470000D02*
X96520000Y-77542106D01*
X96520000Y-77542106D02*
X90457867Y-83604239D01*
X78575761Y-83604239D02*
X76455000Y-85725000D01*
X101600000Y-78740000D02*
X100965000Y-78740000D01*
%TO.N,/gate_process2/GATE_B_OUT*%
X91440000Y-74930000D02*
X90592500Y-74930000D01*
X101600000Y-76200000D02*
X100965000Y-76200000D01*
X90592500Y-74930000D02*
X89322500Y-76200000D01*
X100965000Y-76200000D02*
X99695000Y-74930000D01*
%TO.N,Net-(R6-Pad1)*%
X78740000Y-54740000D02*
X80010000Y-56010000D01*
X77345000Y-54740000D02*
X78740000Y-54740000D01*
%TO.N,Net-(R8-Pad1)*%
X88390000Y-55375000D02*
X86485000Y-57280000D01*
X86485000Y-57280000D02*
X84960000Y-57280000D01*
%TO.N,Net-(R10-Pad1)*%
X77344090Y-64770000D02*
X78739090Y-64770000D01*
X78739090Y-64770000D02*
X80009090Y-66040000D01*
%TO.N,Net-(R12-Pad1)*%
X88389090Y-65405000D02*
X86484090Y-67310000D01*
X86484090Y-67310000D02*
X84959090Y-67310000D01*
%TO.N,Net-(R14-Pad1)*%
X77257500Y-75565000D02*
X78652500Y-75565000D01*
X78652500Y-75565000D02*
X79922500Y-76835000D01*
%TO.N,Net-(R16-Pad1)*%
X86397500Y-78105000D02*
X84872500Y-78105000D01*
X88302500Y-76200000D02*
X86397500Y-78105000D01*
%TO.N,Net-(R18-Pad1)*%
X77475000Y-85725000D02*
X78870000Y-85725000D01*
X78870000Y-85725000D02*
X80140000Y-86995000D01*
%TO.N,Net-(R20-Pad1)*%
X86615000Y-88265000D02*
X85090000Y-88265000D01*
X88520000Y-86360000D02*
X86615000Y-88265000D01*
%TO.N,/esp32/GATE_7*%
X69565761Y-82550000D02*
X69580761Y-82535000D01*
D39*
%TO.N,Net-(U1-IO20)*%
X56915000Y-84985686D02*
X61128686Y-80772000D01*
X55725686Y-88650000D02*
X56915000Y-87460686D01*
X54685000Y-88650000D02*
X55725686Y-88650000D01*
X61810000Y-80322000D02*
X61810000Y-80025000D01*
X56915000Y-87460686D02*
X56915000Y-84985686D01*
X61128686Y-80772000D02*
X61360000Y-80772000D01*
X61360000Y-80772000D02*
X61810000Y-80322000D01*
D38*
%TO.N,GND*%
X84124800Y-81686400D02*
X87291100Y-81686400D01*
X87291100Y-81686400D02*
X88332500Y-80645000D01*
D37*
%TO.N,Net-(J4-VBUS-PadA4)*%
X53825305Y-91350000D02*
X51689000Y-89213695D01*
X51898200Y-86735000D02*
X53540305Y-86735000D01*
X54685000Y-91350000D02*
X53825305Y-91350000D01*
X51689000Y-89213695D02*
X51689000Y-86944200D01*
X51689000Y-86944200D02*
X51898200Y-86735000D01*
X53540305Y-86735000D02*
X53825305Y-86450000D01*
X53825305Y-86450000D02*
X54685000Y-86450000D01*
%TD*%
M02*
