%TF.GenerationSoftware,KiCad,Pcbnew,8.0.5*%
%TF.CreationDate,2024-11-19T03:03:03+05:30*%
%TF.ProjectId,midi,6d696469-2e6b-4696-9361-645f70636258,rev?*%
%TF.SameCoordinates,Original*%
%TF.FileFunction,Copper,L2,Bot*%
%TF.FilePolarity,Positive*%
%FSLAX46Y46*%
G04 Gerber Fmt 4.6, Leading zero omitted, Abs format (unit mm)*
G04 Created by KiCad (PCBNEW 8.0.5) date 2024-11-19 03:03:03*
%MOMM*%
%LPD*%
G01*
G04 APERTURE LIST*
G04 Aperture macros list*
%AMRoundRect*
0 Rectangle with rounded corners*
0 $1 Rounding radius*
0 $2 $3 $4 $5 $6 $7 $8 $9 X,Y pos of 4 corners*
0 Add a 4 corners polygon primitive as box body*
4,1,4,$2,$3,$4,$5,$6,$7,$8,$9,$2,$3,0*
0 Add four circle primitives for the rounded corners*
1,1,$1+$1,$2,$3*
1,1,$1+$1,$4,$5*
1,1,$1+$1,$6,$7*
1,1,$1+$1,$8,$9*
0 Add four rect primitives between the rounded corners*
20,1,$1+$1,$2,$3,$4,$5,0*
20,1,$1+$1,$4,$5,$6,$7,0*
20,1,$1+$1,$6,$7,$8,$9,0*
20,1,$1+$1,$8,$9,$2,$3,0*%
G04 Aperture macros list end*
%TA.AperFunction,Conductor*%
%ADD10C,0.200000*%
%TD*%
%TA.AperFunction,ComponentPad*%
%ADD11RoundRect,0.650000X0.650000X-0.650000X0.650000X0.650000X-0.650000X0.650000X-0.650000X-0.650000X0*%
%TD*%
%TA.AperFunction,ComponentPad*%
%ADD12O,2.100000X3.100000*%
%TD*%
%TA.AperFunction,ComponentPad*%
%ADD13R,1.700000X1.700000*%
%TD*%
%TA.AperFunction,ComponentPad*%
%ADD14O,1.700000X1.700000*%
%TD*%
%TA.AperFunction,ComponentPad*%
%ADD15O,2.100000X1.000000*%
%TD*%
%TA.AperFunction,ComponentPad*%
%ADD16O,1.600000X1.000000*%
%TD*%
%TA.AperFunction,ComponentPad*%
%ADD17R,2.000000X2.000000*%
%TD*%
%TA.AperFunction,ComponentPad*%
%ADD18O,2.000000X2.000000*%
%TD*%
%TA.AperFunction,ViaPad*%
%ADD19C,0.700000*%
%TD*%
%TA.AperFunction,ViaPad*%
%ADD20C,4.000000*%
%TD*%
%TA.AperFunction,Conductor*%
%ADD21C,0.300000*%
%TD*%
%TA.AperFunction,Conductor*%
%ADD22C,0.500000*%
%TD*%
G04 APERTURE END LIST*
D10*
%TO.N,GND*%
X97790000Y-97790000D02*
X54610000Y-97790000D01*
X54533800Y-95580200D01*
X97713800Y-95580200D01*
X97790000Y-97790000D01*
%TA.AperFunction,Conductor*%
G36*
X97790000Y-97790000D02*
G01*
X54610000Y-97790000D01*
X54533800Y-95580200D01*
X97713800Y-95580200D01*
X97790000Y-97790000D01*
G37*
%TD.AperFunction*%
%TO.N,V_MID*%
X97790000Y-90805000D02*
X95250000Y-90805000D01*
X95250000Y-89535000D01*
X97790000Y-89535000D01*
X97790000Y-90805000D01*
%TA.AperFunction,Conductor*%
G36*
X97790000Y-90805000D02*
G01*
X95250000Y-90805000D01*
X95250000Y-89535000D01*
X97790000Y-89535000D01*
X97790000Y-90805000D01*
G37*
%TD.AperFunction*%
%TD*%
D11*
%TO.P,J1,R*%
%TO.N,/esp32/MIDI_IN*%
X64340000Y-59055000D03*
D12*
%TO.P,J1,S*%
%TO.N,MIDI_GND*%
X67440000Y-59055000D03*
D11*
%TO.P,J1,T*%
%TO.N,unconnected-(J1-PadT)*%
X56040000Y-59055000D03*
%TD*%
D13*
%TO.P,J3,1,Pin_1*%
%TO.N,TX*%
X73660000Y-104140000D03*
D14*
%TO.P,J3,2,Pin_2*%
%TO.N,RX*%
X76200000Y-104140000D03*
%TO.P,J3,3,Pin_3*%
%TO.N,MIDI_GND*%
X78740000Y-104140000D03*
%TO.P,J3,4,Pin_4*%
%TO.N,GND*%
X81280000Y-104140000D03*
%TD*%
D15*
%TO.P,J4,S1,SHIELD*%
%TO.N,Net-(J4-SHIELD)*%
X53770000Y-84580000D03*
D16*
X49590000Y-84580000D03*
D15*
X53770000Y-93220000D03*
D16*
X49590000Y-93220000D03*
%TD*%
D13*
%TO.P,J2,1,Pin_1*%
%TO.N,/gate_process/GATE_A_OUT*%
X101600000Y-63500000D03*
D14*
%TO.P,J2,2,Pin_2*%
%TO.N,/gate_process/GATE_B_OUT*%
X101600000Y-66040000D03*
%TO.P,J2,3,Pin_3*%
%TO.N,/gate_process1/GATE_A_OUT*%
X101600000Y-68580000D03*
%TO.P,J2,4,Pin_4*%
%TO.N,/gate_process1/GATE_B_OUT*%
X101600000Y-71120000D03*
%TO.P,J2,5,Pin_5*%
%TO.N,/gate_process2/GATE_A_OUT*%
X101600000Y-73660000D03*
%TO.P,J2,6,Pin_6*%
%TO.N,/gate_process2/GATE_B_OUT*%
X101600000Y-76200000D03*
%TO.P,J2,7,Pin_7*%
%TO.N,/gate_process3/GATE_A_OUT*%
X101600000Y-78740000D03*
%TO.P,J2,8,Pin_8*%
%TO.N,/gate_process3/GATE_B_OUT*%
X101600000Y-81280000D03*
%TD*%
D17*
%TO.P,V_SUPPLY1,1,Pin_1*%
%TO.N,V_SUPPLY*%
X55880000Y-50800000D03*
D18*
%TO.P,V_SUPPLY1,2,Pin_2*%
X58420000Y-50800000D03*
%TO.P,V_SUPPLY1,3,Pin_3*%
X60960000Y-50800000D03*
%TO.P,V_SUPPLY1,4,Pin_4*%
X63500000Y-50800000D03*
%TO.P,V_SUPPLY1,5,Pin_5*%
X66040000Y-50800000D03*
%TD*%
D17*
%TO.P,V_SUPPLY2,1,Pin_1*%
%TO.N,V_SUPPLY*%
X86360000Y-50800000D03*
D18*
%TO.P,V_SUPPLY2,2,Pin_2*%
X88900000Y-50800000D03*
%TO.P,V_SUPPLY2,3,Pin_3*%
X91440000Y-50800000D03*
%TO.P,V_SUPPLY2,4,Pin_4*%
X93980000Y-50800000D03*
%TO.P,V_SUPPLY2,5,Pin_5*%
X96520000Y-50800000D03*
%TD*%
D17*
%TO.P,GND2,1,Pin_1*%
%TO.N,GND*%
X86360000Y-96520000D03*
D18*
%TO.P,GND2,2,Pin_2*%
X88900000Y-96520000D03*
%TO.P,GND2,3,Pin_3*%
X91440000Y-96520000D03*
%TO.P,GND2,4,Pin_4*%
X93980000Y-96520000D03*
%TO.P,GND2,5,Pin_5*%
X96520000Y-96520000D03*
%TD*%
D17*
%TO.P,GND1,1,Pin_1*%
%TO.N,GND*%
X55880000Y-96520000D03*
D18*
%TO.P,GND1,2,Pin_2*%
X58420000Y-96520000D03*
%TO.P,GND1,3,Pin_3*%
X60960000Y-96520000D03*
%TO.P,GND1,4,Pin_4*%
X63500000Y-96520000D03*
%TO.P,GND1,5,Pin_5*%
X66040000Y-96520000D03*
%TD*%
D19*
%TO.N,/esp32/GATE_6*%
X78435200Y-82092800D03*
%TO.N,Net-(SW2-B)*%
X64770000Y-90170000D03*
X52578000Y-70612000D03*
%TO.N,GND*%
X57353200Y-82372200D03*
X63144400Y-81102200D03*
%TO.N,Net-(SW1-B)*%
X69215000Y-67056000D03*
X65405000Y-84201000D03*
%TO.N,GND*%
X84582000Y-61087000D03*
X84595165Y-71133165D03*
X84124800Y-81686400D03*
X67528500Y-86578500D03*
X50165000Y-70485000D03*
%TO.N,V_MID*%
X96489499Y-90012499D03*
%TO.N,GND*%
X97409000Y-93091000D03*
%TO.N,V_SUPPLY*%
X95377000Y-88773000D03*
%TO.N,V_MID*%
X86156800Y-94284800D03*
X81991200Y-94437200D03*
%TO.N,MIDI_GND*%
X76555600Y-94930200D03*
X69850000Y-61468000D03*
%TO.N,RX*%
X74295000Y-93929200D03*
X72720200Y-71526400D03*
%TO.N,TX*%
X71780400Y-72898000D03*
X72771000Y-92208002D03*
%TO.N,/esp32/MIDI_IN*%
X63881000Y-64389000D03*
X64960500Y-70929500D03*
%TO.N,/esp32/GATE_8*%
X82575400Y-91084400D03*
X84531200Y-93878400D03*
X69316600Y-83972400D03*
X66802000Y-77993000D03*
%TO.N,/esp32/GATE_7*%
X61581573Y-81383070D03*
X58445400Y-81280000D03*
%TO.N,/esp32/GATE_6*%
X69596000Y-76682600D03*
X66548000Y-76809600D03*
X76835000Y-83921600D03*
%TO.N,/esp32/GATE_5*%
X70205600Y-75717400D03*
X66827400Y-75869800D03*
%TO.N,/esp32/GATE_4*%
X77165200Y-71475600D03*
X69646800Y-74650600D03*
X66497200Y-74752200D03*
X76047600Y-73431400D03*
%TO.N,/esp32/GATE_3*%
X69977000Y-68834000D03*
X66878200Y-68630800D03*
%TO.N,/esp32/GATE_2*%
X69870398Y-64775002D03*
X66522600Y-67462400D03*
X76835000Y-61976000D03*
X78562200Y-61061600D03*
%TO.N,/esp32/GATE_1*%
X69011800Y-63449200D03*
X64592200Y-67005200D03*
%TO.N,V_SUPPLY*%
X72796400Y-86436200D03*
%TO.N,GND*%
X59284500Y-86716500D03*
%TO.N,V_SUPPLY*%
X64262000Y-85725000D03*
X52832000Y-68775000D03*
%TO.N,GND*%
X52197000Y-66265000D03*
X52959000Y-94361000D03*
D20*
%TO.N,*%
X62377580Y-43815000D03*
X62784908Y-106045000D03*
X92710000Y-106045000D03*
X92710000Y-106045000D03*
X92710000Y-106045000D03*
X92710000Y-43815000D03*
X92710000Y-43815000D03*
X92710000Y-43815000D03*
X92710000Y-106045000D03*
X62377580Y-43815000D03*
X62784908Y-106045000D03*
X62784908Y-106045000D03*
X92710000Y-43815000D03*
X62784908Y-106045000D03*
X62377580Y-43815000D03*
X62377580Y-43815000D03*
D19*
%TO.N,GND*%
X83950000Y-85090000D03*
X77978000Y-69011800D03*
X83820000Y-54105000D03*
X78105000Y-59820000D03*
X83732500Y-74930000D03*
X98425000Y-84455000D03*
X78235000Y-90805000D03*
X77470000Y-79654400D03*
X52070000Y-96520000D03*
X83819090Y-64135000D03*
%TO.N,V_SUPPLY*%
X85637500Y-75565000D03*
X85855000Y-85725000D03*
X85725000Y-54740000D03*
X85724090Y-64770000D03*
%TO.N,Net-(D2-A)*%
X95224600Y-60909200D03*
X95046800Y-63525400D03*
%TO.N,Net-(U1-IO19)*%
X53411473Y-89250000D03*
X52654200Y-87503000D03*
%TO.N,V_MID*%
X86995000Y-57915000D03*
X78235000Y-86995000D03*
X78105000Y-56010000D03*
X87125000Y-88900000D03*
X78104090Y-66040000D03*
X86907500Y-78740000D03*
X78017500Y-76835000D03*
X86994090Y-67945000D03*
%TO.N,Net-(D4-A)*%
X93878400Y-70307200D03*
X95250000Y-71805800D03*
%TO.N,Net-(D6-A)*%
X91389200Y-76250800D03*
X94183200Y-76200000D03*
%TO.N,Net-(D8-A)*%
X91465400Y-83896200D03*
X93878400Y-83845400D03*
%TO.N,/gate_process1/GATE_A_OUT*%
X97155000Y-67310000D03*
X99695000Y-67310000D03*
%TO.N,/gate_process3/GATE_B_OUT*%
X99695000Y-82550000D03*
X90566200Y-85333800D03*
%TO.N,/gate_process2/GATE_A_OUT*%
X96520000Y-72390000D03*
X99695000Y-72390000D03*
%TO.N,/gate_process1/GATE_B_OUT*%
X94716600Y-69113400D03*
X99695000Y-69850000D03*
%TO.N,/gate_process3/GATE_A_OUT*%
X96520000Y-77470000D03*
X99695000Y-77470000D03*
%TO.N,/gate_process2/GATE_B_OUT*%
X99695000Y-74930000D03*
X91440000Y-74930000D03*
%TD*%
D21*
%TO.N,Net-(D8-A)*%
X91465400Y-83896200D02*
X91516200Y-83845400D01*
X91516200Y-83845400D02*
X93878400Y-83845400D01*
%TO.N,/esp32/GATE_2*%
X77647800Y-61976000D02*
X76835000Y-61976000D01*
X78562200Y-61061600D02*
X77647800Y-61976000D01*
D22*
%TO.N,V_MID*%
X78105000Y-56010000D02*
X75615800Y-58499200D01*
X75615800Y-58499200D02*
X75615800Y-63551710D01*
X75615800Y-63551710D02*
X78104090Y-66040000D01*
D21*
%TO.N,/esp32/GATE_2*%
X69870398Y-64775002D02*
X68806002Y-64775002D01*
X66522600Y-67058404D02*
X66522600Y-67462400D01*
X68806002Y-64775002D02*
X66522600Y-67058404D01*
%TO.N,/esp32/GATE_1*%
X69011800Y-63449200D02*
X65455800Y-67005200D01*
X65455800Y-67005200D02*
X64592200Y-67005200D01*
%TO.N,/esp32/GATE_3*%
X67081400Y-68834000D02*
X69977000Y-68834000D01*
X66878200Y-68630800D02*
X67081400Y-68834000D01*
D22*
%TO.N,GND*%
X80137000Y-69977000D02*
X80391000Y-69977000D01*
X83184090Y-74930000D02*
X83732500Y-74930000D01*
X81547165Y-71133165D02*
X84595165Y-71133165D01*
X77978000Y-69011800D02*
X79171800Y-69011800D01*
X80391000Y-69977000D02*
X81547165Y-71133165D01*
X77978000Y-69723910D02*
X83184090Y-74930000D01*
X77978000Y-69011800D02*
X77978000Y-69723910D01*
X79171800Y-69011800D02*
X80137000Y-69977000D01*
X83819090Y-64135000D02*
X78942290Y-69011800D01*
X78942290Y-69011800D02*
X77978000Y-69011800D01*
D21*
%TO.N,/esp32/GATE_4*%
X77165200Y-71475600D02*
X77165200Y-72313800D01*
X77165200Y-72313800D02*
X76047600Y-73431400D01*
D22*
%TO.N,V_SUPPLY*%
X60579000Y-60393000D02*
X60579000Y-53594000D01*
X52832000Y-68775000D02*
X52832000Y-68140000D01*
X52832000Y-68775000D02*
X52832000Y-69410000D01*
X52832000Y-69410000D02*
X64262000Y-80840000D01*
X60579000Y-53594000D02*
X82677000Y-53594000D01*
X82677000Y-53594000D02*
X85471000Y-50800000D01*
X52832000Y-68140000D02*
X60579000Y-60393000D01*
X64262000Y-80840000D02*
X64262000Y-85725000D01*
X85471000Y-50800000D02*
X86360000Y-50800000D01*
D21*
%TO.N,RX*%
X74310000Y-73802000D02*
X74310000Y-93914200D01*
X72720200Y-71526400D02*
X72720200Y-72212200D01*
X72720200Y-72212200D02*
X74310000Y-73802000D01*
X74310000Y-93914200D02*
X74295000Y-93929200D01*
%TO.N,TX*%
X72136000Y-72898000D02*
X73598000Y-74360000D01*
X73598000Y-74360000D02*
X73598000Y-91381002D01*
X73598000Y-91381002D02*
X72771000Y-92208002D01*
X71780400Y-72898000D02*
X72136000Y-72898000D01*
%TO.N,/gate_process3/GATE_B_OUT*%
X90566200Y-85333800D02*
X90601800Y-85369400D01*
X93929200Y-85369400D02*
X96113600Y-83185000D01*
X90601800Y-85369400D02*
X93929200Y-85369400D01*
X99060000Y-83185000D02*
X99695000Y-82550000D01*
X96113600Y-83185000D02*
X99060000Y-83185000D01*
%TO.N,GND*%
X63144400Y-81102200D02*
X61036200Y-83210400D01*
X61036200Y-83210400D02*
X58191400Y-83210400D01*
X58191400Y-83210400D02*
X57353200Y-82372200D01*
%TO.N,/esp32/GATE_7*%
X58445400Y-81280000D02*
X61478503Y-81280000D01*
X61478503Y-81280000D02*
X61581573Y-81383070D01*
%TO.N,Net-(SW2-B)*%
X52578000Y-70612000D02*
X52578000Y-79020050D01*
X52578000Y-79020050D02*
X59984500Y-86426550D01*
X59984500Y-86426550D02*
X59984500Y-86502100D01*
X59984500Y-86502100D02*
X63652400Y-90170000D01*
X63652400Y-90170000D02*
X64770000Y-90170000D01*
%TO.N,/esp32/GATE_8*%
X69316600Y-80507600D02*
X66802000Y-77993000D01*
X69316600Y-83972400D02*
X69316600Y-80507600D01*
D22*
%TO.N,V_SUPPLY*%
X72796400Y-86436200D02*
X71958200Y-85598000D01*
X64389000Y-85598000D02*
X64262000Y-85725000D01*
X71958200Y-85598000D02*
X64389000Y-85598000D01*
D21*
%TO.N,/esp32/GATE_6*%
X69596000Y-76682600D02*
X69469000Y-76809600D01*
X69469000Y-76809600D02*
X66548000Y-76809600D01*
%TO.N,/esp32/GATE_5*%
X70205600Y-75717400D02*
X70180200Y-75742800D01*
X66954400Y-75742800D02*
X66827400Y-75869800D01*
X70180200Y-75742800D02*
X66954400Y-75742800D01*
%TO.N,/esp32/GATE_4*%
X69646800Y-74650600D02*
X69545200Y-74752200D01*
X69545200Y-74752200D02*
X66497200Y-74752200D01*
%TO.N,Net-(SW1-B)*%
X69215000Y-67056000D02*
X71882000Y-67056000D01*
X66116200Y-73837800D02*
X65074800Y-74879200D01*
X71882000Y-67056000D02*
X72009000Y-67183000D01*
X72009000Y-67183000D02*
X72009000Y-69723000D01*
X72009000Y-69723000D02*
X67894200Y-73837800D01*
X65074800Y-83870800D02*
X65405000Y-84201000D01*
X67894200Y-73837800D02*
X66116200Y-73837800D01*
X65074800Y-74879200D02*
X65074800Y-83870800D01*
D22*
%TO.N,MIDI_GND*%
X76555600Y-94459229D02*
X75057000Y-92960629D01*
X75057000Y-92960629D02*
X75057000Y-66675000D01*
X76555600Y-94930200D02*
X76555600Y-94459229D01*
X75057000Y-66675000D02*
X69850000Y-61468000D01*
D21*
%TO.N,Net-(D6-A)*%
X94183200Y-76200000D02*
X91440000Y-76200000D01*
X91440000Y-76200000D02*
X91389200Y-76250800D01*
%TO.N,/esp32/GATE_8*%
X82575400Y-91084400D02*
X84531200Y-93040200D01*
X84531200Y-93040200D02*
X84531200Y-93878400D01*
%TO.N,/esp32/GATE_6*%
X78435200Y-82092800D02*
X78435200Y-82321400D01*
X78435200Y-82321400D02*
X76835000Y-83921600D01*
D22*
%TO.N,GND*%
X78514400Y-79654400D02*
X83950000Y-85090000D01*
X79008100Y-79654400D02*
X77470000Y-79654400D01*
X77470000Y-79654400D02*
X78514400Y-79654400D01*
X83732500Y-74930000D02*
X79008100Y-79654400D01*
%TO.N,V_MID*%
X78017500Y-76835000D02*
X76022200Y-78830300D01*
X76022200Y-78830300D02*
X76022200Y-84782200D01*
X76022200Y-84782200D02*
X78235000Y-86995000D01*
D21*
%TO.N,Net-(D4-A)*%
X93878400Y-70307200D02*
X93878400Y-70434200D01*
X93878400Y-70434200D02*
X95250000Y-71805800D01*
%TO.N,/gate_process1/GATE_B_OUT*%
X99695000Y-69850000D02*
X95453200Y-69850000D01*
X95453200Y-69850000D02*
X94716600Y-69113400D01*
%TO.N,Net-(D2-A)*%
X95224600Y-63347600D02*
X95224600Y-60909200D01*
X95046800Y-63525400D02*
X95224600Y-63347600D01*
D10*
%TO.N,Net-(U1-IO19)*%
X52654200Y-87503000D02*
X52578000Y-87579200D01*
X52578000Y-88416527D02*
X53411473Y-89250000D01*
X52578000Y-87579200D02*
X52578000Y-88416527D01*
D22*
%TO.N,GND*%
X78235000Y-90805000D02*
X79756000Y-90805000D01*
X79756000Y-90805000D02*
X85471000Y-96520000D01*
X85471000Y-96520000D02*
X86360000Y-96520000D01*
%TO.N,V_MID*%
X81991200Y-94437200D02*
X81564000Y-94010000D01*
X78414400Y-94010000D02*
X76377800Y-91973400D01*
X76377800Y-91973400D02*
X76377800Y-88852200D01*
X76377800Y-88852200D02*
X78235000Y-86995000D01*
X81564000Y-94010000D02*
X78414400Y-94010000D01*
X88646000Y-93345000D02*
X91978501Y-90012499D01*
X86156800Y-94284800D02*
X87096600Y-93345000D01*
X87096600Y-93345000D02*
X88646000Y-93345000D01*
X91978501Y-90012499D02*
X96489499Y-90012499D01*
X86156800Y-94284800D02*
X87125000Y-93316600D01*
X87125000Y-93316600D02*
X87125000Y-88900000D01*
%TO.N,GND*%
X84582000Y-61087000D02*
X83185000Y-61087000D01*
X83185000Y-61087000D02*
X80899000Y-58801000D01*
X80899000Y-58801000D02*
X79880000Y-59820000D01*
X79880000Y-59820000D02*
X78105000Y-59820000D01*
X101219000Y-87249000D02*
X101219000Y-96393000D01*
X98425000Y-84455000D02*
X101219000Y-87249000D01*
X101092000Y-96520000D02*
X96520000Y-96520000D01*
X101219000Y-96393000D02*
X101092000Y-96520000D01*
X67528500Y-86578500D02*
X66040000Y-88067000D01*
X66040000Y-88067000D02*
X66040000Y-96520000D01*
X59284500Y-86716500D02*
X59284500Y-91669500D01*
X59284500Y-91669500D02*
X63500000Y-95885000D01*
X63500000Y-95885000D02*
X63500000Y-96520000D01*
X52197000Y-66265000D02*
X51447000Y-67015000D01*
X58420000Y-86995000D02*
X58420000Y-92075000D01*
X58420000Y-92075000D02*
X60960000Y-94615000D01*
X51447000Y-80022000D02*
X58420000Y-86995000D01*
X51447000Y-67015000D02*
X51447000Y-80022000D01*
X60960000Y-94615000D02*
X60960000Y-96520000D01*
X60960000Y-96520000D02*
X66040000Y-96520000D01*
D21*
%TO.N,Net-(J4-SHIELD)*%
X53770000Y-93220000D02*
X54117000Y-92873000D01*
X54117000Y-92873000D02*
X54117000Y-84927000D01*
X54117000Y-84927000D02*
X53770000Y-84580000D01*
X49590000Y-93220000D02*
X53770000Y-93220000D01*
D22*
X49590000Y-84580000D02*
X49590000Y-93220000D01*
X49590000Y-84580000D02*
X53770000Y-84580000D01*
%TO.N,GND*%
X52070000Y-96520000D02*
X55880000Y-96520000D01*
X52959000Y-94361000D02*
X53721000Y-94361000D01*
X53721000Y-94361000D02*
X55880000Y-96520000D01*
X50165000Y-67310000D02*
X52070000Y-65405000D01*
X50165000Y-70485000D02*
X50165000Y-67310000D01*
X52070000Y-65405000D02*
X52070000Y-66138000D01*
X52070000Y-66138000D02*
X52197000Y-66265000D01*
D21*
%TO.N,/esp32/MIDI_IN*%
X63754000Y-64516000D02*
X63881000Y-64389000D01*
X64960500Y-70929500D02*
X63754000Y-69723000D01*
X63754000Y-69723000D02*
X63754000Y-64516000D01*
D22*
%TO.N,GND*%
X95885000Y-94615000D02*
X86995000Y-94615000D01*
X97409000Y-93091000D02*
X95885000Y-94615000D01*
X86995000Y-94615000D02*
X86995000Y-95885000D01*
X86995000Y-95885000D02*
X86360000Y-96520000D01*
%TO.N,V_SUPPLY*%
X95377000Y-88773000D02*
X92837000Y-88773000D01*
X92837000Y-88773000D02*
X87825000Y-83761000D01*
X86360000Y-52832000D02*
X86360000Y-50800000D01*
X87825000Y-83761000D02*
X87825000Y-54297000D01*
X87825000Y-54297000D02*
X86360000Y-52832000D01*
%TO.N,V_MID*%
X86994090Y-67945000D02*
X86994090Y-57915910D01*
X86994090Y-57915910D02*
X86995000Y-57915000D01*
X86907500Y-78740000D02*
X86907500Y-68031590D01*
X86907500Y-68031590D02*
X86994090Y-67945000D01*
X87125000Y-88900000D02*
X87125000Y-78957500D01*
X87125000Y-78957500D02*
X86907500Y-78740000D01*
X78104090Y-66040000D02*
X77724000Y-66040000D01*
X77724000Y-66040000D02*
X75757000Y-68007000D01*
X75757000Y-68570219D02*
X78616120Y-71429339D01*
X75757000Y-68007000D02*
X75757000Y-68570219D01*
X78616120Y-71429339D02*
X78616120Y-76236380D01*
X78616120Y-76236380D02*
X78017500Y-76835000D01*
%TO.N,V_SUPPLY*%
X85725000Y-54740000D02*
X85725000Y-51435000D01*
X85725000Y-51435000D02*
X86360000Y-50800000D01*
X85724090Y-64770000D02*
X85724090Y-54740910D01*
X85724090Y-54740910D02*
X85725000Y-54740000D01*
X85637500Y-75565000D02*
X85724090Y-75478410D01*
X85724090Y-75478410D02*
X85724090Y-64770000D01*
X85855000Y-85725000D02*
X85855000Y-75782500D01*
X85855000Y-75782500D02*
X85637500Y-75565000D01*
%TO.N,GND*%
X78105000Y-59820000D02*
X79504090Y-59820000D01*
X79504090Y-59820000D02*
X83819090Y-64135000D01*
X81280000Y-104140000D02*
X81280000Y-101600000D01*
X81280000Y-101600000D02*
X86360000Y-96520000D01*
X83820000Y-54105000D02*
X78105000Y-59820000D01*
X83950000Y-85090000D02*
X78235000Y-90805000D01*
X86360000Y-96520000D02*
X66040000Y-96520000D01*
%TO.N,V_SUPPLY*%
X86360000Y-50800000D02*
X66040000Y-50800000D01*
D21*
%TO.N,/gate_process1/GATE_A_OUT*%
X99695000Y-67310000D02*
X97155000Y-67310000D01*
%TO.N,/gate_process2/GATE_A_OUT*%
X99695000Y-72390000D02*
X96520000Y-72390000D01*
%TO.N,/gate_process3/GATE_A_OUT*%
X99695000Y-77470000D02*
X96520000Y-77470000D01*
%TO.N,/gate_process2/GATE_B_OUT*%
X99695000Y-74930000D02*
X91440000Y-74930000D01*
D22*
%TO.N,GND*%
X79999720Y-82184120D02*
X77470000Y-79654400D01*
X83627080Y-82184120D02*
X79999720Y-82184120D01*
X84124800Y-81686400D02*
X83627080Y-82184120D01*
%TD*%
M02*
