%TF.GenerationSoftware,KiCad,Pcbnew,8.0.5*%
%TF.CreationDate,2024-11-24T13:21:31+05:30*%
%TF.ProjectId,usb_power,7573625f-706f-4776-9572-2e6b69636164,rev?*%
%TF.SameCoordinates,Original*%
%TF.FileFunction,Paste,Top*%
%TF.FilePolarity,Positive*%
%FSLAX46Y46*%
G04 Gerber Fmt 4.6, Leading zero omitted, Abs format (unit mm)*
G04 Created by KiCad (PCBNEW 8.0.5) date 2024-11-24 13:21:31*
%MOMM*%
%LPD*%
G01*
G04 APERTURE LIST*
G04 Aperture macros list*
%AMRoundRect*
0 Rectangle with rounded corners*
0 $1 Rounding radius*
0 $2 $3 $4 $5 $6 $7 $8 $9 X,Y pos of 4 corners*
0 Add a 4 corners polygon primitive as box body*
4,1,4,$2,$3,$4,$5,$6,$7,$8,$9,$2,$3,0*
0 Add four circle primitives for the rounded corners*
1,1,$1+$1,$2,$3*
1,1,$1+$1,$4,$5*
1,1,$1+$1,$6,$7*
1,1,$1+$1,$8,$9*
0 Add four rect primitives between the rounded corners*
20,1,$1+$1,$2,$3,$4,$5,0*
20,1,$1+$1,$4,$5,$6,$7,0*
20,1,$1+$1,$6,$7,$8,$9,0*
20,1,$1+$1,$8,$9,$2,$3,0*%
G04 Aperture macros list end*
%ADD10R,1.450000X0.600000*%
%ADD11R,1.450000X0.300000*%
%ADD12O,2.100000X1.000000*%
%ADD13O,1.600000X1.000000*%
%ADD14RoundRect,0.218750X-0.218750X-0.256250X0.218750X-0.256250X0.218750X0.256250X-0.218750X0.256250X0*%
%ADD15RoundRect,0.135000X0.135000X0.185000X-0.135000X0.185000X-0.135000X-0.185000X0.135000X-0.185000X0*%
%ADD16RoundRect,0.250000X0.250000X0.475000X-0.250000X0.475000X-0.250000X-0.475000X0.250000X-0.475000X0*%
%ADD17RoundRect,0.250000X-0.250000X-0.475000X0.250000X-0.475000X0.250000X0.475000X-0.250000X0.475000X0*%
%ADD18RoundRect,0.200000X-0.200000X-0.275000X0.200000X-0.275000X0.200000X0.275000X-0.200000X0.275000X0*%
%ADD19RoundRect,0.250000X-0.475000X0.250000X-0.475000X-0.250000X0.475000X-0.250000X0.475000X0.250000X0*%
%ADD20RoundRect,0.375000X-0.625000X-0.375000X0.625000X-0.375000X0.625000X0.375000X-0.625000X0.375000X0*%
%ADD21RoundRect,0.500000X-0.500000X-1.400000X0.500000X-1.400000X0.500000X1.400000X-0.500000X1.400000X0*%
G04 APERTURE END LIST*
D10*
%TO.C,J1*%
X54785000Y-65705000D03*
X54785000Y-66480000D03*
D11*
X54785000Y-67680000D03*
X54785000Y-68680000D03*
X54785000Y-69180000D03*
X54785000Y-70180000D03*
D10*
X54785000Y-71380000D03*
X54785000Y-72155000D03*
D11*
X54785000Y-70680000D03*
X54785000Y-69680000D03*
X54785000Y-68180000D03*
X54785000Y-67180000D03*
D12*
X53870000Y-64610000D03*
D13*
X49690000Y-64610000D03*
D12*
X53870000Y-73250000D03*
D13*
X49690000Y-73250000D03*
%TD*%
D14*
%TO.C,D1*%
X61290000Y-80010000D03*
X62865000Y-80010000D03*
%TD*%
D15*
%TO.C,R1*%
X62611000Y-81915000D03*
X61591000Y-81915000D03*
%TD*%
D16*
%TO.C,FB2*%
X63525000Y-59340000D03*
X61625000Y-59340000D03*
%TD*%
D17*
%TO.C,C1*%
X62229000Y-67660000D03*
X64129000Y-67660000D03*
%TD*%
D18*
%TO.C,R3*%
X54427200Y-77469800D03*
X56077200Y-77469800D03*
%TD*%
%TO.C,R4*%
X51049000Y-77469800D03*
X52699000Y-77469800D03*
%TD*%
D19*
%TO.C,C5*%
X48889000Y-75920000D03*
X48889000Y-77820000D03*
%TD*%
D17*
%TO.C,FB1*%
X67939000Y-69827000D03*
X69839000Y-69827000D03*
%TD*%
D20*
%TO.C,U2*%
X66725000Y-57390000D03*
X66725000Y-59690000D03*
X66725000Y-61990000D03*
D21*
X73025000Y-59690000D03*
%TD*%
D16*
%TO.C,C3*%
X58445000Y-57785000D03*
X56545000Y-57785000D03*
%TD*%
D17*
%TO.C,C2*%
X62295000Y-71851000D03*
X64195000Y-71851000D03*
%TD*%
D16*
%TO.C,C4*%
X58445000Y-61595000D03*
X56545000Y-61595000D03*
%TD*%
M02*
