M48
; DRILL file {KiCad 8.0.5} date 2024-11-17T07:41:25+0530
; FORMAT={-:-/ absolute / inch / decimal}
; #@! TF.CreationDate,2024-11-17T07:41:25+05:30
; #@! TF.GenerationSoftware,Kicad,Pcbnew,8.0.5
; #@! TF.FileFunction,Plated,1,2,PTH
FMAT,2
INCH
; #@! TA.AperFunction,Plated,PTH,ViaDrill
T1C0.0118
; #@! TA.AperFunction,Plated,PTH,ComponentDrill
T2C0.0236
; #@! TA.AperFunction,Plated,PTH,ComponentDrill
T3C0.0394
; #@! TA.AperFunction,Plated,PTH,ViaDrill
T4C0.1260
%
G90
G05
T1
X1.975Y-3.125
X2.15Y-2.275
X2.2Y-3.125
X2.25Y-2.875
X2.35Y-2.125
X2.35Y-2.175
X2.375Y-3.225
X2.4Y-2.125
X2.4Y-2.175
X2.4Y-2.225
X2.45Y-2.125
X2.45Y-2.175
X2.45Y-2.225
X2.5Y-2.125
X2.5Y-2.175
X2.525Y-2.25
X2.55Y-2.125
X2.55Y-2.175
X2.575Y-2.675
X2.6Y-2.125
X2.6Y-2.175
X2.65Y-2.125
X2.65Y-2.175
T3
X2.2Y-2.0
X2.2Y-3.8
X2.3Y-2.0
X2.3Y-3.8
X2.4Y-2.0
X2.4Y-3.8
X2.5Y-2.0
X2.5Y-3.8
X2.6Y-2.0
X2.6Y-3.8
T4
X2.4558Y-1.725
X2.4558Y-1.725
X2.4558Y-1.725
X2.4558Y-1.725
X2.4718Y-4.175
X2.4718Y-4.175
X2.4718Y-4.175
X2.4718Y-4.175
T2
G00X1.9681Y-2.5437
M15
G01X1.9445Y-2.5437
M16
G05
G00X1.9681Y-2.8839
M15
G01X1.9445Y-2.8839
M16
G05
G00X2.1425Y-2.5437
M15
G01X2.0992Y-2.5437
M16
G05
G00X2.1425Y-2.8839
M15
G01X2.0992Y-2.8839
M16
G05
M30
