%TF.GenerationSoftware,KiCad,Pcbnew,8.0.5*%
%TF.CreationDate,2024-11-08T02:26:05+05:30*%
%TF.ProjectId,usb_power,7573625f-706f-4776-9572-2e6b69636164,rev?*%
%TF.SameCoordinates,Original*%
%TF.FileFunction,Legend,Top*%
%TF.FilePolarity,Positive*%
%FSLAX46Y46*%
G04 Gerber Fmt 4.6, Leading zero omitted, Abs format (unit mm)*
G04 Created by KiCad (PCBNEW 8.0.5) date 2024-11-08 02:26:05*
%MOMM*%
%LPD*%
G01*
G04 APERTURE LIST*
G04 Aperture macros list*
%AMRoundRect*
0 Rectangle with rounded corners*
0 $1 Rounding radius*
0 $2 $3 $4 $5 $6 $7 $8 $9 X,Y pos of 4 corners*
0 Add a 4 corners polygon primitive as box body*
4,1,4,$2,$3,$4,$5,$6,$7,$8,$9,$2,$3,0*
0 Add four circle primitives for the rounded corners*
1,1,$1+$1,$2,$3*
1,1,$1+$1,$4,$5*
1,1,$1+$1,$6,$7*
1,1,$1+$1,$8,$9*
0 Add four rect primitives between the rounded corners*
20,1,$1+$1,$2,$3,$4,$5,0*
20,1,$1+$1,$4,$5,$6,$7,0*
20,1,$1+$1,$6,$7,$8,$9,0*
20,1,$1+$1,$8,$9,$2,$3,0*%
G04 Aperture macros list end*
%ADD10C,0.200000*%
%ADD11C,0.400000*%
%ADD12C,0.150000*%
%ADD13C,0.120000*%
%ADD14C,0.650000*%
%ADD15R,1.450000X0.600000*%
%ADD16R,1.450000X0.300000*%
%ADD17RoundRect,0.250000X-0.250000X-0.475000X0.250000X-0.475000X0.250000X0.475000X-0.250000X0.475000X0*%
%ADD18RoundRect,0.200000X-0.200000X-0.275000X0.200000X-0.275000X0.200000X0.275000X-0.200000X0.275000X0*%
%ADD19RoundRect,0.250000X-0.475000X0.250000X-0.475000X-0.250000X0.475000X-0.250000X0.475000X0.250000X0*%
%ADD20R,1.700000X1.700000*%
%ADD21O,1.700000X1.700000*%
G04 APERTURE END LIST*
D10*
X67576374Y-105207275D02*
X67576374Y-106016798D01*
X67576374Y-106016798D02*
X67623993Y-106112036D01*
X67623993Y-106112036D02*
X67671612Y-106159656D01*
X67671612Y-106159656D02*
X67766850Y-106207275D01*
X67766850Y-106207275D02*
X67957326Y-106207275D01*
X67957326Y-106207275D02*
X68052564Y-106159656D01*
X68052564Y-106159656D02*
X68100183Y-106112036D01*
X68100183Y-106112036D02*
X68147802Y-106016798D01*
X68147802Y-106016798D02*
X68147802Y-105207275D01*
X68576374Y-106159656D02*
X68719231Y-106207275D01*
X68719231Y-106207275D02*
X68957326Y-106207275D01*
X68957326Y-106207275D02*
X69052564Y-106159656D01*
X69052564Y-106159656D02*
X69100183Y-106112036D01*
X69100183Y-106112036D02*
X69147802Y-106016798D01*
X69147802Y-106016798D02*
X69147802Y-105921560D01*
X69147802Y-105921560D02*
X69100183Y-105826322D01*
X69100183Y-105826322D02*
X69052564Y-105778703D01*
X69052564Y-105778703D02*
X68957326Y-105731084D01*
X68957326Y-105731084D02*
X68766850Y-105683465D01*
X68766850Y-105683465D02*
X68671612Y-105635846D01*
X68671612Y-105635846D02*
X68623993Y-105588227D01*
X68623993Y-105588227D02*
X68576374Y-105492989D01*
X68576374Y-105492989D02*
X68576374Y-105397751D01*
X68576374Y-105397751D02*
X68623993Y-105302513D01*
X68623993Y-105302513D02*
X68671612Y-105254894D01*
X68671612Y-105254894D02*
X68766850Y-105207275D01*
X68766850Y-105207275D02*
X69004945Y-105207275D01*
X69004945Y-105207275D02*
X69147802Y-105254894D01*
X69909707Y-105683465D02*
X70052564Y-105731084D01*
X70052564Y-105731084D02*
X70100183Y-105778703D01*
X70100183Y-105778703D02*
X70147802Y-105873941D01*
X70147802Y-105873941D02*
X70147802Y-106016798D01*
X70147802Y-106016798D02*
X70100183Y-106112036D01*
X70100183Y-106112036D02*
X70052564Y-106159656D01*
X70052564Y-106159656D02*
X69957326Y-106207275D01*
X69957326Y-106207275D02*
X69576374Y-106207275D01*
X69576374Y-106207275D02*
X69576374Y-105207275D01*
X69576374Y-105207275D02*
X69909707Y-105207275D01*
X69909707Y-105207275D02*
X70004945Y-105254894D01*
X70004945Y-105254894D02*
X70052564Y-105302513D01*
X70052564Y-105302513D02*
X70100183Y-105397751D01*
X70100183Y-105397751D02*
X70100183Y-105492989D01*
X70100183Y-105492989D02*
X70052564Y-105588227D01*
X70052564Y-105588227D02*
X70004945Y-105635846D01*
X70004945Y-105635846D02*
X69909707Y-105683465D01*
X69909707Y-105683465D02*
X69576374Y-105683465D01*
X70338279Y-106302513D02*
X71100183Y-106302513D01*
X71338279Y-106207275D02*
X71338279Y-105207275D01*
X71338279Y-105207275D02*
X71719231Y-105207275D01*
X71719231Y-105207275D02*
X71814469Y-105254894D01*
X71814469Y-105254894D02*
X71862088Y-105302513D01*
X71862088Y-105302513D02*
X71909707Y-105397751D01*
X71909707Y-105397751D02*
X71909707Y-105540608D01*
X71909707Y-105540608D02*
X71862088Y-105635846D01*
X71862088Y-105635846D02*
X71814469Y-105683465D01*
X71814469Y-105683465D02*
X71719231Y-105731084D01*
X71719231Y-105731084D02*
X71338279Y-105731084D01*
X72528755Y-105207275D02*
X72719231Y-105207275D01*
X72719231Y-105207275D02*
X72814469Y-105254894D01*
X72814469Y-105254894D02*
X72909707Y-105350132D01*
X72909707Y-105350132D02*
X72957326Y-105540608D01*
X72957326Y-105540608D02*
X72957326Y-105873941D01*
X72957326Y-105873941D02*
X72909707Y-106064417D01*
X72909707Y-106064417D02*
X72814469Y-106159656D01*
X72814469Y-106159656D02*
X72719231Y-106207275D01*
X72719231Y-106207275D02*
X72528755Y-106207275D01*
X72528755Y-106207275D02*
X72433517Y-106159656D01*
X72433517Y-106159656D02*
X72338279Y-106064417D01*
X72338279Y-106064417D02*
X72290660Y-105873941D01*
X72290660Y-105873941D02*
X72290660Y-105540608D01*
X72290660Y-105540608D02*
X72338279Y-105350132D01*
X72338279Y-105350132D02*
X72433517Y-105254894D01*
X72433517Y-105254894D02*
X72528755Y-105207275D01*
X73290660Y-105207275D02*
X73528755Y-106207275D01*
X73528755Y-106207275D02*
X73719231Y-105492989D01*
X73719231Y-105492989D02*
X73909707Y-106207275D01*
X73909707Y-106207275D02*
X74147803Y-105207275D01*
X74528755Y-105683465D02*
X74862088Y-105683465D01*
X75004945Y-106207275D02*
X74528755Y-106207275D01*
X74528755Y-106207275D02*
X74528755Y-105207275D01*
X74528755Y-105207275D02*
X75004945Y-105207275D01*
X76004945Y-106207275D02*
X75671612Y-105731084D01*
X75433517Y-106207275D02*
X75433517Y-105207275D01*
X75433517Y-105207275D02*
X75814469Y-105207275D01*
X75814469Y-105207275D02*
X75909707Y-105254894D01*
X75909707Y-105254894D02*
X75957326Y-105302513D01*
X75957326Y-105302513D02*
X76004945Y-105397751D01*
X76004945Y-105397751D02*
X76004945Y-105540608D01*
X76004945Y-105540608D02*
X75957326Y-105635846D01*
X75957326Y-105635846D02*
X75909707Y-105683465D01*
X75909707Y-105683465D02*
X75814469Y-105731084D01*
X75814469Y-105731084D02*
X75433517Y-105731084D01*
X72814470Y-106817219D02*
X72909708Y-106817219D01*
X72909708Y-106817219D02*
X73004946Y-106864838D01*
X73004946Y-106864838D02*
X73052565Y-106912457D01*
X73052565Y-106912457D02*
X73100184Y-107007695D01*
X73100184Y-107007695D02*
X73147803Y-107198171D01*
X73147803Y-107198171D02*
X73147803Y-107436266D01*
X73147803Y-107436266D02*
X73100184Y-107626742D01*
X73100184Y-107626742D02*
X73052565Y-107721980D01*
X73052565Y-107721980D02*
X73004946Y-107769600D01*
X73004946Y-107769600D02*
X72909708Y-107817219D01*
X72909708Y-107817219D02*
X72814470Y-107817219D01*
X72814470Y-107817219D02*
X72719232Y-107769600D01*
X72719232Y-107769600D02*
X72671613Y-107721980D01*
X72671613Y-107721980D02*
X72623994Y-107626742D01*
X72623994Y-107626742D02*
X72576375Y-107436266D01*
X72576375Y-107436266D02*
X72576375Y-107198171D01*
X72576375Y-107198171D02*
X72623994Y-107007695D01*
X72623994Y-107007695D02*
X72671613Y-106912457D01*
X72671613Y-106912457D02*
X72719232Y-106864838D01*
X72719232Y-106864838D02*
X72814470Y-106817219D01*
X73576375Y-107721980D02*
X73623994Y-107769600D01*
X73623994Y-107769600D02*
X73576375Y-107817219D01*
X73576375Y-107817219D02*
X73528756Y-107769600D01*
X73528756Y-107769600D02*
X73576375Y-107721980D01*
X73576375Y-107721980D02*
X73576375Y-107817219D01*
X74576374Y-107817219D02*
X74004946Y-107817219D01*
X74290660Y-107817219D02*
X74290660Y-106817219D01*
X74290660Y-106817219D02*
X74195422Y-106960076D01*
X74195422Y-106960076D02*
X74100184Y-107055314D01*
X74100184Y-107055314D02*
X74004946Y-107102933D01*
X75004946Y-107721980D02*
X75052565Y-107769600D01*
X75052565Y-107769600D02*
X75004946Y-107817219D01*
X75004946Y-107817219D02*
X74957327Y-107769600D01*
X74957327Y-107769600D02*
X75004946Y-107721980D01*
X75004946Y-107721980D02*
X75004946Y-107817219D01*
X75671612Y-106817219D02*
X75766850Y-106817219D01*
X75766850Y-106817219D02*
X75862088Y-106864838D01*
X75862088Y-106864838D02*
X75909707Y-106912457D01*
X75909707Y-106912457D02*
X75957326Y-107007695D01*
X75957326Y-107007695D02*
X76004945Y-107198171D01*
X76004945Y-107198171D02*
X76004945Y-107436266D01*
X76004945Y-107436266D02*
X75957326Y-107626742D01*
X75957326Y-107626742D02*
X75909707Y-107721980D01*
X75909707Y-107721980D02*
X75862088Y-107769600D01*
X75862088Y-107769600D02*
X75766850Y-107817219D01*
X75766850Y-107817219D02*
X75671612Y-107817219D01*
X75671612Y-107817219D02*
X75576374Y-107769600D01*
X75576374Y-107769600D02*
X75528755Y-107721980D01*
X75528755Y-107721980D02*
X75481136Y-107626742D01*
X75481136Y-107626742D02*
X75433517Y-107436266D01*
X75433517Y-107436266D02*
X75433517Y-107198171D01*
X75433517Y-107198171D02*
X75481136Y-107007695D01*
X75481136Y-107007695D02*
X75528755Y-106912457D01*
X75528755Y-106912457D02*
X75576374Y-106864838D01*
X75576374Y-106864838D02*
X75671612Y-106817219D01*
D11*
X53849047Y-46502438D02*
X53849047Y-48121485D01*
X53849047Y-48121485D02*
X53944285Y-48311961D01*
X53944285Y-48311961D02*
X54039523Y-48407200D01*
X54039523Y-48407200D02*
X54229999Y-48502438D01*
X54229999Y-48502438D02*
X54610952Y-48502438D01*
X54610952Y-48502438D02*
X54801428Y-48407200D01*
X54801428Y-48407200D02*
X54896666Y-48311961D01*
X54896666Y-48311961D02*
X54991904Y-48121485D01*
X54991904Y-48121485D02*
X54991904Y-46502438D01*
X55849047Y-48407200D02*
X56134761Y-48502438D01*
X56134761Y-48502438D02*
X56610952Y-48502438D01*
X56610952Y-48502438D02*
X56801428Y-48407200D01*
X56801428Y-48407200D02*
X56896666Y-48311961D01*
X56896666Y-48311961D02*
X56991904Y-48121485D01*
X56991904Y-48121485D02*
X56991904Y-47931009D01*
X56991904Y-47931009D02*
X56896666Y-47740533D01*
X56896666Y-47740533D02*
X56801428Y-47645295D01*
X56801428Y-47645295D02*
X56610952Y-47550057D01*
X56610952Y-47550057D02*
X56229999Y-47454819D01*
X56229999Y-47454819D02*
X56039523Y-47359580D01*
X56039523Y-47359580D02*
X55944285Y-47264342D01*
X55944285Y-47264342D02*
X55849047Y-47073866D01*
X55849047Y-47073866D02*
X55849047Y-46883390D01*
X55849047Y-46883390D02*
X55944285Y-46692914D01*
X55944285Y-46692914D02*
X56039523Y-46597676D01*
X56039523Y-46597676D02*
X56229999Y-46502438D01*
X56229999Y-46502438D02*
X56706190Y-46502438D01*
X56706190Y-46502438D02*
X56991904Y-46597676D01*
X58515714Y-47454819D02*
X58801428Y-47550057D01*
X58801428Y-47550057D02*
X58896666Y-47645295D01*
X58896666Y-47645295D02*
X58991904Y-47835771D01*
X58991904Y-47835771D02*
X58991904Y-48121485D01*
X58991904Y-48121485D02*
X58896666Y-48311961D01*
X58896666Y-48311961D02*
X58801428Y-48407200D01*
X58801428Y-48407200D02*
X58610952Y-48502438D01*
X58610952Y-48502438D02*
X57849047Y-48502438D01*
X57849047Y-48502438D02*
X57849047Y-46502438D01*
X57849047Y-46502438D02*
X58515714Y-46502438D01*
X58515714Y-46502438D02*
X58706190Y-46597676D01*
X58706190Y-46597676D02*
X58801428Y-46692914D01*
X58801428Y-46692914D02*
X58896666Y-46883390D01*
X58896666Y-46883390D02*
X58896666Y-47073866D01*
X58896666Y-47073866D02*
X58801428Y-47264342D01*
X58801428Y-47264342D02*
X58706190Y-47359580D01*
X58706190Y-47359580D02*
X58515714Y-47454819D01*
X58515714Y-47454819D02*
X57849047Y-47454819D01*
X59372857Y-48692914D02*
X60896666Y-48692914D01*
X61372857Y-48502438D02*
X61372857Y-46502438D01*
X61372857Y-46502438D02*
X62134762Y-46502438D01*
X62134762Y-46502438D02*
X62325238Y-46597676D01*
X62325238Y-46597676D02*
X62420476Y-46692914D01*
X62420476Y-46692914D02*
X62515714Y-46883390D01*
X62515714Y-46883390D02*
X62515714Y-47169104D01*
X62515714Y-47169104D02*
X62420476Y-47359580D01*
X62420476Y-47359580D02*
X62325238Y-47454819D01*
X62325238Y-47454819D02*
X62134762Y-47550057D01*
X62134762Y-47550057D02*
X61372857Y-47550057D01*
X63753809Y-46502438D02*
X64134762Y-46502438D01*
X64134762Y-46502438D02*
X64325238Y-46597676D01*
X64325238Y-46597676D02*
X64515714Y-46788152D01*
X64515714Y-46788152D02*
X64610952Y-47169104D01*
X64610952Y-47169104D02*
X64610952Y-47835771D01*
X64610952Y-47835771D02*
X64515714Y-48216723D01*
X64515714Y-48216723D02*
X64325238Y-48407200D01*
X64325238Y-48407200D02*
X64134762Y-48502438D01*
X64134762Y-48502438D02*
X63753809Y-48502438D01*
X63753809Y-48502438D02*
X63563333Y-48407200D01*
X63563333Y-48407200D02*
X63372857Y-48216723D01*
X63372857Y-48216723D02*
X63277619Y-47835771D01*
X63277619Y-47835771D02*
X63277619Y-47169104D01*
X63277619Y-47169104D02*
X63372857Y-46788152D01*
X63372857Y-46788152D02*
X63563333Y-46597676D01*
X63563333Y-46597676D02*
X63753809Y-46502438D01*
X65277619Y-46502438D02*
X65753809Y-48502438D01*
X65753809Y-48502438D02*
X66134762Y-47073866D01*
X66134762Y-47073866D02*
X66515714Y-48502438D01*
X66515714Y-48502438D02*
X66991905Y-46502438D01*
X67753809Y-47454819D02*
X68420476Y-47454819D01*
X68706190Y-48502438D02*
X67753809Y-48502438D01*
X67753809Y-48502438D02*
X67753809Y-46502438D01*
X67753809Y-46502438D02*
X68706190Y-46502438D01*
X70706190Y-48502438D02*
X70039523Y-47550057D01*
X69563333Y-48502438D02*
X69563333Y-46502438D01*
X69563333Y-46502438D02*
X70325238Y-46502438D01*
X70325238Y-46502438D02*
X70515714Y-46597676D01*
X70515714Y-46597676D02*
X70610952Y-46692914D01*
X70610952Y-46692914D02*
X70706190Y-46883390D01*
X70706190Y-46883390D02*
X70706190Y-47169104D01*
X70706190Y-47169104D02*
X70610952Y-47359580D01*
X70610952Y-47359580D02*
X70515714Y-47454819D01*
X70515714Y-47454819D02*
X70325238Y-47550057D01*
X70325238Y-47550057D02*
X69563333Y-47550057D01*
D10*
X48963006Y-105683465D02*
X49105863Y-105731084D01*
X49105863Y-105731084D02*
X49153482Y-105778703D01*
X49153482Y-105778703D02*
X49201101Y-105873941D01*
X49201101Y-105873941D02*
X49201101Y-106016798D01*
X49201101Y-106016798D02*
X49153482Y-106112036D01*
X49153482Y-106112036D02*
X49105863Y-106159656D01*
X49105863Y-106159656D02*
X49010625Y-106207275D01*
X49010625Y-106207275D02*
X48629673Y-106207275D01*
X48629673Y-106207275D02*
X48629673Y-105207275D01*
X48629673Y-105207275D02*
X48963006Y-105207275D01*
X48963006Y-105207275D02*
X49058244Y-105254894D01*
X49058244Y-105254894D02*
X49105863Y-105302513D01*
X49105863Y-105302513D02*
X49153482Y-105397751D01*
X49153482Y-105397751D02*
X49153482Y-105492989D01*
X49153482Y-105492989D02*
X49105863Y-105588227D01*
X49105863Y-105588227D02*
X49058244Y-105635846D01*
X49058244Y-105635846D02*
X48963006Y-105683465D01*
X48963006Y-105683465D02*
X48629673Y-105683465D01*
X50201101Y-106207275D02*
X49867768Y-105731084D01*
X49629673Y-106207275D02*
X49629673Y-105207275D01*
X49629673Y-105207275D02*
X50010625Y-105207275D01*
X50010625Y-105207275D02*
X50105863Y-105254894D01*
X50105863Y-105254894D02*
X50153482Y-105302513D01*
X50153482Y-105302513D02*
X50201101Y-105397751D01*
X50201101Y-105397751D02*
X50201101Y-105540608D01*
X50201101Y-105540608D02*
X50153482Y-105635846D01*
X50153482Y-105635846D02*
X50105863Y-105683465D01*
X50105863Y-105683465D02*
X50010625Y-105731084D01*
X50010625Y-105731084D02*
X49629673Y-105731084D01*
X50629673Y-105683465D02*
X50963006Y-105683465D01*
X51105863Y-106207275D02*
X50629673Y-106207275D01*
X50629673Y-106207275D02*
X50629673Y-105207275D01*
X50629673Y-105207275D02*
X51105863Y-105207275D01*
X51486816Y-105921560D02*
X51963006Y-105921560D01*
X51391578Y-106207275D02*
X51724911Y-105207275D01*
X51724911Y-105207275D02*
X52058244Y-106207275D01*
X52391578Y-106207275D02*
X52391578Y-105207275D01*
X52391578Y-105207275D02*
X52629673Y-105207275D01*
X52629673Y-105207275D02*
X52772530Y-105254894D01*
X52772530Y-105254894D02*
X52867768Y-105350132D01*
X52867768Y-105350132D02*
X52915387Y-105445370D01*
X52915387Y-105445370D02*
X52963006Y-105635846D01*
X52963006Y-105635846D02*
X52963006Y-105778703D01*
X52963006Y-105778703D02*
X52915387Y-105969179D01*
X52915387Y-105969179D02*
X52867768Y-106064417D01*
X52867768Y-106064417D02*
X52772530Y-106159656D01*
X52772530Y-106159656D02*
X52629673Y-106207275D01*
X52629673Y-106207275D02*
X52391578Y-106207275D01*
X48629673Y-107817219D02*
X48629673Y-106817219D01*
X48629673Y-106817219D02*
X48963006Y-107531504D01*
X48963006Y-107531504D02*
X49296339Y-106817219D01*
X49296339Y-106817219D02*
X49296339Y-107817219D01*
X49963006Y-106817219D02*
X50153482Y-106817219D01*
X50153482Y-106817219D02*
X50248720Y-106864838D01*
X50248720Y-106864838D02*
X50343958Y-106960076D01*
X50343958Y-106960076D02*
X50391577Y-107150552D01*
X50391577Y-107150552D02*
X50391577Y-107483885D01*
X50391577Y-107483885D02*
X50343958Y-107674361D01*
X50343958Y-107674361D02*
X50248720Y-107769600D01*
X50248720Y-107769600D02*
X50153482Y-107817219D01*
X50153482Y-107817219D02*
X49963006Y-107817219D01*
X49963006Y-107817219D02*
X49867768Y-107769600D01*
X49867768Y-107769600D02*
X49772530Y-107674361D01*
X49772530Y-107674361D02*
X49724911Y-107483885D01*
X49724911Y-107483885D02*
X49724911Y-107150552D01*
X49724911Y-107150552D02*
X49772530Y-106960076D01*
X49772530Y-106960076D02*
X49867768Y-106864838D01*
X49867768Y-106864838D02*
X49963006Y-106817219D01*
X50820149Y-107817219D02*
X50820149Y-106817219D01*
X50820149Y-106817219D02*
X51058244Y-106817219D01*
X51058244Y-106817219D02*
X51201101Y-106864838D01*
X51201101Y-106864838D02*
X51296339Y-106960076D01*
X51296339Y-106960076D02*
X51343958Y-107055314D01*
X51343958Y-107055314D02*
X51391577Y-107245790D01*
X51391577Y-107245790D02*
X51391577Y-107388647D01*
X51391577Y-107388647D02*
X51343958Y-107579123D01*
X51343958Y-107579123D02*
X51296339Y-107674361D01*
X51296339Y-107674361D02*
X51201101Y-107769600D01*
X51201101Y-107769600D02*
X51058244Y-107817219D01*
X51058244Y-107817219D02*
X50820149Y-107817219D01*
X51820149Y-106817219D02*
X51820149Y-107626742D01*
X51820149Y-107626742D02*
X51867768Y-107721980D01*
X51867768Y-107721980D02*
X51915387Y-107769600D01*
X51915387Y-107769600D02*
X52010625Y-107817219D01*
X52010625Y-107817219D02*
X52201101Y-107817219D01*
X52201101Y-107817219D02*
X52296339Y-107769600D01*
X52296339Y-107769600D02*
X52343958Y-107721980D01*
X52343958Y-107721980D02*
X52391577Y-107626742D01*
X52391577Y-107626742D02*
X52391577Y-106817219D01*
X53343958Y-107817219D02*
X52867768Y-107817219D01*
X52867768Y-107817219D02*
X52867768Y-106817219D01*
X53629673Y-107531504D02*
X54105863Y-107531504D01*
X53534435Y-107817219D02*
X53867768Y-106817219D01*
X53867768Y-106817219D02*
X54201101Y-107817219D01*
X55105863Y-107817219D02*
X54772530Y-107341028D01*
X54534435Y-107817219D02*
X54534435Y-106817219D01*
X54534435Y-106817219D02*
X54915387Y-106817219D01*
X54915387Y-106817219D02*
X55010625Y-106864838D01*
X55010625Y-106864838D02*
X55058244Y-106912457D01*
X55058244Y-106912457D02*
X55105863Y-107007695D01*
X55105863Y-107007695D02*
X55105863Y-107150552D01*
X55105863Y-107150552D02*
X55058244Y-107245790D01*
X55058244Y-107245790D02*
X55010625Y-107293409D01*
X55010625Y-107293409D02*
X54915387Y-107341028D01*
X54915387Y-107341028D02*
X54534435Y-107341028D01*
D12*
X55800819Y-75263333D02*
X56515104Y-75263333D01*
X56515104Y-75263333D02*
X56657961Y-75310952D01*
X56657961Y-75310952D02*
X56753200Y-75406190D01*
X56753200Y-75406190D02*
X56800819Y-75549047D01*
X56800819Y-75549047D02*
X56800819Y-75644285D01*
X56800819Y-74263333D02*
X56800819Y-74834761D01*
X56800819Y-74549047D02*
X55800819Y-74549047D01*
X55800819Y-74549047D02*
X55943676Y-74644285D01*
X55943676Y-74644285D02*
X56038914Y-74739523D01*
X56038914Y-74739523D02*
X56086533Y-74834761D01*
X59843333Y-72712580D02*
X59795714Y-72760200D01*
X59795714Y-72760200D02*
X59652857Y-72807819D01*
X59652857Y-72807819D02*
X59557619Y-72807819D01*
X59557619Y-72807819D02*
X59414762Y-72760200D01*
X59414762Y-72760200D02*
X59319524Y-72664961D01*
X59319524Y-72664961D02*
X59271905Y-72569723D01*
X59271905Y-72569723D02*
X59224286Y-72379247D01*
X59224286Y-72379247D02*
X59224286Y-72236390D01*
X59224286Y-72236390D02*
X59271905Y-72045914D01*
X59271905Y-72045914D02*
X59319524Y-71950676D01*
X59319524Y-71950676D02*
X59414762Y-71855438D01*
X59414762Y-71855438D02*
X59557619Y-71807819D01*
X59557619Y-71807819D02*
X59652857Y-71807819D01*
X59652857Y-71807819D02*
X59795714Y-71855438D01*
X59795714Y-71855438D02*
X59843333Y-71903057D01*
X60795714Y-72807819D02*
X60224286Y-72807819D01*
X60510000Y-72807819D02*
X60510000Y-71807819D01*
X60510000Y-71807819D02*
X60414762Y-71950676D01*
X60414762Y-71950676D02*
X60319524Y-72045914D01*
X60319524Y-72045914D02*
X60224286Y-72093533D01*
X55091533Y-82494619D02*
X54758200Y-82018428D01*
X54520105Y-82494619D02*
X54520105Y-81494619D01*
X54520105Y-81494619D02*
X54901057Y-81494619D01*
X54901057Y-81494619D02*
X54996295Y-81542238D01*
X54996295Y-81542238D02*
X55043914Y-81589857D01*
X55043914Y-81589857D02*
X55091533Y-81685095D01*
X55091533Y-81685095D02*
X55091533Y-81827952D01*
X55091533Y-81827952D02*
X55043914Y-81923190D01*
X55043914Y-81923190D02*
X54996295Y-81970809D01*
X54996295Y-81970809D02*
X54901057Y-82018428D01*
X54901057Y-82018428D02*
X54520105Y-82018428D01*
X55424867Y-81494619D02*
X56043914Y-81494619D01*
X56043914Y-81494619D02*
X55710581Y-81875571D01*
X55710581Y-81875571D02*
X55853438Y-81875571D01*
X55853438Y-81875571D02*
X55948676Y-81923190D01*
X55948676Y-81923190D02*
X55996295Y-81970809D01*
X55996295Y-81970809D02*
X56043914Y-82066047D01*
X56043914Y-82066047D02*
X56043914Y-82304142D01*
X56043914Y-82304142D02*
X55996295Y-82399380D01*
X55996295Y-82399380D02*
X55948676Y-82447000D01*
X55948676Y-82447000D02*
X55853438Y-82494619D01*
X55853438Y-82494619D02*
X55567724Y-82494619D01*
X55567724Y-82494619D02*
X55472486Y-82447000D01*
X55472486Y-82447000D02*
X55424867Y-82399380D01*
X51713333Y-82494619D02*
X51380000Y-82018428D01*
X51141905Y-82494619D02*
X51141905Y-81494619D01*
X51141905Y-81494619D02*
X51522857Y-81494619D01*
X51522857Y-81494619D02*
X51618095Y-81542238D01*
X51618095Y-81542238D02*
X51665714Y-81589857D01*
X51665714Y-81589857D02*
X51713333Y-81685095D01*
X51713333Y-81685095D02*
X51713333Y-81827952D01*
X51713333Y-81827952D02*
X51665714Y-81923190D01*
X51665714Y-81923190D02*
X51618095Y-81970809D01*
X51618095Y-81970809D02*
X51522857Y-82018428D01*
X51522857Y-82018428D02*
X51141905Y-82018428D01*
X52570476Y-81827952D02*
X52570476Y-82494619D01*
X52332381Y-81447000D02*
X52094286Y-82161285D01*
X52094286Y-82161285D02*
X52713333Y-82161285D01*
X49254580Y-85891666D02*
X49302200Y-85939285D01*
X49302200Y-85939285D02*
X49349819Y-86082142D01*
X49349819Y-86082142D02*
X49349819Y-86177380D01*
X49349819Y-86177380D02*
X49302200Y-86320237D01*
X49302200Y-86320237D02*
X49206961Y-86415475D01*
X49206961Y-86415475D02*
X49111723Y-86463094D01*
X49111723Y-86463094D02*
X48921247Y-86510713D01*
X48921247Y-86510713D02*
X48778390Y-86510713D01*
X48778390Y-86510713D02*
X48587914Y-86463094D01*
X48587914Y-86463094D02*
X48492676Y-86415475D01*
X48492676Y-86415475D02*
X48397438Y-86320237D01*
X48397438Y-86320237D02*
X48349819Y-86177380D01*
X48349819Y-86177380D02*
X48349819Y-86082142D01*
X48349819Y-86082142D02*
X48397438Y-85939285D01*
X48397438Y-85939285D02*
X48445057Y-85891666D01*
X48349819Y-84986904D02*
X48349819Y-85463094D01*
X48349819Y-85463094D02*
X48826009Y-85510713D01*
X48826009Y-85510713D02*
X48778390Y-85463094D01*
X48778390Y-85463094D02*
X48730771Y-85367856D01*
X48730771Y-85367856D02*
X48730771Y-85129761D01*
X48730771Y-85129761D02*
X48778390Y-85034523D01*
X48778390Y-85034523D02*
X48826009Y-84986904D01*
X48826009Y-84986904D02*
X48921247Y-84939285D01*
X48921247Y-84939285D02*
X49159342Y-84939285D01*
X49159342Y-84939285D02*
X49254580Y-84986904D01*
X49254580Y-84986904D02*
X49302200Y-85034523D01*
X49302200Y-85034523D02*
X49349819Y-85129761D01*
X49349819Y-85129761D02*
X49349819Y-85367856D01*
X49349819Y-85367856D02*
X49302200Y-85463094D01*
X49302200Y-85463094D02*
X49254580Y-85510713D01*
X60446666Y-58322009D02*
X60113333Y-58322009D01*
X60113333Y-58845819D02*
X60113333Y-57845819D01*
X60113333Y-57845819D02*
X60589523Y-57845819D01*
X61303809Y-58322009D02*
X61446666Y-58369628D01*
X61446666Y-58369628D02*
X61494285Y-58417247D01*
X61494285Y-58417247D02*
X61541904Y-58512485D01*
X61541904Y-58512485D02*
X61541904Y-58655342D01*
X61541904Y-58655342D02*
X61494285Y-58750580D01*
X61494285Y-58750580D02*
X61446666Y-58798200D01*
X61446666Y-58798200D02*
X61351428Y-58845819D01*
X61351428Y-58845819D02*
X60970476Y-58845819D01*
X60970476Y-58845819D02*
X60970476Y-57845819D01*
X60970476Y-57845819D02*
X61303809Y-57845819D01*
X61303809Y-57845819D02*
X61399047Y-57893438D01*
X61399047Y-57893438D02*
X61446666Y-57941057D01*
X61446666Y-57941057D02*
X61494285Y-58036295D01*
X61494285Y-58036295D02*
X61494285Y-58131533D01*
X61494285Y-58131533D02*
X61446666Y-58226771D01*
X61446666Y-58226771D02*
X61399047Y-58274390D01*
X61399047Y-58274390D02*
X61303809Y-58322009D01*
X61303809Y-58322009D02*
X60970476Y-58322009D01*
X62494285Y-58845819D02*
X61922857Y-58845819D01*
X62208571Y-58845819D02*
X62208571Y-57845819D01*
X62208571Y-57845819D02*
X62113333Y-57988676D01*
X62113333Y-57988676D02*
X62018095Y-58083914D01*
X62018095Y-58083914D02*
X61922857Y-58131533D01*
X59015333Y-53924580D02*
X58967714Y-53972200D01*
X58967714Y-53972200D02*
X58824857Y-54019819D01*
X58824857Y-54019819D02*
X58729619Y-54019819D01*
X58729619Y-54019819D02*
X58586762Y-53972200D01*
X58586762Y-53972200D02*
X58491524Y-53876961D01*
X58491524Y-53876961D02*
X58443905Y-53781723D01*
X58443905Y-53781723D02*
X58396286Y-53591247D01*
X58396286Y-53591247D02*
X58396286Y-53448390D01*
X58396286Y-53448390D02*
X58443905Y-53257914D01*
X58443905Y-53257914D02*
X58491524Y-53162676D01*
X58491524Y-53162676D02*
X58586762Y-53067438D01*
X58586762Y-53067438D02*
X58729619Y-53019819D01*
X58729619Y-53019819D02*
X58824857Y-53019819D01*
X58824857Y-53019819D02*
X58967714Y-53067438D01*
X58967714Y-53067438D02*
X59015333Y-53115057D01*
X59348667Y-53019819D02*
X59967714Y-53019819D01*
X59967714Y-53019819D02*
X59634381Y-53400771D01*
X59634381Y-53400771D02*
X59777238Y-53400771D01*
X59777238Y-53400771D02*
X59872476Y-53448390D01*
X59872476Y-53448390D02*
X59920095Y-53496009D01*
X59920095Y-53496009D02*
X59967714Y-53591247D01*
X59967714Y-53591247D02*
X59967714Y-53829342D01*
X59967714Y-53829342D02*
X59920095Y-53924580D01*
X59920095Y-53924580D02*
X59872476Y-53972200D01*
X59872476Y-53972200D02*
X59777238Y-54019819D01*
X59777238Y-54019819D02*
X59491524Y-54019819D01*
X59491524Y-54019819D02*
X59396286Y-53972200D01*
X59396286Y-53972200D02*
X59348667Y-53924580D01*
X59909333Y-76903580D02*
X59861714Y-76951200D01*
X59861714Y-76951200D02*
X59718857Y-76998819D01*
X59718857Y-76998819D02*
X59623619Y-76998819D01*
X59623619Y-76998819D02*
X59480762Y-76951200D01*
X59480762Y-76951200D02*
X59385524Y-76855961D01*
X59385524Y-76855961D02*
X59337905Y-76760723D01*
X59337905Y-76760723D02*
X59290286Y-76570247D01*
X59290286Y-76570247D02*
X59290286Y-76427390D01*
X59290286Y-76427390D02*
X59337905Y-76236914D01*
X59337905Y-76236914D02*
X59385524Y-76141676D01*
X59385524Y-76141676D02*
X59480762Y-76046438D01*
X59480762Y-76046438D02*
X59623619Y-75998819D01*
X59623619Y-75998819D02*
X59718857Y-75998819D01*
X59718857Y-75998819D02*
X59861714Y-76046438D01*
X59861714Y-76046438D02*
X59909333Y-76094057D01*
X60290286Y-76094057D02*
X60337905Y-76046438D01*
X60337905Y-76046438D02*
X60433143Y-75998819D01*
X60433143Y-75998819D02*
X60671238Y-75998819D01*
X60671238Y-75998819D02*
X60766476Y-76046438D01*
X60766476Y-76046438D02*
X60814095Y-76094057D01*
X60814095Y-76094057D02*
X60861714Y-76189295D01*
X60861714Y-76189295D02*
X60861714Y-76284533D01*
X60861714Y-76284533D02*
X60814095Y-76427390D01*
X60814095Y-76427390D02*
X60242667Y-76998819D01*
X60242667Y-76998819D02*
X60861714Y-76998819D01*
X63206333Y-53924580D02*
X63158714Y-53972200D01*
X63158714Y-53972200D02*
X63015857Y-54019819D01*
X63015857Y-54019819D02*
X62920619Y-54019819D01*
X62920619Y-54019819D02*
X62777762Y-53972200D01*
X62777762Y-53972200D02*
X62682524Y-53876961D01*
X62682524Y-53876961D02*
X62634905Y-53781723D01*
X62634905Y-53781723D02*
X62587286Y-53591247D01*
X62587286Y-53591247D02*
X62587286Y-53448390D01*
X62587286Y-53448390D02*
X62634905Y-53257914D01*
X62634905Y-53257914D02*
X62682524Y-53162676D01*
X62682524Y-53162676D02*
X62777762Y-53067438D01*
X62777762Y-53067438D02*
X62920619Y-53019819D01*
X62920619Y-53019819D02*
X63015857Y-53019819D01*
X63015857Y-53019819D02*
X63158714Y-53067438D01*
X63158714Y-53067438D02*
X63206333Y-53115057D01*
X64063476Y-53353152D02*
X64063476Y-54019819D01*
X63825381Y-52972200D02*
X63587286Y-53686485D01*
X63587286Y-53686485D02*
X64206333Y-53686485D01*
%TO.C,J1*%
X47129000Y-69850000D02*
X54429000Y-69850000D01*
X47129000Y-69850000D02*
X47129000Y-80010000D01*
X47129000Y-80010000D02*
X54429000Y-80010000D01*
D13*
%TO.C,C1*%
X59748748Y-73298000D02*
X60271252Y-73298000D01*
X59748748Y-74768000D02*
X60271252Y-74768000D01*
%TO.C,R3*%
X55020942Y-82947300D02*
X55495458Y-82947300D01*
X55020942Y-83992300D02*
X55495458Y-83992300D01*
%TO.C,R4*%
X51642742Y-82947300D02*
X52117258Y-82947300D01*
X51642742Y-83992300D02*
X52117258Y-83992300D01*
%TO.C,C5*%
X48160000Y-82608748D02*
X48160000Y-83131252D01*
X49630000Y-82608748D02*
X49630000Y-83131252D01*
%TO.C,FB1*%
X61018748Y-59336000D02*
X61541252Y-59336000D01*
X61018748Y-60806000D02*
X61541252Y-60806000D01*
%TO.C,C3*%
X58920748Y-54510000D02*
X59443252Y-54510000D01*
X58920748Y-55980000D02*
X59443252Y-55980000D01*
%TO.C,C2*%
X59814748Y-77489000D02*
X60337252Y-77489000D01*
X59814748Y-78959000D02*
X60337252Y-78959000D01*
%TO.C,C4*%
X63111748Y-54510000D02*
X63634252Y-54510000D01*
X63111748Y-55980000D02*
X63634252Y-55980000D01*
%TD*%
%LPC*%
D14*
%TO.C,J1*%
X53346000Y-72040000D03*
X53346000Y-77820000D03*
D15*
X54791000Y-71705000D03*
X54791000Y-72480000D03*
D16*
X54791000Y-73180000D03*
X54791000Y-74180000D03*
X54791000Y-74680000D03*
X54791000Y-75180000D03*
X54791000Y-75680000D03*
X54791000Y-76180000D03*
X54791000Y-73680000D03*
D15*
X54791000Y-77380000D03*
X54791000Y-78155000D03*
D16*
X54791000Y-76680000D03*
%TD*%
D17*
%TO.C,C1*%
X59060000Y-74033000D03*
X60960000Y-74033000D03*
%TD*%
D18*
%TO.C,R3*%
X54433200Y-83469800D03*
X56083200Y-83469800D03*
%TD*%
%TO.C,R4*%
X51055000Y-83469800D03*
X52705000Y-83469800D03*
%TD*%
D19*
%TO.C,C5*%
X48895000Y-81920000D03*
X48895000Y-83820000D03*
%TD*%
D17*
%TO.C,FB1*%
X60330000Y-60071000D03*
X62230000Y-60071000D03*
%TD*%
%TO.C,C3*%
X58232000Y-55245000D03*
X60132000Y-55245000D03*
%TD*%
%TO.C,C2*%
X59126000Y-78224000D03*
X61026000Y-78224000D03*
%TD*%
%TO.C,C4*%
X62423000Y-55245000D03*
X64323000Y-55245000D03*
%TD*%
D20*
%TO.C,GND1*%
X55880000Y-96520000D03*
D21*
X58420000Y-96520000D03*
X60960000Y-96520000D03*
X63500000Y-96520000D03*
X66040000Y-96520000D03*
%TD*%
D20*
%TO.C,5V1*%
X55880000Y-50800000D03*
D21*
X58420000Y-50800000D03*
X60960000Y-50800000D03*
X63500000Y-50800000D03*
X66040000Y-50800000D03*
%TD*%
%LPD*%
M02*
