%TF.GenerationSoftware,KiCad,Pcbnew,8.0.5*%
%TF.CreationDate,2024-11-06T20:30:05+05:30*%
%TF.ProjectId,usb_power,7573625f-706f-4776-9572-2e6b69636164,rev?*%
%TF.SameCoordinates,Original*%
%TF.FileFunction,Copper,L1,Top*%
%TF.FilePolarity,Positive*%
%FSLAX46Y46*%
G04 Gerber Fmt 4.6, Leading zero omitted, Abs format (unit mm)*
G04 Created by KiCad (PCBNEW 8.0.5) date 2024-11-06 20:30:05*
%MOMM*%
%LPD*%
G01*
G04 APERTURE LIST*
G04 Aperture macros list*
%AMRoundRect*
0 Rectangle with rounded corners*
0 $1 Rounding radius*
0 $2 $3 $4 $5 $6 $7 $8 $9 X,Y pos of 4 corners*
0 Add a 4 corners polygon primitive as box body*
4,1,4,$2,$3,$4,$5,$6,$7,$8,$9,$2,$3,0*
0 Add four circle primitives for the rounded corners*
1,1,$1+$1,$2,$3*
1,1,$1+$1,$4,$5*
1,1,$1+$1,$6,$7*
1,1,$1+$1,$8,$9*
0 Add four rect primitives between the rounded corners*
20,1,$1+$1,$2,$3,$4,$5,0*
20,1,$1+$1,$4,$5,$6,$7,0*
20,1,$1+$1,$6,$7,$8,$9,0*
20,1,$1+$1,$8,$9,$2,$3,0*%
G04 Aperture macros list end*
%TA.AperFunction,Conductor*%
%ADD10C,0.200000*%
%TD*%
%TA.AperFunction,SMDPad,CuDef*%
%ADD11RoundRect,0.250000X-0.250000X-0.475000X0.250000X-0.475000X0.250000X0.475000X-0.250000X0.475000X0*%
%TD*%
%TA.AperFunction,SMDPad,CuDef*%
%ADD12RoundRect,0.200000X-0.200000X-0.275000X0.200000X-0.275000X0.200000X0.275000X-0.200000X0.275000X0*%
%TD*%
%TA.AperFunction,SMDPad,CuDef*%
%ADD13RoundRect,0.250000X-0.475000X0.250000X-0.475000X-0.250000X0.475000X-0.250000X0.475000X0.250000X0*%
%TD*%
%TA.AperFunction,SMDPad,CuDef*%
%ADD14R,1.450000X0.600000*%
%TD*%
%TA.AperFunction,SMDPad,CuDef*%
%ADD15R,1.450000X0.300000*%
%TD*%
%TA.AperFunction,ComponentPad*%
%ADD16O,2.100000X1.000000*%
%TD*%
%TA.AperFunction,ComponentPad*%
%ADD17O,1.600000X1.000000*%
%TD*%
%TA.AperFunction,ComponentPad*%
%ADD18R,1.700000X1.700000*%
%TD*%
%TA.AperFunction,ComponentPad*%
%ADD19O,1.700000X1.700000*%
%TD*%
%TA.AperFunction,ViaPad*%
%ADD20C,4.000000*%
%TD*%
%TA.AperFunction,Conductor*%
%ADD21C,0.500000*%
%TD*%
%TA.AperFunction,Conductor*%
%ADD22C,0.300000*%
%TD*%
G04 APERTURE END LIST*
D10*
%TO.N,GND*%
X63500000Y-75565000D02*
X60960000Y-75565000D01*
X60960000Y-72390000D01*
X63500000Y-72390000D01*
X63500000Y-75565000D01*
%TA.AperFunction,Conductor*%
G36*
X63500000Y-75565000D02*
G01*
X60960000Y-75565000D01*
X60960000Y-72390000D01*
X63500000Y-72390000D01*
X63500000Y-75565000D01*
G37*
%TD.AperFunction*%
%TD*%
D11*
%TO.P,C1,1*%
%TO.N,Net-(C1-Pad1)*%
X59060000Y-74033000D03*
%TO.P,C1,2*%
%TO.N,GND*%
X60960000Y-74033000D03*
%TD*%
D12*
%TO.P,R3,1*%
%TO.N,Net-(J1-CC2)*%
X54433200Y-83469800D03*
%TO.P,R3,2*%
%TO.N,GND*%
X56083200Y-83469800D03*
%TD*%
%TO.P,R4,1*%
%TO.N,Net-(J1-CC1)*%
X51055000Y-83469800D03*
%TO.P,R4,2*%
%TO.N,GND*%
X52705000Y-83469800D03*
%TD*%
D13*
%TO.P,C5,1*%
%TO.N,Net-(J1-SHIELD)*%
X48895000Y-81920000D03*
%TO.P,C5,2*%
%TO.N,GND*%
X48895000Y-83820000D03*
%TD*%
D11*
%TO.P,FB1,1*%
%TO.N,Net-(C1-Pad1)*%
X60330000Y-60071000D03*
%TO.P,FB1,2*%
%TO.N,+5V*%
X62230000Y-60071000D03*
%TD*%
%TO.P,C3,1*%
%TO.N,+5V*%
X58232000Y-55245000D03*
%TO.P,C3,2*%
%TO.N,GND*%
X60132000Y-55245000D03*
%TD*%
%TO.P,C2,1*%
%TO.N,Net-(C1-Pad1)*%
X59126000Y-78224000D03*
%TO.P,C2,2*%
%TO.N,GND*%
X61026000Y-78224000D03*
%TD*%
%TO.P,C4,1*%
%TO.N,+5V*%
X62423000Y-55245000D03*
%TO.P,C4,2*%
%TO.N,GND*%
X64323000Y-55245000D03*
%TD*%
D14*
%TO.P,J1,1*%
%TO.N,N/C*%
X54890000Y-71705000D03*
%TO.P,J1,2*%
X54890000Y-72480000D03*
D15*
%TO.P,J1,3*%
X54890000Y-73180000D03*
%TO.P,J1,5*%
X54890000Y-74180000D03*
%TO.P,J1,6*%
X54890000Y-74680000D03*
%TO.P,J1,7*%
X54890000Y-75180000D03*
%TO.P,J1,8*%
X54890000Y-75680000D03*
%TO.P,J1,9*%
X54890000Y-76180000D03*
%TO.P,J1,A5,CC1*%
%TO.N,Net-(J1-CC1)*%
X54890000Y-73680000D03*
D14*
%TO.P,J1,A9,VBUS*%
%TO.N,Net-(C1-Pad1)*%
X54890000Y-77380000D03*
%TO.P,J1,A12,GND*%
%TO.N,GND*%
X54890000Y-78155000D03*
D15*
%TO.P,J1,B5,CC2*%
%TO.N,Net-(J1-CC2)*%
X54890000Y-76680000D03*
D16*
%TO.P,J1,S1,SHIELD*%
%TO.N,Net-(J1-SHIELD)*%
X53975000Y-70610000D03*
D17*
X49795000Y-70610000D03*
D16*
X53975000Y-79250000D03*
D17*
X49795000Y-79250000D03*
%TD*%
D18*
%TO.P,GND1,1,Pin_1*%
%TO.N,GND*%
X55880000Y-96520000D03*
D19*
%TO.P,GND1,2,Pin_2*%
X58420000Y-96520000D03*
%TO.P,GND1,3,Pin_3*%
X60960000Y-96520000D03*
%TO.P,GND1,4,Pin_4*%
X63500000Y-96520000D03*
%TO.P,GND1,5,Pin_5*%
X66040000Y-96520000D03*
%TD*%
D18*
%TO.P,5V1,1,Pin_1*%
%TO.N,+5V*%
X55880000Y-50800000D03*
D19*
%TO.P,5V1,2,Pin_2*%
X58420000Y-50800000D03*
%TO.P,5V1,3,Pin_3*%
X60960000Y-50800000D03*
%TO.P,5V1,4,Pin_4*%
X63500000Y-50800000D03*
%TO.P,5V1,5,Pin_5*%
X66040000Y-50800000D03*
%TD*%
D20*
%TO.N,*%
X62377580Y-43815000D03*
X62784908Y-106045000D03*
X62377580Y-43815000D03*
X62784908Y-106045000D03*
X62784908Y-106045000D03*
X62784908Y-106045000D03*
X62377580Y-43815000D03*
X62377580Y-43815000D03*
%TD*%
D21*
%TO.N,GND*%
X50526000Y-85451000D02*
X64516000Y-85451000D01*
X56134000Y-79399000D02*
X54890000Y-78155000D01*
X64323000Y-70670000D02*
X60960000Y-74033000D01*
X55880000Y-96520000D02*
X66040000Y-96520000D01*
X60960000Y-74033000D02*
X60960000Y-78158000D01*
X64323000Y-55245000D02*
X70485000Y-55245000D01*
X61861000Y-73132000D02*
X60960000Y-74033000D01*
X64175200Y-84394800D02*
X65278000Y-83292000D01*
X64516000Y-85451000D02*
X66294000Y-83673000D01*
X61402000Y-56515000D02*
X63053000Y-56515000D01*
X61026000Y-78224000D02*
X59851000Y-79399000D01*
X63053000Y-56515000D02*
X64323000Y-55245000D01*
X53630000Y-84394800D02*
X64175200Y-84394800D01*
X65278000Y-83292000D02*
X65278000Y-74148000D01*
X65163000Y-74033000D02*
X60960000Y-74033000D01*
X60132000Y-55245000D02*
X61402000Y-56515000D01*
X64323000Y-55245000D02*
X64323000Y-70670000D01*
X64135000Y-74910000D02*
X61837000Y-74910000D01*
X70485000Y-55245000D02*
X71755000Y-56515000D01*
X65278000Y-74148000D02*
X65163000Y-74033000D01*
X52705000Y-83469800D02*
X53630000Y-84394800D01*
X71755000Y-90805000D02*
X66040000Y-96520000D01*
X64135000Y-82911000D02*
X64135000Y-74910000D01*
X61837000Y-74910000D02*
X60960000Y-74033000D01*
X59851000Y-79399000D02*
X56134000Y-79399000D01*
X66294000Y-73259000D02*
X66167000Y-73132000D01*
X66167000Y-73132000D02*
X61861000Y-73132000D01*
X56083200Y-83469800D02*
X63576200Y-83469800D01*
X48895000Y-83820000D02*
X50526000Y-85451000D01*
X66294000Y-83673000D02*
X66294000Y-73259000D01*
X60960000Y-78158000D02*
X61026000Y-78224000D01*
X63576200Y-83469800D02*
X64135000Y-82911000D01*
X71755000Y-56515000D02*
X71755000Y-90805000D01*
%TO.N,+5V*%
X61248000Y-54070000D02*
X62423000Y-55245000D01*
X58232000Y-55245000D02*
X59407000Y-54070000D01*
X62230000Y-59243000D02*
X58232000Y-55245000D01*
X59407000Y-54070000D02*
X61248000Y-54070000D01*
X55880000Y-50800000D02*
X66040000Y-50800000D01*
X62230000Y-60071000D02*
X62230000Y-59243000D01*
X55880000Y-54610000D02*
X56515000Y-55245000D01*
X56515000Y-55245000D02*
X58232000Y-55245000D01*
X55880000Y-50800000D02*
X55880000Y-54610000D01*
%TO.N,Net-(C1-Pad1)*%
X59126000Y-78224000D02*
X58282000Y-77380000D01*
X59060000Y-74033000D02*
X59060000Y-78158000D01*
X59060000Y-74033000D02*
X59060000Y-73660000D01*
X59060000Y-73660000D02*
X60330000Y-72390000D01*
X60330000Y-72390000D02*
X60330000Y-60071000D01*
X58282000Y-77380000D02*
X54890000Y-77380000D01*
X59060000Y-78158000D02*
X59126000Y-78224000D01*
%TO.N,Net-(J1-SHIELD)*%
X48895000Y-80150000D02*
X49795000Y-79250000D01*
X48895000Y-81920000D02*
X48895000Y-80150000D01*
D22*
%TO.N,Net-(J1-CC1)*%
X51055000Y-76440000D02*
X53815000Y-73680000D01*
X53815000Y-73680000D02*
X54890000Y-73680000D01*
X51055000Y-83469800D02*
X51055000Y-76440000D01*
%TO.N,Net-(J1-CC2)*%
X54433200Y-83469800D02*
X52575000Y-81611600D01*
X53559695Y-76680000D02*
X54890000Y-76680000D01*
X52575000Y-77664695D02*
X53559695Y-76680000D01*
X52575000Y-81611600D02*
X52575000Y-77664695D01*
%TD*%
M02*
