%TF.GenerationSoftware,KiCad,Pcbnew,8.0.5*%
%TF.CreationDate,2024-11-17T07:41:25+05:30*%
%TF.ProjectId,usb_power,7573625f-706f-4776-9572-2e6b69636164,rev?*%
%TF.SameCoordinates,Original*%
%TF.FileFunction,Legend,Top*%
%TF.FilePolarity,Positive*%
%FSLAX46Y46*%
G04 Gerber Fmt 4.6, Leading zero omitted, Abs format (unit mm)*
G04 Created by KiCad (PCBNEW 8.0.5) date 2024-11-17 07:41:25*
%MOMM*%
%LPD*%
G01*
G04 APERTURE LIST*
G04 Aperture macros list*
%AMRoundRect*
0 Rectangle with rounded corners*
0 $1 Rounding radius*
0 $2 $3 $4 $5 $6 $7 $8 $9 X,Y pos of 4 corners*
0 Add a 4 corners polygon primitive as box body*
4,1,4,$2,$3,$4,$5,$6,$7,$8,$9,$2,$3,0*
0 Add four circle primitives for the rounded corners*
1,1,$1+$1,$2,$3*
1,1,$1+$1,$4,$5*
1,1,$1+$1,$6,$7*
1,1,$1+$1,$8,$9*
0 Add four rect primitives between the rounded corners*
20,1,$1+$1,$2,$3,$4,$5,0*
20,1,$1+$1,$4,$5,$6,$7,0*
20,1,$1+$1,$6,$7,$8,$9,0*
20,1,$1+$1,$8,$9,$2,$3,0*%
G04 Aperture macros list end*
%ADD10C,0.150000*%
%ADD11C,0.200000*%
%ADD12C,0.400000*%
%ADD13C,0.100000*%
%ADD14C,0.120000*%
%ADD15C,0.650000*%
%ADD16R,1.450000X0.600000*%
%ADD17R,1.450000X0.300000*%
%ADD18RoundRect,0.500000X-0.500000X-1.400000X0.500000X-1.400000X0.500000X1.400000X-0.500000X1.400000X0*%
%ADD19RoundRect,0.375000X-0.625000X-0.375000X0.625000X-0.375000X0.625000X0.375000X-0.625000X0.375000X0*%
%ADD20R,1.000000X0.750000*%
%ADD21RoundRect,0.135000X0.135000X0.185000X-0.135000X0.185000X-0.135000X-0.185000X0.135000X-0.185000X0*%
%ADD22RoundRect,0.250000X0.250000X0.475000X-0.250000X0.475000X-0.250000X-0.475000X0.250000X-0.475000X0*%
%ADD23RoundRect,0.218750X-0.218750X-0.256250X0.218750X-0.256250X0.218750X0.256250X-0.218750X0.256250X0*%
%ADD24RoundRect,0.250000X-0.250000X-0.475000X0.250000X-0.475000X0.250000X0.475000X-0.250000X0.475000X0*%
%ADD25RoundRect,0.200000X-0.200000X-0.275000X0.200000X-0.275000X0.200000X0.275000X-0.200000X0.275000X0*%
%ADD26RoundRect,0.250000X-0.475000X0.250000X-0.475000X-0.250000X0.475000X-0.250000X0.475000X0.250000X0*%
%ADD27R,1.700000X1.700000*%
%ADD28O,1.700000X1.700000*%
G04 APERTURE END LIST*
D10*
X59836255Y-91071819D02*
X60026731Y-91071819D01*
X60026731Y-91071819D02*
X60121969Y-91119438D01*
X60121969Y-91119438D02*
X60217207Y-91214676D01*
X60217207Y-91214676D02*
X60264826Y-91405152D01*
X60264826Y-91405152D02*
X60264826Y-91738485D01*
X60264826Y-91738485D02*
X60217207Y-91928961D01*
X60217207Y-91928961D02*
X60121969Y-92024200D01*
X60121969Y-92024200D02*
X60026731Y-92071819D01*
X60026731Y-92071819D02*
X59836255Y-92071819D01*
X59836255Y-92071819D02*
X59741017Y-92024200D01*
X59741017Y-92024200D02*
X59645779Y-91928961D01*
X59645779Y-91928961D02*
X59598160Y-91738485D01*
X59598160Y-91738485D02*
X59598160Y-91405152D01*
X59598160Y-91405152D02*
X59645779Y-91214676D01*
X59645779Y-91214676D02*
X59741017Y-91119438D01*
X59741017Y-91119438D02*
X59836255Y-91071819D01*
X60693398Y-92071819D02*
X60693398Y-91071819D01*
X60693398Y-91071819D02*
X61264826Y-92071819D01*
X61264826Y-92071819D02*
X61264826Y-91071819D01*
X62455302Y-91024200D02*
X61598160Y-92309914D01*
X62979112Y-91071819D02*
X63169588Y-91071819D01*
X63169588Y-91071819D02*
X63264826Y-91119438D01*
X63264826Y-91119438D02*
X63360064Y-91214676D01*
X63360064Y-91214676D02*
X63407683Y-91405152D01*
X63407683Y-91405152D02*
X63407683Y-91738485D01*
X63407683Y-91738485D02*
X63360064Y-91928961D01*
X63360064Y-91928961D02*
X63264826Y-92024200D01*
X63264826Y-92024200D02*
X63169588Y-92071819D01*
X63169588Y-92071819D02*
X62979112Y-92071819D01*
X62979112Y-92071819D02*
X62883874Y-92024200D01*
X62883874Y-92024200D02*
X62788636Y-91928961D01*
X62788636Y-91928961D02*
X62741017Y-91738485D01*
X62741017Y-91738485D02*
X62741017Y-91405152D01*
X62741017Y-91405152D02*
X62788636Y-91214676D01*
X62788636Y-91214676D02*
X62883874Y-91119438D01*
X62883874Y-91119438D02*
X62979112Y-91071819D01*
X64169588Y-91548009D02*
X63836255Y-91548009D01*
X63836255Y-92071819D02*
X63836255Y-91071819D01*
X63836255Y-91071819D02*
X64312445Y-91071819D01*
X65026731Y-91548009D02*
X64693398Y-91548009D01*
X64693398Y-92071819D02*
X64693398Y-91071819D01*
X64693398Y-91071819D02*
X65169588Y-91071819D01*
D11*
X67576374Y-105207275D02*
X67576374Y-106016798D01*
X67576374Y-106016798D02*
X67623993Y-106112036D01*
X67623993Y-106112036D02*
X67671612Y-106159656D01*
X67671612Y-106159656D02*
X67766850Y-106207275D01*
X67766850Y-106207275D02*
X67957326Y-106207275D01*
X67957326Y-106207275D02*
X68052564Y-106159656D01*
X68052564Y-106159656D02*
X68100183Y-106112036D01*
X68100183Y-106112036D02*
X68147802Y-106016798D01*
X68147802Y-106016798D02*
X68147802Y-105207275D01*
X68576374Y-106159656D02*
X68719231Y-106207275D01*
X68719231Y-106207275D02*
X68957326Y-106207275D01*
X68957326Y-106207275D02*
X69052564Y-106159656D01*
X69052564Y-106159656D02*
X69100183Y-106112036D01*
X69100183Y-106112036D02*
X69147802Y-106016798D01*
X69147802Y-106016798D02*
X69147802Y-105921560D01*
X69147802Y-105921560D02*
X69100183Y-105826322D01*
X69100183Y-105826322D02*
X69052564Y-105778703D01*
X69052564Y-105778703D02*
X68957326Y-105731084D01*
X68957326Y-105731084D02*
X68766850Y-105683465D01*
X68766850Y-105683465D02*
X68671612Y-105635846D01*
X68671612Y-105635846D02*
X68623993Y-105588227D01*
X68623993Y-105588227D02*
X68576374Y-105492989D01*
X68576374Y-105492989D02*
X68576374Y-105397751D01*
X68576374Y-105397751D02*
X68623993Y-105302513D01*
X68623993Y-105302513D02*
X68671612Y-105254894D01*
X68671612Y-105254894D02*
X68766850Y-105207275D01*
X68766850Y-105207275D02*
X69004945Y-105207275D01*
X69004945Y-105207275D02*
X69147802Y-105254894D01*
X69909707Y-105683465D02*
X70052564Y-105731084D01*
X70052564Y-105731084D02*
X70100183Y-105778703D01*
X70100183Y-105778703D02*
X70147802Y-105873941D01*
X70147802Y-105873941D02*
X70147802Y-106016798D01*
X70147802Y-106016798D02*
X70100183Y-106112036D01*
X70100183Y-106112036D02*
X70052564Y-106159656D01*
X70052564Y-106159656D02*
X69957326Y-106207275D01*
X69957326Y-106207275D02*
X69576374Y-106207275D01*
X69576374Y-106207275D02*
X69576374Y-105207275D01*
X69576374Y-105207275D02*
X69909707Y-105207275D01*
X69909707Y-105207275D02*
X70004945Y-105254894D01*
X70004945Y-105254894D02*
X70052564Y-105302513D01*
X70052564Y-105302513D02*
X70100183Y-105397751D01*
X70100183Y-105397751D02*
X70100183Y-105492989D01*
X70100183Y-105492989D02*
X70052564Y-105588227D01*
X70052564Y-105588227D02*
X70004945Y-105635846D01*
X70004945Y-105635846D02*
X69909707Y-105683465D01*
X69909707Y-105683465D02*
X69576374Y-105683465D01*
X70338279Y-106302513D02*
X71100183Y-106302513D01*
X71338279Y-106207275D02*
X71338279Y-105207275D01*
X71338279Y-105207275D02*
X71719231Y-105207275D01*
X71719231Y-105207275D02*
X71814469Y-105254894D01*
X71814469Y-105254894D02*
X71862088Y-105302513D01*
X71862088Y-105302513D02*
X71909707Y-105397751D01*
X71909707Y-105397751D02*
X71909707Y-105540608D01*
X71909707Y-105540608D02*
X71862088Y-105635846D01*
X71862088Y-105635846D02*
X71814469Y-105683465D01*
X71814469Y-105683465D02*
X71719231Y-105731084D01*
X71719231Y-105731084D02*
X71338279Y-105731084D01*
X72528755Y-105207275D02*
X72719231Y-105207275D01*
X72719231Y-105207275D02*
X72814469Y-105254894D01*
X72814469Y-105254894D02*
X72909707Y-105350132D01*
X72909707Y-105350132D02*
X72957326Y-105540608D01*
X72957326Y-105540608D02*
X72957326Y-105873941D01*
X72957326Y-105873941D02*
X72909707Y-106064417D01*
X72909707Y-106064417D02*
X72814469Y-106159656D01*
X72814469Y-106159656D02*
X72719231Y-106207275D01*
X72719231Y-106207275D02*
X72528755Y-106207275D01*
X72528755Y-106207275D02*
X72433517Y-106159656D01*
X72433517Y-106159656D02*
X72338279Y-106064417D01*
X72338279Y-106064417D02*
X72290660Y-105873941D01*
X72290660Y-105873941D02*
X72290660Y-105540608D01*
X72290660Y-105540608D02*
X72338279Y-105350132D01*
X72338279Y-105350132D02*
X72433517Y-105254894D01*
X72433517Y-105254894D02*
X72528755Y-105207275D01*
X73290660Y-105207275D02*
X73528755Y-106207275D01*
X73528755Y-106207275D02*
X73719231Y-105492989D01*
X73719231Y-105492989D02*
X73909707Y-106207275D01*
X73909707Y-106207275D02*
X74147803Y-105207275D01*
X74528755Y-105683465D02*
X74862088Y-105683465D01*
X75004945Y-106207275D02*
X74528755Y-106207275D01*
X74528755Y-106207275D02*
X74528755Y-105207275D01*
X74528755Y-105207275D02*
X75004945Y-105207275D01*
X76004945Y-106207275D02*
X75671612Y-105731084D01*
X75433517Y-106207275D02*
X75433517Y-105207275D01*
X75433517Y-105207275D02*
X75814469Y-105207275D01*
X75814469Y-105207275D02*
X75909707Y-105254894D01*
X75909707Y-105254894D02*
X75957326Y-105302513D01*
X75957326Y-105302513D02*
X76004945Y-105397751D01*
X76004945Y-105397751D02*
X76004945Y-105540608D01*
X76004945Y-105540608D02*
X75957326Y-105635846D01*
X75957326Y-105635846D02*
X75909707Y-105683465D01*
X75909707Y-105683465D02*
X75814469Y-105731084D01*
X75814469Y-105731084D02*
X75433517Y-105731084D01*
X72814470Y-106817219D02*
X72909708Y-106817219D01*
X72909708Y-106817219D02*
X73004946Y-106864838D01*
X73004946Y-106864838D02*
X73052565Y-106912457D01*
X73052565Y-106912457D02*
X73100184Y-107007695D01*
X73100184Y-107007695D02*
X73147803Y-107198171D01*
X73147803Y-107198171D02*
X73147803Y-107436266D01*
X73147803Y-107436266D02*
X73100184Y-107626742D01*
X73100184Y-107626742D02*
X73052565Y-107721980D01*
X73052565Y-107721980D02*
X73004946Y-107769600D01*
X73004946Y-107769600D02*
X72909708Y-107817219D01*
X72909708Y-107817219D02*
X72814470Y-107817219D01*
X72814470Y-107817219D02*
X72719232Y-107769600D01*
X72719232Y-107769600D02*
X72671613Y-107721980D01*
X72671613Y-107721980D02*
X72623994Y-107626742D01*
X72623994Y-107626742D02*
X72576375Y-107436266D01*
X72576375Y-107436266D02*
X72576375Y-107198171D01*
X72576375Y-107198171D02*
X72623994Y-107007695D01*
X72623994Y-107007695D02*
X72671613Y-106912457D01*
X72671613Y-106912457D02*
X72719232Y-106864838D01*
X72719232Y-106864838D02*
X72814470Y-106817219D01*
X73576375Y-107721980D02*
X73623994Y-107769600D01*
X73623994Y-107769600D02*
X73576375Y-107817219D01*
X73576375Y-107817219D02*
X73528756Y-107769600D01*
X73528756Y-107769600D02*
X73576375Y-107721980D01*
X73576375Y-107721980D02*
X73576375Y-107817219D01*
X74004946Y-106912457D02*
X74052565Y-106864838D01*
X74052565Y-106864838D02*
X74147803Y-106817219D01*
X74147803Y-106817219D02*
X74385898Y-106817219D01*
X74385898Y-106817219D02*
X74481136Y-106864838D01*
X74481136Y-106864838D02*
X74528755Y-106912457D01*
X74528755Y-106912457D02*
X74576374Y-107007695D01*
X74576374Y-107007695D02*
X74576374Y-107102933D01*
X74576374Y-107102933D02*
X74528755Y-107245790D01*
X74528755Y-107245790D02*
X73957327Y-107817219D01*
X73957327Y-107817219D02*
X74576374Y-107817219D01*
X75004946Y-107721980D02*
X75052565Y-107769600D01*
X75052565Y-107769600D02*
X75004946Y-107817219D01*
X75004946Y-107817219D02*
X74957327Y-107769600D01*
X74957327Y-107769600D02*
X75004946Y-107721980D01*
X75004946Y-107721980D02*
X75004946Y-107817219D01*
X75671612Y-106817219D02*
X75766850Y-106817219D01*
X75766850Y-106817219D02*
X75862088Y-106864838D01*
X75862088Y-106864838D02*
X75909707Y-106912457D01*
X75909707Y-106912457D02*
X75957326Y-107007695D01*
X75957326Y-107007695D02*
X76004945Y-107198171D01*
X76004945Y-107198171D02*
X76004945Y-107436266D01*
X76004945Y-107436266D02*
X75957326Y-107626742D01*
X75957326Y-107626742D02*
X75909707Y-107721980D01*
X75909707Y-107721980D02*
X75862088Y-107769600D01*
X75862088Y-107769600D02*
X75766850Y-107817219D01*
X75766850Y-107817219D02*
X75671612Y-107817219D01*
X75671612Y-107817219D02*
X75576374Y-107769600D01*
X75576374Y-107769600D02*
X75528755Y-107721980D01*
X75528755Y-107721980D02*
X75481136Y-107626742D01*
X75481136Y-107626742D02*
X75433517Y-107436266D01*
X75433517Y-107436266D02*
X75433517Y-107198171D01*
X75433517Y-107198171D02*
X75481136Y-107007695D01*
X75481136Y-107007695D02*
X75528755Y-106912457D01*
X75528755Y-106912457D02*
X75576374Y-106864838D01*
X75576374Y-106864838D02*
X75671612Y-106817219D01*
D12*
X53849047Y-46502438D02*
X53849047Y-48121485D01*
X53849047Y-48121485D02*
X53944285Y-48311961D01*
X53944285Y-48311961D02*
X54039523Y-48407200D01*
X54039523Y-48407200D02*
X54229999Y-48502438D01*
X54229999Y-48502438D02*
X54610952Y-48502438D01*
X54610952Y-48502438D02*
X54801428Y-48407200D01*
X54801428Y-48407200D02*
X54896666Y-48311961D01*
X54896666Y-48311961D02*
X54991904Y-48121485D01*
X54991904Y-48121485D02*
X54991904Y-46502438D01*
X55849047Y-48407200D02*
X56134761Y-48502438D01*
X56134761Y-48502438D02*
X56610952Y-48502438D01*
X56610952Y-48502438D02*
X56801428Y-48407200D01*
X56801428Y-48407200D02*
X56896666Y-48311961D01*
X56896666Y-48311961D02*
X56991904Y-48121485D01*
X56991904Y-48121485D02*
X56991904Y-47931009D01*
X56991904Y-47931009D02*
X56896666Y-47740533D01*
X56896666Y-47740533D02*
X56801428Y-47645295D01*
X56801428Y-47645295D02*
X56610952Y-47550057D01*
X56610952Y-47550057D02*
X56229999Y-47454819D01*
X56229999Y-47454819D02*
X56039523Y-47359580D01*
X56039523Y-47359580D02*
X55944285Y-47264342D01*
X55944285Y-47264342D02*
X55849047Y-47073866D01*
X55849047Y-47073866D02*
X55849047Y-46883390D01*
X55849047Y-46883390D02*
X55944285Y-46692914D01*
X55944285Y-46692914D02*
X56039523Y-46597676D01*
X56039523Y-46597676D02*
X56229999Y-46502438D01*
X56229999Y-46502438D02*
X56706190Y-46502438D01*
X56706190Y-46502438D02*
X56991904Y-46597676D01*
X58515714Y-47454819D02*
X58801428Y-47550057D01*
X58801428Y-47550057D02*
X58896666Y-47645295D01*
X58896666Y-47645295D02*
X58991904Y-47835771D01*
X58991904Y-47835771D02*
X58991904Y-48121485D01*
X58991904Y-48121485D02*
X58896666Y-48311961D01*
X58896666Y-48311961D02*
X58801428Y-48407200D01*
X58801428Y-48407200D02*
X58610952Y-48502438D01*
X58610952Y-48502438D02*
X57849047Y-48502438D01*
X57849047Y-48502438D02*
X57849047Y-46502438D01*
X57849047Y-46502438D02*
X58515714Y-46502438D01*
X58515714Y-46502438D02*
X58706190Y-46597676D01*
X58706190Y-46597676D02*
X58801428Y-46692914D01*
X58801428Y-46692914D02*
X58896666Y-46883390D01*
X58896666Y-46883390D02*
X58896666Y-47073866D01*
X58896666Y-47073866D02*
X58801428Y-47264342D01*
X58801428Y-47264342D02*
X58706190Y-47359580D01*
X58706190Y-47359580D02*
X58515714Y-47454819D01*
X58515714Y-47454819D02*
X57849047Y-47454819D01*
X59372857Y-48692914D02*
X60896666Y-48692914D01*
X61372857Y-48502438D02*
X61372857Y-46502438D01*
X61372857Y-46502438D02*
X62134762Y-46502438D01*
X62134762Y-46502438D02*
X62325238Y-46597676D01*
X62325238Y-46597676D02*
X62420476Y-46692914D01*
X62420476Y-46692914D02*
X62515714Y-46883390D01*
X62515714Y-46883390D02*
X62515714Y-47169104D01*
X62515714Y-47169104D02*
X62420476Y-47359580D01*
X62420476Y-47359580D02*
X62325238Y-47454819D01*
X62325238Y-47454819D02*
X62134762Y-47550057D01*
X62134762Y-47550057D02*
X61372857Y-47550057D01*
X63753809Y-46502438D02*
X64134762Y-46502438D01*
X64134762Y-46502438D02*
X64325238Y-46597676D01*
X64325238Y-46597676D02*
X64515714Y-46788152D01*
X64515714Y-46788152D02*
X64610952Y-47169104D01*
X64610952Y-47169104D02*
X64610952Y-47835771D01*
X64610952Y-47835771D02*
X64515714Y-48216723D01*
X64515714Y-48216723D02*
X64325238Y-48407200D01*
X64325238Y-48407200D02*
X64134762Y-48502438D01*
X64134762Y-48502438D02*
X63753809Y-48502438D01*
X63753809Y-48502438D02*
X63563333Y-48407200D01*
X63563333Y-48407200D02*
X63372857Y-48216723D01*
X63372857Y-48216723D02*
X63277619Y-47835771D01*
X63277619Y-47835771D02*
X63277619Y-47169104D01*
X63277619Y-47169104D02*
X63372857Y-46788152D01*
X63372857Y-46788152D02*
X63563333Y-46597676D01*
X63563333Y-46597676D02*
X63753809Y-46502438D01*
X65277619Y-46502438D02*
X65753809Y-48502438D01*
X65753809Y-48502438D02*
X66134762Y-47073866D01*
X66134762Y-47073866D02*
X66515714Y-48502438D01*
X66515714Y-48502438D02*
X66991905Y-46502438D01*
X67753809Y-47454819D02*
X68420476Y-47454819D01*
X68706190Y-48502438D02*
X67753809Y-48502438D01*
X67753809Y-48502438D02*
X67753809Y-46502438D01*
X67753809Y-46502438D02*
X68706190Y-46502438D01*
X70706190Y-48502438D02*
X70039523Y-47550057D01*
X69563333Y-48502438D02*
X69563333Y-46502438D01*
X69563333Y-46502438D02*
X70325238Y-46502438D01*
X70325238Y-46502438D02*
X70515714Y-46597676D01*
X70515714Y-46597676D02*
X70610952Y-46692914D01*
X70610952Y-46692914D02*
X70706190Y-46883390D01*
X70706190Y-46883390D02*
X70706190Y-47169104D01*
X70706190Y-47169104D02*
X70610952Y-47359580D01*
X70610952Y-47359580D02*
X70515714Y-47454819D01*
X70515714Y-47454819D02*
X70325238Y-47550057D01*
X70325238Y-47550057D02*
X69563333Y-47550057D01*
D11*
X48963006Y-105683465D02*
X49105863Y-105731084D01*
X49105863Y-105731084D02*
X49153482Y-105778703D01*
X49153482Y-105778703D02*
X49201101Y-105873941D01*
X49201101Y-105873941D02*
X49201101Y-106016798D01*
X49201101Y-106016798D02*
X49153482Y-106112036D01*
X49153482Y-106112036D02*
X49105863Y-106159656D01*
X49105863Y-106159656D02*
X49010625Y-106207275D01*
X49010625Y-106207275D02*
X48629673Y-106207275D01*
X48629673Y-106207275D02*
X48629673Y-105207275D01*
X48629673Y-105207275D02*
X48963006Y-105207275D01*
X48963006Y-105207275D02*
X49058244Y-105254894D01*
X49058244Y-105254894D02*
X49105863Y-105302513D01*
X49105863Y-105302513D02*
X49153482Y-105397751D01*
X49153482Y-105397751D02*
X49153482Y-105492989D01*
X49153482Y-105492989D02*
X49105863Y-105588227D01*
X49105863Y-105588227D02*
X49058244Y-105635846D01*
X49058244Y-105635846D02*
X48963006Y-105683465D01*
X48963006Y-105683465D02*
X48629673Y-105683465D01*
X50201101Y-106207275D02*
X49867768Y-105731084D01*
X49629673Y-106207275D02*
X49629673Y-105207275D01*
X49629673Y-105207275D02*
X50010625Y-105207275D01*
X50010625Y-105207275D02*
X50105863Y-105254894D01*
X50105863Y-105254894D02*
X50153482Y-105302513D01*
X50153482Y-105302513D02*
X50201101Y-105397751D01*
X50201101Y-105397751D02*
X50201101Y-105540608D01*
X50201101Y-105540608D02*
X50153482Y-105635846D01*
X50153482Y-105635846D02*
X50105863Y-105683465D01*
X50105863Y-105683465D02*
X50010625Y-105731084D01*
X50010625Y-105731084D02*
X49629673Y-105731084D01*
X50629673Y-105683465D02*
X50963006Y-105683465D01*
X51105863Y-106207275D02*
X50629673Y-106207275D01*
X50629673Y-106207275D02*
X50629673Y-105207275D01*
X50629673Y-105207275D02*
X51105863Y-105207275D01*
X51486816Y-105921560D02*
X51963006Y-105921560D01*
X51391578Y-106207275D02*
X51724911Y-105207275D01*
X51724911Y-105207275D02*
X52058244Y-106207275D01*
X52391578Y-106207275D02*
X52391578Y-105207275D01*
X52391578Y-105207275D02*
X52629673Y-105207275D01*
X52629673Y-105207275D02*
X52772530Y-105254894D01*
X52772530Y-105254894D02*
X52867768Y-105350132D01*
X52867768Y-105350132D02*
X52915387Y-105445370D01*
X52915387Y-105445370D02*
X52963006Y-105635846D01*
X52963006Y-105635846D02*
X52963006Y-105778703D01*
X52963006Y-105778703D02*
X52915387Y-105969179D01*
X52915387Y-105969179D02*
X52867768Y-106064417D01*
X52867768Y-106064417D02*
X52772530Y-106159656D01*
X52772530Y-106159656D02*
X52629673Y-106207275D01*
X52629673Y-106207275D02*
X52391578Y-106207275D01*
X48629673Y-107817219D02*
X48629673Y-106817219D01*
X48629673Y-106817219D02*
X48963006Y-107531504D01*
X48963006Y-107531504D02*
X49296339Y-106817219D01*
X49296339Y-106817219D02*
X49296339Y-107817219D01*
X49963006Y-106817219D02*
X50153482Y-106817219D01*
X50153482Y-106817219D02*
X50248720Y-106864838D01*
X50248720Y-106864838D02*
X50343958Y-106960076D01*
X50343958Y-106960076D02*
X50391577Y-107150552D01*
X50391577Y-107150552D02*
X50391577Y-107483885D01*
X50391577Y-107483885D02*
X50343958Y-107674361D01*
X50343958Y-107674361D02*
X50248720Y-107769600D01*
X50248720Y-107769600D02*
X50153482Y-107817219D01*
X50153482Y-107817219D02*
X49963006Y-107817219D01*
X49963006Y-107817219D02*
X49867768Y-107769600D01*
X49867768Y-107769600D02*
X49772530Y-107674361D01*
X49772530Y-107674361D02*
X49724911Y-107483885D01*
X49724911Y-107483885D02*
X49724911Y-107150552D01*
X49724911Y-107150552D02*
X49772530Y-106960076D01*
X49772530Y-106960076D02*
X49867768Y-106864838D01*
X49867768Y-106864838D02*
X49963006Y-106817219D01*
X50820149Y-107817219D02*
X50820149Y-106817219D01*
X50820149Y-106817219D02*
X51058244Y-106817219D01*
X51058244Y-106817219D02*
X51201101Y-106864838D01*
X51201101Y-106864838D02*
X51296339Y-106960076D01*
X51296339Y-106960076D02*
X51343958Y-107055314D01*
X51343958Y-107055314D02*
X51391577Y-107245790D01*
X51391577Y-107245790D02*
X51391577Y-107388647D01*
X51391577Y-107388647D02*
X51343958Y-107579123D01*
X51343958Y-107579123D02*
X51296339Y-107674361D01*
X51296339Y-107674361D02*
X51201101Y-107769600D01*
X51201101Y-107769600D02*
X51058244Y-107817219D01*
X51058244Y-107817219D02*
X50820149Y-107817219D01*
X51820149Y-106817219D02*
X51820149Y-107626742D01*
X51820149Y-107626742D02*
X51867768Y-107721980D01*
X51867768Y-107721980D02*
X51915387Y-107769600D01*
X51915387Y-107769600D02*
X52010625Y-107817219D01*
X52010625Y-107817219D02*
X52201101Y-107817219D01*
X52201101Y-107817219D02*
X52296339Y-107769600D01*
X52296339Y-107769600D02*
X52343958Y-107721980D01*
X52343958Y-107721980D02*
X52391577Y-107626742D01*
X52391577Y-107626742D02*
X52391577Y-106817219D01*
X53343958Y-107817219D02*
X52867768Y-107817219D01*
X52867768Y-107817219D02*
X52867768Y-106817219D01*
X53629673Y-107531504D02*
X54105863Y-107531504D01*
X53534435Y-107817219D02*
X53867768Y-106817219D01*
X53867768Y-106817219D02*
X54201101Y-107817219D01*
X55105863Y-107817219D02*
X54772530Y-107341028D01*
X54534435Y-107817219D02*
X54534435Y-106817219D01*
X54534435Y-106817219D02*
X54915387Y-106817219D01*
X54915387Y-106817219D02*
X55010625Y-106864838D01*
X55010625Y-106864838D02*
X55058244Y-106912457D01*
X55058244Y-106912457D02*
X55105863Y-107007695D01*
X55105863Y-107007695D02*
X55105863Y-107150552D01*
X55105863Y-107150552D02*
X55058244Y-107245790D01*
X55058244Y-107245790D02*
X55010625Y-107293409D01*
X55010625Y-107293409D02*
X54915387Y-107341028D01*
X54915387Y-107341028D02*
X54534435Y-107341028D01*
D10*
X55794819Y-69263333D02*
X56509104Y-69263333D01*
X56509104Y-69263333D02*
X56651961Y-69310952D01*
X56651961Y-69310952D02*
X56747200Y-69406190D01*
X56747200Y-69406190D02*
X56794819Y-69549047D01*
X56794819Y-69549047D02*
X56794819Y-69644285D01*
X56794819Y-68263333D02*
X56794819Y-68834761D01*
X56794819Y-68549047D02*
X55794819Y-68549047D01*
X55794819Y-68549047D02*
X55937676Y-68644285D01*
X55937676Y-68644285D02*
X56032914Y-68739523D01*
X56032914Y-68739523D02*
X56080533Y-68834761D01*
X69113095Y-54644819D02*
X69113095Y-55454342D01*
X69113095Y-55454342D02*
X69160714Y-55549580D01*
X69160714Y-55549580D02*
X69208333Y-55597200D01*
X69208333Y-55597200D02*
X69303571Y-55644819D01*
X69303571Y-55644819D02*
X69494047Y-55644819D01*
X69494047Y-55644819D02*
X69589285Y-55597200D01*
X69589285Y-55597200D02*
X69636904Y-55549580D01*
X69636904Y-55549580D02*
X69684523Y-55454342D01*
X69684523Y-55454342D02*
X69684523Y-54644819D01*
X70113095Y-54740057D02*
X70160714Y-54692438D01*
X70160714Y-54692438D02*
X70255952Y-54644819D01*
X70255952Y-54644819D02*
X70494047Y-54644819D01*
X70494047Y-54644819D02*
X70589285Y-54692438D01*
X70589285Y-54692438D02*
X70636904Y-54740057D01*
X70636904Y-54740057D02*
X70684523Y-54835295D01*
X70684523Y-54835295D02*
X70684523Y-54930533D01*
X70684523Y-54930533D02*
X70636904Y-55073390D01*
X70636904Y-55073390D02*
X70065476Y-55644819D01*
X70065476Y-55644819D02*
X70684523Y-55644819D01*
D13*
X61984333Y-83403633D02*
X61751000Y-83070300D01*
X61584333Y-83403633D02*
X61584333Y-82703633D01*
X61584333Y-82703633D02*
X61851000Y-82703633D01*
X61851000Y-82703633D02*
X61917667Y-82736966D01*
X61917667Y-82736966D02*
X61951000Y-82770300D01*
X61951000Y-82770300D02*
X61984333Y-82836966D01*
X61984333Y-82836966D02*
X61984333Y-82936966D01*
X61984333Y-82936966D02*
X61951000Y-83003633D01*
X61951000Y-83003633D02*
X61917667Y-83036966D01*
X61917667Y-83036966D02*
X61851000Y-83070300D01*
X61851000Y-83070300D02*
X61584333Y-83070300D01*
X62651000Y-83403633D02*
X62251000Y-83403633D01*
X62451000Y-83403633D02*
X62451000Y-82703633D01*
X62451000Y-82703633D02*
X62384333Y-82803633D01*
X62384333Y-82803633D02*
X62317667Y-82870300D01*
X62317667Y-82870300D02*
X62251000Y-82903633D01*
D10*
X61741666Y-60951009D02*
X61408333Y-60951009D01*
X61408333Y-61474819D02*
X61408333Y-60474819D01*
X61408333Y-60474819D02*
X61884523Y-60474819D01*
X62598809Y-60951009D02*
X62741666Y-60998628D01*
X62741666Y-60998628D02*
X62789285Y-61046247D01*
X62789285Y-61046247D02*
X62836904Y-61141485D01*
X62836904Y-61141485D02*
X62836904Y-61284342D01*
X62836904Y-61284342D02*
X62789285Y-61379580D01*
X62789285Y-61379580D02*
X62741666Y-61427200D01*
X62741666Y-61427200D02*
X62646428Y-61474819D01*
X62646428Y-61474819D02*
X62265476Y-61474819D01*
X62265476Y-61474819D02*
X62265476Y-60474819D01*
X62265476Y-60474819D02*
X62598809Y-60474819D01*
X62598809Y-60474819D02*
X62694047Y-60522438D01*
X62694047Y-60522438D02*
X62741666Y-60570057D01*
X62741666Y-60570057D02*
X62789285Y-60665295D01*
X62789285Y-60665295D02*
X62789285Y-60760533D01*
X62789285Y-60760533D02*
X62741666Y-60855771D01*
X62741666Y-60855771D02*
X62694047Y-60903390D01*
X62694047Y-60903390D02*
X62598809Y-60951009D01*
X62598809Y-60951009D02*
X62265476Y-60951009D01*
X63217857Y-60570057D02*
X63265476Y-60522438D01*
X63265476Y-60522438D02*
X63360714Y-60474819D01*
X63360714Y-60474819D02*
X63598809Y-60474819D01*
X63598809Y-60474819D02*
X63694047Y-60522438D01*
X63694047Y-60522438D02*
X63741666Y-60570057D01*
X63741666Y-60570057D02*
X63789285Y-60665295D01*
X63789285Y-60665295D02*
X63789285Y-60760533D01*
X63789285Y-60760533D02*
X63741666Y-60903390D01*
X63741666Y-60903390D02*
X63170238Y-61474819D01*
X63170238Y-61474819D02*
X63789285Y-61474819D01*
X61339405Y-78940819D02*
X61339405Y-77940819D01*
X61339405Y-77940819D02*
X61577500Y-77940819D01*
X61577500Y-77940819D02*
X61720357Y-77988438D01*
X61720357Y-77988438D02*
X61815595Y-78083676D01*
X61815595Y-78083676D02*
X61863214Y-78178914D01*
X61863214Y-78178914D02*
X61910833Y-78369390D01*
X61910833Y-78369390D02*
X61910833Y-78512247D01*
X61910833Y-78512247D02*
X61863214Y-78702723D01*
X61863214Y-78702723D02*
X61815595Y-78797961D01*
X61815595Y-78797961D02*
X61720357Y-78893200D01*
X61720357Y-78893200D02*
X61577500Y-78940819D01*
X61577500Y-78940819D02*
X61339405Y-78940819D01*
X62863214Y-78940819D02*
X62291786Y-78940819D01*
X62577500Y-78940819D02*
X62577500Y-77940819D01*
X62577500Y-77940819D02*
X62482262Y-78083676D01*
X62482262Y-78083676D02*
X62387024Y-78178914D01*
X62387024Y-78178914D02*
X62291786Y-78226533D01*
X63012333Y-66339580D02*
X62964714Y-66387200D01*
X62964714Y-66387200D02*
X62821857Y-66434819D01*
X62821857Y-66434819D02*
X62726619Y-66434819D01*
X62726619Y-66434819D02*
X62583762Y-66387200D01*
X62583762Y-66387200D02*
X62488524Y-66291961D01*
X62488524Y-66291961D02*
X62440905Y-66196723D01*
X62440905Y-66196723D02*
X62393286Y-66006247D01*
X62393286Y-66006247D02*
X62393286Y-65863390D01*
X62393286Y-65863390D02*
X62440905Y-65672914D01*
X62440905Y-65672914D02*
X62488524Y-65577676D01*
X62488524Y-65577676D02*
X62583762Y-65482438D01*
X62583762Y-65482438D02*
X62726619Y-65434819D01*
X62726619Y-65434819D02*
X62821857Y-65434819D01*
X62821857Y-65434819D02*
X62964714Y-65482438D01*
X62964714Y-65482438D02*
X63012333Y-65530057D01*
X63964714Y-66434819D02*
X63393286Y-66434819D01*
X63679000Y-66434819D02*
X63679000Y-65434819D01*
X63679000Y-65434819D02*
X63583762Y-65577676D01*
X63583762Y-65577676D02*
X63488524Y-65672914D01*
X63488524Y-65672914D02*
X63393286Y-65720533D01*
X55085533Y-76494619D02*
X54752200Y-76018428D01*
X54514105Y-76494619D02*
X54514105Y-75494619D01*
X54514105Y-75494619D02*
X54895057Y-75494619D01*
X54895057Y-75494619D02*
X54990295Y-75542238D01*
X54990295Y-75542238D02*
X55037914Y-75589857D01*
X55037914Y-75589857D02*
X55085533Y-75685095D01*
X55085533Y-75685095D02*
X55085533Y-75827952D01*
X55085533Y-75827952D02*
X55037914Y-75923190D01*
X55037914Y-75923190D02*
X54990295Y-75970809D01*
X54990295Y-75970809D02*
X54895057Y-76018428D01*
X54895057Y-76018428D02*
X54514105Y-76018428D01*
X55418867Y-75494619D02*
X56037914Y-75494619D01*
X56037914Y-75494619D02*
X55704581Y-75875571D01*
X55704581Y-75875571D02*
X55847438Y-75875571D01*
X55847438Y-75875571D02*
X55942676Y-75923190D01*
X55942676Y-75923190D02*
X55990295Y-75970809D01*
X55990295Y-75970809D02*
X56037914Y-76066047D01*
X56037914Y-76066047D02*
X56037914Y-76304142D01*
X56037914Y-76304142D02*
X55990295Y-76399380D01*
X55990295Y-76399380D02*
X55942676Y-76447000D01*
X55942676Y-76447000D02*
X55847438Y-76494619D01*
X55847438Y-76494619D02*
X55561724Y-76494619D01*
X55561724Y-76494619D02*
X55466486Y-76447000D01*
X55466486Y-76447000D02*
X55418867Y-76399380D01*
X51707333Y-76494619D02*
X51374000Y-76018428D01*
X51135905Y-76494619D02*
X51135905Y-75494619D01*
X51135905Y-75494619D02*
X51516857Y-75494619D01*
X51516857Y-75494619D02*
X51612095Y-75542238D01*
X51612095Y-75542238D02*
X51659714Y-75589857D01*
X51659714Y-75589857D02*
X51707333Y-75685095D01*
X51707333Y-75685095D02*
X51707333Y-75827952D01*
X51707333Y-75827952D02*
X51659714Y-75923190D01*
X51659714Y-75923190D02*
X51612095Y-75970809D01*
X51612095Y-75970809D02*
X51516857Y-76018428D01*
X51516857Y-76018428D02*
X51135905Y-76018428D01*
X52564476Y-75827952D02*
X52564476Y-76494619D01*
X52326381Y-75447000D02*
X52088286Y-76161285D01*
X52088286Y-76161285D02*
X52707333Y-76161285D01*
X49248580Y-79891666D02*
X49296200Y-79939285D01*
X49296200Y-79939285D02*
X49343819Y-80082142D01*
X49343819Y-80082142D02*
X49343819Y-80177380D01*
X49343819Y-80177380D02*
X49296200Y-80320237D01*
X49296200Y-80320237D02*
X49200961Y-80415475D01*
X49200961Y-80415475D02*
X49105723Y-80463094D01*
X49105723Y-80463094D02*
X48915247Y-80510713D01*
X48915247Y-80510713D02*
X48772390Y-80510713D01*
X48772390Y-80510713D02*
X48581914Y-80463094D01*
X48581914Y-80463094D02*
X48486676Y-80415475D01*
X48486676Y-80415475D02*
X48391438Y-80320237D01*
X48391438Y-80320237D02*
X48343819Y-80177380D01*
X48343819Y-80177380D02*
X48343819Y-80082142D01*
X48343819Y-80082142D02*
X48391438Y-79939285D01*
X48391438Y-79939285D02*
X48439057Y-79891666D01*
X48343819Y-78986904D02*
X48343819Y-79463094D01*
X48343819Y-79463094D02*
X48820009Y-79510713D01*
X48820009Y-79510713D02*
X48772390Y-79463094D01*
X48772390Y-79463094D02*
X48724771Y-79367856D01*
X48724771Y-79367856D02*
X48724771Y-79129761D01*
X48724771Y-79129761D02*
X48772390Y-79034523D01*
X48772390Y-79034523D02*
X48820009Y-78986904D01*
X48820009Y-78986904D02*
X48915247Y-78939285D01*
X48915247Y-78939285D02*
X49153342Y-78939285D01*
X49153342Y-78939285D02*
X49248580Y-78986904D01*
X49248580Y-78986904D02*
X49296200Y-79034523D01*
X49296200Y-79034523D02*
X49343819Y-79129761D01*
X49343819Y-79129761D02*
X49343819Y-79367856D01*
X49343819Y-79367856D02*
X49296200Y-79463094D01*
X49296200Y-79463094D02*
X49248580Y-79510713D01*
X68055666Y-68078009D02*
X67722333Y-68078009D01*
X67722333Y-68601819D02*
X67722333Y-67601819D01*
X67722333Y-67601819D02*
X68198523Y-67601819D01*
X68912809Y-68078009D02*
X69055666Y-68125628D01*
X69055666Y-68125628D02*
X69103285Y-68173247D01*
X69103285Y-68173247D02*
X69150904Y-68268485D01*
X69150904Y-68268485D02*
X69150904Y-68411342D01*
X69150904Y-68411342D02*
X69103285Y-68506580D01*
X69103285Y-68506580D02*
X69055666Y-68554200D01*
X69055666Y-68554200D02*
X68960428Y-68601819D01*
X68960428Y-68601819D02*
X68579476Y-68601819D01*
X68579476Y-68601819D02*
X68579476Y-67601819D01*
X68579476Y-67601819D02*
X68912809Y-67601819D01*
X68912809Y-67601819D02*
X69008047Y-67649438D01*
X69008047Y-67649438D02*
X69055666Y-67697057D01*
X69055666Y-67697057D02*
X69103285Y-67792295D01*
X69103285Y-67792295D02*
X69103285Y-67887533D01*
X69103285Y-67887533D02*
X69055666Y-67982771D01*
X69055666Y-67982771D02*
X69008047Y-68030390D01*
X69008047Y-68030390D02*
X68912809Y-68078009D01*
X68912809Y-68078009D02*
X68579476Y-68078009D01*
X70103285Y-68601819D02*
X69531857Y-68601819D01*
X69817571Y-68601819D02*
X69817571Y-67601819D01*
X69817571Y-67601819D02*
X69722333Y-67744676D01*
X69722333Y-67744676D02*
X69627095Y-67839914D01*
X69627095Y-67839914D02*
X69531857Y-67887533D01*
X57328333Y-59824580D02*
X57280714Y-59872200D01*
X57280714Y-59872200D02*
X57137857Y-59919819D01*
X57137857Y-59919819D02*
X57042619Y-59919819D01*
X57042619Y-59919819D02*
X56899762Y-59872200D01*
X56899762Y-59872200D02*
X56804524Y-59776961D01*
X56804524Y-59776961D02*
X56756905Y-59681723D01*
X56756905Y-59681723D02*
X56709286Y-59491247D01*
X56709286Y-59491247D02*
X56709286Y-59348390D01*
X56709286Y-59348390D02*
X56756905Y-59157914D01*
X56756905Y-59157914D02*
X56804524Y-59062676D01*
X56804524Y-59062676D02*
X56899762Y-58967438D01*
X56899762Y-58967438D02*
X57042619Y-58919819D01*
X57042619Y-58919819D02*
X57137857Y-58919819D01*
X57137857Y-58919819D02*
X57280714Y-58967438D01*
X57280714Y-58967438D02*
X57328333Y-59015057D01*
X57661667Y-58919819D02*
X58280714Y-58919819D01*
X58280714Y-58919819D02*
X57947381Y-59300771D01*
X57947381Y-59300771D02*
X58090238Y-59300771D01*
X58090238Y-59300771D02*
X58185476Y-59348390D01*
X58185476Y-59348390D02*
X58233095Y-59396009D01*
X58233095Y-59396009D02*
X58280714Y-59491247D01*
X58280714Y-59491247D02*
X58280714Y-59729342D01*
X58280714Y-59729342D02*
X58233095Y-59824580D01*
X58233095Y-59824580D02*
X58185476Y-59872200D01*
X58185476Y-59872200D02*
X58090238Y-59919819D01*
X58090238Y-59919819D02*
X57804524Y-59919819D01*
X57804524Y-59919819D02*
X57709286Y-59872200D01*
X57709286Y-59872200D02*
X57661667Y-59824580D01*
X63078333Y-70530580D02*
X63030714Y-70578200D01*
X63030714Y-70578200D02*
X62887857Y-70625819D01*
X62887857Y-70625819D02*
X62792619Y-70625819D01*
X62792619Y-70625819D02*
X62649762Y-70578200D01*
X62649762Y-70578200D02*
X62554524Y-70482961D01*
X62554524Y-70482961D02*
X62506905Y-70387723D01*
X62506905Y-70387723D02*
X62459286Y-70197247D01*
X62459286Y-70197247D02*
X62459286Y-70054390D01*
X62459286Y-70054390D02*
X62506905Y-69863914D01*
X62506905Y-69863914D02*
X62554524Y-69768676D01*
X62554524Y-69768676D02*
X62649762Y-69673438D01*
X62649762Y-69673438D02*
X62792619Y-69625819D01*
X62792619Y-69625819D02*
X62887857Y-69625819D01*
X62887857Y-69625819D02*
X63030714Y-69673438D01*
X63030714Y-69673438D02*
X63078333Y-69721057D01*
X63459286Y-69721057D02*
X63506905Y-69673438D01*
X63506905Y-69673438D02*
X63602143Y-69625819D01*
X63602143Y-69625819D02*
X63840238Y-69625819D01*
X63840238Y-69625819D02*
X63935476Y-69673438D01*
X63935476Y-69673438D02*
X63983095Y-69721057D01*
X63983095Y-69721057D02*
X64030714Y-69816295D01*
X64030714Y-69816295D02*
X64030714Y-69911533D01*
X64030714Y-69911533D02*
X63983095Y-70054390D01*
X63983095Y-70054390D02*
X63411667Y-70625819D01*
X63411667Y-70625819D02*
X64030714Y-70625819D01*
X57328333Y-63634580D02*
X57280714Y-63682200D01*
X57280714Y-63682200D02*
X57137857Y-63729819D01*
X57137857Y-63729819D02*
X57042619Y-63729819D01*
X57042619Y-63729819D02*
X56899762Y-63682200D01*
X56899762Y-63682200D02*
X56804524Y-63586961D01*
X56804524Y-63586961D02*
X56756905Y-63491723D01*
X56756905Y-63491723D02*
X56709286Y-63301247D01*
X56709286Y-63301247D02*
X56709286Y-63158390D01*
X56709286Y-63158390D02*
X56756905Y-62967914D01*
X56756905Y-62967914D02*
X56804524Y-62872676D01*
X56804524Y-62872676D02*
X56899762Y-62777438D01*
X56899762Y-62777438D02*
X57042619Y-62729819D01*
X57042619Y-62729819D02*
X57137857Y-62729819D01*
X57137857Y-62729819D02*
X57280714Y-62777438D01*
X57280714Y-62777438D02*
X57328333Y-62825057D01*
X58185476Y-63063152D02*
X58185476Y-63729819D01*
X57947381Y-62682200D02*
X57709286Y-63396485D01*
X57709286Y-63396485D02*
X58328333Y-63396485D01*
%TO.C,J1*%
X47123000Y-63850000D02*
X54423000Y-63850000D01*
X47123000Y-63850000D02*
X47123000Y-74010000D01*
X47123000Y-74010000D02*
X54423000Y-74010000D01*
D14*
%TO.C,U2*%
X66745000Y-56380000D02*
X66505000Y-56050000D01*
X66985000Y-56050000D01*
X66745000Y-56380000D01*
G36*
X66745000Y-56380000D02*
G01*
X66505000Y-56050000D01*
X66985000Y-56050000D01*
X66745000Y-56380000D01*
G37*
X71785000Y-63100000D02*
X71785000Y-61840000D01*
X71785000Y-56280000D02*
X71785000Y-57540000D01*
X68025000Y-63100000D02*
X71785000Y-63100000D01*
X68025000Y-56280000D02*
X71785000Y-56280000D01*
D11*
%TO.C,SW1*%
X59680000Y-85080000D02*
X64780000Y-85080000D01*
X59680000Y-86630000D02*
X59680000Y-88630000D01*
X59680000Y-90180000D02*
X64780000Y-90180000D01*
X64780000Y-86630000D02*
X64780000Y-88630000D01*
D14*
%TO.C,R1*%
X62254641Y-82295000D02*
X61947359Y-82295000D01*
X62254641Y-81535000D02*
X61947359Y-81535000D01*
%TO.C,FB2*%
X62836252Y-58605000D02*
X62313748Y-58605000D01*
X62836252Y-60075000D02*
X62313748Y-60075000D01*
%TO.C,C1*%
X62917748Y-68395000D02*
X63440252Y-68395000D01*
X62917748Y-66925000D02*
X63440252Y-66925000D01*
%TO.C,R3*%
X55014942Y-77992300D02*
X55489458Y-77992300D01*
X55014942Y-76947300D02*
X55489458Y-76947300D01*
%TO.C,R4*%
X51636742Y-77992300D02*
X52111258Y-77992300D01*
X51636742Y-76947300D02*
X52111258Y-76947300D01*
%TO.C,C5*%
X49624000Y-76608748D02*
X49624000Y-77131252D01*
X48154000Y-76608748D02*
X48154000Y-77131252D01*
%TO.C,FB1*%
X68627748Y-70562000D02*
X69150252Y-70562000D01*
X68627748Y-69092000D02*
X69150252Y-69092000D01*
%TO.C,C3*%
X57756252Y-57050000D02*
X57233748Y-57050000D01*
X57756252Y-58520000D02*
X57233748Y-58520000D01*
%TO.C,C2*%
X62983748Y-72586000D02*
X63506252Y-72586000D01*
X62983748Y-71116000D02*
X63506252Y-71116000D01*
%TO.C,C4*%
X57756252Y-60860000D02*
X57233748Y-60860000D01*
X57756252Y-62330000D02*
X57233748Y-62330000D01*
%TD*%
%LPC*%
D15*
%TO.C,J1*%
X53340000Y-66040000D03*
X53340000Y-71820000D03*
D16*
X54785000Y-65705000D03*
X54785000Y-66480000D03*
D17*
X54785000Y-67180000D03*
X54785000Y-68180000D03*
X54785000Y-68680000D03*
X54785000Y-69180000D03*
X54785000Y-69680000D03*
X54785000Y-70180000D03*
X54785000Y-67680000D03*
D16*
X54785000Y-71380000D03*
X54785000Y-72155000D03*
D17*
X54785000Y-70680000D03*
%TD*%
D18*
%TO.C,U2*%
X73025000Y-59690000D03*
D19*
X66725000Y-61990000D03*
X66725000Y-59690000D03*
X66725000Y-57390000D03*
%TD*%
D20*
%TO.C,SW1*%
X59230000Y-85755000D03*
X65230000Y-85755000D03*
X59230000Y-89505000D03*
X65230000Y-89505000D03*
%TD*%
D21*
%TO.C,R1*%
X62611000Y-81915000D03*
X61591000Y-81915000D03*
%TD*%
D22*
%TO.C,FB2*%
X61625000Y-59340000D03*
X63525000Y-59340000D03*
%TD*%
D23*
%TO.C,D1*%
X61290000Y-80010000D03*
X62865000Y-80010000D03*
%TD*%
D24*
%TO.C,C1*%
X64129000Y-67660000D03*
X62229000Y-67660000D03*
%TD*%
D25*
%TO.C,R3*%
X56077200Y-77469800D03*
X54427200Y-77469800D03*
%TD*%
%TO.C,R4*%
X52699000Y-77469800D03*
X51049000Y-77469800D03*
%TD*%
D26*
%TO.C,C5*%
X48889000Y-77820000D03*
X48889000Y-75920000D03*
%TD*%
D24*
%TO.C,FB1*%
X69839000Y-69827000D03*
X67939000Y-69827000D03*
%TD*%
D22*
%TO.C,C3*%
X56545000Y-57785000D03*
X58445000Y-57785000D03*
%TD*%
D24*
%TO.C,C2*%
X64195000Y-71851000D03*
X62295000Y-71851000D03*
%TD*%
D22*
%TO.C,C4*%
X56545000Y-61595000D03*
X58445000Y-61595000D03*
%TD*%
D27*
%TO.C,GND1*%
X55880000Y-96520000D03*
D28*
X58420000Y-96520000D03*
X60960000Y-96520000D03*
X63500000Y-96520000D03*
X66040000Y-96520000D03*
%TD*%
D27*
%TO.C,5V1*%
X55880000Y-50800000D03*
D28*
X58420000Y-50800000D03*
X60960000Y-50800000D03*
X63500000Y-50800000D03*
X66040000Y-50800000D03*
%TD*%
%LPD*%
M02*
