%TF.GenerationSoftware,KiCad,Pcbnew,8.0.5*%
%TF.CreationDate,2024-11-24T13:21:31+05:30*%
%TF.ProjectId,usb_power,7573625f-706f-4776-9572-2e6b69636164,rev?*%
%TF.SameCoordinates,Original*%
%TF.FileFunction,Copper,L1,Top*%
%TF.FilePolarity,Positive*%
%FSLAX46Y46*%
G04 Gerber Fmt 4.6, Leading zero omitted, Abs format (unit mm)*
G04 Created by KiCad (PCBNEW 8.0.5) date 2024-11-24 13:21:31*
%MOMM*%
%LPD*%
G01*
G04 APERTURE LIST*
G04 Aperture macros list*
%AMRoundRect*
0 Rectangle with rounded corners*
0 $1 Rounding radius*
0 $2 $3 $4 $5 $6 $7 $8 $9 X,Y pos of 4 corners*
0 Add a 4 corners polygon primitive as box body*
4,1,4,$2,$3,$4,$5,$6,$7,$8,$9,$2,$3,0*
0 Add four circle primitives for the rounded corners*
1,1,$1+$1,$2,$3*
1,1,$1+$1,$4,$5*
1,1,$1+$1,$6,$7*
1,1,$1+$1,$8,$9*
0 Add four rect primitives between the rounded corners*
20,1,$1+$1,$2,$3,$4,$5,0*
20,1,$1+$1,$4,$5,$6,$7,0*
20,1,$1+$1,$6,$7,$8,$9,0*
20,1,$1+$1,$8,$9,$2,$3,0*%
G04 Aperture macros list end*
%TA.AperFunction,Conductor*%
%ADD10C,0.200000*%
%TD*%
%TA.AperFunction,NonConductor*%
%ADD11C,0.200000*%
%TD*%
%TA.AperFunction,SMDPad,CuDef*%
%ADD12R,1.450000X0.600000*%
%TD*%
%TA.AperFunction,SMDPad,CuDef*%
%ADD13R,1.450000X0.300000*%
%TD*%
%TA.AperFunction,ComponentPad*%
%ADD14O,2.100000X1.000000*%
%TD*%
%TA.AperFunction,ComponentPad*%
%ADD15O,1.600000X1.000000*%
%TD*%
%TA.AperFunction,SMDPad,CuDef*%
%ADD16RoundRect,0.218750X-0.218750X-0.256250X0.218750X-0.256250X0.218750X0.256250X-0.218750X0.256250X0*%
%TD*%
%TA.AperFunction,SMDPad,CuDef*%
%ADD17RoundRect,0.135000X0.135000X0.185000X-0.135000X0.185000X-0.135000X-0.185000X0.135000X-0.185000X0*%
%TD*%
%TA.AperFunction,SMDPad,CuDef*%
%ADD18RoundRect,0.250000X0.250000X0.475000X-0.250000X0.475000X-0.250000X-0.475000X0.250000X-0.475000X0*%
%TD*%
%TA.AperFunction,SMDPad,CuDef*%
%ADD19RoundRect,0.250000X-0.250000X-0.475000X0.250000X-0.475000X0.250000X0.475000X-0.250000X0.475000X0*%
%TD*%
%TA.AperFunction,SMDPad,CuDef*%
%ADD20RoundRect,0.200000X-0.200000X-0.275000X0.200000X-0.275000X0.200000X0.275000X-0.200000X0.275000X0*%
%TD*%
%TA.AperFunction,SMDPad,CuDef*%
%ADD21RoundRect,0.250000X-0.475000X0.250000X-0.475000X-0.250000X0.475000X-0.250000X0.475000X0.250000X0*%
%TD*%
%TA.AperFunction,SMDPad,CuDef*%
%ADD22RoundRect,0.375000X-0.625000X-0.375000X0.625000X-0.375000X0.625000X0.375000X-0.625000X0.375000X0*%
%TD*%
%TA.AperFunction,SMDPad,CuDef*%
%ADD23RoundRect,0.500000X-0.500000X-1.400000X0.500000X-1.400000X0.500000X1.400000X-0.500000X1.400000X0*%
%TD*%
%TA.AperFunction,ComponentPad*%
%ADD24R,1.700000X1.700000*%
%TD*%
%TA.AperFunction,ComponentPad*%
%ADD25O,1.700000X1.700000*%
%TD*%
%TA.AperFunction,ViaPad*%
%ADD26C,4.000000*%
%TD*%
%TA.AperFunction,ViaPad*%
%ADD27C,0.700000*%
%TD*%
%TA.AperFunction,Conductor*%
%ADD28C,0.500000*%
%TD*%
%TA.AperFunction,Conductor*%
%ADD29C,0.300000*%
%TD*%
G04 APERTURE END LIST*
D10*
%TO.N,GND*%
X69850000Y-58420000D02*
X64770000Y-58420000D01*
X64770000Y-57785000D01*
X60325000Y-57785000D01*
X60325000Y-55880000D01*
X59055000Y-55880000D01*
X59055000Y-53340000D01*
X69850000Y-53340000D01*
X69850000Y-58420000D01*
%TA.AperFunction,Conductor*%
G36*
X69850000Y-58420000D02*
G01*
X64770000Y-58420000D01*
X64770000Y-57785000D01*
X60325000Y-57785000D01*
X60325000Y-55880000D01*
X59055000Y-55880000D01*
X59055000Y-53340000D01*
X69850000Y-53340000D01*
X69850000Y-58420000D01*
G37*
%TD.AperFunction*%
D11*
X76200000Y-93980000D02*
X71120000Y-93980000D01*
X71120000Y-53340000D01*
X76200000Y-53340000D01*
X76200000Y-93980000D01*
%TA.AperFunction,NonConductor*%
G36*
X76200000Y-93980000D02*
G01*
X71120000Y-93980000D01*
X71120000Y-53340000D01*
X76200000Y-53340000D01*
X76200000Y-93980000D01*
G37*
%TD.AperFunction*%
%TD*%
D12*
%TO.P,J1,A1*%
%TO.N,N/C*%
X54785000Y-65705000D03*
%TO.P,J1,A4*%
X54785000Y-66480000D03*
D13*
%TO.P,J1,A5,CC1*%
%TO.N,Net-(J1-CC1)*%
X54785000Y-67680000D03*
%TO.P,J1,A6*%
%TO.N,N/C*%
X54785000Y-68680000D03*
%TO.P,J1,A7*%
X54785000Y-69180000D03*
%TO.P,J1,A8*%
X54785000Y-70180000D03*
D12*
%TO.P,J1,A9,VBUS*%
%TO.N,Net-(C1-Pad1)*%
X54785000Y-71380000D03*
%TO.P,J1,A12,GND*%
%TO.N,GND*%
X54785000Y-72155000D03*
D13*
%TO.P,J1,B5,CC2*%
%TO.N,Net-(J1-CC2)*%
X54785000Y-70680000D03*
%TO.P,J1,B6*%
%TO.N,N/C*%
X54785000Y-69680000D03*
%TO.P,J1,B7*%
X54785000Y-68180000D03*
%TO.P,J1,B8*%
X54785000Y-67180000D03*
D14*
%TO.P,J1,S1,SHIELD*%
%TO.N,Net-(J1-SHIELD)*%
X53870000Y-64610000D03*
D15*
X49690000Y-64610000D03*
D14*
X53870000Y-73250000D03*
D15*
X49690000Y-73250000D03*
%TD*%
D16*
%TO.P,D1,1,K*%
%TO.N,Net-(D1-K)*%
X61290000Y-80010000D03*
%TO.P,D1,2,A*%
%TO.N,+3.3V*%
X62865000Y-80010000D03*
%TD*%
D17*
%TO.P,R1,1*%
%TO.N,Net-(D1-K)*%
X62611000Y-81915000D03*
%TO.P,R1,2*%
%TO.N,GND*%
X61591000Y-81915000D03*
%TD*%
D18*
%TO.P,FB2,1*%
%TO.N,Net-(U2-VO)*%
X63525000Y-59340000D03*
%TO.P,FB2,2*%
%TO.N,+3.3V*%
X61625000Y-59340000D03*
%TD*%
D19*
%TO.P,C1,1*%
%TO.N,Net-(C1-Pad1)*%
X62229000Y-67660000D03*
%TO.P,C1,2*%
%TO.N,GND*%
X64129000Y-67660000D03*
%TD*%
D20*
%TO.P,R3,1*%
%TO.N,Net-(J1-CC2)*%
X54427200Y-77469800D03*
%TO.P,R3,2*%
%TO.N,GND*%
X56077200Y-77469800D03*
%TD*%
%TO.P,R4,1*%
%TO.N,Net-(J1-CC1)*%
X51049000Y-77469800D03*
%TO.P,R4,2*%
%TO.N,GND*%
X52699000Y-77469800D03*
%TD*%
D21*
%TO.P,C5,1*%
%TO.N,Net-(J1-SHIELD)*%
X48889000Y-75920000D03*
%TO.P,C5,2*%
%TO.N,GND*%
X48889000Y-77820000D03*
%TD*%
D19*
%TO.P,FB1,1*%
%TO.N,Net-(C1-Pad1)*%
X67939000Y-69827000D03*
%TO.P,FB1,2*%
%TO.N,Net-(U2-VI)*%
X69839000Y-69827000D03*
%TD*%
D22*
%TO.P,U2,1,GND*%
%TO.N,GND*%
X66725000Y-57390000D03*
%TO.P,U2,2,VO*%
%TO.N,Net-(U2-VO)*%
X66725000Y-59690000D03*
%TO.P,U2,3,VI*%
%TO.N,Net-(U2-VI)*%
X66725000Y-61990000D03*
D23*
%TO.P,U2,4*%
%TO.N,N/C*%
X73025000Y-59690000D03*
%TD*%
D18*
%TO.P,C3,1*%
%TO.N,+3.3V*%
X58445000Y-57785000D03*
%TO.P,C3,2*%
%TO.N,GND*%
X56545000Y-57785000D03*
%TD*%
D19*
%TO.P,C2,1*%
%TO.N,Net-(C1-Pad1)*%
X62295000Y-71851000D03*
%TO.P,C2,2*%
%TO.N,GND*%
X64195000Y-71851000D03*
%TD*%
D18*
%TO.P,C4,1*%
%TO.N,+3.3V*%
X58445000Y-61595000D03*
%TO.P,C4,2*%
%TO.N,GND*%
X56545000Y-61595000D03*
%TD*%
D24*
%TO.P,GND1,1,Pin_1*%
%TO.N,GND*%
X55880000Y-96520000D03*
D25*
%TO.P,GND1,2,Pin_2*%
X58420000Y-96520000D03*
%TO.P,GND1,3,Pin_3*%
X60960000Y-96520000D03*
%TO.P,GND1,4,Pin_4*%
X63500000Y-96520000D03*
%TO.P,GND1,5,Pin_5*%
X66040000Y-96520000D03*
%TD*%
D24*
%TO.P,5V1,1,Pin_1*%
%TO.N,+3.3V*%
X55880000Y-50800000D03*
D25*
%TO.P,5V1,2,Pin_2*%
X58420000Y-50800000D03*
%TO.P,5V1,3,Pin_3*%
X60960000Y-50800000D03*
%TO.P,5V1,4,Pin_4*%
X63500000Y-50800000D03*
%TO.P,5V1,5,Pin_5*%
X66040000Y-50800000D03*
%TD*%
D26*
%TO.N,*%
X62377580Y-43815000D03*
X62784908Y-106045000D03*
X62377580Y-43815000D03*
X62784908Y-106045000D03*
X62784908Y-106045000D03*
X62784908Y-106045000D03*
X62377580Y-43815000D03*
X62377580Y-43815000D03*
D27*
%TO.N,GND*%
X60960000Y-53975000D03*
X57150000Y-73025000D03*
X62230000Y-53975000D03*
X55880000Y-79375000D03*
X60960000Y-56515000D03*
X66040000Y-53975000D03*
X67310000Y-53975000D03*
X63500000Y-55245000D03*
X54610000Y-57785000D03*
X63500000Y-53975000D03*
X66040000Y-55245000D03*
X65405000Y-67945000D03*
X59690000Y-55245000D03*
X62230000Y-56515000D03*
X67310000Y-55245000D03*
X64770000Y-53975000D03*
X50165000Y-79375000D03*
X64135000Y-57150000D03*
X60960000Y-55245000D03*
X64770000Y-55245000D03*
X62230000Y-55245000D03*
X59690000Y-53975000D03*
X60325000Y-81915000D03*
%TD*%
D28*
%TO.N,Net-(C1-Pad1)*%
X67939000Y-84201000D02*
X67939000Y-69827000D01*
X66385000Y-85755000D02*
X67939000Y-84201000D01*
X54785000Y-71380000D02*
X56636371Y-71380000D01*
X56636371Y-71380000D02*
X59230000Y-73973629D01*
X59230000Y-73973629D02*
X59230000Y-85755000D01*
X59230000Y-85755000D02*
X66385000Y-85755000D01*
%TO.N,GND*%
X52699000Y-77469800D02*
X54604200Y-79375000D01*
X55880000Y-96520000D02*
X66040000Y-96520000D01*
X56077200Y-77469800D02*
X56077200Y-79177800D01*
X64129000Y-67660000D02*
X64129000Y-71785000D01*
X61591000Y-81915000D02*
X60325000Y-81915000D01*
X54604200Y-79375000D02*
X55880000Y-79375000D01*
X48889000Y-77820000D02*
X48889000Y-78099000D01*
X56545000Y-57785000D02*
X56545000Y-61595000D01*
X56280000Y-72155000D02*
X57150000Y-73025000D01*
X64375000Y-57390000D02*
X64135000Y-57150000D01*
X48889000Y-78099000D02*
X50165000Y-79375000D01*
X54785000Y-72155000D02*
X56280000Y-72155000D01*
X56077200Y-79177800D02*
X55880000Y-79375000D01*
X64129000Y-67660000D02*
X65120000Y-67660000D01*
X56545000Y-57785000D02*
X54610000Y-57785000D01*
X64129000Y-71785000D02*
X64195000Y-71851000D01*
X65120000Y-67660000D02*
X65405000Y-67945000D01*
X66725000Y-57390000D02*
X64375000Y-57390000D01*
%TO.N,+3.3V*%
X58445000Y-57785000D02*
X58445000Y-55930000D01*
X60000000Y-59340000D02*
X58445000Y-57785000D01*
X55880000Y-50800000D02*
X66040000Y-50800000D01*
X55880000Y-53365000D02*
X55880000Y-50800000D01*
X62865000Y-76618679D02*
X58445000Y-72198679D01*
X58445000Y-55930000D02*
X55880000Y-53365000D01*
X58445000Y-72198679D02*
X58445000Y-61595000D01*
X58445000Y-57785000D02*
X58445000Y-61595000D01*
X62865000Y-80010000D02*
X62865000Y-76618679D01*
X61625000Y-59340000D02*
X60000000Y-59340000D01*
%TO.N,Net-(C1-Pad1)*%
X62295000Y-67726000D02*
X62229000Y-67660000D01*
X67939000Y-66034000D02*
X66675000Y-64770000D01*
X66675000Y-64770000D02*
X62230000Y-64770000D01*
X62229000Y-64771000D02*
X62229000Y-67660000D01*
X67939000Y-69827000D02*
X67939000Y-66034000D01*
X62295000Y-71851000D02*
X62295000Y-67726000D01*
X62230000Y-64770000D02*
X62229000Y-64771000D01*
%TO.N,Net-(J1-SHIELD)*%
X48889000Y-75920000D02*
X48889000Y-74051000D01*
X48889000Y-74051000D02*
X49690000Y-73250000D01*
D29*
%TO.N,Net-(J1-CC1)*%
X51049000Y-70440000D02*
X53809000Y-67680000D01*
X53809000Y-67680000D02*
X54884000Y-67680000D01*
X51049000Y-77469800D02*
X51049000Y-70440000D01*
%TO.N,Net-(J1-CC2)*%
X54427200Y-77469800D02*
X52470000Y-75512600D01*
X52470000Y-75512600D02*
X52470000Y-71440000D01*
X52470000Y-71440000D02*
X53230000Y-70680000D01*
X53230000Y-70680000D02*
X54785000Y-70680000D01*
D28*
%TO.N,Net-(D1-K)*%
X62611000Y-81331000D02*
X62611000Y-81915000D01*
X61290000Y-80010000D02*
X62611000Y-81331000D01*
%TO.N,Net-(U2-VI)*%
X66725000Y-63550000D02*
X66725000Y-61990000D01*
X69839000Y-69827000D02*
X69839000Y-66664000D01*
X69839000Y-66664000D02*
X66725000Y-63550000D01*
%TO.N,Net-(U2-VO)*%
X63875000Y-59690000D02*
X63525000Y-59340000D01*
X66725000Y-59690000D02*
X63875000Y-59690000D01*
%TD*%
M02*
