%TF.GenerationSoftware,KiCad,Pcbnew,8.0.5*%
%TF.CreationDate,2024-11-20T10:52:19+05:30*%
%TF.ProjectId,MCUs,4d435573-2e6b-4696-9361-645f70636258,rev?*%
%TF.SameCoordinates,Original*%
%TF.FileFunction,Legend,Bot*%
%TF.FilePolarity,Positive*%
%FSLAX46Y46*%
G04 Gerber Fmt 4.6, Leading zero omitted, Abs format (unit mm)*
G04 Created by KiCad (PCBNEW 8.0.5) date 2024-11-20 10:52:19*
%MOMM*%
%LPD*%
G01*
G04 APERTURE LIST*
%ADD10C,0.120000*%
%ADD11R,1.700000X1.700000*%
%ADD12O,1.700000X1.700000*%
G04 APERTURE END LIST*
D10*
%TO.C,J2*%
X52130000Y-64195000D02*
X52130000Y-41275000D01*
X49470000Y-41275000D02*
X52130000Y-41275000D01*
X49470000Y-64195000D02*
X52130000Y-64195000D01*
X49470000Y-38675000D02*
X50800000Y-38675000D01*
X49470000Y-40005000D02*
X49470000Y-38675000D01*
X49470000Y-64195000D02*
X49470000Y-41275000D01*
%TO.C,J1*%
X41970000Y-64195000D02*
X41970000Y-41275000D01*
X39310000Y-41275000D02*
X41970000Y-41275000D01*
X39310000Y-64195000D02*
X41970000Y-64195000D01*
X39310000Y-38675000D02*
X40640000Y-38675000D01*
X39310000Y-40005000D02*
X39310000Y-38675000D01*
X39310000Y-64195000D02*
X39310000Y-41275000D01*
%TD*%
%LPC*%
D11*
%TO.C,J2*%
X50800000Y-40005000D03*
D12*
X50800000Y-42545000D03*
X50800000Y-45085000D03*
X50800000Y-47625000D03*
X50800000Y-50165000D03*
X50800000Y-52705000D03*
X50800000Y-55245000D03*
X50800000Y-57785000D03*
X50800000Y-60325000D03*
X50800000Y-62865000D03*
%TD*%
D11*
%TO.C,J1*%
X40640000Y-40005000D03*
D12*
X40640000Y-42545000D03*
X40640000Y-45085000D03*
X40640000Y-47625000D03*
X40640000Y-50165000D03*
X40640000Y-52705000D03*
X40640000Y-55245000D03*
X40640000Y-57785000D03*
X40640000Y-60325000D03*
X40640000Y-62865000D03*
%TD*%
%LPD*%
M02*
