M48
; DRILL file {KiCad 8.0.5} date 2024-11-20T10:52:19+0530
; FORMAT={-:-/ absolute / inch / decimal}
; #@! TF.CreationDate,2024-11-20T10:52:19+05:30
; #@! TF.GenerationSoftware,Kicad,Pcbnew,8.0.5
; #@! TF.FileFunction,Plated,1,2,PTH
FMAT,2
INCH
; #@! TA.AperFunction,Plated,PTH,ViaDrill
T1C0.0118
; #@! TA.AperFunction,Plated,PTH,ComponentDrill
T2C0.0394
%
G90
G05
T1
X1.6523Y-2.025
X1.7107Y-2.0285
X1.7279Y-1.735
X1.8079Y-1.8326
X1.8413Y-1.812
X1.8473Y-2.1
X1.8523Y-1.8523
X1.8669Y-1.8803
X1.8736Y-2.0827
X1.8823Y-2.042
X1.8945Y-2.1453
X1.9416Y-2.016
T2
X1.6Y-1.575
X1.6Y-1.675
X1.6Y-1.775
X1.6Y-1.875
X1.6Y-1.975
X1.6Y-2.075
X1.6Y-2.175
X1.6Y-2.275
X1.6Y-2.375
X1.6Y-2.475
X2.0Y-1.575
X2.0Y-1.675
X2.0Y-1.775
X2.0Y-1.875
X2.0Y-1.975
X2.0Y-2.075
X2.0Y-2.175
X2.0Y-2.275
X2.0Y-2.375
X2.0Y-2.475
M30
