%TF.GenerationSoftware,KiCad,Pcbnew,8.0.5*%
%TF.CreationDate,2024-11-20T10:52:19+05:30*%
%TF.ProjectId,MCUs,4d435573-2e6b-4696-9361-645f70636258,rev?*%
%TF.SameCoordinates,Original*%
%TF.FileFunction,Copper,L1,Top*%
%TF.FilePolarity,Positive*%
%FSLAX46Y46*%
G04 Gerber Fmt 4.6, Leading zero omitted, Abs format (unit mm)*
G04 Created by KiCad (PCBNEW 8.0.5) date 2024-11-20 10:52:19*
%MOMM*%
%LPD*%
G01*
G04 APERTURE LIST*
G04 Aperture macros list*
%AMRoundRect*
0 Rectangle with rounded corners*
0 $1 Rounding radius*
0 $2 $3 $4 $5 $6 $7 $8 $9 X,Y pos of 4 corners*
0 Add a 4 corners polygon primitive as box body*
4,1,4,$2,$3,$4,$5,$6,$7,$8,$9,$2,$3,0*
0 Add four circle primitives for the rounded corners*
1,1,$1+$1,$2,$3*
1,1,$1+$1,$4,$5*
1,1,$1+$1,$6,$7*
1,1,$1+$1,$8,$9*
0 Add four rect primitives between the rounded corners*
20,1,$1+$1,$2,$3,$4,$5,0*
20,1,$1+$1,$4,$5,$6,$7,0*
20,1,$1+$1,$6,$7,$8,$9,0*
20,1,$1+$1,$8,$9,$2,$3,0*%
%AMFreePoly0*
4,1,14,0.334644,0.085355,0.385355,0.034644,0.400000,-0.000711,0.400000,-0.050000,0.385355,-0.085355,0.350000,-0.100000,-0.350000,-0.100000,-0.385355,-0.085355,-0.400000,-0.050000,-0.400000,0.050000,-0.385355,0.085355,-0.350000,0.100000,0.299289,0.100000,0.334644,0.085355,0.334644,0.085355,$1*%
%AMFreePoly1*
4,1,14,0.385355,0.085355,0.400000,0.050000,0.400000,0.000711,0.385355,-0.034644,0.334644,-0.085355,0.299289,-0.100000,-0.350000,-0.100000,-0.385355,-0.085355,-0.400000,-0.050000,-0.400000,0.050000,-0.385355,0.085355,-0.350000,0.100000,0.350000,0.100000,0.385355,0.085355,0.385355,0.085355,$1*%
%AMFreePoly2*
4,1,14,0.085355,0.385355,0.100000,0.350000,0.100000,-0.350000,0.085355,-0.385355,0.050000,-0.400000,-0.050000,-0.400000,-0.085355,-0.385355,-0.100000,-0.350000,-0.100000,0.299289,-0.085355,0.334644,-0.034644,0.385355,0.000711,0.400000,0.050000,0.400000,0.085355,0.385355,0.085355,0.385355,$1*%
%AMFreePoly3*
4,1,14,0.034644,0.385355,0.085355,0.334644,0.100000,0.299289,0.100000,-0.350000,0.085355,-0.385355,0.050000,-0.400000,-0.050000,-0.400000,-0.085355,-0.385355,-0.100000,-0.350000,-0.100000,0.350000,-0.085355,0.385355,-0.050000,0.400000,-0.000711,0.400000,0.034644,0.385355,0.034644,0.385355,$1*%
%AMFreePoly4*
4,1,14,0.385355,0.085355,0.400000,0.050000,0.400000,-0.050000,0.385355,-0.085355,0.350000,-0.100000,-0.299289,-0.100000,-0.334644,-0.085355,-0.385355,-0.034644,-0.400000,0.000711,-0.400000,0.050000,-0.385355,0.085355,-0.350000,0.100000,0.350000,0.100000,0.385355,0.085355,0.385355,0.085355,$1*%
%AMFreePoly5*
4,1,14,0.385355,0.085355,0.400000,0.050000,0.400000,-0.050000,0.385355,-0.085355,0.350000,-0.100000,-0.350000,-0.100000,-0.385355,-0.085355,-0.400000,-0.050000,-0.400000,-0.000711,-0.385355,0.034644,-0.334644,0.085355,-0.299289,0.100000,0.350000,0.100000,0.385355,0.085355,0.385355,0.085355,$1*%
%AMFreePoly6*
4,1,14,0.085355,0.385355,0.100000,0.350000,0.100000,-0.299289,0.085355,-0.334644,0.034644,-0.385355,-0.000711,-0.400000,-0.050000,-0.400000,-0.085355,-0.385355,-0.100000,-0.350000,-0.100000,0.350000,-0.085355,0.385355,-0.050000,0.400000,0.050000,0.400000,0.085355,0.385355,0.085355,0.385355,$1*%
%AMFreePoly7*
4,1,14,0.085355,0.385355,0.100000,0.350000,0.100000,-0.350000,0.085355,-0.385355,0.050000,-0.400000,0.000711,-0.400000,-0.034644,-0.385355,-0.085355,-0.334644,-0.100000,-0.299289,-0.100000,0.350000,-0.085355,0.385355,-0.050000,0.400000,0.050000,0.400000,0.085355,0.385355,0.085355,0.385355,$1*%
G04 Aperture macros list end*
%TA.AperFunction,SMDPad,CuDef*%
%ADD10FreePoly0,0.000000*%
%TD*%
%TA.AperFunction,SMDPad,CuDef*%
%ADD11RoundRect,0.050000X-0.350000X-0.050000X0.350000X-0.050000X0.350000X0.050000X-0.350000X0.050000X0*%
%TD*%
%TA.AperFunction,SMDPad,CuDef*%
%ADD12FreePoly1,0.000000*%
%TD*%
%TA.AperFunction,SMDPad,CuDef*%
%ADD13FreePoly2,0.000000*%
%TD*%
%TA.AperFunction,SMDPad,CuDef*%
%ADD14RoundRect,0.050000X-0.050000X-0.350000X0.050000X-0.350000X0.050000X0.350000X-0.050000X0.350000X0*%
%TD*%
%TA.AperFunction,SMDPad,CuDef*%
%ADD15FreePoly3,0.000000*%
%TD*%
%TA.AperFunction,SMDPad,CuDef*%
%ADD16FreePoly4,0.000000*%
%TD*%
%TA.AperFunction,SMDPad,CuDef*%
%ADD17FreePoly5,0.000000*%
%TD*%
%TA.AperFunction,SMDPad,CuDef*%
%ADD18FreePoly6,0.000000*%
%TD*%
%TA.AperFunction,SMDPad,CuDef*%
%ADD19FreePoly7,0.000000*%
%TD*%
%TA.AperFunction,HeatsinkPad*%
%ADD20R,1.700000X1.700000*%
%TD*%
%TA.AperFunction,ComponentPad*%
%ADD21R,1.700000X1.700000*%
%TD*%
%TA.AperFunction,ComponentPad*%
%ADD22O,1.700000X1.700000*%
%TD*%
%TA.AperFunction,ViaPad*%
%ADD23C,0.600000*%
%TD*%
%TA.AperFunction,Conductor*%
%ADD24C,0.150000*%
%TD*%
G04 APERTURE END LIST*
D10*
%TO.P,U1,1,PA2*%
%TO.N,Net-(J1-Pin_4)*%
X44270000Y-49409000D03*
D11*
%TO.P,U1,2,PA3*%
%TO.N,Net-(J1-Pin_5)*%
X44270000Y-49809000D03*
%TO.P,U1,3,GND*%
%TO.N,GND*%
X44270000Y-50209000D03*
%TO.P,U1,4,VCC*%
%TO.N,VCC*%
X44270000Y-50609000D03*
D12*
%TO.P,U1,5,PA4*%
%TO.N,Net-(J1-Pin_6)*%
X44270000Y-51009000D03*
D13*
%TO.P,U1,6,PA5*%
%TO.N,Net-(J1-Pin_7)*%
X44920000Y-51659000D03*
D14*
%TO.P,U1,7,PA6*%
%TO.N,Net-(J1-Pin_8)*%
X45320000Y-51659000D03*
%TO.P,U1,8,PA7*%
%TO.N,Net-(J1-Pin_9)*%
X45720000Y-51659000D03*
%TO.P,U1,9,PB5*%
%TO.N,Net-(J2-Pin_6)*%
X46120000Y-51659000D03*
D15*
%TO.P,U1,10,PB4*%
%TO.N,Net-(J2-Pin_5)*%
X46520000Y-51659000D03*
D16*
%TO.P,U1,11,PB3*%
%TO.N,Net-(J2-Pin_4)*%
X47170000Y-51009000D03*
D11*
%TO.P,U1,12,PB2*%
%TO.N,Net-(J2-Pin_3)*%
X47170000Y-50609000D03*
%TO.P,U1,13,PB1*%
%TO.N,Net-(J2-Pin_2)*%
X47170000Y-50209000D03*
%TO.P,U1,14,PB0*%
%TO.N,Net-(J1-Pin_10)*%
X47170000Y-49809000D03*
D17*
%TO.P,U1,15,PC0*%
%TO.N,PC0*%
X47170000Y-49409000D03*
D18*
%TO.P,U1,16,PC1*%
%TO.N,PC1*%
X46520000Y-48759000D03*
D14*
%TO.P,U1,17,PC2*%
%TO.N,PC2*%
X46120000Y-48759000D03*
%TO.P,U1,18,PC3*%
%TO.N,PC3*%
X45720000Y-48759000D03*
%TO.P,U1,19,~{RESET}/PA0*%
%TO.N,Net-(J1-Pin_2)*%
X45320000Y-48759000D03*
D19*
%TO.P,U1,20,PA1*%
%TO.N,Net-(J1-Pin_3)*%
X44920000Y-48759000D03*
D20*
%TO.P,U1,21,GND*%
%TO.N,GND*%
X45720000Y-50209000D03*
%TD*%
D21*
%TO.P,J2,1,Pin_1*%
%TO.N,VCC*%
X50800000Y-40005000D03*
D22*
%TO.P,J2,2,Pin_2*%
%TO.N,Net-(J2-Pin_2)*%
X50800000Y-42545000D03*
%TO.P,J2,3,Pin_3*%
%TO.N,Net-(J2-Pin_3)*%
X50800000Y-45085000D03*
%TO.P,J2,4,Pin_4*%
%TO.N,Net-(J2-Pin_4)*%
X50800000Y-47625000D03*
%TO.P,J2,5,Pin_5*%
%TO.N,Net-(J2-Pin_5)*%
X50800000Y-50165000D03*
%TO.P,J2,6,Pin_6*%
%TO.N,Net-(J2-Pin_6)*%
X50800000Y-52705000D03*
%TO.P,J2,7,Pin_7*%
%TO.N,PC0*%
X50800000Y-55245000D03*
%TO.P,J2,8,Pin_8*%
%TO.N,PC1*%
X50800000Y-57785000D03*
%TO.P,J2,9,Pin_9*%
%TO.N,PC2*%
X50800000Y-60325000D03*
%TO.P,J2,10,Pin_10*%
%TO.N,PC3*%
X50800000Y-62865000D03*
%TD*%
D21*
%TO.P,J1,1,Pin_1*%
%TO.N,GND*%
X40640000Y-40005000D03*
D22*
%TO.P,J1,2,Pin_2*%
%TO.N,Net-(J1-Pin_2)*%
X40640000Y-42545000D03*
%TO.P,J1,3,Pin_3*%
%TO.N,Net-(J1-Pin_3)*%
X40640000Y-45085000D03*
%TO.P,J1,4,Pin_4*%
%TO.N,Net-(J1-Pin_4)*%
X40640000Y-47625000D03*
%TO.P,J1,5,Pin_5*%
%TO.N,Net-(J1-Pin_5)*%
X40640000Y-50165000D03*
%TO.P,J1,6,Pin_6*%
%TO.N,Net-(J1-Pin_6)*%
X40640000Y-52705000D03*
%TO.P,J1,7,Pin_7*%
%TO.N,Net-(J1-Pin_7)*%
X40640000Y-55245000D03*
%TO.P,J1,8,Pin_8*%
%TO.N,Net-(J1-Pin_8)*%
X40640000Y-57785000D03*
%TO.P,J1,9,Pin_9*%
%TO.N,Net-(J1-Pin_9)*%
X40640000Y-60325000D03*
%TO.P,J1,10,Pin_10*%
%TO.N,Net-(J1-Pin_10)*%
X40640000Y-62865000D03*
%TD*%
D23*
%TO.N,Net-(J1-Pin_10)*%
X43888800Y-44069000D03*
%TO.N,PC0*%
X47420064Y-47759863D03*
%TO.N,Net-(J2-Pin_4)*%
X47809226Y-51866426D03*
%TO.N,PC1*%
X47047488Y-47047860D03*
%TO.N,PC2*%
X46768200Y-46024800D03*
%TO.N,PC3*%
X45920000Y-46549001D03*
%TO.N,Net-(J2-Pin_5)*%
X49317000Y-51206400D03*
X47588769Y-52900057D03*
%TO.N,Net-(J2-Pin_6)*%
X46920600Y-53340000D03*
X48120774Y-54489374D03*
%TO.N,VCC*%
X43452387Y-51522787D03*
%TO.N,GND*%
X41967600Y-51435000D03*
%TD*%
D24*
%TO.N,Net-(J2-Pin_2)*%
X49867000Y-42545000D02*
X50800000Y-42545000D01*
%TO.N,Net-(J2-Pin_3)*%
X49867000Y-45085000D02*
X50800000Y-45085000D01*
%TO.N,Net-(J2-Pin_5)*%
X49867000Y-50165000D02*
X50800000Y-50165000D01*
%TO.N,Net-(J2-Pin_6)*%
X49867000Y-52705000D02*
X50800000Y-52705000D01*
%TO.N,Net-(J1-Pin_8)*%
X41457000Y-57785000D02*
X40640000Y-57785000D01*
%TO.N,Net-(J1-Pin_7)*%
X44920000Y-51659000D02*
X44920000Y-51782000D01*
X44920000Y-51782000D02*
X41457000Y-55245000D01*
X41457000Y-55245000D02*
X40640000Y-55245000D01*
%TO.N,Net-(J1-Pin_6)*%
X44270000Y-51009000D02*
X44270000Y-51518347D01*
X44270000Y-51518347D02*
X43083347Y-52705000D01*
X43083347Y-52705000D02*
X40640000Y-52705000D01*
%TO.N,Net-(J1-Pin_4)*%
X44270000Y-49409000D02*
X43241000Y-49409000D01*
X43241000Y-49409000D02*
X41457000Y-47625000D01*
X41457000Y-47625000D02*
X40640000Y-47625000D01*
%TO.N,Net-(J1-Pin_2)*%
X45320000Y-48759000D02*
X45345000Y-48734000D01*
X45345000Y-48734000D02*
X45345000Y-46433000D01*
X41457000Y-42545000D02*
X40640000Y-42545000D01*
X45345000Y-46433000D02*
X41457000Y-42545000D01*
%TO.N,GND*%
X43193600Y-50209000D02*
X44270000Y-50209000D01*
X41967600Y-51435000D02*
X43193600Y-50209000D01*
%TO.N,Net-(J1-Pin_10)*%
X48038200Y-49414024D02*
X48038200Y-44043600D01*
X47643224Y-49809000D02*
X48038200Y-49414024D01*
X48038200Y-44043600D02*
X43914200Y-44043600D01*
X47170000Y-49809000D02*
X47643224Y-49809000D01*
X43914200Y-44043600D02*
X43888800Y-44069000D01*
%TO.N,VCC*%
X43796776Y-50609000D02*
X44270000Y-50609000D01*
X43452387Y-51522787D02*
X43452387Y-50953389D01*
X43452387Y-50953389D02*
X43796776Y-50609000D01*
%TO.N,PC1*%
X47047488Y-47047860D02*
X46520000Y-47575348D01*
X46520000Y-47575348D02*
X46520000Y-48759000D01*
%TO.N,PC0*%
X47420064Y-47759863D02*
X47420064Y-49158936D01*
X47420064Y-49158936D02*
X47170000Y-49409000D01*
%TO.N,PC2*%
X46768200Y-46024800D02*
X46768200Y-46513974D01*
X46768200Y-46513974D02*
X46120000Y-47162174D01*
X46120000Y-47162174D02*
X46120000Y-48759000D01*
%TO.N,PC3*%
X45920000Y-46549001D02*
X45720000Y-46749001D01*
X45720000Y-46749001D02*
X45720000Y-48759000D01*
%TO.N,Net-(J2-Pin_2)*%
X47170000Y-50209000D02*
X48261226Y-50209000D01*
X48392000Y-44020000D02*
X49867000Y-42545000D01*
X48261226Y-50209000D02*
X48392000Y-50078226D01*
X48392000Y-50078226D02*
X48392000Y-44020000D01*
%TO.N,Net-(J2-Pin_3)*%
X47170000Y-50609000D02*
X48356200Y-50609000D01*
X48742000Y-50223200D02*
X48742000Y-46210000D01*
X48356200Y-50609000D02*
X48742000Y-50223200D01*
X48742000Y-46210000D02*
X49867000Y-45085000D01*
%TO.N,Net-(J2-Pin_4)*%
X47170000Y-51227200D02*
X47809226Y-51866426D01*
X47170000Y-51009000D02*
X47170000Y-51227200D01*
%TO.N,Net-(J2-Pin_5)*%
X47588769Y-52900057D02*
X47588769Y-52727769D01*
X47588769Y-52727769D02*
X46520000Y-51659000D01*
X49317000Y-51206400D02*
X49317000Y-50715000D01*
X49317000Y-50715000D02*
X49867000Y-50165000D01*
%TO.N,Net-(J2-Pin_6)*%
X48120774Y-54489374D02*
X48120774Y-54451226D01*
X48120774Y-54451226D02*
X49867000Y-52705000D01*
X46120000Y-51659000D02*
X46120000Y-52603225D01*
X46856775Y-53340000D02*
X46920600Y-53340000D01*
X46120000Y-52603225D02*
X46856775Y-53340000D01*
%TO.N,GND*%
X44270000Y-50209000D02*
X45720000Y-50209000D01*
%TO.N,Net-(J1-Pin_3)*%
X44920000Y-48548000D02*
X44920000Y-48759000D01*
%TO.N,Net-(J1-Pin_9)*%
X41457000Y-60325000D02*
X45853800Y-55928200D01*
X45853800Y-52832000D02*
X45720000Y-52698200D01*
X45853800Y-55928200D02*
X45853800Y-52832000D01*
X45720000Y-52698200D02*
X45720000Y-51659000D01*
%TO.N,Net-(J1-Pin_8)*%
X41457000Y-57785000D02*
X45320000Y-53922000D01*
X45320000Y-53922000D02*
X45320000Y-51659000D01*
%TO.N,Net-(J1-Pin_5)*%
X41828000Y-49794000D02*
X44142000Y-49794000D01*
X41457000Y-50165000D02*
X41828000Y-49794000D01*
%TO.N,Net-(J1-Pin_3)*%
X41457000Y-45085000D02*
X44920000Y-48548000D01*
%TD*%
M02*
