%TF.GenerationSoftware,KiCad,Pcbnew,8.0.5*%
%TF.CreationDate,2024-11-20T10:52:19+05:30*%
%TF.ProjectId,MCUs,4d435573-2e6b-4696-9361-645f70636258,rev?*%
%TF.SameCoordinates,Original*%
%TF.FileFunction,Legend,Top*%
%TF.FilePolarity,Positive*%
%FSLAX46Y46*%
G04 Gerber Fmt 4.6, Leading zero omitted, Abs format (unit mm)*
G04 Created by KiCad (PCBNEW 8.0.5) date 2024-11-20 10:52:19*
%MOMM*%
%LPD*%
G01*
G04 APERTURE LIST*
G04 Aperture macros list*
%AMRoundRect*
0 Rectangle with rounded corners*
0 $1 Rounding radius*
0 $2 $3 $4 $5 $6 $7 $8 $9 X,Y pos of 4 corners*
0 Add a 4 corners polygon primitive as box body*
4,1,4,$2,$3,$4,$5,$6,$7,$8,$9,$2,$3,0*
0 Add four circle primitives for the rounded corners*
1,1,$1+$1,$2,$3*
1,1,$1+$1,$4,$5*
1,1,$1+$1,$6,$7*
1,1,$1+$1,$8,$9*
0 Add four rect primitives between the rounded corners*
20,1,$1+$1,$2,$3,$4,$5,0*
20,1,$1+$1,$4,$5,$6,$7,0*
20,1,$1+$1,$6,$7,$8,$9,0*
20,1,$1+$1,$8,$9,$2,$3,0*%
%AMFreePoly0*
4,1,14,0.334644,0.085355,0.385355,0.034644,0.400000,-0.000711,0.400000,-0.050000,0.385355,-0.085355,0.350000,-0.100000,-0.350000,-0.100000,-0.385355,-0.085355,-0.400000,-0.050000,-0.400000,0.050000,-0.385355,0.085355,-0.350000,0.100000,0.299289,0.100000,0.334644,0.085355,0.334644,0.085355,$1*%
%AMFreePoly1*
4,1,14,0.385355,0.085355,0.400000,0.050000,0.400000,0.000711,0.385355,-0.034644,0.334644,-0.085355,0.299289,-0.100000,-0.350000,-0.100000,-0.385355,-0.085355,-0.400000,-0.050000,-0.400000,0.050000,-0.385355,0.085355,-0.350000,0.100000,0.350000,0.100000,0.385355,0.085355,0.385355,0.085355,$1*%
%AMFreePoly2*
4,1,14,0.085355,0.385355,0.100000,0.350000,0.100000,-0.350000,0.085355,-0.385355,0.050000,-0.400000,-0.050000,-0.400000,-0.085355,-0.385355,-0.100000,-0.350000,-0.100000,0.299289,-0.085355,0.334644,-0.034644,0.385355,0.000711,0.400000,0.050000,0.400000,0.085355,0.385355,0.085355,0.385355,$1*%
%AMFreePoly3*
4,1,14,0.034644,0.385355,0.085355,0.334644,0.100000,0.299289,0.100000,-0.350000,0.085355,-0.385355,0.050000,-0.400000,-0.050000,-0.400000,-0.085355,-0.385355,-0.100000,-0.350000,-0.100000,0.350000,-0.085355,0.385355,-0.050000,0.400000,-0.000711,0.400000,0.034644,0.385355,0.034644,0.385355,$1*%
%AMFreePoly4*
4,1,14,0.385355,0.085355,0.400000,0.050000,0.400000,-0.050000,0.385355,-0.085355,0.350000,-0.100000,-0.299289,-0.100000,-0.334644,-0.085355,-0.385355,-0.034644,-0.400000,0.000711,-0.400000,0.050000,-0.385355,0.085355,-0.350000,0.100000,0.350000,0.100000,0.385355,0.085355,0.385355,0.085355,$1*%
%AMFreePoly5*
4,1,14,0.385355,0.085355,0.400000,0.050000,0.400000,-0.050000,0.385355,-0.085355,0.350000,-0.100000,-0.350000,-0.100000,-0.385355,-0.085355,-0.400000,-0.050000,-0.400000,-0.000711,-0.385355,0.034644,-0.334644,0.085355,-0.299289,0.100000,0.350000,0.100000,0.385355,0.085355,0.385355,0.085355,$1*%
%AMFreePoly6*
4,1,14,0.085355,0.385355,0.100000,0.350000,0.100000,-0.299289,0.085355,-0.334644,0.034644,-0.385355,-0.000711,-0.400000,-0.050000,-0.400000,-0.085355,-0.385355,-0.100000,-0.350000,-0.100000,0.350000,-0.085355,0.385355,-0.050000,0.400000,0.050000,0.400000,0.085355,0.385355,0.085355,0.385355,$1*%
%AMFreePoly7*
4,1,14,0.085355,0.385355,0.100000,0.350000,0.100000,-0.350000,0.085355,-0.385355,0.050000,-0.400000,0.000711,-0.400000,-0.034644,-0.385355,-0.085355,-0.334644,-0.100000,-0.299289,-0.100000,0.350000,-0.085355,0.385355,-0.050000,0.400000,0.050000,0.400000,0.085355,0.385355,0.085355,0.385355,$1*%
G04 Aperture macros list end*
%ADD10C,0.200000*%
%ADD11C,0.100000*%
%ADD12C,0.120000*%
%ADD13FreePoly0,0.000000*%
%ADD14RoundRect,0.050000X-0.350000X-0.050000X0.350000X-0.050000X0.350000X0.050000X-0.350000X0.050000X0*%
%ADD15FreePoly1,0.000000*%
%ADD16FreePoly2,0.000000*%
%ADD17RoundRect,0.050000X-0.050000X-0.350000X0.050000X-0.350000X0.050000X0.350000X-0.050000X0.350000X0*%
%ADD18FreePoly3,0.000000*%
%ADD19FreePoly4,0.000000*%
%ADD20FreePoly5,0.000000*%
%ADD21FreePoly6,0.000000*%
%ADD22FreePoly7,0.000000*%
%ADD23R,1.700000X1.700000*%
%ADD24O,1.700000X1.700000*%
G04 APERTURE END LIST*
D10*
X45326542Y-40422292D02*
X45326542Y-41136578D01*
X44897971Y-40279435D02*
X46397971Y-40779435D01*
X46397971Y-40779435D02*
X44897971Y-41279435D01*
X46397971Y-41565149D02*
X46397971Y-42422292D01*
X44897971Y-41993720D02*
X46397971Y-41993720D01*
X46397971Y-42708006D02*
X46397971Y-43565149D01*
X44897971Y-43136577D02*
X46397971Y-43136577D01*
X44897971Y-44065148D02*
X46397971Y-44065148D01*
X44897971Y-44779434D02*
X46397971Y-44779434D01*
X46397971Y-44779434D02*
X44897971Y-45636577D01*
X44897971Y-45636577D02*
X46397971Y-45636577D01*
X45612257Y-46636578D02*
X44897971Y-46636578D01*
X46397971Y-46136578D02*
X45612257Y-46636578D01*
X45612257Y-46636578D02*
X46397971Y-47136578D01*
X45024971Y-58297435D02*
X45024971Y-57440292D01*
X45024971Y-57868863D02*
X46524971Y-57868863D01*
X46524971Y-57868863D02*
X46310685Y-57726006D01*
X46310685Y-57726006D02*
X46167828Y-57583149D01*
X46167828Y-57583149D02*
X46096400Y-57440292D01*
X46524971Y-59583149D02*
X46524971Y-59297434D01*
X46524971Y-59297434D02*
X46453542Y-59154577D01*
X46453542Y-59154577D02*
X46382114Y-59083149D01*
X46382114Y-59083149D02*
X46167828Y-58940291D01*
X46167828Y-58940291D02*
X45882114Y-58868863D01*
X45882114Y-58868863D02*
X45310685Y-58868863D01*
X45310685Y-58868863D02*
X45167828Y-58940291D01*
X45167828Y-58940291D02*
X45096400Y-59011720D01*
X45096400Y-59011720D02*
X45024971Y-59154577D01*
X45024971Y-59154577D02*
X45024971Y-59440291D01*
X45024971Y-59440291D02*
X45096400Y-59583149D01*
X45096400Y-59583149D02*
X45167828Y-59654577D01*
X45167828Y-59654577D02*
X45310685Y-59726006D01*
X45310685Y-59726006D02*
X45667828Y-59726006D01*
X45667828Y-59726006D02*
X45810685Y-59654577D01*
X45810685Y-59654577D02*
X45882114Y-59583149D01*
X45882114Y-59583149D02*
X45953542Y-59440291D01*
X45953542Y-59440291D02*
X45953542Y-59154577D01*
X45953542Y-59154577D02*
X45882114Y-59011720D01*
X45882114Y-59011720D02*
X45810685Y-58940291D01*
X45810685Y-58940291D02*
X45667828Y-58868863D01*
X45024971Y-61154577D02*
X45024971Y-60297434D01*
X45024971Y-60726005D02*
X46524971Y-60726005D01*
X46524971Y-60726005D02*
X46310685Y-60583148D01*
X46310685Y-60583148D02*
X46167828Y-60440291D01*
X46167828Y-60440291D02*
X46096400Y-60297434D01*
X46524971Y-62440291D02*
X46524971Y-62154576D01*
X46524971Y-62154576D02*
X46453542Y-62011719D01*
X46453542Y-62011719D02*
X46382114Y-61940291D01*
X46382114Y-61940291D02*
X46167828Y-61797433D01*
X46167828Y-61797433D02*
X45882114Y-61726005D01*
X45882114Y-61726005D02*
X45310685Y-61726005D01*
X45310685Y-61726005D02*
X45167828Y-61797433D01*
X45167828Y-61797433D02*
X45096400Y-61868862D01*
X45096400Y-61868862D02*
X45024971Y-62011719D01*
X45024971Y-62011719D02*
X45024971Y-62297433D01*
X45024971Y-62297433D02*
X45096400Y-62440291D01*
X45096400Y-62440291D02*
X45167828Y-62511719D01*
X45167828Y-62511719D02*
X45310685Y-62583148D01*
X45310685Y-62583148D02*
X45667828Y-62583148D01*
X45667828Y-62583148D02*
X45810685Y-62511719D01*
X45810685Y-62511719D02*
X45882114Y-62440291D01*
X45882114Y-62440291D02*
X45953542Y-62297433D01*
X45953542Y-62297433D02*
X45953542Y-62011719D01*
X45953542Y-62011719D02*
X45882114Y-61868862D01*
X45882114Y-61868862D02*
X45810685Y-61797433D01*
X45810685Y-61797433D02*
X45667828Y-61726005D01*
D11*
X47292782Y-63269895D02*
X47292782Y-62469895D01*
X47292782Y-62469895D02*
X47597544Y-62469895D01*
X47597544Y-62469895D02*
X47673734Y-62507990D01*
X47673734Y-62507990D02*
X47711829Y-62546085D01*
X47711829Y-62546085D02*
X47749925Y-62622276D01*
X47749925Y-62622276D02*
X47749925Y-62736561D01*
X47749925Y-62736561D02*
X47711829Y-62812752D01*
X47711829Y-62812752D02*
X47673734Y-62850847D01*
X47673734Y-62850847D02*
X47597544Y-62888942D01*
X47597544Y-62888942D02*
X47292782Y-62888942D01*
X48549925Y-63193704D02*
X48511829Y-63231800D01*
X48511829Y-63231800D02*
X48397544Y-63269895D01*
X48397544Y-63269895D02*
X48321353Y-63269895D01*
X48321353Y-63269895D02*
X48207067Y-63231800D01*
X48207067Y-63231800D02*
X48130877Y-63155609D01*
X48130877Y-63155609D02*
X48092782Y-63079419D01*
X48092782Y-63079419D02*
X48054686Y-62927038D01*
X48054686Y-62927038D02*
X48054686Y-62812752D01*
X48054686Y-62812752D02*
X48092782Y-62660371D01*
X48092782Y-62660371D02*
X48130877Y-62584180D01*
X48130877Y-62584180D02*
X48207067Y-62507990D01*
X48207067Y-62507990D02*
X48321353Y-62469895D01*
X48321353Y-62469895D02*
X48397544Y-62469895D01*
X48397544Y-62469895D02*
X48511829Y-62507990D01*
X48511829Y-62507990D02*
X48549925Y-62546085D01*
X48816591Y-62469895D02*
X49311829Y-62469895D01*
X49311829Y-62469895D02*
X49045163Y-62774657D01*
X49045163Y-62774657D02*
X49159448Y-62774657D01*
X49159448Y-62774657D02*
X49235639Y-62812752D01*
X49235639Y-62812752D02*
X49273734Y-62850847D01*
X49273734Y-62850847D02*
X49311829Y-62927038D01*
X49311829Y-62927038D02*
X49311829Y-63117514D01*
X49311829Y-63117514D02*
X49273734Y-63193704D01*
X49273734Y-63193704D02*
X49235639Y-63231800D01*
X49235639Y-63231800D02*
X49159448Y-63269895D01*
X49159448Y-63269895D02*
X48930877Y-63269895D01*
X48930877Y-63269895D02*
X48854686Y-63231800D01*
X48854686Y-63231800D02*
X48816591Y-63193704D01*
X47292782Y-60729895D02*
X47292782Y-59929895D01*
X47292782Y-59929895D02*
X47597544Y-59929895D01*
X47597544Y-59929895D02*
X47673734Y-59967990D01*
X47673734Y-59967990D02*
X47711829Y-60006085D01*
X47711829Y-60006085D02*
X47749925Y-60082276D01*
X47749925Y-60082276D02*
X47749925Y-60196561D01*
X47749925Y-60196561D02*
X47711829Y-60272752D01*
X47711829Y-60272752D02*
X47673734Y-60310847D01*
X47673734Y-60310847D02*
X47597544Y-60348942D01*
X47597544Y-60348942D02*
X47292782Y-60348942D01*
X48549925Y-60653704D02*
X48511829Y-60691800D01*
X48511829Y-60691800D02*
X48397544Y-60729895D01*
X48397544Y-60729895D02*
X48321353Y-60729895D01*
X48321353Y-60729895D02*
X48207067Y-60691800D01*
X48207067Y-60691800D02*
X48130877Y-60615609D01*
X48130877Y-60615609D02*
X48092782Y-60539419D01*
X48092782Y-60539419D02*
X48054686Y-60387038D01*
X48054686Y-60387038D02*
X48054686Y-60272752D01*
X48054686Y-60272752D02*
X48092782Y-60120371D01*
X48092782Y-60120371D02*
X48130877Y-60044180D01*
X48130877Y-60044180D02*
X48207067Y-59967990D01*
X48207067Y-59967990D02*
X48321353Y-59929895D01*
X48321353Y-59929895D02*
X48397544Y-59929895D01*
X48397544Y-59929895D02*
X48511829Y-59967990D01*
X48511829Y-59967990D02*
X48549925Y-60006085D01*
X48854686Y-60006085D02*
X48892782Y-59967990D01*
X48892782Y-59967990D02*
X48968972Y-59929895D01*
X48968972Y-59929895D02*
X49159448Y-59929895D01*
X49159448Y-59929895D02*
X49235639Y-59967990D01*
X49235639Y-59967990D02*
X49273734Y-60006085D01*
X49273734Y-60006085D02*
X49311829Y-60082276D01*
X49311829Y-60082276D02*
X49311829Y-60158466D01*
X49311829Y-60158466D02*
X49273734Y-60272752D01*
X49273734Y-60272752D02*
X48816591Y-60729895D01*
X48816591Y-60729895D02*
X49311829Y-60729895D01*
X47292782Y-58062895D02*
X47292782Y-57262895D01*
X47292782Y-57262895D02*
X47597544Y-57262895D01*
X47597544Y-57262895D02*
X47673734Y-57300990D01*
X47673734Y-57300990D02*
X47711829Y-57339085D01*
X47711829Y-57339085D02*
X47749925Y-57415276D01*
X47749925Y-57415276D02*
X47749925Y-57529561D01*
X47749925Y-57529561D02*
X47711829Y-57605752D01*
X47711829Y-57605752D02*
X47673734Y-57643847D01*
X47673734Y-57643847D02*
X47597544Y-57681942D01*
X47597544Y-57681942D02*
X47292782Y-57681942D01*
X48549925Y-57986704D02*
X48511829Y-58024800D01*
X48511829Y-58024800D02*
X48397544Y-58062895D01*
X48397544Y-58062895D02*
X48321353Y-58062895D01*
X48321353Y-58062895D02*
X48207067Y-58024800D01*
X48207067Y-58024800D02*
X48130877Y-57948609D01*
X48130877Y-57948609D02*
X48092782Y-57872419D01*
X48092782Y-57872419D02*
X48054686Y-57720038D01*
X48054686Y-57720038D02*
X48054686Y-57605752D01*
X48054686Y-57605752D02*
X48092782Y-57453371D01*
X48092782Y-57453371D02*
X48130877Y-57377180D01*
X48130877Y-57377180D02*
X48207067Y-57300990D01*
X48207067Y-57300990D02*
X48321353Y-57262895D01*
X48321353Y-57262895D02*
X48397544Y-57262895D01*
X48397544Y-57262895D02*
X48511829Y-57300990D01*
X48511829Y-57300990D02*
X48549925Y-57339085D01*
X49311829Y-58062895D02*
X48854686Y-58062895D01*
X49083258Y-58062895D02*
X49083258Y-57262895D01*
X49083258Y-57262895D02*
X49007067Y-57377180D01*
X49007067Y-57377180D02*
X48930877Y-57453371D01*
X48930877Y-57453371D02*
X48854686Y-57491466D01*
X47292782Y-55522895D02*
X47292782Y-54722895D01*
X47292782Y-54722895D02*
X47597544Y-54722895D01*
X47597544Y-54722895D02*
X47673734Y-54760990D01*
X47673734Y-54760990D02*
X47711829Y-54799085D01*
X47711829Y-54799085D02*
X47749925Y-54875276D01*
X47749925Y-54875276D02*
X47749925Y-54989561D01*
X47749925Y-54989561D02*
X47711829Y-55065752D01*
X47711829Y-55065752D02*
X47673734Y-55103847D01*
X47673734Y-55103847D02*
X47597544Y-55141942D01*
X47597544Y-55141942D02*
X47292782Y-55141942D01*
X48549925Y-55446704D02*
X48511829Y-55484800D01*
X48511829Y-55484800D02*
X48397544Y-55522895D01*
X48397544Y-55522895D02*
X48321353Y-55522895D01*
X48321353Y-55522895D02*
X48207067Y-55484800D01*
X48207067Y-55484800D02*
X48130877Y-55408609D01*
X48130877Y-55408609D02*
X48092782Y-55332419D01*
X48092782Y-55332419D02*
X48054686Y-55180038D01*
X48054686Y-55180038D02*
X48054686Y-55065752D01*
X48054686Y-55065752D02*
X48092782Y-54913371D01*
X48092782Y-54913371D02*
X48130877Y-54837180D01*
X48130877Y-54837180D02*
X48207067Y-54760990D01*
X48207067Y-54760990D02*
X48321353Y-54722895D01*
X48321353Y-54722895D02*
X48397544Y-54722895D01*
X48397544Y-54722895D02*
X48511829Y-54760990D01*
X48511829Y-54760990D02*
X48549925Y-54799085D01*
X49045163Y-54722895D02*
X49121353Y-54722895D01*
X49121353Y-54722895D02*
X49197544Y-54760990D01*
X49197544Y-54760990D02*
X49235639Y-54799085D01*
X49235639Y-54799085D02*
X49273734Y-54875276D01*
X49273734Y-54875276D02*
X49311829Y-55027657D01*
X49311829Y-55027657D02*
X49311829Y-55218133D01*
X49311829Y-55218133D02*
X49273734Y-55370514D01*
X49273734Y-55370514D02*
X49235639Y-55446704D01*
X49235639Y-55446704D02*
X49197544Y-55484800D01*
X49197544Y-55484800D02*
X49121353Y-55522895D01*
X49121353Y-55522895D02*
X49045163Y-55522895D01*
X49045163Y-55522895D02*
X48968972Y-55484800D01*
X48968972Y-55484800D02*
X48930877Y-55446704D01*
X48930877Y-55446704D02*
X48892782Y-55370514D01*
X48892782Y-55370514D02*
X48854686Y-55218133D01*
X48854686Y-55218133D02*
X48854686Y-55027657D01*
X48854686Y-55027657D02*
X48892782Y-54875276D01*
X48892782Y-54875276D02*
X48930877Y-54799085D01*
X48930877Y-54799085D02*
X48968972Y-54760990D01*
X48968972Y-54760990D02*
X49045163Y-54722895D01*
X47292782Y-53236895D02*
X47292782Y-52436895D01*
X47292782Y-52436895D02*
X47597544Y-52436895D01*
X47597544Y-52436895D02*
X47673734Y-52474990D01*
X47673734Y-52474990D02*
X47711829Y-52513085D01*
X47711829Y-52513085D02*
X47749925Y-52589276D01*
X47749925Y-52589276D02*
X47749925Y-52703561D01*
X47749925Y-52703561D02*
X47711829Y-52779752D01*
X47711829Y-52779752D02*
X47673734Y-52817847D01*
X47673734Y-52817847D02*
X47597544Y-52855942D01*
X47597544Y-52855942D02*
X47292782Y-52855942D01*
X48359448Y-52817847D02*
X48473734Y-52855942D01*
X48473734Y-52855942D02*
X48511829Y-52894038D01*
X48511829Y-52894038D02*
X48549925Y-52970228D01*
X48549925Y-52970228D02*
X48549925Y-53084514D01*
X48549925Y-53084514D02*
X48511829Y-53160704D01*
X48511829Y-53160704D02*
X48473734Y-53198800D01*
X48473734Y-53198800D02*
X48397544Y-53236895D01*
X48397544Y-53236895D02*
X48092782Y-53236895D01*
X48092782Y-53236895D02*
X48092782Y-52436895D01*
X48092782Y-52436895D02*
X48359448Y-52436895D01*
X48359448Y-52436895D02*
X48435639Y-52474990D01*
X48435639Y-52474990D02*
X48473734Y-52513085D01*
X48473734Y-52513085D02*
X48511829Y-52589276D01*
X48511829Y-52589276D02*
X48511829Y-52665466D01*
X48511829Y-52665466D02*
X48473734Y-52741657D01*
X48473734Y-52741657D02*
X48435639Y-52779752D01*
X48435639Y-52779752D02*
X48359448Y-52817847D01*
X48359448Y-52817847D02*
X48092782Y-52817847D01*
X49273734Y-52436895D02*
X48892782Y-52436895D01*
X48892782Y-52436895D02*
X48854686Y-52817847D01*
X48854686Y-52817847D02*
X48892782Y-52779752D01*
X48892782Y-52779752D02*
X48968972Y-52741657D01*
X48968972Y-52741657D02*
X49159448Y-52741657D01*
X49159448Y-52741657D02*
X49235639Y-52779752D01*
X49235639Y-52779752D02*
X49273734Y-52817847D01*
X49273734Y-52817847D02*
X49311829Y-52894038D01*
X49311829Y-52894038D02*
X49311829Y-53084514D01*
X49311829Y-53084514D02*
X49273734Y-53160704D01*
X49273734Y-53160704D02*
X49235639Y-53198800D01*
X49235639Y-53198800D02*
X49159448Y-53236895D01*
X49159448Y-53236895D02*
X48968972Y-53236895D01*
X48968972Y-53236895D02*
X48892782Y-53198800D01*
X48892782Y-53198800D02*
X48854686Y-53160704D01*
X49172895Y-51259217D02*
X48372895Y-51259217D01*
X48372895Y-51259217D02*
X48372895Y-50954455D01*
X48372895Y-50954455D02*
X48410990Y-50878265D01*
X48410990Y-50878265D02*
X48449085Y-50840170D01*
X48449085Y-50840170D02*
X48525276Y-50802074D01*
X48525276Y-50802074D02*
X48639561Y-50802074D01*
X48639561Y-50802074D02*
X48715752Y-50840170D01*
X48715752Y-50840170D02*
X48753847Y-50878265D01*
X48753847Y-50878265D02*
X48791942Y-50954455D01*
X48791942Y-50954455D02*
X48791942Y-51259217D01*
X48753847Y-50192551D02*
X48791942Y-50078265D01*
X48791942Y-50078265D02*
X48830038Y-50040170D01*
X48830038Y-50040170D02*
X48906228Y-50002074D01*
X48906228Y-50002074D02*
X49020514Y-50002074D01*
X49020514Y-50002074D02*
X49096704Y-50040170D01*
X49096704Y-50040170D02*
X49134800Y-50078265D01*
X49134800Y-50078265D02*
X49172895Y-50154455D01*
X49172895Y-50154455D02*
X49172895Y-50459217D01*
X49172895Y-50459217D02*
X48372895Y-50459217D01*
X48372895Y-50459217D02*
X48372895Y-50192551D01*
X48372895Y-50192551D02*
X48410990Y-50116360D01*
X48410990Y-50116360D02*
X48449085Y-50078265D01*
X48449085Y-50078265D02*
X48525276Y-50040170D01*
X48525276Y-50040170D02*
X48601466Y-50040170D01*
X48601466Y-50040170D02*
X48677657Y-50078265D01*
X48677657Y-50078265D02*
X48715752Y-50116360D01*
X48715752Y-50116360D02*
X48753847Y-50192551D01*
X48753847Y-50192551D02*
X48753847Y-50459217D01*
X48639561Y-49316360D02*
X49172895Y-49316360D01*
X48334800Y-49506836D02*
X48906228Y-49697313D01*
X48906228Y-49697313D02*
X48906228Y-49202074D01*
X47292782Y-48029895D02*
X47292782Y-47229895D01*
X47292782Y-47229895D02*
X47597544Y-47229895D01*
X47597544Y-47229895D02*
X47673734Y-47267990D01*
X47673734Y-47267990D02*
X47711829Y-47306085D01*
X47711829Y-47306085D02*
X47749925Y-47382276D01*
X47749925Y-47382276D02*
X47749925Y-47496561D01*
X47749925Y-47496561D02*
X47711829Y-47572752D01*
X47711829Y-47572752D02*
X47673734Y-47610847D01*
X47673734Y-47610847D02*
X47597544Y-47648942D01*
X47597544Y-47648942D02*
X47292782Y-47648942D01*
X48359448Y-47610847D02*
X48473734Y-47648942D01*
X48473734Y-47648942D02*
X48511829Y-47687038D01*
X48511829Y-47687038D02*
X48549925Y-47763228D01*
X48549925Y-47763228D02*
X48549925Y-47877514D01*
X48549925Y-47877514D02*
X48511829Y-47953704D01*
X48511829Y-47953704D02*
X48473734Y-47991800D01*
X48473734Y-47991800D02*
X48397544Y-48029895D01*
X48397544Y-48029895D02*
X48092782Y-48029895D01*
X48092782Y-48029895D02*
X48092782Y-47229895D01*
X48092782Y-47229895D02*
X48359448Y-47229895D01*
X48359448Y-47229895D02*
X48435639Y-47267990D01*
X48435639Y-47267990D02*
X48473734Y-47306085D01*
X48473734Y-47306085D02*
X48511829Y-47382276D01*
X48511829Y-47382276D02*
X48511829Y-47458466D01*
X48511829Y-47458466D02*
X48473734Y-47534657D01*
X48473734Y-47534657D02*
X48435639Y-47572752D01*
X48435639Y-47572752D02*
X48359448Y-47610847D01*
X48359448Y-47610847D02*
X48092782Y-47610847D01*
X48816591Y-47229895D02*
X49311829Y-47229895D01*
X49311829Y-47229895D02*
X49045163Y-47534657D01*
X49045163Y-47534657D02*
X49159448Y-47534657D01*
X49159448Y-47534657D02*
X49235639Y-47572752D01*
X49235639Y-47572752D02*
X49273734Y-47610847D01*
X49273734Y-47610847D02*
X49311829Y-47687038D01*
X49311829Y-47687038D02*
X49311829Y-47877514D01*
X49311829Y-47877514D02*
X49273734Y-47953704D01*
X49273734Y-47953704D02*
X49235639Y-47991800D01*
X49235639Y-47991800D02*
X49159448Y-48029895D01*
X49159448Y-48029895D02*
X48930877Y-48029895D01*
X48930877Y-48029895D02*
X48854686Y-47991800D01*
X48854686Y-47991800D02*
X48816591Y-47953704D01*
X47292782Y-45489895D02*
X47292782Y-44689895D01*
X47292782Y-44689895D02*
X47597544Y-44689895D01*
X47597544Y-44689895D02*
X47673734Y-44727990D01*
X47673734Y-44727990D02*
X47711829Y-44766085D01*
X47711829Y-44766085D02*
X47749925Y-44842276D01*
X47749925Y-44842276D02*
X47749925Y-44956561D01*
X47749925Y-44956561D02*
X47711829Y-45032752D01*
X47711829Y-45032752D02*
X47673734Y-45070847D01*
X47673734Y-45070847D02*
X47597544Y-45108942D01*
X47597544Y-45108942D02*
X47292782Y-45108942D01*
X48359448Y-45070847D02*
X48473734Y-45108942D01*
X48473734Y-45108942D02*
X48511829Y-45147038D01*
X48511829Y-45147038D02*
X48549925Y-45223228D01*
X48549925Y-45223228D02*
X48549925Y-45337514D01*
X48549925Y-45337514D02*
X48511829Y-45413704D01*
X48511829Y-45413704D02*
X48473734Y-45451800D01*
X48473734Y-45451800D02*
X48397544Y-45489895D01*
X48397544Y-45489895D02*
X48092782Y-45489895D01*
X48092782Y-45489895D02*
X48092782Y-44689895D01*
X48092782Y-44689895D02*
X48359448Y-44689895D01*
X48359448Y-44689895D02*
X48435639Y-44727990D01*
X48435639Y-44727990D02*
X48473734Y-44766085D01*
X48473734Y-44766085D02*
X48511829Y-44842276D01*
X48511829Y-44842276D02*
X48511829Y-44918466D01*
X48511829Y-44918466D02*
X48473734Y-44994657D01*
X48473734Y-44994657D02*
X48435639Y-45032752D01*
X48435639Y-45032752D02*
X48359448Y-45070847D01*
X48359448Y-45070847D02*
X48092782Y-45070847D01*
X48854686Y-44766085D02*
X48892782Y-44727990D01*
X48892782Y-44727990D02*
X48968972Y-44689895D01*
X48968972Y-44689895D02*
X49159448Y-44689895D01*
X49159448Y-44689895D02*
X49235639Y-44727990D01*
X49235639Y-44727990D02*
X49273734Y-44766085D01*
X49273734Y-44766085D02*
X49311829Y-44842276D01*
X49311829Y-44842276D02*
X49311829Y-44918466D01*
X49311829Y-44918466D02*
X49273734Y-45032752D01*
X49273734Y-45032752D02*
X48816591Y-45489895D01*
X48816591Y-45489895D02*
X49311829Y-45489895D01*
X47292782Y-42949895D02*
X47292782Y-42149895D01*
X47292782Y-42149895D02*
X47597544Y-42149895D01*
X47597544Y-42149895D02*
X47673734Y-42187990D01*
X47673734Y-42187990D02*
X47711829Y-42226085D01*
X47711829Y-42226085D02*
X47749925Y-42302276D01*
X47749925Y-42302276D02*
X47749925Y-42416561D01*
X47749925Y-42416561D02*
X47711829Y-42492752D01*
X47711829Y-42492752D02*
X47673734Y-42530847D01*
X47673734Y-42530847D02*
X47597544Y-42568942D01*
X47597544Y-42568942D02*
X47292782Y-42568942D01*
X48359448Y-42530847D02*
X48473734Y-42568942D01*
X48473734Y-42568942D02*
X48511829Y-42607038D01*
X48511829Y-42607038D02*
X48549925Y-42683228D01*
X48549925Y-42683228D02*
X48549925Y-42797514D01*
X48549925Y-42797514D02*
X48511829Y-42873704D01*
X48511829Y-42873704D02*
X48473734Y-42911800D01*
X48473734Y-42911800D02*
X48397544Y-42949895D01*
X48397544Y-42949895D02*
X48092782Y-42949895D01*
X48092782Y-42949895D02*
X48092782Y-42149895D01*
X48092782Y-42149895D02*
X48359448Y-42149895D01*
X48359448Y-42149895D02*
X48435639Y-42187990D01*
X48435639Y-42187990D02*
X48473734Y-42226085D01*
X48473734Y-42226085D02*
X48511829Y-42302276D01*
X48511829Y-42302276D02*
X48511829Y-42378466D01*
X48511829Y-42378466D02*
X48473734Y-42454657D01*
X48473734Y-42454657D02*
X48435639Y-42492752D01*
X48435639Y-42492752D02*
X48359448Y-42530847D01*
X48359448Y-42530847D02*
X48092782Y-42530847D01*
X49311829Y-42949895D02*
X48854686Y-42949895D01*
X49083258Y-42949895D02*
X49083258Y-42149895D01*
X49083258Y-42149895D02*
X49007067Y-42264180D01*
X49007067Y-42264180D02*
X48930877Y-42340371D01*
X48930877Y-42340371D02*
X48854686Y-42378466D01*
X42166265Y-63269895D02*
X42166265Y-62469895D01*
X42166265Y-62469895D02*
X42471027Y-62469895D01*
X42471027Y-62469895D02*
X42547217Y-62507990D01*
X42547217Y-62507990D02*
X42585312Y-62546085D01*
X42585312Y-62546085D02*
X42623408Y-62622276D01*
X42623408Y-62622276D02*
X42623408Y-62736561D01*
X42623408Y-62736561D02*
X42585312Y-62812752D01*
X42585312Y-62812752D02*
X42547217Y-62850847D01*
X42547217Y-62850847D02*
X42471027Y-62888942D01*
X42471027Y-62888942D02*
X42166265Y-62888942D01*
X43232931Y-62850847D02*
X43347217Y-62888942D01*
X43347217Y-62888942D02*
X43385312Y-62927038D01*
X43385312Y-62927038D02*
X43423408Y-63003228D01*
X43423408Y-63003228D02*
X43423408Y-63117514D01*
X43423408Y-63117514D02*
X43385312Y-63193704D01*
X43385312Y-63193704D02*
X43347217Y-63231800D01*
X43347217Y-63231800D02*
X43271027Y-63269895D01*
X43271027Y-63269895D02*
X42966265Y-63269895D01*
X42966265Y-63269895D02*
X42966265Y-62469895D01*
X42966265Y-62469895D02*
X43232931Y-62469895D01*
X43232931Y-62469895D02*
X43309122Y-62507990D01*
X43309122Y-62507990D02*
X43347217Y-62546085D01*
X43347217Y-62546085D02*
X43385312Y-62622276D01*
X43385312Y-62622276D02*
X43385312Y-62698466D01*
X43385312Y-62698466D02*
X43347217Y-62774657D01*
X43347217Y-62774657D02*
X43309122Y-62812752D01*
X43309122Y-62812752D02*
X43232931Y-62850847D01*
X43232931Y-62850847D02*
X42966265Y-62850847D01*
X43918646Y-62469895D02*
X43994836Y-62469895D01*
X43994836Y-62469895D02*
X44071027Y-62507990D01*
X44071027Y-62507990D02*
X44109122Y-62546085D01*
X44109122Y-62546085D02*
X44147217Y-62622276D01*
X44147217Y-62622276D02*
X44185312Y-62774657D01*
X44185312Y-62774657D02*
X44185312Y-62965133D01*
X44185312Y-62965133D02*
X44147217Y-63117514D01*
X44147217Y-63117514D02*
X44109122Y-63193704D01*
X44109122Y-63193704D02*
X44071027Y-63231800D01*
X44071027Y-63231800D02*
X43994836Y-63269895D01*
X43994836Y-63269895D02*
X43918646Y-63269895D01*
X43918646Y-63269895D02*
X43842455Y-63231800D01*
X43842455Y-63231800D02*
X43804360Y-63193704D01*
X43804360Y-63193704D02*
X43766265Y-63117514D01*
X43766265Y-63117514D02*
X43728169Y-62965133D01*
X43728169Y-62965133D02*
X43728169Y-62774657D01*
X43728169Y-62774657D02*
X43766265Y-62622276D01*
X43766265Y-62622276D02*
X43804360Y-62546085D01*
X43804360Y-62546085D02*
X43842455Y-62507990D01*
X43842455Y-62507990D02*
X43918646Y-62469895D01*
X42166265Y-60729895D02*
X42166265Y-59929895D01*
X42166265Y-59929895D02*
X42471027Y-59929895D01*
X42471027Y-59929895D02*
X42547217Y-59967990D01*
X42547217Y-59967990D02*
X42585312Y-60006085D01*
X42585312Y-60006085D02*
X42623408Y-60082276D01*
X42623408Y-60082276D02*
X42623408Y-60196561D01*
X42623408Y-60196561D02*
X42585312Y-60272752D01*
X42585312Y-60272752D02*
X42547217Y-60310847D01*
X42547217Y-60310847D02*
X42471027Y-60348942D01*
X42471027Y-60348942D02*
X42166265Y-60348942D01*
X42928169Y-60501323D02*
X43309122Y-60501323D01*
X42851979Y-60729895D02*
X43118646Y-59929895D01*
X43118646Y-59929895D02*
X43385312Y-60729895D01*
X43575788Y-59929895D02*
X44109122Y-59929895D01*
X44109122Y-59929895D02*
X43766264Y-60729895D01*
X42166265Y-58062895D02*
X42166265Y-57262895D01*
X42166265Y-57262895D02*
X42471027Y-57262895D01*
X42471027Y-57262895D02*
X42547217Y-57300990D01*
X42547217Y-57300990D02*
X42585312Y-57339085D01*
X42585312Y-57339085D02*
X42623408Y-57415276D01*
X42623408Y-57415276D02*
X42623408Y-57529561D01*
X42623408Y-57529561D02*
X42585312Y-57605752D01*
X42585312Y-57605752D02*
X42547217Y-57643847D01*
X42547217Y-57643847D02*
X42471027Y-57681942D01*
X42471027Y-57681942D02*
X42166265Y-57681942D01*
X42928169Y-57834323D02*
X43309122Y-57834323D01*
X42851979Y-58062895D02*
X43118646Y-57262895D01*
X43118646Y-57262895D02*
X43385312Y-58062895D01*
X43994836Y-57262895D02*
X43842455Y-57262895D01*
X43842455Y-57262895D02*
X43766264Y-57300990D01*
X43766264Y-57300990D02*
X43728169Y-57339085D01*
X43728169Y-57339085D02*
X43651979Y-57453371D01*
X43651979Y-57453371D02*
X43613883Y-57605752D01*
X43613883Y-57605752D02*
X43613883Y-57910514D01*
X43613883Y-57910514D02*
X43651979Y-57986704D01*
X43651979Y-57986704D02*
X43690074Y-58024800D01*
X43690074Y-58024800D02*
X43766264Y-58062895D01*
X43766264Y-58062895D02*
X43918645Y-58062895D01*
X43918645Y-58062895D02*
X43994836Y-58024800D01*
X43994836Y-58024800D02*
X44032931Y-57986704D01*
X44032931Y-57986704D02*
X44071026Y-57910514D01*
X44071026Y-57910514D02*
X44071026Y-57720038D01*
X44071026Y-57720038D02*
X44032931Y-57643847D01*
X44032931Y-57643847D02*
X43994836Y-57605752D01*
X43994836Y-57605752D02*
X43918645Y-57567657D01*
X43918645Y-57567657D02*
X43766264Y-57567657D01*
X43766264Y-57567657D02*
X43690074Y-57605752D01*
X43690074Y-57605752D02*
X43651979Y-57643847D01*
X43651979Y-57643847D02*
X43613883Y-57720038D01*
X42166265Y-55522895D02*
X42166265Y-54722895D01*
X42166265Y-54722895D02*
X42471027Y-54722895D01*
X42471027Y-54722895D02*
X42547217Y-54760990D01*
X42547217Y-54760990D02*
X42585312Y-54799085D01*
X42585312Y-54799085D02*
X42623408Y-54875276D01*
X42623408Y-54875276D02*
X42623408Y-54989561D01*
X42623408Y-54989561D02*
X42585312Y-55065752D01*
X42585312Y-55065752D02*
X42547217Y-55103847D01*
X42547217Y-55103847D02*
X42471027Y-55141942D01*
X42471027Y-55141942D02*
X42166265Y-55141942D01*
X42928169Y-55294323D02*
X43309122Y-55294323D01*
X42851979Y-55522895D02*
X43118646Y-54722895D01*
X43118646Y-54722895D02*
X43385312Y-55522895D01*
X44032931Y-54722895D02*
X43651979Y-54722895D01*
X43651979Y-54722895D02*
X43613883Y-55103847D01*
X43613883Y-55103847D02*
X43651979Y-55065752D01*
X43651979Y-55065752D02*
X43728169Y-55027657D01*
X43728169Y-55027657D02*
X43918645Y-55027657D01*
X43918645Y-55027657D02*
X43994836Y-55065752D01*
X43994836Y-55065752D02*
X44032931Y-55103847D01*
X44032931Y-55103847D02*
X44071026Y-55180038D01*
X44071026Y-55180038D02*
X44071026Y-55370514D01*
X44071026Y-55370514D02*
X44032931Y-55446704D01*
X44032931Y-55446704D02*
X43994836Y-55484800D01*
X43994836Y-55484800D02*
X43918645Y-55522895D01*
X43918645Y-55522895D02*
X43728169Y-55522895D01*
X43728169Y-55522895D02*
X43651979Y-55484800D01*
X43651979Y-55484800D02*
X43613883Y-55446704D01*
X42166265Y-53109895D02*
X42166265Y-52309895D01*
X42166265Y-52309895D02*
X42471027Y-52309895D01*
X42471027Y-52309895D02*
X42547217Y-52347990D01*
X42547217Y-52347990D02*
X42585312Y-52386085D01*
X42585312Y-52386085D02*
X42623408Y-52462276D01*
X42623408Y-52462276D02*
X42623408Y-52576561D01*
X42623408Y-52576561D02*
X42585312Y-52652752D01*
X42585312Y-52652752D02*
X42547217Y-52690847D01*
X42547217Y-52690847D02*
X42471027Y-52728942D01*
X42471027Y-52728942D02*
X42166265Y-52728942D01*
X42928169Y-52881323D02*
X43309122Y-52881323D01*
X42851979Y-53109895D02*
X43118646Y-52309895D01*
X43118646Y-52309895D02*
X43385312Y-53109895D01*
X43994836Y-52576561D02*
X43994836Y-53109895D01*
X43804360Y-52271800D02*
X43613883Y-52843228D01*
X43613883Y-52843228D02*
X44109122Y-52843228D01*
X42949895Y-51225332D02*
X42149895Y-51225332D01*
X42149895Y-51225332D02*
X42149895Y-50920570D01*
X42149895Y-50920570D02*
X42187990Y-50844380D01*
X42187990Y-50844380D02*
X42226085Y-50806285D01*
X42226085Y-50806285D02*
X42302276Y-50768189D01*
X42302276Y-50768189D02*
X42416561Y-50768189D01*
X42416561Y-50768189D02*
X42492752Y-50806285D01*
X42492752Y-50806285D02*
X42530847Y-50844380D01*
X42530847Y-50844380D02*
X42568942Y-50920570D01*
X42568942Y-50920570D02*
X42568942Y-51225332D01*
X42721323Y-50463428D02*
X42721323Y-50082475D01*
X42949895Y-50539618D02*
X42149895Y-50272951D01*
X42149895Y-50272951D02*
X42949895Y-50006285D01*
X42149895Y-49815809D02*
X42149895Y-49320571D01*
X42149895Y-49320571D02*
X42454657Y-49587237D01*
X42454657Y-49587237D02*
X42454657Y-49472952D01*
X42454657Y-49472952D02*
X42492752Y-49396761D01*
X42492752Y-49396761D02*
X42530847Y-49358666D01*
X42530847Y-49358666D02*
X42607038Y-49320571D01*
X42607038Y-49320571D02*
X42797514Y-49320571D01*
X42797514Y-49320571D02*
X42873704Y-49358666D01*
X42873704Y-49358666D02*
X42911800Y-49396761D01*
X42911800Y-49396761D02*
X42949895Y-49472952D01*
X42949895Y-49472952D02*
X42949895Y-49701523D01*
X42949895Y-49701523D02*
X42911800Y-49777714D01*
X42911800Y-49777714D02*
X42873704Y-49815809D01*
X42166265Y-47902895D02*
X42166265Y-47102895D01*
X42166265Y-47102895D02*
X42471027Y-47102895D01*
X42471027Y-47102895D02*
X42547217Y-47140990D01*
X42547217Y-47140990D02*
X42585312Y-47179085D01*
X42585312Y-47179085D02*
X42623408Y-47255276D01*
X42623408Y-47255276D02*
X42623408Y-47369561D01*
X42623408Y-47369561D02*
X42585312Y-47445752D01*
X42585312Y-47445752D02*
X42547217Y-47483847D01*
X42547217Y-47483847D02*
X42471027Y-47521942D01*
X42471027Y-47521942D02*
X42166265Y-47521942D01*
X42928169Y-47674323D02*
X43309122Y-47674323D01*
X42851979Y-47902895D02*
X43118646Y-47102895D01*
X43118646Y-47102895D02*
X43385312Y-47902895D01*
X43613883Y-47179085D02*
X43651979Y-47140990D01*
X43651979Y-47140990D02*
X43728169Y-47102895D01*
X43728169Y-47102895D02*
X43918645Y-47102895D01*
X43918645Y-47102895D02*
X43994836Y-47140990D01*
X43994836Y-47140990D02*
X44032931Y-47179085D01*
X44032931Y-47179085D02*
X44071026Y-47255276D01*
X44071026Y-47255276D02*
X44071026Y-47331466D01*
X44071026Y-47331466D02*
X44032931Y-47445752D01*
X44032931Y-47445752D02*
X43575788Y-47902895D01*
X43575788Y-47902895D02*
X44071026Y-47902895D01*
X42166265Y-45489895D02*
X42166265Y-44689895D01*
X42166265Y-44689895D02*
X42471027Y-44689895D01*
X42471027Y-44689895D02*
X42547217Y-44727990D01*
X42547217Y-44727990D02*
X42585312Y-44766085D01*
X42585312Y-44766085D02*
X42623408Y-44842276D01*
X42623408Y-44842276D02*
X42623408Y-44956561D01*
X42623408Y-44956561D02*
X42585312Y-45032752D01*
X42585312Y-45032752D02*
X42547217Y-45070847D01*
X42547217Y-45070847D02*
X42471027Y-45108942D01*
X42471027Y-45108942D02*
X42166265Y-45108942D01*
X42928169Y-45261323D02*
X43309122Y-45261323D01*
X42851979Y-45489895D02*
X43118646Y-44689895D01*
X43118646Y-44689895D02*
X43385312Y-45489895D01*
X44071026Y-45489895D02*
X43613883Y-45489895D01*
X43842455Y-45489895D02*
X43842455Y-44689895D01*
X43842455Y-44689895D02*
X43766264Y-44804180D01*
X43766264Y-44804180D02*
X43690074Y-44880371D01*
X43690074Y-44880371D02*
X43613883Y-44918466D01*
X42166265Y-42949895D02*
X42166265Y-42149895D01*
X42166265Y-42149895D02*
X42471027Y-42149895D01*
X42471027Y-42149895D02*
X42547217Y-42187990D01*
X42547217Y-42187990D02*
X42585312Y-42226085D01*
X42585312Y-42226085D02*
X42623408Y-42302276D01*
X42623408Y-42302276D02*
X42623408Y-42416561D01*
X42623408Y-42416561D02*
X42585312Y-42492752D01*
X42585312Y-42492752D02*
X42547217Y-42530847D01*
X42547217Y-42530847D02*
X42471027Y-42568942D01*
X42471027Y-42568942D02*
X42166265Y-42568942D01*
X42928169Y-42721323D02*
X43309122Y-42721323D01*
X42851979Y-42949895D02*
X43118646Y-42149895D01*
X43118646Y-42149895D02*
X43385312Y-42949895D01*
X43804360Y-42149895D02*
X43880550Y-42149895D01*
X43880550Y-42149895D02*
X43956741Y-42187990D01*
X43956741Y-42187990D02*
X43994836Y-42226085D01*
X43994836Y-42226085D02*
X44032931Y-42302276D01*
X44032931Y-42302276D02*
X44071026Y-42454657D01*
X44071026Y-42454657D02*
X44071026Y-42645133D01*
X44071026Y-42645133D02*
X44032931Y-42797514D01*
X44032931Y-42797514D02*
X43994836Y-42873704D01*
X43994836Y-42873704D02*
X43956741Y-42911800D01*
X43956741Y-42911800D02*
X43880550Y-42949895D01*
X43880550Y-42949895D02*
X43804360Y-42949895D01*
X43804360Y-42949895D02*
X43728169Y-42911800D01*
X43728169Y-42911800D02*
X43690074Y-42873704D01*
X43690074Y-42873704D02*
X43651979Y-42797514D01*
X43651979Y-42797514D02*
X43613883Y-42645133D01*
X43613883Y-42645133D02*
X43613883Y-42454657D01*
X43613883Y-42454657D02*
X43651979Y-42302276D01*
X43651979Y-42302276D02*
X43690074Y-42226085D01*
X43690074Y-42226085D02*
X43728169Y-42187990D01*
X43728169Y-42187990D02*
X43804360Y-42149895D01*
X47254687Y-39736895D02*
X47521354Y-40536895D01*
X47521354Y-40536895D02*
X47788020Y-39736895D01*
X48511830Y-40460704D02*
X48473734Y-40498800D01*
X48473734Y-40498800D02*
X48359449Y-40536895D01*
X48359449Y-40536895D02*
X48283258Y-40536895D01*
X48283258Y-40536895D02*
X48168972Y-40498800D01*
X48168972Y-40498800D02*
X48092782Y-40422609D01*
X48092782Y-40422609D02*
X48054687Y-40346419D01*
X48054687Y-40346419D02*
X48016591Y-40194038D01*
X48016591Y-40194038D02*
X48016591Y-40079752D01*
X48016591Y-40079752D02*
X48054687Y-39927371D01*
X48054687Y-39927371D02*
X48092782Y-39851180D01*
X48092782Y-39851180D02*
X48168972Y-39774990D01*
X48168972Y-39774990D02*
X48283258Y-39736895D01*
X48283258Y-39736895D02*
X48359449Y-39736895D01*
X48359449Y-39736895D02*
X48473734Y-39774990D01*
X48473734Y-39774990D02*
X48511830Y-39813085D01*
X49311830Y-40460704D02*
X49273734Y-40498800D01*
X49273734Y-40498800D02*
X49159449Y-40536895D01*
X49159449Y-40536895D02*
X49083258Y-40536895D01*
X49083258Y-40536895D02*
X48968972Y-40498800D01*
X48968972Y-40498800D02*
X48892782Y-40422609D01*
X48892782Y-40422609D02*
X48854687Y-40346419D01*
X48854687Y-40346419D02*
X48816591Y-40194038D01*
X48816591Y-40194038D02*
X48816591Y-40079752D01*
X48816591Y-40079752D02*
X48854687Y-39927371D01*
X48854687Y-39927371D02*
X48892782Y-39851180D01*
X48892782Y-39851180D02*
X48968972Y-39774990D01*
X48968972Y-39774990D02*
X49083258Y-39736895D01*
X49083258Y-39736895D02*
X49159449Y-39736895D01*
X49159449Y-39736895D02*
X49273734Y-39774990D01*
X49273734Y-39774990D02*
X49311830Y-39813085D01*
X42585312Y-39647990D02*
X42509122Y-39609895D01*
X42509122Y-39609895D02*
X42394836Y-39609895D01*
X42394836Y-39609895D02*
X42280550Y-39647990D01*
X42280550Y-39647990D02*
X42204360Y-39724180D01*
X42204360Y-39724180D02*
X42166265Y-39800371D01*
X42166265Y-39800371D02*
X42128169Y-39952752D01*
X42128169Y-39952752D02*
X42128169Y-40067038D01*
X42128169Y-40067038D02*
X42166265Y-40219419D01*
X42166265Y-40219419D02*
X42204360Y-40295609D01*
X42204360Y-40295609D02*
X42280550Y-40371800D01*
X42280550Y-40371800D02*
X42394836Y-40409895D01*
X42394836Y-40409895D02*
X42471027Y-40409895D01*
X42471027Y-40409895D02*
X42585312Y-40371800D01*
X42585312Y-40371800D02*
X42623408Y-40333704D01*
X42623408Y-40333704D02*
X42623408Y-40067038D01*
X42623408Y-40067038D02*
X42471027Y-40067038D01*
X42966265Y-40409895D02*
X42966265Y-39609895D01*
X42966265Y-39609895D02*
X43423408Y-40409895D01*
X43423408Y-40409895D02*
X43423408Y-39609895D01*
X43804360Y-40409895D02*
X43804360Y-39609895D01*
X43804360Y-39609895D02*
X43994836Y-39609895D01*
X43994836Y-39609895D02*
X44109122Y-39647990D01*
X44109122Y-39647990D02*
X44185312Y-39724180D01*
X44185312Y-39724180D02*
X44223407Y-39800371D01*
X44223407Y-39800371D02*
X44261503Y-39952752D01*
X44261503Y-39952752D02*
X44261503Y-40067038D01*
X44261503Y-40067038D02*
X44223407Y-40219419D01*
X44223407Y-40219419D02*
X44185312Y-40295609D01*
X44185312Y-40295609D02*
X44109122Y-40371800D01*
X44109122Y-40371800D02*
X43994836Y-40409895D01*
X43994836Y-40409895D02*
X43804360Y-40409895D01*
D12*
%TO.C,U1*%
X44110000Y-49049000D02*
X44110000Y-48839000D01*
X44110000Y-51819000D02*
X44110000Y-51369000D01*
X44560000Y-48599000D02*
X44410000Y-48599000D01*
X44560000Y-51819000D02*
X44110000Y-51819000D01*
X46880000Y-48599000D02*
X47330000Y-48599000D01*
X46880000Y-51819000D02*
X47330000Y-51819000D01*
X47330000Y-48599000D02*
X47330000Y-49049000D01*
X47330000Y-51819000D02*
X47330000Y-51369000D01*
X44110000Y-48599000D02*
X43870000Y-48269000D01*
X44350000Y-48269000D01*
X44110000Y-48599000D01*
G36*
X44110000Y-48599000D02*
G01*
X43870000Y-48269000D01*
X44350000Y-48269000D01*
X44110000Y-48599000D01*
G37*
%TD*%
%LPC*%
D13*
%TO.C,U1*%
X44270000Y-49409000D03*
D14*
X44270000Y-49809000D03*
X44270000Y-50209000D03*
X44270000Y-50609000D03*
D15*
X44270000Y-51009000D03*
D16*
X44920000Y-51659000D03*
D17*
X45320000Y-51659000D03*
X45720000Y-51659000D03*
X46120000Y-51659000D03*
D18*
X46520000Y-51659000D03*
D19*
X47170000Y-51009000D03*
D14*
X47170000Y-50609000D03*
X47170000Y-50209000D03*
X47170000Y-49809000D03*
D20*
X47170000Y-49409000D03*
D21*
X46520000Y-48759000D03*
D17*
X46120000Y-48759000D03*
X45720000Y-48759000D03*
X45320000Y-48759000D03*
D22*
X44920000Y-48759000D03*
D23*
X45720000Y-50209000D03*
%TD*%
%TO.C,J2*%
X50800000Y-40005000D03*
D24*
X50800000Y-42545000D03*
X50800000Y-45085000D03*
X50800000Y-47625000D03*
X50800000Y-50165000D03*
X50800000Y-52705000D03*
X50800000Y-55245000D03*
X50800000Y-57785000D03*
X50800000Y-60325000D03*
X50800000Y-62865000D03*
%TD*%
D23*
%TO.C,J1*%
X40640000Y-40005000D03*
D24*
X40640000Y-42545000D03*
X40640000Y-45085000D03*
X40640000Y-47625000D03*
X40640000Y-50165000D03*
X40640000Y-52705000D03*
X40640000Y-55245000D03*
X40640000Y-57785000D03*
X40640000Y-60325000D03*
X40640000Y-62865000D03*
%TD*%
%LPD*%
M02*
