%TF.GenerationSoftware,KiCad,Pcbnew,8.0.5*%
%TF.CreationDate,2024-11-09T04:24:37+05:30*%
%TF.ProjectId,dc_power,64635f70-6f77-4657-922e-6b696361645f,rev?*%
%TF.SameCoordinates,Original*%
%TF.FileFunction,Copper,L2,Bot*%
%TF.FilePolarity,Positive*%
%FSLAX46Y46*%
G04 Gerber Fmt 4.6, Leading zero omitted, Abs format (unit mm)*
G04 Created by KiCad (PCBNEW 8.0.5) date 2024-11-09 04:24:37*
%MOMM*%
%LPD*%
G01*
G04 APERTURE LIST*
%TA.AperFunction,Conductor*%
%ADD10C,0.200000*%
%TD*%
%TA.AperFunction,ComponentPad*%
%ADD11R,1.700000X1.700000*%
%TD*%
%TA.AperFunction,ComponentPad*%
%ADD12O,1.700000X1.700000*%
%TD*%
%TA.AperFunction,ViaPad*%
%ADD13C,0.700000*%
%TD*%
%TA.AperFunction,ViaPad*%
%ADD14C,4.000000*%
%TD*%
%TA.AperFunction,Conductor*%
%ADD15C,0.500000*%
%TD*%
G04 APERTURE END LIST*
D10*
%TO.N,GND*%
X76835000Y-102870000D02*
X47625000Y-102870000D01*
X47625000Y-53975000D01*
X76835000Y-53975000D01*
X76835000Y-102870000D01*
%TA.AperFunction,Conductor*%
G36*
X76835000Y-102870000D02*
G01*
X47625000Y-102870000D01*
X47625000Y-53975000D01*
X76835000Y-53975000D01*
X76835000Y-102870000D01*
G37*
%TD.AperFunction*%
%TD*%
D11*
%TO.P,GND1,1,Pin_1*%
%TO.N,GND*%
X55880000Y-96520000D03*
D12*
%TO.P,GND1,2,Pin_2*%
X58420000Y-96520000D03*
%TO.P,GND1,3,Pin_3*%
X60960000Y-96520000D03*
%TO.P,GND1,4,Pin_4*%
X63500000Y-96520000D03*
%TO.P,GND1,5,Pin_5*%
X66040000Y-96520000D03*
%TD*%
D11*
%TO.P,5V1,1,Pin_1*%
%TO.N,+5V*%
X55880000Y-50800000D03*
D12*
%TO.P,5V1,2,Pin_2*%
X58420000Y-50800000D03*
%TO.P,5V1,3,Pin_3*%
X60960000Y-50800000D03*
%TO.P,5V1,4,Pin_4*%
X63500000Y-50800000D03*
%TO.P,5V1,5,Pin_5*%
X66040000Y-50800000D03*
%TD*%
D13*
%TO.N,GND*%
X60960000Y-74930000D03*
X64770000Y-74930000D03*
X62865000Y-74930000D03*
X66675000Y-74930000D03*
X66675000Y-69215000D03*
X57150000Y-69215000D03*
X55245000Y-69215000D03*
X53340000Y-69215000D03*
X64770000Y-69215000D03*
X60960000Y-71120000D03*
X57150000Y-71120000D03*
X55245000Y-71120000D03*
X53340000Y-71120000D03*
X64770000Y-71120000D03*
X62865000Y-71120000D03*
X59055000Y-71120000D03*
X66675000Y-71120000D03*
X66675000Y-73025000D03*
X64770000Y-73025000D03*
X62865000Y-73025000D03*
X60960000Y-73025000D03*
X59055000Y-73025000D03*
X57150000Y-73025000D03*
X55245000Y-73025000D03*
X53340000Y-73025000D03*
X53340000Y-80010000D03*
D14*
%TO.N,*%
X62784908Y-106045000D03*
X62377580Y-43815000D03*
%TD*%
D15*
%TO.N,GND*%
X53340000Y-80010000D02*
X53340000Y-73025000D01*
%TD*%
M02*
