%TF.GenerationSoftware,KiCad,Pcbnew,8.0.5*%
%TF.CreationDate,2024-11-10T10:57:10+05:30*%
%TF.ProjectId,base,62617365-2e6b-4696-9361-645f70636258,rev?*%
%TF.SameCoordinates,Original*%
%TF.FileFunction,Legend,Top*%
%TF.FilePolarity,Positive*%
%FSLAX46Y46*%
G04 Gerber Fmt 4.6, Leading zero omitted, Abs format (unit mm)*
G04 Created by KiCad (PCBNEW 8.0.5) date 2024-11-10 10:57:10*
%MOMM*%
%LPD*%
G01*
G04 APERTURE LIST*
G04 Aperture macros list*
%AMRoundRect*
0 Rectangle with rounded corners*
0 $1 Rounding radius*
0 $2 $3 $4 $5 $6 $7 $8 $9 X,Y pos of 4 corners*
0 Add a 4 corners polygon primitive as box body*
4,1,4,$2,$3,$4,$5,$6,$7,$8,$9,$2,$3,0*
0 Add four circle primitives for the rounded corners*
1,1,$1+$1,$2,$3*
1,1,$1+$1,$4,$5*
1,1,$1+$1,$6,$7*
1,1,$1+$1,$8,$9*
0 Add four rect primitives between the rounded corners*
20,1,$1+$1,$2,$3,$4,$5,0*
20,1,$1+$1,$4,$5,$6,$7,0*
20,1,$1+$1,$6,$7,$8,$9,0*
20,1,$1+$1,$8,$9,$2,$3,0*%
G04 Aperture macros list end*
%ADD10C,0.700000*%
%ADD11C,0.200000*%
%ADD12C,0.400000*%
%ADD13C,0.150000*%
%ADD14C,0.120000*%
%ADD15RoundRect,0.650000X-0.650000X-0.650000X0.650000X-0.650000X0.650000X0.650000X-0.650000X0.650000X0*%
%ADD16O,3.100000X2.100000*%
%ADD17R,1.700000X1.700000*%
%ADD18O,1.700000X1.700000*%
G04 APERTURE END LIST*
D10*
X106780001Y-126918838D02*
X107351429Y-127109314D01*
X107351429Y-127109314D02*
X107541906Y-127299790D01*
X107541906Y-127299790D02*
X107732382Y-127680742D01*
X107732382Y-127680742D02*
X107732382Y-128252171D01*
X107732382Y-128252171D02*
X107541906Y-128633123D01*
X107541906Y-128633123D02*
X107351429Y-128823600D01*
X107351429Y-128823600D02*
X106970477Y-129014076D01*
X106970477Y-129014076D02*
X105446667Y-129014076D01*
X105446667Y-129014076D02*
X105446667Y-125014076D01*
X105446667Y-125014076D02*
X106780001Y-125014076D01*
X106780001Y-125014076D02*
X107160953Y-125204552D01*
X107160953Y-125204552D02*
X107351429Y-125395028D01*
X107351429Y-125395028D02*
X107541906Y-125775980D01*
X107541906Y-125775980D02*
X107541906Y-126156933D01*
X107541906Y-126156933D02*
X107351429Y-126537885D01*
X107351429Y-126537885D02*
X107160953Y-126728361D01*
X107160953Y-126728361D02*
X106780001Y-126918838D01*
X106780001Y-126918838D02*
X105446667Y-126918838D01*
X109446667Y-125014076D02*
X109446667Y-128252171D01*
X109446667Y-128252171D02*
X109637144Y-128633123D01*
X109637144Y-128633123D02*
X109827620Y-128823600D01*
X109827620Y-128823600D02*
X110208572Y-129014076D01*
X110208572Y-129014076D02*
X110970477Y-129014076D01*
X110970477Y-129014076D02*
X111351429Y-128823600D01*
X111351429Y-128823600D02*
X111541906Y-128633123D01*
X111541906Y-128633123D02*
X111732382Y-128252171D01*
X111732382Y-128252171D02*
X111732382Y-125014076D01*
X113637143Y-129014076D02*
X113637143Y-125014076D01*
X117446667Y-129014076D02*
X115541905Y-129014076D01*
X115541905Y-129014076D02*
X115541905Y-125014076D01*
X118780000Y-129014076D02*
X118780000Y-125014076D01*
X118780000Y-125014076D02*
X119732381Y-125014076D01*
X119732381Y-125014076D02*
X120303810Y-125204552D01*
X120303810Y-125204552D02*
X120684762Y-125585504D01*
X120684762Y-125585504D02*
X120875239Y-125966457D01*
X120875239Y-125966457D02*
X121065715Y-126728361D01*
X121065715Y-126728361D02*
X121065715Y-127299790D01*
X121065715Y-127299790D02*
X120875239Y-128061695D01*
X120875239Y-128061695D02*
X120684762Y-128442647D01*
X120684762Y-128442647D02*
X120303810Y-128823600D01*
X120303810Y-128823600D02*
X119732381Y-129014076D01*
X119732381Y-129014076D02*
X118780000Y-129014076D01*
X126589524Y-127109314D02*
X126589524Y-129014076D01*
X125256191Y-125014076D02*
X126589524Y-127109314D01*
X126589524Y-127109314D02*
X127922858Y-125014076D01*
X130018095Y-125014076D02*
X130780000Y-125014076D01*
X130780000Y-125014076D02*
X131160952Y-125204552D01*
X131160952Y-125204552D02*
X131541905Y-125585504D01*
X131541905Y-125585504D02*
X131732381Y-126347409D01*
X131732381Y-126347409D02*
X131732381Y-127680742D01*
X131732381Y-127680742D02*
X131541905Y-128442647D01*
X131541905Y-128442647D02*
X131160952Y-128823600D01*
X131160952Y-128823600D02*
X130780000Y-129014076D01*
X130780000Y-129014076D02*
X130018095Y-129014076D01*
X130018095Y-129014076D02*
X129637143Y-128823600D01*
X129637143Y-128823600D02*
X129256190Y-128442647D01*
X129256190Y-128442647D02*
X129065714Y-127680742D01*
X129065714Y-127680742D02*
X129065714Y-126347409D01*
X129065714Y-126347409D02*
X129256190Y-125585504D01*
X129256190Y-125585504D02*
X129637143Y-125204552D01*
X129637143Y-125204552D02*
X130018095Y-125014076D01*
X133446666Y-125014076D02*
X133446666Y-128252171D01*
X133446666Y-128252171D02*
X133637143Y-128633123D01*
X133637143Y-128633123D02*
X133827619Y-128823600D01*
X133827619Y-128823600D02*
X134208571Y-129014076D01*
X134208571Y-129014076D02*
X134970476Y-129014076D01*
X134970476Y-129014076D02*
X135351428Y-128823600D01*
X135351428Y-128823600D02*
X135541905Y-128633123D01*
X135541905Y-128633123D02*
X135732381Y-128252171D01*
X135732381Y-128252171D02*
X135732381Y-125014076D01*
X139922857Y-129014076D02*
X138589523Y-127109314D01*
X137637142Y-129014076D02*
X137637142Y-125014076D01*
X137637142Y-125014076D02*
X139160952Y-125014076D01*
X139160952Y-125014076D02*
X139541904Y-125204552D01*
X139541904Y-125204552D02*
X139732381Y-125395028D01*
X139732381Y-125395028D02*
X139922857Y-125775980D01*
X139922857Y-125775980D02*
X139922857Y-126347409D01*
X139922857Y-126347409D02*
X139732381Y-126728361D01*
X139732381Y-126728361D02*
X139541904Y-126918838D01*
X139541904Y-126918838D02*
X139160952Y-127109314D01*
X139160952Y-127109314D02*
X137637142Y-127109314D01*
X144494285Y-128823600D02*
X145065714Y-129014076D01*
X145065714Y-129014076D02*
X146018095Y-129014076D01*
X146018095Y-129014076D02*
X146399047Y-128823600D01*
X146399047Y-128823600D02*
X146589523Y-128633123D01*
X146589523Y-128633123D02*
X146780000Y-128252171D01*
X146780000Y-128252171D02*
X146780000Y-127871219D01*
X146780000Y-127871219D02*
X146589523Y-127490266D01*
X146589523Y-127490266D02*
X146399047Y-127299790D01*
X146399047Y-127299790D02*
X146018095Y-127109314D01*
X146018095Y-127109314D02*
X145256190Y-126918838D01*
X145256190Y-126918838D02*
X144875238Y-126728361D01*
X144875238Y-126728361D02*
X144684761Y-126537885D01*
X144684761Y-126537885D02*
X144494285Y-126156933D01*
X144494285Y-126156933D02*
X144494285Y-125775980D01*
X144494285Y-125775980D02*
X144684761Y-125395028D01*
X144684761Y-125395028D02*
X144875238Y-125204552D01*
X144875238Y-125204552D02*
X145256190Y-125014076D01*
X145256190Y-125014076D02*
X146208571Y-125014076D01*
X146208571Y-125014076D02*
X146780000Y-125204552D01*
X149256190Y-127109314D02*
X149256190Y-129014076D01*
X147922857Y-125014076D02*
X149256190Y-127109314D01*
X149256190Y-127109314D02*
X150589524Y-125014076D01*
X151922856Y-129014076D02*
X151922856Y-125014076D01*
X151922856Y-125014076D02*
X154208571Y-129014076D01*
X154208571Y-129014076D02*
X154208571Y-125014076D01*
X155541904Y-125014076D02*
X157827618Y-125014076D01*
X156684761Y-129014076D02*
X156684761Y-125014076D01*
X159160951Y-129014076D02*
X159160951Y-125014076D01*
X159160951Y-126918838D02*
X161446666Y-126918838D01*
X161446666Y-129014076D02*
X161446666Y-125014076D01*
X166399046Y-129014076D02*
X166399046Y-125014076D01*
X166399046Y-125014076D02*
X167351427Y-125014076D01*
X167351427Y-125014076D02*
X167922856Y-125204552D01*
X167922856Y-125204552D02*
X168303808Y-125585504D01*
X168303808Y-125585504D02*
X168494285Y-125966457D01*
X168494285Y-125966457D02*
X168684761Y-126728361D01*
X168684761Y-126728361D02*
X168684761Y-127299790D01*
X168684761Y-127299790D02*
X168494285Y-128061695D01*
X168494285Y-128061695D02*
X168303808Y-128442647D01*
X168303808Y-128442647D02*
X167922856Y-128823600D01*
X167922856Y-128823600D02*
X167351427Y-129014076D01*
X167351427Y-129014076D02*
X166399046Y-129014076D01*
X172684761Y-129014076D02*
X171351427Y-127109314D01*
X170399046Y-129014076D02*
X170399046Y-125014076D01*
X170399046Y-125014076D02*
X171922856Y-125014076D01*
X171922856Y-125014076D02*
X172303808Y-125204552D01*
X172303808Y-125204552D02*
X172494285Y-125395028D01*
X172494285Y-125395028D02*
X172684761Y-125775980D01*
X172684761Y-125775980D02*
X172684761Y-126347409D01*
X172684761Y-126347409D02*
X172494285Y-126728361D01*
X172494285Y-126728361D02*
X172303808Y-126918838D01*
X172303808Y-126918838D02*
X171922856Y-127109314D01*
X171922856Y-127109314D02*
X170399046Y-127109314D01*
X174399046Y-126918838D02*
X175732380Y-126918838D01*
X176303808Y-129014076D02*
X174399046Y-129014076D01*
X174399046Y-129014076D02*
X174399046Y-125014076D01*
X174399046Y-125014076D02*
X176303808Y-125014076D01*
X177827618Y-127871219D02*
X179732380Y-127871219D01*
X177446666Y-129014076D02*
X178779999Y-125014076D01*
X178779999Y-125014076D02*
X180113333Y-129014076D01*
X181446665Y-129014076D02*
X181446665Y-125014076D01*
X181446665Y-125014076D02*
X182779999Y-127871219D01*
X182779999Y-127871219D02*
X184113332Y-125014076D01*
X184113332Y-125014076D02*
X184113332Y-129014076D01*
X137541905Y-56979062D02*
X138113333Y-57169538D01*
X138113333Y-57169538D02*
X138303810Y-57360014D01*
X138303810Y-57360014D02*
X138494286Y-57740966D01*
X138494286Y-57740966D02*
X138494286Y-58312395D01*
X138494286Y-58312395D02*
X138303810Y-58693347D01*
X138303810Y-58693347D02*
X138113333Y-58883824D01*
X138113333Y-58883824D02*
X137732381Y-59074300D01*
X137732381Y-59074300D02*
X136208571Y-59074300D01*
X136208571Y-59074300D02*
X136208571Y-55074300D01*
X136208571Y-55074300D02*
X137541905Y-55074300D01*
X137541905Y-55074300D02*
X137922857Y-55264776D01*
X137922857Y-55264776D02*
X138113333Y-55455252D01*
X138113333Y-55455252D02*
X138303810Y-55836204D01*
X138303810Y-55836204D02*
X138303810Y-56217157D01*
X138303810Y-56217157D02*
X138113333Y-56598109D01*
X138113333Y-56598109D02*
X137922857Y-56788585D01*
X137922857Y-56788585D02*
X137541905Y-56979062D01*
X137541905Y-56979062D02*
X136208571Y-56979062D01*
X142494286Y-59074300D02*
X141160952Y-57169538D01*
X140208571Y-59074300D02*
X140208571Y-55074300D01*
X140208571Y-55074300D02*
X141732381Y-55074300D01*
X141732381Y-55074300D02*
X142113333Y-55264776D01*
X142113333Y-55264776D02*
X142303810Y-55455252D01*
X142303810Y-55455252D02*
X142494286Y-55836204D01*
X142494286Y-55836204D02*
X142494286Y-56407633D01*
X142494286Y-56407633D02*
X142303810Y-56788585D01*
X142303810Y-56788585D02*
X142113333Y-56979062D01*
X142113333Y-56979062D02*
X141732381Y-57169538D01*
X141732381Y-57169538D02*
X140208571Y-57169538D01*
X144208571Y-56979062D02*
X145541905Y-56979062D01*
X146113333Y-59074300D02*
X144208571Y-59074300D01*
X144208571Y-59074300D02*
X144208571Y-55074300D01*
X144208571Y-55074300D02*
X146113333Y-55074300D01*
X147637143Y-57931443D02*
X149541905Y-57931443D01*
X147256191Y-59074300D02*
X148589524Y-55074300D01*
X148589524Y-55074300D02*
X149922858Y-59074300D01*
X151256190Y-59074300D02*
X151256190Y-55074300D01*
X151256190Y-55074300D02*
X152208571Y-55074300D01*
X152208571Y-55074300D02*
X152780000Y-55264776D01*
X152780000Y-55264776D02*
X153160952Y-55645728D01*
X153160952Y-55645728D02*
X153351429Y-56026681D01*
X153351429Y-56026681D02*
X153541905Y-56788585D01*
X153541905Y-56788585D02*
X153541905Y-57360014D01*
X153541905Y-57360014D02*
X153351429Y-58121919D01*
X153351429Y-58121919D02*
X153160952Y-58502871D01*
X153160952Y-58502871D02*
X152780000Y-58883824D01*
X152780000Y-58883824D02*
X152208571Y-59074300D01*
X152208571Y-59074300D02*
X151256190Y-59074300D01*
X131922857Y-65514076D02*
X131922857Y-61514076D01*
X131922857Y-61514076D02*
X133256191Y-64371219D01*
X133256191Y-64371219D02*
X134589524Y-61514076D01*
X134589524Y-61514076D02*
X134589524Y-65514076D01*
X137256191Y-61514076D02*
X138018096Y-61514076D01*
X138018096Y-61514076D02*
X138399048Y-61704552D01*
X138399048Y-61704552D02*
X138780001Y-62085504D01*
X138780001Y-62085504D02*
X138970477Y-62847409D01*
X138970477Y-62847409D02*
X138970477Y-64180742D01*
X138970477Y-64180742D02*
X138780001Y-64942647D01*
X138780001Y-64942647D02*
X138399048Y-65323600D01*
X138399048Y-65323600D02*
X138018096Y-65514076D01*
X138018096Y-65514076D02*
X137256191Y-65514076D01*
X137256191Y-65514076D02*
X136875239Y-65323600D01*
X136875239Y-65323600D02*
X136494286Y-64942647D01*
X136494286Y-64942647D02*
X136303810Y-64180742D01*
X136303810Y-64180742D02*
X136303810Y-62847409D01*
X136303810Y-62847409D02*
X136494286Y-62085504D01*
X136494286Y-62085504D02*
X136875239Y-61704552D01*
X136875239Y-61704552D02*
X137256191Y-61514076D01*
X140684762Y-65514076D02*
X140684762Y-61514076D01*
X140684762Y-61514076D02*
X141637143Y-61514076D01*
X141637143Y-61514076D02*
X142208572Y-61704552D01*
X142208572Y-61704552D02*
X142589524Y-62085504D01*
X142589524Y-62085504D02*
X142780001Y-62466457D01*
X142780001Y-62466457D02*
X142970477Y-63228361D01*
X142970477Y-63228361D02*
X142970477Y-63799790D01*
X142970477Y-63799790D02*
X142780001Y-64561695D01*
X142780001Y-64561695D02*
X142589524Y-64942647D01*
X142589524Y-64942647D02*
X142208572Y-65323600D01*
X142208572Y-65323600D02*
X141637143Y-65514076D01*
X141637143Y-65514076D02*
X140684762Y-65514076D01*
X144684762Y-61514076D02*
X144684762Y-64752171D01*
X144684762Y-64752171D02*
X144875239Y-65133123D01*
X144875239Y-65133123D02*
X145065715Y-65323600D01*
X145065715Y-65323600D02*
X145446667Y-65514076D01*
X145446667Y-65514076D02*
X146208572Y-65514076D01*
X146208572Y-65514076D02*
X146589524Y-65323600D01*
X146589524Y-65323600D02*
X146780001Y-65133123D01*
X146780001Y-65133123D02*
X146970477Y-64752171D01*
X146970477Y-64752171D02*
X146970477Y-61514076D01*
X150780000Y-65514076D02*
X148875238Y-65514076D01*
X148875238Y-65514076D02*
X148875238Y-61514076D01*
X151922857Y-64371219D02*
X153827619Y-64371219D01*
X151541905Y-65514076D02*
X152875238Y-61514076D01*
X152875238Y-61514076D02*
X154208572Y-65514076D01*
X157827619Y-65514076D02*
X156494285Y-63609314D01*
X155541904Y-65514076D02*
X155541904Y-61514076D01*
X155541904Y-61514076D02*
X157065714Y-61514076D01*
X157065714Y-61514076D02*
X157446666Y-61704552D01*
X157446666Y-61704552D02*
X157637143Y-61895028D01*
X157637143Y-61895028D02*
X157827619Y-62275980D01*
X157827619Y-62275980D02*
X157827619Y-62847409D01*
X157827619Y-62847409D02*
X157637143Y-63228361D01*
X157637143Y-63228361D02*
X157446666Y-63418838D01*
X157446666Y-63418838D02*
X157065714Y-63609314D01*
X157065714Y-63609314D02*
X155541904Y-63609314D01*
D11*
X241068571Y-74137742D02*
X241068571Y-72937742D01*
X241068571Y-72937742D02*
X241525714Y-72937742D01*
X241525714Y-72937742D02*
X241639999Y-72994885D01*
X241639999Y-72994885D02*
X241697142Y-73052028D01*
X241697142Y-73052028D02*
X241754285Y-73166314D01*
X241754285Y-73166314D02*
X241754285Y-73337742D01*
X241754285Y-73337742D02*
X241697142Y-73452028D01*
X241697142Y-73452028D02*
X241639999Y-73509171D01*
X241639999Y-73509171D02*
X241525714Y-73566314D01*
X241525714Y-73566314D02*
X241068571Y-73566314D01*
X242497142Y-72937742D02*
X242725714Y-72937742D01*
X242725714Y-72937742D02*
X242839999Y-72994885D01*
X242839999Y-72994885D02*
X242954285Y-73109171D01*
X242954285Y-73109171D02*
X243011428Y-73337742D01*
X243011428Y-73337742D02*
X243011428Y-73737742D01*
X243011428Y-73737742D02*
X242954285Y-73966314D01*
X242954285Y-73966314D02*
X242839999Y-74080600D01*
X242839999Y-74080600D02*
X242725714Y-74137742D01*
X242725714Y-74137742D02*
X242497142Y-74137742D01*
X242497142Y-74137742D02*
X242382857Y-74080600D01*
X242382857Y-74080600D02*
X242268571Y-73966314D01*
X242268571Y-73966314D02*
X242211428Y-73737742D01*
X242211428Y-73737742D02*
X242211428Y-73337742D01*
X242211428Y-73337742D02*
X242268571Y-73109171D01*
X242268571Y-73109171D02*
X242382857Y-72994885D01*
X242382857Y-72994885D02*
X242497142Y-72937742D01*
X243411428Y-72937742D02*
X243697142Y-74137742D01*
X243697142Y-74137742D02*
X243925714Y-73280600D01*
X243925714Y-73280600D02*
X244154285Y-74137742D01*
X244154285Y-74137742D02*
X244440000Y-72937742D01*
X244897143Y-73509171D02*
X245297143Y-73509171D01*
X245468571Y-74137742D02*
X244897143Y-74137742D01*
X244897143Y-74137742D02*
X244897143Y-72937742D01*
X244897143Y-72937742D02*
X245468571Y-72937742D01*
X246668571Y-74137742D02*
X246268571Y-73566314D01*
X245982857Y-74137742D02*
X245982857Y-72937742D01*
X245982857Y-72937742D02*
X246440000Y-72937742D01*
X246440000Y-72937742D02*
X246554285Y-72994885D01*
X246554285Y-72994885D02*
X246611428Y-73052028D01*
X246611428Y-73052028D02*
X246668571Y-73166314D01*
X246668571Y-73166314D02*
X246668571Y-73337742D01*
X246668571Y-73337742D02*
X246611428Y-73452028D01*
X246611428Y-73452028D02*
X246554285Y-73509171D01*
X246554285Y-73509171D02*
X246440000Y-73566314D01*
X246440000Y-73566314D02*
X245982857Y-73566314D01*
X37011428Y-118079885D02*
X36897143Y-118022742D01*
X36897143Y-118022742D02*
X36725714Y-118022742D01*
X36725714Y-118022742D02*
X36554285Y-118079885D01*
X36554285Y-118079885D02*
X36440000Y-118194171D01*
X36440000Y-118194171D02*
X36382857Y-118308457D01*
X36382857Y-118308457D02*
X36325714Y-118537028D01*
X36325714Y-118537028D02*
X36325714Y-118708457D01*
X36325714Y-118708457D02*
X36382857Y-118937028D01*
X36382857Y-118937028D02*
X36440000Y-119051314D01*
X36440000Y-119051314D02*
X36554285Y-119165600D01*
X36554285Y-119165600D02*
X36725714Y-119222742D01*
X36725714Y-119222742D02*
X36840000Y-119222742D01*
X36840000Y-119222742D02*
X37011428Y-119165600D01*
X37011428Y-119165600D02*
X37068571Y-119108457D01*
X37068571Y-119108457D02*
X37068571Y-118708457D01*
X37068571Y-118708457D02*
X36840000Y-118708457D01*
X37582857Y-119222742D02*
X37582857Y-118022742D01*
X37582857Y-118022742D02*
X38268571Y-119222742D01*
X38268571Y-119222742D02*
X38268571Y-118022742D01*
X38840000Y-119222742D02*
X38840000Y-118022742D01*
X38840000Y-118022742D02*
X39125714Y-118022742D01*
X39125714Y-118022742D02*
X39297143Y-118079885D01*
X39297143Y-118079885D02*
X39411428Y-118194171D01*
X39411428Y-118194171D02*
X39468571Y-118308457D01*
X39468571Y-118308457D02*
X39525714Y-118537028D01*
X39525714Y-118537028D02*
X39525714Y-118708457D01*
X39525714Y-118708457D02*
X39468571Y-118937028D01*
X39468571Y-118937028D02*
X39411428Y-119051314D01*
X39411428Y-119051314D02*
X39297143Y-119165600D01*
X39297143Y-119165600D02*
X39125714Y-119222742D01*
X39125714Y-119222742D02*
X38840000Y-119222742D01*
X41182857Y-118022742D02*
X41411429Y-118022742D01*
X41411429Y-118022742D02*
X41525714Y-118079885D01*
X41525714Y-118079885D02*
X41640000Y-118194171D01*
X41640000Y-118194171D02*
X41697143Y-118422742D01*
X41697143Y-118422742D02*
X41697143Y-118822742D01*
X41697143Y-118822742D02*
X41640000Y-119051314D01*
X41640000Y-119051314D02*
X41525714Y-119165600D01*
X41525714Y-119165600D02*
X41411429Y-119222742D01*
X41411429Y-119222742D02*
X41182857Y-119222742D01*
X41182857Y-119222742D02*
X41068572Y-119165600D01*
X41068572Y-119165600D02*
X40954286Y-119051314D01*
X40954286Y-119051314D02*
X40897143Y-118822742D01*
X40897143Y-118822742D02*
X40897143Y-118422742D01*
X40897143Y-118422742D02*
X40954286Y-118194171D01*
X40954286Y-118194171D02*
X41068572Y-118079885D01*
X41068572Y-118079885D02*
X41182857Y-118022742D01*
X42211429Y-119222742D02*
X42211429Y-118022742D01*
X42211429Y-118022742D02*
X42897143Y-119222742D01*
X42897143Y-119222742D02*
X42897143Y-118022742D01*
X44040000Y-119222742D02*
X43468572Y-119222742D01*
X43468572Y-119222742D02*
X43468572Y-118022742D01*
X44668572Y-118651314D02*
X44668572Y-119222742D01*
X44268572Y-118022742D02*
X44668572Y-118651314D01*
X44668572Y-118651314D02*
X45068572Y-118022742D01*
X43149885Y-157704136D02*
X43092742Y-157818422D01*
X43092742Y-157818422D02*
X43092742Y-157989850D01*
X43092742Y-157989850D02*
X43149885Y-158161279D01*
X43149885Y-158161279D02*
X43264171Y-158275564D01*
X43264171Y-158275564D02*
X43378457Y-158332707D01*
X43378457Y-158332707D02*
X43607028Y-158389850D01*
X43607028Y-158389850D02*
X43778457Y-158389850D01*
X43778457Y-158389850D02*
X44007028Y-158332707D01*
X44007028Y-158332707D02*
X44121314Y-158275564D01*
X44121314Y-158275564D02*
X44235600Y-158161279D01*
X44235600Y-158161279D02*
X44292742Y-157989850D01*
X44292742Y-157989850D02*
X44292742Y-157875564D01*
X44292742Y-157875564D02*
X44235600Y-157704136D01*
X44235600Y-157704136D02*
X44178457Y-157646993D01*
X44178457Y-157646993D02*
X43778457Y-157646993D01*
X43778457Y-157646993D02*
X43778457Y-157875564D01*
X44292742Y-157132707D02*
X43092742Y-157132707D01*
X43092742Y-157132707D02*
X44292742Y-156446993D01*
X44292742Y-156446993D02*
X43092742Y-156446993D01*
X44292742Y-155875564D02*
X43092742Y-155875564D01*
X43092742Y-155875564D02*
X43092742Y-155589850D01*
X43092742Y-155589850D02*
X43149885Y-155418421D01*
X43149885Y-155418421D02*
X43264171Y-155304136D01*
X43264171Y-155304136D02*
X43378457Y-155246993D01*
X43378457Y-155246993D02*
X43607028Y-155189850D01*
X43607028Y-155189850D02*
X43778457Y-155189850D01*
X43778457Y-155189850D02*
X44007028Y-155246993D01*
X44007028Y-155246993D02*
X44121314Y-155304136D01*
X44121314Y-155304136D02*
X44235600Y-155418421D01*
X44235600Y-155418421D02*
X44292742Y-155589850D01*
X44292742Y-155589850D02*
X44292742Y-155875564D01*
X41295600Y-158332707D02*
X41295600Y-157418422D01*
X41752742Y-157875564D02*
X40838457Y-157875564D01*
X40552742Y-156275565D02*
X40552742Y-156846993D01*
X40552742Y-156846993D02*
X41124171Y-156904136D01*
X41124171Y-156904136D02*
X41067028Y-156846993D01*
X41067028Y-156846993D02*
X41009885Y-156732708D01*
X41009885Y-156732708D02*
X41009885Y-156446993D01*
X41009885Y-156446993D02*
X41067028Y-156332708D01*
X41067028Y-156332708D02*
X41124171Y-156275565D01*
X41124171Y-156275565D02*
X41238457Y-156218422D01*
X41238457Y-156218422D02*
X41524171Y-156218422D01*
X41524171Y-156218422D02*
X41638457Y-156275565D01*
X41638457Y-156275565D02*
X41695600Y-156332708D01*
X41695600Y-156332708D02*
X41752742Y-156446993D01*
X41752742Y-156446993D02*
X41752742Y-156732708D01*
X41752742Y-156732708D02*
X41695600Y-156846993D01*
X41695600Y-156846993D02*
X41638457Y-156904136D01*
X40552742Y-155875565D02*
X41752742Y-155475565D01*
X41752742Y-155475565D02*
X40552742Y-155075565D01*
D10*
X45811954Y-164110289D02*
X46354811Y-164291241D01*
X46354811Y-164291241D02*
X46535764Y-164472193D01*
X46535764Y-164472193D02*
X46716716Y-164834098D01*
X46716716Y-164834098D02*
X46716716Y-165376955D01*
X46716716Y-165376955D02*
X46535764Y-165738860D01*
X46535764Y-165738860D02*
X46354811Y-165919813D01*
X46354811Y-165919813D02*
X45992906Y-166100765D01*
X45992906Y-166100765D02*
X44545287Y-166100765D01*
X44545287Y-166100765D02*
X44545287Y-162300765D01*
X44545287Y-162300765D02*
X45811954Y-162300765D01*
X45811954Y-162300765D02*
X46173859Y-162481717D01*
X46173859Y-162481717D02*
X46354811Y-162662670D01*
X46354811Y-162662670D02*
X46535764Y-163024574D01*
X46535764Y-163024574D02*
X46535764Y-163386479D01*
X46535764Y-163386479D02*
X46354811Y-163748384D01*
X46354811Y-163748384D02*
X46173859Y-163929336D01*
X46173859Y-163929336D02*
X45811954Y-164110289D01*
X45811954Y-164110289D02*
X44545287Y-164110289D01*
X50516716Y-166100765D02*
X49250049Y-164291241D01*
X48345287Y-166100765D02*
X48345287Y-162300765D01*
X48345287Y-162300765D02*
X49792906Y-162300765D01*
X49792906Y-162300765D02*
X50154811Y-162481717D01*
X50154811Y-162481717D02*
X50335764Y-162662670D01*
X50335764Y-162662670D02*
X50516716Y-163024574D01*
X50516716Y-163024574D02*
X50516716Y-163567432D01*
X50516716Y-163567432D02*
X50335764Y-163929336D01*
X50335764Y-163929336D02*
X50154811Y-164110289D01*
X50154811Y-164110289D02*
X49792906Y-164291241D01*
X49792906Y-164291241D02*
X48345287Y-164291241D01*
X52145287Y-164110289D02*
X53411954Y-164110289D01*
X53954811Y-166100765D02*
X52145287Y-166100765D01*
X52145287Y-166100765D02*
X52145287Y-162300765D01*
X52145287Y-162300765D02*
X53954811Y-162300765D01*
X55402430Y-165015051D02*
X57211954Y-165015051D01*
X55040525Y-166100765D02*
X56307192Y-162300765D01*
X56307192Y-162300765D02*
X57573859Y-166100765D01*
X58840525Y-166100765D02*
X58840525Y-162300765D01*
X58840525Y-162300765D02*
X59745287Y-162300765D01*
X59745287Y-162300765D02*
X60288144Y-162481717D01*
X60288144Y-162481717D02*
X60650049Y-162843622D01*
X60650049Y-162843622D02*
X60831002Y-163205527D01*
X60831002Y-163205527D02*
X61011954Y-163929336D01*
X61011954Y-163929336D02*
X61011954Y-164472193D01*
X61011954Y-164472193D02*
X60831002Y-165196003D01*
X60831002Y-165196003D02*
X60650049Y-165557908D01*
X60650049Y-165557908D02*
X60288144Y-165919813D01*
X60288144Y-165919813D02*
X59745287Y-166100765D01*
X59745287Y-166100765D02*
X58840525Y-166100765D01*
X44545287Y-172218552D02*
X44545287Y-168418552D01*
X44545287Y-168418552D02*
X45811954Y-171132838D01*
X45811954Y-171132838D02*
X47078621Y-168418552D01*
X47078621Y-168418552D02*
X47078621Y-172218552D01*
X49611954Y-168418552D02*
X50335763Y-168418552D01*
X50335763Y-168418552D02*
X50697668Y-168599504D01*
X50697668Y-168599504D02*
X51059573Y-168961409D01*
X51059573Y-168961409D02*
X51240525Y-169685219D01*
X51240525Y-169685219D02*
X51240525Y-170951885D01*
X51240525Y-170951885D02*
X51059573Y-171675695D01*
X51059573Y-171675695D02*
X50697668Y-172037600D01*
X50697668Y-172037600D02*
X50335763Y-172218552D01*
X50335763Y-172218552D02*
X49611954Y-172218552D01*
X49611954Y-172218552D02*
X49250049Y-172037600D01*
X49250049Y-172037600D02*
X48888144Y-171675695D01*
X48888144Y-171675695D02*
X48707192Y-170951885D01*
X48707192Y-170951885D02*
X48707192Y-169685219D01*
X48707192Y-169685219D02*
X48888144Y-168961409D01*
X48888144Y-168961409D02*
X49250049Y-168599504D01*
X49250049Y-168599504D02*
X49611954Y-168418552D01*
X52869096Y-172218552D02*
X52869096Y-168418552D01*
X52869096Y-168418552D02*
X53773858Y-168418552D01*
X53773858Y-168418552D02*
X54316715Y-168599504D01*
X54316715Y-168599504D02*
X54678620Y-168961409D01*
X54678620Y-168961409D02*
X54859573Y-169323314D01*
X54859573Y-169323314D02*
X55040525Y-170047123D01*
X55040525Y-170047123D02*
X55040525Y-170589980D01*
X55040525Y-170589980D02*
X54859573Y-171313790D01*
X54859573Y-171313790D02*
X54678620Y-171675695D01*
X54678620Y-171675695D02*
X54316715Y-172037600D01*
X54316715Y-172037600D02*
X53773858Y-172218552D01*
X53773858Y-172218552D02*
X52869096Y-172218552D01*
X56669096Y-168418552D02*
X56669096Y-171494742D01*
X56669096Y-171494742D02*
X56850049Y-171856647D01*
X56850049Y-171856647D02*
X57031001Y-172037600D01*
X57031001Y-172037600D02*
X57392906Y-172218552D01*
X57392906Y-172218552D02*
X58116715Y-172218552D01*
X58116715Y-172218552D02*
X58478620Y-172037600D01*
X58478620Y-172037600D02*
X58659573Y-171856647D01*
X58659573Y-171856647D02*
X58840525Y-171494742D01*
X58840525Y-171494742D02*
X58840525Y-168418552D01*
X62459572Y-172218552D02*
X60650048Y-172218552D01*
X60650048Y-172218552D02*
X60650048Y-168418552D01*
X63545286Y-171132838D02*
X65354810Y-171132838D01*
X63183381Y-172218552D02*
X64450048Y-168418552D01*
X64450048Y-168418552D02*
X65716715Y-172218552D01*
X69154810Y-172218552D02*
X67888143Y-170409028D01*
X66983381Y-172218552D02*
X66983381Y-168418552D01*
X66983381Y-168418552D02*
X68431000Y-168418552D01*
X68431000Y-168418552D02*
X68792905Y-168599504D01*
X68792905Y-168599504D02*
X68973858Y-168780457D01*
X68973858Y-168780457D02*
X69154810Y-169142361D01*
X69154810Y-169142361D02*
X69154810Y-169685219D01*
X69154810Y-169685219D02*
X68973858Y-170047123D01*
X68973858Y-170047123D02*
X68792905Y-170228076D01*
X68792905Y-170228076D02*
X68431000Y-170409028D01*
X68431000Y-170409028D02*
X66983381Y-170409028D01*
D12*
X234751128Y-168186931D02*
X235036842Y-168282169D01*
X235036842Y-168282169D02*
X235132080Y-168377407D01*
X235132080Y-168377407D02*
X235227318Y-168567883D01*
X235227318Y-168567883D02*
X235227318Y-168853597D01*
X235227318Y-168853597D02*
X235132080Y-169044073D01*
X235132080Y-169044073D02*
X235036842Y-169139312D01*
X235036842Y-169139312D02*
X234846366Y-169234550D01*
X234846366Y-169234550D02*
X234084461Y-169234550D01*
X234084461Y-169234550D02*
X234084461Y-167234550D01*
X234084461Y-167234550D02*
X234751128Y-167234550D01*
X234751128Y-167234550D02*
X234941604Y-167329788D01*
X234941604Y-167329788D02*
X235036842Y-167425026D01*
X235036842Y-167425026D02*
X235132080Y-167615502D01*
X235132080Y-167615502D02*
X235132080Y-167805978D01*
X235132080Y-167805978D02*
X235036842Y-167996454D01*
X235036842Y-167996454D02*
X234941604Y-168091692D01*
X234941604Y-168091692D02*
X234751128Y-168186931D01*
X234751128Y-168186931D02*
X234084461Y-168186931D01*
X235989223Y-168663121D02*
X236941604Y-168663121D01*
X235798747Y-169234550D02*
X236465413Y-167234550D01*
X236465413Y-167234550D02*
X237132080Y-169234550D01*
X237703509Y-169139312D02*
X237989223Y-169234550D01*
X237989223Y-169234550D02*
X238465414Y-169234550D01*
X238465414Y-169234550D02*
X238655890Y-169139312D01*
X238655890Y-169139312D02*
X238751128Y-169044073D01*
X238751128Y-169044073D02*
X238846366Y-168853597D01*
X238846366Y-168853597D02*
X238846366Y-168663121D01*
X238846366Y-168663121D02*
X238751128Y-168472645D01*
X238751128Y-168472645D02*
X238655890Y-168377407D01*
X238655890Y-168377407D02*
X238465414Y-168282169D01*
X238465414Y-168282169D02*
X238084461Y-168186931D01*
X238084461Y-168186931D02*
X237893985Y-168091692D01*
X237893985Y-168091692D02*
X237798747Y-167996454D01*
X237798747Y-167996454D02*
X237703509Y-167805978D01*
X237703509Y-167805978D02*
X237703509Y-167615502D01*
X237703509Y-167615502D02*
X237798747Y-167425026D01*
X237798747Y-167425026D02*
X237893985Y-167329788D01*
X237893985Y-167329788D02*
X238084461Y-167234550D01*
X238084461Y-167234550D02*
X238560652Y-167234550D01*
X238560652Y-167234550D02*
X238846366Y-167329788D01*
X239703509Y-168186931D02*
X240370176Y-168186931D01*
X240655890Y-169234550D02*
X239703509Y-169234550D01*
X239703509Y-169234550D02*
X239703509Y-167234550D01*
X239703509Y-167234550D02*
X240655890Y-167234550D01*
X234274937Y-170454438D02*
X234465414Y-170454438D01*
X234465414Y-170454438D02*
X234655890Y-170549676D01*
X234655890Y-170549676D02*
X234751128Y-170644914D01*
X234751128Y-170644914D02*
X234846366Y-170835390D01*
X234846366Y-170835390D02*
X234941604Y-171216342D01*
X234941604Y-171216342D02*
X234941604Y-171692533D01*
X234941604Y-171692533D02*
X234846366Y-172073485D01*
X234846366Y-172073485D02*
X234751128Y-172263961D01*
X234751128Y-172263961D02*
X234655890Y-172359200D01*
X234655890Y-172359200D02*
X234465414Y-172454438D01*
X234465414Y-172454438D02*
X234274937Y-172454438D01*
X234274937Y-172454438D02*
X234084461Y-172359200D01*
X234084461Y-172359200D02*
X233989223Y-172263961D01*
X233989223Y-172263961D02*
X233893985Y-172073485D01*
X233893985Y-172073485D02*
X233798747Y-171692533D01*
X233798747Y-171692533D02*
X233798747Y-171216342D01*
X233798747Y-171216342D02*
X233893985Y-170835390D01*
X233893985Y-170835390D02*
X233989223Y-170644914D01*
X233989223Y-170644914D02*
X234084461Y-170549676D01*
X234084461Y-170549676D02*
X234274937Y-170454438D01*
X235798747Y-172263961D02*
X235893985Y-172359200D01*
X235893985Y-172359200D02*
X235798747Y-172454438D01*
X235798747Y-172454438D02*
X235703509Y-172359200D01*
X235703509Y-172359200D02*
X235798747Y-172263961D01*
X235798747Y-172263961D02*
X235798747Y-172454438D01*
X236655890Y-170644914D02*
X236751128Y-170549676D01*
X236751128Y-170549676D02*
X236941604Y-170454438D01*
X236941604Y-170454438D02*
X237417795Y-170454438D01*
X237417795Y-170454438D02*
X237608271Y-170549676D01*
X237608271Y-170549676D02*
X237703509Y-170644914D01*
X237703509Y-170644914D02*
X237798747Y-170835390D01*
X237798747Y-170835390D02*
X237798747Y-171025866D01*
X237798747Y-171025866D02*
X237703509Y-171311580D01*
X237703509Y-171311580D02*
X236560652Y-172454438D01*
X236560652Y-172454438D02*
X237798747Y-172454438D01*
X238655890Y-172263961D02*
X238751128Y-172359200D01*
X238751128Y-172359200D02*
X238655890Y-172454438D01*
X238655890Y-172454438D02*
X238560652Y-172359200D01*
X238560652Y-172359200D02*
X238655890Y-172263961D01*
X238655890Y-172263961D02*
X238655890Y-172454438D01*
X239989223Y-170454438D02*
X240179700Y-170454438D01*
X240179700Y-170454438D02*
X240370176Y-170549676D01*
X240370176Y-170549676D02*
X240465414Y-170644914D01*
X240465414Y-170644914D02*
X240560652Y-170835390D01*
X240560652Y-170835390D02*
X240655890Y-171216342D01*
X240655890Y-171216342D02*
X240655890Y-171692533D01*
X240655890Y-171692533D02*
X240560652Y-172073485D01*
X240560652Y-172073485D02*
X240465414Y-172263961D01*
X240465414Y-172263961D02*
X240370176Y-172359200D01*
X240370176Y-172359200D02*
X240179700Y-172454438D01*
X240179700Y-172454438D02*
X239989223Y-172454438D01*
X239989223Y-172454438D02*
X239798747Y-172359200D01*
X239798747Y-172359200D02*
X239703509Y-172263961D01*
X239703509Y-172263961D02*
X239608271Y-172073485D01*
X239608271Y-172073485D02*
X239513033Y-171692533D01*
X239513033Y-171692533D02*
X239513033Y-171216342D01*
X239513033Y-171216342D02*
X239608271Y-170835390D01*
X239608271Y-170835390D02*
X239703509Y-170644914D01*
X239703509Y-170644914D02*
X239798747Y-170549676D01*
X239798747Y-170549676D02*
X239989223Y-170454438D01*
D11*
X242539885Y-34514136D02*
X242482742Y-34628422D01*
X242482742Y-34628422D02*
X242482742Y-34799850D01*
X242482742Y-34799850D02*
X242539885Y-34971279D01*
X242539885Y-34971279D02*
X242654171Y-35085564D01*
X242654171Y-35085564D02*
X242768457Y-35142707D01*
X242768457Y-35142707D02*
X242997028Y-35199850D01*
X242997028Y-35199850D02*
X243168457Y-35199850D01*
X243168457Y-35199850D02*
X243397028Y-35142707D01*
X243397028Y-35142707D02*
X243511314Y-35085564D01*
X243511314Y-35085564D02*
X243625600Y-34971279D01*
X243625600Y-34971279D02*
X243682742Y-34799850D01*
X243682742Y-34799850D02*
X243682742Y-34685564D01*
X243682742Y-34685564D02*
X243625600Y-34514136D01*
X243625600Y-34514136D02*
X243568457Y-34456993D01*
X243568457Y-34456993D02*
X243168457Y-34456993D01*
X243168457Y-34456993D02*
X243168457Y-34685564D01*
X243682742Y-33942707D02*
X242482742Y-33942707D01*
X242482742Y-33942707D02*
X243682742Y-33256993D01*
X243682742Y-33256993D02*
X242482742Y-33256993D01*
X243682742Y-32685564D02*
X242482742Y-32685564D01*
X242482742Y-32685564D02*
X242482742Y-32399850D01*
X242482742Y-32399850D02*
X242539885Y-32228421D01*
X242539885Y-32228421D02*
X242654171Y-32114136D01*
X242654171Y-32114136D02*
X242768457Y-32056993D01*
X242768457Y-32056993D02*
X242997028Y-31999850D01*
X242997028Y-31999850D02*
X243168457Y-31999850D01*
X243168457Y-31999850D02*
X243397028Y-32056993D01*
X243397028Y-32056993D02*
X243511314Y-32114136D01*
X243511314Y-32114136D02*
X243625600Y-32228421D01*
X243625600Y-32228421D02*
X243682742Y-32399850D01*
X243682742Y-32399850D02*
X243682742Y-32685564D01*
X240685600Y-35142707D02*
X240685600Y-34228422D01*
X241142742Y-34685564D02*
X240228457Y-34685564D01*
X239942742Y-33085565D02*
X239942742Y-33656993D01*
X239942742Y-33656993D02*
X240514171Y-33714136D01*
X240514171Y-33714136D02*
X240457028Y-33656993D01*
X240457028Y-33656993D02*
X240399885Y-33542708D01*
X240399885Y-33542708D02*
X240399885Y-33256993D01*
X240399885Y-33256993D02*
X240457028Y-33142708D01*
X240457028Y-33142708D02*
X240514171Y-33085565D01*
X240514171Y-33085565D02*
X240628457Y-33028422D01*
X240628457Y-33028422D02*
X240914171Y-33028422D01*
X240914171Y-33028422D02*
X241028457Y-33085565D01*
X241028457Y-33085565D02*
X241085600Y-33142708D01*
X241085600Y-33142708D02*
X241142742Y-33256993D01*
X241142742Y-33256993D02*
X241142742Y-33542708D01*
X241142742Y-33542708D02*
X241085600Y-33656993D01*
X241085600Y-33656993D02*
X241028457Y-33714136D01*
X239942742Y-32685565D02*
X241142742Y-32285565D01*
X241142742Y-32285565D02*
X239942742Y-31885565D01*
D13*
X103872438Y-83788095D02*
X103824819Y-83883333D01*
X103824819Y-83883333D02*
X103824819Y-84026190D01*
X103824819Y-84026190D02*
X103872438Y-84169047D01*
X103872438Y-84169047D02*
X103967676Y-84264285D01*
X103967676Y-84264285D02*
X104062914Y-84311904D01*
X104062914Y-84311904D02*
X104253390Y-84359523D01*
X104253390Y-84359523D02*
X104396247Y-84359523D01*
X104396247Y-84359523D02*
X104586723Y-84311904D01*
X104586723Y-84311904D02*
X104681961Y-84264285D01*
X104681961Y-84264285D02*
X104777200Y-84169047D01*
X104777200Y-84169047D02*
X104824819Y-84026190D01*
X104824819Y-84026190D02*
X104824819Y-83930952D01*
X104824819Y-83930952D02*
X104777200Y-83788095D01*
X104777200Y-83788095D02*
X104729580Y-83740476D01*
X104729580Y-83740476D02*
X104396247Y-83740476D01*
X104396247Y-83740476D02*
X104396247Y-83930952D01*
X104824819Y-83311904D02*
X103824819Y-83311904D01*
X103824819Y-83311904D02*
X104824819Y-82740476D01*
X104824819Y-82740476D02*
X103824819Y-82740476D01*
X104824819Y-82264285D02*
X103824819Y-82264285D01*
X103824819Y-82264285D02*
X103824819Y-82026190D01*
X103824819Y-82026190D02*
X103872438Y-81883333D01*
X103872438Y-81883333D02*
X103967676Y-81788095D01*
X103967676Y-81788095D02*
X104062914Y-81740476D01*
X104062914Y-81740476D02*
X104253390Y-81692857D01*
X104253390Y-81692857D02*
X104396247Y-81692857D01*
X104396247Y-81692857D02*
X104586723Y-81740476D01*
X104586723Y-81740476D02*
X104681961Y-81788095D01*
X104681961Y-81788095D02*
X104777200Y-81883333D01*
X104777200Y-81883333D02*
X104824819Y-82026190D01*
X104824819Y-82026190D02*
X104824819Y-82264285D01*
X103920057Y-81311904D02*
X103872438Y-81264285D01*
X103872438Y-81264285D02*
X103824819Y-81169047D01*
X103824819Y-81169047D02*
X103824819Y-80930952D01*
X103824819Y-80930952D02*
X103872438Y-80835714D01*
X103872438Y-80835714D02*
X103920057Y-80788095D01*
X103920057Y-80788095D02*
X104015295Y-80740476D01*
X104015295Y-80740476D02*
X104110533Y-80740476D01*
X104110533Y-80740476D02*
X104253390Y-80788095D01*
X104253390Y-80788095D02*
X104824819Y-81359523D01*
X104824819Y-81359523D02*
X104824819Y-80740476D01*
X103872438Y-152368095D02*
X103824819Y-152463333D01*
X103824819Y-152463333D02*
X103824819Y-152606190D01*
X103824819Y-152606190D02*
X103872438Y-152749047D01*
X103872438Y-152749047D02*
X103967676Y-152844285D01*
X103967676Y-152844285D02*
X104062914Y-152891904D01*
X104062914Y-152891904D02*
X104253390Y-152939523D01*
X104253390Y-152939523D02*
X104396247Y-152939523D01*
X104396247Y-152939523D02*
X104586723Y-152891904D01*
X104586723Y-152891904D02*
X104681961Y-152844285D01*
X104681961Y-152844285D02*
X104777200Y-152749047D01*
X104777200Y-152749047D02*
X104824819Y-152606190D01*
X104824819Y-152606190D02*
X104824819Y-152510952D01*
X104824819Y-152510952D02*
X104777200Y-152368095D01*
X104777200Y-152368095D02*
X104729580Y-152320476D01*
X104729580Y-152320476D02*
X104396247Y-152320476D01*
X104396247Y-152320476D02*
X104396247Y-152510952D01*
X104824819Y-151891904D02*
X103824819Y-151891904D01*
X103824819Y-151891904D02*
X104824819Y-151320476D01*
X104824819Y-151320476D02*
X103824819Y-151320476D01*
X104824819Y-150844285D02*
X103824819Y-150844285D01*
X103824819Y-150844285D02*
X103824819Y-150606190D01*
X103824819Y-150606190D02*
X103872438Y-150463333D01*
X103872438Y-150463333D02*
X103967676Y-150368095D01*
X103967676Y-150368095D02*
X104062914Y-150320476D01*
X104062914Y-150320476D02*
X104253390Y-150272857D01*
X104253390Y-150272857D02*
X104396247Y-150272857D01*
X104396247Y-150272857D02*
X104586723Y-150320476D01*
X104586723Y-150320476D02*
X104681961Y-150368095D01*
X104681961Y-150368095D02*
X104777200Y-150463333D01*
X104777200Y-150463333D02*
X104824819Y-150606190D01*
X104824819Y-150606190D02*
X104824819Y-150844285D01*
X104253390Y-149701428D02*
X104205771Y-149796666D01*
X104205771Y-149796666D02*
X104158152Y-149844285D01*
X104158152Y-149844285D02*
X104062914Y-149891904D01*
X104062914Y-149891904D02*
X104015295Y-149891904D01*
X104015295Y-149891904D02*
X103920057Y-149844285D01*
X103920057Y-149844285D02*
X103872438Y-149796666D01*
X103872438Y-149796666D02*
X103824819Y-149701428D01*
X103824819Y-149701428D02*
X103824819Y-149510952D01*
X103824819Y-149510952D02*
X103872438Y-149415714D01*
X103872438Y-149415714D02*
X103920057Y-149368095D01*
X103920057Y-149368095D02*
X104015295Y-149320476D01*
X104015295Y-149320476D02*
X104062914Y-149320476D01*
X104062914Y-149320476D02*
X104158152Y-149368095D01*
X104158152Y-149368095D02*
X104205771Y-149415714D01*
X104205771Y-149415714D02*
X104253390Y-149510952D01*
X104253390Y-149510952D02*
X104253390Y-149701428D01*
X104253390Y-149701428D02*
X104301009Y-149796666D01*
X104301009Y-149796666D02*
X104348628Y-149844285D01*
X104348628Y-149844285D02*
X104443866Y-149891904D01*
X104443866Y-149891904D02*
X104634342Y-149891904D01*
X104634342Y-149891904D02*
X104729580Y-149844285D01*
X104729580Y-149844285D02*
X104777200Y-149796666D01*
X104777200Y-149796666D02*
X104824819Y-149701428D01*
X104824819Y-149701428D02*
X104824819Y-149510952D01*
X104824819Y-149510952D02*
X104777200Y-149415714D01*
X104777200Y-149415714D02*
X104729580Y-149368095D01*
X104729580Y-149368095D02*
X104634342Y-149320476D01*
X104634342Y-149320476D02*
X104443866Y-149320476D01*
X104443866Y-149320476D02*
X104348628Y-149368095D01*
X104348628Y-149368095D02*
X104301009Y-149415714D01*
X104301009Y-149415714D02*
X104253390Y-149510952D01*
X195264819Y-40036666D02*
X195264819Y-40512856D01*
X195264819Y-40512856D02*
X195741009Y-40560475D01*
X195741009Y-40560475D02*
X195693390Y-40512856D01*
X195693390Y-40512856D02*
X195645771Y-40417618D01*
X195645771Y-40417618D02*
X195645771Y-40179523D01*
X195645771Y-40179523D02*
X195693390Y-40084285D01*
X195693390Y-40084285D02*
X195741009Y-40036666D01*
X195741009Y-40036666D02*
X195836247Y-39989047D01*
X195836247Y-39989047D02*
X196074342Y-39989047D01*
X196074342Y-39989047D02*
X196169580Y-40036666D01*
X196169580Y-40036666D02*
X196217200Y-40084285D01*
X196217200Y-40084285D02*
X196264819Y-40179523D01*
X196264819Y-40179523D02*
X196264819Y-40417618D01*
X196264819Y-40417618D02*
X196217200Y-40512856D01*
X196217200Y-40512856D02*
X196169580Y-40560475D01*
X195264819Y-39703332D02*
X196264819Y-39369999D01*
X196264819Y-39369999D02*
X195264819Y-39036666D01*
X195264819Y-38227142D02*
X195264819Y-38703332D01*
X195264819Y-38703332D02*
X195741009Y-38750951D01*
X195741009Y-38750951D02*
X195693390Y-38703332D01*
X195693390Y-38703332D02*
X195645771Y-38608094D01*
X195645771Y-38608094D02*
X195645771Y-38369999D01*
X195645771Y-38369999D02*
X195693390Y-38274761D01*
X195693390Y-38274761D02*
X195741009Y-38227142D01*
X195741009Y-38227142D02*
X195836247Y-38179523D01*
X195836247Y-38179523D02*
X196074342Y-38179523D01*
X196074342Y-38179523D02*
X196169580Y-38227142D01*
X196169580Y-38227142D02*
X196217200Y-38274761D01*
X196217200Y-38274761D02*
X196264819Y-38369999D01*
X196264819Y-38369999D02*
X196264819Y-38608094D01*
X196264819Y-38608094D02*
X196217200Y-38703332D01*
X196217200Y-38703332D02*
X196169580Y-38750951D01*
X225792438Y-152844285D02*
X225744819Y-152939523D01*
X225744819Y-152939523D02*
X225744819Y-153082380D01*
X225744819Y-153082380D02*
X225792438Y-153225237D01*
X225792438Y-153225237D02*
X225887676Y-153320475D01*
X225887676Y-153320475D02*
X225982914Y-153368094D01*
X225982914Y-153368094D02*
X226173390Y-153415713D01*
X226173390Y-153415713D02*
X226316247Y-153415713D01*
X226316247Y-153415713D02*
X226506723Y-153368094D01*
X226506723Y-153368094D02*
X226601961Y-153320475D01*
X226601961Y-153320475D02*
X226697200Y-153225237D01*
X226697200Y-153225237D02*
X226744819Y-153082380D01*
X226744819Y-153082380D02*
X226744819Y-152987142D01*
X226744819Y-152987142D02*
X226697200Y-152844285D01*
X226697200Y-152844285D02*
X226649580Y-152796666D01*
X226649580Y-152796666D02*
X226316247Y-152796666D01*
X226316247Y-152796666D02*
X226316247Y-152987142D01*
X226744819Y-152368094D02*
X225744819Y-152368094D01*
X225744819Y-152368094D02*
X226744819Y-151796666D01*
X226744819Y-151796666D02*
X225744819Y-151796666D01*
X226744819Y-151320475D02*
X225744819Y-151320475D01*
X225744819Y-151320475D02*
X225744819Y-151082380D01*
X225744819Y-151082380D02*
X225792438Y-150939523D01*
X225792438Y-150939523D02*
X225887676Y-150844285D01*
X225887676Y-150844285D02*
X225982914Y-150796666D01*
X225982914Y-150796666D02*
X226173390Y-150749047D01*
X226173390Y-150749047D02*
X226316247Y-150749047D01*
X226316247Y-150749047D02*
X226506723Y-150796666D01*
X226506723Y-150796666D02*
X226601961Y-150844285D01*
X226601961Y-150844285D02*
X226697200Y-150939523D01*
X226697200Y-150939523D02*
X226744819Y-151082380D01*
X226744819Y-151082380D02*
X226744819Y-151320475D01*
X226744819Y-149796666D02*
X226744819Y-150368094D01*
X226744819Y-150082380D02*
X225744819Y-150082380D01*
X225744819Y-150082380D02*
X225887676Y-150177618D01*
X225887676Y-150177618D02*
X225982914Y-150272856D01*
X225982914Y-150272856D02*
X226030533Y-150368094D01*
X225840057Y-149415713D02*
X225792438Y-149368094D01*
X225792438Y-149368094D02*
X225744819Y-149272856D01*
X225744819Y-149272856D02*
X225744819Y-149034761D01*
X225744819Y-149034761D02*
X225792438Y-148939523D01*
X225792438Y-148939523D02*
X225840057Y-148891904D01*
X225840057Y-148891904D02*
X225935295Y-148844285D01*
X225935295Y-148844285D02*
X226030533Y-148844285D01*
X226030533Y-148844285D02*
X226173390Y-148891904D01*
X226173390Y-148891904D02*
X226744819Y-149463332D01*
X226744819Y-149463332D02*
X226744819Y-148844285D01*
X134304819Y-40036666D02*
X134304819Y-40512856D01*
X134304819Y-40512856D02*
X134781009Y-40560475D01*
X134781009Y-40560475D02*
X134733390Y-40512856D01*
X134733390Y-40512856D02*
X134685771Y-40417618D01*
X134685771Y-40417618D02*
X134685771Y-40179523D01*
X134685771Y-40179523D02*
X134733390Y-40084285D01*
X134733390Y-40084285D02*
X134781009Y-40036666D01*
X134781009Y-40036666D02*
X134876247Y-39989047D01*
X134876247Y-39989047D02*
X135114342Y-39989047D01*
X135114342Y-39989047D02*
X135209580Y-40036666D01*
X135209580Y-40036666D02*
X135257200Y-40084285D01*
X135257200Y-40084285D02*
X135304819Y-40179523D01*
X135304819Y-40179523D02*
X135304819Y-40417618D01*
X135304819Y-40417618D02*
X135257200Y-40512856D01*
X135257200Y-40512856D02*
X135209580Y-40560475D01*
X134304819Y-39703332D02*
X135304819Y-39369999D01*
X135304819Y-39369999D02*
X134304819Y-39036666D01*
X134304819Y-38798570D02*
X134304819Y-38179523D01*
X134304819Y-38179523D02*
X134685771Y-38512856D01*
X134685771Y-38512856D02*
X134685771Y-38369999D01*
X134685771Y-38369999D02*
X134733390Y-38274761D01*
X134733390Y-38274761D02*
X134781009Y-38227142D01*
X134781009Y-38227142D02*
X134876247Y-38179523D01*
X134876247Y-38179523D02*
X135114342Y-38179523D01*
X135114342Y-38179523D02*
X135209580Y-38227142D01*
X135209580Y-38227142D02*
X135257200Y-38274761D01*
X135257200Y-38274761D02*
X135304819Y-38369999D01*
X135304819Y-38369999D02*
X135304819Y-38655713D01*
X135304819Y-38655713D02*
X135257200Y-38750951D01*
X135257200Y-38750951D02*
X135209580Y-38798570D01*
X225744819Y-109092857D02*
X225744819Y-109569047D01*
X225744819Y-109569047D02*
X226221009Y-109616666D01*
X226221009Y-109616666D02*
X226173390Y-109569047D01*
X226173390Y-109569047D02*
X226125771Y-109473809D01*
X226125771Y-109473809D02*
X226125771Y-109235714D01*
X226125771Y-109235714D02*
X226173390Y-109140476D01*
X226173390Y-109140476D02*
X226221009Y-109092857D01*
X226221009Y-109092857D02*
X226316247Y-109045238D01*
X226316247Y-109045238D02*
X226554342Y-109045238D01*
X226554342Y-109045238D02*
X226649580Y-109092857D01*
X226649580Y-109092857D02*
X226697200Y-109140476D01*
X226697200Y-109140476D02*
X226744819Y-109235714D01*
X226744819Y-109235714D02*
X226744819Y-109473809D01*
X226744819Y-109473809D02*
X226697200Y-109569047D01*
X226697200Y-109569047D02*
X226649580Y-109616666D01*
X225744819Y-108759523D02*
X226744819Y-108426190D01*
X226744819Y-108426190D02*
X225744819Y-108092857D01*
X226744819Y-107235714D02*
X226744819Y-107807142D01*
X226744819Y-107521428D02*
X225744819Y-107521428D01*
X225744819Y-107521428D02*
X225887676Y-107616666D01*
X225887676Y-107616666D02*
X225982914Y-107711904D01*
X225982914Y-107711904D02*
X226030533Y-107807142D01*
X225840057Y-106854761D02*
X225792438Y-106807142D01*
X225792438Y-106807142D02*
X225744819Y-106711904D01*
X225744819Y-106711904D02*
X225744819Y-106473809D01*
X225744819Y-106473809D02*
X225792438Y-106378571D01*
X225792438Y-106378571D02*
X225840057Y-106330952D01*
X225840057Y-106330952D02*
X225935295Y-106283333D01*
X225935295Y-106283333D02*
X226030533Y-106283333D01*
X226030533Y-106283333D02*
X226173390Y-106330952D01*
X226173390Y-106330952D02*
X226744819Y-106902380D01*
X226744819Y-106902380D02*
X226744819Y-106283333D01*
X73344819Y-108616666D02*
X73344819Y-109092856D01*
X73344819Y-109092856D02*
X73821009Y-109140475D01*
X73821009Y-109140475D02*
X73773390Y-109092856D01*
X73773390Y-109092856D02*
X73725771Y-108997618D01*
X73725771Y-108997618D02*
X73725771Y-108759523D01*
X73725771Y-108759523D02*
X73773390Y-108664285D01*
X73773390Y-108664285D02*
X73821009Y-108616666D01*
X73821009Y-108616666D02*
X73916247Y-108569047D01*
X73916247Y-108569047D02*
X74154342Y-108569047D01*
X74154342Y-108569047D02*
X74249580Y-108616666D01*
X74249580Y-108616666D02*
X74297200Y-108664285D01*
X74297200Y-108664285D02*
X74344819Y-108759523D01*
X74344819Y-108759523D02*
X74344819Y-108997618D01*
X74344819Y-108997618D02*
X74297200Y-109092856D01*
X74297200Y-109092856D02*
X74249580Y-109140475D01*
X73344819Y-108283332D02*
X74344819Y-107949999D01*
X74344819Y-107949999D02*
X73344819Y-107616666D01*
X73344819Y-107378570D02*
X73344819Y-106711904D01*
X73344819Y-106711904D02*
X74344819Y-107140475D01*
X73392438Y-152368095D02*
X73344819Y-152463333D01*
X73344819Y-152463333D02*
X73344819Y-152606190D01*
X73344819Y-152606190D02*
X73392438Y-152749047D01*
X73392438Y-152749047D02*
X73487676Y-152844285D01*
X73487676Y-152844285D02*
X73582914Y-152891904D01*
X73582914Y-152891904D02*
X73773390Y-152939523D01*
X73773390Y-152939523D02*
X73916247Y-152939523D01*
X73916247Y-152939523D02*
X74106723Y-152891904D01*
X74106723Y-152891904D02*
X74201961Y-152844285D01*
X74201961Y-152844285D02*
X74297200Y-152749047D01*
X74297200Y-152749047D02*
X74344819Y-152606190D01*
X74344819Y-152606190D02*
X74344819Y-152510952D01*
X74344819Y-152510952D02*
X74297200Y-152368095D01*
X74297200Y-152368095D02*
X74249580Y-152320476D01*
X74249580Y-152320476D02*
X73916247Y-152320476D01*
X73916247Y-152320476D02*
X73916247Y-152510952D01*
X74344819Y-151891904D02*
X73344819Y-151891904D01*
X73344819Y-151891904D02*
X74344819Y-151320476D01*
X74344819Y-151320476D02*
X73344819Y-151320476D01*
X74344819Y-150844285D02*
X73344819Y-150844285D01*
X73344819Y-150844285D02*
X73344819Y-150606190D01*
X73344819Y-150606190D02*
X73392438Y-150463333D01*
X73392438Y-150463333D02*
X73487676Y-150368095D01*
X73487676Y-150368095D02*
X73582914Y-150320476D01*
X73582914Y-150320476D02*
X73773390Y-150272857D01*
X73773390Y-150272857D02*
X73916247Y-150272857D01*
X73916247Y-150272857D02*
X74106723Y-150320476D01*
X74106723Y-150320476D02*
X74201961Y-150368095D01*
X74201961Y-150368095D02*
X74297200Y-150463333D01*
X74297200Y-150463333D02*
X74344819Y-150606190D01*
X74344819Y-150606190D02*
X74344819Y-150844285D01*
X73344819Y-149939523D02*
X73344819Y-149272857D01*
X73344819Y-149272857D02*
X74344819Y-149701428D01*
X103824819Y-108616666D02*
X103824819Y-109092856D01*
X103824819Y-109092856D02*
X104301009Y-109140475D01*
X104301009Y-109140475D02*
X104253390Y-109092856D01*
X104253390Y-109092856D02*
X104205771Y-108997618D01*
X104205771Y-108997618D02*
X104205771Y-108759523D01*
X104205771Y-108759523D02*
X104253390Y-108664285D01*
X104253390Y-108664285D02*
X104301009Y-108616666D01*
X104301009Y-108616666D02*
X104396247Y-108569047D01*
X104396247Y-108569047D02*
X104634342Y-108569047D01*
X104634342Y-108569047D02*
X104729580Y-108616666D01*
X104729580Y-108616666D02*
X104777200Y-108664285D01*
X104777200Y-108664285D02*
X104824819Y-108759523D01*
X104824819Y-108759523D02*
X104824819Y-108997618D01*
X104824819Y-108997618D02*
X104777200Y-109092856D01*
X104777200Y-109092856D02*
X104729580Y-109140475D01*
X103824819Y-108283332D02*
X104824819Y-107949999D01*
X104824819Y-107949999D02*
X103824819Y-107616666D01*
X104253390Y-107140475D02*
X104205771Y-107235713D01*
X104205771Y-107235713D02*
X104158152Y-107283332D01*
X104158152Y-107283332D02*
X104062914Y-107330951D01*
X104062914Y-107330951D02*
X104015295Y-107330951D01*
X104015295Y-107330951D02*
X103920057Y-107283332D01*
X103920057Y-107283332D02*
X103872438Y-107235713D01*
X103872438Y-107235713D02*
X103824819Y-107140475D01*
X103824819Y-107140475D02*
X103824819Y-106949999D01*
X103824819Y-106949999D02*
X103872438Y-106854761D01*
X103872438Y-106854761D02*
X103920057Y-106807142D01*
X103920057Y-106807142D02*
X104015295Y-106759523D01*
X104015295Y-106759523D02*
X104062914Y-106759523D01*
X104062914Y-106759523D02*
X104158152Y-106807142D01*
X104158152Y-106807142D02*
X104205771Y-106854761D01*
X104205771Y-106854761D02*
X104253390Y-106949999D01*
X104253390Y-106949999D02*
X104253390Y-107140475D01*
X104253390Y-107140475D02*
X104301009Y-107235713D01*
X104301009Y-107235713D02*
X104348628Y-107283332D01*
X104348628Y-107283332D02*
X104443866Y-107330951D01*
X104443866Y-107330951D02*
X104634342Y-107330951D01*
X104634342Y-107330951D02*
X104729580Y-107283332D01*
X104729580Y-107283332D02*
X104777200Y-107235713D01*
X104777200Y-107235713D02*
X104824819Y-107140475D01*
X104824819Y-107140475D02*
X104824819Y-106949999D01*
X104824819Y-106949999D02*
X104777200Y-106854761D01*
X104777200Y-106854761D02*
X104729580Y-106807142D01*
X104729580Y-106807142D02*
X104634342Y-106759523D01*
X104634342Y-106759523D02*
X104443866Y-106759523D01*
X104443866Y-106759523D02*
X104348628Y-106807142D01*
X104348628Y-106807142D02*
X104301009Y-106854761D01*
X104301009Y-106854761D02*
X104253390Y-106949999D01*
X164832438Y-152844285D02*
X164784819Y-152939523D01*
X164784819Y-152939523D02*
X164784819Y-153082380D01*
X164784819Y-153082380D02*
X164832438Y-153225237D01*
X164832438Y-153225237D02*
X164927676Y-153320475D01*
X164927676Y-153320475D02*
X165022914Y-153368094D01*
X165022914Y-153368094D02*
X165213390Y-153415713D01*
X165213390Y-153415713D02*
X165356247Y-153415713D01*
X165356247Y-153415713D02*
X165546723Y-153368094D01*
X165546723Y-153368094D02*
X165641961Y-153320475D01*
X165641961Y-153320475D02*
X165737200Y-153225237D01*
X165737200Y-153225237D02*
X165784819Y-153082380D01*
X165784819Y-153082380D02*
X165784819Y-152987142D01*
X165784819Y-152987142D02*
X165737200Y-152844285D01*
X165737200Y-152844285D02*
X165689580Y-152796666D01*
X165689580Y-152796666D02*
X165356247Y-152796666D01*
X165356247Y-152796666D02*
X165356247Y-152987142D01*
X165784819Y-152368094D02*
X164784819Y-152368094D01*
X164784819Y-152368094D02*
X165784819Y-151796666D01*
X165784819Y-151796666D02*
X164784819Y-151796666D01*
X165784819Y-151320475D02*
X164784819Y-151320475D01*
X164784819Y-151320475D02*
X164784819Y-151082380D01*
X164784819Y-151082380D02*
X164832438Y-150939523D01*
X164832438Y-150939523D02*
X164927676Y-150844285D01*
X164927676Y-150844285D02*
X165022914Y-150796666D01*
X165022914Y-150796666D02*
X165213390Y-150749047D01*
X165213390Y-150749047D02*
X165356247Y-150749047D01*
X165356247Y-150749047D02*
X165546723Y-150796666D01*
X165546723Y-150796666D02*
X165641961Y-150844285D01*
X165641961Y-150844285D02*
X165737200Y-150939523D01*
X165737200Y-150939523D02*
X165784819Y-151082380D01*
X165784819Y-151082380D02*
X165784819Y-151320475D01*
X165784819Y-149796666D02*
X165784819Y-150368094D01*
X165784819Y-150082380D02*
X164784819Y-150082380D01*
X164784819Y-150082380D02*
X164927676Y-150177618D01*
X164927676Y-150177618D02*
X165022914Y-150272856D01*
X165022914Y-150272856D02*
X165070533Y-150368094D01*
X164784819Y-149177618D02*
X164784819Y-149082380D01*
X164784819Y-149082380D02*
X164832438Y-148987142D01*
X164832438Y-148987142D02*
X164880057Y-148939523D01*
X164880057Y-148939523D02*
X164975295Y-148891904D01*
X164975295Y-148891904D02*
X165165771Y-148844285D01*
X165165771Y-148844285D02*
X165403866Y-148844285D01*
X165403866Y-148844285D02*
X165594342Y-148891904D01*
X165594342Y-148891904D02*
X165689580Y-148939523D01*
X165689580Y-148939523D02*
X165737200Y-148987142D01*
X165737200Y-148987142D02*
X165784819Y-149082380D01*
X165784819Y-149082380D02*
X165784819Y-149177618D01*
X165784819Y-149177618D02*
X165737200Y-149272856D01*
X165737200Y-149272856D02*
X165689580Y-149320475D01*
X165689580Y-149320475D02*
X165594342Y-149368094D01*
X165594342Y-149368094D02*
X165403866Y-149415713D01*
X165403866Y-149415713D02*
X165165771Y-149415713D01*
X165165771Y-149415713D02*
X164975295Y-149368094D01*
X164975295Y-149368094D02*
X164880057Y-149320475D01*
X164880057Y-149320475D02*
X164832438Y-149272856D01*
X164832438Y-149272856D02*
X164784819Y-149177618D01*
X225792438Y-83788095D02*
X225744819Y-83883333D01*
X225744819Y-83883333D02*
X225744819Y-84026190D01*
X225744819Y-84026190D02*
X225792438Y-84169047D01*
X225792438Y-84169047D02*
X225887676Y-84264285D01*
X225887676Y-84264285D02*
X225982914Y-84311904D01*
X225982914Y-84311904D02*
X226173390Y-84359523D01*
X226173390Y-84359523D02*
X226316247Y-84359523D01*
X226316247Y-84359523D02*
X226506723Y-84311904D01*
X226506723Y-84311904D02*
X226601961Y-84264285D01*
X226601961Y-84264285D02*
X226697200Y-84169047D01*
X226697200Y-84169047D02*
X226744819Y-84026190D01*
X226744819Y-84026190D02*
X226744819Y-83930952D01*
X226744819Y-83930952D02*
X226697200Y-83788095D01*
X226697200Y-83788095D02*
X226649580Y-83740476D01*
X226649580Y-83740476D02*
X226316247Y-83740476D01*
X226316247Y-83740476D02*
X226316247Y-83930952D01*
X226744819Y-83311904D02*
X225744819Y-83311904D01*
X225744819Y-83311904D02*
X226744819Y-82740476D01*
X226744819Y-82740476D02*
X225744819Y-82740476D01*
X226744819Y-82264285D02*
X225744819Y-82264285D01*
X225744819Y-82264285D02*
X225744819Y-82026190D01*
X225744819Y-82026190D02*
X225792438Y-81883333D01*
X225792438Y-81883333D02*
X225887676Y-81788095D01*
X225887676Y-81788095D02*
X225982914Y-81740476D01*
X225982914Y-81740476D02*
X226173390Y-81692857D01*
X226173390Y-81692857D02*
X226316247Y-81692857D01*
X226316247Y-81692857D02*
X226506723Y-81740476D01*
X226506723Y-81740476D02*
X226601961Y-81788095D01*
X226601961Y-81788095D02*
X226697200Y-81883333D01*
X226697200Y-81883333D02*
X226744819Y-82026190D01*
X226744819Y-82026190D02*
X226744819Y-82264285D01*
X225744819Y-80835714D02*
X225744819Y-81026190D01*
X225744819Y-81026190D02*
X225792438Y-81121428D01*
X225792438Y-81121428D02*
X225840057Y-81169047D01*
X225840057Y-81169047D02*
X225982914Y-81264285D01*
X225982914Y-81264285D02*
X226173390Y-81311904D01*
X226173390Y-81311904D02*
X226554342Y-81311904D01*
X226554342Y-81311904D02*
X226649580Y-81264285D01*
X226649580Y-81264285D02*
X226697200Y-81216666D01*
X226697200Y-81216666D02*
X226744819Y-81121428D01*
X226744819Y-81121428D02*
X226744819Y-80930952D01*
X226744819Y-80930952D02*
X226697200Y-80835714D01*
X226697200Y-80835714D02*
X226649580Y-80788095D01*
X226649580Y-80788095D02*
X226554342Y-80740476D01*
X226554342Y-80740476D02*
X226316247Y-80740476D01*
X226316247Y-80740476D02*
X226221009Y-80788095D01*
X226221009Y-80788095D02*
X226173390Y-80835714D01*
X226173390Y-80835714D02*
X226125771Y-80930952D01*
X226125771Y-80930952D02*
X226125771Y-81121428D01*
X226125771Y-81121428D02*
X226173390Y-81216666D01*
X226173390Y-81216666D02*
X226221009Y-81264285D01*
X226221009Y-81264285D02*
X226316247Y-81311904D01*
X134352438Y-152368095D02*
X134304819Y-152463333D01*
X134304819Y-152463333D02*
X134304819Y-152606190D01*
X134304819Y-152606190D02*
X134352438Y-152749047D01*
X134352438Y-152749047D02*
X134447676Y-152844285D01*
X134447676Y-152844285D02*
X134542914Y-152891904D01*
X134542914Y-152891904D02*
X134733390Y-152939523D01*
X134733390Y-152939523D02*
X134876247Y-152939523D01*
X134876247Y-152939523D02*
X135066723Y-152891904D01*
X135066723Y-152891904D02*
X135161961Y-152844285D01*
X135161961Y-152844285D02*
X135257200Y-152749047D01*
X135257200Y-152749047D02*
X135304819Y-152606190D01*
X135304819Y-152606190D02*
X135304819Y-152510952D01*
X135304819Y-152510952D02*
X135257200Y-152368095D01*
X135257200Y-152368095D02*
X135209580Y-152320476D01*
X135209580Y-152320476D02*
X134876247Y-152320476D01*
X134876247Y-152320476D02*
X134876247Y-152510952D01*
X135304819Y-151891904D02*
X134304819Y-151891904D01*
X134304819Y-151891904D02*
X135304819Y-151320476D01*
X135304819Y-151320476D02*
X134304819Y-151320476D01*
X135304819Y-150844285D02*
X134304819Y-150844285D01*
X134304819Y-150844285D02*
X134304819Y-150606190D01*
X134304819Y-150606190D02*
X134352438Y-150463333D01*
X134352438Y-150463333D02*
X134447676Y-150368095D01*
X134447676Y-150368095D02*
X134542914Y-150320476D01*
X134542914Y-150320476D02*
X134733390Y-150272857D01*
X134733390Y-150272857D02*
X134876247Y-150272857D01*
X134876247Y-150272857D02*
X135066723Y-150320476D01*
X135066723Y-150320476D02*
X135161961Y-150368095D01*
X135161961Y-150368095D02*
X135257200Y-150463333D01*
X135257200Y-150463333D02*
X135304819Y-150606190D01*
X135304819Y-150606190D02*
X135304819Y-150844285D01*
X135304819Y-149796666D02*
X135304819Y-149606190D01*
X135304819Y-149606190D02*
X135257200Y-149510952D01*
X135257200Y-149510952D02*
X135209580Y-149463333D01*
X135209580Y-149463333D02*
X135066723Y-149368095D01*
X135066723Y-149368095D02*
X134876247Y-149320476D01*
X134876247Y-149320476D02*
X134495295Y-149320476D01*
X134495295Y-149320476D02*
X134400057Y-149368095D01*
X134400057Y-149368095D02*
X134352438Y-149415714D01*
X134352438Y-149415714D02*
X134304819Y-149510952D01*
X134304819Y-149510952D02*
X134304819Y-149701428D01*
X134304819Y-149701428D02*
X134352438Y-149796666D01*
X134352438Y-149796666D02*
X134400057Y-149844285D01*
X134400057Y-149844285D02*
X134495295Y-149891904D01*
X134495295Y-149891904D02*
X134733390Y-149891904D01*
X134733390Y-149891904D02*
X134828628Y-149844285D01*
X134828628Y-149844285D02*
X134876247Y-149796666D01*
X134876247Y-149796666D02*
X134923866Y-149701428D01*
X134923866Y-149701428D02*
X134923866Y-149510952D01*
X134923866Y-149510952D02*
X134876247Y-149415714D01*
X134876247Y-149415714D02*
X134828628Y-149368095D01*
X134828628Y-149368095D02*
X134733390Y-149320476D01*
X134352438Y-83788095D02*
X134304819Y-83883333D01*
X134304819Y-83883333D02*
X134304819Y-84026190D01*
X134304819Y-84026190D02*
X134352438Y-84169047D01*
X134352438Y-84169047D02*
X134447676Y-84264285D01*
X134447676Y-84264285D02*
X134542914Y-84311904D01*
X134542914Y-84311904D02*
X134733390Y-84359523D01*
X134733390Y-84359523D02*
X134876247Y-84359523D01*
X134876247Y-84359523D02*
X135066723Y-84311904D01*
X135066723Y-84311904D02*
X135161961Y-84264285D01*
X135161961Y-84264285D02*
X135257200Y-84169047D01*
X135257200Y-84169047D02*
X135304819Y-84026190D01*
X135304819Y-84026190D02*
X135304819Y-83930952D01*
X135304819Y-83930952D02*
X135257200Y-83788095D01*
X135257200Y-83788095D02*
X135209580Y-83740476D01*
X135209580Y-83740476D02*
X134876247Y-83740476D01*
X134876247Y-83740476D02*
X134876247Y-83930952D01*
X135304819Y-83311904D02*
X134304819Y-83311904D01*
X134304819Y-83311904D02*
X135304819Y-82740476D01*
X135304819Y-82740476D02*
X134304819Y-82740476D01*
X135304819Y-82264285D02*
X134304819Y-82264285D01*
X134304819Y-82264285D02*
X134304819Y-82026190D01*
X134304819Y-82026190D02*
X134352438Y-81883333D01*
X134352438Y-81883333D02*
X134447676Y-81788095D01*
X134447676Y-81788095D02*
X134542914Y-81740476D01*
X134542914Y-81740476D02*
X134733390Y-81692857D01*
X134733390Y-81692857D02*
X134876247Y-81692857D01*
X134876247Y-81692857D02*
X135066723Y-81740476D01*
X135066723Y-81740476D02*
X135161961Y-81788095D01*
X135161961Y-81788095D02*
X135257200Y-81883333D01*
X135257200Y-81883333D02*
X135304819Y-82026190D01*
X135304819Y-82026190D02*
X135304819Y-82264285D01*
X134304819Y-81359523D02*
X134304819Y-80740476D01*
X134304819Y-80740476D02*
X134685771Y-81073809D01*
X134685771Y-81073809D02*
X134685771Y-80930952D01*
X134685771Y-80930952D02*
X134733390Y-80835714D01*
X134733390Y-80835714D02*
X134781009Y-80788095D01*
X134781009Y-80788095D02*
X134876247Y-80740476D01*
X134876247Y-80740476D02*
X135114342Y-80740476D01*
X135114342Y-80740476D02*
X135209580Y-80788095D01*
X135209580Y-80788095D02*
X135257200Y-80835714D01*
X135257200Y-80835714D02*
X135304819Y-80930952D01*
X135304819Y-80930952D02*
X135304819Y-81216666D01*
X135304819Y-81216666D02*
X135257200Y-81311904D01*
X135257200Y-81311904D02*
X135209580Y-81359523D01*
X164784819Y-109092857D02*
X164784819Y-109569047D01*
X164784819Y-109569047D02*
X165261009Y-109616666D01*
X165261009Y-109616666D02*
X165213390Y-109569047D01*
X165213390Y-109569047D02*
X165165771Y-109473809D01*
X165165771Y-109473809D02*
X165165771Y-109235714D01*
X165165771Y-109235714D02*
X165213390Y-109140476D01*
X165213390Y-109140476D02*
X165261009Y-109092857D01*
X165261009Y-109092857D02*
X165356247Y-109045238D01*
X165356247Y-109045238D02*
X165594342Y-109045238D01*
X165594342Y-109045238D02*
X165689580Y-109092857D01*
X165689580Y-109092857D02*
X165737200Y-109140476D01*
X165737200Y-109140476D02*
X165784819Y-109235714D01*
X165784819Y-109235714D02*
X165784819Y-109473809D01*
X165784819Y-109473809D02*
X165737200Y-109569047D01*
X165737200Y-109569047D02*
X165689580Y-109616666D01*
X164784819Y-108759523D02*
X165784819Y-108426190D01*
X165784819Y-108426190D02*
X164784819Y-108092857D01*
X165784819Y-107235714D02*
X165784819Y-107807142D01*
X165784819Y-107521428D02*
X164784819Y-107521428D01*
X164784819Y-107521428D02*
X164927676Y-107616666D01*
X164927676Y-107616666D02*
X165022914Y-107711904D01*
X165022914Y-107711904D02*
X165070533Y-107807142D01*
X164784819Y-106616666D02*
X164784819Y-106521428D01*
X164784819Y-106521428D02*
X164832438Y-106426190D01*
X164832438Y-106426190D02*
X164880057Y-106378571D01*
X164880057Y-106378571D02*
X164975295Y-106330952D01*
X164975295Y-106330952D02*
X165165771Y-106283333D01*
X165165771Y-106283333D02*
X165403866Y-106283333D01*
X165403866Y-106283333D02*
X165594342Y-106330952D01*
X165594342Y-106330952D02*
X165689580Y-106378571D01*
X165689580Y-106378571D02*
X165737200Y-106426190D01*
X165737200Y-106426190D02*
X165784819Y-106521428D01*
X165784819Y-106521428D02*
X165784819Y-106616666D01*
X165784819Y-106616666D02*
X165737200Y-106711904D01*
X165737200Y-106711904D02*
X165689580Y-106759523D01*
X165689580Y-106759523D02*
X165594342Y-106807142D01*
X165594342Y-106807142D02*
X165403866Y-106854761D01*
X165403866Y-106854761D02*
X165165771Y-106854761D01*
X165165771Y-106854761D02*
X164975295Y-106807142D01*
X164975295Y-106807142D02*
X164880057Y-106759523D01*
X164880057Y-106759523D02*
X164832438Y-106711904D01*
X164832438Y-106711904D02*
X164784819Y-106616666D01*
X195312438Y-83788095D02*
X195264819Y-83883333D01*
X195264819Y-83883333D02*
X195264819Y-84026190D01*
X195264819Y-84026190D02*
X195312438Y-84169047D01*
X195312438Y-84169047D02*
X195407676Y-84264285D01*
X195407676Y-84264285D02*
X195502914Y-84311904D01*
X195502914Y-84311904D02*
X195693390Y-84359523D01*
X195693390Y-84359523D02*
X195836247Y-84359523D01*
X195836247Y-84359523D02*
X196026723Y-84311904D01*
X196026723Y-84311904D02*
X196121961Y-84264285D01*
X196121961Y-84264285D02*
X196217200Y-84169047D01*
X196217200Y-84169047D02*
X196264819Y-84026190D01*
X196264819Y-84026190D02*
X196264819Y-83930952D01*
X196264819Y-83930952D02*
X196217200Y-83788095D01*
X196217200Y-83788095D02*
X196169580Y-83740476D01*
X196169580Y-83740476D02*
X195836247Y-83740476D01*
X195836247Y-83740476D02*
X195836247Y-83930952D01*
X196264819Y-83311904D02*
X195264819Y-83311904D01*
X195264819Y-83311904D02*
X196264819Y-82740476D01*
X196264819Y-82740476D02*
X195264819Y-82740476D01*
X196264819Y-82264285D02*
X195264819Y-82264285D01*
X195264819Y-82264285D02*
X195264819Y-82026190D01*
X195264819Y-82026190D02*
X195312438Y-81883333D01*
X195312438Y-81883333D02*
X195407676Y-81788095D01*
X195407676Y-81788095D02*
X195502914Y-81740476D01*
X195502914Y-81740476D02*
X195693390Y-81692857D01*
X195693390Y-81692857D02*
X195836247Y-81692857D01*
X195836247Y-81692857D02*
X196026723Y-81740476D01*
X196026723Y-81740476D02*
X196121961Y-81788095D01*
X196121961Y-81788095D02*
X196217200Y-81883333D01*
X196217200Y-81883333D02*
X196264819Y-82026190D01*
X196264819Y-82026190D02*
X196264819Y-82264285D01*
X195264819Y-80788095D02*
X195264819Y-81264285D01*
X195264819Y-81264285D02*
X195741009Y-81311904D01*
X195741009Y-81311904D02*
X195693390Y-81264285D01*
X195693390Y-81264285D02*
X195645771Y-81169047D01*
X195645771Y-81169047D02*
X195645771Y-80930952D01*
X195645771Y-80930952D02*
X195693390Y-80835714D01*
X195693390Y-80835714D02*
X195741009Y-80788095D01*
X195741009Y-80788095D02*
X195836247Y-80740476D01*
X195836247Y-80740476D02*
X196074342Y-80740476D01*
X196074342Y-80740476D02*
X196169580Y-80788095D01*
X196169580Y-80788095D02*
X196217200Y-80835714D01*
X196217200Y-80835714D02*
X196264819Y-80930952D01*
X196264819Y-80930952D02*
X196264819Y-81169047D01*
X196264819Y-81169047D02*
X196217200Y-81264285D01*
X196217200Y-81264285D02*
X196169580Y-81311904D01*
X164784819Y-40036666D02*
X164784819Y-40512856D01*
X164784819Y-40512856D02*
X165261009Y-40560475D01*
X165261009Y-40560475D02*
X165213390Y-40512856D01*
X165213390Y-40512856D02*
X165165771Y-40417618D01*
X165165771Y-40417618D02*
X165165771Y-40179523D01*
X165165771Y-40179523D02*
X165213390Y-40084285D01*
X165213390Y-40084285D02*
X165261009Y-40036666D01*
X165261009Y-40036666D02*
X165356247Y-39989047D01*
X165356247Y-39989047D02*
X165594342Y-39989047D01*
X165594342Y-39989047D02*
X165689580Y-40036666D01*
X165689580Y-40036666D02*
X165737200Y-40084285D01*
X165737200Y-40084285D02*
X165784819Y-40179523D01*
X165784819Y-40179523D02*
X165784819Y-40417618D01*
X165784819Y-40417618D02*
X165737200Y-40512856D01*
X165737200Y-40512856D02*
X165689580Y-40560475D01*
X164784819Y-39703332D02*
X165784819Y-39369999D01*
X165784819Y-39369999D02*
X164784819Y-39036666D01*
X165118152Y-38274761D02*
X165784819Y-38274761D01*
X164737200Y-38512856D02*
X165451485Y-38750951D01*
X165451485Y-38750951D02*
X165451485Y-38131904D01*
X73392438Y-83788095D02*
X73344819Y-83883333D01*
X73344819Y-83883333D02*
X73344819Y-84026190D01*
X73344819Y-84026190D02*
X73392438Y-84169047D01*
X73392438Y-84169047D02*
X73487676Y-84264285D01*
X73487676Y-84264285D02*
X73582914Y-84311904D01*
X73582914Y-84311904D02*
X73773390Y-84359523D01*
X73773390Y-84359523D02*
X73916247Y-84359523D01*
X73916247Y-84359523D02*
X74106723Y-84311904D01*
X74106723Y-84311904D02*
X74201961Y-84264285D01*
X74201961Y-84264285D02*
X74297200Y-84169047D01*
X74297200Y-84169047D02*
X74344819Y-84026190D01*
X74344819Y-84026190D02*
X74344819Y-83930952D01*
X74344819Y-83930952D02*
X74297200Y-83788095D01*
X74297200Y-83788095D02*
X74249580Y-83740476D01*
X74249580Y-83740476D02*
X73916247Y-83740476D01*
X73916247Y-83740476D02*
X73916247Y-83930952D01*
X74344819Y-83311904D02*
X73344819Y-83311904D01*
X73344819Y-83311904D02*
X74344819Y-82740476D01*
X74344819Y-82740476D02*
X73344819Y-82740476D01*
X74344819Y-82264285D02*
X73344819Y-82264285D01*
X73344819Y-82264285D02*
X73344819Y-82026190D01*
X73344819Y-82026190D02*
X73392438Y-81883333D01*
X73392438Y-81883333D02*
X73487676Y-81788095D01*
X73487676Y-81788095D02*
X73582914Y-81740476D01*
X73582914Y-81740476D02*
X73773390Y-81692857D01*
X73773390Y-81692857D02*
X73916247Y-81692857D01*
X73916247Y-81692857D02*
X74106723Y-81740476D01*
X74106723Y-81740476D02*
X74201961Y-81788095D01*
X74201961Y-81788095D02*
X74297200Y-81883333D01*
X74297200Y-81883333D02*
X74344819Y-82026190D01*
X74344819Y-82026190D02*
X74344819Y-82264285D01*
X74344819Y-80740476D02*
X74344819Y-81311904D01*
X74344819Y-81026190D02*
X73344819Y-81026190D01*
X73344819Y-81026190D02*
X73487676Y-81121428D01*
X73487676Y-81121428D02*
X73582914Y-81216666D01*
X73582914Y-81216666D02*
X73630533Y-81311904D01*
X73344819Y-40036666D02*
X73344819Y-40512856D01*
X73344819Y-40512856D02*
X73821009Y-40560475D01*
X73821009Y-40560475D02*
X73773390Y-40512856D01*
X73773390Y-40512856D02*
X73725771Y-40417618D01*
X73725771Y-40417618D02*
X73725771Y-40179523D01*
X73725771Y-40179523D02*
X73773390Y-40084285D01*
X73773390Y-40084285D02*
X73821009Y-40036666D01*
X73821009Y-40036666D02*
X73916247Y-39989047D01*
X73916247Y-39989047D02*
X74154342Y-39989047D01*
X74154342Y-39989047D02*
X74249580Y-40036666D01*
X74249580Y-40036666D02*
X74297200Y-40084285D01*
X74297200Y-40084285D02*
X74344819Y-40179523D01*
X74344819Y-40179523D02*
X74344819Y-40417618D01*
X74344819Y-40417618D02*
X74297200Y-40512856D01*
X74297200Y-40512856D02*
X74249580Y-40560475D01*
X73344819Y-39703332D02*
X74344819Y-39369999D01*
X74344819Y-39369999D02*
X73344819Y-39036666D01*
X74344819Y-38179523D02*
X74344819Y-38750951D01*
X74344819Y-38465237D02*
X73344819Y-38465237D01*
X73344819Y-38465237D02*
X73487676Y-38560475D01*
X73487676Y-38560475D02*
X73582914Y-38655713D01*
X73582914Y-38655713D02*
X73630533Y-38750951D01*
X164832438Y-83788095D02*
X164784819Y-83883333D01*
X164784819Y-83883333D02*
X164784819Y-84026190D01*
X164784819Y-84026190D02*
X164832438Y-84169047D01*
X164832438Y-84169047D02*
X164927676Y-84264285D01*
X164927676Y-84264285D02*
X165022914Y-84311904D01*
X165022914Y-84311904D02*
X165213390Y-84359523D01*
X165213390Y-84359523D02*
X165356247Y-84359523D01*
X165356247Y-84359523D02*
X165546723Y-84311904D01*
X165546723Y-84311904D02*
X165641961Y-84264285D01*
X165641961Y-84264285D02*
X165737200Y-84169047D01*
X165737200Y-84169047D02*
X165784819Y-84026190D01*
X165784819Y-84026190D02*
X165784819Y-83930952D01*
X165784819Y-83930952D02*
X165737200Y-83788095D01*
X165737200Y-83788095D02*
X165689580Y-83740476D01*
X165689580Y-83740476D02*
X165356247Y-83740476D01*
X165356247Y-83740476D02*
X165356247Y-83930952D01*
X165784819Y-83311904D02*
X164784819Y-83311904D01*
X164784819Y-83311904D02*
X165784819Y-82740476D01*
X165784819Y-82740476D02*
X164784819Y-82740476D01*
X165784819Y-82264285D02*
X164784819Y-82264285D01*
X164784819Y-82264285D02*
X164784819Y-82026190D01*
X164784819Y-82026190D02*
X164832438Y-81883333D01*
X164832438Y-81883333D02*
X164927676Y-81788095D01*
X164927676Y-81788095D02*
X165022914Y-81740476D01*
X165022914Y-81740476D02*
X165213390Y-81692857D01*
X165213390Y-81692857D02*
X165356247Y-81692857D01*
X165356247Y-81692857D02*
X165546723Y-81740476D01*
X165546723Y-81740476D02*
X165641961Y-81788095D01*
X165641961Y-81788095D02*
X165737200Y-81883333D01*
X165737200Y-81883333D02*
X165784819Y-82026190D01*
X165784819Y-82026190D02*
X165784819Y-82264285D01*
X165118152Y-80835714D02*
X165784819Y-80835714D01*
X164737200Y-81073809D02*
X165451485Y-81311904D01*
X165451485Y-81311904D02*
X165451485Y-80692857D01*
X225744819Y-40036666D02*
X225744819Y-40512856D01*
X225744819Y-40512856D02*
X226221009Y-40560475D01*
X226221009Y-40560475D02*
X226173390Y-40512856D01*
X226173390Y-40512856D02*
X226125771Y-40417618D01*
X226125771Y-40417618D02*
X226125771Y-40179523D01*
X226125771Y-40179523D02*
X226173390Y-40084285D01*
X226173390Y-40084285D02*
X226221009Y-40036666D01*
X226221009Y-40036666D02*
X226316247Y-39989047D01*
X226316247Y-39989047D02*
X226554342Y-39989047D01*
X226554342Y-39989047D02*
X226649580Y-40036666D01*
X226649580Y-40036666D02*
X226697200Y-40084285D01*
X226697200Y-40084285D02*
X226744819Y-40179523D01*
X226744819Y-40179523D02*
X226744819Y-40417618D01*
X226744819Y-40417618D02*
X226697200Y-40512856D01*
X226697200Y-40512856D02*
X226649580Y-40560475D01*
X225744819Y-39703332D02*
X226744819Y-39369999D01*
X226744819Y-39369999D02*
X225744819Y-39036666D01*
X225744819Y-38274761D02*
X225744819Y-38465237D01*
X225744819Y-38465237D02*
X225792438Y-38560475D01*
X225792438Y-38560475D02*
X225840057Y-38608094D01*
X225840057Y-38608094D02*
X225982914Y-38703332D01*
X225982914Y-38703332D02*
X226173390Y-38750951D01*
X226173390Y-38750951D02*
X226554342Y-38750951D01*
X226554342Y-38750951D02*
X226649580Y-38703332D01*
X226649580Y-38703332D02*
X226697200Y-38655713D01*
X226697200Y-38655713D02*
X226744819Y-38560475D01*
X226744819Y-38560475D02*
X226744819Y-38369999D01*
X226744819Y-38369999D02*
X226697200Y-38274761D01*
X226697200Y-38274761D02*
X226649580Y-38227142D01*
X226649580Y-38227142D02*
X226554342Y-38179523D01*
X226554342Y-38179523D02*
X226316247Y-38179523D01*
X226316247Y-38179523D02*
X226221009Y-38227142D01*
X226221009Y-38227142D02*
X226173390Y-38274761D01*
X226173390Y-38274761D02*
X226125771Y-38369999D01*
X226125771Y-38369999D02*
X226125771Y-38560475D01*
X226125771Y-38560475D02*
X226173390Y-38655713D01*
X226173390Y-38655713D02*
X226221009Y-38703332D01*
X226221009Y-38703332D02*
X226316247Y-38750951D01*
X195312438Y-152844285D02*
X195264819Y-152939523D01*
X195264819Y-152939523D02*
X195264819Y-153082380D01*
X195264819Y-153082380D02*
X195312438Y-153225237D01*
X195312438Y-153225237D02*
X195407676Y-153320475D01*
X195407676Y-153320475D02*
X195502914Y-153368094D01*
X195502914Y-153368094D02*
X195693390Y-153415713D01*
X195693390Y-153415713D02*
X195836247Y-153415713D01*
X195836247Y-153415713D02*
X196026723Y-153368094D01*
X196026723Y-153368094D02*
X196121961Y-153320475D01*
X196121961Y-153320475D02*
X196217200Y-153225237D01*
X196217200Y-153225237D02*
X196264819Y-153082380D01*
X196264819Y-153082380D02*
X196264819Y-152987142D01*
X196264819Y-152987142D02*
X196217200Y-152844285D01*
X196217200Y-152844285D02*
X196169580Y-152796666D01*
X196169580Y-152796666D02*
X195836247Y-152796666D01*
X195836247Y-152796666D02*
X195836247Y-152987142D01*
X196264819Y-152368094D02*
X195264819Y-152368094D01*
X195264819Y-152368094D02*
X196264819Y-151796666D01*
X196264819Y-151796666D02*
X195264819Y-151796666D01*
X196264819Y-151320475D02*
X195264819Y-151320475D01*
X195264819Y-151320475D02*
X195264819Y-151082380D01*
X195264819Y-151082380D02*
X195312438Y-150939523D01*
X195312438Y-150939523D02*
X195407676Y-150844285D01*
X195407676Y-150844285D02*
X195502914Y-150796666D01*
X195502914Y-150796666D02*
X195693390Y-150749047D01*
X195693390Y-150749047D02*
X195836247Y-150749047D01*
X195836247Y-150749047D02*
X196026723Y-150796666D01*
X196026723Y-150796666D02*
X196121961Y-150844285D01*
X196121961Y-150844285D02*
X196217200Y-150939523D01*
X196217200Y-150939523D02*
X196264819Y-151082380D01*
X196264819Y-151082380D02*
X196264819Y-151320475D01*
X196264819Y-149796666D02*
X196264819Y-150368094D01*
X196264819Y-150082380D02*
X195264819Y-150082380D01*
X195264819Y-150082380D02*
X195407676Y-150177618D01*
X195407676Y-150177618D02*
X195502914Y-150272856D01*
X195502914Y-150272856D02*
X195550533Y-150368094D01*
X196264819Y-148844285D02*
X196264819Y-149415713D01*
X196264819Y-149129999D02*
X195264819Y-149129999D01*
X195264819Y-149129999D02*
X195407676Y-149225237D01*
X195407676Y-149225237D02*
X195502914Y-149320475D01*
X195502914Y-149320475D02*
X195550533Y-149415713D01*
X134304819Y-108616666D02*
X134304819Y-109092856D01*
X134304819Y-109092856D02*
X134781009Y-109140475D01*
X134781009Y-109140475D02*
X134733390Y-109092856D01*
X134733390Y-109092856D02*
X134685771Y-108997618D01*
X134685771Y-108997618D02*
X134685771Y-108759523D01*
X134685771Y-108759523D02*
X134733390Y-108664285D01*
X134733390Y-108664285D02*
X134781009Y-108616666D01*
X134781009Y-108616666D02*
X134876247Y-108569047D01*
X134876247Y-108569047D02*
X135114342Y-108569047D01*
X135114342Y-108569047D02*
X135209580Y-108616666D01*
X135209580Y-108616666D02*
X135257200Y-108664285D01*
X135257200Y-108664285D02*
X135304819Y-108759523D01*
X135304819Y-108759523D02*
X135304819Y-108997618D01*
X135304819Y-108997618D02*
X135257200Y-109092856D01*
X135257200Y-109092856D02*
X135209580Y-109140475D01*
X134304819Y-108283332D02*
X135304819Y-107949999D01*
X135304819Y-107949999D02*
X134304819Y-107616666D01*
X135304819Y-107235713D02*
X135304819Y-107045237D01*
X135304819Y-107045237D02*
X135257200Y-106949999D01*
X135257200Y-106949999D02*
X135209580Y-106902380D01*
X135209580Y-106902380D02*
X135066723Y-106807142D01*
X135066723Y-106807142D02*
X134876247Y-106759523D01*
X134876247Y-106759523D02*
X134495295Y-106759523D01*
X134495295Y-106759523D02*
X134400057Y-106807142D01*
X134400057Y-106807142D02*
X134352438Y-106854761D01*
X134352438Y-106854761D02*
X134304819Y-106949999D01*
X134304819Y-106949999D02*
X134304819Y-107140475D01*
X134304819Y-107140475D02*
X134352438Y-107235713D01*
X134352438Y-107235713D02*
X134400057Y-107283332D01*
X134400057Y-107283332D02*
X134495295Y-107330951D01*
X134495295Y-107330951D02*
X134733390Y-107330951D01*
X134733390Y-107330951D02*
X134828628Y-107283332D01*
X134828628Y-107283332D02*
X134876247Y-107235713D01*
X134876247Y-107235713D02*
X134923866Y-107140475D01*
X134923866Y-107140475D02*
X134923866Y-106949999D01*
X134923866Y-106949999D02*
X134876247Y-106854761D01*
X134876247Y-106854761D02*
X134828628Y-106807142D01*
X134828628Y-106807142D02*
X134733390Y-106759523D01*
X195264819Y-109092857D02*
X195264819Y-109569047D01*
X195264819Y-109569047D02*
X195741009Y-109616666D01*
X195741009Y-109616666D02*
X195693390Y-109569047D01*
X195693390Y-109569047D02*
X195645771Y-109473809D01*
X195645771Y-109473809D02*
X195645771Y-109235714D01*
X195645771Y-109235714D02*
X195693390Y-109140476D01*
X195693390Y-109140476D02*
X195741009Y-109092857D01*
X195741009Y-109092857D02*
X195836247Y-109045238D01*
X195836247Y-109045238D02*
X196074342Y-109045238D01*
X196074342Y-109045238D02*
X196169580Y-109092857D01*
X196169580Y-109092857D02*
X196217200Y-109140476D01*
X196217200Y-109140476D02*
X196264819Y-109235714D01*
X196264819Y-109235714D02*
X196264819Y-109473809D01*
X196264819Y-109473809D02*
X196217200Y-109569047D01*
X196217200Y-109569047D02*
X196169580Y-109616666D01*
X195264819Y-108759523D02*
X196264819Y-108426190D01*
X196264819Y-108426190D02*
X195264819Y-108092857D01*
X196264819Y-107235714D02*
X196264819Y-107807142D01*
X196264819Y-107521428D02*
X195264819Y-107521428D01*
X195264819Y-107521428D02*
X195407676Y-107616666D01*
X195407676Y-107616666D02*
X195502914Y-107711904D01*
X195502914Y-107711904D02*
X195550533Y-107807142D01*
X196264819Y-106283333D02*
X196264819Y-106854761D01*
X196264819Y-106569047D02*
X195264819Y-106569047D01*
X195264819Y-106569047D02*
X195407676Y-106664285D01*
X195407676Y-106664285D02*
X195502914Y-106759523D01*
X195502914Y-106759523D02*
X195550533Y-106854761D01*
X103824819Y-40036666D02*
X103824819Y-40512856D01*
X103824819Y-40512856D02*
X104301009Y-40560475D01*
X104301009Y-40560475D02*
X104253390Y-40512856D01*
X104253390Y-40512856D02*
X104205771Y-40417618D01*
X104205771Y-40417618D02*
X104205771Y-40179523D01*
X104205771Y-40179523D02*
X104253390Y-40084285D01*
X104253390Y-40084285D02*
X104301009Y-40036666D01*
X104301009Y-40036666D02*
X104396247Y-39989047D01*
X104396247Y-39989047D02*
X104634342Y-39989047D01*
X104634342Y-39989047D02*
X104729580Y-40036666D01*
X104729580Y-40036666D02*
X104777200Y-40084285D01*
X104777200Y-40084285D02*
X104824819Y-40179523D01*
X104824819Y-40179523D02*
X104824819Y-40417618D01*
X104824819Y-40417618D02*
X104777200Y-40512856D01*
X104777200Y-40512856D02*
X104729580Y-40560475D01*
X103824819Y-39703332D02*
X104824819Y-39369999D01*
X104824819Y-39369999D02*
X103824819Y-39036666D01*
X103920057Y-38750951D02*
X103872438Y-38703332D01*
X103872438Y-38703332D02*
X103824819Y-38608094D01*
X103824819Y-38608094D02*
X103824819Y-38369999D01*
X103824819Y-38369999D02*
X103872438Y-38274761D01*
X103872438Y-38274761D02*
X103920057Y-38227142D01*
X103920057Y-38227142D02*
X104015295Y-38179523D01*
X104015295Y-38179523D02*
X104110533Y-38179523D01*
X104110533Y-38179523D02*
X104253390Y-38227142D01*
X104253390Y-38227142D02*
X104824819Y-38798570D01*
X104824819Y-38798570D02*
X104824819Y-38179523D01*
D11*
%TO.C,J2*%
X45140000Y-131500000D02*
X45140000Y-121000000D01*
X36140000Y-131500000D02*
X36140000Y-121000000D01*
X36140000Y-121000000D02*
X39040000Y-121000000D01*
X42240000Y-121000000D02*
X45140000Y-121000000D01*
X36140000Y-131500000D02*
X39140000Y-131500000D01*
X42140000Y-131500000D02*
X45140000Y-131500000D01*
D14*
X42440000Y-127000000D02*
G75*
G02*
X38840000Y-127000000I-1800000J0D01*
G01*
X38840000Y-127000000D02*
G75*
G02*
X42440000Y-127000000I1800000J0D01*
G01*
X40640000Y-124105000D02*
G75*
G02*
X41936263Y-129588576I0J-2895000D01*
G01*
X39343737Y-129588577D02*
G75*
G02*
X40640000Y-124104999I1296263J2588577D01*
G01*
D11*
%TO.C,J1*%
X248340000Y-68000000D02*
X248340000Y-57500000D01*
X239340000Y-68000000D02*
X239340000Y-57500000D01*
X239340000Y-57500000D02*
X242240000Y-57500000D01*
X245440000Y-57500000D02*
X248340000Y-57500000D01*
X239340000Y-68000000D02*
X242340000Y-68000000D01*
X245340000Y-68000000D02*
X248340000Y-68000000D01*
D14*
X245640000Y-63500000D02*
G75*
G02*
X242040000Y-63500000I-1800000J0D01*
G01*
X242040000Y-63500000D02*
G75*
G02*
X245640000Y-63500000I1800000J0D01*
G01*
X243840000Y-60605000D02*
G75*
G02*
X245136263Y-66088576I0J-2895000D01*
G01*
X242543737Y-66088577D02*
G75*
G02*
X243840000Y-60604999I1296263J2588577D01*
G01*
%TO.C,GND2*%
X90110000Y-79950000D02*
X90110000Y-85150000D01*
X100330000Y-82550000D02*
X100330000Y-85150000D01*
X100330000Y-85150000D02*
X90110000Y-85150000D01*
X102930000Y-79950000D02*
X90110000Y-79950000D01*
X102930000Y-79950000D02*
X102930000Y-82550000D01*
X102930000Y-82550000D02*
X100330000Y-82550000D01*
X102930000Y-83820000D02*
X102930000Y-85150000D01*
X102930000Y-85150000D02*
X101600000Y-85150000D01*
%TO.C,5V13*%
X244535000Y-49590000D02*
X244535000Y-36770000D01*
X244535000Y-49590000D02*
X241935000Y-49590000D01*
X244535000Y-36770000D02*
X239335000Y-36770000D01*
X241935000Y-49590000D02*
X241935000Y-46990000D01*
X241935000Y-46990000D02*
X239335000Y-46990000D01*
X240665000Y-49590000D02*
X239335000Y-49590000D01*
X239335000Y-49590000D02*
X239335000Y-48260000D01*
X239335000Y-46990000D02*
X239335000Y-36770000D01*
%TO.C,GND8*%
X90110000Y-148530000D02*
X90110000Y-153730000D01*
X100330000Y-151130000D02*
X100330000Y-153730000D01*
X100330000Y-153730000D02*
X90110000Y-153730000D01*
X102930000Y-148530000D02*
X90110000Y-148530000D01*
X102930000Y-148530000D02*
X102930000Y-151130000D01*
X102930000Y-151130000D02*
X100330000Y-151130000D01*
X102930000Y-152400000D02*
X102930000Y-153730000D01*
X102930000Y-153730000D02*
X101600000Y-153730000D01*
%TO.C,5V5*%
X181550000Y-36770000D02*
X181550000Y-41970000D01*
X191770000Y-39370000D02*
X191770000Y-41970000D01*
X191770000Y-41970000D02*
X181550000Y-41970000D01*
X194370000Y-36770000D02*
X181550000Y-36770000D01*
X194370000Y-36770000D02*
X194370000Y-39370000D01*
X194370000Y-39370000D02*
X191770000Y-39370000D01*
X194370000Y-40640000D02*
X194370000Y-41970000D01*
X194370000Y-41970000D02*
X193040000Y-41970000D01*
%TO.C,GND12*%
X212030000Y-148530000D02*
X212030000Y-153730000D01*
X222250000Y-151130000D02*
X222250000Y-153730000D01*
X222250000Y-153730000D02*
X212030000Y-153730000D01*
X224850000Y-148530000D02*
X212030000Y-148530000D01*
X224850000Y-148530000D02*
X224850000Y-151130000D01*
X224850000Y-151130000D02*
X222250000Y-151130000D01*
X224850000Y-152400000D02*
X224850000Y-153730000D01*
X224850000Y-153730000D02*
X223520000Y-153730000D01*
%TO.C,5V14*%
X39945000Y-151130000D02*
X39945000Y-140910000D01*
X39945000Y-153730000D02*
X39945000Y-152400000D01*
X41275000Y-153730000D02*
X39945000Y-153730000D01*
X42545000Y-151130000D02*
X39945000Y-151130000D01*
X42545000Y-153730000D02*
X42545000Y-151130000D01*
X45145000Y-140910000D02*
X39945000Y-140910000D01*
X45145000Y-153730000D02*
X42545000Y-153730000D01*
X45145000Y-153730000D02*
X45145000Y-140910000D01*
%TO.C,5V3*%
X120590000Y-36770000D02*
X120590000Y-41970000D01*
X130810000Y-39370000D02*
X130810000Y-41970000D01*
X130810000Y-41970000D02*
X120590000Y-41970000D01*
X133410000Y-36770000D02*
X120590000Y-36770000D01*
X133410000Y-36770000D02*
X133410000Y-39370000D01*
X133410000Y-39370000D02*
X130810000Y-39370000D01*
X133410000Y-40640000D02*
X133410000Y-41970000D01*
X133410000Y-41970000D02*
X132080000Y-41970000D01*
%TO.C,5V12*%
X212030000Y-105350000D02*
X212030000Y-110550000D01*
X222250000Y-107950000D02*
X222250000Y-110550000D01*
X222250000Y-110550000D02*
X212030000Y-110550000D01*
X224850000Y-105350000D02*
X212030000Y-105350000D01*
X224850000Y-105350000D02*
X224850000Y-107950000D01*
X224850000Y-107950000D02*
X222250000Y-107950000D01*
X224850000Y-109220000D02*
X224850000Y-110550000D01*
X224850000Y-110550000D02*
X223520000Y-110550000D01*
%TO.C,5V7*%
X59630000Y-105350000D02*
X59630000Y-110550000D01*
X69850000Y-107950000D02*
X69850000Y-110550000D01*
X69850000Y-110550000D02*
X59630000Y-110550000D01*
X72450000Y-105350000D02*
X59630000Y-105350000D01*
X72450000Y-105350000D02*
X72450000Y-107950000D01*
X72450000Y-107950000D02*
X69850000Y-107950000D01*
X72450000Y-109220000D02*
X72450000Y-110550000D01*
X72450000Y-110550000D02*
X71120000Y-110550000D01*
%TO.C,GND7*%
X59630000Y-148530000D02*
X59630000Y-153730000D01*
X69850000Y-151130000D02*
X69850000Y-153730000D01*
X69850000Y-153730000D02*
X59630000Y-153730000D01*
X72450000Y-148530000D02*
X59630000Y-148530000D01*
X72450000Y-148530000D02*
X72450000Y-151130000D01*
X72450000Y-151130000D02*
X69850000Y-151130000D01*
X72450000Y-152400000D02*
X72450000Y-153730000D01*
X72450000Y-153730000D02*
X71120000Y-153730000D01*
%TO.C,5V8*%
X90110000Y-105350000D02*
X90110000Y-110550000D01*
X100330000Y-107950000D02*
X100330000Y-110550000D01*
X100330000Y-110550000D02*
X90110000Y-110550000D01*
X102930000Y-105350000D02*
X90110000Y-105350000D01*
X102930000Y-105350000D02*
X102930000Y-107950000D01*
X102930000Y-107950000D02*
X100330000Y-107950000D01*
X102930000Y-109220000D02*
X102930000Y-110550000D01*
X102930000Y-110550000D02*
X101600000Y-110550000D01*
%TO.C,GND10*%
X151070000Y-148530000D02*
X151070000Y-153730000D01*
X161290000Y-151130000D02*
X161290000Y-153730000D01*
X161290000Y-153730000D02*
X151070000Y-153730000D01*
X163890000Y-148530000D02*
X151070000Y-148530000D01*
X163890000Y-148530000D02*
X163890000Y-151130000D01*
X163890000Y-151130000D02*
X161290000Y-151130000D01*
X163890000Y-152400000D02*
X163890000Y-153730000D01*
X163890000Y-153730000D02*
X162560000Y-153730000D01*
%TO.C,GND6*%
X212030000Y-79950000D02*
X212030000Y-85150000D01*
X222250000Y-82550000D02*
X222250000Y-85150000D01*
X222250000Y-85150000D02*
X212030000Y-85150000D01*
X224850000Y-79950000D02*
X212030000Y-79950000D01*
X224850000Y-79950000D02*
X224850000Y-82550000D01*
X224850000Y-82550000D02*
X222250000Y-82550000D01*
X224850000Y-83820000D02*
X224850000Y-85150000D01*
X224850000Y-85150000D02*
X223520000Y-85150000D01*
%TO.C,GND9*%
X120590000Y-148530000D02*
X120590000Y-153730000D01*
X130810000Y-151130000D02*
X130810000Y-153730000D01*
X130810000Y-153730000D02*
X120590000Y-153730000D01*
X133410000Y-148530000D02*
X120590000Y-148530000D01*
X133410000Y-148530000D02*
X133410000Y-151130000D01*
X133410000Y-151130000D02*
X130810000Y-151130000D01*
X133410000Y-152400000D02*
X133410000Y-153730000D01*
X133410000Y-153730000D02*
X132080000Y-153730000D01*
%TO.C,GND3*%
X120590000Y-79950000D02*
X120590000Y-85150000D01*
X130810000Y-82550000D02*
X130810000Y-85150000D01*
X130810000Y-85150000D02*
X120590000Y-85150000D01*
X133410000Y-79950000D02*
X120590000Y-79950000D01*
X133410000Y-79950000D02*
X133410000Y-82550000D01*
X133410000Y-82550000D02*
X130810000Y-82550000D01*
X133410000Y-83820000D02*
X133410000Y-85150000D01*
X133410000Y-85150000D02*
X132080000Y-85150000D01*
%TO.C,5V10*%
X151070000Y-105350000D02*
X151070000Y-110550000D01*
X161290000Y-107950000D02*
X161290000Y-110550000D01*
X161290000Y-110550000D02*
X151070000Y-110550000D01*
X163890000Y-105350000D02*
X151070000Y-105350000D01*
X163890000Y-105350000D02*
X163890000Y-107950000D01*
X163890000Y-107950000D02*
X161290000Y-107950000D01*
X163890000Y-109220000D02*
X163890000Y-110550000D01*
X163890000Y-110550000D02*
X162560000Y-110550000D01*
%TO.C,GND5*%
X181550000Y-79950000D02*
X181550000Y-85150000D01*
X191770000Y-82550000D02*
X191770000Y-85150000D01*
X191770000Y-85150000D02*
X181550000Y-85150000D01*
X194370000Y-79950000D02*
X181550000Y-79950000D01*
X194370000Y-79950000D02*
X194370000Y-82550000D01*
X194370000Y-82550000D02*
X191770000Y-82550000D01*
X194370000Y-83820000D02*
X194370000Y-85150000D01*
X194370000Y-85150000D02*
X193040000Y-85150000D01*
%TO.C,5V4*%
X151070000Y-36770000D02*
X151070000Y-41970000D01*
X161290000Y-39370000D02*
X161290000Y-41970000D01*
X161290000Y-41970000D02*
X151070000Y-41970000D01*
X163890000Y-36770000D02*
X151070000Y-36770000D01*
X163890000Y-36770000D02*
X163890000Y-39370000D01*
X163890000Y-39370000D02*
X161290000Y-39370000D01*
X163890000Y-40640000D02*
X163890000Y-41970000D01*
X163890000Y-41970000D02*
X162560000Y-41970000D01*
%TO.C,GND1*%
X59630000Y-79950000D02*
X59630000Y-85150000D01*
X69850000Y-82550000D02*
X69850000Y-85150000D01*
X69850000Y-85150000D02*
X59630000Y-85150000D01*
X72450000Y-79950000D02*
X59630000Y-79950000D01*
X72450000Y-79950000D02*
X72450000Y-82550000D01*
X72450000Y-82550000D02*
X69850000Y-82550000D01*
X72450000Y-83820000D02*
X72450000Y-85150000D01*
X72450000Y-85150000D02*
X71120000Y-85150000D01*
%TO.C,5V1*%
X59630000Y-36770000D02*
X59630000Y-41970000D01*
X69850000Y-39370000D02*
X69850000Y-41970000D01*
X69850000Y-41970000D02*
X59630000Y-41970000D01*
X72450000Y-36770000D02*
X59630000Y-36770000D01*
X72450000Y-36770000D02*
X72450000Y-39370000D01*
X72450000Y-39370000D02*
X69850000Y-39370000D01*
X72450000Y-40640000D02*
X72450000Y-41970000D01*
X72450000Y-41970000D02*
X71120000Y-41970000D01*
%TO.C,GND4*%
X151070000Y-79950000D02*
X151070000Y-85150000D01*
X161290000Y-82550000D02*
X161290000Y-85150000D01*
X161290000Y-85150000D02*
X151070000Y-85150000D01*
X163890000Y-79950000D02*
X151070000Y-79950000D01*
X163890000Y-79950000D02*
X163890000Y-82550000D01*
X163890000Y-82550000D02*
X161290000Y-82550000D01*
X163890000Y-83820000D02*
X163890000Y-85150000D01*
X163890000Y-85150000D02*
X162560000Y-85150000D01*
%TO.C,5V6*%
X212030000Y-36770000D02*
X212030000Y-41970000D01*
X222250000Y-39370000D02*
X222250000Y-41970000D01*
X222250000Y-41970000D02*
X212030000Y-41970000D01*
X224850000Y-36770000D02*
X212030000Y-36770000D01*
X224850000Y-36770000D02*
X224850000Y-39370000D01*
X224850000Y-39370000D02*
X222250000Y-39370000D01*
X224850000Y-40640000D02*
X224850000Y-41970000D01*
X224850000Y-41970000D02*
X223520000Y-41970000D01*
%TO.C,GND11*%
X181550000Y-148530000D02*
X181550000Y-153730000D01*
X191770000Y-151130000D02*
X191770000Y-153730000D01*
X191770000Y-153730000D02*
X181550000Y-153730000D01*
X194370000Y-148530000D02*
X181550000Y-148530000D01*
X194370000Y-148530000D02*
X194370000Y-151130000D01*
X194370000Y-151130000D02*
X191770000Y-151130000D01*
X194370000Y-152400000D02*
X194370000Y-153730000D01*
X194370000Y-153730000D02*
X193040000Y-153730000D01*
%TO.C,5V9*%
X120590000Y-105350000D02*
X120590000Y-110550000D01*
X130810000Y-107950000D02*
X130810000Y-110550000D01*
X130810000Y-110550000D02*
X120590000Y-110550000D01*
X133410000Y-105350000D02*
X120590000Y-105350000D01*
X133410000Y-105350000D02*
X133410000Y-107950000D01*
X133410000Y-107950000D02*
X130810000Y-107950000D01*
X133410000Y-109220000D02*
X133410000Y-110550000D01*
X133410000Y-110550000D02*
X132080000Y-110550000D01*
%TO.C,5V11*%
X181550000Y-105350000D02*
X181550000Y-110550000D01*
X191770000Y-107950000D02*
X191770000Y-110550000D01*
X191770000Y-110550000D02*
X181550000Y-110550000D01*
X194370000Y-105350000D02*
X181550000Y-105350000D01*
X194370000Y-105350000D02*
X194370000Y-107950000D01*
X194370000Y-107950000D02*
X191770000Y-107950000D01*
X194370000Y-109220000D02*
X194370000Y-110550000D01*
X194370000Y-110550000D02*
X193040000Y-110550000D01*
%TO.C,5V2*%
X90110000Y-36770000D02*
X90110000Y-41970000D01*
X100330000Y-39370000D02*
X100330000Y-41970000D01*
X100330000Y-41970000D02*
X90110000Y-41970000D01*
X102930000Y-36770000D02*
X90110000Y-36770000D01*
X102930000Y-36770000D02*
X102930000Y-39370000D01*
X102930000Y-39370000D02*
X100330000Y-39370000D01*
X102930000Y-40640000D02*
X102930000Y-41970000D01*
X102930000Y-41970000D02*
X101600000Y-41970000D01*
%TD*%
%LPC*%
D15*
%TO.C,J2*%
X40640000Y-130380000D03*
D16*
X40640000Y-133480000D03*
D15*
X40640000Y-122080000D03*
%TD*%
%TO.C,J1*%
X243840000Y-66880000D03*
D16*
X243840000Y-69980000D03*
D15*
X243840000Y-58580000D03*
%TD*%
D17*
%TO.C,GND2*%
X101600000Y-83820000D03*
D18*
X101600000Y-81280000D03*
X99060000Y-83820000D03*
X99060000Y-81280000D03*
X96520000Y-83820000D03*
X96520000Y-81280000D03*
X93980000Y-83820000D03*
X93980000Y-81280000D03*
X91440000Y-83820000D03*
X91440000Y-81280000D03*
%TD*%
%TO.C,5V13*%
X243205000Y-38100000D03*
X240665000Y-38100000D03*
X243205000Y-40640000D03*
X240665000Y-40640000D03*
X243205000Y-43180000D03*
X240665000Y-43180000D03*
X243205000Y-45720000D03*
X240665000Y-45720000D03*
X243205000Y-48260000D03*
D17*
X240665000Y-48260000D03*
%TD*%
%TO.C,GND8*%
X101600000Y-152400000D03*
D18*
X101600000Y-149860000D03*
X99060000Y-152400000D03*
X99060000Y-149860000D03*
X96520000Y-152400000D03*
X96520000Y-149860000D03*
X93980000Y-152400000D03*
X93980000Y-149860000D03*
X91440000Y-152400000D03*
X91440000Y-149860000D03*
%TD*%
D17*
%TO.C,5V5*%
X193040000Y-40640000D03*
D18*
X193040000Y-38100000D03*
X190500000Y-40640000D03*
X190500000Y-38100000D03*
X187960000Y-40640000D03*
X187960000Y-38100000D03*
X185420000Y-40640000D03*
X185420000Y-38100000D03*
X182880000Y-40640000D03*
X182880000Y-38100000D03*
%TD*%
D17*
%TO.C,GND12*%
X223520000Y-152400000D03*
D18*
X223520000Y-149860000D03*
X220980000Y-152400000D03*
X220980000Y-149860000D03*
X218440000Y-152400000D03*
X218440000Y-149860000D03*
X215900000Y-152400000D03*
X215900000Y-149860000D03*
X213360000Y-152400000D03*
X213360000Y-149860000D03*
%TD*%
D17*
%TO.C,5V14*%
X41275000Y-152400000D03*
D18*
X43815000Y-152400000D03*
X41275000Y-149860000D03*
X43815000Y-149860000D03*
X41275000Y-147320000D03*
X43815000Y-147320000D03*
X41275000Y-144780000D03*
X43815000Y-144780000D03*
X41275000Y-142240000D03*
X43815000Y-142240000D03*
%TD*%
D17*
%TO.C,5V3*%
X132080000Y-40640000D03*
D18*
X132080000Y-38100000D03*
X129540000Y-40640000D03*
X129540000Y-38100000D03*
X127000000Y-40640000D03*
X127000000Y-38100000D03*
X124460000Y-40640000D03*
X124460000Y-38100000D03*
X121920000Y-40640000D03*
X121920000Y-38100000D03*
%TD*%
D17*
%TO.C,5V12*%
X223520000Y-109220000D03*
D18*
X223520000Y-106680000D03*
X220980000Y-109220000D03*
X220980000Y-106680000D03*
X218440000Y-109220000D03*
X218440000Y-106680000D03*
X215900000Y-109220000D03*
X215900000Y-106680000D03*
X213360000Y-109220000D03*
X213360000Y-106680000D03*
%TD*%
D17*
%TO.C,5V7*%
X71120000Y-109220000D03*
D18*
X71120000Y-106680000D03*
X68580000Y-109220000D03*
X68580000Y-106680000D03*
X66040000Y-109220000D03*
X66040000Y-106680000D03*
X63500000Y-109220000D03*
X63500000Y-106680000D03*
X60960000Y-109220000D03*
X60960000Y-106680000D03*
%TD*%
D17*
%TO.C,GND7*%
X71120000Y-152400000D03*
D18*
X71120000Y-149860000D03*
X68580000Y-152400000D03*
X68580000Y-149860000D03*
X66040000Y-152400000D03*
X66040000Y-149860000D03*
X63500000Y-152400000D03*
X63500000Y-149860000D03*
X60960000Y-152400000D03*
X60960000Y-149860000D03*
%TD*%
D17*
%TO.C,5V8*%
X101600000Y-109220000D03*
D18*
X101600000Y-106680000D03*
X99060000Y-109220000D03*
X99060000Y-106680000D03*
X96520000Y-109220000D03*
X96520000Y-106680000D03*
X93980000Y-109220000D03*
X93980000Y-106680000D03*
X91440000Y-109220000D03*
X91440000Y-106680000D03*
%TD*%
D17*
%TO.C,GND10*%
X162560000Y-152400000D03*
D18*
X162560000Y-149860000D03*
X160020000Y-152400000D03*
X160020000Y-149860000D03*
X157480000Y-152400000D03*
X157480000Y-149860000D03*
X154940000Y-152400000D03*
X154940000Y-149860000D03*
X152400000Y-152400000D03*
X152400000Y-149860000D03*
%TD*%
D17*
%TO.C,GND6*%
X223520000Y-83820000D03*
D18*
X223520000Y-81280000D03*
X220980000Y-83820000D03*
X220980000Y-81280000D03*
X218440000Y-83820000D03*
X218440000Y-81280000D03*
X215900000Y-83820000D03*
X215900000Y-81280000D03*
X213360000Y-83820000D03*
X213360000Y-81280000D03*
%TD*%
D17*
%TO.C,GND9*%
X132080000Y-152400000D03*
D18*
X132080000Y-149860000D03*
X129540000Y-152400000D03*
X129540000Y-149860000D03*
X127000000Y-152400000D03*
X127000000Y-149860000D03*
X124460000Y-152400000D03*
X124460000Y-149860000D03*
X121920000Y-152400000D03*
X121920000Y-149860000D03*
%TD*%
D17*
%TO.C,GND3*%
X132080000Y-83820000D03*
D18*
X132080000Y-81280000D03*
X129540000Y-83820000D03*
X129540000Y-81280000D03*
X127000000Y-83820000D03*
X127000000Y-81280000D03*
X124460000Y-83820000D03*
X124460000Y-81280000D03*
X121920000Y-83820000D03*
X121920000Y-81280000D03*
%TD*%
D17*
%TO.C,5V10*%
X162560000Y-109220000D03*
D18*
X162560000Y-106680000D03*
X160020000Y-109220000D03*
X160020000Y-106680000D03*
X157480000Y-109220000D03*
X157480000Y-106680000D03*
X154940000Y-109220000D03*
X154940000Y-106680000D03*
X152400000Y-109220000D03*
X152400000Y-106680000D03*
%TD*%
D17*
%TO.C,GND5*%
X193040000Y-83820000D03*
D18*
X193040000Y-81280000D03*
X190500000Y-83820000D03*
X190500000Y-81280000D03*
X187960000Y-83820000D03*
X187960000Y-81280000D03*
X185420000Y-83820000D03*
X185420000Y-81280000D03*
X182880000Y-83820000D03*
X182880000Y-81280000D03*
%TD*%
D17*
%TO.C,5V4*%
X162560000Y-40640000D03*
D18*
X162560000Y-38100000D03*
X160020000Y-40640000D03*
X160020000Y-38100000D03*
X157480000Y-40640000D03*
X157480000Y-38100000D03*
X154940000Y-40640000D03*
X154940000Y-38100000D03*
X152400000Y-40640000D03*
X152400000Y-38100000D03*
%TD*%
D17*
%TO.C,GND1*%
X71120000Y-83820000D03*
D18*
X71120000Y-81280000D03*
X68580000Y-83820000D03*
X68580000Y-81280000D03*
X66040000Y-83820000D03*
X66040000Y-81280000D03*
X63500000Y-83820000D03*
X63500000Y-81280000D03*
X60960000Y-83820000D03*
X60960000Y-81280000D03*
%TD*%
D17*
%TO.C,5V1*%
X71120000Y-40640000D03*
D18*
X71120000Y-38100000D03*
X68580000Y-40640000D03*
X68580000Y-38100000D03*
X66040000Y-40640000D03*
X66040000Y-38100000D03*
X63500000Y-40640000D03*
X63500000Y-38100000D03*
X60960000Y-40640000D03*
X60960000Y-38100000D03*
%TD*%
D17*
%TO.C,GND4*%
X162560000Y-83820000D03*
D18*
X162560000Y-81280000D03*
X160020000Y-83820000D03*
X160020000Y-81280000D03*
X157480000Y-83820000D03*
X157480000Y-81280000D03*
X154940000Y-83820000D03*
X154940000Y-81280000D03*
X152400000Y-83820000D03*
X152400000Y-81280000D03*
%TD*%
D17*
%TO.C,5V6*%
X223520000Y-40640000D03*
D18*
X223520000Y-38100000D03*
X220980000Y-40640000D03*
X220980000Y-38100000D03*
X218440000Y-40640000D03*
X218440000Y-38100000D03*
X215900000Y-40640000D03*
X215900000Y-38100000D03*
X213360000Y-40640000D03*
X213360000Y-38100000D03*
%TD*%
D17*
%TO.C,GND11*%
X193040000Y-152400000D03*
D18*
X193040000Y-149860000D03*
X190500000Y-152400000D03*
X190500000Y-149860000D03*
X187960000Y-152400000D03*
X187960000Y-149860000D03*
X185420000Y-152400000D03*
X185420000Y-149860000D03*
X182880000Y-152400000D03*
X182880000Y-149860000D03*
%TD*%
D17*
%TO.C,5V9*%
X132080000Y-109220000D03*
D18*
X132080000Y-106680000D03*
X129540000Y-109220000D03*
X129540000Y-106680000D03*
X127000000Y-109220000D03*
X127000000Y-106680000D03*
X124460000Y-109220000D03*
X124460000Y-106680000D03*
X121920000Y-109220000D03*
X121920000Y-106680000D03*
%TD*%
D17*
%TO.C,5V11*%
X193040000Y-109220000D03*
D18*
X193040000Y-106680000D03*
X190500000Y-109220000D03*
X190500000Y-106680000D03*
X187960000Y-109220000D03*
X187960000Y-106680000D03*
X185420000Y-109220000D03*
X185420000Y-106680000D03*
X182880000Y-109220000D03*
X182880000Y-106680000D03*
%TD*%
D17*
%TO.C,5V2*%
X101600000Y-40640000D03*
D18*
X101600000Y-38100000D03*
X99060000Y-40640000D03*
X99060000Y-38100000D03*
X96520000Y-40640000D03*
X96520000Y-38100000D03*
X93980000Y-40640000D03*
X93980000Y-38100000D03*
X91440000Y-40640000D03*
X91440000Y-38100000D03*
%TD*%
%LPD*%
M02*
