%TF.GenerationSoftware,KiCad,Pcbnew,8.0.5*%
%TF.CreationDate,2024-11-10T12:33:03+05:30*%
%TF.ProjectId,base,62617365-2e6b-4696-9361-645f70636258,rev?*%
%TF.SameCoordinates,Original*%
%TF.FileFunction,Legend,Bot*%
%TF.FilePolarity,Positive*%
%FSLAX46Y46*%
G04 Gerber Fmt 4.6, Leading zero omitted, Abs format (unit mm)*
G04 Created by KiCad (PCBNEW 8.0.5) date 2024-11-10 12:33:03*
%MOMM*%
%LPD*%
G01*
G04 APERTURE LIST*
G04 Aperture macros list*
%AMRoundRect*
0 Rectangle with rounded corners*
0 $1 Rounding radius*
0 $2 $3 $4 $5 $6 $7 $8 $9 X,Y pos of 4 corners*
0 Add a 4 corners polygon primitive as box body*
4,1,4,$2,$3,$4,$5,$6,$7,$8,$9,$2,$3,0*
0 Add four circle primitives for the rounded corners*
1,1,$1+$1,$2,$3*
1,1,$1+$1,$4,$5*
1,1,$1+$1,$6,$7*
1,1,$1+$1,$8,$9*
0 Add four rect primitives between the rounded corners*
20,1,$1+$1,$2,$3,$4,$5,0*
20,1,$1+$1,$4,$5,$6,$7,0*
20,1,$1+$1,$6,$7,$8,$9,0*
20,1,$1+$1,$8,$9,$2,$3,0*%
G04 Aperture macros list end*
%ADD10RoundRect,0.650000X-0.650000X-0.650000X0.650000X-0.650000X0.650000X0.650000X-0.650000X0.650000X0*%
%ADD11O,3.100000X2.100000*%
%ADD12R,1.700000X1.700000*%
%ADD13O,1.700000X1.700000*%
G04 APERTURE END LIST*
%LPC*%
D10*
%TO.C,J4*%
X40640000Y-101600000D03*
D11*
X40640000Y-113000000D03*
D10*
X40640000Y-109900000D03*
%TD*%
%TO.C,J3*%
X243840000Y-88470000D03*
D11*
X243840000Y-91570000D03*
D10*
X243840000Y-80170000D03*
%TD*%
%TO.C,J2*%
X40640000Y-130380000D03*
D11*
X40640000Y-133480000D03*
D10*
X40640000Y-122080000D03*
%TD*%
%TO.C,J1*%
X243840000Y-66880000D03*
D11*
X243840000Y-69980000D03*
D10*
X243840000Y-58580000D03*
%TD*%
D12*
%TO.C,GND2*%
X101600000Y-83820000D03*
D13*
X101600000Y-81280000D03*
X99060000Y-83820000D03*
X99060000Y-81280000D03*
X96520000Y-83820000D03*
X96520000Y-81280000D03*
X93980000Y-83820000D03*
X93980000Y-81280000D03*
X91440000Y-83820000D03*
X91440000Y-81280000D03*
%TD*%
%TO.C,5V13*%
X243205000Y-38100000D03*
X240665000Y-38100000D03*
X243205000Y-40640000D03*
X240665000Y-40640000D03*
X243205000Y-43180000D03*
X240665000Y-43180000D03*
X243205000Y-45720000D03*
X240665000Y-45720000D03*
X243205000Y-48260000D03*
D12*
X240665000Y-48260000D03*
%TD*%
%TO.C,GND8*%
X101600000Y-152400000D03*
D13*
X101600000Y-149860000D03*
X99060000Y-152400000D03*
X99060000Y-149860000D03*
X96520000Y-152400000D03*
X96520000Y-149860000D03*
X93980000Y-152400000D03*
X93980000Y-149860000D03*
X91440000Y-152400000D03*
X91440000Y-149860000D03*
%TD*%
D12*
%TO.C,5V5*%
X193040000Y-40640000D03*
D13*
X193040000Y-38100000D03*
X190500000Y-40640000D03*
X190500000Y-38100000D03*
X187960000Y-40640000D03*
X187960000Y-38100000D03*
X185420000Y-40640000D03*
X185420000Y-38100000D03*
X182880000Y-40640000D03*
X182880000Y-38100000D03*
%TD*%
D12*
%TO.C,GND12*%
X223520000Y-152400000D03*
D13*
X223520000Y-149860000D03*
X220980000Y-152400000D03*
X220980000Y-149860000D03*
X218440000Y-152400000D03*
X218440000Y-149860000D03*
X215900000Y-152400000D03*
X215900000Y-149860000D03*
X213360000Y-152400000D03*
X213360000Y-149860000D03*
%TD*%
D12*
%TO.C,5V14*%
X41275000Y-152400000D03*
D13*
X43815000Y-152400000D03*
X41275000Y-149860000D03*
X43815000Y-149860000D03*
X41275000Y-147320000D03*
X43815000Y-147320000D03*
X41275000Y-144780000D03*
X43815000Y-144780000D03*
X41275000Y-142240000D03*
X43815000Y-142240000D03*
%TD*%
D12*
%TO.C,5V3*%
X132080000Y-40640000D03*
D13*
X132080000Y-38100000D03*
X129540000Y-40640000D03*
X129540000Y-38100000D03*
X127000000Y-40640000D03*
X127000000Y-38100000D03*
X124460000Y-40640000D03*
X124460000Y-38100000D03*
X121920000Y-40640000D03*
X121920000Y-38100000D03*
%TD*%
D12*
%TO.C,5V12*%
X223520000Y-109220000D03*
D13*
X223520000Y-106680000D03*
X220980000Y-109220000D03*
X220980000Y-106680000D03*
X218440000Y-109220000D03*
X218440000Y-106680000D03*
X215900000Y-109220000D03*
X215900000Y-106680000D03*
X213360000Y-109220000D03*
X213360000Y-106680000D03*
%TD*%
D12*
%TO.C,5V7*%
X71120000Y-109220000D03*
D13*
X71120000Y-106680000D03*
X68580000Y-109220000D03*
X68580000Y-106680000D03*
X66040000Y-109220000D03*
X66040000Y-106680000D03*
X63500000Y-109220000D03*
X63500000Y-106680000D03*
X60960000Y-109220000D03*
X60960000Y-106680000D03*
%TD*%
D12*
%TO.C,GND7*%
X71120000Y-152400000D03*
D13*
X71120000Y-149860000D03*
X68580000Y-152400000D03*
X68580000Y-149860000D03*
X66040000Y-152400000D03*
X66040000Y-149860000D03*
X63500000Y-152400000D03*
X63500000Y-149860000D03*
X60960000Y-152400000D03*
X60960000Y-149860000D03*
%TD*%
D12*
%TO.C,5V8*%
X101600000Y-109220000D03*
D13*
X101600000Y-106680000D03*
X99060000Y-109220000D03*
X99060000Y-106680000D03*
X96520000Y-109220000D03*
X96520000Y-106680000D03*
X93980000Y-109220000D03*
X93980000Y-106680000D03*
X91440000Y-109220000D03*
X91440000Y-106680000D03*
%TD*%
D12*
%TO.C,GND10*%
X162560000Y-152400000D03*
D13*
X162560000Y-149860000D03*
X160020000Y-152400000D03*
X160020000Y-149860000D03*
X157480000Y-152400000D03*
X157480000Y-149860000D03*
X154940000Y-152400000D03*
X154940000Y-149860000D03*
X152400000Y-152400000D03*
X152400000Y-149860000D03*
%TD*%
D12*
%TO.C,GND6*%
X223520000Y-83820000D03*
D13*
X223520000Y-81280000D03*
X220980000Y-83820000D03*
X220980000Y-81280000D03*
X218440000Y-83820000D03*
X218440000Y-81280000D03*
X215900000Y-83820000D03*
X215900000Y-81280000D03*
X213360000Y-83820000D03*
X213360000Y-81280000D03*
%TD*%
D12*
%TO.C,GND9*%
X132080000Y-152400000D03*
D13*
X132080000Y-149860000D03*
X129540000Y-152400000D03*
X129540000Y-149860000D03*
X127000000Y-152400000D03*
X127000000Y-149860000D03*
X124460000Y-152400000D03*
X124460000Y-149860000D03*
X121920000Y-152400000D03*
X121920000Y-149860000D03*
%TD*%
D12*
%TO.C,GND3*%
X132080000Y-83820000D03*
D13*
X132080000Y-81280000D03*
X129540000Y-83820000D03*
X129540000Y-81280000D03*
X127000000Y-83820000D03*
X127000000Y-81280000D03*
X124460000Y-83820000D03*
X124460000Y-81280000D03*
X121920000Y-83820000D03*
X121920000Y-81280000D03*
%TD*%
D12*
%TO.C,5V10*%
X162560000Y-109220000D03*
D13*
X162560000Y-106680000D03*
X160020000Y-109220000D03*
X160020000Y-106680000D03*
X157480000Y-109220000D03*
X157480000Y-106680000D03*
X154940000Y-109220000D03*
X154940000Y-106680000D03*
X152400000Y-109220000D03*
X152400000Y-106680000D03*
%TD*%
D12*
%TO.C,GND5*%
X193040000Y-83820000D03*
D13*
X193040000Y-81280000D03*
X190500000Y-83820000D03*
X190500000Y-81280000D03*
X187960000Y-83820000D03*
X187960000Y-81280000D03*
X185420000Y-83820000D03*
X185420000Y-81280000D03*
X182880000Y-83820000D03*
X182880000Y-81280000D03*
%TD*%
D12*
%TO.C,5V4*%
X162560000Y-40640000D03*
D13*
X162560000Y-38100000D03*
X160020000Y-40640000D03*
X160020000Y-38100000D03*
X157480000Y-40640000D03*
X157480000Y-38100000D03*
X154940000Y-40640000D03*
X154940000Y-38100000D03*
X152400000Y-40640000D03*
X152400000Y-38100000D03*
%TD*%
D12*
%TO.C,GND1*%
X71120000Y-83820000D03*
D13*
X71120000Y-81280000D03*
X68580000Y-83820000D03*
X68580000Y-81280000D03*
X66040000Y-83820000D03*
X66040000Y-81280000D03*
X63500000Y-83820000D03*
X63500000Y-81280000D03*
X60960000Y-83820000D03*
X60960000Y-81280000D03*
%TD*%
D12*
%TO.C,5V1*%
X71120000Y-40640000D03*
D13*
X71120000Y-38100000D03*
X68580000Y-40640000D03*
X68580000Y-38100000D03*
X66040000Y-40640000D03*
X66040000Y-38100000D03*
X63500000Y-40640000D03*
X63500000Y-38100000D03*
X60960000Y-40640000D03*
X60960000Y-38100000D03*
%TD*%
D12*
%TO.C,GND4*%
X162560000Y-83820000D03*
D13*
X162560000Y-81280000D03*
X160020000Y-83820000D03*
X160020000Y-81280000D03*
X157480000Y-83820000D03*
X157480000Y-81280000D03*
X154940000Y-83820000D03*
X154940000Y-81280000D03*
X152400000Y-83820000D03*
X152400000Y-81280000D03*
%TD*%
D12*
%TO.C,5V6*%
X223520000Y-40640000D03*
D13*
X223520000Y-38100000D03*
X220980000Y-40640000D03*
X220980000Y-38100000D03*
X218440000Y-40640000D03*
X218440000Y-38100000D03*
X215900000Y-40640000D03*
X215900000Y-38100000D03*
X213360000Y-40640000D03*
X213360000Y-38100000D03*
%TD*%
D12*
%TO.C,GND11*%
X193040000Y-152400000D03*
D13*
X193040000Y-149860000D03*
X190500000Y-152400000D03*
X190500000Y-149860000D03*
X187960000Y-152400000D03*
X187960000Y-149860000D03*
X185420000Y-152400000D03*
X185420000Y-149860000D03*
X182880000Y-152400000D03*
X182880000Y-149860000D03*
%TD*%
D12*
%TO.C,5V9*%
X132080000Y-109220000D03*
D13*
X132080000Y-106680000D03*
X129540000Y-109220000D03*
X129540000Y-106680000D03*
X127000000Y-109220000D03*
X127000000Y-106680000D03*
X124460000Y-109220000D03*
X124460000Y-106680000D03*
X121920000Y-109220000D03*
X121920000Y-106680000D03*
%TD*%
D12*
%TO.C,5V11*%
X193040000Y-109220000D03*
D13*
X193040000Y-106680000D03*
X190500000Y-109220000D03*
X190500000Y-106680000D03*
X187960000Y-109220000D03*
X187960000Y-106680000D03*
X185420000Y-109220000D03*
X185420000Y-106680000D03*
X182880000Y-109220000D03*
X182880000Y-106680000D03*
%TD*%
D12*
%TO.C,5V2*%
X101600000Y-40640000D03*
D13*
X101600000Y-38100000D03*
X99060000Y-40640000D03*
X99060000Y-38100000D03*
X96520000Y-40640000D03*
X96520000Y-38100000D03*
X93980000Y-40640000D03*
X93980000Y-38100000D03*
X91440000Y-40640000D03*
X91440000Y-38100000D03*
%TD*%
%LPD*%
M02*
