M48
; DRILL file {KiCad 8.0.5} date 2024-11-10T10:57:10+0530
; FORMAT={-:-/ absolute / inch / decimal}
; #@! TF.CreationDate,2024-11-10T10:57:10+05:30
; #@! TF.GenerationSoftware,Kicad,Pcbnew,8.0.5
; #@! TF.FileFunction,Plated,1,2,PTH
FMAT,2
INCH
; #@! TA.AperFunction,Plated,PTH,ComponentDrill
T1C0.0236
; #@! TA.AperFunction,Plated,PTH,ComponentDrill
T2C0.0394
; #@! TA.AperFunction,Plated,PTH,ViaDrill
T3C0.1260
%
G90
G05
T2
X1.625Y-5.6
X1.625Y-5.7
X1.625Y-5.8
X1.625Y-5.9
X1.625Y-6.0
X1.725Y-5.6
X1.725Y-5.7
X1.725Y-5.8
X1.725Y-5.9
X1.725Y-6.0
X2.4Y-1.5
X2.4Y-1.6
X2.4Y-3.2
X2.4Y-3.3
X2.4Y-4.2
X2.4Y-4.3
X2.4Y-5.9
X2.4Y-6.0
X2.5Y-1.5
X2.5Y-1.6
X2.5Y-3.2
X2.5Y-3.3
X2.5Y-4.2
X2.5Y-4.3
X2.5Y-5.9
X2.5Y-6.0
X2.6Y-1.5
X2.6Y-1.6
X2.6Y-3.2
X2.6Y-3.3
X2.6Y-4.2
X2.6Y-4.3
X2.6Y-5.9
X2.6Y-6.0
X2.7Y-1.5
X2.7Y-1.6
X2.7Y-3.2
X2.7Y-3.3
X2.7Y-4.2
X2.7Y-4.3
X2.7Y-5.9
X2.7Y-6.0
X2.8Y-1.5
X2.8Y-1.6
X2.8Y-3.2
X2.8Y-3.3
X2.8Y-4.2
X2.8Y-4.3
X2.8Y-5.9
X2.8Y-6.0
X3.6Y-1.5
X3.6Y-1.6
X3.6Y-3.2
X3.6Y-3.3
X3.6Y-4.2
X3.6Y-4.3
X3.6Y-5.9
X3.6Y-6.0
X3.7Y-1.5
X3.7Y-1.6
X3.7Y-3.2
X3.7Y-3.3
X3.7Y-4.2
X3.7Y-4.3
X3.7Y-5.9
X3.7Y-6.0
X3.8Y-1.5
X3.8Y-1.6
X3.8Y-3.2
X3.8Y-3.3
X3.8Y-4.2
X3.8Y-4.3
X3.8Y-5.9
X3.8Y-6.0
X3.9Y-1.5
X3.9Y-1.6
X3.9Y-3.2
X3.9Y-3.3
X3.9Y-4.2
X3.9Y-4.3
X3.9Y-5.9
X3.9Y-6.0
X4.0Y-1.5
X4.0Y-1.6
X4.0Y-3.2
X4.0Y-3.3
X4.0Y-4.2
X4.0Y-4.3
X4.0Y-5.9
X4.0Y-6.0
X4.8Y-1.5
X4.8Y-1.6
X4.8Y-3.2
X4.8Y-3.3
X4.8Y-4.2
X4.8Y-4.3
X4.8Y-5.9
X4.8Y-6.0
X4.9Y-1.5
X4.9Y-1.6
X4.9Y-3.2
X4.9Y-3.3
X4.9Y-4.2
X4.9Y-4.3
X4.9Y-5.9
X4.9Y-6.0
X5.0Y-1.5
X5.0Y-1.6
X5.0Y-3.2
X5.0Y-3.3
X5.0Y-4.2
X5.0Y-4.3
X5.0Y-5.9
X5.0Y-6.0
X5.1Y-1.5
X5.1Y-1.6
X5.1Y-3.2
X5.1Y-3.3
X5.1Y-4.2
X5.1Y-4.3
X5.1Y-5.9
X5.1Y-6.0
X5.2Y-1.5
X5.2Y-1.6
X5.2Y-3.2
X5.2Y-3.3
X5.2Y-4.2
X5.2Y-4.3
X5.2Y-5.9
X5.2Y-6.0
X6.0Y-1.5
X6.0Y-1.6
X6.0Y-3.2
X6.0Y-3.3
X6.0Y-4.2
X6.0Y-4.3
X6.0Y-5.9
X6.0Y-6.0
X6.1Y-1.5
X6.1Y-1.6
X6.1Y-3.2
X6.1Y-3.3
X6.1Y-4.2
X6.1Y-4.3
X6.1Y-5.9
X6.1Y-6.0
X6.2Y-1.5
X6.2Y-1.6
X6.2Y-3.2
X6.2Y-3.3
X6.2Y-4.2
X6.2Y-4.3
X6.2Y-5.9
X6.2Y-6.0
X6.3Y-1.5
X6.3Y-1.6
X6.3Y-3.2
X6.3Y-3.3
X6.3Y-4.2
X6.3Y-4.3
X6.3Y-5.9
X6.3Y-6.0
X6.4Y-1.5
X6.4Y-1.6
X6.4Y-3.2
X6.4Y-3.3
X6.4Y-4.2
X6.4Y-4.3
X6.4Y-5.9
X6.4Y-6.0
X7.2Y-1.5
X7.2Y-1.6
X7.2Y-3.2
X7.2Y-3.3
X7.2Y-4.2
X7.2Y-4.3
X7.2Y-5.9
X7.2Y-6.0
X7.3Y-1.5
X7.3Y-1.6
X7.3Y-3.2
X7.3Y-3.3
X7.3Y-4.2
X7.3Y-4.3
X7.3Y-5.9
X7.3Y-6.0
X7.4Y-1.5
X7.4Y-1.6
X7.4Y-3.2
X7.4Y-3.3
X7.4Y-4.2
X7.4Y-4.3
X7.4Y-5.9
X7.4Y-6.0
X7.5Y-1.5
X7.5Y-1.6
X7.5Y-3.2
X7.5Y-3.3
X7.5Y-4.2
X7.5Y-4.3
X7.5Y-5.9
X7.5Y-6.0
X7.6Y-1.5
X7.6Y-1.6
X7.6Y-3.2
X7.6Y-3.3
X7.6Y-4.2
X7.6Y-4.3
X7.6Y-5.9
X7.6Y-6.0
X8.4Y-1.5
X8.4Y-1.6
X8.4Y-3.2
X8.4Y-3.3
X8.4Y-4.2
X8.4Y-4.3
X8.4Y-5.9
X8.4Y-6.0
X8.5Y-1.5
X8.5Y-1.6
X8.5Y-3.2
X8.5Y-3.3
X8.5Y-4.2
X8.5Y-4.3
X8.5Y-5.9
X8.5Y-6.0
X8.6Y-1.5
X8.6Y-1.6
X8.6Y-3.2
X8.6Y-3.3
X8.6Y-4.2
X8.6Y-4.3
X8.6Y-5.9
X8.6Y-6.0
X8.7Y-1.5
X8.7Y-1.6
X8.7Y-3.2
X8.7Y-3.3
X8.7Y-4.2
X8.7Y-4.3
X8.7Y-5.9
X8.7Y-6.0
X8.8Y-1.5
X8.8Y-1.6
X8.8Y-3.2
X8.8Y-3.3
X8.8Y-4.2
X8.8Y-4.3
X8.8Y-5.9
X8.8Y-6.0
X9.475Y-1.5
X9.475Y-1.6
X9.475Y-1.7
X9.475Y-1.8
X9.475Y-1.9
X9.575Y-1.5
X9.575Y-1.6
X9.575Y-1.7
X9.575Y-1.8
X9.575Y-1.9
T3
X1.5Y-1.0
X1.5Y-6.7
X2.6558Y-1.225
X2.6558Y-3.925
X2.6718Y-3.675
X2.6718Y-6.375
X3.8558Y-1.225
X3.8558Y-3.925
X3.8718Y-3.675
X3.8718Y-6.375
X5.0558Y-1.225
X5.0558Y-3.925
X5.0718Y-3.675
X5.0718Y-6.375
X6.2558Y-1.225
X6.2558Y-3.925
X6.2718Y-3.675
X6.2718Y-6.375
X7.4558Y-1.225
X7.4558Y-3.925
X7.4718Y-3.675
X7.4718Y-6.375
X8.6558Y-1.225
X8.6558Y-3.925
X8.6718Y-3.675
X8.6718Y-6.375
X9.7Y-1.0
X9.7Y-6.7
T1
G00X1.5803Y-4.8063
M15
G01X1.6197Y-4.8063
M16
G05
G00X1.5803Y-5.1331
M15
G01X1.6197Y-5.1331
M16
G05
G00X1.5803Y-5.2551
M15
G01X1.6197Y-5.2551
M16
G05
G00X9.5803Y-2.3063
M15
G01X9.6197Y-2.3063
M16
G05
G00X9.5803Y-2.6331
M15
G01X9.6197Y-2.6331
M16
G05
G00X9.5803Y-2.7551
M15
G01X9.6197Y-2.7551
M16
G05
M30
