M48
; DRILL file {KiCad 8.0.5} date 2024-11-15T23:36:42+0530
; FORMAT={-:-/ absolute / inch / decimal}
; #@! TF.CreationDate,2024-11-15T23:36:42+05:30
; #@! TF.GenerationSoftware,Kicad,Pcbnew,8.0.5
; #@! TF.FileFunction,Plated,1,2,PTH
FMAT,2
INCH
; #@! TA.AperFunction,Plated,PTH,ViaDrill
T1C0.0118
; #@! TA.AperFunction,Plated,PTH,ComponentDrill
T2C0.0394
; #@! TA.AperFunction,Plated,PTH,ComponentDrill
T3C0.0433
; #@! TA.AperFunction,Plated,PTH,ViaDrill
T4C0.1260
%
G90
G05
T1
X1.975Y-2.925
X1.975Y-3.825
X1.975Y-4.1
X2.025Y-2.9949
X2.0474Y-3.675
X2.0777Y-3.0973
X2.08Y-3.8
X2.125Y-2.7026
X2.125Y-3.65
X2.125Y-4.175
X2.15Y-3.925
X2.1979Y-2.575
X2.225Y-2.75
X2.225Y-2.9949
X2.275Y-4.175
X2.35Y-3.9026
X2.375Y-2.85
X2.425Y-3.05
X2.4337Y-2.6947
X2.5Y-2.725
X2.525Y-3.9276
X2.6039Y-4.0039
X2.6276Y-2.925
X2.6625Y-4.1375
X2.675Y-3.05
X2.725Y-3.025
X2.725Y-3.725
X2.725Y-4.125
X2.775Y-3.825
X2.825Y-3.575
X2.85Y-2.725
X2.875Y-2.575
X2.9Y-3.0
X2.9Y-3.875
X2.95Y-2.7
X2.9526Y-3.575
X2.975Y-2.575
T2
X1.975Y-2.25
X1.975Y-2.35
X1.975Y-2.45
X1.975Y-3.2
X1.975Y-3.3
X1.975Y-3.4
X2.2Y-2.0
X2.2Y-3.8
X2.3Y-2.0
X2.3Y-3.8
X2.3516Y-2.6254
X2.3516Y-3.5754
X2.4Y-2.0
X2.4Y-3.8
X2.45Y-2.6254
X2.45Y-3.5754
X2.5Y-2.0
X2.5Y-3.8
X2.5484Y-2.6254
X2.5484Y-3.5754
X2.6Y-2.0
X2.6Y-3.8
X2.925Y-3.2
X2.925Y-3.3
X2.925Y-3.4
X2.926Y-2.2506
X2.926Y-2.3506
X2.926Y-2.4506
T4
X2.4558Y-1.725
X2.4558Y-1.725
X2.4558Y-1.725
X2.4558Y-1.725
X2.4718Y-4.175
T3
G00X2.261Y-2.3537
M15
G01X2.261Y-2.3065
M16
G05
G00X2.261Y-3.3037
M15
G01X2.261Y-3.2565
M16
G05
G00X2.639Y-2.3537
M15
G01X2.639Y-2.3065
M16
G05
G00X2.639Y-3.3037
M15
G01X2.639Y-3.2565
M16
G05
M30
