%TF.GenerationSoftware,KiCad,Pcbnew,8.0.5*%
%TF.CreationDate,2024-11-15T23:36:42+05:30*%
%TF.ProjectId,buff_mix,62756666-5f6d-4697-982e-6b696361645f,rev?*%
%TF.SameCoordinates,Original*%
%TF.FileFunction,Copper,L2,Bot*%
%TF.FilePolarity,Positive*%
%FSLAX46Y46*%
G04 Gerber Fmt 4.6, Leading zero omitted, Abs format (unit mm)*
G04 Created by KiCad (PCBNEW 8.0.5) date 2024-11-15 23:36:42*
%MOMM*%
%LPD*%
G01*
G04 APERTURE LIST*
%TA.AperFunction,Conductor*%
%ADD10C,0.200000*%
%TD*%
%TA.AperFunction,ComponentPad*%
%ADD11R,1.800000X1.800000*%
%TD*%
%TA.AperFunction,ComponentPad*%
%ADD12C,1.800000*%
%TD*%
%TA.AperFunction,ComponentPad*%
%ADD13O,2.720000X3.240000*%
%TD*%
%TA.AperFunction,ComponentPad*%
%ADD14R,1.700000X1.700000*%
%TD*%
%TA.AperFunction,ComponentPad*%
%ADD15O,1.700000X1.700000*%
%TD*%
%TA.AperFunction,ViaPad*%
%ADD16C,0.700000*%
%TD*%
%TA.AperFunction,ViaPad*%
%ADD17C,4.000000*%
%TD*%
%TA.AperFunction,Conductor*%
%ADD18C,0.300000*%
%TD*%
%TA.AperFunction,Conductor*%
%ADD19C,0.500000*%
%TD*%
G04 APERTURE END LIST*
D10*
%TO.N,GND*%
X67945000Y-98425000D02*
X53975000Y-98425000D01*
X53975000Y-94615000D01*
X67945000Y-94615000D01*
X67945000Y-98425000D01*
%TA.AperFunction,Conductor*%
G36*
X67945000Y-98425000D02*
G01*
X53975000Y-98425000D01*
X53975000Y-94615000D01*
X67945000Y-94615000D01*
X67945000Y-98425000D01*
G37*
%TD.AperFunction*%
%TO.N,+5V*%
X67945000Y-52705000D02*
X53975000Y-52705000D01*
X53975000Y-48895000D01*
X67945000Y-48895000D01*
X67945000Y-52705000D01*
%TA.AperFunction,Conductor*%
G36*
X67945000Y-52705000D02*
G01*
X53975000Y-52705000D01*
X53975000Y-48895000D01*
X67945000Y-48895000D01*
X67945000Y-52705000D01*
G37*
%TD.AperFunction*%
%TO.N,+2.5V*%
X64135000Y-78105000D02*
X59055000Y-78105000D01*
X59055000Y-75565000D01*
X64135000Y-75565000D01*
X64135000Y-78105000D01*
%TA.AperFunction,Conductor*%
G36*
X64135000Y-78105000D02*
G01*
X59055000Y-78105000D01*
X59055000Y-75565000D01*
X64135000Y-75565000D01*
X64135000Y-78105000D01*
G37*
%TD.AperFunction*%
%TD*%
D11*
%TO.P,RV2,1,1*%
%TO.N,unconnected-(RV2-Pad1)*%
X59730000Y-90815000D03*
D12*
%TO.P,RV2,3,3*%
%TO.N,Net-(U3B--)*%
X64730000Y-90815000D03*
%TO.P,RV2,2,2*%
%TO.N,Net-(R14-Pad2)*%
X62230000Y-90815000D03*
D13*
%TO.P,RV2,*%
%TO.N,*%
X67030000Y-83315000D03*
X57430000Y-83315000D03*
%TD*%
D11*
%TO.P,RV1,1,1*%
%TO.N,unconnected-(RV1-Pad1)*%
X59730000Y-66685000D03*
D12*
%TO.P,RV1,3,3*%
%TO.N,Net-(U1B--)*%
X64730000Y-66685000D03*
%TO.P,RV1,2,2*%
%TO.N,Net-(R1-Pad2)*%
X62230000Y-66685000D03*
D13*
%TO.P,RV1,*%
%TO.N,*%
X67030000Y-59185000D03*
X57430000Y-59185000D03*
%TD*%
D14*
%TO.P,OUT2,1,Pin_1*%
%TO.N,OUTB*%
X74295000Y-81280000D03*
D15*
%TO.P,OUT2,2,Pin_2*%
X74295000Y-83820000D03*
%TO.P,OUT2,3,Pin_3*%
X74295000Y-86360000D03*
%TD*%
D14*
%TO.P,OUT1,1,Pin_1*%
%TO.N,OUTA*%
X74320000Y-57165000D03*
D15*
%TO.P,OUT1,2,Pin_2*%
X74320000Y-59705000D03*
%TO.P,OUT1,3,Pin_3*%
X74320000Y-62245000D03*
%TD*%
%TO.P,IN2,3,Pin_3*%
%TO.N,INB_3*%
X50165000Y-86360000D03*
%TO.P,IN2,2,Pin_2*%
%TO.N,INB_2*%
X50165000Y-83820000D03*
D14*
%TO.P,IN2,1,Pin_1*%
%TO.N,INB_1*%
X50165000Y-81280000D03*
%TD*%
%TO.P,IN1,1,Pin_1*%
%TO.N,INA_1*%
X50165000Y-57150000D03*
D15*
%TO.P,IN1,2,Pin_2*%
%TO.N,INA_2*%
X50165000Y-59690000D03*
%TO.P,IN1,3,Pin_3*%
%TO.N,INA_3*%
X50165000Y-62230000D03*
%TD*%
%TO.P,GND1,5,Pin_5*%
%TO.N,GND*%
X66040000Y-96520000D03*
%TO.P,GND1,4,Pin_4*%
X63500000Y-96520000D03*
%TO.P,GND1,3,Pin_3*%
X60960000Y-96520000D03*
%TO.P,GND1,2,Pin_2*%
X58420000Y-96520000D03*
D14*
%TO.P,GND1,1,Pin_1*%
X55880000Y-96520000D03*
%TD*%
%TO.P,5V1,1,Pin_1*%
%TO.N,+5V*%
X55880000Y-50800000D03*
D15*
%TO.P,5V1,2,Pin_2*%
X58420000Y-50800000D03*
%TO.P,5V1,3,Pin_3*%
X60960000Y-50800000D03*
%TO.P,5V1,4,Pin_4*%
X63500000Y-50800000D03*
%TO.P,5V1,5,Pin_5*%
X66040000Y-50800000D03*
%TD*%
D16*
%TO.N,Net-(U3B--)*%
X71755000Y-90805000D03*
X74995000Y-90805000D03*
%TO.N,Net-(U1B--)*%
X73025000Y-65405000D03*
X75565000Y-65405000D03*
%TO.N,GND*%
X53975000Y-106045000D03*
X50165000Y-97155000D03*
%TO.N,+5V*%
X54610000Y-99695000D03*
%TO.N,+2.5V*%
X50165000Y-74295000D03*
X66140000Y-101700000D03*
X50165000Y-104140000D03*
X57785000Y-106045000D03*
X69215000Y-104775000D03*
%TO.N,GND*%
X70485000Y-97155000D03*
X67627500Y-105092500D03*
%TO.N,+5V*%
X73660000Y-98425000D03*
X56515000Y-69850000D03*
%TO.N,GND*%
X53975000Y-68645000D03*
X51435000Y-76070000D03*
%TO.N,+2.5V*%
X56515000Y-76070000D03*
X61595000Y-77470000D03*
%TO.N,+5V*%
X52774314Y-78670686D03*
%TO.N,GND*%
X67945000Y-77470000D03*
%TO.N,+2.5V*%
X73660000Y-76200000D03*
%TO.N,+5V*%
X74930000Y-68580000D03*
%TO.N,GND*%
X69215000Y-76835000D03*
X72390000Y-69215000D03*
%TO.N,Net-(R14-Pad2)*%
X53975000Y-92710000D03*
X52005000Y-93345000D03*
X52832000Y-96520000D03*
X59690000Y-99125000D03*
X64135000Y-99760000D03*
X69215000Y-94615000D03*
%TO.N,Net-(R1-Pad2)*%
X61814975Y-68445025D03*
X55827342Y-65405000D03*
X63500000Y-69215000D03*
X60325000Y-72390000D03*
%TO.N,+2.5V*%
X66740000Y-74295000D03*
D17*
%TO.N,*%
X62377580Y-43815000D03*
X62377580Y-43815000D03*
X62377580Y-43815000D03*
X62377580Y-43815000D03*
X62784908Y-106045000D03*
%TD*%
D18*
%TO.N,Net-(R14-Pad2)*%
X52832000Y-96520000D02*
X52832000Y-97918396D01*
X53908604Y-98995000D02*
X59560000Y-98995000D01*
X52832000Y-97918396D02*
X53908604Y-98995000D01*
X59560000Y-98995000D02*
X59690000Y-99125000D01*
D19*
%TO.N,GND*%
X53975000Y-106045000D02*
X51435000Y-103505000D01*
X51435000Y-103505000D02*
X51435000Y-95885000D01*
X51435000Y-95885000D02*
X52070000Y-95250000D01*
X52070000Y-95250000D02*
X54610000Y-95250000D01*
X54610000Y-95250000D02*
X55880000Y-96520000D01*
D18*
%TO.N,Net-(R14-Pad2)*%
X64135000Y-99760000D02*
X68515000Y-99760000D01*
X68515000Y-99760000D02*
X69215000Y-99060000D01*
X69215000Y-99060000D02*
X69215000Y-94615000D01*
D19*
%TO.N,GND*%
X70485000Y-97155000D02*
X70485000Y-99695000D01*
X70485000Y-99695000D02*
X69280000Y-100900000D01*
X69280000Y-100900000D02*
X64835000Y-100900000D01*
X64835000Y-100900000D02*
X64770000Y-100965000D01*
X64770000Y-100965000D02*
X64770000Y-102235000D01*
X64770000Y-102235000D02*
X67627500Y-105092500D01*
D18*
%TO.N,Net-(U3B--)*%
X74995000Y-90805000D02*
X71755000Y-90805000D01*
%TO.N,Net-(U1B--)*%
X75565000Y-65405000D02*
X73025000Y-65405000D01*
D19*
%TO.N,+5V*%
X74295000Y-66675000D02*
X72390000Y-66675000D01*
X75860000Y-68240000D02*
X74295000Y-66675000D01*
X72390000Y-66675000D02*
X67945000Y-62230000D01*
X67945000Y-62230000D02*
X64135000Y-62230000D01*
X73660000Y-98425000D02*
X73660000Y-94260050D01*
X70550000Y-91150050D02*
X70550000Y-80580000D01*
X64135000Y-52705000D02*
X66040000Y-50800000D01*
X70550000Y-80580000D02*
X72730000Y-78400000D01*
X72730000Y-78400000D02*
X74635000Y-78400000D01*
X73660000Y-94260050D02*
X70550000Y-91150050D01*
X74635000Y-78400000D02*
X75860000Y-77175000D01*
X64135000Y-62230000D02*
X64135000Y-52705000D01*
X75860000Y-77175000D02*
X75860000Y-68240000D01*
X74930000Y-68580000D02*
X74065000Y-67715000D01*
X74065000Y-67715000D02*
X72160000Y-67715000D01*
X67310000Y-62865000D02*
X63500000Y-62865000D01*
X72160000Y-67715000D02*
X67310000Y-62865000D01*
X63500000Y-62865000D02*
X63500000Y-50800000D01*
%TO.N,+2.5V*%
X69215000Y-104775000D02*
X72860000Y-101130000D01*
X74281321Y-77700000D02*
X75160000Y-76821321D01*
X69850000Y-91440000D02*
X69850000Y-80010000D01*
X69850000Y-80010000D02*
X72160000Y-77700000D01*
X72860000Y-101130000D02*
X72860000Y-94450000D01*
X72860000Y-94450000D02*
X69850000Y-91440000D01*
X75160000Y-76821321D02*
X75160000Y-70218629D01*
X72160000Y-77700000D02*
X74281321Y-77700000D01*
X73356371Y-68415000D02*
X70650000Y-68415000D01*
X75160000Y-70218629D02*
X73356371Y-68415000D01*
X70650000Y-68415000D02*
X61595000Y-77470000D01*
%TO.N,+5V*%
X56515000Y-69850000D02*
X56515000Y-69063679D01*
X56515000Y-69063679D02*
X54126321Y-66675000D01*
X54126321Y-66675000D02*
X53975000Y-66675000D01*
X53975000Y-66675000D02*
X53975000Y-53975000D01*
X53975000Y-53975000D02*
X55880000Y-52070000D01*
X55880000Y-52070000D02*
X55880000Y-50800000D01*
D18*
%TO.N,Net-(R1-Pad2)*%
X55827342Y-65405000D02*
X60272342Y-69850000D01*
X60272342Y-69850000D02*
X60410000Y-69850000D01*
X60410000Y-69850000D02*
X61814975Y-68445025D01*
D19*
%TO.N,+5V*%
X54610000Y-99695000D02*
X58585000Y-103670000D01*
X58585000Y-103670000D02*
X58585000Y-106376371D01*
X58585000Y-106376371D02*
X57416371Y-107545000D01*
X48665000Y-94080000D02*
X53845000Y-88900000D01*
X51815050Y-77570000D02*
X49555100Y-77570000D01*
X57416371Y-107545000D02*
X51310050Y-107545000D01*
X51310050Y-107545000D02*
X48665000Y-104899950D01*
X48665000Y-104899950D02*
X48665000Y-94080000D01*
X53845000Y-88900000D02*
X53845000Y-79599950D01*
X53845000Y-79599950D02*
X51815050Y-77570000D01*
X47965000Y-72533679D02*
X48375051Y-72123629D01*
X53264340Y-53415660D02*
X55880000Y-50800000D01*
X49555100Y-77570000D02*
X47965000Y-75979900D01*
X47965000Y-75979900D02*
X47965000Y-72533679D01*
X48375051Y-72123629D02*
X53264340Y-67234340D01*
X53264340Y-67234340D02*
X53264340Y-53415660D01*
%TO.N,+2.5V*%
X50165000Y-104140000D02*
X49365000Y-103340000D01*
X54545000Y-89673629D02*
X54545000Y-79310000D01*
X54306371Y-67845000D02*
X55245000Y-68783629D01*
X49365000Y-103340000D02*
X49365000Y-94853629D01*
X53643629Y-67845000D02*
X54306371Y-67845000D01*
X54545000Y-79310000D02*
X52105000Y-76870000D01*
X48665000Y-75689950D02*
X48665000Y-72823629D01*
X55245000Y-70485000D02*
X61595000Y-76835000D01*
X48665000Y-72823629D02*
X53643629Y-67845000D01*
X49365000Y-94853629D02*
X54545000Y-89673629D01*
X49845050Y-76870000D02*
X48665000Y-75689950D01*
X52105000Y-76870000D02*
X49845050Y-76870000D01*
X55245000Y-68783629D02*
X55245000Y-70485000D01*
%TO.N,GND*%
X51435000Y-76070000D02*
X52575000Y-76070000D01*
X55245000Y-95885000D02*
X55880000Y-96520000D01*
X52575000Y-76070000D02*
X55245000Y-78740000D01*
X55245000Y-78740000D02*
X55245000Y-95885000D01*
%TO.N,+2.5V*%
X66140000Y-101700000D02*
X69215000Y-104775000D01*
%TO.N,GND*%
X67627500Y-105092500D02*
X66712450Y-105092500D01*
X62230000Y-100610050D02*
X62230000Y-97790000D01*
X66712450Y-105092500D02*
X62230000Y-100610050D01*
X62230000Y-97790000D02*
X60960000Y-96520000D01*
X69215000Y-76835000D02*
X69380000Y-77000000D01*
X69380000Y-77000000D02*
X73991371Y-77000000D01*
X71755000Y-69850000D02*
X72390000Y-69215000D01*
X73991371Y-77000000D02*
X74460000Y-76531371D01*
X74460000Y-76531371D02*
X74460000Y-75868629D01*
X74460000Y-75868629D02*
X71755000Y-73163629D01*
X71755000Y-73163629D02*
X71755000Y-69850000D01*
%TO.N,+2.5V*%
X56515000Y-76070000D02*
X60195000Y-76070000D01*
X60195000Y-76070000D02*
X61595000Y-77470000D01*
X66740000Y-74295000D02*
X64770000Y-74295000D01*
X64770000Y-74295000D02*
X61595000Y-77470000D01*
X73660000Y-76200000D02*
X71755000Y-74295000D01*
X71755000Y-74295000D02*
X66740000Y-74295000D01*
X50165000Y-74295000D02*
X54740000Y-74295000D01*
X54740000Y-74295000D02*
X56515000Y-76070000D01*
%TO.N,GND*%
X53975000Y-68645000D02*
X49365000Y-73255000D01*
X49365000Y-73255000D02*
X49365000Y-75400000D01*
X50035000Y-76070000D02*
X51435000Y-76070000D01*
X49365000Y-75400000D02*
X50035000Y-76070000D01*
X68580000Y-76835000D02*
X67945000Y-76200000D01*
X66040000Y-78105000D02*
X66040000Y-79375000D01*
X56515000Y-88900000D02*
X56515000Y-94615000D01*
X66040000Y-79375000D02*
X56515000Y-88900000D01*
X67945000Y-76200000D02*
X66040000Y-78105000D01*
X69215000Y-76835000D02*
X68580000Y-76835000D01*
X56515000Y-94615000D02*
X55880000Y-95250000D01*
X55880000Y-95250000D02*
X55880000Y-96520000D01*
X67945000Y-77470000D02*
X67145000Y-78270000D01*
X67145000Y-78270000D02*
X67145000Y-79540000D01*
X57785000Y-88900000D02*
X57785000Y-94615000D01*
X67145000Y-79540000D02*
X57785000Y-88900000D01*
X57785000Y-94615000D02*
X55880000Y-96520000D01*
%TO.N,+2.5V*%
X50165000Y-104140000D02*
X50165000Y-105410000D01*
X50165000Y-105410000D02*
X51600000Y-106845000D01*
X51600000Y-106845000D02*
X56985000Y-106845000D01*
X56985000Y-106845000D02*
X57785000Y-106045000D01*
%TO.N,GND*%
X50165000Y-102235000D02*
X53975000Y-106045000D01*
X50165000Y-97155000D02*
X50165000Y-102235000D01*
D18*
%TO.N,Net-(R14-Pad2)*%
X53340000Y-93345000D02*
X53975000Y-92710000D01*
X52005000Y-93345000D02*
X53340000Y-93345000D01*
%TO.N,Net-(R1-Pad2)*%
X63500000Y-69215000D02*
X60325000Y-72390000D01*
%TD*%
M02*
