%TF.GenerationSoftware,KiCad,Pcbnew,8.0.5*%
%TF.CreationDate,2024-11-15T23:36:42+05:30*%
%TF.ProjectId,buff_mix,62756666-5f6d-4697-982e-6b696361645f,rev?*%
%TF.SameCoordinates,Original*%
%TF.FileFunction,Paste,Top*%
%TF.FilePolarity,Positive*%
%FSLAX46Y46*%
G04 Gerber Fmt 4.6, Leading zero omitted, Abs format (unit mm)*
G04 Created by KiCad (PCBNEW 8.0.5) date 2024-11-15 23:36:42*
%MOMM*%
%LPD*%
G01*
G04 APERTURE LIST*
G04 Aperture macros list*
%AMRoundRect*
0 Rectangle with rounded corners*
0 $1 Rounding radius*
0 $2 $3 $4 $5 $6 $7 $8 $9 X,Y pos of 4 corners*
0 Add a 4 corners polygon primitive as box body*
4,1,4,$2,$3,$4,$5,$6,$7,$8,$9,$2,$3,0*
0 Add four circle primitives for the rounded corners*
1,1,$1+$1,$2,$3*
1,1,$1+$1,$4,$5*
1,1,$1+$1,$6,$7*
1,1,$1+$1,$8,$9*
0 Add four rect primitives between the rounded corners*
20,1,$1+$1,$2,$3,$4,$5,0*
20,1,$1+$1,$4,$5,$6,$7,0*
20,1,$1+$1,$6,$7,$8,$9,0*
20,1,$1+$1,$8,$9,$2,$3,0*%
G04 Aperture macros list end*
%ADD10RoundRect,0.150000X-0.825000X-0.150000X0.825000X-0.150000X0.825000X0.150000X-0.825000X0.150000X0*%
%ADD11RoundRect,0.230000X-0.230000X-0.375000X0.230000X-0.375000X0.230000X0.375000X-0.230000X0.375000X0*%
%ADD12RoundRect,0.135000X0.185000X-0.135000X0.185000X0.135000X-0.185000X0.135000X-0.185000X-0.135000X0*%
%ADD13RoundRect,0.135000X0.135000X0.185000X-0.135000X0.185000X-0.135000X-0.185000X0.135000X-0.185000X0*%
%ADD14RoundRect,0.135000X-0.135000X-0.185000X0.135000X-0.185000X0.135000X0.185000X-0.135000X0.185000X0*%
%ADD15RoundRect,0.140000X0.140000X0.170000X-0.140000X0.170000X-0.140000X-0.170000X0.140000X-0.170000X0*%
G04 APERTURE END LIST*
D10*
%TO.C,U4*%
X57085000Y-100215000D03*
X57085000Y-101485000D03*
X57085000Y-102755000D03*
X57085000Y-104025000D03*
X52135000Y-104025000D03*
X52135000Y-102755000D03*
X52135000Y-101485000D03*
X52135000Y-100215000D03*
D11*
X55180000Y-102870000D03*
X55180000Y-101370000D03*
X54040000Y-102870000D03*
X54040000Y-101370000D03*
%TD*%
%TO.C,U3*%
X69915000Y-100735000D03*
X69915000Y-102235000D03*
X71055000Y-100735000D03*
X71055000Y-102235000D03*
D10*
X68010000Y-99580000D03*
X68010000Y-100850000D03*
X68010000Y-102120000D03*
X68010000Y-103390000D03*
X72960000Y-103390000D03*
X72960000Y-102120000D03*
X72960000Y-100850000D03*
X72960000Y-99580000D03*
%TD*%
D11*
%TO.C,U2*%
X53470000Y-72275000D03*
X53470000Y-73775000D03*
X54610000Y-72275000D03*
X54610000Y-73775000D03*
D10*
X51565000Y-71120000D03*
X51565000Y-72390000D03*
X51565000Y-73660000D03*
X51565000Y-74930000D03*
X56515000Y-74930000D03*
X56515000Y-73660000D03*
X56515000Y-72390000D03*
X56515000Y-71120000D03*
%TD*%
D11*
%TO.C,U1*%
X69980000Y-72275000D03*
X69980000Y-73775000D03*
X71120000Y-72275000D03*
X71120000Y-73775000D03*
D10*
X68075000Y-71120000D03*
X68075000Y-72390000D03*
X68075000Y-73660000D03*
X68075000Y-74930000D03*
X73025000Y-74930000D03*
X73025000Y-73660000D03*
X73025000Y-72390000D03*
X73025000Y-71120000D03*
%TD*%
D12*
%TO.C,R24*%
X60325000Y-102620000D03*
X60325000Y-101600000D03*
%TD*%
D13*
%TO.C,R23*%
X60075000Y-104140000D03*
X59055000Y-104140000D03*
%TD*%
D14*
%TO.C,R22*%
X59305000Y-100330000D03*
X60325000Y-100330000D03*
%TD*%
D12*
%TO.C,R21*%
X49530000Y-100455000D03*
X49530000Y-101475000D03*
%TD*%
D14*
%TO.C,R20*%
X49530000Y-102870000D03*
X48510000Y-102870000D03*
%TD*%
D12*
%TO.C,R19*%
X74930000Y-102360000D03*
X74930000Y-103380000D03*
%TD*%
D13*
%TO.C,R18*%
X48445000Y-99060000D03*
X49465000Y-99060000D03*
%TD*%
D12*
%TO.C,R17*%
X74930000Y-99695000D03*
X74930000Y-100715000D03*
%TD*%
%TO.C,R16*%
X64770000Y-101725000D03*
X64770000Y-102745000D03*
%TD*%
D14*
%TO.C,R15*%
X64770000Y-104140000D03*
X65790000Y-104140000D03*
%TD*%
D13*
%TO.C,R14*%
X65790000Y-100330000D03*
X64770000Y-100330000D03*
%TD*%
D12*
%TO.C,R13*%
X58545000Y-73410000D03*
X58545000Y-72390000D03*
%TD*%
D14*
%TO.C,R12*%
X63375000Y-77470000D03*
X64395000Y-77470000D03*
%TD*%
%TO.C,R11*%
X59305000Y-77470000D03*
X60325000Y-77470000D03*
%TD*%
D13*
%TO.C,R10*%
X58545000Y-74930000D03*
X59565000Y-74930000D03*
%TD*%
D14*
%TO.C,R9*%
X58545000Y-71120000D03*
X59565000Y-71120000D03*
%TD*%
D12*
%TO.C,R8*%
X49276000Y-73535000D03*
X49276000Y-72515000D03*
%TD*%
D14*
%TO.C,R7*%
X48256000Y-74930000D03*
X49276000Y-74930000D03*
%TD*%
D12*
%TO.C,R6*%
X74930000Y-73660000D03*
X74930000Y-74680000D03*
%TD*%
D13*
%TO.C,R5*%
X48256000Y-71120000D03*
X49276000Y-71120000D03*
%TD*%
D12*
%TO.C,R4*%
X74930000Y-71120000D03*
X74930000Y-72140000D03*
%TD*%
%TO.C,R3*%
X66040000Y-73410000D03*
X66040000Y-72390000D03*
%TD*%
D14*
%TO.C,R2*%
X66040000Y-74930000D03*
X65020000Y-74930000D03*
%TD*%
%TO.C,R1*%
X66040000Y-71120000D03*
X65020000Y-71120000D03*
%TD*%
D15*
%TO.C,C4*%
X52070000Y-98425000D03*
X51110000Y-98425000D03*
%TD*%
%TO.C,C3*%
X73660000Y-96520000D03*
X72700000Y-96520000D03*
%TD*%
%TO.C,C2*%
X56360000Y-69215000D03*
X55400000Y-69215000D03*
%TD*%
%TO.C,C1*%
X73660000Y-67945000D03*
X72700000Y-67945000D03*
%TD*%
M02*
