M48
; DRILL file {KiCad 8.0.5} date 2024-11-09T04:24:37+0530
; FORMAT={-:-/ absolute / inch / decimal}
; #@! TF.CreationDate,2024-11-09T04:24:37+05:30
; #@! TF.GenerationSoftware,Kicad,Pcbnew,8.0.5
; #@! TF.FileFunction,Plated,1,2,PTH
FMAT,2
INCH
; #@! TA.AperFunction,Plated,PTH,ViaDrill
T1C0.0118
; #@! TA.AperFunction,Plated,PTH,ComponentDrill
T2C0.0394
; #@! TA.AperFunction,Plated,PTH,ViaDrill
T3C0.1260
%
G90
G05
T1
X2.1Y-2.725
X2.1Y-2.8
X2.1Y-2.875
X2.1Y-3.15
X2.175Y-2.725
X2.175Y-2.8
X2.175Y-2.875
X2.25Y-2.725
X2.25Y-2.8
X2.25Y-2.875
X2.325Y-2.8
X2.325Y-2.875
X2.4Y-2.8
X2.4Y-2.875
X2.4Y-2.95
X2.475Y-2.8
X2.475Y-2.875
X2.475Y-2.95
X2.55Y-2.725
X2.55Y-2.8
X2.55Y-2.875
X2.55Y-2.95
X2.625Y-2.725
X2.625Y-2.8
X2.625Y-2.875
X2.625Y-2.95
T2
X2.2Y-2.0
X2.2Y-3.8
X2.3Y-2.0
X2.3Y-3.8
X2.4Y-2.0
X2.4Y-3.8
X2.5Y-2.0
X2.5Y-3.8
X2.6Y-2.0
X2.6Y-3.8
T3
X2.4558Y-1.725
X2.4718Y-4.175
M30
