%TF.GenerationSoftware,KiCad,Pcbnew,8.0.5*%
%TF.CreationDate,2024-11-09T04:24:37+05:30*%
%TF.ProjectId,dc_power,64635f70-6f77-4657-922e-6b696361645f,rev?*%
%TF.SameCoordinates,Original*%
%TF.FileFunction,Legend,Top*%
%TF.FilePolarity,Positive*%
%FSLAX46Y46*%
G04 Gerber Fmt 4.6, Leading zero omitted, Abs format (unit mm)*
G04 Created by KiCad (PCBNEW 8.0.5) date 2024-11-09 04:24:37*
%MOMM*%
%LPD*%
G01*
G04 APERTURE LIST*
G04 Aperture macros list*
%AMRoundRect*
0 Rectangle with rounded corners*
0 $1 Rounding radius*
0 $2 $3 $4 $5 $6 $7 $8 $9 X,Y pos of 4 corners*
0 Add a 4 corners polygon primitive as box body*
4,1,4,$2,$3,$4,$5,$6,$7,$8,$9,$2,$3,0*
0 Add four circle primitives for the rounded corners*
1,1,$1+$1,$2,$3*
1,1,$1+$1,$4,$5*
1,1,$1+$1,$6,$7*
1,1,$1+$1,$8,$9*
0 Add four rect primitives between the rounded corners*
20,1,$1+$1,$2,$3,$4,$5,0*
20,1,$1+$1,$4,$5,$6,$7,0*
20,1,$1+$1,$6,$7,$8,$9,0*
20,1,$1+$1,$8,$9,$2,$3,0*%
G04 Aperture macros list end*
%ADD10C,0.200000*%
%ADD11C,0.400000*%
%ADD12C,0.150000*%
%ADD13C,0.120000*%
%ADD14C,2.200000*%
%ADD15R,4.200000X3.600000*%
%ADD16R,4.400000X3.400000*%
%ADD17R,7.000000X3.400000*%
%ADD18RoundRect,0.375000X-0.625000X-0.375000X0.625000X-0.375000X0.625000X0.375000X-0.625000X0.375000X0*%
%ADD19RoundRect,0.500000X-0.500000X-1.400000X0.500000X-1.400000X0.500000X1.400000X-0.500000X1.400000X0*%
%ADD20RoundRect,0.250000X0.250000X0.475000X-0.250000X0.475000X-0.250000X-0.475000X0.250000X-0.475000X0*%
%ADD21RoundRect,0.250000X-0.250000X-0.475000X0.250000X-0.475000X0.250000X0.475000X-0.250000X0.475000X0*%
%ADD22RoundRect,0.250000X0.475000X-0.250000X0.475000X0.250000X-0.475000X0.250000X-0.475000X-0.250000X0*%
%ADD23R,1.700000X1.700000*%
%ADD24O,1.700000X1.700000*%
G04 APERTURE END LIST*
D10*
X68576374Y-106207275D02*
X68576374Y-105207275D01*
X68576374Y-105207275D02*
X68814469Y-105207275D01*
X68814469Y-105207275D02*
X68957326Y-105254894D01*
X68957326Y-105254894D02*
X69052564Y-105350132D01*
X69052564Y-105350132D02*
X69100183Y-105445370D01*
X69100183Y-105445370D02*
X69147802Y-105635846D01*
X69147802Y-105635846D02*
X69147802Y-105778703D01*
X69147802Y-105778703D02*
X69100183Y-105969179D01*
X69100183Y-105969179D02*
X69052564Y-106064417D01*
X69052564Y-106064417D02*
X68957326Y-106159656D01*
X68957326Y-106159656D02*
X68814469Y-106207275D01*
X68814469Y-106207275D02*
X68576374Y-106207275D01*
X70147802Y-106112036D02*
X70100183Y-106159656D01*
X70100183Y-106159656D02*
X69957326Y-106207275D01*
X69957326Y-106207275D02*
X69862088Y-106207275D01*
X69862088Y-106207275D02*
X69719231Y-106159656D01*
X69719231Y-106159656D02*
X69623993Y-106064417D01*
X69623993Y-106064417D02*
X69576374Y-105969179D01*
X69576374Y-105969179D02*
X69528755Y-105778703D01*
X69528755Y-105778703D02*
X69528755Y-105635846D01*
X69528755Y-105635846D02*
X69576374Y-105445370D01*
X69576374Y-105445370D02*
X69623993Y-105350132D01*
X69623993Y-105350132D02*
X69719231Y-105254894D01*
X69719231Y-105254894D02*
X69862088Y-105207275D01*
X69862088Y-105207275D02*
X69957326Y-105207275D01*
X69957326Y-105207275D02*
X70100183Y-105254894D01*
X70100183Y-105254894D02*
X70147802Y-105302513D01*
X70338279Y-106302513D02*
X71100183Y-106302513D01*
X71338279Y-106207275D02*
X71338279Y-105207275D01*
X71338279Y-105207275D02*
X71719231Y-105207275D01*
X71719231Y-105207275D02*
X71814469Y-105254894D01*
X71814469Y-105254894D02*
X71862088Y-105302513D01*
X71862088Y-105302513D02*
X71909707Y-105397751D01*
X71909707Y-105397751D02*
X71909707Y-105540608D01*
X71909707Y-105540608D02*
X71862088Y-105635846D01*
X71862088Y-105635846D02*
X71814469Y-105683465D01*
X71814469Y-105683465D02*
X71719231Y-105731084D01*
X71719231Y-105731084D02*
X71338279Y-105731084D01*
X72528755Y-105207275D02*
X72719231Y-105207275D01*
X72719231Y-105207275D02*
X72814469Y-105254894D01*
X72814469Y-105254894D02*
X72909707Y-105350132D01*
X72909707Y-105350132D02*
X72957326Y-105540608D01*
X72957326Y-105540608D02*
X72957326Y-105873941D01*
X72957326Y-105873941D02*
X72909707Y-106064417D01*
X72909707Y-106064417D02*
X72814469Y-106159656D01*
X72814469Y-106159656D02*
X72719231Y-106207275D01*
X72719231Y-106207275D02*
X72528755Y-106207275D01*
X72528755Y-106207275D02*
X72433517Y-106159656D01*
X72433517Y-106159656D02*
X72338279Y-106064417D01*
X72338279Y-106064417D02*
X72290660Y-105873941D01*
X72290660Y-105873941D02*
X72290660Y-105540608D01*
X72290660Y-105540608D02*
X72338279Y-105350132D01*
X72338279Y-105350132D02*
X72433517Y-105254894D01*
X72433517Y-105254894D02*
X72528755Y-105207275D01*
X73290660Y-105207275D02*
X73528755Y-106207275D01*
X73528755Y-106207275D02*
X73719231Y-105492989D01*
X73719231Y-105492989D02*
X73909707Y-106207275D01*
X73909707Y-106207275D02*
X74147803Y-105207275D01*
X74528755Y-105683465D02*
X74862088Y-105683465D01*
X75004945Y-106207275D02*
X74528755Y-106207275D01*
X74528755Y-106207275D02*
X74528755Y-105207275D01*
X74528755Y-105207275D02*
X75004945Y-105207275D01*
X76004945Y-106207275D02*
X75671612Y-105731084D01*
X75433517Y-106207275D02*
X75433517Y-105207275D01*
X75433517Y-105207275D02*
X75814469Y-105207275D01*
X75814469Y-105207275D02*
X75909707Y-105254894D01*
X75909707Y-105254894D02*
X75957326Y-105302513D01*
X75957326Y-105302513D02*
X76004945Y-105397751D01*
X76004945Y-105397751D02*
X76004945Y-105540608D01*
X76004945Y-105540608D02*
X75957326Y-105635846D01*
X75957326Y-105635846D02*
X75909707Y-105683465D01*
X75909707Y-105683465D02*
X75814469Y-105731084D01*
X75814469Y-105731084D02*
X75433517Y-105731084D01*
X72814470Y-106817219D02*
X72909708Y-106817219D01*
X72909708Y-106817219D02*
X73004946Y-106864838D01*
X73004946Y-106864838D02*
X73052565Y-106912457D01*
X73052565Y-106912457D02*
X73100184Y-107007695D01*
X73100184Y-107007695D02*
X73147803Y-107198171D01*
X73147803Y-107198171D02*
X73147803Y-107436266D01*
X73147803Y-107436266D02*
X73100184Y-107626742D01*
X73100184Y-107626742D02*
X73052565Y-107721980D01*
X73052565Y-107721980D02*
X73004946Y-107769600D01*
X73004946Y-107769600D02*
X72909708Y-107817219D01*
X72909708Y-107817219D02*
X72814470Y-107817219D01*
X72814470Y-107817219D02*
X72719232Y-107769600D01*
X72719232Y-107769600D02*
X72671613Y-107721980D01*
X72671613Y-107721980D02*
X72623994Y-107626742D01*
X72623994Y-107626742D02*
X72576375Y-107436266D01*
X72576375Y-107436266D02*
X72576375Y-107198171D01*
X72576375Y-107198171D02*
X72623994Y-107007695D01*
X72623994Y-107007695D02*
X72671613Y-106912457D01*
X72671613Y-106912457D02*
X72719232Y-106864838D01*
X72719232Y-106864838D02*
X72814470Y-106817219D01*
X73576375Y-107721980D02*
X73623994Y-107769600D01*
X73623994Y-107769600D02*
X73576375Y-107817219D01*
X73576375Y-107817219D02*
X73528756Y-107769600D01*
X73528756Y-107769600D02*
X73576375Y-107721980D01*
X73576375Y-107721980D02*
X73576375Y-107817219D01*
X74576374Y-107817219D02*
X74004946Y-107817219D01*
X74290660Y-107817219D02*
X74290660Y-106817219D01*
X74290660Y-106817219D02*
X74195422Y-106960076D01*
X74195422Y-106960076D02*
X74100184Y-107055314D01*
X74100184Y-107055314D02*
X74004946Y-107102933D01*
X75004946Y-107721980D02*
X75052565Y-107769600D01*
X75052565Y-107769600D02*
X75004946Y-107817219D01*
X75004946Y-107817219D02*
X74957327Y-107769600D01*
X74957327Y-107769600D02*
X75004946Y-107721980D01*
X75004946Y-107721980D02*
X75004946Y-107817219D01*
X75671612Y-106817219D02*
X75766850Y-106817219D01*
X75766850Y-106817219D02*
X75862088Y-106864838D01*
X75862088Y-106864838D02*
X75909707Y-106912457D01*
X75909707Y-106912457D02*
X75957326Y-107007695D01*
X75957326Y-107007695D02*
X76004945Y-107198171D01*
X76004945Y-107198171D02*
X76004945Y-107436266D01*
X76004945Y-107436266D02*
X75957326Y-107626742D01*
X75957326Y-107626742D02*
X75909707Y-107721980D01*
X75909707Y-107721980D02*
X75862088Y-107769600D01*
X75862088Y-107769600D02*
X75766850Y-107817219D01*
X75766850Y-107817219D02*
X75671612Y-107817219D01*
X75671612Y-107817219D02*
X75576374Y-107769600D01*
X75576374Y-107769600D02*
X75528755Y-107721980D01*
X75528755Y-107721980D02*
X75481136Y-107626742D01*
X75481136Y-107626742D02*
X75433517Y-107436266D01*
X75433517Y-107436266D02*
X75433517Y-107198171D01*
X75433517Y-107198171D02*
X75481136Y-107007695D01*
X75481136Y-107007695D02*
X75528755Y-106912457D01*
X75528755Y-106912457D02*
X75576374Y-106864838D01*
X75576374Y-106864838D02*
X75671612Y-106817219D01*
D11*
X54714347Y-48502438D02*
X54714347Y-46502438D01*
X54714347Y-46502438D02*
X55190537Y-46502438D01*
X55190537Y-46502438D02*
X55476252Y-46597676D01*
X55476252Y-46597676D02*
X55666728Y-46788152D01*
X55666728Y-46788152D02*
X55761966Y-46978628D01*
X55761966Y-46978628D02*
X55857204Y-47359580D01*
X55857204Y-47359580D02*
X55857204Y-47645295D01*
X55857204Y-47645295D02*
X55761966Y-48026247D01*
X55761966Y-48026247D02*
X55666728Y-48216723D01*
X55666728Y-48216723D02*
X55476252Y-48407200D01*
X55476252Y-48407200D02*
X55190537Y-48502438D01*
X55190537Y-48502438D02*
X54714347Y-48502438D01*
X57857204Y-48311961D02*
X57761966Y-48407200D01*
X57761966Y-48407200D02*
X57476252Y-48502438D01*
X57476252Y-48502438D02*
X57285776Y-48502438D01*
X57285776Y-48502438D02*
X57000061Y-48407200D01*
X57000061Y-48407200D02*
X56809585Y-48216723D01*
X56809585Y-48216723D02*
X56714347Y-48026247D01*
X56714347Y-48026247D02*
X56619109Y-47645295D01*
X56619109Y-47645295D02*
X56619109Y-47359580D01*
X56619109Y-47359580D02*
X56714347Y-46978628D01*
X56714347Y-46978628D02*
X56809585Y-46788152D01*
X56809585Y-46788152D02*
X57000061Y-46597676D01*
X57000061Y-46597676D02*
X57285776Y-46502438D01*
X57285776Y-46502438D02*
X57476252Y-46502438D01*
X57476252Y-46502438D02*
X57761966Y-46597676D01*
X57761966Y-46597676D02*
X57857204Y-46692914D01*
X58238157Y-48692914D02*
X59761966Y-48692914D01*
X60238157Y-48502438D02*
X60238157Y-46502438D01*
X60238157Y-46502438D02*
X61000062Y-46502438D01*
X61000062Y-46502438D02*
X61190538Y-46597676D01*
X61190538Y-46597676D02*
X61285776Y-46692914D01*
X61285776Y-46692914D02*
X61381014Y-46883390D01*
X61381014Y-46883390D02*
X61381014Y-47169104D01*
X61381014Y-47169104D02*
X61285776Y-47359580D01*
X61285776Y-47359580D02*
X61190538Y-47454819D01*
X61190538Y-47454819D02*
X61000062Y-47550057D01*
X61000062Y-47550057D02*
X60238157Y-47550057D01*
X62619109Y-46502438D02*
X63000062Y-46502438D01*
X63000062Y-46502438D02*
X63190538Y-46597676D01*
X63190538Y-46597676D02*
X63381014Y-46788152D01*
X63381014Y-46788152D02*
X63476252Y-47169104D01*
X63476252Y-47169104D02*
X63476252Y-47835771D01*
X63476252Y-47835771D02*
X63381014Y-48216723D01*
X63381014Y-48216723D02*
X63190538Y-48407200D01*
X63190538Y-48407200D02*
X63000062Y-48502438D01*
X63000062Y-48502438D02*
X62619109Y-48502438D01*
X62619109Y-48502438D02*
X62428633Y-48407200D01*
X62428633Y-48407200D02*
X62238157Y-48216723D01*
X62238157Y-48216723D02*
X62142919Y-47835771D01*
X62142919Y-47835771D02*
X62142919Y-47169104D01*
X62142919Y-47169104D02*
X62238157Y-46788152D01*
X62238157Y-46788152D02*
X62428633Y-46597676D01*
X62428633Y-46597676D02*
X62619109Y-46502438D01*
X64142919Y-46502438D02*
X64619109Y-48502438D01*
X64619109Y-48502438D02*
X65000062Y-47073866D01*
X65000062Y-47073866D02*
X65381014Y-48502438D01*
X65381014Y-48502438D02*
X65857205Y-46502438D01*
X66619109Y-47454819D02*
X67285776Y-47454819D01*
X67571490Y-48502438D02*
X66619109Y-48502438D01*
X66619109Y-48502438D02*
X66619109Y-46502438D01*
X66619109Y-46502438D02*
X67571490Y-46502438D01*
X69571490Y-48502438D02*
X68904823Y-47550057D01*
X68428633Y-48502438D02*
X68428633Y-46502438D01*
X68428633Y-46502438D02*
X69190538Y-46502438D01*
X69190538Y-46502438D02*
X69381014Y-46597676D01*
X69381014Y-46597676D02*
X69476252Y-46692914D01*
X69476252Y-46692914D02*
X69571490Y-46883390D01*
X69571490Y-46883390D02*
X69571490Y-47169104D01*
X69571490Y-47169104D02*
X69476252Y-47359580D01*
X69476252Y-47359580D02*
X69381014Y-47454819D01*
X69381014Y-47454819D02*
X69190538Y-47550057D01*
X69190538Y-47550057D02*
X68428633Y-47550057D01*
D10*
X48963006Y-105683465D02*
X49105863Y-105731084D01*
X49105863Y-105731084D02*
X49153482Y-105778703D01*
X49153482Y-105778703D02*
X49201101Y-105873941D01*
X49201101Y-105873941D02*
X49201101Y-106016798D01*
X49201101Y-106016798D02*
X49153482Y-106112036D01*
X49153482Y-106112036D02*
X49105863Y-106159656D01*
X49105863Y-106159656D02*
X49010625Y-106207275D01*
X49010625Y-106207275D02*
X48629673Y-106207275D01*
X48629673Y-106207275D02*
X48629673Y-105207275D01*
X48629673Y-105207275D02*
X48963006Y-105207275D01*
X48963006Y-105207275D02*
X49058244Y-105254894D01*
X49058244Y-105254894D02*
X49105863Y-105302513D01*
X49105863Y-105302513D02*
X49153482Y-105397751D01*
X49153482Y-105397751D02*
X49153482Y-105492989D01*
X49153482Y-105492989D02*
X49105863Y-105588227D01*
X49105863Y-105588227D02*
X49058244Y-105635846D01*
X49058244Y-105635846D02*
X48963006Y-105683465D01*
X48963006Y-105683465D02*
X48629673Y-105683465D01*
X50201101Y-106207275D02*
X49867768Y-105731084D01*
X49629673Y-106207275D02*
X49629673Y-105207275D01*
X49629673Y-105207275D02*
X50010625Y-105207275D01*
X50010625Y-105207275D02*
X50105863Y-105254894D01*
X50105863Y-105254894D02*
X50153482Y-105302513D01*
X50153482Y-105302513D02*
X50201101Y-105397751D01*
X50201101Y-105397751D02*
X50201101Y-105540608D01*
X50201101Y-105540608D02*
X50153482Y-105635846D01*
X50153482Y-105635846D02*
X50105863Y-105683465D01*
X50105863Y-105683465D02*
X50010625Y-105731084D01*
X50010625Y-105731084D02*
X49629673Y-105731084D01*
X50629673Y-105683465D02*
X50963006Y-105683465D01*
X51105863Y-106207275D02*
X50629673Y-106207275D01*
X50629673Y-106207275D02*
X50629673Y-105207275D01*
X50629673Y-105207275D02*
X51105863Y-105207275D01*
X51486816Y-105921560D02*
X51963006Y-105921560D01*
X51391578Y-106207275D02*
X51724911Y-105207275D01*
X51724911Y-105207275D02*
X52058244Y-106207275D01*
X52391578Y-106207275D02*
X52391578Y-105207275D01*
X52391578Y-105207275D02*
X52629673Y-105207275D01*
X52629673Y-105207275D02*
X52772530Y-105254894D01*
X52772530Y-105254894D02*
X52867768Y-105350132D01*
X52867768Y-105350132D02*
X52915387Y-105445370D01*
X52915387Y-105445370D02*
X52963006Y-105635846D01*
X52963006Y-105635846D02*
X52963006Y-105778703D01*
X52963006Y-105778703D02*
X52915387Y-105969179D01*
X52915387Y-105969179D02*
X52867768Y-106064417D01*
X52867768Y-106064417D02*
X52772530Y-106159656D01*
X52772530Y-106159656D02*
X52629673Y-106207275D01*
X52629673Y-106207275D02*
X52391578Y-106207275D01*
X48629673Y-107817219D02*
X48629673Y-106817219D01*
X48629673Y-106817219D02*
X48963006Y-107531504D01*
X48963006Y-107531504D02*
X49296339Y-106817219D01*
X49296339Y-106817219D02*
X49296339Y-107817219D01*
X49963006Y-106817219D02*
X50153482Y-106817219D01*
X50153482Y-106817219D02*
X50248720Y-106864838D01*
X50248720Y-106864838D02*
X50343958Y-106960076D01*
X50343958Y-106960076D02*
X50391577Y-107150552D01*
X50391577Y-107150552D02*
X50391577Y-107483885D01*
X50391577Y-107483885D02*
X50343958Y-107674361D01*
X50343958Y-107674361D02*
X50248720Y-107769600D01*
X50248720Y-107769600D02*
X50153482Y-107817219D01*
X50153482Y-107817219D02*
X49963006Y-107817219D01*
X49963006Y-107817219D02*
X49867768Y-107769600D01*
X49867768Y-107769600D02*
X49772530Y-107674361D01*
X49772530Y-107674361D02*
X49724911Y-107483885D01*
X49724911Y-107483885D02*
X49724911Y-107150552D01*
X49724911Y-107150552D02*
X49772530Y-106960076D01*
X49772530Y-106960076D02*
X49867768Y-106864838D01*
X49867768Y-106864838D02*
X49963006Y-106817219D01*
X50820149Y-107817219D02*
X50820149Y-106817219D01*
X50820149Y-106817219D02*
X51058244Y-106817219D01*
X51058244Y-106817219D02*
X51201101Y-106864838D01*
X51201101Y-106864838D02*
X51296339Y-106960076D01*
X51296339Y-106960076D02*
X51343958Y-107055314D01*
X51343958Y-107055314D02*
X51391577Y-107245790D01*
X51391577Y-107245790D02*
X51391577Y-107388647D01*
X51391577Y-107388647D02*
X51343958Y-107579123D01*
X51343958Y-107579123D02*
X51296339Y-107674361D01*
X51296339Y-107674361D02*
X51201101Y-107769600D01*
X51201101Y-107769600D02*
X51058244Y-107817219D01*
X51058244Y-107817219D02*
X50820149Y-107817219D01*
X51820149Y-106817219D02*
X51820149Y-107626742D01*
X51820149Y-107626742D02*
X51867768Y-107721980D01*
X51867768Y-107721980D02*
X51915387Y-107769600D01*
X51915387Y-107769600D02*
X52010625Y-107817219D01*
X52010625Y-107817219D02*
X52201101Y-107817219D01*
X52201101Y-107817219D02*
X52296339Y-107769600D01*
X52296339Y-107769600D02*
X52343958Y-107721980D01*
X52343958Y-107721980D02*
X52391577Y-107626742D01*
X52391577Y-107626742D02*
X52391577Y-106817219D01*
X53343958Y-107817219D02*
X52867768Y-107817219D01*
X52867768Y-107817219D02*
X52867768Y-106817219D01*
X53629673Y-107531504D02*
X54105863Y-107531504D01*
X53534435Y-107817219D02*
X53867768Y-106817219D01*
X53867768Y-106817219D02*
X54201101Y-107817219D01*
X55105863Y-107817219D02*
X54772530Y-107341028D01*
X54534435Y-107817219D02*
X54534435Y-106817219D01*
X54534435Y-106817219D02*
X54915387Y-106817219D01*
X54915387Y-106817219D02*
X55010625Y-106864838D01*
X55010625Y-106864838D02*
X55058244Y-106912457D01*
X55058244Y-106912457D02*
X55105863Y-107007695D01*
X55105863Y-107007695D02*
X55105863Y-107150552D01*
X55105863Y-107150552D02*
X55058244Y-107245790D01*
X55058244Y-107245790D02*
X55010625Y-107293409D01*
X55010625Y-107293409D02*
X54915387Y-107341028D01*
X54915387Y-107341028D02*
X54534435Y-107341028D01*
D12*
X68478095Y-74329819D02*
X68478095Y-75139342D01*
X68478095Y-75139342D02*
X68525714Y-75234580D01*
X68525714Y-75234580D02*
X68573333Y-75282200D01*
X68573333Y-75282200D02*
X68668571Y-75329819D01*
X68668571Y-75329819D02*
X68859047Y-75329819D01*
X68859047Y-75329819D02*
X68954285Y-75282200D01*
X68954285Y-75282200D02*
X69001904Y-75234580D01*
X69001904Y-75234580D02*
X69049523Y-75139342D01*
X69049523Y-75139342D02*
X69049523Y-74329819D01*
X70049523Y-75329819D02*
X69478095Y-75329819D01*
X69763809Y-75329819D02*
X69763809Y-74329819D01*
X69763809Y-74329819D02*
X69668571Y-74472676D01*
X69668571Y-74472676D02*
X69573333Y-74567914D01*
X69573333Y-74567914D02*
X69478095Y-74615533D01*
X60446666Y-80986009D02*
X60113333Y-80986009D01*
X60113333Y-81509819D02*
X60113333Y-80509819D01*
X60113333Y-80509819D02*
X60589523Y-80509819D01*
X61303809Y-80986009D02*
X61446666Y-81033628D01*
X61446666Y-81033628D02*
X61494285Y-81081247D01*
X61494285Y-81081247D02*
X61541904Y-81176485D01*
X61541904Y-81176485D02*
X61541904Y-81319342D01*
X61541904Y-81319342D02*
X61494285Y-81414580D01*
X61494285Y-81414580D02*
X61446666Y-81462200D01*
X61446666Y-81462200D02*
X61351428Y-81509819D01*
X61351428Y-81509819D02*
X60970476Y-81509819D01*
X60970476Y-81509819D02*
X60970476Y-80509819D01*
X60970476Y-80509819D02*
X61303809Y-80509819D01*
X61303809Y-80509819D02*
X61399047Y-80557438D01*
X61399047Y-80557438D02*
X61446666Y-80605057D01*
X61446666Y-80605057D02*
X61494285Y-80700295D01*
X61494285Y-80700295D02*
X61494285Y-80795533D01*
X61494285Y-80795533D02*
X61446666Y-80890771D01*
X61446666Y-80890771D02*
X61399047Y-80938390D01*
X61399047Y-80938390D02*
X61303809Y-80986009D01*
X61303809Y-80986009D02*
X60970476Y-80986009D01*
X61922857Y-80605057D02*
X61970476Y-80557438D01*
X61970476Y-80557438D02*
X62065714Y-80509819D01*
X62065714Y-80509819D02*
X62303809Y-80509819D01*
X62303809Y-80509819D02*
X62399047Y-80557438D01*
X62399047Y-80557438D02*
X62446666Y-80605057D01*
X62446666Y-80605057D02*
X62494285Y-80700295D01*
X62494285Y-80700295D02*
X62494285Y-80795533D01*
X62494285Y-80795533D02*
X62446666Y-80938390D01*
X62446666Y-80938390D02*
X61875238Y-81509819D01*
X61875238Y-81509819D02*
X62494285Y-81509819D01*
X60446666Y-83341009D02*
X60113333Y-83341009D01*
X60113333Y-83864819D02*
X60113333Y-82864819D01*
X60113333Y-82864819D02*
X60589523Y-82864819D01*
X61303809Y-83341009D02*
X61446666Y-83388628D01*
X61446666Y-83388628D02*
X61494285Y-83436247D01*
X61494285Y-83436247D02*
X61541904Y-83531485D01*
X61541904Y-83531485D02*
X61541904Y-83674342D01*
X61541904Y-83674342D02*
X61494285Y-83769580D01*
X61494285Y-83769580D02*
X61446666Y-83817200D01*
X61446666Y-83817200D02*
X61351428Y-83864819D01*
X61351428Y-83864819D02*
X60970476Y-83864819D01*
X60970476Y-83864819D02*
X60970476Y-82864819D01*
X60970476Y-82864819D02*
X61303809Y-82864819D01*
X61303809Y-82864819D02*
X61399047Y-82912438D01*
X61399047Y-82912438D02*
X61446666Y-82960057D01*
X61446666Y-82960057D02*
X61494285Y-83055295D01*
X61494285Y-83055295D02*
X61494285Y-83150533D01*
X61494285Y-83150533D02*
X61446666Y-83245771D01*
X61446666Y-83245771D02*
X61399047Y-83293390D01*
X61399047Y-83293390D02*
X61303809Y-83341009D01*
X61303809Y-83341009D02*
X60970476Y-83341009D01*
X62494285Y-83864819D02*
X61922857Y-83864819D01*
X62208571Y-83864819D02*
X62208571Y-82864819D01*
X62208571Y-82864819D02*
X62113333Y-83007676D01*
X62113333Y-83007676D02*
X62018095Y-83102914D01*
X62018095Y-83102914D02*
X61922857Y-83150533D01*
X52019580Y-76046666D02*
X52067200Y-76094285D01*
X52067200Y-76094285D02*
X52114819Y-76237142D01*
X52114819Y-76237142D02*
X52114819Y-76332380D01*
X52114819Y-76332380D02*
X52067200Y-76475237D01*
X52067200Y-76475237D02*
X51971961Y-76570475D01*
X51971961Y-76570475D02*
X51876723Y-76618094D01*
X51876723Y-76618094D02*
X51686247Y-76665713D01*
X51686247Y-76665713D02*
X51543390Y-76665713D01*
X51543390Y-76665713D02*
X51352914Y-76618094D01*
X51352914Y-76618094D02*
X51257676Y-76570475D01*
X51257676Y-76570475D02*
X51162438Y-76475237D01*
X51162438Y-76475237D02*
X51114819Y-76332380D01*
X51114819Y-76332380D02*
X51114819Y-76237142D01*
X51114819Y-76237142D02*
X51162438Y-76094285D01*
X51162438Y-76094285D02*
X51210057Y-76046666D01*
X51448152Y-75189523D02*
X52114819Y-75189523D01*
X51067200Y-75427618D02*
X51781485Y-75665713D01*
X51781485Y-75665713D02*
X51781485Y-75046666D01*
X55829580Y-76046666D02*
X55877200Y-76094285D01*
X55877200Y-76094285D02*
X55924819Y-76237142D01*
X55924819Y-76237142D02*
X55924819Y-76332380D01*
X55924819Y-76332380D02*
X55877200Y-76475237D01*
X55877200Y-76475237D02*
X55781961Y-76570475D01*
X55781961Y-76570475D02*
X55686723Y-76618094D01*
X55686723Y-76618094D02*
X55496247Y-76665713D01*
X55496247Y-76665713D02*
X55353390Y-76665713D01*
X55353390Y-76665713D02*
X55162914Y-76618094D01*
X55162914Y-76618094D02*
X55067676Y-76570475D01*
X55067676Y-76570475D02*
X54972438Y-76475237D01*
X54972438Y-76475237D02*
X54924819Y-76332380D01*
X54924819Y-76332380D02*
X54924819Y-76237142D01*
X54924819Y-76237142D02*
X54972438Y-76094285D01*
X54972438Y-76094285D02*
X55020057Y-76046666D01*
X54924819Y-75713332D02*
X54924819Y-75094285D01*
X54924819Y-75094285D02*
X55305771Y-75427618D01*
X55305771Y-75427618D02*
X55305771Y-75284761D01*
X55305771Y-75284761D02*
X55353390Y-75189523D01*
X55353390Y-75189523D02*
X55401009Y-75141904D01*
X55401009Y-75141904D02*
X55496247Y-75094285D01*
X55496247Y-75094285D02*
X55734342Y-75094285D01*
X55734342Y-75094285D02*
X55829580Y-75141904D01*
X55829580Y-75141904D02*
X55877200Y-75189523D01*
X55877200Y-75189523D02*
X55924819Y-75284761D01*
X55924819Y-75284761D02*
X55924819Y-75570475D01*
X55924819Y-75570475D02*
X55877200Y-75665713D01*
X55877200Y-75665713D02*
X55829580Y-75713332D01*
X52019580Y-82716666D02*
X52067200Y-82764285D01*
X52067200Y-82764285D02*
X52114819Y-82907142D01*
X52114819Y-82907142D02*
X52114819Y-83002380D01*
X52114819Y-83002380D02*
X52067200Y-83145237D01*
X52067200Y-83145237D02*
X51971961Y-83240475D01*
X51971961Y-83240475D02*
X51876723Y-83288094D01*
X51876723Y-83288094D02*
X51686247Y-83335713D01*
X51686247Y-83335713D02*
X51543390Y-83335713D01*
X51543390Y-83335713D02*
X51352914Y-83288094D01*
X51352914Y-83288094D02*
X51257676Y-83240475D01*
X51257676Y-83240475D02*
X51162438Y-83145237D01*
X51162438Y-83145237D02*
X51114819Y-83002380D01*
X51114819Y-83002380D02*
X51114819Y-82907142D01*
X51114819Y-82907142D02*
X51162438Y-82764285D01*
X51162438Y-82764285D02*
X51210057Y-82716666D01*
X51210057Y-82335713D02*
X51162438Y-82288094D01*
X51162438Y-82288094D02*
X51114819Y-82192856D01*
X51114819Y-82192856D02*
X51114819Y-81954761D01*
X51114819Y-81954761D02*
X51162438Y-81859523D01*
X51162438Y-81859523D02*
X51210057Y-81811904D01*
X51210057Y-81811904D02*
X51305295Y-81764285D01*
X51305295Y-81764285D02*
X51400533Y-81764285D01*
X51400533Y-81764285D02*
X51543390Y-81811904D01*
X51543390Y-81811904D02*
X52114819Y-82383332D01*
X52114819Y-82383332D02*
X52114819Y-81764285D01*
X55829580Y-82716666D02*
X55877200Y-82764285D01*
X55877200Y-82764285D02*
X55924819Y-82907142D01*
X55924819Y-82907142D02*
X55924819Y-83002380D01*
X55924819Y-83002380D02*
X55877200Y-83145237D01*
X55877200Y-83145237D02*
X55781961Y-83240475D01*
X55781961Y-83240475D02*
X55686723Y-83288094D01*
X55686723Y-83288094D02*
X55496247Y-83335713D01*
X55496247Y-83335713D02*
X55353390Y-83335713D01*
X55353390Y-83335713D02*
X55162914Y-83288094D01*
X55162914Y-83288094D02*
X55067676Y-83240475D01*
X55067676Y-83240475D02*
X54972438Y-83145237D01*
X54972438Y-83145237D02*
X54924819Y-83002380D01*
X54924819Y-83002380D02*
X54924819Y-82907142D01*
X54924819Y-82907142D02*
X54972438Y-82764285D01*
X54972438Y-82764285D02*
X55020057Y-82716666D01*
X55924819Y-81764285D02*
X55924819Y-82335713D01*
X55924819Y-82049999D02*
X54924819Y-82049999D01*
X54924819Y-82049999D02*
X55067676Y-82145237D01*
X55067676Y-82145237D02*
X55162914Y-82240475D01*
X55162914Y-82240475D02*
X55210533Y-82335713D01*
D13*
%TO.C,U1*%
X67390000Y-75965000D02*
X71150000Y-75965000D01*
X67390000Y-82785000D02*
X71150000Y-82785000D01*
X71150000Y-75965000D02*
X71150000Y-77225000D01*
X71150000Y-82785000D02*
X71150000Y-81525000D01*
X66110000Y-76065000D02*
X65870000Y-75735000D01*
X66350000Y-75735000D01*
X66110000Y-76065000D01*
G36*
X66110000Y-76065000D02*
G01*
X65870000Y-75735000D01*
X66350000Y-75735000D01*
X66110000Y-76065000D01*
G37*
%TO.C,FB2*%
X61541252Y-80110000D02*
X61018748Y-80110000D01*
X61541252Y-78640000D02*
X61018748Y-78640000D01*
%TO.C,FB1*%
X61018748Y-84355000D02*
X61541252Y-84355000D01*
X61018748Y-85825000D02*
X61541252Y-85825000D01*
%TO.C,C4*%
X52605000Y-76141252D02*
X52605000Y-75618748D01*
X54075000Y-76141252D02*
X54075000Y-75618748D01*
%TO.C,C3*%
X56415000Y-76141252D02*
X56415000Y-75618748D01*
X57885000Y-76141252D02*
X57885000Y-75618748D01*
%TO.C,C2*%
X52605000Y-82811252D02*
X52605000Y-82288748D01*
X54075000Y-82811252D02*
X54075000Y-82288748D01*
%TO.C,C1*%
X56415000Y-82811252D02*
X56415000Y-82288748D01*
X57885000Y-82811252D02*
X57885000Y-82288748D01*
%TD*%
%LPC*%
D14*
%TO.C,J1*%
X65205000Y-65810000D03*
X60550000Y-56135000D03*
D15*
X60950000Y-67650000D03*
D16*
X68040000Y-62330000D03*
D17*
X67120000Y-56280000D03*
%TD*%
D18*
%TO.C,U1*%
X66090000Y-77075000D03*
X66090000Y-79375000D03*
X66090000Y-81675000D03*
D19*
X72390000Y-79375000D03*
%TD*%
D20*
%TO.C,FB2*%
X62230000Y-79375000D03*
X60330000Y-79375000D03*
%TD*%
D21*
%TO.C,FB1*%
X60330000Y-85090000D03*
X62230000Y-85090000D03*
%TD*%
D22*
%TO.C,C4*%
X53340000Y-76830000D03*
X53340000Y-74930000D03*
%TD*%
%TO.C,C3*%
X57150000Y-76830000D03*
X57150000Y-74930000D03*
%TD*%
%TO.C,C2*%
X53340000Y-83500000D03*
X53340000Y-81600000D03*
%TD*%
%TO.C,C1*%
X57150000Y-83500000D03*
X57150000Y-81600000D03*
%TD*%
D23*
%TO.C,GND1*%
X55880000Y-96520000D03*
D24*
X58420000Y-96520000D03*
X60960000Y-96520000D03*
X63500000Y-96520000D03*
X66040000Y-96520000D03*
%TD*%
D23*
%TO.C,5V1*%
X55880000Y-50800000D03*
D24*
X58420000Y-50800000D03*
X60960000Y-50800000D03*
X63500000Y-50800000D03*
X66040000Y-50800000D03*
%TD*%
%LPD*%
M02*
