%TF.GenerationSoftware,KiCad,Pcbnew,8.0.5*%
%TF.CreationDate,2024-11-14T15:36:57+05:30*%
%TF.ProjectId,v2ca,76326361-2e6b-4696-9361-645f70636258,rev?*%
%TF.SameCoordinates,Original*%
%TF.FileFunction,Paste,Top*%
%TF.FilePolarity,Positive*%
%FSLAX46Y46*%
G04 Gerber Fmt 4.6, Leading zero omitted, Abs format (unit mm)*
G04 Created by KiCad (PCBNEW 8.0.5) date 2024-11-14 15:36:57*
%MOMM*%
%LPD*%
G01*
G04 APERTURE LIST*
G04 Aperture macros list*
%AMRoundRect*
0 Rectangle with rounded corners*
0 $1 Rounding radius*
0 $2 $3 $4 $5 $6 $7 $8 $9 X,Y pos of 4 corners*
0 Add a 4 corners polygon primitive as box body*
4,1,4,$2,$3,$4,$5,$6,$7,$8,$9,$2,$3,0*
0 Add four circle primitives for the rounded corners*
1,1,$1+$1,$2,$3*
1,1,$1+$1,$4,$5*
1,1,$1+$1,$6,$7*
1,1,$1+$1,$8,$9*
0 Add four rect primitives between the rounded corners*
20,1,$1+$1,$2,$3,$4,$5,0*
20,1,$1+$1,$4,$5,$6,$7,0*
20,1,$1+$1,$6,$7,$8,$9,0*
20,1,$1+$1,$8,$9,$2,$3,0*%
G04 Aperture macros list end*
%ADD10RoundRect,0.230000X-0.230000X-0.375000X0.230000X-0.375000X0.230000X0.375000X-0.230000X0.375000X0*%
%ADD11RoundRect,0.150000X-0.825000X-0.150000X0.825000X-0.150000X0.825000X0.150000X-0.825000X0.150000X0*%
%ADD12RoundRect,0.230000X0.375000X-0.230000X0.375000X0.230000X-0.375000X0.230000X-0.375000X-0.230000X0*%
%ADD13RoundRect,0.150000X0.150000X-0.825000X0.150000X0.825000X-0.150000X0.825000X-0.150000X-0.825000X0*%
%ADD14RoundRect,0.135000X0.135000X0.185000X-0.135000X0.185000X-0.135000X-0.185000X0.135000X-0.185000X0*%
%ADD15RoundRect,0.250000X-0.262500X-0.450000X0.262500X-0.450000X0.262500X0.450000X-0.262500X0.450000X0*%
%ADD16RoundRect,0.250000X0.262500X0.450000X-0.262500X0.450000X-0.262500X-0.450000X0.262500X-0.450000X0*%
%ADD17RoundRect,0.140000X-0.140000X-0.170000X0.140000X-0.170000X0.140000X0.170000X-0.140000X0.170000X0*%
%ADD18RoundRect,0.140000X0.140000X0.170000X-0.140000X0.170000X-0.140000X-0.170000X0.140000X-0.170000X0*%
%ADD19RoundRect,0.140000X-0.170000X0.140000X-0.170000X-0.140000X0.170000X-0.140000X0.170000X0.140000X0*%
G04 APERTURE END LIST*
D10*
%TO.C,U5*%
X57150000Y-56400000D03*
X57150000Y-57900000D03*
X58290000Y-56400000D03*
X58290000Y-57900000D03*
D11*
X55245000Y-55245000D03*
X55245000Y-56515000D03*
X55245000Y-57785000D03*
X55245000Y-59055000D03*
X60195000Y-59055000D03*
X60195000Y-57785000D03*
X60195000Y-56515000D03*
X60195000Y-55245000D03*
%TD*%
D10*
%TO.C,U4*%
X66040000Y-56400000D03*
X66040000Y-57900000D03*
X67180000Y-56400000D03*
X67180000Y-57900000D03*
D11*
X64135000Y-55245000D03*
X64135000Y-56515000D03*
X64135000Y-57785000D03*
X64135000Y-59055000D03*
X69085000Y-59055000D03*
X69085000Y-57785000D03*
X69085000Y-56515000D03*
X69085000Y-55245000D03*
%TD*%
D12*
%TO.C,U2*%
X71755000Y-96898000D03*
X73255000Y-96898000D03*
X71755000Y-95758000D03*
X73255000Y-95758000D03*
D13*
X70600000Y-98803000D03*
X71870000Y-98803000D03*
X73140000Y-98803000D03*
X74410000Y-98803000D03*
X74410000Y-93853000D03*
X73140000Y-93853000D03*
X71870000Y-93853000D03*
X70600000Y-93853000D03*
%TD*%
D14*
%TO.C,R10*%
X72140000Y-90424000D03*
X71120000Y-90424000D03*
%TD*%
%TO.C,R9*%
X74551000Y-90424000D03*
X73531000Y-90424000D03*
%TD*%
%TO.C,R8*%
X69852000Y-90424000D03*
X68832000Y-90424000D03*
%TD*%
D15*
%TO.C,R7*%
X71200000Y-75565000D03*
X73025000Y-75565000D03*
%TD*%
D14*
%TO.C,R6*%
X59817000Y-100965000D03*
X60837000Y-100965000D03*
%TD*%
%TO.C,R5*%
X62863000Y-100965000D03*
X63883000Y-100965000D03*
%TD*%
%TO.C,R4*%
X73025000Y-102870000D03*
X72005000Y-102870000D03*
%TD*%
%TO.C,R3*%
X74418000Y-102870000D03*
X75438000Y-102870000D03*
%TD*%
%TO.C,R2*%
X70715000Y-102867000D03*
X69695000Y-102867000D03*
%TD*%
D16*
%TO.C,R1*%
X53236500Y-75565000D03*
X51411500Y-75565000D03*
%TD*%
D17*
%TO.C,C3*%
X51872000Y-58801000D03*
X52832000Y-58801000D03*
%TD*%
D18*
%TO.C,C2*%
X66675000Y-60325000D03*
X65715000Y-60325000D03*
%TD*%
D19*
%TO.C,C1*%
X69088000Y-94361000D03*
X69088000Y-95321000D03*
%TD*%
M02*
