M48
; DRILL file {KiCad 8.0.5} date 2024-11-14T15:36:57+0530
; FORMAT={-:-/ absolute / inch / decimal}
; #@! TF.CreationDate,2024-11-14T15:36:57+05:30
; #@! TF.GenerationSoftware,Kicad,Pcbnew,8.0.5
; #@! TF.FileFunction,Plated,1,2,PTH
FMAT,2
INCH
; #@! TA.AperFunction,Plated,PTH,ViaDrill
T1C0.0118
; #@! TA.AperFunction,Plated,PTH,ComponentDrill
T2C0.0394
; #@! TA.AperFunction,Plated,PTH,ComponentDrill
T3C0.0433
; #@! TA.AperFunction,Plated,PTH,ViaDrill
T4C0.1260
%
G90
G05
T1
X1.94Y-2.31
X1.94Y-2.39
X2.095Y-2.28
X2.1Y-2.48
X2.1003Y-2.1997
X2.11Y-2.325
X2.29Y-3.975
X2.345Y-2.135
X2.435Y-3.975
X2.4424Y-2.33
X2.447Y-2.522
X2.47Y-2.115
X2.47Y-2.46
X2.55Y-2.37
X2.56Y-3.975
X2.645Y-2.995
X2.675Y-2.375
X2.71Y-2.93
X2.715Y-3.81
X2.72Y-2.11
X2.72Y-3.65
X2.7315Y-3.85
X2.82Y-3.51
X2.86Y-3.4
X2.86Y-3.47
X2.875Y-3.975
X2.925Y-3.95
X2.9352Y-3.775
X2.945Y-3.51
X2.9724Y-3.6815
T2
X2.0Y-1.8
X2.0Y-1.9
X2.0Y-2.0
X2.0Y-2.1
X2.0Y-2.2
X2.025Y-2.725
X2.025Y-3.225
X2.125Y-2.725
X2.125Y-3.225
X2.2Y-2.0
X2.2Y-3.8
X2.3Y-2.0
X2.3Y-3.8
X2.3516Y-2.9004
X2.3516Y-3.5654
X2.4Y-2.0
X2.4Y-3.8
X2.45Y-2.9004
X2.45Y-3.5654
X2.5Y-2.0
X2.5Y-3.8
X2.5484Y-2.9004
X2.5484Y-3.5654
X2.6Y-2.0
X2.6Y-3.8
X2.775Y-2.725
X2.775Y-3.225
X2.875Y-2.725
X2.875Y-3.225
X2.9Y-1.8
X2.9Y-1.9
X2.9Y-2.0
X2.9Y-2.1
X2.9Y-2.2
T4
X2.4558Y-1.725
X2.4558Y-1.725
X2.4558Y-1.725
X2.4558Y-1.725
X2.4718Y-4.175
T3
G00X2.261Y-2.6287
M15
G01X2.261Y-2.5815
M16
G05
G00X2.261Y-3.2937
M15
G01X2.261Y-3.2465
M16
G05
G00X2.639Y-2.6287
M15
G01X2.639Y-2.5815
M16
G05
G00X2.639Y-3.2937
M15
G01X2.639Y-3.2465
M16
G05
M30
