%TF.GenerationSoftware,KiCad,Pcbnew,8.0.5*%
%TF.CreationDate,2024-11-14T15:36:57+05:30*%
%TF.ProjectId,v2ca,76326361-2e6b-4696-9361-645f70636258,rev?*%
%TF.SameCoordinates,Original*%
%TF.FileFunction,Legend,Top*%
%TF.FilePolarity,Positive*%
%FSLAX46Y46*%
G04 Gerber Fmt 4.6, Leading zero omitted, Abs format (unit mm)*
G04 Created by KiCad (PCBNEW 8.0.5) date 2024-11-14 15:36:57*
%MOMM*%
%LPD*%
G01*
G04 APERTURE LIST*
G04 Aperture macros list*
%AMRoundRect*
0 Rectangle with rounded corners*
0 $1 Rounding radius*
0 $2 $3 $4 $5 $6 $7 $8 $9 X,Y pos of 4 corners*
0 Add a 4 corners polygon primitive as box body*
4,1,4,$2,$3,$4,$5,$6,$7,$8,$9,$2,$3,0*
0 Add four circle primitives for the rounded corners*
1,1,$1+$1,$2,$3*
1,1,$1+$1,$4,$5*
1,1,$1+$1,$6,$7*
1,1,$1+$1,$8,$9*
0 Add four rect primitives between the rounded corners*
20,1,$1+$1,$2,$3,$4,$5,0*
20,1,$1+$1,$4,$5,$6,$7,0*
20,1,$1+$1,$6,$7,$8,$9,0*
20,1,$1+$1,$8,$9,$2,$3,0*%
G04 Aperture macros list end*
%ADD10C,0.100000*%
%ADD11C,0.150000*%
%ADD12C,0.200000*%
%ADD13C,0.400000*%
%ADD14C,0.120000*%
%ADD15RoundRect,0.150000X-0.825000X-0.150000X0.825000X-0.150000X0.825000X0.150000X-0.825000X0.150000X0*%
%ADD16R,2.290000X3.000000*%
%ADD17C,1.800000*%
%ADD18RoundRect,0.150000X0.150000X-0.825000X0.150000X0.825000X-0.150000X0.825000X-0.150000X-0.825000X0*%
%ADD19R,3.000000X2.290000*%
%ADD20R,1.800000X1.800000*%
%ADD21O,2.720000X3.240000*%
%ADD22RoundRect,0.135000X0.135000X0.185000X-0.135000X0.185000X-0.135000X-0.185000X0.135000X-0.185000X0*%
%ADD23RoundRect,0.250000X-0.262500X-0.450000X0.262500X-0.450000X0.262500X0.450000X-0.262500X0.450000X0*%
%ADD24RoundRect,0.250000X0.262500X0.450000X-0.262500X0.450000X-0.262500X-0.450000X0.262500X-0.450000X0*%
%ADD25R,1.700000X1.700000*%
%ADD26O,1.700000X1.700000*%
%ADD27RoundRect,0.140000X-0.140000X-0.170000X0.140000X-0.170000X0.140000X0.170000X-0.140000X0.170000X0*%
%ADD28RoundRect,0.140000X0.140000X0.170000X-0.140000X0.170000X-0.140000X-0.170000X0.140000X-0.170000X0*%
%ADD29RoundRect,0.140000X-0.170000X0.140000X-0.170000X-0.140000X0.170000X-0.140000X0.170000X0.140000X0*%
G04 APERTURE END LIST*
D10*
X70866000Y-55308500D02*
X70866000Y-56705500D01*
X70866000Y-50165000D02*
X70866000Y-51562000D01*
D11*
X71370819Y-55057493D02*
X70370819Y-55057493D01*
X70370819Y-55057493D02*
X71085104Y-54724160D01*
X71085104Y-54724160D02*
X70370819Y-54390827D01*
X70370819Y-54390827D02*
X71370819Y-54390827D01*
X70370819Y-53914636D02*
X71180342Y-53914636D01*
X71180342Y-53914636D02*
X71275580Y-53867017D01*
X71275580Y-53867017D02*
X71323200Y-53819398D01*
X71323200Y-53819398D02*
X71370819Y-53724160D01*
X71370819Y-53724160D02*
X71370819Y-53533684D01*
X71370819Y-53533684D02*
X71323200Y-53438446D01*
X71323200Y-53438446D02*
X71275580Y-53390827D01*
X71275580Y-53390827D02*
X71180342Y-53343208D01*
X71180342Y-53343208D02*
X70370819Y-53343208D01*
X71370819Y-52390827D02*
X71370819Y-52867017D01*
X71370819Y-52867017D02*
X70370819Y-52867017D01*
X70370819Y-52200350D02*
X70370819Y-51628922D01*
X71370819Y-51914636D02*
X70370819Y-51914636D01*
X68402363Y-47764819D02*
X68592839Y-47764819D01*
X68592839Y-47764819D02*
X68688077Y-47812438D01*
X68688077Y-47812438D02*
X68783315Y-47907676D01*
X68783315Y-47907676D02*
X68830934Y-48098152D01*
X68830934Y-48098152D02*
X68830934Y-48431485D01*
X68830934Y-48431485D02*
X68783315Y-48621961D01*
X68783315Y-48621961D02*
X68688077Y-48717200D01*
X68688077Y-48717200D02*
X68592839Y-48764819D01*
X68592839Y-48764819D02*
X68402363Y-48764819D01*
X68402363Y-48764819D02*
X68307125Y-48717200D01*
X68307125Y-48717200D02*
X68211887Y-48621961D01*
X68211887Y-48621961D02*
X68164268Y-48431485D01*
X68164268Y-48431485D02*
X68164268Y-48098152D01*
X68164268Y-48098152D02*
X68211887Y-47907676D01*
X68211887Y-47907676D02*
X68307125Y-47812438D01*
X68307125Y-47812438D02*
X68402363Y-47764819D01*
X69259506Y-47764819D02*
X69259506Y-48574342D01*
X69259506Y-48574342D02*
X69307125Y-48669580D01*
X69307125Y-48669580D02*
X69354744Y-48717200D01*
X69354744Y-48717200D02*
X69449982Y-48764819D01*
X69449982Y-48764819D02*
X69640458Y-48764819D01*
X69640458Y-48764819D02*
X69735696Y-48717200D01*
X69735696Y-48717200D02*
X69783315Y-48669580D01*
X69783315Y-48669580D02*
X69830934Y-48574342D01*
X69830934Y-48574342D02*
X69830934Y-47764819D01*
X70164268Y-47764819D02*
X70735696Y-47764819D01*
X70449982Y-48764819D02*
X70449982Y-47764819D01*
X71021411Y-47860057D02*
X71069030Y-47812438D01*
X71069030Y-47812438D02*
X71164268Y-47764819D01*
X71164268Y-47764819D02*
X71402363Y-47764819D01*
X71402363Y-47764819D02*
X71497601Y-47812438D01*
X71497601Y-47812438D02*
X71545220Y-47860057D01*
X71545220Y-47860057D02*
X71592839Y-47955295D01*
X71592839Y-47955295D02*
X71592839Y-48050533D01*
X71592839Y-48050533D02*
X71545220Y-48193390D01*
X71545220Y-48193390D02*
X70973792Y-48764819D01*
X70973792Y-48764819D02*
X71592839Y-48764819D01*
X68402363Y-45224819D02*
X68592839Y-45224819D01*
X68592839Y-45224819D02*
X68688077Y-45272438D01*
X68688077Y-45272438D02*
X68783315Y-45367676D01*
X68783315Y-45367676D02*
X68830934Y-45558152D01*
X68830934Y-45558152D02*
X68830934Y-45891485D01*
X68830934Y-45891485D02*
X68783315Y-46081961D01*
X68783315Y-46081961D02*
X68688077Y-46177200D01*
X68688077Y-46177200D02*
X68592839Y-46224819D01*
X68592839Y-46224819D02*
X68402363Y-46224819D01*
X68402363Y-46224819D02*
X68307125Y-46177200D01*
X68307125Y-46177200D02*
X68211887Y-46081961D01*
X68211887Y-46081961D02*
X68164268Y-45891485D01*
X68164268Y-45891485D02*
X68164268Y-45558152D01*
X68164268Y-45558152D02*
X68211887Y-45367676D01*
X68211887Y-45367676D02*
X68307125Y-45272438D01*
X68307125Y-45272438D02*
X68402363Y-45224819D01*
X69259506Y-45224819D02*
X69259506Y-46034342D01*
X69259506Y-46034342D02*
X69307125Y-46129580D01*
X69307125Y-46129580D02*
X69354744Y-46177200D01*
X69354744Y-46177200D02*
X69449982Y-46224819D01*
X69449982Y-46224819D02*
X69640458Y-46224819D01*
X69640458Y-46224819D02*
X69735696Y-46177200D01*
X69735696Y-46177200D02*
X69783315Y-46129580D01*
X69783315Y-46129580D02*
X69830934Y-46034342D01*
X69830934Y-46034342D02*
X69830934Y-45224819D01*
X70164268Y-45224819D02*
X70735696Y-45224819D01*
X70449982Y-46224819D02*
X70449982Y-45224819D01*
X71592839Y-46224819D02*
X71021411Y-46224819D01*
X71307125Y-46224819D02*
X71307125Y-45224819D01*
X71307125Y-45224819D02*
X71211887Y-45367676D01*
X71211887Y-45367676D02*
X71116649Y-45462914D01*
X71116649Y-45462914D02*
X71021411Y-45510533D01*
X53232207Y-53749580D02*
X53184588Y-53797200D01*
X53184588Y-53797200D02*
X53041731Y-53844819D01*
X53041731Y-53844819D02*
X52946493Y-53844819D01*
X52946493Y-53844819D02*
X52803636Y-53797200D01*
X52803636Y-53797200D02*
X52708398Y-53701961D01*
X52708398Y-53701961D02*
X52660779Y-53606723D01*
X52660779Y-53606723D02*
X52613160Y-53416247D01*
X52613160Y-53416247D02*
X52613160Y-53273390D01*
X52613160Y-53273390D02*
X52660779Y-53082914D01*
X52660779Y-53082914D02*
X52708398Y-52987676D01*
X52708398Y-52987676D02*
X52803636Y-52892438D01*
X52803636Y-52892438D02*
X52946493Y-52844819D01*
X52946493Y-52844819D02*
X53041731Y-52844819D01*
X53041731Y-52844819D02*
X53184588Y-52892438D01*
X53184588Y-52892438D02*
X53232207Y-52940057D01*
X53517922Y-52844819D02*
X53851255Y-53844819D01*
X53851255Y-53844819D02*
X54184588Y-52844819D01*
X54470303Y-52940057D02*
X54517922Y-52892438D01*
X54517922Y-52892438D02*
X54613160Y-52844819D01*
X54613160Y-52844819D02*
X54851255Y-52844819D01*
X54851255Y-52844819D02*
X54946493Y-52892438D01*
X54946493Y-52892438D02*
X54994112Y-52940057D01*
X54994112Y-52940057D02*
X55041731Y-53035295D01*
X55041731Y-53035295D02*
X55041731Y-53130533D01*
X55041731Y-53130533D02*
X54994112Y-53273390D01*
X54994112Y-53273390D02*
X54422684Y-53844819D01*
X54422684Y-53844819D02*
X55041731Y-53844819D01*
X53232207Y-48669580D02*
X53184588Y-48717200D01*
X53184588Y-48717200D02*
X53041731Y-48764819D01*
X53041731Y-48764819D02*
X52946493Y-48764819D01*
X52946493Y-48764819D02*
X52803636Y-48717200D01*
X52803636Y-48717200D02*
X52708398Y-48621961D01*
X52708398Y-48621961D02*
X52660779Y-48526723D01*
X52660779Y-48526723D02*
X52613160Y-48336247D01*
X52613160Y-48336247D02*
X52613160Y-48193390D01*
X52613160Y-48193390D02*
X52660779Y-48002914D01*
X52660779Y-48002914D02*
X52708398Y-47907676D01*
X52708398Y-47907676D02*
X52803636Y-47812438D01*
X52803636Y-47812438D02*
X52946493Y-47764819D01*
X52946493Y-47764819D02*
X53041731Y-47764819D01*
X53041731Y-47764819D02*
X53184588Y-47812438D01*
X53184588Y-47812438D02*
X53232207Y-47860057D01*
X53517922Y-47764819D02*
X53851255Y-48764819D01*
X53851255Y-48764819D02*
X54184588Y-47764819D01*
X55041731Y-48764819D02*
X54470303Y-48764819D01*
X54756017Y-48764819D02*
X54756017Y-47764819D01*
X54756017Y-47764819D02*
X54660779Y-47907676D01*
X54660779Y-47907676D02*
X54565541Y-48002914D01*
X54565541Y-48002914D02*
X54470303Y-48050533D01*
X52660779Y-51304819D02*
X52660779Y-50304819D01*
X53136969Y-51304819D02*
X53136969Y-50304819D01*
X53136969Y-50304819D02*
X53708397Y-51304819D01*
X53708397Y-51304819D02*
X53708397Y-50304819D01*
X54136969Y-50400057D02*
X54184588Y-50352438D01*
X54184588Y-50352438D02*
X54279826Y-50304819D01*
X54279826Y-50304819D02*
X54517921Y-50304819D01*
X54517921Y-50304819D02*
X54613159Y-50352438D01*
X54613159Y-50352438D02*
X54660778Y-50400057D01*
X54660778Y-50400057D02*
X54708397Y-50495295D01*
X54708397Y-50495295D02*
X54708397Y-50590533D01*
X54708397Y-50590533D02*
X54660778Y-50733390D01*
X54660778Y-50733390D02*
X54089350Y-51304819D01*
X54089350Y-51304819D02*
X54708397Y-51304819D01*
X52660779Y-46224819D02*
X52660779Y-45224819D01*
X53136969Y-46224819D02*
X53136969Y-45224819D01*
X53136969Y-45224819D02*
X53708397Y-46224819D01*
X53708397Y-46224819D02*
X53708397Y-45224819D01*
X54708397Y-46224819D02*
X54136969Y-46224819D01*
X54422683Y-46224819D02*
X54422683Y-45224819D01*
X54422683Y-45224819D02*
X54327445Y-45367676D01*
X54327445Y-45367676D02*
X54232207Y-45462914D01*
X54232207Y-45462914D02*
X54136969Y-45510533D01*
X70101220Y-42684819D02*
X70291696Y-42684819D01*
X70291696Y-42684819D02*
X70386934Y-42732438D01*
X70386934Y-42732438D02*
X70482172Y-42827676D01*
X70482172Y-42827676D02*
X70529791Y-43018152D01*
X70529791Y-43018152D02*
X70529791Y-43351485D01*
X70529791Y-43351485D02*
X70482172Y-43541961D01*
X70482172Y-43541961D02*
X70386934Y-43637200D01*
X70386934Y-43637200D02*
X70291696Y-43684819D01*
X70291696Y-43684819D02*
X70101220Y-43684819D01*
X70101220Y-43684819D02*
X70005982Y-43637200D01*
X70005982Y-43637200D02*
X69910744Y-43541961D01*
X69910744Y-43541961D02*
X69863125Y-43351485D01*
X69863125Y-43351485D02*
X69863125Y-43018152D01*
X69863125Y-43018152D02*
X69910744Y-42827676D01*
X69910744Y-42827676D02*
X70005982Y-42732438D01*
X70005982Y-42732438D02*
X70101220Y-42684819D01*
X70958363Y-42684819D02*
X70958363Y-43494342D01*
X70958363Y-43494342D02*
X71005982Y-43589580D01*
X71005982Y-43589580D02*
X71053601Y-43637200D01*
X71053601Y-43637200D02*
X71148839Y-43684819D01*
X71148839Y-43684819D02*
X71339315Y-43684819D01*
X71339315Y-43684819D02*
X71434553Y-43637200D01*
X71434553Y-43637200D02*
X71482172Y-43589580D01*
X71482172Y-43589580D02*
X71529791Y-43494342D01*
X71529791Y-43494342D02*
X71529791Y-42684819D01*
X71863125Y-42684819D02*
X72434553Y-42684819D01*
X72148839Y-43684819D02*
X72148839Y-42684819D01*
X72767887Y-43684819D02*
X72767887Y-42684819D01*
X72767887Y-42684819D02*
X73148839Y-42684819D01*
X73148839Y-42684819D02*
X73244077Y-42732438D01*
X73244077Y-42732438D02*
X73291696Y-42780057D01*
X73291696Y-42780057D02*
X73339315Y-42875295D01*
X73339315Y-42875295D02*
X73339315Y-43018152D01*
X73339315Y-43018152D02*
X73291696Y-43113390D01*
X73291696Y-43113390D02*
X73244077Y-43161009D01*
X73244077Y-43161009D02*
X73148839Y-43208628D01*
X73148839Y-43208628D02*
X72767887Y-43208628D01*
X73767887Y-42684819D02*
X73767887Y-43494342D01*
X73767887Y-43494342D02*
X73815506Y-43589580D01*
X73815506Y-43589580D02*
X73863125Y-43637200D01*
X73863125Y-43637200D02*
X73958363Y-43684819D01*
X73958363Y-43684819D02*
X74148839Y-43684819D01*
X74148839Y-43684819D02*
X74244077Y-43637200D01*
X74244077Y-43637200D02*
X74291696Y-43589580D01*
X74291696Y-43589580D02*
X74339315Y-43494342D01*
X74339315Y-43494342D02*
X74339315Y-42684819D01*
X74672649Y-42684819D02*
X75244077Y-42684819D01*
X74958363Y-43684819D02*
X74958363Y-42684819D01*
X49485779Y-43684819D02*
X49485779Y-42684819D01*
X49961969Y-43684819D02*
X49961969Y-42684819D01*
X49961969Y-42684819D02*
X50533397Y-43684819D01*
X50533397Y-43684819D02*
X50533397Y-42684819D01*
X51009588Y-43684819D02*
X51009588Y-42684819D01*
X51009588Y-42684819D02*
X51390540Y-42684819D01*
X51390540Y-42684819D02*
X51485778Y-42732438D01*
X51485778Y-42732438D02*
X51533397Y-42780057D01*
X51533397Y-42780057D02*
X51581016Y-42875295D01*
X51581016Y-42875295D02*
X51581016Y-43018152D01*
X51581016Y-43018152D02*
X51533397Y-43113390D01*
X51533397Y-43113390D02*
X51485778Y-43161009D01*
X51485778Y-43161009D02*
X51390540Y-43208628D01*
X51390540Y-43208628D02*
X51009588Y-43208628D01*
X52009588Y-42684819D02*
X52009588Y-43494342D01*
X52009588Y-43494342D02*
X52057207Y-43589580D01*
X52057207Y-43589580D02*
X52104826Y-43637200D01*
X52104826Y-43637200D02*
X52200064Y-43684819D01*
X52200064Y-43684819D02*
X52390540Y-43684819D01*
X52390540Y-43684819D02*
X52485778Y-43637200D01*
X52485778Y-43637200D02*
X52533397Y-43589580D01*
X52533397Y-43589580D02*
X52581016Y-43494342D01*
X52581016Y-43494342D02*
X52581016Y-42684819D01*
X52914350Y-42684819D02*
X53485778Y-42684819D01*
X53200064Y-43684819D02*
X53200064Y-42684819D01*
X59778878Y-93299567D02*
X59731259Y-93347187D01*
X59731259Y-93347187D02*
X59588402Y-93394806D01*
X59588402Y-93394806D02*
X59493164Y-93394806D01*
X59493164Y-93394806D02*
X59350307Y-93347187D01*
X59350307Y-93347187D02*
X59255069Y-93251948D01*
X59255069Y-93251948D02*
X59207450Y-93156710D01*
X59207450Y-93156710D02*
X59159831Y-92966234D01*
X59159831Y-92966234D02*
X59159831Y-92823377D01*
X59159831Y-92823377D02*
X59207450Y-92632901D01*
X59207450Y-92632901D02*
X59255069Y-92537663D01*
X59255069Y-92537663D02*
X59350307Y-92442425D01*
X59350307Y-92442425D02*
X59493164Y-92394806D01*
X59493164Y-92394806D02*
X59588402Y-92394806D01*
X59588402Y-92394806D02*
X59731259Y-92442425D01*
X59731259Y-92442425D02*
X59778878Y-92490044D01*
X60207450Y-92394806D02*
X60207450Y-93204329D01*
X60207450Y-93204329D02*
X60255069Y-93299567D01*
X60255069Y-93299567D02*
X60302688Y-93347187D01*
X60302688Y-93347187D02*
X60397926Y-93394806D01*
X60397926Y-93394806D02*
X60588402Y-93394806D01*
X60588402Y-93394806D02*
X60683640Y-93347187D01*
X60683640Y-93347187D02*
X60731259Y-93299567D01*
X60731259Y-93299567D02*
X60778878Y-93204329D01*
X60778878Y-93204329D02*
X60778878Y-92394806D01*
X61826497Y-93394806D02*
X61493164Y-92918615D01*
X61255069Y-93394806D02*
X61255069Y-92394806D01*
X61255069Y-92394806D02*
X61636021Y-92394806D01*
X61636021Y-92394806D02*
X61731259Y-92442425D01*
X61731259Y-92442425D02*
X61778878Y-92490044D01*
X61778878Y-92490044D02*
X61826497Y-92585282D01*
X61826497Y-92585282D02*
X61826497Y-92728139D01*
X61826497Y-92728139D02*
X61778878Y-92823377D01*
X61778878Y-92823377D02*
X61731259Y-92870996D01*
X61731259Y-92870996D02*
X61636021Y-92918615D01*
X61636021Y-92918615D02*
X61255069Y-92918615D01*
X62112212Y-92394806D02*
X62445545Y-93394806D01*
X62445545Y-93394806D02*
X62778878Y-92394806D01*
X63112212Y-92870996D02*
X63445545Y-92870996D01*
X63588402Y-93394806D02*
X63112212Y-93394806D01*
X63112212Y-93394806D02*
X63112212Y-92394806D01*
X63112212Y-92394806D02*
X63588402Y-92394806D01*
X64731260Y-92490044D02*
X64778879Y-92442425D01*
X64778879Y-92442425D02*
X64874117Y-92394806D01*
X64874117Y-92394806D02*
X65112212Y-92394806D01*
X65112212Y-92394806D02*
X65207450Y-92442425D01*
X65207450Y-92442425D02*
X65255069Y-92490044D01*
X65255069Y-92490044D02*
X65302688Y-92585282D01*
X65302688Y-92585282D02*
X65302688Y-92680520D01*
X65302688Y-92680520D02*
X65255069Y-92823377D01*
X65255069Y-92823377D02*
X64683641Y-93394806D01*
X64683641Y-93394806D02*
X65302688Y-93394806D01*
X59815453Y-76474640D02*
X59767834Y-76522260D01*
X59767834Y-76522260D02*
X59624977Y-76569879D01*
X59624977Y-76569879D02*
X59529739Y-76569879D01*
X59529739Y-76569879D02*
X59386882Y-76522260D01*
X59386882Y-76522260D02*
X59291644Y-76427021D01*
X59291644Y-76427021D02*
X59244025Y-76331783D01*
X59244025Y-76331783D02*
X59196406Y-76141307D01*
X59196406Y-76141307D02*
X59196406Y-75998450D01*
X59196406Y-75998450D02*
X59244025Y-75807974D01*
X59244025Y-75807974D02*
X59291644Y-75712736D01*
X59291644Y-75712736D02*
X59386882Y-75617498D01*
X59386882Y-75617498D02*
X59529739Y-75569879D01*
X59529739Y-75569879D02*
X59624977Y-75569879D01*
X59624977Y-75569879D02*
X59767834Y-75617498D01*
X59767834Y-75617498D02*
X59815453Y-75665117D01*
X60244025Y-75569879D02*
X60244025Y-76379402D01*
X60244025Y-76379402D02*
X60291644Y-76474640D01*
X60291644Y-76474640D02*
X60339263Y-76522260D01*
X60339263Y-76522260D02*
X60434501Y-76569879D01*
X60434501Y-76569879D02*
X60624977Y-76569879D01*
X60624977Y-76569879D02*
X60720215Y-76522260D01*
X60720215Y-76522260D02*
X60767834Y-76474640D01*
X60767834Y-76474640D02*
X60815453Y-76379402D01*
X60815453Y-76379402D02*
X60815453Y-75569879D01*
X61863072Y-76569879D02*
X61529739Y-76093688D01*
X61291644Y-76569879D02*
X61291644Y-75569879D01*
X61291644Y-75569879D02*
X61672596Y-75569879D01*
X61672596Y-75569879D02*
X61767834Y-75617498D01*
X61767834Y-75617498D02*
X61815453Y-75665117D01*
X61815453Y-75665117D02*
X61863072Y-75760355D01*
X61863072Y-75760355D02*
X61863072Y-75903212D01*
X61863072Y-75903212D02*
X61815453Y-75998450D01*
X61815453Y-75998450D02*
X61767834Y-76046069D01*
X61767834Y-76046069D02*
X61672596Y-76093688D01*
X61672596Y-76093688D02*
X61291644Y-76093688D01*
X62148787Y-75569879D02*
X62482120Y-76569879D01*
X62482120Y-76569879D02*
X62815453Y-75569879D01*
X63148787Y-76046069D02*
X63482120Y-76046069D01*
X63624977Y-76569879D02*
X63148787Y-76569879D01*
X63148787Y-76569879D02*
X63148787Y-75569879D01*
X63148787Y-75569879D02*
X63624977Y-75569879D01*
X65339263Y-76569879D02*
X64767835Y-76569879D01*
X65053549Y-76569879D02*
X65053549Y-75569879D01*
X65053549Y-75569879D02*
X64958311Y-75712736D01*
X64958311Y-75712736D02*
X64863073Y-75807974D01*
X64863073Y-75807974D02*
X64767835Y-75855593D01*
D12*
X72369993Y-105207275D02*
X72703326Y-106207275D01*
X72703326Y-106207275D02*
X73036659Y-105207275D01*
X73322374Y-105302513D02*
X73369993Y-105254894D01*
X73369993Y-105254894D02*
X73465231Y-105207275D01*
X73465231Y-105207275D02*
X73703326Y-105207275D01*
X73703326Y-105207275D02*
X73798564Y-105254894D01*
X73798564Y-105254894D02*
X73846183Y-105302513D01*
X73846183Y-105302513D02*
X73893802Y-105397751D01*
X73893802Y-105397751D02*
X73893802Y-105492989D01*
X73893802Y-105492989D02*
X73846183Y-105635846D01*
X73846183Y-105635846D02*
X73274755Y-106207275D01*
X73274755Y-106207275D02*
X73893802Y-106207275D01*
X74893802Y-106112036D02*
X74846183Y-106159656D01*
X74846183Y-106159656D02*
X74703326Y-106207275D01*
X74703326Y-106207275D02*
X74608088Y-106207275D01*
X74608088Y-106207275D02*
X74465231Y-106159656D01*
X74465231Y-106159656D02*
X74369993Y-106064417D01*
X74369993Y-106064417D02*
X74322374Y-105969179D01*
X74322374Y-105969179D02*
X74274755Y-105778703D01*
X74274755Y-105778703D02*
X74274755Y-105635846D01*
X74274755Y-105635846D02*
X74322374Y-105445370D01*
X74322374Y-105445370D02*
X74369993Y-105350132D01*
X74369993Y-105350132D02*
X74465231Y-105254894D01*
X74465231Y-105254894D02*
X74608088Y-105207275D01*
X74608088Y-105207275D02*
X74703326Y-105207275D01*
X74703326Y-105207275D02*
X74846183Y-105254894D01*
X74846183Y-105254894D02*
X74893802Y-105302513D01*
X75274755Y-105921560D02*
X75750945Y-105921560D01*
X75179517Y-106207275D02*
X75512850Y-105207275D01*
X75512850Y-105207275D02*
X75846183Y-106207275D01*
X72560470Y-106817219D02*
X72655708Y-106817219D01*
X72655708Y-106817219D02*
X72750946Y-106864838D01*
X72750946Y-106864838D02*
X72798565Y-106912457D01*
X72798565Y-106912457D02*
X72846184Y-107007695D01*
X72846184Y-107007695D02*
X72893803Y-107198171D01*
X72893803Y-107198171D02*
X72893803Y-107436266D01*
X72893803Y-107436266D02*
X72846184Y-107626742D01*
X72846184Y-107626742D02*
X72798565Y-107721980D01*
X72798565Y-107721980D02*
X72750946Y-107769600D01*
X72750946Y-107769600D02*
X72655708Y-107817219D01*
X72655708Y-107817219D02*
X72560470Y-107817219D01*
X72560470Y-107817219D02*
X72465232Y-107769600D01*
X72465232Y-107769600D02*
X72417613Y-107721980D01*
X72417613Y-107721980D02*
X72369994Y-107626742D01*
X72369994Y-107626742D02*
X72322375Y-107436266D01*
X72322375Y-107436266D02*
X72322375Y-107198171D01*
X72322375Y-107198171D02*
X72369994Y-107007695D01*
X72369994Y-107007695D02*
X72417613Y-106912457D01*
X72417613Y-106912457D02*
X72465232Y-106864838D01*
X72465232Y-106864838D02*
X72560470Y-106817219D01*
X73322375Y-107721980D02*
X73369994Y-107769600D01*
X73369994Y-107769600D02*
X73322375Y-107817219D01*
X73322375Y-107817219D02*
X73274756Y-107769600D01*
X73274756Y-107769600D02*
X73322375Y-107721980D01*
X73322375Y-107721980D02*
X73322375Y-107817219D01*
X74322374Y-107817219D02*
X73750946Y-107817219D01*
X74036660Y-107817219D02*
X74036660Y-106817219D01*
X74036660Y-106817219D02*
X73941422Y-106960076D01*
X73941422Y-106960076D02*
X73846184Y-107055314D01*
X73846184Y-107055314D02*
X73750946Y-107102933D01*
X74750946Y-107721980D02*
X74798565Y-107769600D01*
X74798565Y-107769600D02*
X74750946Y-107817219D01*
X74750946Y-107817219D02*
X74703327Y-107769600D01*
X74703327Y-107769600D02*
X74750946Y-107721980D01*
X74750946Y-107721980D02*
X74750946Y-107817219D01*
X75417612Y-106817219D02*
X75512850Y-106817219D01*
X75512850Y-106817219D02*
X75608088Y-106864838D01*
X75608088Y-106864838D02*
X75655707Y-106912457D01*
X75655707Y-106912457D02*
X75703326Y-107007695D01*
X75703326Y-107007695D02*
X75750945Y-107198171D01*
X75750945Y-107198171D02*
X75750945Y-107436266D01*
X75750945Y-107436266D02*
X75703326Y-107626742D01*
X75703326Y-107626742D02*
X75655707Y-107721980D01*
X75655707Y-107721980D02*
X75608088Y-107769600D01*
X75608088Y-107769600D02*
X75512850Y-107817219D01*
X75512850Y-107817219D02*
X75417612Y-107817219D01*
X75417612Y-107817219D02*
X75322374Y-107769600D01*
X75322374Y-107769600D02*
X75274755Y-107721980D01*
X75274755Y-107721980D02*
X75227136Y-107626742D01*
X75227136Y-107626742D02*
X75179517Y-107436266D01*
X75179517Y-107436266D02*
X75179517Y-107198171D01*
X75179517Y-107198171D02*
X75227136Y-107007695D01*
X75227136Y-107007695D02*
X75274755Y-106912457D01*
X75274755Y-106912457D02*
X75322374Y-106864838D01*
X75322374Y-106864838D02*
X75417612Y-106817219D01*
D13*
X58873633Y-46502438D02*
X59540299Y-48502438D01*
X59540299Y-48502438D02*
X60206966Y-46502438D01*
X60778395Y-46692914D02*
X60873633Y-46597676D01*
X60873633Y-46597676D02*
X61064109Y-46502438D01*
X61064109Y-46502438D02*
X61540300Y-46502438D01*
X61540300Y-46502438D02*
X61730776Y-46597676D01*
X61730776Y-46597676D02*
X61826014Y-46692914D01*
X61826014Y-46692914D02*
X61921252Y-46883390D01*
X61921252Y-46883390D02*
X61921252Y-47073866D01*
X61921252Y-47073866D02*
X61826014Y-47359580D01*
X61826014Y-47359580D02*
X60683157Y-48502438D01*
X60683157Y-48502438D02*
X61921252Y-48502438D01*
X63921252Y-48311961D02*
X63826014Y-48407200D01*
X63826014Y-48407200D02*
X63540300Y-48502438D01*
X63540300Y-48502438D02*
X63349824Y-48502438D01*
X63349824Y-48502438D02*
X63064109Y-48407200D01*
X63064109Y-48407200D02*
X62873633Y-48216723D01*
X62873633Y-48216723D02*
X62778395Y-48026247D01*
X62778395Y-48026247D02*
X62683157Y-47645295D01*
X62683157Y-47645295D02*
X62683157Y-47359580D01*
X62683157Y-47359580D02*
X62778395Y-46978628D01*
X62778395Y-46978628D02*
X62873633Y-46788152D01*
X62873633Y-46788152D02*
X63064109Y-46597676D01*
X63064109Y-46597676D02*
X63349824Y-46502438D01*
X63349824Y-46502438D02*
X63540300Y-46502438D01*
X63540300Y-46502438D02*
X63826014Y-46597676D01*
X63826014Y-46597676D02*
X63921252Y-46692914D01*
X64683157Y-47931009D02*
X65635538Y-47931009D01*
X64492681Y-48502438D02*
X65159347Y-46502438D01*
X65159347Y-46502438D02*
X65826014Y-48502438D01*
D12*
X48963006Y-105683465D02*
X49105863Y-105731084D01*
X49105863Y-105731084D02*
X49153482Y-105778703D01*
X49153482Y-105778703D02*
X49201101Y-105873941D01*
X49201101Y-105873941D02*
X49201101Y-106016798D01*
X49201101Y-106016798D02*
X49153482Y-106112036D01*
X49153482Y-106112036D02*
X49105863Y-106159656D01*
X49105863Y-106159656D02*
X49010625Y-106207275D01*
X49010625Y-106207275D02*
X48629673Y-106207275D01*
X48629673Y-106207275D02*
X48629673Y-105207275D01*
X48629673Y-105207275D02*
X48963006Y-105207275D01*
X48963006Y-105207275D02*
X49058244Y-105254894D01*
X49058244Y-105254894D02*
X49105863Y-105302513D01*
X49105863Y-105302513D02*
X49153482Y-105397751D01*
X49153482Y-105397751D02*
X49153482Y-105492989D01*
X49153482Y-105492989D02*
X49105863Y-105588227D01*
X49105863Y-105588227D02*
X49058244Y-105635846D01*
X49058244Y-105635846D02*
X48963006Y-105683465D01*
X48963006Y-105683465D02*
X48629673Y-105683465D01*
X50201101Y-106207275D02*
X49867768Y-105731084D01*
X49629673Y-106207275D02*
X49629673Y-105207275D01*
X49629673Y-105207275D02*
X50010625Y-105207275D01*
X50010625Y-105207275D02*
X50105863Y-105254894D01*
X50105863Y-105254894D02*
X50153482Y-105302513D01*
X50153482Y-105302513D02*
X50201101Y-105397751D01*
X50201101Y-105397751D02*
X50201101Y-105540608D01*
X50201101Y-105540608D02*
X50153482Y-105635846D01*
X50153482Y-105635846D02*
X50105863Y-105683465D01*
X50105863Y-105683465D02*
X50010625Y-105731084D01*
X50010625Y-105731084D02*
X49629673Y-105731084D01*
X50629673Y-105683465D02*
X50963006Y-105683465D01*
X51105863Y-106207275D02*
X50629673Y-106207275D01*
X50629673Y-106207275D02*
X50629673Y-105207275D01*
X50629673Y-105207275D02*
X51105863Y-105207275D01*
X51486816Y-105921560D02*
X51963006Y-105921560D01*
X51391578Y-106207275D02*
X51724911Y-105207275D01*
X51724911Y-105207275D02*
X52058244Y-106207275D01*
X52391578Y-106207275D02*
X52391578Y-105207275D01*
X52391578Y-105207275D02*
X52629673Y-105207275D01*
X52629673Y-105207275D02*
X52772530Y-105254894D01*
X52772530Y-105254894D02*
X52867768Y-105350132D01*
X52867768Y-105350132D02*
X52915387Y-105445370D01*
X52915387Y-105445370D02*
X52963006Y-105635846D01*
X52963006Y-105635846D02*
X52963006Y-105778703D01*
X52963006Y-105778703D02*
X52915387Y-105969179D01*
X52915387Y-105969179D02*
X52867768Y-106064417D01*
X52867768Y-106064417D02*
X52772530Y-106159656D01*
X52772530Y-106159656D02*
X52629673Y-106207275D01*
X52629673Y-106207275D02*
X52391578Y-106207275D01*
X48629673Y-107817219D02*
X48629673Y-106817219D01*
X48629673Y-106817219D02*
X48963006Y-107531504D01*
X48963006Y-107531504D02*
X49296339Y-106817219D01*
X49296339Y-106817219D02*
X49296339Y-107817219D01*
X49963006Y-106817219D02*
X50153482Y-106817219D01*
X50153482Y-106817219D02*
X50248720Y-106864838D01*
X50248720Y-106864838D02*
X50343958Y-106960076D01*
X50343958Y-106960076D02*
X50391577Y-107150552D01*
X50391577Y-107150552D02*
X50391577Y-107483885D01*
X50391577Y-107483885D02*
X50343958Y-107674361D01*
X50343958Y-107674361D02*
X50248720Y-107769600D01*
X50248720Y-107769600D02*
X50153482Y-107817219D01*
X50153482Y-107817219D02*
X49963006Y-107817219D01*
X49963006Y-107817219D02*
X49867768Y-107769600D01*
X49867768Y-107769600D02*
X49772530Y-107674361D01*
X49772530Y-107674361D02*
X49724911Y-107483885D01*
X49724911Y-107483885D02*
X49724911Y-107150552D01*
X49724911Y-107150552D02*
X49772530Y-106960076D01*
X49772530Y-106960076D02*
X49867768Y-106864838D01*
X49867768Y-106864838D02*
X49963006Y-106817219D01*
X50820149Y-107817219D02*
X50820149Y-106817219D01*
X50820149Y-106817219D02*
X51058244Y-106817219D01*
X51058244Y-106817219D02*
X51201101Y-106864838D01*
X51201101Y-106864838D02*
X51296339Y-106960076D01*
X51296339Y-106960076D02*
X51343958Y-107055314D01*
X51343958Y-107055314D02*
X51391577Y-107245790D01*
X51391577Y-107245790D02*
X51391577Y-107388647D01*
X51391577Y-107388647D02*
X51343958Y-107579123D01*
X51343958Y-107579123D02*
X51296339Y-107674361D01*
X51296339Y-107674361D02*
X51201101Y-107769600D01*
X51201101Y-107769600D02*
X51058244Y-107817219D01*
X51058244Y-107817219D02*
X50820149Y-107817219D01*
X51820149Y-106817219D02*
X51820149Y-107626742D01*
X51820149Y-107626742D02*
X51867768Y-107721980D01*
X51867768Y-107721980D02*
X51915387Y-107769600D01*
X51915387Y-107769600D02*
X52010625Y-107817219D01*
X52010625Y-107817219D02*
X52201101Y-107817219D01*
X52201101Y-107817219D02*
X52296339Y-107769600D01*
X52296339Y-107769600D02*
X52343958Y-107721980D01*
X52343958Y-107721980D02*
X52391577Y-107626742D01*
X52391577Y-107626742D02*
X52391577Y-106817219D01*
X53343958Y-107817219D02*
X52867768Y-107817219D01*
X52867768Y-107817219D02*
X52867768Y-106817219D01*
X53629673Y-107531504D02*
X54105863Y-107531504D01*
X53534435Y-107817219D02*
X53867768Y-106817219D01*
X53867768Y-106817219D02*
X54201101Y-107817219D01*
X55105863Y-107817219D02*
X54772530Y-107341028D01*
X54534435Y-107817219D02*
X54534435Y-106817219D01*
X54534435Y-106817219D02*
X54915387Y-106817219D01*
X54915387Y-106817219D02*
X55010625Y-106864838D01*
X55010625Y-106864838D02*
X55058244Y-106912457D01*
X55058244Y-106912457D02*
X55105863Y-107007695D01*
X55105863Y-107007695D02*
X55105863Y-107150552D01*
X55105863Y-107150552D02*
X55058244Y-107245790D01*
X55058244Y-107245790D02*
X55010625Y-107293409D01*
X55010625Y-107293409D02*
X54915387Y-107341028D01*
X54915387Y-107341028D02*
X54534435Y-107341028D01*
D11*
X54483095Y-60414819D02*
X54483095Y-61224342D01*
X54483095Y-61224342D02*
X54530714Y-61319580D01*
X54530714Y-61319580D02*
X54578333Y-61367200D01*
X54578333Y-61367200D02*
X54673571Y-61414819D01*
X54673571Y-61414819D02*
X54864047Y-61414819D01*
X54864047Y-61414819D02*
X54959285Y-61367200D01*
X54959285Y-61367200D02*
X55006904Y-61319580D01*
X55006904Y-61319580D02*
X55054523Y-61224342D01*
X55054523Y-61224342D02*
X55054523Y-60414819D01*
X56006904Y-60414819D02*
X55530714Y-60414819D01*
X55530714Y-60414819D02*
X55483095Y-60891009D01*
X55483095Y-60891009D02*
X55530714Y-60843390D01*
X55530714Y-60843390D02*
X55625952Y-60795771D01*
X55625952Y-60795771D02*
X55864047Y-60795771D01*
X55864047Y-60795771D02*
X55959285Y-60843390D01*
X55959285Y-60843390D02*
X56006904Y-60891009D01*
X56006904Y-60891009D02*
X56054523Y-60986247D01*
X56054523Y-60986247D02*
X56054523Y-61224342D01*
X56054523Y-61224342D02*
X56006904Y-61319580D01*
X56006904Y-61319580D02*
X55959285Y-61367200D01*
X55959285Y-61367200D02*
X55864047Y-61414819D01*
X55864047Y-61414819D02*
X55625952Y-61414819D01*
X55625952Y-61414819D02*
X55530714Y-61367200D01*
X55530714Y-61367200D02*
X55483095Y-61319580D01*
X68453095Y-60414819D02*
X68453095Y-61224342D01*
X68453095Y-61224342D02*
X68500714Y-61319580D01*
X68500714Y-61319580D02*
X68548333Y-61367200D01*
X68548333Y-61367200D02*
X68643571Y-61414819D01*
X68643571Y-61414819D02*
X68834047Y-61414819D01*
X68834047Y-61414819D02*
X68929285Y-61367200D01*
X68929285Y-61367200D02*
X68976904Y-61319580D01*
X68976904Y-61319580D02*
X69024523Y-61224342D01*
X69024523Y-61224342D02*
X69024523Y-60414819D01*
X69929285Y-60748152D02*
X69929285Y-61414819D01*
X69691190Y-60367200D02*
X69453095Y-61081485D01*
X69453095Y-61081485D02*
X70072142Y-61081485D01*
X67564095Y-98514819D02*
X67564095Y-99324342D01*
X67564095Y-99324342D02*
X67611714Y-99419580D01*
X67611714Y-99419580D02*
X67659333Y-99467200D01*
X67659333Y-99467200D02*
X67754571Y-99514819D01*
X67754571Y-99514819D02*
X67945047Y-99514819D01*
X67945047Y-99514819D02*
X68040285Y-99467200D01*
X68040285Y-99467200D02*
X68087904Y-99419580D01*
X68087904Y-99419580D02*
X68135523Y-99324342D01*
X68135523Y-99324342D02*
X68135523Y-98514819D01*
X68564095Y-98610057D02*
X68611714Y-98562438D01*
X68611714Y-98562438D02*
X68706952Y-98514819D01*
X68706952Y-98514819D02*
X68945047Y-98514819D01*
X68945047Y-98514819D02*
X69040285Y-98562438D01*
X69040285Y-98562438D02*
X69087904Y-98610057D01*
X69087904Y-98610057D02*
X69135523Y-98705295D01*
X69135523Y-98705295D02*
X69135523Y-98800533D01*
X69135523Y-98800533D02*
X69087904Y-98943390D01*
X69087904Y-98943390D02*
X68516476Y-99514819D01*
X68516476Y-99514819D02*
X69135523Y-99514819D01*
D10*
X71179999Y-91912633D02*
X70946666Y-91579300D01*
X70779999Y-91912633D02*
X70779999Y-91212633D01*
X70779999Y-91212633D02*
X71046666Y-91212633D01*
X71046666Y-91212633D02*
X71113333Y-91245966D01*
X71113333Y-91245966D02*
X71146666Y-91279300D01*
X71146666Y-91279300D02*
X71179999Y-91345966D01*
X71179999Y-91345966D02*
X71179999Y-91445966D01*
X71179999Y-91445966D02*
X71146666Y-91512633D01*
X71146666Y-91512633D02*
X71113333Y-91545966D01*
X71113333Y-91545966D02*
X71046666Y-91579300D01*
X71046666Y-91579300D02*
X70779999Y-91579300D01*
X71846666Y-91912633D02*
X71446666Y-91912633D01*
X71646666Y-91912633D02*
X71646666Y-91212633D01*
X71646666Y-91212633D02*
X71579999Y-91312633D01*
X71579999Y-91312633D02*
X71513333Y-91379300D01*
X71513333Y-91379300D02*
X71446666Y-91412633D01*
X72280000Y-91212633D02*
X72346666Y-91212633D01*
X72346666Y-91212633D02*
X72413333Y-91245966D01*
X72413333Y-91245966D02*
X72446666Y-91279300D01*
X72446666Y-91279300D02*
X72480000Y-91345966D01*
X72480000Y-91345966D02*
X72513333Y-91479300D01*
X72513333Y-91479300D02*
X72513333Y-91645966D01*
X72513333Y-91645966D02*
X72480000Y-91779300D01*
X72480000Y-91779300D02*
X72446666Y-91845966D01*
X72446666Y-91845966D02*
X72413333Y-91879300D01*
X72413333Y-91879300D02*
X72346666Y-91912633D01*
X72346666Y-91912633D02*
X72280000Y-91912633D01*
X72280000Y-91912633D02*
X72213333Y-91879300D01*
X72213333Y-91879300D02*
X72180000Y-91845966D01*
X72180000Y-91845966D02*
X72146666Y-91779300D01*
X72146666Y-91779300D02*
X72113333Y-91645966D01*
X72113333Y-91645966D02*
X72113333Y-91479300D01*
X72113333Y-91479300D02*
X72146666Y-91345966D01*
X72146666Y-91345966D02*
X72180000Y-91279300D01*
X72180000Y-91279300D02*
X72213333Y-91245966D01*
X72213333Y-91245966D02*
X72280000Y-91212633D01*
X73924333Y-91912633D02*
X73691000Y-91579300D01*
X73524333Y-91912633D02*
X73524333Y-91212633D01*
X73524333Y-91212633D02*
X73791000Y-91212633D01*
X73791000Y-91212633D02*
X73857667Y-91245966D01*
X73857667Y-91245966D02*
X73891000Y-91279300D01*
X73891000Y-91279300D02*
X73924333Y-91345966D01*
X73924333Y-91345966D02*
X73924333Y-91445966D01*
X73924333Y-91445966D02*
X73891000Y-91512633D01*
X73891000Y-91512633D02*
X73857667Y-91545966D01*
X73857667Y-91545966D02*
X73791000Y-91579300D01*
X73791000Y-91579300D02*
X73524333Y-91579300D01*
X74257667Y-91912633D02*
X74391000Y-91912633D01*
X74391000Y-91912633D02*
X74457667Y-91879300D01*
X74457667Y-91879300D02*
X74491000Y-91845966D01*
X74491000Y-91845966D02*
X74557667Y-91745966D01*
X74557667Y-91745966D02*
X74591000Y-91612633D01*
X74591000Y-91612633D02*
X74591000Y-91345966D01*
X74591000Y-91345966D02*
X74557667Y-91279300D01*
X74557667Y-91279300D02*
X74524333Y-91245966D01*
X74524333Y-91245966D02*
X74457667Y-91212633D01*
X74457667Y-91212633D02*
X74324333Y-91212633D01*
X74324333Y-91212633D02*
X74257667Y-91245966D01*
X74257667Y-91245966D02*
X74224333Y-91279300D01*
X74224333Y-91279300D02*
X74191000Y-91345966D01*
X74191000Y-91345966D02*
X74191000Y-91512633D01*
X74191000Y-91512633D02*
X74224333Y-91579300D01*
X74224333Y-91579300D02*
X74257667Y-91612633D01*
X74257667Y-91612633D02*
X74324333Y-91645966D01*
X74324333Y-91645966D02*
X74457667Y-91645966D01*
X74457667Y-91645966D02*
X74524333Y-91612633D01*
X74524333Y-91612633D02*
X74557667Y-91579300D01*
X74557667Y-91579300D02*
X74591000Y-91512633D01*
X69225333Y-91912633D02*
X68992000Y-91579300D01*
X68825333Y-91912633D02*
X68825333Y-91212633D01*
X68825333Y-91212633D02*
X69092000Y-91212633D01*
X69092000Y-91212633D02*
X69158667Y-91245966D01*
X69158667Y-91245966D02*
X69192000Y-91279300D01*
X69192000Y-91279300D02*
X69225333Y-91345966D01*
X69225333Y-91345966D02*
X69225333Y-91445966D01*
X69225333Y-91445966D02*
X69192000Y-91512633D01*
X69192000Y-91512633D02*
X69158667Y-91545966D01*
X69158667Y-91545966D02*
X69092000Y-91579300D01*
X69092000Y-91579300D02*
X68825333Y-91579300D01*
X69625333Y-91512633D02*
X69558667Y-91479300D01*
X69558667Y-91479300D02*
X69525333Y-91445966D01*
X69525333Y-91445966D02*
X69492000Y-91379300D01*
X69492000Y-91379300D02*
X69492000Y-91345966D01*
X69492000Y-91345966D02*
X69525333Y-91279300D01*
X69525333Y-91279300D02*
X69558667Y-91245966D01*
X69558667Y-91245966D02*
X69625333Y-91212633D01*
X69625333Y-91212633D02*
X69758667Y-91212633D01*
X69758667Y-91212633D02*
X69825333Y-91245966D01*
X69825333Y-91245966D02*
X69858667Y-91279300D01*
X69858667Y-91279300D02*
X69892000Y-91345966D01*
X69892000Y-91345966D02*
X69892000Y-91379300D01*
X69892000Y-91379300D02*
X69858667Y-91445966D01*
X69858667Y-91445966D02*
X69825333Y-91479300D01*
X69825333Y-91479300D02*
X69758667Y-91512633D01*
X69758667Y-91512633D02*
X69625333Y-91512633D01*
X69625333Y-91512633D02*
X69558667Y-91545966D01*
X69558667Y-91545966D02*
X69525333Y-91579300D01*
X69525333Y-91579300D02*
X69492000Y-91645966D01*
X69492000Y-91645966D02*
X69492000Y-91779300D01*
X69492000Y-91779300D02*
X69525333Y-91845966D01*
X69525333Y-91845966D02*
X69558667Y-91879300D01*
X69558667Y-91879300D02*
X69625333Y-91912633D01*
X69625333Y-91912633D02*
X69758667Y-91912633D01*
X69758667Y-91912633D02*
X69825333Y-91879300D01*
X69825333Y-91879300D02*
X69858667Y-91845966D01*
X69858667Y-91845966D02*
X69892000Y-91779300D01*
X69892000Y-91779300D02*
X69892000Y-91645966D01*
X69892000Y-91645966D02*
X69858667Y-91579300D01*
X69858667Y-91579300D02*
X69825333Y-91545966D01*
X69825333Y-91545966D02*
X69758667Y-91512633D01*
X72019333Y-77534633D02*
X71786000Y-77201300D01*
X71619333Y-77534633D02*
X71619333Y-76834633D01*
X71619333Y-76834633D02*
X71886000Y-76834633D01*
X71886000Y-76834633D02*
X71952667Y-76867966D01*
X71952667Y-76867966D02*
X71986000Y-76901300D01*
X71986000Y-76901300D02*
X72019333Y-76967966D01*
X72019333Y-76967966D02*
X72019333Y-77067966D01*
X72019333Y-77067966D02*
X71986000Y-77134633D01*
X71986000Y-77134633D02*
X71952667Y-77167966D01*
X71952667Y-77167966D02*
X71886000Y-77201300D01*
X71886000Y-77201300D02*
X71619333Y-77201300D01*
X72252667Y-76834633D02*
X72719333Y-76834633D01*
X72719333Y-76834633D02*
X72419333Y-77534633D01*
X60210333Y-102453633D02*
X59977000Y-102120300D01*
X59810333Y-102453633D02*
X59810333Y-101753633D01*
X59810333Y-101753633D02*
X60077000Y-101753633D01*
X60077000Y-101753633D02*
X60143667Y-101786966D01*
X60143667Y-101786966D02*
X60177000Y-101820300D01*
X60177000Y-101820300D02*
X60210333Y-101886966D01*
X60210333Y-101886966D02*
X60210333Y-101986966D01*
X60210333Y-101986966D02*
X60177000Y-102053633D01*
X60177000Y-102053633D02*
X60143667Y-102086966D01*
X60143667Y-102086966D02*
X60077000Y-102120300D01*
X60077000Y-102120300D02*
X59810333Y-102120300D01*
X60810333Y-101753633D02*
X60677000Y-101753633D01*
X60677000Y-101753633D02*
X60610333Y-101786966D01*
X60610333Y-101786966D02*
X60577000Y-101820300D01*
X60577000Y-101820300D02*
X60510333Y-101920300D01*
X60510333Y-101920300D02*
X60477000Y-102053633D01*
X60477000Y-102053633D02*
X60477000Y-102320300D01*
X60477000Y-102320300D02*
X60510333Y-102386966D01*
X60510333Y-102386966D02*
X60543667Y-102420300D01*
X60543667Y-102420300D02*
X60610333Y-102453633D01*
X60610333Y-102453633D02*
X60743667Y-102453633D01*
X60743667Y-102453633D02*
X60810333Y-102420300D01*
X60810333Y-102420300D02*
X60843667Y-102386966D01*
X60843667Y-102386966D02*
X60877000Y-102320300D01*
X60877000Y-102320300D02*
X60877000Y-102153633D01*
X60877000Y-102153633D02*
X60843667Y-102086966D01*
X60843667Y-102086966D02*
X60810333Y-102053633D01*
X60810333Y-102053633D02*
X60743667Y-102020300D01*
X60743667Y-102020300D02*
X60610333Y-102020300D01*
X60610333Y-102020300D02*
X60543667Y-102053633D01*
X60543667Y-102053633D02*
X60510333Y-102086966D01*
X60510333Y-102086966D02*
X60477000Y-102153633D01*
X63256333Y-102453633D02*
X63023000Y-102120300D01*
X62856333Y-102453633D02*
X62856333Y-101753633D01*
X62856333Y-101753633D02*
X63123000Y-101753633D01*
X63123000Y-101753633D02*
X63189667Y-101786966D01*
X63189667Y-101786966D02*
X63223000Y-101820300D01*
X63223000Y-101820300D02*
X63256333Y-101886966D01*
X63256333Y-101886966D02*
X63256333Y-101986966D01*
X63256333Y-101986966D02*
X63223000Y-102053633D01*
X63223000Y-102053633D02*
X63189667Y-102086966D01*
X63189667Y-102086966D02*
X63123000Y-102120300D01*
X63123000Y-102120300D02*
X62856333Y-102120300D01*
X63889667Y-101753633D02*
X63556333Y-101753633D01*
X63556333Y-101753633D02*
X63523000Y-102086966D01*
X63523000Y-102086966D02*
X63556333Y-102053633D01*
X63556333Y-102053633D02*
X63623000Y-102020300D01*
X63623000Y-102020300D02*
X63789667Y-102020300D01*
X63789667Y-102020300D02*
X63856333Y-102053633D01*
X63856333Y-102053633D02*
X63889667Y-102086966D01*
X63889667Y-102086966D02*
X63923000Y-102153633D01*
X63923000Y-102153633D02*
X63923000Y-102320300D01*
X63923000Y-102320300D02*
X63889667Y-102386966D01*
X63889667Y-102386966D02*
X63856333Y-102420300D01*
X63856333Y-102420300D02*
X63789667Y-102453633D01*
X63789667Y-102453633D02*
X63623000Y-102453633D01*
X63623000Y-102453633D02*
X63556333Y-102420300D01*
X63556333Y-102420300D02*
X63523000Y-102386966D01*
X72398333Y-104358633D02*
X72165000Y-104025300D01*
X71998333Y-104358633D02*
X71998333Y-103658633D01*
X71998333Y-103658633D02*
X72265000Y-103658633D01*
X72265000Y-103658633D02*
X72331667Y-103691966D01*
X72331667Y-103691966D02*
X72365000Y-103725300D01*
X72365000Y-103725300D02*
X72398333Y-103791966D01*
X72398333Y-103791966D02*
X72398333Y-103891966D01*
X72398333Y-103891966D02*
X72365000Y-103958633D01*
X72365000Y-103958633D02*
X72331667Y-103991966D01*
X72331667Y-103991966D02*
X72265000Y-104025300D01*
X72265000Y-104025300D02*
X71998333Y-104025300D01*
X72998333Y-103891966D02*
X72998333Y-104358633D01*
X72831667Y-103625300D02*
X72665000Y-104125300D01*
X72665000Y-104125300D02*
X73098333Y-104125300D01*
X74811333Y-104358633D02*
X74578000Y-104025300D01*
X74411333Y-104358633D02*
X74411333Y-103658633D01*
X74411333Y-103658633D02*
X74678000Y-103658633D01*
X74678000Y-103658633D02*
X74744667Y-103691966D01*
X74744667Y-103691966D02*
X74778000Y-103725300D01*
X74778000Y-103725300D02*
X74811333Y-103791966D01*
X74811333Y-103791966D02*
X74811333Y-103891966D01*
X74811333Y-103891966D02*
X74778000Y-103958633D01*
X74778000Y-103958633D02*
X74744667Y-103991966D01*
X74744667Y-103991966D02*
X74678000Y-104025300D01*
X74678000Y-104025300D02*
X74411333Y-104025300D01*
X75044667Y-103658633D02*
X75478000Y-103658633D01*
X75478000Y-103658633D02*
X75244667Y-103925300D01*
X75244667Y-103925300D02*
X75344667Y-103925300D01*
X75344667Y-103925300D02*
X75411333Y-103958633D01*
X75411333Y-103958633D02*
X75444667Y-103991966D01*
X75444667Y-103991966D02*
X75478000Y-104058633D01*
X75478000Y-104058633D02*
X75478000Y-104225300D01*
X75478000Y-104225300D02*
X75444667Y-104291966D01*
X75444667Y-104291966D02*
X75411333Y-104325300D01*
X75411333Y-104325300D02*
X75344667Y-104358633D01*
X75344667Y-104358633D02*
X75144667Y-104358633D01*
X75144667Y-104358633D02*
X75078000Y-104325300D01*
X75078000Y-104325300D02*
X75044667Y-104291966D01*
X70114333Y-104331633D02*
X69881000Y-103998300D01*
X69714333Y-104331633D02*
X69714333Y-103631633D01*
X69714333Y-103631633D02*
X69981000Y-103631633D01*
X69981000Y-103631633D02*
X70047667Y-103664966D01*
X70047667Y-103664966D02*
X70081000Y-103698300D01*
X70081000Y-103698300D02*
X70114333Y-103764966D01*
X70114333Y-103764966D02*
X70114333Y-103864966D01*
X70114333Y-103864966D02*
X70081000Y-103931633D01*
X70081000Y-103931633D02*
X70047667Y-103964966D01*
X70047667Y-103964966D02*
X69981000Y-103998300D01*
X69981000Y-103998300D02*
X69714333Y-103998300D01*
X70381000Y-103698300D02*
X70414333Y-103664966D01*
X70414333Y-103664966D02*
X70481000Y-103631633D01*
X70481000Y-103631633D02*
X70647667Y-103631633D01*
X70647667Y-103631633D02*
X70714333Y-103664966D01*
X70714333Y-103664966D02*
X70747667Y-103698300D01*
X70747667Y-103698300D02*
X70781000Y-103764966D01*
X70781000Y-103764966D02*
X70781000Y-103831633D01*
X70781000Y-103831633D02*
X70747667Y-103931633D01*
X70747667Y-103931633D02*
X70347667Y-104331633D01*
X70347667Y-104331633D02*
X70781000Y-104331633D01*
X52207333Y-77533633D02*
X51974000Y-77200300D01*
X51807333Y-77533633D02*
X51807333Y-76833633D01*
X51807333Y-76833633D02*
X52074000Y-76833633D01*
X52074000Y-76833633D02*
X52140667Y-76866966D01*
X52140667Y-76866966D02*
X52174000Y-76900300D01*
X52174000Y-76900300D02*
X52207333Y-76966966D01*
X52207333Y-76966966D02*
X52207333Y-77066966D01*
X52207333Y-77066966D02*
X52174000Y-77133633D01*
X52174000Y-77133633D02*
X52140667Y-77166966D01*
X52140667Y-77166966D02*
X52074000Y-77200300D01*
X52074000Y-77200300D02*
X51807333Y-77200300D01*
X52874000Y-77533633D02*
X52474000Y-77533633D01*
X52674000Y-77533633D02*
X52674000Y-76833633D01*
X52674000Y-76833633D02*
X52607333Y-76933633D01*
X52607333Y-76933633D02*
X52540667Y-77000300D01*
X52540667Y-77000300D02*
X52474000Y-77033633D01*
X50330333Y-59052966D02*
X50297000Y-59086300D01*
X50297000Y-59086300D02*
X50197000Y-59119633D01*
X50197000Y-59119633D02*
X50130333Y-59119633D01*
X50130333Y-59119633D02*
X50030333Y-59086300D01*
X50030333Y-59086300D02*
X49963667Y-59019633D01*
X49963667Y-59019633D02*
X49930333Y-58952966D01*
X49930333Y-58952966D02*
X49897000Y-58819633D01*
X49897000Y-58819633D02*
X49897000Y-58719633D01*
X49897000Y-58719633D02*
X49930333Y-58586300D01*
X49930333Y-58586300D02*
X49963667Y-58519633D01*
X49963667Y-58519633D02*
X50030333Y-58452966D01*
X50030333Y-58452966D02*
X50130333Y-58419633D01*
X50130333Y-58419633D02*
X50197000Y-58419633D01*
X50197000Y-58419633D02*
X50297000Y-58452966D01*
X50297000Y-58452966D02*
X50330333Y-58486300D01*
X50563667Y-58419633D02*
X50997000Y-58419633D01*
X50997000Y-58419633D02*
X50763667Y-58686300D01*
X50763667Y-58686300D02*
X50863667Y-58686300D01*
X50863667Y-58686300D02*
X50930333Y-58719633D01*
X50930333Y-58719633D02*
X50963667Y-58752966D01*
X50963667Y-58752966D02*
X50997000Y-58819633D01*
X50997000Y-58819633D02*
X50997000Y-58986300D01*
X50997000Y-58986300D02*
X50963667Y-59052966D01*
X50963667Y-59052966D02*
X50930333Y-59086300D01*
X50930333Y-59086300D02*
X50863667Y-59119633D01*
X50863667Y-59119633D02*
X50663667Y-59119633D01*
X50663667Y-59119633D02*
X50597000Y-59086300D01*
X50597000Y-59086300D02*
X50563667Y-59052966D01*
X63637333Y-60576966D02*
X63604000Y-60610300D01*
X63604000Y-60610300D02*
X63504000Y-60643633D01*
X63504000Y-60643633D02*
X63437333Y-60643633D01*
X63437333Y-60643633D02*
X63337333Y-60610300D01*
X63337333Y-60610300D02*
X63270667Y-60543633D01*
X63270667Y-60543633D02*
X63237333Y-60476966D01*
X63237333Y-60476966D02*
X63204000Y-60343633D01*
X63204000Y-60343633D02*
X63204000Y-60243633D01*
X63204000Y-60243633D02*
X63237333Y-60110300D01*
X63237333Y-60110300D02*
X63270667Y-60043633D01*
X63270667Y-60043633D02*
X63337333Y-59976966D01*
X63337333Y-59976966D02*
X63437333Y-59943633D01*
X63437333Y-59943633D02*
X63504000Y-59943633D01*
X63504000Y-59943633D02*
X63604000Y-59976966D01*
X63604000Y-59976966D02*
X63637333Y-60010300D01*
X63904000Y-60010300D02*
X63937333Y-59976966D01*
X63937333Y-59976966D02*
X64004000Y-59943633D01*
X64004000Y-59943633D02*
X64170667Y-59943633D01*
X64170667Y-59943633D02*
X64237333Y-59976966D01*
X64237333Y-59976966D02*
X64270667Y-60010300D01*
X64270667Y-60010300D02*
X64304000Y-60076966D01*
X64304000Y-60076966D02*
X64304000Y-60143633D01*
X64304000Y-60143633D02*
X64270667Y-60243633D01*
X64270667Y-60243633D02*
X63870667Y-60643633D01*
X63870667Y-60643633D02*
X64304000Y-60643633D01*
X69339966Y-96509666D02*
X69373300Y-96542999D01*
X69373300Y-96542999D02*
X69406633Y-96642999D01*
X69406633Y-96642999D02*
X69406633Y-96709666D01*
X69406633Y-96709666D02*
X69373300Y-96809666D01*
X69373300Y-96809666D02*
X69306633Y-96876333D01*
X69306633Y-96876333D02*
X69239966Y-96909666D01*
X69239966Y-96909666D02*
X69106633Y-96942999D01*
X69106633Y-96942999D02*
X69006633Y-96942999D01*
X69006633Y-96942999D02*
X68873300Y-96909666D01*
X68873300Y-96909666D02*
X68806633Y-96876333D01*
X68806633Y-96876333D02*
X68739966Y-96809666D01*
X68739966Y-96809666D02*
X68706633Y-96709666D01*
X68706633Y-96709666D02*
X68706633Y-96642999D01*
X68706633Y-96642999D02*
X68739966Y-96542999D01*
X68739966Y-96542999D02*
X68773300Y-96509666D01*
X69406633Y-95842999D02*
X69406633Y-96242999D01*
X69406633Y-96042999D02*
X68706633Y-96042999D01*
X68706633Y-96042999D02*
X68806633Y-96109666D01*
X68806633Y-96109666D02*
X68873300Y-96176333D01*
X68873300Y-96176333D02*
X68906633Y-96242999D01*
D14*
%TO.C,U5*%
X57720000Y-54590000D02*
X55770000Y-54590000D01*
X57720000Y-54590000D02*
X59670000Y-54590000D01*
X57720000Y-59710000D02*
X55770000Y-59710000D01*
X57720000Y-59710000D02*
X59670000Y-59710000D01*
X55020000Y-54685000D02*
X54780000Y-54355000D01*
X55260000Y-54355000D01*
X55020000Y-54685000D01*
G36*
X55020000Y-54685000D02*
G01*
X54780000Y-54355000D01*
X55260000Y-54355000D01*
X55020000Y-54685000D01*
G37*
%TO.C,U4*%
X66610000Y-54590000D02*
X64660000Y-54590000D01*
X66610000Y-54590000D02*
X68560000Y-54590000D01*
X66610000Y-59710000D02*
X64660000Y-59710000D01*
X66610000Y-59710000D02*
X68560000Y-59710000D01*
X63910000Y-54685000D02*
X63670000Y-54355000D01*
X64150000Y-54355000D01*
X63910000Y-54685000D01*
G36*
X63910000Y-54685000D02*
G01*
X63670000Y-54355000D01*
X64150000Y-54355000D01*
X63910000Y-54685000D01*
G37*
%TO.C,U2*%
X69945000Y-96328000D02*
X69945000Y-98278000D01*
X69945000Y-96328000D02*
X69945000Y-94378000D01*
X75065000Y-96328000D02*
X75065000Y-98278000D01*
X75065000Y-96328000D02*
X75065000Y-94378000D01*
X70040000Y-99028000D02*
X69710000Y-99268000D01*
X69710000Y-98788000D01*
X70040000Y-99028000D01*
G36*
X70040000Y-99028000D02*
G01*
X69710000Y-99268000D01*
X69710000Y-98788000D01*
X70040000Y-99028000D01*
G37*
%TO.C,RV2*%
X61440000Y-89681000D02*
X60910000Y-89681000D01*
X57360000Y-81151000D02*
X57360000Y-78091000D01*
X57350000Y-89681000D02*
X57350000Y-84961000D01*
X67100000Y-81151000D02*
X67100000Y-78091000D01*
X67100000Y-78091000D02*
X57360000Y-78091000D01*
X58540000Y-89681000D02*
X57360000Y-89681000D01*
X63890000Y-89681000D02*
X63060000Y-89681000D01*
X67100000Y-89681000D02*
X65610000Y-89681000D01*
X67100000Y-89681000D02*
X67100000Y-84961000D01*
%TO.C,RV1*%
X61440000Y-72790000D02*
X60910000Y-72790000D01*
X57360000Y-64260000D02*
X57360000Y-61200000D01*
X57350000Y-72790000D02*
X57350000Y-68070000D01*
X67100000Y-64260000D02*
X67100000Y-61200000D01*
X67100000Y-61200000D02*
X57360000Y-61200000D01*
X58540000Y-72790000D02*
X57360000Y-72790000D01*
X63890000Y-72790000D02*
X63060000Y-72790000D01*
X67100000Y-72790000D02*
X65610000Y-72790000D01*
X67100000Y-72790000D02*
X67100000Y-68070000D01*
%TO.C,R10*%
X71783641Y-90804000D02*
X71476359Y-90804000D01*
X71783641Y-90044000D02*
X71476359Y-90044000D01*
%TO.C,R9*%
X74194641Y-90804000D02*
X73887359Y-90804000D01*
X74194641Y-90044000D02*
X73887359Y-90044000D01*
%TO.C,R8*%
X69495641Y-90804000D02*
X69188359Y-90804000D01*
X69495641Y-90044000D02*
X69188359Y-90044000D01*
%TO.C,R7*%
X71885436Y-74830000D02*
X72339564Y-74830000D01*
X71885436Y-76300000D02*
X72339564Y-76300000D01*
%TO.C,R6*%
X60480641Y-100585000D02*
X60173359Y-100585000D01*
X60480641Y-101345000D02*
X60173359Y-101345000D01*
%TO.C,R5*%
X63526641Y-100585000D02*
X63219359Y-100585000D01*
X63526641Y-101345000D02*
X63219359Y-101345000D01*
%TO.C,R4*%
X72668641Y-103250000D02*
X72361359Y-103250000D01*
X72668641Y-102490000D02*
X72361359Y-102490000D01*
%TO.C,R3*%
X75081641Y-102490000D02*
X74774359Y-102490000D01*
X75081641Y-103250000D02*
X74774359Y-103250000D01*
%TO.C,R2*%
X70358641Y-103247000D02*
X70051359Y-103247000D01*
X70358641Y-102487000D02*
X70051359Y-102487000D01*
%TO.C,R1*%
X52551064Y-76300000D02*
X52096936Y-76300000D01*
X52551064Y-74830000D02*
X52096936Y-74830000D01*
%TO.C,OUTPUT1*%
X72330000Y-46990000D02*
X72330000Y-57210000D01*
X72330000Y-46990000D02*
X74990000Y-46990000D01*
X72330000Y-57210000D02*
X74990000Y-57210000D01*
X73660000Y-44390000D02*
X74990000Y-44390000D01*
X74990000Y-44390000D02*
X74990000Y-45720000D01*
X74990000Y-46990000D02*
X74990000Y-57210000D01*
%TO.C,C3*%
X52244164Y-58441000D02*
X52459836Y-58441000D01*
X52244164Y-59161000D02*
X52459836Y-59161000D01*
%TO.C,C2*%
X66302836Y-60685000D02*
X66087164Y-60685000D01*
X66302836Y-59965000D02*
X66087164Y-59965000D01*
%TO.C,C1*%
X69448000Y-94733164D02*
X69448000Y-94948836D01*
X68728000Y-94733164D02*
X68728000Y-94948836D01*
%TO.C,INPUT1*%
X49470000Y-46990000D02*
X49470000Y-57210000D01*
X49470000Y-46990000D02*
X52130000Y-46990000D01*
X49470000Y-57210000D02*
X52130000Y-57210000D01*
X50800000Y-44390000D02*
X52130000Y-44390000D01*
X52130000Y-44390000D02*
X52130000Y-45720000D01*
X52130000Y-46990000D02*
X52130000Y-57210000D01*
%TD*%
%LPC*%
D15*
%TO.C,U5*%
X55245000Y-55245000D03*
X55245000Y-56515000D03*
X55245000Y-57785000D03*
X55245000Y-59055000D03*
X60195000Y-59055000D03*
X60195000Y-57785000D03*
X60195000Y-56515000D03*
X60195000Y-55245000D03*
D16*
X57720000Y-57150000D03*
%TD*%
D15*
%TO.C,U4*%
X64135000Y-55245000D03*
X64135000Y-56515000D03*
X64135000Y-57785000D03*
X64135000Y-59055000D03*
X69085000Y-59055000D03*
X69085000Y-57785000D03*
X69085000Y-56515000D03*
X69085000Y-55245000D03*
D16*
X66610000Y-57150000D03*
%TD*%
D17*
%TO.C,U3*%
X70485000Y-69215000D03*
X73025000Y-69215000D03*
X70485000Y-81915000D03*
X73025000Y-81915000D03*
%TD*%
D18*
%TO.C,U2*%
X70600000Y-98803000D03*
X71870000Y-98803000D03*
X73140000Y-98803000D03*
X74410000Y-98803000D03*
X74410000Y-93853000D03*
X73140000Y-93853000D03*
X71870000Y-93853000D03*
X70600000Y-93853000D03*
D19*
X72505000Y-96328000D03*
%TD*%
D17*
%TO.C,U1*%
X51435000Y-69215000D03*
X53975000Y-69215000D03*
X51435000Y-81915000D03*
X53975000Y-81915000D03*
%TD*%
D20*
%TO.C,RV2*%
X59730000Y-90561000D03*
D17*
X64730000Y-90561000D03*
X62230000Y-90561000D03*
D21*
X67030000Y-83061000D03*
X57430000Y-83061000D03*
%TD*%
D20*
%TO.C,RV1*%
X59730000Y-73670000D03*
D17*
X64730000Y-73670000D03*
X62230000Y-73670000D03*
D21*
X67030000Y-66170000D03*
X57430000Y-66170000D03*
%TD*%
D22*
%TO.C,R10*%
X72140000Y-90424000D03*
X71120000Y-90424000D03*
%TD*%
%TO.C,R9*%
X74551000Y-90424000D03*
X73531000Y-90424000D03*
%TD*%
%TO.C,R8*%
X69852000Y-90424000D03*
X68832000Y-90424000D03*
%TD*%
D23*
%TO.C,R7*%
X71200000Y-75565000D03*
X73025000Y-75565000D03*
%TD*%
D22*
%TO.C,R6*%
X59817000Y-100965000D03*
X60837000Y-100965000D03*
%TD*%
%TO.C,R5*%
X62863000Y-100965000D03*
X63883000Y-100965000D03*
%TD*%
%TO.C,R4*%
X73025000Y-102870000D03*
X72005000Y-102870000D03*
%TD*%
%TO.C,R3*%
X74418000Y-102870000D03*
X75438000Y-102870000D03*
%TD*%
%TO.C,R2*%
X70715000Y-102867000D03*
X69695000Y-102867000D03*
%TD*%
D24*
%TO.C,R1*%
X53236500Y-75565000D03*
X51411500Y-75565000D03*
%TD*%
D25*
%TO.C,OUTPUT1*%
X73660000Y-45720000D03*
D26*
X73660000Y-48260000D03*
X73660000Y-50800000D03*
X73660000Y-53340000D03*
X73660000Y-55880000D03*
%TD*%
D27*
%TO.C,C3*%
X51872000Y-58801000D03*
X52832000Y-58801000D03*
%TD*%
D28*
%TO.C,C2*%
X66675000Y-60325000D03*
X65715000Y-60325000D03*
%TD*%
D29*
%TO.C,C1*%
X69088000Y-94361000D03*
X69088000Y-95321000D03*
%TD*%
D25*
%TO.C,INPUT1*%
X50800000Y-45720000D03*
D26*
X50800000Y-48260000D03*
X50800000Y-50800000D03*
X50800000Y-53340000D03*
X50800000Y-55880000D03*
%TD*%
D25*
%TO.C,GND1*%
X55880000Y-96520000D03*
D26*
X58420000Y-96520000D03*
X60960000Y-96520000D03*
X63500000Y-96520000D03*
X66040000Y-96520000D03*
%TD*%
D25*
%TO.C,5V1*%
X55880000Y-50800000D03*
D26*
X58420000Y-50800000D03*
X60960000Y-50800000D03*
X63500000Y-50800000D03*
X66040000Y-50800000D03*
%TD*%
%LPD*%
M02*
