%TF.GenerationSoftware,KiCad,Pcbnew,8.0.5*%
%TF.CreationDate,2024-11-14T15:36:57+05:30*%
%TF.ProjectId,v2ca,76326361-2e6b-4696-9361-645f70636258,rev?*%
%TF.SameCoordinates,Original*%
%TF.FileFunction,Legend,Bot*%
%TF.FilePolarity,Positive*%
%FSLAX46Y46*%
G04 Gerber Fmt 4.6, Leading zero omitted, Abs format (unit mm)*
G04 Created by KiCad (PCBNEW 8.0.5) date 2024-11-14 15:36:57*
%MOMM*%
%LPD*%
G01*
G04 APERTURE LIST*
%ADD10C,0.100000*%
%ADD11C,0.150000*%
%ADD12C,0.120000*%
%ADD13C,1.800000*%
%ADD14R,1.800000X1.800000*%
%ADD15O,2.720000X3.240000*%
%ADD16R,1.700000X1.700000*%
%ADD17O,1.700000X1.700000*%
G04 APERTURE END LIST*
D10*
X72516904Y-83912419D02*
X72516904Y-84721942D01*
X72516904Y-84721942D02*
X72469285Y-84817180D01*
X72469285Y-84817180D02*
X72421666Y-84864800D01*
X72421666Y-84864800D02*
X72326428Y-84912419D01*
X72326428Y-84912419D02*
X72135952Y-84912419D01*
X72135952Y-84912419D02*
X72040714Y-84864800D01*
X72040714Y-84864800D02*
X71993095Y-84817180D01*
X71993095Y-84817180D02*
X71945476Y-84721942D01*
X71945476Y-84721942D02*
X71945476Y-83912419D01*
X71564523Y-83912419D02*
X70945476Y-83912419D01*
X70945476Y-83912419D02*
X71278809Y-84293371D01*
X71278809Y-84293371D02*
X71135952Y-84293371D01*
X71135952Y-84293371D02*
X71040714Y-84340990D01*
X71040714Y-84340990D02*
X70993095Y-84388609D01*
X70993095Y-84388609D02*
X70945476Y-84483847D01*
X70945476Y-84483847D02*
X70945476Y-84721942D01*
X70945476Y-84721942D02*
X70993095Y-84817180D01*
X70993095Y-84817180D02*
X71040714Y-84864800D01*
X71040714Y-84864800D02*
X71135952Y-84912419D01*
X71135952Y-84912419D02*
X71421666Y-84912419D01*
X71421666Y-84912419D02*
X71516904Y-84864800D01*
X71516904Y-84864800D02*
X71564523Y-84817180D01*
D11*
X73323220Y-66798866D02*
X72561316Y-66798866D01*
X72942268Y-67179819D02*
X72942268Y-66417914D01*
X70783220Y-66798866D02*
X70021316Y-66798866D01*
D10*
X53466904Y-83912419D02*
X53466904Y-84721942D01*
X53466904Y-84721942D02*
X53419285Y-84817180D01*
X53419285Y-84817180D02*
X53371666Y-84864800D01*
X53371666Y-84864800D02*
X53276428Y-84912419D01*
X53276428Y-84912419D02*
X53085952Y-84912419D01*
X53085952Y-84912419D02*
X52990714Y-84864800D01*
X52990714Y-84864800D02*
X52943095Y-84817180D01*
X52943095Y-84817180D02*
X52895476Y-84721942D01*
X52895476Y-84721942D02*
X52895476Y-83912419D01*
X51895476Y-84912419D02*
X52466904Y-84912419D01*
X52181190Y-84912419D02*
X52181190Y-83912419D01*
X52181190Y-83912419D02*
X52276428Y-84055276D01*
X52276428Y-84055276D02*
X52371666Y-84150514D01*
X52371666Y-84150514D02*
X52466904Y-84198133D01*
D11*
X54273220Y-66798866D02*
X53511316Y-66798866D01*
X53892268Y-67179819D02*
X53892268Y-66417914D01*
X51733220Y-66798866D02*
X50971316Y-66798866D01*
D10*
%TO.C,U3*%
X74295000Y-67945000D02*
X76835000Y-67945000D01*
X76835000Y-67945000D02*
X76835000Y-83185000D01*
X69215000Y-67945000D02*
X74295000Y-67945000D01*
X66675000Y-67945000D02*
X69215000Y-67945000D01*
X66675000Y-83185000D02*
X66675000Y-67945000D01*
X76835000Y-83185000D02*
X66675000Y-83185000D01*
%TO.C,U1*%
X55245000Y-67945000D02*
X57785000Y-67945000D01*
X57785000Y-67945000D02*
X57785000Y-83185000D01*
X50165000Y-67945000D02*
X55245000Y-67945000D01*
X47625000Y-67945000D02*
X50165000Y-67945000D01*
X47625000Y-83185000D02*
X47625000Y-67945000D01*
X57785000Y-83185000D02*
X47625000Y-83185000D01*
D12*
%TO.C,GND1*%
X54550000Y-95190000D02*
X55880000Y-95190000D01*
X54550000Y-96520000D02*
X54550000Y-95190000D01*
X57150000Y-97850000D02*
X57150000Y-95190000D01*
X67370000Y-95190000D02*
X57150000Y-95190000D01*
X67370000Y-97850000D02*
X57150000Y-97850000D01*
X67370000Y-97850000D02*
X67370000Y-95190000D01*
%TO.C,5V1*%
X54550000Y-49470000D02*
X55880000Y-49470000D01*
X54550000Y-50800000D02*
X54550000Y-49470000D01*
X57150000Y-52130000D02*
X57150000Y-49470000D01*
X67370000Y-49470000D02*
X57150000Y-49470000D01*
X67370000Y-52130000D02*
X57150000Y-52130000D01*
X67370000Y-52130000D02*
X67370000Y-49470000D01*
%TD*%
%LPC*%
D13*
%TO.C,U3*%
X70485000Y-69215000D03*
X73025000Y-69215000D03*
X70485000Y-81915000D03*
X73025000Y-81915000D03*
%TD*%
%TO.C,U1*%
X51435000Y-69215000D03*
X53975000Y-69215000D03*
X51435000Y-81915000D03*
X53975000Y-81915000D03*
%TD*%
D14*
%TO.C,RV2*%
X59730000Y-90561000D03*
D13*
X64730000Y-90561000D03*
X62230000Y-90561000D03*
D15*
X67030000Y-83061000D03*
X57430000Y-83061000D03*
%TD*%
D14*
%TO.C,RV1*%
X59730000Y-73670000D03*
D13*
X64730000Y-73670000D03*
X62230000Y-73670000D03*
D15*
X67030000Y-66170000D03*
X57430000Y-66170000D03*
%TD*%
D16*
%TO.C,OUTPUT1*%
X73660000Y-45720000D03*
D17*
X73660000Y-48260000D03*
X73660000Y-50800000D03*
X73660000Y-53340000D03*
X73660000Y-55880000D03*
%TD*%
D16*
%TO.C,INPUT1*%
X50800000Y-45720000D03*
D17*
X50800000Y-48260000D03*
X50800000Y-50800000D03*
X50800000Y-53340000D03*
X50800000Y-55880000D03*
%TD*%
D16*
%TO.C,GND1*%
X55880000Y-96520000D03*
D17*
X58420000Y-96520000D03*
X60960000Y-96520000D03*
X63500000Y-96520000D03*
X66040000Y-96520000D03*
%TD*%
D16*
%TO.C,5V1*%
X55880000Y-50800000D03*
D17*
X58420000Y-50800000D03*
X60960000Y-50800000D03*
X63500000Y-50800000D03*
X66040000Y-50800000D03*
%TD*%
%LPD*%
M02*
