%TF.GenerationSoftware,KiCad,Pcbnew,8.0.5*%
%TF.CreationDate,2024-11-17T12:10:01+05:30*%
%TF.ProjectId,line_in,6c696e65-5f69-46e2-9e6b-696361645f70,rev?*%
%TF.SameCoordinates,Original*%
%TF.FileFunction,Copper,L2,Bot*%
%TF.FilePolarity,Positive*%
%FSLAX46Y46*%
G04 Gerber Fmt 4.6, Leading zero omitted, Abs format (unit mm)*
G04 Created by KiCad (PCBNEW 8.0.5) date 2024-11-17 12:10:01*
%MOMM*%
%LPD*%
G01*
G04 APERTURE LIST*
G04 Aperture macros list*
%AMRoundRect*
0 Rectangle with rounded corners*
0 $1 Rounding radius*
0 $2 $3 $4 $5 $6 $7 $8 $9 X,Y pos of 4 corners*
0 Add a 4 corners polygon primitive as box body*
4,1,4,$2,$3,$4,$5,$6,$7,$8,$9,$2,$3,0*
0 Add four circle primitives for the rounded corners*
1,1,$1+$1,$2,$3*
1,1,$1+$1,$4,$5*
1,1,$1+$1,$6,$7*
1,1,$1+$1,$8,$9*
0 Add four rect primitives between the rounded corners*
20,1,$1+$1,$2,$3,$4,$5,0*
20,1,$1+$1,$4,$5,$6,$7,0*
20,1,$1+$1,$6,$7,$8,$9,0*
20,1,$1+$1,$8,$9,$2,$3,0*%
G04 Aperture macros list end*
%TA.AperFunction,Conductor*%
%ADD10C,0.200000*%
%TD*%
%TA.AperFunction,ComponentPad*%
%ADD11R,2.000000X2.000000*%
%TD*%
%TA.AperFunction,ComponentPad*%
%ADD12O,2.000000X2.000000*%
%TD*%
%TA.AperFunction,ComponentPad*%
%ADD13O,2.720000X3.240000*%
%TD*%
%TA.AperFunction,ComponentPad*%
%ADD14C,1.800000*%
%TD*%
%TA.AperFunction,ComponentPad*%
%ADD15R,1.800000X1.800000*%
%TD*%
%TA.AperFunction,ComponentPad*%
%ADD16R,1.700000X1.700000*%
%TD*%
%TA.AperFunction,ComponentPad*%
%ADD17O,1.700000X1.700000*%
%TD*%
%TA.AperFunction,ComponentPad*%
%ADD18RoundRect,0.650000X0.650000X-0.650000X0.650000X0.650000X-0.650000X0.650000X-0.650000X-0.650000X0*%
%TD*%
%TA.AperFunction,ComponentPad*%
%ADD19O,2.100000X3.100000*%
%TD*%
%TA.AperFunction,ViaPad*%
%ADD20C,0.700000*%
%TD*%
%TA.AperFunction,ViaPad*%
%ADD21C,4.000000*%
%TD*%
%TA.AperFunction,Conductor*%
%ADD22C,0.500000*%
%TD*%
%TA.AperFunction,Conductor*%
%ADD23C,0.300000*%
%TD*%
G04 APERTURE END LIST*
D10*
%TO.N,V_SUPLY*%
X67310000Y-52070000D02*
X54610000Y-52070000D01*
X54610000Y-49530000D01*
X67310000Y-49530000D01*
X67310000Y-52070000D01*
%TA.AperFunction,Conductor*%
G36*
X67310000Y-52070000D02*
G01*
X54610000Y-52070000D01*
X54610000Y-49530000D01*
X67310000Y-49530000D01*
X67310000Y-52070000D01*
G37*
%TD.AperFunction*%
%TO.N,GND*%
X67310000Y-97790000D02*
X54610000Y-97790000D01*
X54610000Y-95250000D01*
X67310000Y-95250000D01*
X67310000Y-97790000D01*
%TA.AperFunction,Conductor*%
G36*
X67310000Y-97790000D02*
G01*
X54610000Y-97790000D01*
X54610000Y-95250000D01*
X67310000Y-95250000D01*
X67310000Y-97790000D01*
G37*
%TD.AperFunction*%
%TD*%
D11*
%TO.P,VSUPPLY1,1,Pin_1*%
%TO.N,V_SUPLY*%
X55880000Y-50800000D03*
D12*
%TO.P,VSUPPLY1,2,Pin_2*%
X58420000Y-50800000D03*
%TO.P,VSUPPLY1,3,Pin_3*%
X60960000Y-50800000D03*
%TO.P,VSUPPLY1,4,Pin_4*%
X63500000Y-50800000D03*
%TO.P,VSUPPLY1,5,Pin_5*%
X66040000Y-50800000D03*
%TD*%
D11*
%TO.P,GND1,1,Pin_1*%
%TO.N,GND*%
X55880000Y-96520000D03*
D12*
%TO.P,GND1,2,Pin_2*%
X58420000Y-96520000D03*
%TO.P,GND1,3,Pin_3*%
X60960000Y-96520000D03*
%TO.P,GND1,4,Pin_4*%
X63500000Y-96520000D03*
%TO.P,GND1,5,Pin_5*%
X66040000Y-96520000D03*
%TD*%
D13*
%TO.P,RV2,*%
%TO.N,*%
X65050000Y-73035000D03*
X74650000Y-73035000D03*
D14*
%TO.P,RV2,2,2*%
%TO.N,Net-(C2-Pad1)*%
X69850000Y-80535000D03*
%TO.P,RV2,3,3*%
%TO.N,IN_R*%
X72350000Y-80535000D03*
D15*
%TO.P,RV2,1,1*%
%TO.N,GND*%
X67350000Y-80535000D03*
%TD*%
D13*
%TO.P,RV1,*%
%TO.N,*%
X49810000Y-73025000D03*
X59410000Y-73025000D03*
D14*
%TO.P,RV1,2,2*%
%TO.N,Net-(C1-Pad1)*%
X54610000Y-80525000D03*
%TO.P,RV1,3,3*%
%TO.N,IN_L*%
X57110000Y-80525000D03*
D15*
%TO.P,RV1,1,1*%
%TO.N,GND*%
X52110000Y-80525000D03*
%TD*%
D16*
%TO.P,OUTPUT1,1,Pin_1*%
%TO.N,OUT_L*%
X73660000Y-45720000D03*
D17*
%TO.P,OUTPUT1,2,Pin_2*%
%TO.N,OUT_R*%
X73660000Y-48260000D03*
%TO.P,OUTPUT1,3,Pin_3*%
%TO.N,OUT_MONO*%
X73660000Y-50800000D03*
%TO.P,OUTPUT1,4,Pin_4*%
X73660000Y-53340000D03*
%TO.P,OUTPUT1,5,Pin_5*%
X73660000Y-55880000D03*
%TD*%
D18*
%TO.P,J1,R*%
%TO.N,IN_R*%
X64975000Y-59055000D03*
D19*
%TO.P,J1,S*%
%TO.N,GND*%
X68075000Y-59055000D03*
D18*
%TO.P,J1,T*%
%TO.N,IN_L*%
X56675000Y-59055000D03*
%TD*%
D20*
%TO.N,V_SUPLY*%
X73533000Y-84836000D03*
X75819000Y-84455000D03*
%TO.N,V_MID*%
X62135999Y-79280999D03*
%TO.N,V_SUPLY*%
X61849000Y-76073000D03*
%TO.N,GND*%
X61468000Y-83185000D03*
%TO.N,V_SUPLY*%
X49657000Y-55626000D03*
%TO.N,V_MID*%
X52352000Y-64234000D03*
%TO.N,GND*%
X53848000Y-63754000D03*
%TO.N,OUT_L*%
X69723000Y-72009000D03*
X72263000Y-69215000D03*
%TO.N,GND*%
X68522500Y-91497500D03*
%TO.N,V_MID*%
X72009000Y-93218000D03*
%TO.N,Net-(U2A-+)*%
X65659000Y-89027000D03*
X65659000Y-85979000D03*
%TO.N,V_SUPLY*%
X59055000Y-85852000D03*
%TO.N,V_MID*%
X58801000Y-93218000D03*
%TO.N,GND*%
X53792000Y-91877000D03*
%TO.N,Net-(U1A-+)*%
X49765000Y-89642721D03*
X49595000Y-85155000D03*
D21*
%TO.N,*%
X62377580Y-43815000D03*
X62784908Y-106045000D03*
X62377580Y-43815000D03*
X62784908Y-106045000D03*
X62784908Y-106045000D03*
X62784908Y-106045000D03*
X62377580Y-43815000D03*
X62377580Y-43815000D03*
%TD*%
D22*
%TO.N,V_MID*%
X52352000Y-64234000D02*
X52672000Y-64554000D01*
X52672000Y-64554000D02*
X58890000Y-64554000D01*
X62103000Y-69977000D02*
X62103000Y-74676000D01*
X58890000Y-64554000D02*
X60706000Y-62738000D01*
X60960000Y-78105000D02*
X62135999Y-79280999D01*
X60706000Y-62738000D02*
X60706000Y-56388000D01*
X60706000Y-56388000D02*
X61341000Y-55753000D01*
X61341000Y-55753000D02*
X69723000Y-55753000D01*
X69850000Y-62230000D02*
X62103000Y-69977000D01*
X69723000Y-55753000D02*
X69850000Y-55880000D01*
X69850000Y-55880000D02*
X69850000Y-62230000D01*
X62103000Y-74676000D02*
X60960000Y-75819000D01*
X60960000Y-75819000D02*
X60960000Y-78105000D01*
%TO.N,GND*%
X53848000Y-63754000D02*
X53528000Y-63434000D01*
X51247000Y-63434000D02*
X50800000Y-63881000D01*
X50673000Y-95885000D02*
X52832000Y-98044000D01*
X50800000Y-63881000D02*
X50800000Y-67818000D01*
X53528000Y-63434000D02*
X51247000Y-63434000D01*
X50800000Y-67818000D02*
X53340000Y-70358000D01*
X53340000Y-77343000D02*
X50546000Y-77343000D01*
X50546000Y-77343000D02*
X49403000Y-78486000D01*
X49403000Y-78486000D02*
X49403000Y-82804000D01*
X49403000Y-82804000D02*
X50673000Y-84074000D01*
X53340000Y-70358000D02*
X53340000Y-77343000D01*
X50673000Y-84074000D02*
X50673000Y-95885000D01*
X52832000Y-98044000D02*
X54356000Y-98044000D01*
X54356000Y-98044000D02*
X55880000Y-96520000D01*
D23*
%TO.N,Net-(U1A-+)*%
X49765000Y-89642721D02*
X50038000Y-89369721D01*
X50038000Y-89369721D02*
X50038000Y-85598000D01*
X50038000Y-85598000D02*
X49595000Y-85155000D01*
D22*
%TO.N,GND*%
X56010000Y-71120000D02*
X53975000Y-71120000D01*
X53975000Y-78105000D02*
X50927000Y-78105000D01*
X53975000Y-71120000D02*
X53975000Y-78105000D01*
X50165000Y-82423000D02*
X51435000Y-83693000D01*
X51435000Y-83693000D02*
X51435000Y-95504000D01*
X50927000Y-78105000D02*
X50165000Y-78867000D01*
X68075000Y-59055000D02*
X56010000Y-71120000D01*
X50165000Y-78867000D02*
X50165000Y-82423000D01*
X51435000Y-95504000D02*
X53213000Y-97282000D01*
X55118000Y-97282000D02*
X55880000Y-96520000D01*
X53213000Y-97282000D02*
X55118000Y-97282000D01*
X52110000Y-80525000D02*
X52110000Y-95163000D01*
X52110000Y-95163000D02*
X53467000Y-96520000D01*
X53467000Y-96520000D02*
X55880000Y-96520000D01*
%TO.N,V_SUPLY*%
X61849000Y-76073000D02*
X62865000Y-75057000D01*
X70612000Y-55372000D02*
X66040000Y-50800000D01*
X62865000Y-75057000D02*
X62865000Y-70612000D01*
X62865000Y-70612000D02*
X70612000Y-62865000D01*
X70612000Y-62865000D02*
X70612000Y-55372000D01*
X60071000Y-84836000D02*
X73533000Y-84836000D01*
X59055000Y-85852000D02*
X60071000Y-84836000D01*
X74268950Y-77597000D02*
X63246000Y-77597000D01*
X75819000Y-79147050D02*
X74268950Y-77597000D01*
X63246000Y-77597000D02*
X61849000Y-76200000D01*
X75819000Y-84455000D02*
X75819000Y-79147050D01*
X61849000Y-76200000D02*
X61849000Y-76073000D01*
%TO.N,V_MID*%
X72009000Y-93218000D02*
X74803000Y-90424000D01*
X74041000Y-78359000D02*
X63057998Y-78359000D01*
X63057998Y-78359000D02*
X62135999Y-79280999D01*
X74803000Y-90424000D02*
X74803000Y-79121000D01*
X74803000Y-79121000D02*
X74041000Y-78359000D01*
%TO.N,GND*%
X68522500Y-91497500D02*
X56203500Y-91497500D01*
X57277000Y-95504000D02*
X56261000Y-96520000D01*
X56203500Y-91497500D02*
X55499000Y-92202000D01*
X56261000Y-96520000D02*
X55880000Y-96520000D01*
X55499000Y-92202000D02*
X55499000Y-93091000D01*
X55499000Y-93091000D02*
X56134000Y-93091000D01*
X56134000Y-93091000D02*
X57150000Y-94107000D01*
X57150000Y-94107000D02*
X57150000Y-95377000D01*
X57150000Y-95377000D02*
X57277000Y-95504000D01*
%TO.N,V_MID*%
X58801000Y-93218000D02*
X72009000Y-93218000D01*
%TO.N,GND*%
X67350000Y-80535000D02*
X65515000Y-80535000D01*
X65515000Y-80535000D02*
X62103000Y-83947000D01*
X62103000Y-83947000D02*
X53848000Y-83947000D01*
X54737000Y-91821000D02*
X54737000Y-93853000D01*
X53848000Y-83947000D02*
X53848000Y-90678000D01*
X53848000Y-90678000D02*
X53721000Y-90805000D01*
X53721000Y-90805000D02*
X54737000Y-91821000D01*
X54737000Y-93853000D02*
X55880000Y-93853000D01*
X55880000Y-93853000D02*
X56515000Y-94488000D01*
X56515000Y-94488000D02*
X56515000Y-95885000D01*
X56515000Y-95885000D02*
X55880000Y-96520000D01*
X55626000Y-94742000D02*
X54229000Y-94742000D01*
X55880000Y-94996000D02*
X55626000Y-94742000D01*
X55880000Y-96520000D02*
X55880000Y-94996000D01*
X54229000Y-94742000D02*
X53792000Y-94305000D01*
X53792000Y-94305000D02*
X53792000Y-91877000D01*
X61468000Y-83185000D02*
X53340000Y-83185000D01*
X53340000Y-83185000D02*
X52959000Y-83566000D01*
X52959000Y-83566000D02*
X52959000Y-94742000D01*
X53848000Y-95631000D02*
X54991000Y-95631000D01*
X52959000Y-94742000D02*
X53848000Y-95631000D01*
X54991000Y-95631000D02*
X55880000Y-96520000D01*
%TO.N,V_SUPLY*%
X49657000Y-55626000D02*
X54483000Y-50800000D01*
X54483000Y-50800000D02*
X55880000Y-50800000D01*
D23*
%TO.N,OUT_L*%
X69723000Y-72009000D02*
X72263000Y-69469000D01*
X72263000Y-69469000D02*
X72263000Y-69215000D01*
%TO.N,Net-(U2A-+)*%
X65659000Y-85979000D02*
X65659000Y-89027000D01*
%TD*%
M02*
