%TF.GenerationSoftware,KiCad,Pcbnew,8.0.5*%
%TF.CreationDate,2024-11-17T12:10:01+05:30*%
%TF.ProjectId,line_in,6c696e65-5f69-46e2-9e6b-696361645f70,rev?*%
%TF.SameCoordinates,Original*%
%TF.FileFunction,Other,Comment*%
%FSLAX46Y46*%
G04 Gerber Fmt 4.6, Leading zero omitted, Abs format (unit mm)*
G04 Created by KiCad (PCBNEW 8.0.5) date 2024-11-17 12:10:01*
%MOMM*%
%LPD*%
G01*
G04 APERTURE LIST*
%ADD10C,0.051000*%
G04 APERTURE END LIST*
D10*
X61777395Y-60293095D02*
X61377395Y-60293095D01*
X61777395Y-60064524D02*
X61548824Y-60235953D01*
X61377395Y-60064524D02*
X61605967Y-60293095D01*
X61567871Y-59893095D02*
X61567871Y-59759762D01*
X61777395Y-59702619D02*
X61777395Y-59893095D01*
X61777395Y-59893095D02*
X61377395Y-59893095D01*
X61377395Y-59893095D02*
X61377395Y-59702619D01*
X61567871Y-59531190D02*
X61567871Y-59397857D01*
X61777395Y-59340714D02*
X61777395Y-59531190D01*
X61777395Y-59531190D02*
X61377395Y-59531190D01*
X61377395Y-59531190D02*
X61377395Y-59340714D01*
X61777395Y-59169285D02*
X61377395Y-59169285D01*
X61377395Y-59169285D02*
X61377395Y-59016904D01*
X61377395Y-59016904D02*
X61396443Y-58978809D01*
X61396443Y-58978809D02*
X61415490Y-58959762D01*
X61415490Y-58959762D02*
X61453586Y-58940714D01*
X61453586Y-58940714D02*
X61510728Y-58940714D01*
X61510728Y-58940714D02*
X61548824Y-58959762D01*
X61548824Y-58959762D02*
X61567871Y-58978809D01*
X61567871Y-58978809D02*
X61586919Y-59016904D01*
X61586919Y-59016904D02*
X61586919Y-59169285D01*
X61377395Y-58693095D02*
X61377395Y-58616904D01*
X61377395Y-58616904D02*
X61396443Y-58578809D01*
X61396443Y-58578809D02*
X61434538Y-58540714D01*
X61434538Y-58540714D02*
X61510728Y-58521666D01*
X61510728Y-58521666D02*
X61644062Y-58521666D01*
X61644062Y-58521666D02*
X61720252Y-58540714D01*
X61720252Y-58540714D02*
X61758348Y-58578809D01*
X61758348Y-58578809D02*
X61777395Y-58616904D01*
X61777395Y-58616904D02*
X61777395Y-58693095D01*
X61777395Y-58693095D02*
X61758348Y-58731190D01*
X61758348Y-58731190D02*
X61720252Y-58769285D01*
X61720252Y-58769285D02*
X61644062Y-58788333D01*
X61644062Y-58788333D02*
X61510728Y-58788333D01*
X61510728Y-58788333D02*
X61434538Y-58769285D01*
X61434538Y-58769285D02*
X61396443Y-58731190D01*
X61396443Y-58731190D02*
X61377395Y-58693095D01*
X61377395Y-58350237D02*
X61701205Y-58350237D01*
X61701205Y-58350237D02*
X61739300Y-58331190D01*
X61739300Y-58331190D02*
X61758348Y-58312142D01*
X61758348Y-58312142D02*
X61777395Y-58274047D01*
X61777395Y-58274047D02*
X61777395Y-58197856D01*
X61777395Y-58197856D02*
X61758348Y-58159761D01*
X61758348Y-58159761D02*
X61739300Y-58140714D01*
X61739300Y-58140714D02*
X61701205Y-58121666D01*
X61701205Y-58121666D02*
X61377395Y-58121666D01*
X61377395Y-57988332D02*
X61377395Y-57759761D01*
X61777395Y-57874047D02*
X61377395Y-57874047D01*
M02*
