%TF.GenerationSoftware,KiCad,Pcbnew,8.0.5*%
%TF.CreationDate,2024-11-17T11:57:45+05:30*%
%TF.ProjectId,line_in,6c696e65-5f69-46e2-9e6b-696361645f70,rev?*%
%TF.SameCoordinates,Original*%
%TF.FileFunction,Paste,Top*%
%TF.FilePolarity,Positive*%
%FSLAX46Y46*%
G04 Gerber Fmt 4.6, Leading zero omitted, Abs format (unit mm)*
G04 Created by KiCad (PCBNEW 8.0.5) date 2024-11-17 11:57:45*
%MOMM*%
%LPD*%
G01*
G04 APERTURE LIST*
G04 Aperture macros list*
%AMRoundRect*
0 Rectangle with rounded corners*
0 $1 Rounding radius*
0 $2 $3 $4 $5 $6 $7 $8 $9 X,Y pos of 4 corners*
0 Add a 4 corners polygon primitive as box body*
4,1,4,$2,$3,$4,$5,$6,$7,$8,$9,$2,$3,0*
0 Add four circle primitives for the rounded corners*
1,1,$1+$1,$2,$3*
1,1,$1+$1,$4,$5*
1,1,$1+$1,$6,$7*
1,1,$1+$1,$8,$9*
0 Add four rect primitives between the rounded corners*
20,1,$1+$1,$2,$3,$4,$5,0*
20,1,$1+$1,$4,$5,$6,$7,0*
20,1,$1+$1,$6,$7,$8,$9,0*
20,1,$1+$1,$8,$9,$2,$3,0*%
G04 Aperture macros list end*
%ADD10RoundRect,0.230000X0.375000X-0.230000X0.375000X0.230000X-0.375000X0.230000X-0.375000X-0.230000X0*%
%ADD11RoundRect,0.150000X0.150000X-0.825000X0.150000X0.825000X-0.150000X0.825000X-0.150000X-0.825000X0*%
%ADD12RoundRect,0.230000X-0.230000X-0.375000X0.230000X-0.375000X0.230000X0.375000X-0.230000X0.375000X0*%
%ADD13RoundRect,0.150000X-0.825000X-0.150000X0.825000X-0.150000X0.825000X0.150000X-0.825000X0.150000X0*%
%ADD14RoundRect,0.135000X-0.185000X0.135000X-0.185000X-0.135000X0.185000X-0.135000X0.185000X0.135000X0*%
%ADD15RoundRect,0.135000X-0.135000X-0.185000X0.135000X-0.185000X0.135000X0.185000X-0.135000X0.185000X0*%
%ADD16RoundRect,0.135000X0.135000X0.185000X-0.135000X0.185000X-0.135000X-0.185000X0.135000X-0.185000X0*%
%ADD17RoundRect,0.135000X0.185000X-0.135000X0.185000X0.135000X-0.185000X0.135000X-0.185000X-0.135000X0*%
%ADD18RoundRect,0.140000X0.140000X0.170000X-0.140000X0.170000X-0.140000X-0.170000X0.140000X-0.170000X0*%
%ADD19RoundRect,0.140000X-0.140000X-0.170000X0.140000X-0.170000X0.140000X0.170000X-0.140000X0.170000X0*%
G04 APERTURE END LIST*
D10*
%TO.C,U3*%
X50050000Y-60703000D03*
X51550000Y-60703000D03*
X50050000Y-59563000D03*
X51550000Y-59563000D03*
D11*
X48895000Y-62608000D03*
X50165000Y-62608000D03*
X51435000Y-62608000D03*
X52705000Y-62608000D03*
X52705000Y-57658000D03*
X51435000Y-57658000D03*
X50165000Y-57658000D03*
X48895000Y-57658000D03*
%TD*%
D12*
%TO.C,U2*%
X69215000Y-87630000D03*
X69215000Y-89130000D03*
X70355000Y-87630000D03*
X70355000Y-89130000D03*
D13*
X67310000Y-86475000D03*
X67310000Y-87745000D03*
X67310000Y-89015000D03*
X67310000Y-90285000D03*
X72260000Y-90285000D03*
X72260000Y-89015000D03*
X72260000Y-87745000D03*
X72260000Y-86475000D03*
%TD*%
D12*
%TO.C,U1*%
X54105000Y-87630000D03*
X54105000Y-89130000D03*
X55245000Y-87630000D03*
X55245000Y-89130000D03*
D13*
X52200000Y-86475000D03*
X52200000Y-87745000D03*
X52200000Y-89015000D03*
X52200000Y-90285000D03*
X57150000Y-90285000D03*
X57150000Y-89015000D03*
X57150000Y-87745000D03*
X57150000Y-86475000D03*
%TD*%
D14*
%TO.C,R14*%
X50800000Y-65788000D03*
X50800000Y-64768000D03*
%TD*%
D15*
%TO.C,R13*%
X74676000Y-86995000D03*
X75696000Y-86995000D03*
%TD*%
%TO.C,R12*%
X59686000Y-87122000D03*
X60706000Y-87122000D03*
%TD*%
D16*
%TO.C,R11*%
X49530000Y-64770000D03*
X48510000Y-64770000D03*
%TD*%
D17*
%TO.C,R10*%
X75696000Y-92202000D03*
X75696000Y-91182000D03*
%TD*%
D15*
%TO.C,R9*%
X64135000Y-91694000D03*
X65155000Y-91694000D03*
%TD*%
D14*
%TO.C,R8*%
X64135000Y-89412000D03*
X64135000Y-88392000D03*
%TD*%
D15*
%TO.C,R7*%
X74676000Y-89535000D03*
X75696000Y-89535000D03*
%TD*%
D17*
%TO.C,R6*%
X60581000Y-92077000D03*
X60581000Y-91057000D03*
%TD*%
D15*
%TO.C,R5*%
X61849000Y-81153000D03*
X62869000Y-81153000D03*
%TD*%
%TO.C,R4*%
X61845000Y-78232000D03*
X62865000Y-78232000D03*
%TD*%
%TO.C,R3*%
X48895000Y-92075000D03*
X49915000Y-92075000D03*
%TD*%
D14*
%TO.C,R2*%
X48895000Y-88515000D03*
X48895000Y-89535000D03*
%TD*%
D15*
%TO.C,R1*%
X59686000Y-89662000D03*
X60706000Y-89662000D03*
%TD*%
D18*
%TO.C,C5*%
X53848000Y-64770000D03*
X52888000Y-64770000D03*
%TD*%
D19*
%TO.C,C4*%
X72065000Y-92075000D03*
X73025000Y-92075000D03*
%TD*%
%TO.C,C3*%
X57785000Y-92075000D03*
X56825000Y-92075000D03*
%TD*%
%TO.C,C2*%
X64165000Y-86995000D03*
X65125000Y-86995000D03*
%TD*%
%TO.C,C1*%
X49855000Y-86995000D03*
X48895000Y-86995000D03*
%TD*%
M02*
