M48
; DRILL file {KiCad 8.0.5} date 2024-11-17T11:57:45+0530
; FORMAT={-:-/ absolute / inch / decimal}
; #@! TF.CreationDate,2024-11-17T11:57:45+05:30
; #@! TF.GenerationSoftware,Kicad,Pcbnew,8.0.5
; #@! TF.FileFunction,Plated,1,2,PTH
FMAT,2
INCH
; #@! TA.AperFunction,Plated,PTH,ViaDrill
T1C0.0118
; #@! TA.AperFunction,Plated,PTH,ComponentDrill
T2C0.0236
; #@! TA.AperFunction,Plated,PTH,ComponentDrill
T3C0.0394
; #@! TA.AperFunction,Plated,PTH,ComponentDrill
T4C0.0433
; #@! TA.AperFunction,Plated,PTH,ViaDrill
T5C0.1260
%
G90
G05
T1
X1.9526Y-3.3526
X1.955Y-2.19
X1.9593Y-3.5292
X2.0611Y-2.5289
X2.1178Y-3.6172
X2.12Y-2.51
X2.315Y-3.67
X2.325Y-3.38
X2.42Y-3.275
X2.435Y-2.995
X2.4463Y-3.1213
X2.585Y-3.385
X2.585Y-3.505
X2.6977Y-3.6023
X2.745Y-2.835
X2.835Y-3.67
X2.845Y-2.725
X2.895Y-3.34
X2.985Y-3.325
T3
X2.0516Y-3.1703
X2.15Y-3.1703
X2.2Y-2.0
X2.2Y-3.8
X2.2484Y-3.1703
X2.3Y-2.0
X2.3Y-3.8
X2.4Y-2.0
X2.4Y-3.8
X2.5Y-2.0
X2.5Y-3.8
X2.6Y-2.0
X2.6Y-3.8
X2.6516Y-3.1707
X2.75Y-3.1707
X2.8484Y-3.1707
X2.9Y-1.8
X2.9Y-1.9
X2.9Y-2.0
X2.9Y-2.1
X2.9Y-2.2
T5
X2.4558Y-1.725
X2.4558Y-1.725
X2.4558Y-1.725
X2.4558Y-1.725
X2.4718Y-4.175
X2.4718Y-4.175
X2.4718Y-4.175
X2.4718Y-4.175
T2
G00X2.2313Y-2.3447
M15
G01X2.2313Y-2.3053
M16
G05
G00X2.5581Y-2.3447
M15
G01X2.5581Y-2.3053
M16
G05
G00X2.6801Y-2.3447
M15
G01X2.6801Y-2.3053
M16
G05
T4
G00X1.961Y-2.8986
M15
G01X1.961Y-2.8514
M16
G05
G00X2.339Y-2.8986
M15
G01X2.339Y-2.8514
M16
G05
G00X2.561Y-2.899
M15
G01X2.561Y-2.8518
M16
G05
G00X2.939Y-2.899
M15
G01X2.939Y-2.8518
M16
G05
M30
