%TF.GenerationSoftware,KiCad,Pcbnew,8.0.5*%
%TF.CreationDate,2024-11-13T12:53:37+05:30*%
%TF.ProjectId,low_pass,6c6f775f-7061-4737-932e-6b696361645f,rev?*%
%TF.SameCoordinates,Original*%
%TF.FileFunction,Copper,L1,Top*%
%TF.FilePolarity,Positive*%
%FSLAX46Y46*%
G04 Gerber Fmt 4.6, Leading zero omitted, Abs format (unit mm)*
G04 Created by KiCad (PCBNEW 8.0.5) date 2024-11-13 12:53:37*
%MOMM*%
%LPD*%
G01*
G04 APERTURE LIST*
G04 Aperture macros list*
%AMRoundRect*
0 Rectangle with rounded corners*
0 $1 Rounding radius*
0 $2 $3 $4 $5 $6 $7 $8 $9 X,Y pos of 4 corners*
0 Add a 4 corners polygon primitive as box body*
4,1,4,$2,$3,$4,$5,$6,$7,$8,$9,$2,$3,0*
0 Add four circle primitives for the rounded corners*
1,1,$1+$1,$2,$3*
1,1,$1+$1,$4,$5*
1,1,$1+$1,$6,$7*
1,1,$1+$1,$8,$9*
0 Add four rect primitives between the rounded corners*
20,1,$1+$1,$2,$3,$4,$5,0*
20,1,$1+$1,$4,$5,$6,$7,0*
20,1,$1+$1,$6,$7,$8,$9,0*
20,1,$1+$1,$8,$9,$2,$3,0*%
G04 Aperture macros list end*
%TA.AperFunction,SMDPad,CuDef*%
%ADD10RoundRect,0.250000X-0.262500X-0.450000X0.262500X-0.450000X0.262500X0.450000X-0.262500X0.450000X0*%
%TD*%
%TA.AperFunction,SMDPad,CuDef*%
%ADD11RoundRect,0.250000X0.262500X0.450000X-0.262500X0.450000X-0.262500X-0.450000X0.262500X-0.450000X0*%
%TD*%
%TA.AperFunction,SMDPad,CuDef*%
%ADD12RoundRect,0.135000X0.185000X-0.135000X0.185000X0.135000X-0.185000X0.135000X-0.185000X-0.135000X0*%
%TD*%
%TA.AperFunction,SMDPad,CuDef*%
%ADD13RoundRect,0.150000X-0.825000X-0.150000X0.825000X-0.150000X0.825000X0.150000X-0.825000X0.150000X0*%
%TD*%
%TA.AperFunction,HeatsinkPad*%
%ADD14R,2.290000X3.000000*%
%TD*%
%TA.AperFunction,ComponentPad*%
%ADD15R,1.700000X1.700000*%
%TD*%
%TA.AperFunction,ComponentPad*%
%ADD16O,1.700000X1.700000*%
%TD*%
%TA.AperFunction,SMDPad,CuDef*%
%ADD17RoundRect,0.135000X-0.135000X-0.185000X0.135000X-0.185000X0.135000X0.185000X-0.135000X0.185000X0*%
%TD*%
%TA.AperFunction,SMDPad,CuDef*%
%ADD18RoundRect,0.140000X-0.140000X-0.170000X0.140000X-0.170000X0.140000X0.170000X-0.140000X0.170000X0*%
%TD*%
%TA.AperFunction,SMDPad,CuDef*%
%ADD19RoundRect,0.140000X0.140000X0.170000X-0.140000X0.170000X-0.140000X-0.170000X0.140000X-0.170000X0*%
%TD*%
%TA.AperFunction,ComponentPad*%
%ADD20O,2.720000X3.240000*%
%TD*%
%TA.AperFunction,ComponentPad*%
%ADD21R,1.800000X1.800000*%
%TD*%
%TA.AperFunction,ComponentPad*%
%ADD22C,1.800000*%
%TD*%
%TA.AperFunction,SMDPad,CuDef*%
%ADD23RoundRect,0.218750X-0.218750X-0.256250X0.218750X-0.256250X0.218750X0.256250X-0.218750X0.256250X0*%
%TD*%
%TA.AperFunction,SMDPad,CuDef*%
%ADD24RoundRect,0.140000X-0.170000X0.140000X-0.170000X-0.140000X0.170000X-0.140000X0.170000X0.140000X0*%
%TD*%
%TA.AperFunction,SMDPad,CuDef*%
%ADD25RoundRect,0.140000X0.170000X-0.140000X0.170000X0.140000X-0.170000X0.140000X-0.170000X-0.140000X0*%
%TD*%
%TA.AperFunction,ViaPad*%
%ADD26C,4.000000*%
%TD*%
%TA.AperFunction,ViaPad*%
%ADD27C,0.700000*%
%TD*%
%TA.AperFunction,Conductor*%
%ADD28C,0.300000*%
%TD*%
%TA.AperFunction,Conductor*%
%ADD29C,0.500000*%
%TD*%
G04 APERTURE END LIST*
D10*
%TO.P,R11,1*%
%TO.N,Net-(D1-K)*%
X62395000Y-53086000D03*
%TO.P,R11,2*%
%TO.N,GND*%
X64220000Y-53086000D03*
%TD*%
D11*
%TO.P,R8,1*%
%TO.N,Net-(R8-Pad1)*%
X63839000Y-91313000D03*
%TO.P,R8,2*%
%TO.N,Net-(U5-+)*%
X62014000Y-91313000D03*
%TD*%
D12*
%TO.P,R2,1*%
%TO.N,Net-(R2-Pad1)*%
X48895000Y-88140000D03*
%TO.P,R2,2*%
%TO.N,Net-(U1A--)*%
X48895000Y-87120000D03*
%TD*%
D13*
%TO.P,U4,1*%
%TO.N,Net-(D1-A)*%
X59820000Y-55360000D03*
%TO.P,U4,2,-*%
X59820000Y-56630000D03*
%TO.P,U4,3,+*%
%TO.N,Net-(U4A-+)*%
X59820000Y-57900000D03*
%TO.P,U4,4,V-*%
%TO.N,GND*%
X59820000Y-59170000D03*
%TO.P,U4,5,+*%
%TO.N,CUTOFF_CV_IN*%
X64770000Y-59170000D03*
%TO.P,U4,6,-*%
%TO.N,Net-(U4B--)*%
X64770000Y-57900000D03*
%TO.P,U4,7*%
X64770000Y-56630000D03*
%TO.P,U4,8,V+*%
%TO.N,+5V*%
X64770000Y-55360000D03*
D14*
%TO.P,U4,9*%
%TO.N,N/C*%
X62295000Y-57265000D03*
%TD*%
D12*
%TO.P,R10,1*%
%TO.N,PROCESSED_MOD_CV*%
X57912000Y-58678000D03*
%TO.P,R10,2*%
%TO.N,Net-(U4A-+)*%
X57912000Y-57658000D03*
%TD*%
D15*
%TO.P,OUTPUT1,1,Pin_1*%
%TO.N,AUDIO_OUT*%
X74930000Y-45720000D03*
D16*
%TO.P,OUTPUT1,2,Pin_2*%
X74930000Y-48260000D03*
%TO.P,OUTPUT1,3,Pin_3*%
X74930000Y-50800000D03*
%TO.P,OUTPUT1,4,Pin_4*%
X74930000Y-53340000D03*
%TO.P,OUTPUT1,5,Pin_5*%
X74930000Y-55880000D03*
%TD*%
D17*
%TO.P,R5,1*%
%TO.N,+5V*%
X60194000Y-100203000D03*
%TO.P,R5,2*%
%TO.N,+2.5V*%
X61214000Y-100203000D03*
%TD*%
D18*
%TO.P,C5,1*%
%TO.N,Net-(C4-Pad1)*%
X62413000Y-87757000D03*
%TO.P,C5,2*%
%TO.N,Net-(U3B--)*%
X63373000Y-87757000D03*
%TD*%
D19*
%TO.P,C1,1*%
%TO.N,+5V*%
X72517000Y-82677000D03*
%TO.P,C1,2*%
%TO.N,GND*%
X71557000Y-82677000D03*
%TD*%
D12*
%TO.P,R1,1*%
%TO.N,Net-(R1-Pad1)*%
X57785000Y-88013000D03*
%TO.P,R1,2*%
%TO.N,Net-(U1B--)*%
X57785000Y-86993000D03*
%TD*%
D15*
%TO.P,INPUT1,1,Pin_1*%
%TO.N,AUDIO_IN*%
X49530000Y-45720000D03*
D16*
%TO.P,INPUT1,2,Pin_2*%
%TO.N,MOD_CV_IN*%
X49530000Y-48260000D03*
%TO.P,INPUT1,3,Pin_3*%
%TO.N,CUTOFF_CV_IN*%
X49530000Y-50800000D03*
%TO.P,INPUT1,4,Pin_4*%
%TO.N,unconnected-(INPUT1-Pin_4-Pad4)*%
X49530000Y-53340000D03*
%TO.P,INPUT1,5,Pin_5*%
%TO.N,unconnected-(INPUT1-Pin_5-Pad5)*%
X49530000Y-55880000D03*
%TD*%
D17*
%TO.P,R6,1*%
%TO.N,+2.5V*%
X64004000Y-100203000D03*
%TO.P,R6,2*%
%TO.N,GND*%
X65024000Y-100203000D03*
%TD*%
D20*
%TO.P,RV2,*%
%TO.N,*%
X65050000Y-66805000D03*
X74650000Y-66805000D03*
D21*
%TO.P,RV2,1,1*%
%TO.N,unconnected-(RV2-Pad1)*%
X67350000Y-74305000D03*
D22*
%TO.P,RV2,2,2*%
%TO.N,PROCESSED_MOD_CV*%
X69850000Y-74305000D03*
%TO.P,RV2,3,3*%
%TO.N,Net-(R8-Pad1)*%
X72350000Y-74305000D03*
%TD*%
D17*
%TO.P,R9,1*%
%TO.N,Net-(U3B--)*%
X73658000Y-59690000D03*
%TO.P,R9,2*%
%TO.N,AUDIO_OUT*%
X74678000Y-59690000D03*
%TD*%
D13*
%TO.P,U3,1*%
%TO.N,Net-(U3A--)*%
X68580000Y-84340000D03*
%TO.P,U3,2,-*%
X68580000Y-85610000D03*
%TO.P,U3,3,+*%
%TO.N,AUDIO_IN*%
X68580000Y-86880000D03*
%TO.P,U3,4,V-*%
%TO.N,GND*%
X68580000Y-88150000D03*
%TO.P,U3,5,+*%
%TO.N,Net-(U3B-+)*%
X73530000Y-88150000D03*
%TO.P,U3,6,-*%
%TO.N,Net-(U3B--)*%
X73530000Y-86880000D03*
%TO.P,U3,7*%
X73530000Y-85610000D03*
%TO.P,U3,8,V+*%
%TO.N,+5V*%
X73530000Y-84340000D03*
D14*
%TO.P,U3,9*%
%TO.N,N/C*%
X71055000Y-86245000D03*
%TD*%
D17*
%TO.P,R7,1*%
%TO.N,Net-(U4B--)*%
X71243000Y-59690000D03*
%TO.P,R7,2*%
%TO.N,Net-(U2-+)*%
X72263000Y-59690000D03*
%TD*%
D19*
%TO.P,C2,1*%
%TO.N,+5V*%
X54737000Y-82677000D03*
%TO.P,C2,2*%
%TO.N,GND*%
X53777000Y-82677000D03*
%TD*%
D23*
%TO.P,D1,1,K*%
%TO.N,Net-(D1-K)*%
X62052000Y-77851000D03*
%TO.P,D1,2,A*%
%TO.N,Net-(D1-A)*%
X63627000Y-77851000D03*
%TD*%
D13*
%TO.P,U1,1*%
%TO.N,Net-(R1-Pad1)*%
X50865000Y-84340000D03*
%TO.P,U1,2,-*%
%TO.N,Net-(U1A--)*%
X50865000Y-85610000D03*
%TO.P,U1,3,+*%
%TO.N,+2.5V*%
X50865000Y-86880000D03*
%TO.P,U1,4,V-*%
%TO.N,GND*%
X50865000Y-88150000D03*
%TO.P,U1,5,+*%
%TO.N,+2.5V*%
X55815000Y-88150000D03*
%TO.P,U1,6,-*%
%TO.N,Net-(U1B--)*%
X55815000Y-86880000D03*
%TO.P,U1,7*%
%TO.N,PROCESSED_MOD_CV*%
X55815000Y-85610000D03*
%TO.P,U1,8,V+*%
%TO.N,+5V*%
X55815000Y-84340000D03*
D14*
%TO.P,U1,9*%
%TO.N,N/C*%
X53340000Y-86245000D03*
%TD*%
D24*
%TO.P,C3,1*%
%TO.N,+5V*%
X67056000Y-54229000D03*
%TO.P,C3,2*%
%TO.N,GND*%
X67056000Y-55189000D03*
%TD*%
D12*
%TO.P,R3,1*%
%TO.N,Net-(U1B--)*%
X57785000Y-85473000D03*
%TO.P,R3,2*%
%TO.N,PROCESSED_MOD_CV*%
X57785000Y-84453000D03*
%TD*%
D19*
%TO.P,C6,1*%
%TO.N,Net-(U3B-+)*%
X74295000Y-89916000D03*
%TO.P,C6,2*%
%TO.N,+2.5V*%
X73335000Y-89916000D03*
%TD*%
D20*
%TO.P,RV1,*%
%TO.N,*%
X50064000Y-66805000D03*
X59664000Y-66805000D03*
D21*
%TO.P,RV1,1,1*%
%TO.N,unconnected-(RV1-Pad1)*%
X52364000Y-74305000D03*
D22*
%TO.P,RV1,2,2*%
%TO.N,MOD_CV_IN*%
X54864000Y-74305000D03*
%TO.P,RV1,3,3*%
%TO.N,Net-(R2-Pad1)*%
X57364000Y-74305000D03*
%TD*%
D12*
%TO.P,R4,1*%
%TO.N,Net-(U1A--)*%
X48895000Y-85348000D03*
%TO.P,R4,2*%
%TO.N,Net-(R1-Pad1)*%
X48895000Y-84328000D03*
%TD*%
D18*
%TO.P,C4,1*%
%TO.N,Net-(C4-Pad1)*%
X62441000Y-85344000D03*
%TO.P,C4,2*%
%TO.N,Net-(U3B--)*%
X63401000Y-85344000D03*
%TD*%
D25*
%TO.P,C7,1*%
%TO.N,Net-(U4A-+)*%
X57912000Y-56332000D03*
%TO.P,C7,2*%
%TO.N,GND*%
X57912000Y-55372000D03*
%TD*%
D22*
%TO.P,U2,1,-*%
%TO.N,GND*%
X70612000Y-91186000D03*
%TO.P,U2,2,+*%
%TO.N,Net-(U2-+)*%
X68072000Y-91186000D03*
%TO.P,U2,3*%
%TO.N,Net-(R8-Pad1)*%
X70612000Y-78486000D03*
%TO.P,U2,4*%
%TO.N,PROCESSED_MOD_CV*%
X68072000Y-78486000D03*
%TD*%
%TO.P,U6,1,-*%
%TO.N,GND*%
X68453000Y-58293000D03*
%TO.P,U6,2,+*%
%TO.N,Net-(U5-+)*%
X68453000Y-60833000D03*
%TO.P,U6,3*%
%TO.N,Net-(U3B-+)*%
X55753000Y-58293000D03*
%TO.P,U6,4*%
%TO.N,Net-(C4-Pad1)*%
X55753000Y-60833000D03*
%TD*%
D15*
%TO.P,GND1,1,Pin_1*%
%TO.N,GND*%
X55880000Y-96520000D03*
D16*
%TO.P,GND1,2,Pin_2*%
X58420000Y-96520000D03*
%TO.P,GND1,3,Pin_3*%
X60960000Y-96520000D03*
%TO.P,GND1,4,Pin_4*%
X63500000Y-96520000D03*
%TO.P,GND1,5,Pin_5*%
X66040000Y-96520000D03*
%TD*%
D15*
%TO.P,5V1,1,Pin_1*%
%TO.N,+5V*%
X55880000Y-50800000D03*
D16*
%TO.P,5V1,2,Pin_2*%
X58420000Y-50800000D03*
%TO.P,5V1,3,Pin_3*%
X60960000Y-50800000D03*
%TO.P,5V1,4,Pin_4*%
X63500000Y-50800000D03*
%TO.P,5V1,5,Pin_5*%
X66040000Y-50800000D03*
%TD*%
D22*
%TO.P,U5,1,-*%
%TO.N,GND*%
X57785000Y-91313000D03*
%TO.P,U5,2,+*%
%TO.N,Net-(U5-+)*%
X55245000Y-91313000D03*
%TO.P,U5,3*%
%TO.N,Net-(C4-Pad1)*%
X57785000Y-78613000D03*
%TO.P,U5,4*%
%TO.N,Net-(U3A--)*%
X55245000Y-78613000D03*
%TD*%
D26*
%TO.N,*%
X62377580Y-43815000D03*
X62784908Y-106045000D03*
X62377580Y-43815000D03*
X62784908Y-106045000D03*
X62784908Y-106045000D03*
X62784908Y-106045000D03*
X62377580Y-43815000D03*
X62377580Y-43815000D03*
D27*
%TO.N,GND*%
X70866000Y-81788000D03*
X59690000Y-60579000D03*
X66294000Y-53086000D03*
X50800000Y-89281000D03*
X56769000Y-55372000D03*
X66294000Y-100203000D03*
X52959000Y-82107000D03*
X67945000Y-55880000D03*
X68707000Y-89408000D03*
%TO.N,+5V*%
X65780000Y-54350000D03*
X55435500Y-83375500D03*
X74549000Y-82042000D03*
X60198000Y-101473000D03*
%TO.N,Net-(C4-Pad1)*%
X60960000Y-73660000D03*
%TO.N,Net-(U3B--)*%
X67056000Y-93218000D03*
X75819000Y-86868000D03*
X75819000Y-89281000D03*
X63373000Y-88900000D03*
%TO.N,Net-(U3B-+)*%
X63500000Y-76200000D03*
X75438000Y-76200000D03*
%TO.N,+2.5V*%
X53975000Y-89662000D03*
X62611000Y-100203000D03*
X49595000Y-86329881D03*
X73406000Y-92075000D03*
%TO.N,CUTOFF_CV_IN*%
X52070000Y-63627000D03*
X63627000Y-62611000D03*
%TO.N,PROCESSED_MOD_CV*%
X62738000Y-82804000D03*
X58984000Y-83241000D03*
%TO.N,Net-(U2-+)*%
X69088000Y-81915000D03*
X65659000Y-87884000D03*
%TO.N,Net-(U5-+)*%
X66675000Y-70485000D03*
X64770000Y-72390000D03*
X64135000Y-81915000D03*
%TO.N,Net-(R8-Pad1)*%
X66802000Y-81915000D03*
X64389000Y-85217000D03*
%TD*%
D28*
%TO.N,Net-(R8-Pad1)*%
X63839000Y-91313000D02*
X65540000Y-91313000D01*
X65540000Y-91313000D02*
X65540000Y-90686000D01*
X65540000Y-90686000D02*
X64262000Y-89408000D01*
X64262000Y-89408000D02*
X64262000Y-85344000D01*
X64262000Y-85344000D02*
X64389000Y-85217000D01*
%TO.N,Net-(U5-+)*%
X62014000Y-91313000D02*
X60579000Y-91313000D01*
X60579000Y-91313000D02*
X60579000Y-90428000D01*
X60579000Y-90428000D02*
X59813000Y-89662000D01*
D29*
%TO.N,GND*%
X66294000Y-53086000D02*
X64220000Y-53086000D01*
D28*
%TO.N,Net-(D1-K)*%
X62395000Y-53086000D02*
X54991000Y-53086000D01*
D29*
%TO.N,GND*%
X55880000Y-96520000D02*
X66040000Y-96520000D01*
X71557000Y-82479000D02*
X70866000Y-81788000D01*
X50800000Y-89281000D02*
X50800000Y-88215000D01*
X50800000Y-88215000D02*
X50865000Y-88150000D01*
X67056000Y-55189000D02*
X67254000Y-55189000D01*
X68707000Y-88277000D02*
X68580000Y-88150000D01*
X53529000Y-82677000D02*
X52959000Y-82107000D01*
X59690000Y-60579000D02*
X59690000Y-59300000D01*
X71557000Y-82677000D02*
X71557000Y-82479000D01*
X53777000Y-82677000D02*
X53529000Y-82677000D01*
X59690000Y-59300000D02*
X59820000Y-59170000D01*
X67254000Y-55189000D02*
X67945000Y-55880000D01*
X57912000Y-55372000D02*
X56769000Y-55372000D01*
X65024000Y-100203000D02*
X66294000Y-100203000D01*
X68707000Y-89408000D02*
X68707000Y-88277000D01*
%TO.N,+5V*%
X55815000Y-84340000D02*
X55815000Y-83755000D01*
X60194000Y-100203000D02*
X60194000Y-101469000D01*
X72517000Y-82677000D02*
X73406000Y-81788000D01*
X73530000Y-83061000D02*
X73530000Y-84340000D01*
X74295000Y-81788000D02*
X74549000Y-82042000D01*
X60194000Y-101469000D02*
X60198000Y-101473000D01*
X65901000Y-54229000D02*
X67056000Y-54229000D01*
X65780000Y-54350000D02*
X65901000Y-54229000D01*
X55435500Y-83375500D02*
X54737000Y-82677000D01*
X55880000Y-50800000D02*
X66040000Y-50800000D01*
X73406000Y-81788000D02*
X74295000Y-81788000D01*
X64770000Y-55360000D02*
X65780000Y-54350000D01*
X74549000Y-82042000D02*
X73530000Y-83061000D01*
X55815000Y-83755000D02*
X55435500Y-83375500D01*
D28*
%TO.N,Net-(C4-Pad1)*%
X55753000Y-68453000D02*
X60960000Y-73660000D01*
X60833000Y-81661000D02*
X60833000Y-83736000D01*
X60833000Y-83736000D02*
X62441000Y-85344000D01*
X57785000Y-78613000D02*
X60833000Y-81661000D01*
X62441000Y-87729000D02*
X62413000Y-87757000D01*
X55753000Y-60833000D02*
X55753000Y-68453000D01*
X62441000Y-85344000D02*
X62441000Y-87729000D01*
%TO.N,Net-(U3B--)*%
X75819000Y-90651950D02*
X73252950Y-93218000D01*
X75819000Y-89281000D02*
X75819000Y-90651950D01*
X75807000Y-86880000D02*
X75819000Y-86868000D01*
X71628000Y-67945000D02*
X71628000Y-61720000D01*
X63373000Y-88900000D02*
X63373000Y-87757000D01*
X75249000Y-81472000D02*
X74676000Y-80899000D01*
X71628000Y-61720000D02*
X73658000Y-59690000D01*
X63401000Y-85344000D02*
X63401000Y-87729000D01*
X75249000Y-84865999D02*
X75249000Y-81472000D01*
X73252950Y-93218000D02*
X67056000Y-93218000D01*
X73530000Y-85610000D02*
X74504999Y-85610000D01*
X74504999Y-85610000D02*
X75249000Y-84865999D01*
X74676000Y-70993000D02*
X71628000Y-67945000D01*
X73530000Y-85610000D02*
X73530000Y-86880000D01*
X63401000Y-87729000D02*
X63373000Y-87757000D01*
X73530000Y-86880000D02*
X75807000Y-86880000D01*
X74676000Y-80899000D02*
X74676000Y-70993000D01*
%TO.N,Net-(U3B-+)*%
X57404000Y-59944000D02*
X57404000Y-69088000D01*
X73902000Y-88150000D02*
X74041000Y-88011000D01*
X75438000Y-76200000D02*
X76820000Y-77582000D01*
X74295000Y-88915000D02*
X74295000Y-89916000D01*
X76820000Y-77582000D02*
X76820000Y-88150000D01*
X73530000Y-88150000D02*
X73902000Y-88150000D01*
X73530000Y-88150000D02*
X74295000Y-88915000D01*
X55753000Y-58293000D02*
X57404000Y-59944000D01*
X76820000Y-88150000D02*
X73530000Y-88150000D01*
X63500000Y-75184000D02*
X63500000Y-76200000D01*
X57404000Y-69088000D02*
X63500000Y-75184000D01*
D29*
%TO.N,+2.5V*%
X54303000Y-89662000D02*
X55815000Y-88150000D01*
X53975000Y-89662000D02*
X54303000Y-89662000D01*
X50865000Y-86880000D02*
X50145119Y-86880000D01*
X50145119Y-86880000D02*
X49595000Y-86329881D01*
X62611000Y-100203000D02*
X64004000Y-100203000D01*
X61214000Y-100203000D02*
X62611000Y-100203000D01*
X73335000Y-92004000D02*
X73406000Y-92075000D01*
X73335000Y-89916000D02*
X73335000Y-92004000D01*
D28*
%TO.N,Net-(U4A-+)*%
X59820000Y-57900000D02*
X58154000Y-57900000D01*
X58154000Y-57900000D02*
X57912000Y-57658000D01*
X57912000Y-56332000D02*
X57912000Y-57658000D01*
%TO.N,Net-(D1-K)*%
X53975000Y-54102000D02*
X54991000Y-53086000D01*
X53975000Y-68707000D02*
X53975000Y-54102000D01*
X62052000Y-76784000D02*
X53975000Y-68707000D01*
X62052000Y-77851000D02*
X62052000Y-76784000D01*
%TO.N,Net-(D1-A)*%
X59809000Y-53586000D02*
X59820000Y-53597000D01*
X54483000Y-68507894D02*
X54483000Y-54483000D01*
X59820000Y-53597000D02*
X59820000Y-55360000D01*
X55245000Y-53721000D02*
X55245000Y-53586000D01*
X63627000Y-77651894D02*
X54483000Y-68507894D01*
X63627000Y-77851000D02*
X63627000Y-77651894D01*
X55245000Y-53586000D02*
X59809000Y-53586000D01*
X54483000Y-54483000D02*
X55245000Y-53721000D01*
X59820000Y-55360000D02*
X59820000Y-56630000D01*
%TO.N,CUTOFF_CV_IN*%
X52451000Y-63246000D02*
X52451000Y-52451000D01*
X52451000Y-52451000D02*
X50800000Y-50800000D01*
X52070000Y-63627000D02*
X52451000Y-63246000D01*
X64770000Y-61468000D02*
X64770000Y-59170000D01*
X63627000Y-62611000D02*
X64770000Y-61468000D01*
X50800000Y-50800000D02*
X49530000Y-50800000D01*
%TO.N,AUDIO_IN*%
X64897000Y-87376000D02*
X65393000Y-86880000D01*
X47725000Y-47525000D02*
X47725000Y-91159000D01*
X66040000Y-93345000D02*
X66040000Y-90297000D01*
X47725000Y-91159000D02*
X49911000Y-93345000D01*
X65393000Y-86880000D02*
X68580000Y-86880000D01*
X64897000Y-89154000D02*
X64897000Y-87376000D01*
X66040000Y-90297000D02*
X64897000Y-89154000D01*
X49911000Y-93345000D02*
X66040000Y-93345000D01*
X49530000Y-45720000D02*
X47725000Y-47525000D01*
%TO.N,MOD_CV_IN*%
X49530000Y-48260000D02*
X53213000Y-51943000D01*
X54864000Y-70866000D02*
X54864000Y-74305000D01*
X53213000Y-69215000D02*
X54864000Y-70866000D01*
X53213000Y-51943000D02*
X53213000Y-69215000D01*
D29*
%TO.N,AUDIO_OUT*%
X74930000Y-45720000D02*
X74930000Y-55880000D01*
D28*
X74930000Y-57912000D02*
X74678000Y-58164000D01*
X74678000Y-58164000D02*
X74678000Y-59690000D01*
X74930000Y-55880000D02*
X74930000Y-57912000D01*
%TO.N,Net-(R1-Pad1)*%
X51435000Y-81407000D02*
X50865000Y-81977000D01*
X58293000Y-89027000D02*
X60071000Y-89027000D01*
X57785000Y-88519000D02*
X58293000Y-89027000D01*
X60071000Y-81915000D02*
X59563000Y-81407000D01*
X48895000Y-84328000D02*
X50853000Y-84328000D01*
X50853000Y-84328000D02*
X50865000Y-84340000D01*
X59563000Y-81407000D02*
X51435000Y-81407000D01*
X50865000Y-81977000D02*
X50865000Y-84340000D01*
X60071000Y-89027000D02*
X60071000Y-81915000D01*
X57785000Y-88013000D02*
X57785000Y-88519000D01*
%TO.N,Net-(U1B--)*%
X57785000Y-85473000D02*
X57785000Y-86993000D01*
X57672000Y-86880000D02*
X57785000Y-86993000D01*
X55815000Y-86880000D02*
X57672000Y-86880000D01*
%TO.N,Net-(U1A--)*%
X48895000Y-87120000D02*
X48895000Y-85348000D01*
X50865000Y-85610000D02*
X49157000Y-85610000D01*
X49157000Y-85610000D02*
X48895000Y-85348000D01*
%TO.N,Net-(R2-Pad1)*%
X55372000Y-76073000D02*
X48225000Y-83220000D01*
X57364000Y-74305000D02*
X57364000Y-75271000D01*
X57531000Y-75438000D02*
X56896000Y-76073000D01*
X48225000Y-87470000D02*
X48895000Y-88140000D01*
X48225000Y-83220000D02*
X48225000Y-87470000D01*
X56896000Y-76073000D02*
X55372000Y-76073000D01*
X57364000Y-75271000D02*
X57531000Y-75438000D01*
%TO.N,PROCESSED_MOD_CV*%
X66919000Y-71374000D02*
X62357000Y-71374000D01*
X57912000Y-60706000D02*
X57912000Y-58678000D01*
X68072000Y-79248000D02*
X68072000Y-78486000D01*
X58984000Y-83241000D02*
X57785000Y-84440000D01*
X56628000Y-85610000D02*
X57785000Y-84453000D01*
X64516000Y-82804000D02*
X68072000Y-79248000D01*
X58547000Y-61341000D02*
X57912000Y-60706000D01*
X62357000Y-71374000D02*
X62357000Y-61341000D01*
X57785000Y-84440000D02*
X57785000Y-84453000D01*
X62357000Y-61341000D02*
X58547000Y-61341000D01*
X69850000Y-74305000D02*
X66919000Y-71374000D01*
X62738000Y-82804000D02*
X64516000Y-82804000D01*
X69850000Y-76708000D02*
X68072000Y-78486000D01*
X55815000Y-85610000D02*
X56628000Y-85610000D01*
X69850000Y-74305000D02*
X69850000Y-76708000D01*
%TO.N,Net-(U4B--)*%
X70473000Y-56630000D02*
X64770000Y-56630000D01*
X71243000Y-57400000D02*
X70473000Y-56630000D01*
X71243000Y-59690000D02*
X71243000Y-57400000D01*
X64770000Y-57900000D02*
X64770000Y-56630000D01*
%TO.N,Net-(U2-+)*%
X69088000Y-81915000D02*
X70104000Y-80899000D01*
X70993000Y-67945000D02*
X70993000Y-60960000D01*
X74041000Y-71374000D02*
X70993000Y-68326000D01*
X74041000Y-80391000D02*
X74041000Y-71374000D01*
X70993000Y-68326000D02*
X70993000Y-67183000D01*
X65659000Y-87884000D02*
X65659000Y-88773000D01*
X70104000Y-80899000D02*
X73533000Y-80899000D01*
X70993000Y-60960000D02*
X72263000Y-59690000D01*
X73533000Y-80899000D02*
X74041000Y-80391000D01*
X65659000Y-88773000D02*
X68072000Y-91186000D01*
%TO.N,Net-(U5-+)*%
X68453000Y-60833000D02*
X68453000Y-68707000D01*
X68453000Y-68707000D02*
X66675000Y-70485000D01*
X64770000Y-81280000D02*
X64135000Y-81915000D01*
X64770000Y-72390000D02*
X64770000Y-81280000D01*
%TO.N,Net-(R8-Pad1)*%
X66802000Y-81915000D02*
X67183000Y-81915000D01*
X67183000Y-81915000D02*
X70612000Y-78486000D01*
X72350000Y-76748000D02*
X70612000Y-78486000D01*
X72350000Y-74305000D02*
X72350000Y-76748000D01*
%TO.N,Net-(U3A--)*%
X55245000Y-77724000D02*
X55245000Y-78613000D01*
X64655000Y-84340000D02*
X63881000Y-83566000D01*
X59436000Y-78994000D02*
X59436000Y-76962000D01*
X61595000Y-83185000D02*
X61595000Y-81153000D01*
X59436000Y-76962000D02*
X56007000Y-76962000D01*
X61976000Y-83566000D02*
X61595000Y-83185000D01*
X68580000Y-84340000D02*
X64655000Y-84340000D01*
X68580000Y-84340000D02*
X68580000Y-85610000D01*
X61595000Y-81153000D02*
X59436000Y-78994000D01*
X56007000Y-76962000D02*
X55245000Y-77724000D01*
X63881000Y-83566000D02*
X61976000Y-83566000D01*
%TO.N,Net-(U5-+)*%
X55245000Y-89789000D02*
X55245000Y-91313000D01*
X59813000Y-89662000D02*
X55372000Y-89662000D01*
X55372000Y-89662000D02*
X55245000Y-89789000D01*
%TD*%
M02*
