%TF.GenerationSoftware,KiCad,Pcbnew,8.0.5*%
%TF.CreationDate,2024-11-13T12:53:37+05:30*%
%TF.ProjectId,low_pass,6c6f775f-7061-4737-932e-6b696361645f,rev?*%
%TF.SameCoordinates,Original*%
%TF.FileFunction,Legend,Top*%
%TF.FilePolarity,Positive*%
%FSLAX46Y46*%
G04 Gerber Fmt 4.6, Leading zero omitted, Abs format (unit mm)*
G04 Created by KiCad (PCBNEW 8.0.5) date 2024-11-13 12:53:37*
%MOMM*%
%LPD*%
G01*
G04 APERTURE LIST*
G04 Aperture macros list*
%AMRoundRect*
0 Rectangle with rounded corners*
0 $1 Rounding radius*
0 $2 $3 $4 $5 $6 $7 $8 $9 X,Y pos of 4 corners*
0 Add a 4 corners polygon primitive as box body*
4,1,4,$2,$3,$4,$5,$6,$7,$8,$9,$2,$3,0*
0 Add four circle primitives for the rounded corners*
1,1,$1+$1,$2,$3*
1,1,$1+$1,$4,$5*
1,1,$1+$1,$6,$7*
1,1,$1+$1,$8,$9*
0 Add four rect primitives between the rounded corners*
20,1,$1+$1,$2,$3,$4,$5,0*
20,1,$1+$1,$4,$5,$6,$7,0*
20,1,$1+$1,$6,$7,$8,$9,0*
20,1,$1+$1,$8,$9,$2,$3,0*%
G04 Aperture macros list end*
%ADD10C,0.100000*%
%ADD11C,0.500000*%
%ADD12C,0.150000*%
%ADD13C,0.200000*%
%ADD14C,0.400000*%
%ADD15C,0.120000*%
%ADD16RoundRect,0.250000X-0.262500X-0.450000X0.262500X-0.450000X0.262500X0.450000X-0.262500X0.450000X0*%
%ADD17RoundRect,0.250000X0.262500X0.450000X-0.262500X0.450000X-0.262500X-0.450000X0.262500X-0.450000X0*%
%ADD18RoundRect,0.135000X0.185000X-0.135000X0.185000X0.135000X-0.185000X0.135000X-0.185000X-0.135000X0*%
%ADD19RoundRect,0.150000X-0.825000X-0.150000X0.825000X-0.150000X0.825000X0.150000X-0.825000X0.150000X0*%
%ADD20R,2.290000X3.000000*%
%ADD21R,1.700000X1.700000*%
%ADD22O,1.700000X1.700000*%
%ADD23RoundRect,0.135000X-0.135000X-0.185000X0.135000X-0.185000X0.135000X0.185000X-0.135000X0.185000X0*%
%ADD24RoundRect,0.140000X-0.140000X-0.170000X0.140000X-0.170000X0.140000X0.170000X-0.140000X0.170000X0*%
%ADD25RoundRect,0.140000X0.140000X0.170000X-0.140000X0.170000X-0.140000X-0.170000X0.140000X-0.170000X0*%
%ADD26O,2.720000X3.240000*%
%ADD27R,1.800000X1.800000*%
%ADD28C,1.800000*%
%ADD29RoundRect,0.218750X-0.218750X-0.256250X0.218750X-0.256250X0.218750X0.256250X-0.218750X0.256250X0*%
%ADD30RoundRect,0.140000X-0.170000X0.140000X-0.170000X-0.140000X0.170000X-0.140000X0.170000X0.140000X0*%
%ADD31RoundRect,0.140000X0.170000X-0.140000X0.170000X0.140000X-0.170000X0.140000X-0.170000X-0.140000X0*%
G04 APERTURE END LIST*
D10*
X71755000Y-44450000D02*
X71755000Y-48260000D01*
X67056000Y-76581000D02*
X65786000Y-77851000D01*
X65786000Y-75311000D01*
X67056000Y-76581000D01*
G36*
X67056000Y-76581000D02*
G01*
X65786000Y-77851000D01*
X65786000Y-75311000D01*
X67056000Y-76581000D01*
G37*
X71755000Y-53340000D02*
X71755000Y-57150000D01*
X53213000Y-60706000D02*
X51943000Y-59436000D01*
X54483000Y-59436000D01*
X53213000Y-60706000D01*
G36*
X53213000Y-60706000D02*
G01*
X51943000Y-59436000D01*
X54483000Y-59436000D01*
X53213000Y-60706000D01*
G37*
D11*
X55880000Y-48260000D02*
X55880000Y-53467000D01*
X59563000Y-76581000D02*
X66294000Y-76581000D01*
X55880000Y-53467000D02*
X53213000Y-53467000D01*
D10*
X67056000Y-76581000D02*
X66421000Y-77216000D01*
X66421000Y-75946000D01*
X67056000Y-76581000D01*
G36*
X67056000Y-76581000D02*
G01*
X66421000Y-77216000D01*
X66421000Y-75946000D01*
X67056000Y-76581000D01*
G37*
D11*
X53213000Y-53467000D02*
X53213000Y-60071000D01*
X55880000Y-48260000D02*
X54229000Y-48260000D01*
D12*
X71974104Y-52796839D02*
X71974104Y-52320649D01*
X72259819Y-52892077D02*
X71259819Y-52558744D01*
X71259819Y-52558744D02*
X72259819Y-52225411D01*
X71259819Y-51892077D02*
X72069342Y-51892077D01*
X72069342Y-51892077D02*
X72164580Y-51844458D01*
X72164580Y-51844458D02*
X72212200Y-51796839D01*
X72212200Y-51796839D02*
X72259819Y-51701601D01*
X72259819Y-51701601D02*
X72259819Y-51511125D01*
X72259819Y-51511125D02*
X72212200Y-51415887D01*
X72212200Y-51415887D02*
X72164580Y-51368268D01*
X72164580Y-51368268D02*
X72069342Y-51320649D01*
X72069342Y-51320649D02*
X71259819Y-51320649D01*
X72259819Y-50844458D02*
X71259819Y-50844458D01*
X71259819Y-50844458D02*
X71259819Y-50606363D01*
X71259819Y-50606363D02*
X71307438Y-50463506D01*
X71307438Y-50463506D02*
X71402676Y-50368268D01*
X71402676Y-50368268D02*
X71497914Y-50320649D01*
X71497914Y-50320649D02*
X71688390Y-50273030D01*
X71688390Y-50273030D02*
X71831247Y-50273030D01*
X71831247Y-50273030D02*
X72021723Y-50320649D01*
X72021723Y-50320649D02*
X72116961Y-50368268D01*
X72116961Y-50368268D02*
X72212200Y-50463506D01*
X72212200Y-50463506D02*
X72259819Y-50606363D01*
X72259819Y-50606363D02*
X72259819Y-50844458D01*
X72259819Y-49844458D02*
X71259819Y-49844458D01*
X71259819Y-49177792D02*
X71259819Y-48987316D01*
X71259819Y-48987316D02*
X71307438Y-48892078D01*
X71307438Y-48892078D02*
X71402676Y-48796840D01*
X71402676Y-48796840D02*
X71593152Y-48749221D01*
X71593152Y-48749221D02*
X71926485Y-48749221D01*
X71926485Y-48749221D02*
X72116961Y-48796840D01*
X72116961Y-48796840D02*
X72212200Y-48892078D01*
X72212200Y-48892078D02*
X72259819Y-48987316D01*
X72259819Y-48987316D02*
X72259819Y-49177792D01*
X72259819Y-49177792D02*
X72212200Y-49273030D01*
X72212200Y-49273030D02*
X72116961Y-49368268D01*
X72116961Y-49368268D02*
X71926485Y-49415887D01*
X71926485Y-49415887D02*
X71593152Y-49415887D01*
X71593152Y-49415887D02*
X71402676Y-49368268D01*
X71402676Y-49368268D02*
X71307438Y-49273030D01*
X71307438Y-49273030D02*
X71259819Y-49177792D01*
X48342779Y-43684819D02*
X48342779Y-42684819D01*
X48818969Y-43684819D02*
X48818969Y-42684819D01*
X48818969Y-42684819D02*
X49390397Y-43684819D01*
X49390397Y-43684819D02*
X49390397Y-42684819D01*
X49866588Y-43684819D02*
X49866588Y-42684819D01*
X49866588Y-42684819D02*
X50247540Y-42684819D01*
X50247540Y-42684819D02*
X50342778Y-42732438D01*
X50342778Y-42732438D02*
X50390397Y-42780057D01*
X50390397Y-42780057D02*
X50438016Y-42875295D01*
X50438016Y-42875295D02*
X50438016Y-43018152D01*
X50438016Y-43018152D02*
X50390397Y-43113390D01*
X50390397Y-43113390D02*
X50342778Y-43161009D01*
X50342778Y-43161009D02*
X50247540Y-43208628D01*
X50247540Y-43208628D02*
X49866588Y-43208628D01*
X50866588Y-42684819D02*
X50866588Y-43494342D01*
X50866588Y-43494342D02*
X50914207Y-43589580D01*
X50914207Y-43589580D02*
X50961826Y-43637200D01*
X50961826Y-43637200D02*
X51057064Y-43684819D01*
X51057064Y-43684819D02*
X51247540Y-43684819D01*
X51247540Y-43684819D02*
X51342778Y-43637200D01*
X51342778Y-43637200D02*
X51390397Y-43589580D01*
X51390397Y-43589580D02*
X51438016Y-43494342D01*
X51438016Y-43494342D02*
X51438016Y-42684819D01*
X51771350Y-42684819D02*
X52342778Y-42684819D01*
X52057064Y-43684819D02*
X52057064Y-42684819D01*
X68488112Y-76562009D02*
X68154779Y-76562009D01*
X68154779Y-77085819D02*
X68154779Y-76085819D01*
X68154779Y-76085819D02*
X68630969Y-76085819D01*
X69583350Y-77085819D02*
X69250017Y-76609628D01*
X69011922Y-77085819D02*
X69011922Y-76085819D01*
X69011922Y-76085819D02*
X69392874Y-76085819D01*
X69392874Y-76085819D02*
X69488112Y-76133438D01*
X69488112Y-76133438D02*
X69535731Y-76181057D01*
X69535731Y-76181057D02*
X69583350Y-76276295D01*
X69583350Y-76276295D02*
X69583350Y-76419152D01*
X69583350Y-76419152D02*
X69535731Y-76514390D01*
X69535731Y-76514390D02*
X69488112Y-76562009D01*
X69488112Y-76562009D02*
X69392874Y-76609628D01*
X69392874Y-76609628D02*
X69011922Y-76609628D01*
X70011922Y-76562009D02*
X70345255Y-76562009D01*
X70488112Y-77085819D02*
X70011922Y-77085819D01*
X70011922Y-77085819D02*
X70011922Y-76085819D01*
X70011922Y-76085819D02*
X70488112Y-76085819D01*
X71583350Y-77181057D02*
X71488112Y-77133438D01*
X71488112Y-77133438D02*
X71392874Y-77038200D01*
X71392874Y-77038200D02*
X71250017Y-76895342D01*
X71250017Y-76895342D02*
X71154779Y-76847723D01*
X71154779Y-76847723D02*
X71059541Y-76847723D01*
X71107160Y-77085819D02*
X71011922Y-77038200D01*
X71011922Y-77038200D02*
X70916684Y-76942961D01*
X70916684Y-76942961D02*
X70869065Y-76752485D01*
X70869065Y-76752485D02*
X70869065Y-76419152D01*
X70869065Y-76419152D02*
X70916684Y-76228676D01*
X70916684Y-76228676D02*
X71011922Y-76133438D01*
X71011922Y-76133438D02*
X71107160Y-76085819D01*
X71107160Y-76085819D02*
X71297636Y-76085819D01*
X71297636Y-76085819D02*
X71392874Y-76133438D01*
X71392874Y-76133438D02*
X71488112Y-76228676D01*
X71488112Y-76228676D02*
X71535731Y-76419152D01*
X71535731Y-76419152D02*
X71535731Y-76752485D01*
X71535731Y-76752485D02*
X71488112Y-76942961D01*
X71488112Y-76942961D02*
X71392874Y-77038200D01*
X71392874Y-77038200D02*
X71297636Y-77085819D01*
X71297636Y-77085819D02*
X71107160Y-77085819D01*
D13*
X69385897Y-106207275D02*
X68909707Y-106207275D01*
X68909707Y-106207275D02*
X68909707Y-105207275D01*
X69909707Y-105207275D02*
X70100183Y-105207275D01*
X70100183Y-105207275D02*
X70195421Y-105254894D01*
X70195421Y-105254894D02*
X70290659Y-105350132D01*
X70290659Y-105350132D02*
X70338278Y-105540608D01*
X70338278Y-105540608D02*
X70338278Y-105873941D01*
X70338278Y-105873941D02*
X70290659Y-106064417D01*
X70290659Y-106064417D02*
X70195421Y-106159656D01*
X70195421Y-106159656D02*
X70100183Y-106207275D01*
X70100183Y-106207275D02*
X69909707Y-106207275D01*
X69909707Y-106207275D02*
X69814469Y-106159656D01*
X69814469Y-106159656D02*
X69719231Y-106064417D01*
X69719231Y-106064417D02*
X69671612Y-105873941D01*
X69671612Y-105873941D02*
X69671612Y-105540608D01*
X69671612Y-105540608D02*
X69719231Y-105350132D01*
X69719231Y-105350132D02*
X69814469Y-105254894D01*
X69814469Y-105254894D02*
X69909707Y-105207275D01*
X70671612Y-105207275D02*
X70909707Y-106207275D01*
X70909707Y-106207275D02*
X71100183Y-105492989D01*
X71100183Y-105492989D02*
X71290659Y-106207275D01*
X71290659Y-106207275D02*
X71528755Y-105207275D01*
X71671612Y-106302513D02*
X72433516Y-106302513D01*
X72671612Y-106207275D02*
X72671612Y-105207275D01*
X72671612Y-105207275D02*
X73052564Y-105207275D01*
X73052564Y-105207275D02*
X73147802Y-105254894D01*
X73147802Y-105254894D02*
X73195421Y-105302513D01*
X73195421Y-105302513D02*
X73243040Y-105397751D01*
X73243040Y-105397751D02*
X73243040Y-105540608D01*
X73243040Y-105540608D02*
X73195421Y-105635846D01*
X73195421Y-105635846D02*
X73147802Y-105683465D01*
X73147802Y-105683465D02*
X73052564Y-105731084D01*
X73052564Y-105731084D02*
X72671612Y-105731084D01*
X73623993Y-105921560D02*
X74100183Y-105921560D01*
X73528755Y-106207275D02*
X73862088Y-105207275D01*
X73862088Y-105207275D02*
X74195421Y-106207275D01*
X74481136Y-106159656D02*
X74623993Y-106207275D01*
X74623993Y-106207275D02*
X74862088Y-106207275D01*
X74862088Y-106207275D02*
X74957326Y-106159656D01*
X74957326Y-106159656D02*
X75004945Y-106112036D01*
X75004945Y-106112036D02*
X75052564Y-106016798D01*
X75052564Y-106016798D02*
X75052564Y-105921560D01*
X75052564Y-105921560D02*
X75004945Y-105826322D01*
X75004945Y-105826322D02*
X74957326Y-105778703D01*
X74957326Y-105778703D02*
X74862088Y-105731084D01*
X74862088Y-105731084D02*
X74671612Y-105683465D01*
X74671612Y-105683465D02*
X74576374Y-105635846D01*
X74576374Y-105635846D02*
X74528755Y-105588227D01*
X74528755Y-105588227D02*
X74481136Y-105492989D01*
X74481136Y-105492989D02*
X74481136Y-105397751D01*
X74481136Y-105397751D02*
X74528755Y-105302513D01*
X74528755Y-105302513D02*
X74576374Y-105254894D01*
X74576374Y-105254894D02*
X74671612Y-105207275D01*
X74671612Y-105207275D02*
X74909707Y-105207275D01*
X74909707Y-105207275D02*
X75052564Y-105254894D01*
X75433517Y-106159656D02*
X75576374Y-106207275D01*
X75576374Y-106207275D02*
X75814469Y-106207275D01*
X75814469Y-106207275D02*
X75909707Y-106159656D01*
X75909707Y-106159656D02*
X75957326Y-106112036D01*
X75957326Y-106112036D02*
X76004945Y-106016798D01*
X76004945Y-106016798D02*
X76004945Y-105921560D01*
X76004945Y-105921560D02*
X75957326Y-105826322D01*
X75957326Y-105826322D02*
X75909707Y-105778703D01*
X75909707Y-105778703D02*
X75814469Y-105731084D01*
X75814469Y-105731084D02*
X75623993Y-105683465D01*
X75623993Y-105683465D02*
X75528755Y-105635846D01*
X75528755Y-105635846D02*
X75481136Y-105588227D01*
X75481136Y-105588227D02*
X75433517Y-105492989D01*
X75433517Y-105492989D02*
X75433517Y-105397751D01*
X75433517Y-105397751D02*
X75481136Y-105302513D01*
X75481136Y-105302513D02*
X75528755Y-105254894D01*
X75528755Y-105254894D02*
X75623993Y-105207275D01*
X75623993Y-105207275D02*
X75862088Y-105207275D01*
X75862088Y-105207275D02*
X76004945Y-105254894D01*
X72814470Y-106817219D02*
X72909708Y-106817219D01*
X72909708Y-106817219D02*
X73004946Y-106864838D01*
X73004946Y-106864838D02*
X73052565Y-106912457D01*
X73052565Y-106912457D02*
X73100184Y-107007695D01*
X73100184Y-107007695D02*
X73147803Y-107198171D01*
X73147803Y-107198171D02*
X73147803Y-107436266D01*
X73147803Y-107436266D02*
X73100184Y-107626742D01*
X73100184Y-107626742D02*
X73052565Y-107721980D01*
X73052565Y-107721980D02*
X73004946Y-107769600D01*
X73004946Y-107769600D02*
X72909708Y-107817219D01*
X72909708Y-107817219D02*
X72814470Y-107817219D01*
X72814470Y-107817219D02*
X72719232Y-107769600D01*
X72719232Y-107769600D02*
X72671613Y-107721980D01*
X72671613Y-107721980D02*
X72623994Y-107626742D01*
X72623994Y-107626742D02*
X72576375Y-107436266D01*
X72576375Y-107436266D02*
X72576375Y-107198171D01*
X72576375Y-107198171D02*
X72623994Y-107007695D01*
X72623994Y-107007695D02*
X72671613Y-106912457D01*
X72671613Y-106912457D02*
X72719232Y-106864838D01*
X72719232Y-106864838D02*
X72814470Y-106817219D01*
X73576375Y-107721980D02*
X73623994Y-107769600D01*
X73623994Y-107769600D02*
X73576375Y-107817219D01*
X73576375Y-107817219D02*
X73528756Y-107769600D01*
X73528756Y-107769600D02*
X73576375Y-107721980D01*
X73576375Y-107721980D02*
X73576375Y-107817219D01*
X74576374Y-107817219D02*
X74004946Y-107817219D01*
X74290660Y-107817219D02*
X74290660Y-106817219D01*
X74290660Y-106817219D02*
X74195422Y-106960076D01*
X74195422Y-106960076D02*
X74100184Y-107055314D01*
X74100184Y-107055314D02*
X74004946Y-107102933D01*
X75004946Y-107721980D02*
X75052565Y-107769600D01*
X75052565Y-107769600D02*
X75004946Y-107817219D01*
X75004946Y-107817219D02*
X74957327Y-107769600D01*
X74957327Y-107769600D02*
X75004946Y-107721980D01*
X75004946Y-107721980D02*
X75004946Y-107817219D01*
X75671612Y-106817219D02*
X75766850Y-106817219D01*
X75766850Y-106817219D02*
X75862088Y-106864838D01*
X75862088Y-106864838D02*
X75909707Y-106912457D01*
X75909707Y-106912457D02*
X75957326Y-107007695D01*
X75957326Y-107007695D02*
X76004945Y-107198171D01*
X76004945Y-107198171D02*
X76004945Y-107436266D01*
X76004945Y-107436266D02*
X75957326Y-107626742D01*
X75957326Y-107626742D02*
X75909707Y-107721980D01*
X75909707Y-107721980D02*
X75862088Y-107769600D01*
X75862088Y-107769600D02*
X75766850Y-107817219D01*
X75766850Y-107817219D02*
X75671612Y-107817219D01*
X75671612Y-107817219D02*
X75576374Y-107769600D01*
X75576374Y-107769600D02*
X75528755Y-107721980D01*
X75528755Y-107721980D02*
X75481136Y-107626742D01*
X75481136Y-107626742D02*
X75433517Y-107436266D01*
X75433517Y-107436266D02*
X75433517Y-107198171D01*
X75433517Y-107198171D02*
X75481136Y-107007695D01*
X75481136Y-107007695D02*
X75528755Y-106912457D01*
X75528755Y-106912457D02*
X75576374Y-106864838D01*
X75576374Y-106864838D02*
X75671612Y-106817219D01*
D12*
X52343207Y-76990580D02*
X52295588Y-77038200D01*
X52295588Y-77038200D02*
X52152731Y-77085819D01*
X52152731Y-77085819D02*
X52057493Y-77085819D01*
X52057493Y-77085819D02*
X51914636Y-77038200D01*
X51914636Y-77038200D02*
X51819398Y-76942961D01*
X51819398Y-76942961D02*
X51771779Y-76847723D01*
X51771779Y-76847723D02*
X51724160Y-76657247D01*
X51724160Y-76657247D02*
X51724160Y-76514390D01*
X51724160Y-76514390D02*
X51771779Y-76323914D01*
X51771779Y-76323914D02*
X51819398Y-76228676D01*
X51819398Y-76228676D02*
X51914636Y-76133438D01*
X51914636Y-76133438D02*
X52057493Y-76085819D01*
X52057493Y-76085819D02*
X52152731Y-76085819D01*
X52152731Y-76085819D02*
X52295588Y-76133438D01*
X52295588Y-76133438D02*
X52343207Y-76181057D01*
X52628922Y-76085819D02*
X52962255Y-77085819D01*
X52962255Y-77085819D02*
X53295588Y-76085819D01*
X54152731Y-77085819D02*
X53581303Y-77085819D01*
X53867017Y-77085819D02*
X53867017Y-76085819D01*
X53867017Y-76085819D02*
X53771779Y-76228676D01*
X53771779Y-76228676D02*
X53676541Y-76323914D01*
X53676541Y-76323914D02*
X53581303Y-76371533D01*
X55867017Y-76133438D02*
X55771779Y-76085819D01*
X55771779Y-76085819D02*
X55628922Y-76085819D01*
X55628922Y-76085819D02*
X55486065Y-76133438D01*
X55486065Y-76133438D02*
X55390827Y-76228676D01*
X55390827Y-76228676D02*
X55343208Y-76323914D01*
X55343208Y-76323914D02*
X55295589Y-76514390D01*
X55295589Y-76514390D02*
X55295589Y-76657247D01*
X55295589Y-76657247D02*
X55343208Y-76847723D01*
X55343208Y-76847723D02*
X55390827Y-76942961D01*
X55390827Y-76942961D02*
X55486065Y-77038200D01*
X55486065Y-77038200D02*
X55628922Y-77085819D01*
X55628922Y-77085819D02*
X55724160Y-77085819D01*
X55724160Y-77085819D02*
X55867017Y-77038200D01*
X55867017Y-77038200D02*
X55914636Y-76990580D01*
X55914636Y-76990580D02*
X55914636Y-76657247D01*
X55914636Y-76657247D02*
X55724160Y-76657247D01*
X56295589Y-76800104D02*
X56771779Y-76800104D01*
X56200351Y-77085819D02*
X56533684Y-76085819D01*
X56533684Y-76085819D02*
X56867017Y-77085819D01*
X57200351Y-77085819D02*
X57200351Y-76085819D01*
X57676541Y-77085819D02*
X57676541Y-76085819D01*
X57676541Y-76085819D02*
X58247969Y-77085819D01*
X58247969Y-77085819D02*
X58247969Y-76085819D01*
X51724160Y-45939104D02*
X52200350Y-45939104D01*
X51628922Y-46224819D02*
X51962255Y-45224819D01*
X51962255Y-45224819D02*
X52295588Y-46224819D01*
X52628922Y-45224819D02*
X52628922Y-46034342D01*
X52628922Y-46034342D02*
X52676541Y-46129580D01*
X52676541Y-46129580D02*
X52724160Y-46177200D01*
X52724160Y-46177200D02*
X52819398Y-46224819D01*
X52819398Y-46224819D02*
X53009874Y-46224819D01*
X53009874Y-46224819D02*
X53105112Y-46177200D01*
X53105112Y-46177200D02*
X53152731Y-46129580D01*
X53152731Y-46129580D02*
X53200350Y-46034342D01*
X53200350Y-46034342D02*
X53200350Y-45224819D01*
X53676541Y-46224819D02*
X53676541Y-45224819D01*
X53676541Y-45224819D02*
X53914636Y-45224819D01*
X53914636Y-45224819D02*
X54057493Y-45272438D01*
X54057493Y-45272438D02*
X54152731Y-45367676D01*
X54152731Y-45367676D02*
X54200350Y-45462914D01*
X54200350Y-45462914D02*
X54247969Y-45653390D01*
X54247969Y-45653390D02*
X54247969Y-45796247D01*
X54247969Y-45796247D02*
X54200350Y-45986723D01*
X54200350Y-45986723D02*
X54152731Y-46081961D01*
X54152731Y-46081961D02*
X54057493Y-46177200D01*
X54057493Y-46177200D02*
X53914636Y-46224819D01*
X53914636Y-46224819D02*
X53676541Y-46224819D01*
X54676541Y-46224819D02*
X54676541Y-45224819D01*
X55343207Y-45224819D02*
X55533683Y-45224819D01*
X55533683Y-45224819D02*
X55628921Y-45272438D01*
X55628921Y-45272438D02*
X55724159Y-45367676D01*
X55724159Y-45367676D02*
X55771778Y-45558152D01*
X55771778Y-45558152D02*
X55771778Y-45891485D01*
X55771778Y-45891485D02*
X55724159Y-46081961D01*
X55724159Y-46081961D02*
X55628921Y-46177200D01*
X55628921Y-46177200D02*
X55533683Y-46224819D01*
X55533683Y-46224819D02*
X55343207Y-46224819D01*
X55343207Y-46224819D02*
X55247969Y-46177200D01*
X55247969Y-46177200D02*
X55152731Y-46081961D01*
X55152731Y-46081961D02*
X55105112Y-45891485D01*
X55105112Y-45891485D02*
X55105112Y-45558152D01*
X55105112Y-45558152D02*
X55152731Y-45367676D01*
X55152731Y-45367676D02*
X55247969Y-45272438D01*
X55247969Y-45272438D02*
X55343207Y-45224819D01*
D14*
X61127728Y-48375438D02*
X60175347Y-48375438D01*
X60175347Y-48375438D02*
X60175347Y-46375438D01*
X62175347Y-46375438D02*
X62556300Y-46375438D01*
X62556300Y-46375438D02*
X62746776Y-46470676D01*
X62746776Y-46470676D02*
X62937252Y-46661152D01*
X62937252Y-46661152D02*
X63032490Y-47042104D01*
X63032490Y-47042104D02*
X63032490Y-47708771D01*
X63032490Y-47708771D02*
X62937252Y-48089723D01*
X62937252Y-48089723D02*
X62746776Y-48280200D01*
X62746776Y-48280200D02*
X62556300Y-48375438D01*
X62556300Y-48375438D02*
X62175347Y-48375438D01*
X62175347Y-48375438D02*
X61984871Y-48280200D01*
X61984871Y-48280200D02*
X61794395Y-48089723D01*
X61794395Y-48089723D02*
X61699157Y-47708771D01*
X61699157Y-47708771D02*
X61699157Y-47042104D01*
X61699157Y-47042104D02*
X61794395Y-46661152D01*
X61794395Y-46661152D02*
X61984871Y-46470676D01*
X61984871Y-46470676D02*
X62175347Y-46375438D01*
X63699157Y-46375438D02*
X64175347Y-48375438D01*
X64175347Y-48375438D02*
X64556300Y-46946866D01*
X64556300Y-46946866D02*
X64937252Y-48375438D01*
X64937252Y-48375438D02*
X65413443Y-46375438D01*
D12*
X52216207Y-51209580D02*
X52168588Y-51257200D01*
X52168588Y-51257200D02*
X52025731Y-51304819D01*
X52025731Y-51304819D02*
X51930493Y-51304819D01*
X51930493Y-51304819D02*
X51787636Y-51257200D01*
X51787636Y-51257200D02*
X51692398Y-51161961D01*
X51692398Y-51161961D02*
X51644779Y-51066723D01*
X51644779Y-51066723D02*
X51597160Y-50876247D01*
X51597160Y-50876247D02*
X51597160Y-50733390D01*
X51597160Y-50733390D02*
X51644779Y-50542914D01*
X51644779Y-50542914D02*
X51692398Y-50447676D01*
X51692398Y-50447676D02*
X51787636Y-50352438D01*
X51787636Y-50352438D02*
X51930493Y-50304819D01*
X51930493Y-50304819D02*
X52025731Y-50304819D01*
X52025731Y-50304819D02*
X52168588Y-50352438D01*
X52168588Y-50352438D02*
X52216207Y-50400057D01*
X52501922Y-50304819D02*
X52835255Y-51304819D01*
X52835255Y-51304819D02*
X53168588Y-50304819D01*
X53454303Y-50400057D02*
X53501922Y-50352438D01*
X53501922Y-50352438D02*
X53597160Y-50304819D01*
X53597160Y-50304819D02*
X53835255Y-50304819D01*
X53835255Y-50304819D02*
X53930493Y-50352438D01*
X53930493Y-50352438D02*
X53978112Y-50400057D01*
X53978112Y-50400057D02*
X54025731Y-50495295D01*
X54025731Y-50495295D02*
X54025731Y-50590533D01*
X54025731Y-50590533D02*
X53978112Y-50733390D01*
X53978112Y-50733390D02*
X53406684Y-51304819D01*
X53406684Y-51304819D02*
X54025731Y-51304819D01*
X71117220Y-42684819D02*
X71307696Y-42684819D01*
X71307696Y-42684819D02*
X71402934Y-42732438D01*
X71402934Y-42732438D02*
X71498172Y-42827676D01*
X71498172Y-42827676D02*
X71545791Y-43018152D01*
X71545791Y-43018152D02*
X71545791Y-43351485D01*
X71545791Y-43351485D02*
X71498172Y-43541961D01*
X71498172Y-43541961D02*
X71402934Y-43637200D01*
X71402934Y-43637200D02*
X71307696Y-43684819D01*
X71307696Y-43684819D02*
X71117220Y-43684819D01*
X71117220Y-43684819D02*
X71021982Y-43637200D01*
X71021982Y-43637200D02*
X70926744Y-43541961D01*
X70926744Y-43541961D02*
X70879125Y-43351485D01*
X70879125Y-43351485D02*
X70879125Y-43018152D01*
X70879125Y-43018152D02*
X70926744Y-42827676D01*
X70926744Y-42827676D02*
X71021982Y-42732438D01*
X71021982Y-42732438D02*
X71117220Y-42684819D01*
X71974363Y-42684819D02*
X71974363Y-43494342D01*
X71974363Y-43494342D02*
X72021982Y-43589580D01*
X72021982Y-43589580D02*
X72069601Y-43637200D01*
X72069601Y-43637200D02*
X72164839Y-43684819D01*
X72164839Y-43684819D02*
X72355315Y-43684819D01*
X72355315Y-43684819D02*
X72450553Y-43637200D01*
X72450553Y-43637200D02*
X72498172Y-43589580D01*
X72498172Y-43589580D02*
X72545791Y-43494342D01*
X72545791Y-43494342D02*
X72545791Y-42684819D01*
X72879125Y-42684819D02*
X73450553Y-42684819D01*
X73164839Y-43684819D02*
X73164839Y-42684819D01*
X73783887Y-43684819D02*
X73783887Y-42684819D01*
X73783887Y-42684819D02*
X74164839Y-42684819D01*
X74164839Y-42684819D02*
X74260077Y-42732438D01*
X74260077Y-42732438D02*
X74307696Y-42780057D01*
X74307696Y-42780057D02*
X74355315Y-42875295D01*
X74355315Y-42875295D02*
X74355315Y-43018152D01*
X74355315Y-43018152D02*
X74307696Y-43113390D01*
X74307696Y-43113390D02*
X74260077Y-43161009D01*
X74260077Y-43161009D02*
X74164839Y-43208628D01*
X74164839Y-43208628D02*
X73783887Y-43208628D01*
X74783887Y-42684819D02*
X74783887Y-43494342D01*
X74783887Y-43494342D02*
X74831506Y-43589580D01*
X74831506Y-43589580D02*
X74879125Y-43637200D01*
X74879125Y-43637200D02*
X74974363Y-43684819D01*
X74974363Y-43684819D02*
X75164839Y-43684819D01*
X75164839Y-43684819D02*
X75260077Y-43637200D01*
X75260077Y-43637200D02*
X75307696Y-43589580D01*
X75307696Y-43589580D02*
X75355315Y-43494342D01*
X75355315Y-43494342D02*
X75355315Y-42684819D01*
X75688649Y-42684819D02*
X76260077Y-42684819D01*
X75974363Y-43684819D02*
X75974363Y-42684819D01*
D10*
X59934360Y-79659014D02*
X59934360Y-78909014D01*
X59934360Y-78909014D02*
X60184360Y-79444728D01*
X60184360Y-79444728D02*
X60434360Y-78909014D01*
X60434360Y-78909014D02*
X60434360Y-79659014D01*
X60934360Y-78909014D02*
X61077217Y-78909014D01*
X61077217Y-78909014D02*
X61148646Y-78944728D01*
X61148646Y-78944728D02*
X61220074Y-79016157D01*
X61220074Y-79016157D02*
X61255789Y-79159014D01*
X61255789Y-79159014D02*
X61255789Y-79409014D01*
X61255789Y-79409014D02*
X61220074Y-79551871D01*
X61220074Y-79551871D02*
X61148646Y-79623300D01*
X61148646Y-79623300D02*
X61077217Y-79659014D01*
X61077217Y-79659014D02*
X60934360Y-79659014D01*
X60934360Y-79659014D02*
X60862932Y-79623300D01*
X60862932Y-79623300D02*
X60791503Y-79551871D01*
X60791503Y-79551871D02*
X60755789Y-79409014D01*
X60755789Y-79409014D02*
X60755789Y-79159014D01*
X60755789Y-79159014D02*
X60791503Y-79016157D01*
X60791503Y-79016157D02*
X60862932Y-78944728D01*
X60862932Y-78944728D02*
X60934360Y-78909014D01*
X61577217Y-79659014D02*
X61577217Y-78909014D01*
X61577217Y-78909014D02*
X61755788Y-78909014D01*
X61755788Y-78909014D02*
X61862931Y-78944728D01*
X61862931Y-78944728D02*
X61934360Y-79016157D01*
X61934360Y-79016157D02*
X61970074Y-79087585D01*
X61970074Y-79087585D02*
X62005788Y-79230442D01*
X62005788Y-79230442D02*
X62005788Y-79337585D01*
X62005788Y-79337585D02*
X61970074Y-79480442D01*
X61970074Y-79480442D02*
X61934360Y-79551871D01*
X61934360Y-79551871D02*
X61862931Y-79623300D01*
X61862931Y-79623300D02*
X61755788Y-79659014D01*
X61755788Y-79659014D02*
X61577217Y-79659014D01*
X62327217Y-78909014D02*
X62327217Y-79516157D01*
X62327217Y-79516157D02*
X62362931Y-79587585D01*
X62362931Y-79587585D02*
X62398646Y-79623300D01*
X62398646Y-79623300D02*
X62470074Y-79659014D01*
X62470074Y-79659014D02*
X62612931Y-79659014D01*
X62612931Y-79659014D02*
X62684360Y-79623300D01*
X62684360Y-79623300D02*
X62720074Y-79587585D01*
X62720074Y-79587585D02*
X62755788Y-79516157D01*
X62755788Y-79516157D02*
X62755788Y-78909014D01*
X63470074Y-79659014D02*
X63112931Y-79659014D01*
X63112931Y-79659014D02*
X63112931Y-78909014D01*
X63684360Y-79444728D02*
X64041503Y-79444728D01*
X63612931Y-79659014D02*
X63862931Y-78909014D01*
X63862931Y-78909014D02*
X64112931Y-79659014D01*
X64255788Y-78909014D02*
X64684360Y-78909014D01*
X64470074Y-79659014D02*
X64470074Y-78909014D01*
X64934360Y-79266157D02*
X65184360Y-79266157D01*
X65291503Y-79659014D02*
X64934360Y-79659014D01*
X64934360Y-79659014D02*
X64934360Y-78909014D01*
X64934360Y-78909014D02*
X65291503Y-78909014D01*
X65577217Y-79623300D02*
X65684360Y-79659014D01*
X65684360Y-79659014D02*
X65862931Y-79659014D01*
X65862931Y-79659014D02*
X65934360Y-79623300D01*
X65934360Y-79623300D02*
X65970074Y-79587585D01*
X65970074Y-79587585D02*
X66005788Y-79516157D01*
X66005788Y-79516157D02*
X66005788Y-79444728D01*
X66005788Y-79444728D02*
X65970074Y-79373300D01*
X65970074Y-79373300D02*
X65934360Y-79337585D01*
X65934360Y-79337585D02*
X65862931Y-79301871D01*
X65862931Y-79301871D02*
X65720074Y-79266157D01*
X65720074Y-79266157D02*
X65648645Y-79230442D01*
X65648645Y-79230442D02*
X65612931Y-79194728D01*
X65612931Y-79194728D02*
X65577217Y-79123300D01*
X65577217Y-79123300D02*
X65577217Y-79051871D01*
X65577217Y-79051871D02*
X65612931Y-78980442D01*
X65612931Y-78980442D02*
X65648645Y-78944728D01*
X65648645Y-78944728D02*
X65720074Y-78909014D01*
X65720074Y-78909014D02*
X65898645Y-78909014D01*
X65898645Y-78909014D02*
X66005788Y-78944728D01*
D12*
X52216207Y-48669580D02*
X52168588Y-48717200D01*
X52168588Y-48717200D02*
X52025731Y-48764819D01*
X52025731Y-48764819D02*
X51930493Y-48764819D01*
X51930493Y-48764819D02*
X51787636Y-48717200D01*
X51787636Y-48717200D02*
X51692398Y-48621961D01*
X51692398Y-48621961D02*
X51644779Y-48526723D01*
X51644779Y-48526723D02*
X51597160Y-48336247D01*
X51597160Y-48336247D02*
X51597160Y-48193390D01*
X51597160Y-48193390D02*
X51644779Y-48002914D01*
X51644779Y-48002914D02*
X51692398Y-47907676D01*
X51692398Y-47907676D02*
X51787636Y-47812438D01*
X51787636Y-47812438D02*
X51930493Y-47764819D01*
X51930493Y-47764819D02*
X52025731Y-47764819D01*
X52025731Y-47764819D02*
X52168588Y-47812438D01*
X52168588Y-47812438D02*
X52216207Y-47860057D01*
X52501922Y-47764819D02*
X52835255Y-48764819D01*
X52835255Y-48764819D02*
X53168588Y-47764819D01*
X54025731Y-48764819D02*
X53454303Y-48764819D01*
X53740017Y-48764819D02*
X53740017Y-47764819D01*
X53740017Y-47764819D02*
X53644779Y-47907676D01*
X53644779Y-47907676D02*
X53549541Y-48002914D01*
X53549541Y-48002914D02*
X53454303Y-48050533D01*
D13*
X48963006Y-105683465D02*
X49105863Y-105731084D01*
X49105863Y-105731084D02*
X49153482Y-105778703D01*
X49153482Y-105778703D02*
X49201101Y-105873941D01*
X49201101Y-105873941D02*
X49201101Y-106016798D01*
X49201101Y-106016798D02*
X49153482Y-106112036D01*
X49153482Y-106112036D02*
X49105863Y-106159656D01*
X49105863Y-106159656D02*
X49010625Y-106207275D01*
X49010625Y-106207275D02*
X48629673Y-106207275D01*
X48629673Y-106207275D02*
X48629673Y-105207275D01*
X48629673Y-105207275D02*
X48963006Y-105207275D01*
X48963006Y-105207275D02*
X49058244Y-105254894D01*
X49058244Y-105254894D02*
X49105863Y-105302513D01*
X49105863Y-105302513D02*
X49153482Y-105397751D01*
X49153482Y-105397751D02*
X49153482Y-105492989D01*
X49153482Y-105492989D02*
X49105863Y-105588227D01*
X49105863Y-105588227D02*
X49058244Y-105635846D01*
X49058244Y-105635846D02*
X48963006Y-105683465D01*
X48963006Y-105683465D02*
X48629673Y-105683465D01*
X50201101Y-106207275D02*
X49867768Y-105731084D01*
X49629673Y-106207275D02*
X49629673Y-105207275D01*
X49629673Y-105207275D02*
X50010625Y-105207275D01*
X50010625Y-105207275D02*
X50105863Y-105254894D01*
X50105863Y-105254894D02*
X50153482Y-105302513D01*
X50153482Y-105302513D02*
X50201101Y-105397751D01*
X50201101Y-105397751D02*
X50201101Y-105540608D01*
X50201101Y-105540608D02*
X50153482Y-105635846D01*
X50153482Y-105635846D02*
X50105863Y-105683465D01*
X50105863Y-105683465D02*
X50010625Y-105731084D01*
X50010625Y-105731084D02*
X49629673Y-105731084D01*
X50629673Y-105683465D02*
X50963006Y-105683465D01*
X51105863Y-106207275D02*
X50629673Y-106207275D01*
X50629673Y-106207275D02*
X50629673Y-105207275D01*
X50629673Y-105207275D02*
X51105863Y-105207275D01*
X51486816Y-105921560D02*
X51963006Y-105921560D01*
X51391578Y-106207275D02*
X51724911Y-105207275D01*
X51724911Y-105207275D02*
X52058244Y-106207275D01*
X52391578Y-106207275D02*
X52391578Y-105207275D01*
X52391578Y-105207275D02*
X52629673Y-105207275D01*
X52629673Y-105207275D02*
X52772530Y-105254894D01*
X52772530Y-105254894D02*
X52867768Y-105350132D01*
X52867768Y-105350132D02*
X52915387Y-105445370D01*
X52915387Y-105445370D02*
X52963006Y-105635846D01*
X52963006Y-105635846D02*
X52963006Y-105778703D01*
X52963006Y-105778703D02*
X52915387Y-105969179D01*
X52915387Y-105969179D02*
X52867768Y-106064417D01*
X52867768Y-106064417D02*
X52772530Y-106159656D01*
X52772530Y-106159656D02*
X52629673Y-106207275D01*
X52629673Y-106207275D02*
X52391578Y-106207275D01*
X48629673Y-107817219D02*
X48629673Y-106817219D01*
X48629673Y-106817219D02*
X48963006Y-107531504D01*
X48963006Y-107531504D02*
X49296339Y-106817219D01*
X49296339Y-106817219D02*
X49296339Y-107817219D01*
X49963006Y-106817219D02*
X50153482Y-106817219D01*
X50153482Y-106817219D02*
X50248720Y-106864838D01*
X50248720Y-106864838D02*
X50343958Y-106960076D01*
X50343958Y-106960076D02*
X50391577Y-107150552D01*
X50391577Y-107150552D02*
X50391577Y-107483885D01*
X50391577Y-107483885D02*
X50343958Y-107674361D01*
X50343958Y-107674361D02*
X50248720Y-107769600D01*
X50248720Y-107769600D02*
X50153482Y-107817219D01*
X50153482Y-107817219D02*
X49963006Y-107817219D01*
X49963006Y-107817219D02*
X49867768Y-107769600D01*
X49867768Y-107769600D02*
X49772530Y-107674361D01*
X49772530Y-107674361D02*
X49724911Y-107483885D01*
X49724911Y-107483885D02*
X49724911Y-107150552D01*
X49724911Y-107150552D02*
X49772530Y-106960076D01*
X49772530Y-106960076D02*
X49867768Y-106864838D01*
X49867768Y-106864838D02*
X49963006Y-106817219D01*
X50820149Y-107817219D02*
X50820149Y-106817219D01*
X50820149Y-106817219D02*
X51058244Y-106817219D01*
X51058244Y-106817219D02*
X51201101Y-106864838D01*
X51201101Y-106864838D02*
X51296339Y-106960076D01*
X51296339Y-106960076D02*
X51343958Y-107055314D01*
X51343958Y-107055314D02*
X51391577Y-107245790D01*
X51391577Y-107245790D02*
X51391577Y-107388647D01*
X51391577Y-107388647D02*
X51343958Y-107579123D01*
X51343958Y-107579123D02*
X51296339Y-107674361D01*
X51296339Y-107674361D02*
X51201101Y-107769600D01*
X51201101Y-107769600D02*
X51058244Y-107817219D01*
X51058244Y-107817219D02*
X50820149Y-107817219D01*
X51820149Y-106817219D02*
X51820149Y-107626742D01*
X51820149Y-107626742D02*
X51867768Y-107721980D01*
X51867768Y-107721980D02*
X51915387Y-107769600D01*
X51915387Y-107769600D02*
X52010625Y-107817219D01*
X52010625Y-107817219D02*
X52201101Y-107817219D01*
X52201101Y-107817219D02*
X52296339Y-107769600D01*
X52296339Y-107769600D02*
X52343958Y-107721980D01*
X52343958Y-107721980D02*
X52391577Y-107626742D01*
X52391577Y-107626742D02*
X52391577Y-106817219D01*
X53343958Y-107817219D02*
X52867768Y-107817219D01*
X52867768Y-107817219D02*
X52867768Y-106817219D01*
X53629673Y-107531504D02*
X54105863Y-107531504D01*
X53534435Y-107817219D02*
X53867768Y-106817219D01*
X53867768Y-106817219D02*
X54201101Y-107817219D01*
X55105863Y-107817219D02*
X54772530Y-107341028D01*
X54534435Y-107817219D02*
X54534435Y-106817219D01*
X54534435Y-106817219D02*
X54915387Y-106817219D01*
X54915387Y-106817219D02*
X55010625Y-106864838D01*
X55010625Y-106864838D02*
X55058244Y-106912457D01*
X55058244Y-106912457D02*
X55105863Y-107007695D01*
X55105863Y-107007695D02*
X55105863Y-107150552D01*
X55105863Y-107150552D02*
X55058244Y-107245790D01*
X55058244Y-107245790D02*
X55010625Y-107293409D01*
X55010625Y-107293409D02*
X54915387Y-107341028D01*
X54915387Y-107341028D02*
X54534435Y-107341028D01*
D10*
X59874999Y-53404633D02*
X59641666Y-53071300D01*
X59474999Y-53404633D02*
X59474999Y-52704633D01*
X59474999Y-52704633D02*
X59741666Y-52704633D01*
X59741666Y-52704633D02*
X59808333Y-52737966D01*
X59808333Y-52737966D02*
X59841666Y-52771300D01*
X59841666Y-52771300D02*
X59874999Y-52837966D01*
X59874999Y-52837966D02*
X59874999Y-52937966D01*
X59874999Y-52937966D02*
X59841666Y-53004633D01*
X59841666Y-53004633D02*
X59808333Y-53037966D01*
X59808333Y-53037966D02*
X59741666Y-53071300D01*
X59741666Y-53071300D02*
X59474999Y-53071300D01*
X60541666Y-53404633D02*
X60141666Y-53404633D01*
X60341666Y-53404633D02*
X60341666Y-52704633D01*
X60341666Y-52704633D02*
X60274999Y-52804633D01*
X60274999Y-52804633D02*
X60208333Y-52871300D01*
X60208333Y-52871300D02*
X60141666Y-52904633D01*
X61208333Y-53404633D02*
X60808333Y-53404633D01*
X61008333Y-53404633D02*
X61008333Y-52704633D01*
X61008333Y-52704633D02*
X60941666Y-52804633D01*
X60941666Y-52804633D02*
X60875000Y-52871300D01*
X60875000Y-52871300D02*
X60808333Y-52904633D01*
D12*
X62759833Y-93417819D02*
X62426500Y-92941628D01*
X62188405Y-93417819D02*
X62188405Y-92417819D01*
X62188405Y-92417819D02*
X62569357Y-92417819D01*
X62569357Y-92417819D02*
X62664595Y-92465438D01*
X62664595Y-92465438D02*
X62712214Y-92513057D01*
X62712214Y-92513057D02*
X62759833Y-92608295D01*
X62759833Y-92608295D02*
X62759833Y-92751152D01*
X62759833Y-92751152D02*
X62712214Y-92846390D01*
X62712214Y-92846390D02*
X62664595Y-92894009D01*
X62664595Y-92894009D02*
X62569357Y-92941628D01*
X62569357Y-92941628D02*
X62188405Y-92941628D01*
X63331262Y-92846390D02*
X63236024Y-92798771D01*
X63236024Y-92798771D02*
X63188405Y-92751152D01*
X63188405Y-92751152D02*
X63140786Y-92655914D01*
X63140786Y-92655914D02*
X63140786Y-92608295D01*
X63140786Y-92608295D02*
X63188405Y-92513057D01*
X63188405Y-92513057D02*
X63236024Y-92465438D01*
X63236024Y-92465438D02*
X63331262Y-92417819D01*
X63331262Y-92417819D02*
X63521738Y-92417819D01*
X63521738Y-92417819D02*
X63616976Y-92465438D01*
X63616976Y-92465438D02*
X63664595Y-92513057D01*
X63664595Y-92513057D02*
X63712214Y-92608295D01*
X63712214Y-92608295D02*
X63712214Y-92655914D01*
X63712214Y-92655914D02*
X63664595Y-92751152D01*
X63664595Y-92751152D02*
X63616976Y-92798771D01*
X63616976Y-92798771D02*
X63521738Y-92846390D01*
X63521738Y-92846390D02*
X63331262Y-92846390D01*
X63331262Y-92846390D02*
X63236024Y-92894009D01*
X63236024Y-92894009D02*
X63188405Y-92941628D01*
X63188405Y-92941628D02*
X63140786Y-93036866D01*
X63140786Y-93036866D02*
X63140786Y-93227342D01*
X63140786Y-93227342D02*
X63188405Y-93322580D01*
X63188405Y-93322580D02*
X63236024Y-93370200D01*
X63236024Y-93370200D02*
X63331262Y-93417819D01*
X63331262Y-93417819D02*
X63521738Y-93417819D01*
X63521738Y-93417819D02*
X63616976Y-93370200D01*
X63616976Y-93370200D02*
X63664595Y-93322580D01*
X63664595Y-93322580D02*
X63712214Y-93227342D01*
X63712214Y-93227342D02*
X63712214Y-93036866D01*
X63712214Y-93036866D02*
X63664595Y-92941628D01*
X63664595Y-92941628D02*
X63616976Y-92894009D01*
X63616976Y-92894009D02*
X63521738Y-92846390D01*
D10*
X48905333Y-89726633D02*
X48672000Y-89393300D01*
X48505333Y-89726633D02*
X48505333Y-89026633D01*
X48505333Y-89026633D02*
X48772000Y-89026633D01*
X48772000Y-89026633D02*
X48838667Y-89059966D01*
X48838667Y-89059966D02*
X48872000Y-89093300D01*
X48872000Y-89093300D02*
X48905333Y-89159966D01*
X48905333Y-89159966D02*
X48905333Y-89259966D01*
X48905333Y-89259966D02*
X48872000Y-89326633D01*
X48872000Y-89326633D02*
X48838667Y-89359966D01*
X48838667Y-89359966D02*
X48772000Y-89393300D01*
X48772000Y-89393300D02*
X48505333Y-89393300D01*
X49172000Y-89093300D02*
X49205333Y-89059966D01*
X49205333Y-89059966D02*
X49272000Y-89026633D01*
X49272000Y-89026633D02*
X49438667Y-89026633D01*
X49438667Y-89026633D02*
X49505333Y-89059966D01*
X49505333Y-89059966D02*
X49538667Y-89093300D01*
X49538667Y-89093300D02*
X49572000Y-89159966D01*
X49572000Y-89159966D02*
X49572000Y-89226633D01*
X49572000Y-89226633D02*
X49538667Y-89326633D01*
X49538667Y-89326633D02*
X49138667Y-89726633D01*
X49138667Y-89726633D02*
X49572000Y-89726633D01*
D12*
X61468095Y-60414819D02*
X61468095Y-61224342D01*
X61468095Y-61224342D02*
X61515714Y-61319580D01*
X61515714Y-61319580D02*
X61563333Y-61367200D01*
X61563333Y-61367200D02*
X61658571Y-61414819D01*
X61658571Y-61414819D02*
X61849047Y-61414819D01*
X61849047Y-61414819D02*
X61944285Y-61367200D01*
X61944285Y-61367200D02*
X61991904Y-61319580D01*
X61991904Y-61319580D02*
X62039523Y-61224342D01*
X62039523Y-61224342D02*
X62039523Y-60414819D01*
X62944285Y-60748152D02*
X62944285Y-61414819D01*
X62706190Y-60367200D02*
X62468095Y-61081485D01*
X62468095Y-61081485D02*
X63087142Y-61081485D01*
D10*
X58230633Y-60775000D02*
X57897300Y-61008333D01*
X58230633Y-61175000D02*
X57530633Y-61175000D01*
X57530633Y-61175000D02*
X57530633Y-60908333D01*
X57530633Y-60908333D02*
X57563966Y-60841667D01*
X57563966Y-60841667D02*
X57597300Y-60808333D01*
X57597300Y-60808333D02*
X57663966Y-60775000D01*
X57663966Y-60775000D02*
X57763966Y-60775000D01*
X57763966Y-60775000D02*
X57830633Y-60808333D01*
X57830633Y-60808333D02*
X57863966Y-60841667D01*
X57863966Y-60841667D02*
X57897300Y-60908333D01*
X57897300Y-60908333D02*
X57897300Y-61175000D01*
X58230633Y-60108333D02*
X58230633Y-60508333D01*
X58230633Y-60308333D02*
X57530633Y-60308333D01*
X57530633Y-60308333D02*
X57630633Y-60375000D01*
X57630633Y-60375000D02*
X57697300Y-60441667D01*
X57697300Y-60441667D02*
X57730633Y-60508333D01*
X57530633Y-59675000D02*
X57530633Y-59608333D01*
X57530633Y-59608333D02*
X57563966Y-59541666D01*
X57563966Y-59541666D02*
X57597300Y-59508333D01*
X57597300Y-59508333D02*
X57663966Y-59475000D01*
X57663966Y-59475000D02*
X57797300Y-59441666D01*
X57797300Y-59441666D02*
X57963966Y-59441666D01*
X57963966Y-59441666D02*
X58097300Y-59475000D01*
X58097300Y-59475000D02*
X58163966Y-59508333D01*
X58163966Y-59508333D02*
X58197300Y-59541666D01*
X58197300Y-59541666D02*
X58230633Y-59608333D01*
X58230633Y-59608333D02*
X58230633Y-59675000D01*
X58230633Y-59675000D02*
X58197300Y-59741666D01*
X58197300Y-59741666D02*
X58163966Y-59775000D01*
X58163966Y-59775000D02*
X58097300Y-59808333D01*
X58097300Y-59808333D02*
X57963966Y-59841666D01*
X57963966Y-59841666D02*
X57797300Y-59841666D01*
X57797300Y-59841666D02*
X57663966Y-59808333D01*
X57663966Y-59808333D02*
X57597300Y-59775000D01*
X57597300Y-59775000D02*
X57563966Y-59741666D01*
X57563966Y-59741666D02*
X57530633Y-59675000D01*
X60587333Y-99351633D02*
X60354000Y-99018300D01*
X60187333Y-99351633D02*
X60187333Y-98651633D01*
X60187333Y-98651633D02*
X60454000Y-98651633D01*
X60454000Y-98651633D02*
X60520667Y-98684966D01*
X60520667Y-98684966D02*
X60554000Y-98718300D01*
X60554000Y-98718300D02*
X60587333Y-98784966D01*
X60587333Y-98784966D02*
X60587333Y-98884966D01*
X60587333Y-98884966D02*
X60554000Y-98951633D01*
X60554000Y-98951633D02*
X60520667Y-98984966D01*
X60520667Y-98984966D02*
X60454000Y-99018300D01*
X60454000Y-99018300D02*
X60187333Y-99018300D01*
X61220667Y-98651633D02*
X60887333Y-98651633D01*
X60887333Y-98651633D02*
X60854000Y-98984966D01*
X60854000Y-98984966D02*
X60887333Y-98951633D01*
X60887333Y-98951633D02*
X60954000Y-98918300D01*
X60954000Y-98918300D02*
X61120667Y-98918300D01*
X61120667Y-98918300D02*
X61187333Y-98951633D01*
X61187333Y-98951633D02*
X61220667Y-98984966D01*
X61220667Y-98984966D02*
X61254000Y-99051633D01*
X61254000Y-99051633D02*
X61254000Y-99218300D01*
X61254000Y-99218300D02*
X61220667Y-99284966D01*
X61220667Y-99284966D02*
X61187333Y-99318300D01*
X61187333Y-99318300D02*
X61120667Y-99351633D01*
X61120667Y-99351633D02*
X60954000Y-99351633D01*
X60954000Y-99351633D02*
X60887333Y-99318300D01*
X60887333Y-99318300D02*
X60854000Y-99284966D01*
X62776333Y-86992966D02*
X62743000Y-87026300D01*
X62743000Y-87026300D02*
X62643000Y-87059633D01*
X62643000Y-87059633D02*
X62576333Y-87059633D01*
X62576333Y-87059633D02*
X62476333Y-87026300D01*
X62476333Y-87026300D02*
X62409667Y-86959633D01*
X62409667Y-86959633D02*
X62376333Y-86892966D01*
X62376333Y-86892966D02*
X62343000Y-86759633D01*
X62343000Y-86759633D02*
X62343000Y-86659633D01*
X62343000Y-86659633D02*
X62376333Y-86526300D01*
X62376333Y-86526300D02*
X62409667Y-86459633D01*
X62409667Y-86459633D02*
X62476333Y-86392966D01*
X62476333Y-86392966D02*
X62576333Y-86359633D01*
X62576333Y-86359633D02*
X62643000Y-86359633D01*
X62643000Y-86359633D02*
X62743000Y-86392966D01*
X62743000Y-86392966D02*
X62776333Y-86426300D01*
X63409667Y-86359633D02*
X63076333Y-86359633D01*
X63076333Y-86359633D02*
X63043000Y-86692966D01*
X63043000Y-86692966D02*
X63076333Y-86659633D01*
X63076333Y-86659633D02*
X63143000Y-86626300D01*
X63143000Y-86626300D02*
X63309667Y-86626300D01*
X63309667Y-86626300D02*
X63376333Y-86659633D01*
X63376333Y-86659633D02*
X63409667Y-86692966D01*
X63409667Y-86692966D02*
X63443000Y-86759633D01*
X63443000Y-86759633D02*
X63443000Y-86926300D01*
X63443000Y-86926300D02*
X63409667Y-86992966D01*
X63409667Y-86992966D02*
X63376333Y-87026300D01*
X63376333Y-87026300D02*
X63309667Y-87059633D01*
X63309667Y-87059633D02*
X63143000Y-87059633D01*
X63143000Y-87059633D02*
X63076333Y-87026300D01*
X63076333Y-87026300D02*
X63043000Y-86992966D01*
X69860333Y-82928966D02*
X69827000Y-82962300D01*
X69827000Y-82962300D02*
X69727000Y-82995633D01*
X69727000Y-82995633D02*
X69660333Y-82995633D01*
X69660333Y-82995633D02*
X69560333Y-82962300D01*
X69560333Y-82962300D02*
X69493667Y-82895633D01*
X69493667Y-82895633D02*
X69460333Y-82828966D01*
X69460333Y-82828966D02*
X69427000Y-82695633D01*
X69427000Y-82695633D02*
X69427000Y-82595633D01*
X69427000Y-82595633D02*
X69460333Y-82462300D01*
X69460333Y-82462300D02*
X69493667Y-82395633D01*
X69493667Y-82395633D02*
X69560333Y-82328966D01*
X69560333Y-82328966D02*
X69660333Y-82295633D01*
X69660333Y-82295633D02*
X69727000Y-82295633D01*
X69727000Y-82295633D02*
X69827000Y-82328966D01*
X69827000Y-82328966D02*
X69860333Y-82362300D01*
X70527000Y-82995633D02*
X70127000Y-82995633D01*
X70327000Y-82995633D02*
X70327000Y-82295633D01*
X70327000Y-82295633D02*
X70260333Y-82395633D01*
X70260333Y-82395633D02*
X70193667Y-82462300D01*
X70193667Y-82462300D02*
X70127000Y-82495633D01*
X59373633Y-87617666D02*
X59040300Y-87850999D01*
X59373633Y-88017666D02*
X58673633Y-88017666D01*
X58673633Y-88017666D02*
X58673633Y-87750999D01*
X58673633Y-87750999D02*
X58706966Y-87684333D01*
X58706966Y-87684333D02*
X58740300Y-87650999D01*
X58740300Y-87650999D02*
X58806966Y-87617666D01*
X58806966Y-87617666D02*
X58906966Y-87617666D01*
X58906966Y-87617666D02*
X58973633Y-87650999D01*
X58973633Y-87650999D02*
X59006966Y-87684333D01*
X59006966Y-87684333D02*
X59040300Y-87750999D01*
X59040300Y-87750999D02*
X59040300Y-88017666D01*
X59373633Y-86950999D02*
X59373633Y-87350999D01*
X59373633Y-87150999D02*
X58673633Y-87150999D01*
X58673633Y-87150999D02*
X58773633Y-87217666D01*
X58773633Y-87217666D02*
X58840300Y-87284333D01*
X58840300Y-87284333D02*
X58873633Y-87350999D01*
X64397333Y-99351633D02*
X64164000Y-99018300D01*
X63997333Y-99351633D02*
X63997333Y-98651633D01*
X63997333Y-98651633D02*
X64264000Y-98651633D01*
X64264000Y-98651633D02*
X64330667Y-98684966D01*
X64330667Y-98684966D02*
X64364000Y-98718300D01*
X64364000Y-98718300D02*
X64397333Y-98784966D01*
X64397333Y-98784966D02*
X64397333Y-98884966D01*
X64397333Y-98884966D02*
X64364000Y-98951633D01*
X64364000Y-98951633D02*
X64330667Y-98984966D01*
X64330667Y-98984966D02*
X64264000Y-99018300D01*
X64264000Y-99018300D02*
X63997333Y-99018300D01*
X64997333Y-98651633D02*
X64864000Y-98651633D01*
X64864000Y-98651633D02*
X64797333Y-98684966D01*
X64797333Y-98684966D02*
X64764000Y-98718300D01*
X64764000Y-98718300D02*
X64697333Y-98818300D01*
X64697333Y-98818300D02*
X64664000Y-98951633D01*
X64664000Y-98951633D02*
X64664000Y-99218300D01*
X64664000Y-99218300D02*
X64697333Y-99284966D01*
X64697333Y-99284966D02*
X64730667Y-99318300D01*
X64730667Y-99318300D02*
X64797333Y-99351633D01*
X64797333Y-99351633D02*
X64930667Y-99351633D01*
X64930667Y-99351633D02*
X64997333Y-99318300D01*
X64997333Y-99318300D02*
X65030667Y-99284966D01*
X65030667Y-99284966D02*
X65064000Y-99218300D01*
X65064000Y-99218300D02*
X65064000Y-99051633D01*
X65064000Y-99051633D02*
X65030667Y-98984966D01*
X65030667Y-98984966D02*
X64997333Y-98951633D01*
X64997333Y-98951633D02*
X64930667Y-98918300D01*
X64930667Y-98918300D02*
X64797333Y-98918300D01*
X64797333Y-98918300D02*
X64730667Y-98951633D01*
X64730667Y-98951633D02*
X64697333Y-98984966D01*
X64697333Y-98984966D02*
X64664000Y-99051633D01*
X74053333Y-61278633D02*
X73820000Y-60945300D01*
X73653333Y-61278633D02*
X73653333Y-60578633D01*
X73653333Y-60578633D02*
X73920000Y-60578633D01*
X73920000Y-60578633D02*
X73986667Y-60611966D01*
X73986667Y-60611966D02*
X74020000Y-60645300D01*
X74020000Y-60645300D02*
X74053333Y-60711966D01*
X74053333Y-60711966D02*
X74053333Y-60811966D01*
X74053333Y-60811966D02*
X74020000Y-60878633D01*
X74020000Y-60878633D02*
X73986667Y-60911966D01*
X73986667Y-60911966D02*
X73920000Y-60945300D01*
X73920000Y-60945300D02*
X73653333Y-60945300D01*
X74386667Y-61278633D02*
X74520000Y-61278633D01*
X74520000Y-61278633D02*
X74586667Y-61245300D01*
X74586667Y-61245300D02*
X74620000Y-61211966D01*
X74620000Y-61211966D02*
X74686667Y-61111966D01*
X74686667Y-61111966D02*
X74720000Y-60978633D01*
X74720000Y-60978633D02*
X74720000Y-60711966D01*
X74720000Y-60711966D02*
X74686667Y-60645300D01*
X74686667Y-60645300D02*
X74653333Y-60611966D01*
X74653333Y-60611966D02*
X74586667Y-60578633D01*
X74586667Y-60578633D02*
X74453333Y-60578633D01*
X74453333Y-60578633D02*
X74386667Y-60611966D01*
X74386667Y-60611966D02*
X74353333Y-60645300D01*
X74353333Y-60645300D02*
X74320000Y-60711966D01*
X74320000Y-60711966D02*
X74320000Y-60878633D01*
X74320000Y-60878633D02*
X74353333Y-60945300D01*
X74353333Y-60945300D02*
X74386667Y-60978633D01*
X74386667Y-60978633D02*
X74453333Y-61011966D01*
X74453333Y-61011966D02*
X74586667Y-61011966D01*
X74586667Y-61011966D02*
X74653333Y-60978633D01*
X74653333Y-60978633D02*
X74686667Y-60945300D01*
X74686667Y-60945300D02*
X74720000Y-60878633D01*
D12*
X70358095Y-89116819D02*
X70358095Y-89926342D01*
X70358095Y-89926342D02*
X70405714Y-90021580D01*
X70405714Y-90021580D02*
X70453333Y-90069200D01*
X70453333Y-90069200D02*
X70548571Y-90116819D01*
X70548571Y-90116819D02*
X70739047Y-90116819D01*
X70739047Y-90116819D02*
X70834285Y-90069200D01*
X70834285Y-90069200D02*
X70881904Y-90021580D01*
X70881904Y-90021580D02*
X70929523Y-89926342D01*
X70929523Y-89926342D02*
X70929523Y-89116819D01*
X71310476Y-89116819D02*
X71929523Y-89116819D01*
X71929523Y-89116819D02*
X71596190Y-89497771D01*
X71596190Y-89497771D02*
X71739047Y-89497771D01*
X71739047Y-89497771D02*
X71834285Y-89545390D01*
X71834285Y-89545390D02*
X71881904Y-89593009D01*
X71881904Y-89593009D02*
X71929523Y-89688247D01*
X71929523Y-89688247D02*
X71929523Y-89926342D01*
X71929523Y-89926342D02*
X71881904Y-90021580D01*
X71881904Y-90021580D02*
X71834285Y-90069200D01*
X71834285Y-90069200D02*
X71739047Y-90116819D01*
X71739047Y-90116819D02*
X71453333Y-90116819D01*
X71453333Y-90116819D02*
X71358095Y-90069200D01*
X71358095Y-90069200D02*
X71310476Y-90021580D01*
D10*
X71636333Y-61278633D02*
X71403000Y-60945300D01*
X71236333Y-61278633D02*
X71236333Y-60578633D01*
X71236333Y-60578633D02*
X71503000Y-60578633D01*
X71503000Y-60578633D02*
X71569667Y-60611966D01*
X71569667Y-60611966D02*
X71603000Y-60645300D01*
X71603000Y-60645300D02*
X71636333Y-60711966D01*
X71636333Y-60711966D02*
X71636333Y-60811966D01*
X71636333Y-60811966D02*
X71603000Y-60878633D01*
X71603000Y-60878633D02*
X71569667Y-60911966D01*
X71569667Y-60911966D02*
X71503000Y-60945300D01*
X71503000Y-60945300D02*
X71236333Y-60945300D01*
X71869667Y-60578633D02*
X72336333Y-60578633D01*
X72336333Y-60578633D02*
X72036333Y-61278633D01*
X51953333Y-82928966D02*
X51920000Y-82962300D01*
X51920000Y-82962300D02*
X51820000Y-82995633D01*
X51820000Y-82995633D02*
X51753333Y-82995633D01*
X51753333Y-82995633D02*
X51653333Y-82962300D01*
X51653333Y-82962300D02*
X51586667Y-82895633D01*
X51586667Y-82895633D02*
X51553333Y-82828966D01*
X51553333Y-82828966D02*
X51520000Y-82695633D01*
X51520000Y-82695633D02*
X51520000Y-82595633D01*
X51520000Y-82595633D02*
X51553333Y-82462300D01*
X51553333Y-82462300D02*
X51586667Y-82395633D01*
X51586667Y-82395633D02*
X51653333Y-82328966D01*
X51653333Y-82328966D02*
X51753333Y-82295633D01*
X51753333Y-82295633D02*
X51820000Y-82295633D01*
X51820000Y-82295633D02*
X51920000Y-82328966D01*
X51920000Y-82328966D02*
X51953333Y-82362300D01*
X52220000Y-82362300D02*
X52253333Y-82328966D01*
X52253333Y-82328966D02*
X52320000Y-82295633D01*
X52320000Y-82295633D02*
X52486667Y-82295633D01*
X52486667Y-82295633D02*
X52553333Y-82328966D01*
X52553333Y-82328966D02*
X52586667Y-82362300D01*
X52586667Y-82362300D02*
X52620000Y-82428966D01*
X52620000Y-82428966D02*
X52620000Y-82495633D01*
X52620000Y-82495633D02*
X52586667Y-82595633D01*
X52586667Y-82595633D02*
X52186667Y-82995633D01*
X52186667Y-82995633D02*
X52620000Y-82995633D01*
D12*
X52578095Y-89116819D02*
X52578095Y-89926342D01*
X52578095Y-89926342D02*
X52625714Y-90021580D01*
X52625714Y-90021580D02*
X52673333Y-90069200D01*
X52673333Y-90069200D02*
X52768571Y-90116819D01*
X52768571Y-90116819D02*
X52959047Y-90116819D01*
X52959047Y-90116819D02*
X53054285Y-90069200D01*
X53054285Y-90069200D02*
X53101904Y-90021580D01*
X53101904Y-90021580D02*
X53149523Y-89926342D01*
X53149523Y-89926342D02*
X53149523Y-89116819D01*
X54149523Y-90116819D02*
X53578095Y-90116819D01*
X53863809Y-90116819D02*
X53863809Y-89116819D01*
X53863809Y-89116819D02*
X53768571Y-89259676D01*
X53768571Y-89259676D02*
X53673333Y-89354914D01*
X53673333Y-89354914D02*
X53578095Y-89402533D01*
D10*
X68323966Y-54825666D02*
X68357300Y-54858999D01*
X68357300Y-54858999D02*
X68390633Y-54958999D01*
X68390633Y-54958999D02*
X68390633Y-55025666D01*
X68390633Y-55025666D02*
X68357300Y-55125666D01*
X68357300Y-55125666D02*
X68290633Y-55192333D01*
X68290633Y-55192333D02*
X68223966Y-55225666D01*
X68223966Y-55225666D02*
X68090633Y-55258999D01*
X68090633Y-55258999D02*
X67990633Y-55258999D01*
X67990633Y-55258999D02*
X67857300Y-55225666D01*
X67857300Y-55225666D02*
X67790633Y-55192333D01*
X67790633Y-55192333D02*
X67723966Y-55125666D01*
X67723966Y-55125666D02*
X67690633Y-55025666D01*
X67690633Y-55025666D02*
X67690633Y-54958999D01*
X67690633Y-54958999D02*
X67723966Y-54858999D01*
X67723966Y-54858999D02*
X67757300Y-54825666D01*
X67690633Y-54592333D02*
X67690633Y-54158999D01*
X67690633Y-54158999D02*
X67957300Y-54392333D01*
X67957300Y-54392333D02*
X67957300Y-54292333D01*
X67957300Y-54292333D02*
X67990633Y-54225666D01*
X67990633Y-54225666D02*
X68023966Y-54192333D01*
X68023966Y-54192333D02*
X68090633Y-54158999D01*
X68090633Y-54158999D02*
X68257300Y-54158999D01*
X68257300Y-54158999D02*
X68323966Y-54192333D01*
X68323966Y-54192333D02*
X68357300Y-54225666D01*
X68357300Y-54225666D02*
X68390633Y-54292333D01*
X68390633Y-54292333D02*
X68390633Y-54492333D01*
X68390633Y-54492333D02*
X68357300Y-54558999D01*
X68357300Y-54558999D02*
X68323966Y-54592333D01*
X59373633Y-85077666D02*
X59040300Y-85310999D01*
X59373633Y-85477666D02*
X58673633Y-85477666D01*
X58673633Y-85477666D02*
X58673633Y-85210999D01*
X58673633Y-85210999D02*
X58706966Y-85144333D01*
X58706966Y-85144333D02*
X58740300Y-85110999D01*
X58740300Y-85110999D02*
X58806966Y-85077666D01*
X58806966Y-85077666D02*
X58906966Y-85077666D01*
X58906966Y-85077666D02*
X58973633Y-85110999D01*
X58973633Y-85110999D02*
X59006966Y-85144333D01*
X59006966Y-85144333D02*
X59040300Y-85210999D01*
X59040300Y-85210999D02*
X59040300Y-85477666D01*
X58673633Y-84844333D02*
X58673633Y-84410999D01*
X58673633Y-84410999D02*
X58940300Y-84644333D01*
X58940300Y-84644333D02*
X58940300Y-84544333D01*
X58940300Y-84544333D02*
X58973633Y-84477666D01*
X58973633Y-84477666D02*
X59006966Y-84444333D01*
X59006966Y-84444333D02*
X59073633Y-84410999D01*
X59073633Y-84410999D02*
X59240300Y-84410999D01*
X59240300Y-84410999D02*
X59306966Y-84444333D01*
X59306966Y-84444333D02*
X59340300Y-84477666D01*
X59340300Y-84477666D02*
X59373633Y-84544333D01*
X59373633Y-84544333D02*
X59373633Y-84744333D01*
X59373633Y-84744333D02*
X59340300Y-84810999D01*
X59340300Y-84810999D02*
X59306966Y-84844333D01*
X73698333Y-91183966D02*
X73665000Y-91217300D01*
X73665000Y-91217300D02*
X73565000Y-91250633D01*
X73565000Y-91250633D02*
X73498333Y-91250633D01*
X73498333Y-91250633D02*
X73398333Y-91217300D01*
X73398333Y-91217300D02*
X73331667Y-91150633D01*
X73331667Y-91150633D02*
X73298333Y-91083966D01*
X73298333Y-91083966D02*
X73265000Y-90950633D01*
X73265000Y-90950633D02*
X73265000Y-90850633D01*
X73265000Y-90850633D02*
X73298333Y-90717300D01*
X73298333Y-90717300D02*
X73331667Y-90650633D01*
X73331667Y-90650633D02*
X73398333Y-90583966D01*
X73398333Y-90583966D02*
X73498333Y-90550633D01*
X73498333Y-90550633D02*
X73565000Y-90550633D01*
X73565000Y-90550633D02*
X73665000Y-90583966D01*
X73665000Y-90583966D02*
X73698333Y-90617300D01*
X74298333Y-90550633D02*
X74165000Y-90550633D01*
X74165000Y-90550633D02*
X74098333Y-90583966D01*
X74098333Y-90583966D02*
X74065000Y-90617300D01*
X74065000Y-90617300D02*
X73998333Y-90717300D01*
X73998333Y-90717300D02*
X73965000Y-90850633D01*
X73965000Y-90850633D02*
X73965000Y-91117300D01*
X73965000Y-91117300D02*
X73998333Y-91183966D01*
X73998333Y-91183966D02*
X74031667Y-91217300D01*
X74031667Y-91217300D02*
X74098333Y-91250633D01*
X74098333Y-91250633D02*
X74231667Y-91250633D01*
X74231667Y-91250633D02*
X74298333Y-91217300D01*
X74298333Y-91217300D02*
X74331667Y-91183966D01*
X74331667Y-91183966D02*
X74365000Y-91117300D01*
X74365000Y-91117300D02*
X74365000Y-90950633D01*
X74365000Y-90950633D02*
X74331667Y-90883966D01*
X74331667Y-90883966D02*
X74298333Y-90850633D01*
X74298333Y-90850633D02*
X74231667Y-90817300D01*
X74231667Y-90817300D02*
X74098333Y-90817300D01*
X74098333Y-90817300D02*
X74031667Y-90850633D01*
X74031667Y-90850633D02*
X73998333Y-90883966D01*
X73998333Y-90883966D02*
X73965000Y-90950633D01*
X48905333Y-83503633D02*
X48672000Y-83170300D01*
X48505333Y-83503633D02*
X48505333Y-82803633D01*
X48505333Y-82803633D02*
X48772000Y-82803633D01*
X48772000Y-82803633D02*
X48838667Y-82836966D01*
X48838667Y-82836966D02*
X48872000Y-82870300D01*
X48872000Y-82870300D02*
X48905333Y-82936966D01*
X48905333Y-82936966D02*
X48905333Y-83036966D01*
X48905333Y-83036966D02*
X48872000Y-83103633D01*
X48872000Y-83103633D02*
X48838667Y-83136966D01*
X48838667Y-83136966D02*
X48772000Y-83170300D01*
X48772000Y-83170300D02*
X48505333Y-83170300D01*
X49505333Y-83036966D02*
X49505333Y-83503633D01*
X49338667Y-82770300D02*
X49172000Y-83270300D01*
X49172000Y-83270300D02*
X49605333Y-83270300D01*
X62804333Y-84579966D02*
X62771000Y-84613300D01*
X62771000Y-84613300D02*
X62671000Y-84646633D01*
X62671000Y-84646633D02*
X62604333Y-84646633D01*
X62604333Y-84646633D02*
X62504333Y-84613300D01*
X62504333Y-84613300D02*
X62437667Y-84546633D01*
X62437667Y-84546633D02*
X62404333Y-84479966D01*
X62404333Y-84479966D02*
X62371000Y-84346633D01*
X62371000Y-84346633D02*
X62371000Y-84246633D01*
X62371000Y-84246633D02*
X62404333Y-84113300D01*
X62404333Y-84113300D02*
X62437667Y-84046633D01*
X62437667Y-84046633D02*
X62504333Y-83979966D01*
X62504333Y-83979966D02*
X62604333Y-83946633D01*
X62604333Y-83946633D02*
X62671000Y-83946633D01*
X62671000Y-83946633D02*
X62771000Y-83979966D01*
X62771000Y-83979966D02*
X62804333Y-84013300D01*
X63404333Y-84179966D02*
X63404333Y-84646633D01*
X63237667Y-83913300D02*
X63071000Y-84413300D01*
X63071000Y-84413300D02*
X63504333Y-84413300D01*
X57922333Y-54480966D02*
X57889000Y-54514300D01*
X57889000Y-54514300D02*
X57789000Y-54547633D01*
X57789000Y-54547633D02*
X57722333Y-54547633D01*
X57722333Y-54547633D02*
X57622333Y-54514300D01*
X57622333Y-54514300D02*
X57555667Y-54447633D01*
X57555667Y-54447633D02*
X57522333Y-54380966D01*
X57522333Y-54380966D02*
X57489000Y-54247633D01*
X57489000Y-54247633D02*
X57489000Y-54147633D01*
X57489000Y-54147633D02*
X57522333Y-54014300D01*
X57522333Y-54014300D02*
X57555667Y-53947633D01*
X57555667Y-53947633D02*
X57622333Y-53880966D01*
X57622333Y-53880966D02*
X57722333Y-53847633D01*
X57722333Y-53847633D02*
X57789000Y-53847633D01*
X57789000Y-53847633D02*
X57889000Y-53880966D01*
X57889000Y-53880966D02*
X57922333Y-53914300D01*
X58155667Y-53847633D02*
X58622333Y-53847633D01*
X58622333Y-53847633D02*
X58322333Y-54547633D01*
D15*
%TO.C,R11*%
X63080436Y-52351000D02*
X63534564Y-52351000D01*
X63080436Y-53821000D02*
X63534564Y-53821000D01*
%TO.C,R8*%
X63153564Y-92048000D02*
X62699436Y-92048000D01*
X63153564Y-90578000D02*
X62699436Y-90578000D01*
%TO.C,R2*%
X48515000Y-87783641D02*
X48515000Y-87476359D01*
X49275000Y-87783641D02*
X49275000Y-87476359D01*
%TO.C,U4*%
X62295000Y-54705000D02*
X60345000Y-54705000D01*
X62295000Y-54705000D02*
X64245000Y-54705000D01*
X62295000Y-59825000D02*
X60345000Y-59825000D01*
X62295000Y-59825000D02*
X64245000Y-59825000D01*
X59595000Y-54800000D02*
X59355000Y-54470000D01*
X59835000Y-54470000D01*
X59595000Y-54800000D01*
G36*
X59595000Y-54800000D02*
G01*
X59355000Y-54470000D01*
X59835000Y-54470000D01*
X59595000Y-54800000D01*
G37*
%TO.C,R10*%
X57532000Y-58321641D02*
X57532000Y-58014359D01*
X58292000Y-58321641D02*
X58292000Y-58014359D01*
%TO.C,OUTPUT1*%
X73600000Y-46990000D02*
X73600000Y-57210000D01*
X73600000Y-46990000D02*
X76260000Y-46990000D01*
X73600000Y-57210000D02*
X76260000Y-57210000D01*
X74930000Y-44390000D02*
X76260000Y-44390000D01*
X76260000Y-44390000D02*
X76260000Y-45720000D01*
X76260000Y-46990000D02*
X76260000Y-57210000D01*
%TO.C,R5*%
X60550359Y-99823000D02*
X60857641Y-99823000D01*
X60550359Y-100583000D02*
X60857641Y-100583000D01*
%TO.C,C5*%
X62785164Y-87397000D02*
X63000836Y-87397000D01*
X62785164Y-88117000D02*
X63000836Y-88117000D01*
%TO.C,C1*%
X72144836Y-82317000D02*
X71929164Y-82317000D01*
X72144836Y-83037000D02*
X71929164Y-83037000D01*
%TO.C,R1*%
X57405000Y-87656641D02*
X57405000Y-87349359D01*
X58165000Y-87656641D02*
X58165000Y-87349359D01*
%TO.C,INPUT1*%
X48200000Y-46990000D02*
X48200000Y-57210000D01*
X48200000Y-46990000D02*
X50860000Y-46990000D01*
X48200000Y-57210000D02*
X50860000Y-57210000D01*
X49530000Y-44390000D02*
X50860000Y-44390000D01*
X50860000Y-44390000D02*
X50860000Y-45720000D01*
X50860000Y-46990000D02*
X50860000Y-57210000D01*
%TO.C,R6*%
X64360359Y-99823000D02*
X64667641Y-99823000D01*
X64360359Y-100583000D02*
X64667641Y-100583000D01*
%TO.C,RV2*%
X64970000Y-73425000D02*
X64970000Y-68705000D01*
X64980000Y-64895000D02*
X64980000Y-61835000D01*
X66160000Y-73425000D02*
X64980000Y-73425000D01*
X69060000Y-73425000D02*
X68530000Y-73425000D01*
X71510000Y-73425000D02*
X70680000Y-73425000D01*
X74720000Y-61835000D02*
X64980000Y-61835000D01*
X74720000Y-64895000D02*
X74720000Y-61835000D01*
X74720000Y-73425000D02*
X73230000Y-73425000D01*
X74720000Y-73425000D02*
X74720000Y-68705000D01*
%TO.C,R9*%
X74014359Y-59310000D02*
X74321641Y-59310000D01*
X74014359Y-60070000D02*
X74321641Y-60070000D01*
%TO.C,U3*%
X71055000Y-83685000D02*
X69105000Y-83685000D01*
X71055000Y-83685000D02*
X73005000Y-83685000D01*
X71055000Y-88805000D02*
X69105000Y-88805000D01*
X71055000Y-88805000D02*
X73005000Y-88805000D01*
X68355000Y-83780000D02*
X68115000Y-83450000D01*
X68595000Y-83450000D01*
X68355000Y-83780000D01*
G36*
X68355000Y-83780000D02*
G01*
X68115000Y-83450000D01*
X68595000Y-83450000D01*
X68355000Y-83780000D01*
G37*
%TO.C,R7*%
X71599359Y-59310000D02*
X71906641Y-59310000D01*
X71599359Y-60070000D02*
X71906641Y-60070000D01*
%TO.C,C2*%
X54364836Y-82317000D02*
X54149164Y-82317000D01*
X54364836Y-83037000D02*
X54149164Y-83037000D01*
%TO.C,U1*%
X53340000Y-83685000D02*
X51390000Y-83685000D01*
X53340000Y-83685000D02*
X55290000Y-83685000D01*
X53340000Y-88805000D02*
X51390000Y-88805000D01*
X53340000Y-88805000D02*
X55290000Y-88805000D01*
X50640000Y-83780000D02*
X50400000Y-83450000D01*
X50880000Y-83450000D01*
X50640000Y-83780000D01*
G36*
X50640000Y-83780000D02*
G01*
X50400000Y-83450000D01*
X50880000Y-83450000D01*
X50640000Y-83780000D01*
G37*
%TO.C,C3*%
X66696000Y-54601164D02*
X66696000Y-54816836D01*
X67416000Y-54601164D02*
X67416000Y-54816836D01*
%TO.C,R3*%
X57405000Y-85116641D02*
X57405000Y-84809359D01*
X58165000Y-85116641D02*
X58165000Y-84809359D01*
%TO.C,C6*%
X73922836Y-89556000D02*
X73707164Y-89556000D01*
X73922836Y-90276000D02*
X73707164Y-90276000D01*
%TO.C,RV1*%
X49984000Y-73425000D02*
X49984000Y-68705000D01*
X49994000Y-64895000D02*
X49994000Y-61835000D01*
X51174000Y-73425000D02*
X49994000Y-73425000D01*
X54074000Y-73425000D02*
X53544000Y-73425000D01*
X56524000Y-73425000D02*
X55694000Y-73425000D01*
X59734000Y-61835000D02*
X49994000Y-61835000D01*
X59734000Y-64895000D02*
X59734000Y-61835000D01*
X59734000Y-73425000D02*
X58244000Y-73425000D01*
X59734000Y-73425000D02*
X59734000Y-68705000D01*
%TO.C,R4*%
X48515000Y-84991641D02*
X48515000Y-84684359D01*
X49275000Y-84991641D02*
X49275000Y-84684359D01*
%TO.C,C4*%
X62813164Y-84984000D02*
X63028836Y-84984000D01*
X62813164Y-85704000D02*
X63028836Y-85704000D01*
%TO.C,C7*%
X57552000Y-55959836D02*
X57552000Y-55744164D01*
X58272000Y-55959836D02*
X58272000Y-55744164D01*
%TD*%
%LPC*%
D16*
%TO.C,R11*%
X62395000Y-53086000D03*
X64220000Y-53086000D03*
%TD*%
D17*
%TO.C,R8*%
X63839000Y-91313000D03*
X62014000Y-91313000D03*
%TD*%
D18*
%TO.C,R2*%
X48895000Y-88140000D03*
X48895000Y-87120000D03*
%TD*%
D19*
%TO.C,U4*%
X59820000Y-55360000D03*
X59820000Y-56630000D03*
X59820000Y-57900000D03*
X59820000Y-59170000D03*
X64770000Y-59170000D03*
X64770000Y-57900000D03*
X64770000Y-56630000D03*
X64770000Y-55360000D03*
D20*
X62295000Y-57265000D03*
%TD*%
D18*
%TO.C,R10*%
X57912000Y-58678000D03*
X57912000Y-57658000D03*
%TD*%
D21*
%TO.C,OUTPUT1*%
X74930000Y-45720000D03*
D22*
X74930000Y-48260000D03*
X74930000Y-50800000D03*
X74930000Y-53340000D03*
X74930000Y-55880000D03*
%TD*%
D23*
%TO.C,R5*%
X60194000Y-100203000D03*
X61214000Y-100203000D03*
%TD*%
D24*
%TO.C,C5*%
X62413000Y-87757000D03*
X63373000Y-87757000D03*
%TD*%
D25*
%TO.C,C1*%
X72517000Y-82677000D03*
X71557000Y-82677000D03*
%TD*%
D18*
%TO.C,R1*%
X57785000Y-88013000D03*
X57785000Y-86993000D03*
%TD*%
D21*
%TO.C,INPUT1*%
X49530000Y-45720000D03*
D22*
X49530000Y-48260000D03*
X49530000Y-50800000D03*
X49530000Y-53340000D03*
X49530000Y-55880000D03*
%TD*%
D23*
%TO.C,R6*%
X64004000Y-100203000D03*
X65024000Y-100203000D03*
%TD*%
D26*
%TO.C,RV2*%
X65050000Y-66805000D03*
X74650000Y-66805000D03*
D27*
X67350000Y-74305000D03*
D28*
X69850000Y-74305000D03*
X72350000Y-74305000D03*
%TD*%
D23*
%TO.C,R9*%
X73658000Y-59690000D03*
X74678000Y-59690000D03*
%TD*%
D19*
%TO.C,U3*%
X68580000Y-84340000D03*
X68580000Y-85610000D03*
X68580000Y-86880000D03*
X68580000Y-88150000D03*
X73530000Y-88150000D03*
X73530000Y-86880000D03*
X73530000Y-85610000D03*
X73530000Y-84340000D03*
D20*
X71055000Y-86245000D03*
%TD*%
D23*
%TO.C,R7*%
X71243000Y-59690000D03*
X72263000Y-59690000D03*
%TD*%
D25*
%TO.C,C2*%
X54737000Y-82677000D03*
X53777000Y-82677000D03*
%TD*%
D29*
%TO.C,D1*%
X62052000Y-77851000D03*
X63627000Y-77851000D03*
%TD*%
D19*
%TO.C,U1*%
X50865000Y-84340000D03*
X50865000Y-85610000D03*
X50865000Y-86880000D03*
X50865000Y-88150000D03*
X55815000Y-88150000D03*
X55815000Y-86880000D03*
X55815000Y-85610000D03*
X55815000Y-84340000D03*
D20*
X53340000Y-86245000D03*
%TD*%
D30*
%TO.C,C3*%
X67056000Y-54229000D03*
X67056000Y-55189000D03*
%TD*%
D18*
%TO.C,R3*%
X57785000Y-85473000D03*
X57785000Y-84453000D03*
%TD*%
D25*
%TO.C,C6*%
X74295000Y-89916000D03*
X73335000Y-89916000D03*
%TD*%
D26*
%TO.C,RV1*%
X50064000Y-66805000D03*
X59664000Y-66805000D03*
D27*
X52364000Y-74305000D03*
D28*
X54864000Y-74305000D03*
X57364000Y-74305000D03*
%TD*%
D18*
%TO.C,R4*%
X48895000Y-85348000D03*
X48895000Y-84328000D03*
%TD*%
D24*
%TO.C,C4*%
X62441000Y-85344000D03*
X63401000Y-85344000D03*
%TD*%
D31*
%TO.C,C7*%
X57912000Y-56332000D03*
X57912000Y-55372000D03*
%TD*%
D28*
%TO.C,U2*%
X70612000Y-91186000D03*
X68072000Y-91186000D03*
X70612000Y-78486000D03*
X68072000Y-78486000D03*
%TD*%
%TO.C,U6*%
X68453000Y-58293000D03*
X68453000Y-60833000D03*
X55753000Y-58293000D03*
X55753000Y-60833000D03*
%TD*%
D21*
%TO.C,GND1*%
X55880000Y-96520000D03*
D22*
X58420000Y-96520000D03*
X60960000Y-96520000D03*
X63500000Y-96520000D03*
X66040000Y-96520000D03*
%TD*%
D21*
%TO.C,5V1*%
X55880000Y-50800000D03*
D22*
X58420000Y-50800000D03*
X60960000Y-50800000D03*
X63500000Y-50800000D03*
X66040000Y-50800000D03*
%TD*%
D28*
%TO.C,U5*%
X57785000Y-91313000D03*
X55245000Y-91313000D03*
X57785000Y-78613000D03*
X55245000Y-78613000D03*
%TD*%
%LPD*%
M02*
