M48
; DRILL file {KiCad 8.0.5} date 2024-11-13T11:04:00+0530
; FORMAT={-:-/ absolute / inch / decimal}
; #@! TF.CreationDate,2024-11-13T11:04:00+05:30
; #@! TF.GenerationSoftware,Kicad,Pcbnew,8.0.5
; #@! TF.FileFunction,Plated,1,2,PTH
FMAT,2
INCH
; #@! TA.AperFunction,Plated,PTH,ViaDrill
T1C0.0118
; #@! TA.AperFunction,Plated,PTH,ComponentDrill
T2C0.0394
; #@! TA.AperFunction,Plated,PTH,ComponentDrill
T3C0.0433
; #@! TA.AperFunction,Plated,PTH,ViaDrill
T4C0.1260
%
G90
G05
T1
X1.9526Y-3.3988
X2.0Y-3.515
X2.05Y-2.505
X2.085Y-3.2326
X2.125Y-3.53
X2.1825Y-3.2825
X2.235Y-2.18
X2.3222Y-3.2772
X2.35Y-2.385
X2.37Y-3.995
X2.4Y-2.9
X2.465Y-3.945
X2.47Y-3.26
X2.495Y-3.5
X2.5Y-3.0
X2.505Y-2.465
X2.525Y-3.225
X2.535Y-3.355
X2.55Y-2.85
X2.585Y-3.46
X2.5898Y-2.1398
X2.61Y-2.09
X2.61Y-3.945
X2.625Y-2.775
X2.63Y-3.225
X2.64Y-3.67
X2.675Y-2.2
X2.705Y-3.52
X2.72Y-3.225
X2.79Y-3.22
X2.89Y-3.625
X2.935Y-3.23
X2.97Y-3.0
X2.985Y-3.42
X2.985Y-3.515
T2
X1.95Y-1.8
X1.95Y-1.9
X1.95Y-2.0
X1.95Y-2.1
X1.95Y-2.2
X2.0616Y-2.9254
X2.16Y-2.9254
X2.175Y-3.095
X2.175Y-3.595
X2.195Y-2.295
X2.195Y-2.395
X2.2Y-2.0
X2.2Y-3.8
X2.2584Y-2.9254
X2.275Y-3.095
X2.275Y-3.595
X2.3Y-2.0
X2.3Y-3.8
X2.4Y-2.0
X2.4Y-3.8
X2.5Y-2.0
X2.5Y-3.8
X2.6Y-2.0
X2.6Y-3.8
X2.6516Y-2.9254
X2.68Y-3.09
X2.68Y-3.59
X2.695Y-2.295
X2.695Y-2.395
X2.75Y-2.9254
X2.78Y-3.09
X2.78Y-3.59
X2.8484Y-2.9254
X2.95Y-1.8
X2.95Y-1.9
X2.95Y-2.0
X2.95Y-2.1
X2.95Y-2.2
T4
X2.4558Y-1.725
X2.4558Y-1.725
X2.4558Y-1.725
X2.4558Y-1.725
X2.4718Y-4.175
X2.4718Y-4.175
X2.4718Y-4.175
X2.4718Y-4.175
T3
G00X1.971Y-2.6537
M15
G01X1.971Y-2.6065
M16
G05
G00X2.349Y-2.6537
M15
G01X2.349Y-2.6065
M16
G05
G00X2.561Y-2.6537
M15
G01X2.561Y-2.6065
M16
G05
G00X2.939Y-2.6537
M15
G01X2.939Y-2.6065
M16
G05
M30
