%TF.GenerationSoftware,KiCad,Pcbnew,8.0.5*%
%TF.CreationDate,2024-11-13T11:04:00+05:30*%
%TF.ProjectId,low_pass,6c6f775f-7061-4737-932e-6b696361645f,rev?*%
%TF.SameCoordinates,Original*%
%TF.FileFunction,Paste,Top*%
%TF.FilePolarity,Positive*%
%FSLAX46Y46*%
G04 Gerber Fmt 4.6, Leading zero omitted, Abs format (unit mm)*
G04 Created by KiCad (PCBNEW 8.0.5) date 2024-11-13 11:04:00*
%MOMM*%
%LPD*%
G01*
G04 APERTURE LIST*
G04 Aperture macros list*
%AMRoundRect*
0 Rectangle with rounded corners*
0 $1 Rounding radius*
0 $2 $3 $4 $5 $6 $7 $8 $9 X,Y pos of 4 corners*
0 Add a 4 corners polygon primitive as box body*
4,1,4,$2,$3,$4,$5,$6,$7,$8,$9,$2,$3,0*
0 Add four circle primitives for the rounded corners*
1,1,$1+$1,$2,$3*
1,1,$1+$1,$4,$5*
1,1,$1+$1,$6,$7*
1,1,$1+$1,$8,$9*
0 Add four rect primitives between the rounded corners*
20,1,$1+$1,$2,$3,$4,$5,0*
20,1,$1+$1,$4,$5,$6,$7,0*
20,1,$1+$1,$6,$7,$8,$9,0*
20,1,$1+$1,$8,$9,$2,$3,0*%
G04 Aperture macros list end*
%ADD10RoundRect,0.135000X0.185000X-0.135000X0.185000X0.135000X-0.185000X0.135000X-0.185000X-0.135000X0*%
%ADD11RoundRect,0.230000X-0.230000X-0.375000X0.230000X-0.375000X0.230000X0.375000X-0.230000X0.375000X0*%
%ADD12RoundRect,0.150000X-0.825000X-0.150000X0.825000X-0.150000X0.825000X0.150000X-0.825000X0.150000X0*%
%ADD13RoundRect,0.135000X-0.135000X-0.185000X0.135000X-0.185000X0.135000X0.185000X-0.135000X0.185000X0*%
%ADD14RoundRect,0.140000X-0.140000X-0.170000X0.140000X-0.170000X0.140000X0.170000X-0.140000X0.170000X0*%
%ADD15RoundRect,0.140000X0.140000X0.170000X-0.140000X0.170000X-0.140000X-0.170000X0.140000X-0.170000X0*%
%ADD16RoundRect,0.250000X-0.312500X-0.625000X0.312500X-0.625000X0.312500X0.625000X-0.312500X0.625000X0*%
%ADD17RoundRect,0.250000X0.312500X0.625000X-0.312500X0.625000X-0.312500X-0.625000X0.312500X-0.625000X0*%
%ADD18RoundRect,0.218750X-0.218750X-0.256250X0.218750X-0.256250X0.218750X0.256250X-0.218750X0.256250X0*%
%ADD19RoundRect,0.140000X-0.170000X0.140000X-0.170000X-0.140000X0.170000X-0.140000X0.170000X0.140000X0*%
%ADD20RoundRect,0.140000X0.170000X-0.140000X0.170000X0.140000X-0.170000X0.140000X-0.170000X-0.140000X0*%
G04 APERTURE END LIST*
D10*
%TO.C,R2*%
X48895000Y-88140000D03*
X48895000Y-87120000D03*
%TD*%
D11*
%TO.C,U4*%
X61725000Y-56515000D03*
X61725000Y-58015000D03*
X62865000Y-56515000D03*
X62865000Y-58015000D03*
D12*
X59820000Y-55360000D03*
X59820000Y-56630000D03*
X59820000Y-57900000D03*
X59820000Y-59170000D03*
X64770000Y-59170000D03*
X64770000Y-57900000D03*
X64770000Y-56630000D03*
X64770000Y-55360000D03*
%TD*%
D10*
%TO.C,R10*%
X57912000Y-58678000D03*
X57912000Y-57658000D03*
%TD*%
D13*
%TO.C,R5*%
X60194000Y-100203000D03*
X61214000Y-100203000D03*
%TD*%
D14*
%TO.C,C5*%
X62413000Y-87757000D03*
X63373000Y-87757000D03*
%TD*%
D15*
%TO.C,C1*%
X72517000Y-82677000D03*
X71557000Y-82677000D03*
%TD*%
D10*
%TO.C,R1*%
X57785000Y-88013000D03*
X57785000Y-86993000D03*
%TD*%
D16*
%TO.C,R11*%
X61845000Y-53086000D03*
X64770000Y-53086000D03*
%TD*%
D13*
%TO.C,R6*%
X64004000Y-100203000D03*
X65024000Y-100203000D03*
%TD*%
%TO.C,R9*%
X73658000Y-59690000D03*
X74678000Y-59690000D03*
%TD*%
D11*
%TO.C,U3*%
X70485000Y-85495000D03*
X70485000Y-86995000D03*
X71625000Y-85495000D03*
X71625000Y-86995000D03*
D12*
X68580000Y-84340000D03*
X68580000Y-85610000D03*
X68580000Y-86880000D03*
X68580000Y-88150000D03*
X73530000Y-88150000D03*
X73530000Y-86880000D03*
X73530000Y-85610000D03*
X73530000Y-84340000D03*
%TD*%
D13*
%TO.C,R7*%
X71243000Y-59690000D03*
X72263000Y-59690000D03*
%TD*%
D15*
%TO.C,C2*%
X54737000Y-82677000D03*
X53777000Y-82677000D03*
%TD*%
D17*
%TO.C,R8*%
X64389000Y-91313000D03*
X61464000Y-91313000D03*
%TD*%
D18*
%TO.C,D1*%
X62052000Y-77851000D03*
X63627000Y-77851000D03*
%TD*%
D11*
%TO.C,U1*%
X52770000Y-85495000D03*
X52770000Y-86995000D03*
X53910000Y-85495000D03*
X53910000Y-86995000D03*
D12*
X50865000Y-84340000D03*
X50865000Y-85610000D03*
X50865000Y-86880000D03*
X50865000Y-88150000D03*
X55815000Y-88150000D03*
X55815000Y-86880000D03*
X55815000Y-85610000D03*
X55815000Y-84340000D03*
%TD*%
D19*
%TO.C,C3*%
X67056000Y-54229000D03*
X67056000Y-55189000D03*
%TD*%
D10*
%TO.C,R3*%
X57785000Y-85473000D03*
X57785000Y-84453000D03*
%TD*%
D15*
%TO.C,C6*%
X74295000Y-89916000D03*
X73335000Y-89916000D03*
%TD*%
D10*
%TO.C,R4*%
X48895000Y-85348000D03*
X48895000Y-84328000D03*
%TD*%
D14*
%TO.C,C4*%
X62441000Y-85344000D03*
X63401000Y-85344000D03*
%TD*%
D20*
%TO.C,C7*%
X57912000Y-56332000D03*
X57912000Y-55372000D03*
%TD*%
M02*
