%TF.GenerationSoftware,KiCad,Pcbnew,8.0.5*%
%TF.CreationDate,2024-11-13T11:04:00+05:30*%
%TF.ProjectId,low_pass,6c6f775f-7061-4737-932e-6b696361645f,rev?*%
%TF.SameCoordinates,Original*%
%TF.FileFunction,Legend,Bot*%
%TF.FilePolarity,Positive*%
%FSLAX46Y46*%
G04 Gerber Fmt 4.6, Leading zero omitted, Abs format (unit mm)*
G04 Created by KiCad (PCBNEW 8.0.5) date 2024-11-13 11:04:00*
%MOMM*%
%LPD*%
G01*
G04 APERTURE LIST*
%ADD10C,0.100000*%
%ADD11C,0.150000*%
%ADD12C,0.120000*%
%ADD13R,1.700000X1.700000*%
%ADD14O,1.700000X1.700000*%
%ADD15O,2.720000X3.240000*%
%ADD16R,1.800000X1.800000*%
%ADD17C,1.800000*%
G04 APERTURE END LIST*
D10*
X68580095Y-76488580D02*
X68580095Y-75679057D01*
X68580095Y-75679057D02*
X68627714Y-75583819D01*
X68627714Y-75583819D02*
X68675333Y-75536200D01*
X68675333Y-75536200D02*
X68770571Y-75488580D01*
X68770571Y-75488580D02*
X68961047Y-75488580D01*
X68961047Y-75488580D02*
X69056285Y-75536200D01*
X69056285Y-75536200D02*
X69103904Y-75583819D01*
X69103904Y-75583819D02*
X69151523Y-75679057D01*
X69151523Y-75679057D02*
X69151523Y-76488580D01*
X69580095Y-76393342D02*
X69627714Y-76440961D01*
X69627714Y-76440961D02*
X69722952Y-76488580D01*
X69722952Y-76488580D02*
X69961047Y-76488580D01*
X69961047Y-76488580D02*
X70056285Y-76440961D01*
X70056285Y-76440961D02*
X70103904Y-76393342D01*
X70103904Y-76393342D02*
X70151523Y-76298104D01*
X70151523Y-76298104D02*
X70151523Y-76202866D01*
X70151523Y-76202866D02*
X70103904Y-76060009D01*
X70103904Y-76060009D02*
X69532476Y-75488580D01*
X69532476Y-75488580D02*
X70151523Y-75488580D01*
D11*
X70313779Y-93602133D02*
X71075684Y-93602133D01*
X67773779Y-93602133D02*
X68535684Y-93602133D01*
X68154731Y-93221180D02*
X68154731Y-93983085D01*
D10*
X53755580Y-60324904D02*
X52946057Y-60324904D01*
X52946057Y-60324904D02*
X52850819Y-60277285D01*
X52850819Y-60277285D02*
X52803200Y-60229666D01*
X52803200Y-60229666D02*
X52755580Y-60134428D01*
X52755580Y-60134428D02*
X52755580Y-59943952D01*
X52755580Y-59943952D02*
X52803200Y-59848714D01*
X52803200Y-59848714D02*
X52850819Y-59801095D01*
X52850819Y-59801095D02*
X52946057Y-59753476D01*
X52946057Y-59753476D02*
X53755580Y-59753476D01*
X53755580Y-58848714D02*
X53755580Y-59039190D01*
X53755580Y-59039190D02*
X53707961Y-59134428D01*
X53707961Y-59134428D02*
X53660342Y-59182047D01*
X53660342Y-59182047D02*
X53517485Y-59277285D01*
X53517485Y-59277285D02*
X53327009Y-59324904D01*
X53327009Y-59324904D02*
X52946057Y-59324904D01*
X52946057Y-59324904D02*
X52850819Y-59277285D01*
X52850819Y-59277285D02*
X52803200Y-59229666D01*
X52803200Y-59229666D02*
X52755580Y-59134428D01*
X52755580Y-59134428D02*
X52755580Y-58943952D01*
X52755580Y-58943952D02*
X52803200Y-58848714D01*
X52803200Y-58848714D02*
X52850819Y-58801095D01*
X52850819Y-58801095D02*
X52946057Y-58753476D01*
X52946057Y-58753476D02*
X53184152Y-58753476D01*
X53184152Y-58753476D02*
X53279390Y-58801095D01*
X53279390Y-58801095D02*
X53327009Y-58848714D01*
X53327009Y-58848714D02*
X53374628Y-58943952D01*
X53374628Y-58943952D02*
X53374628Y-59134428D01*
X53374628Y-59134428D02*
X53327009Y-59229666D01*
X53327009Y-59229666D02*
X53279390Y-59277285D01*
X53279390Y-59277285D02*
X53184152Y-59324904D01*
D11*
X70869133Y-58591220D02*
X70869133Y-57829316D01*
X70869133Y-61131220D02*
X70869133Y-60369316D01*
X70488180Y-60750268D02*
X71250085Y-60750268D01*
D10*
X55753095Y-76615580D02*
X55753095Y-75806057D01*
X55753095Y-75806057D02*
X55800714Y-75710819D01*
X55800714Y-75710819D02*
X55848333Y-75663200D01*
X55848333Y-75663200D02*
X55943571Y-75615580D01*
X55943571Y-75615580D02*
X56134047Y-75615580D01*
X56134047Y-75615580D02*
X56229285Y-75663200D01*
X56229285Y-75663200D02*
X56276904Y-75710819D01*
X56276904Y-75710819D02*
X56324523Y-75806057D01*
X56324523Y-75806057D02*
X56324523Y-76615580D01*
X57276904Y-76615580D02*
X56800714Y-76615580D01*
X56800714Y-76615580D02*
X56753095Y-76139390D01*
X56753095Y-76139390D02*
X56800714Y-76187009D01*
X56800714Y-76187009D02*
X56895952Y-76234628D01*
X56895952Y-76234628D02*
X57134047Y-76234628D01*
X57134047Y-76234628D02*
X57229285Y-76187009D01*
X57229285Y-76187009D02*
X57276904Y-76139390D01*
X57276904Y-76139390D02*
X57324523Y-76044152D01*
X57324523Y-76044152D02*
X57324523Y-75806057D01*
X57324523Y-75806057D02*
X57276904Y-75710819D01*
X57276904Y-75710819D02*
X57229285Y-75663200D01*
X57229285Y-75663200D02*
X57134047Y-75615580D01*
X57134047Y-75615580D02*
X56895952Y-75615580D01*
X56895952Y-75615580D02*
X56800714Y-75663200D01*
X56800714Y-75663200D02*
X56753095Y-75710819D01*
D11*
X57486779Y-93729133D02*
X58248684Y-93729133D01*
X54946779Y-93729133D02*
X55708684Y-93729133D01*
X55327731Y-93348180D02*
X55327731Y-94110085D01*
D10*
%TO.C,U2*%
X64262000Y-77216000D02*
X74422000Y-77216000D01*
X64262000Y-92456000D02*
X64262000Y-77216000D01*
X66802000Y-92456000D02*
X64262000Y-92456000D01*
X71882000Y-92456000D02*
X66802000Y-92456000D01*
X74422000Y-77216000D02*
X74422000Y-92456000D01*
X74422000Y-92456000D02*
X71882000Y-92456000D01*
%TO.C,U6*%
X54483000Y-54483000D02*
X69723000Y-54483000D01*
X54483000Y-64643000D02*
X54483000Y-54483000D01*
X69723000Y-54483000D02*
X69723000Y-57023000D01*
X69723000Y-57023000D02*
X69723000Y-62103000D01*
X69723000Y-62103000D02*
X69723000Y-64643000D01*
X69723000Y-64643000D02*
X54483000Y-64643000D01*
D12*
%TO.C,GND1*%
X54550000Y-95190000D02*
X55880000Y-95190000D01*
X54550000Y-96520000D02*
X54550000Y-95190000D01*
X57150000Y-97850000D02*
X57150000Y-95190000D01*
X67370000Y-95190000D02*
X57150000Y-95190000D01*
X67370000Y-97850000D02*
X57150000Y-97850000D01*
X67370000Y-97850000D02*
X67370000Y-95190000D01*
%TO.C,5V1*%
X54550000Y-49470000D02*
X55880000Y-49470000D01*
X54550000Y-50800000D02*
X54550000Y-49470000D01*
X57150000Y-52130000D02*
X57150000Y-49470000D01*
X67370000Y-49470000D02*
X57150000Y-49470000D01*
X67370000Y-52130000D02*
X57150000Y-52130000D01*
X67370000Y-52130000D02*
X67370000Y-49470000D01*
D10*
%TO.C,U5*%
X61595000Y-92583000D02*
X59055000Y-92583000D01*
X61595000Y-77343000D02*
X61595000Y-92583000D01*
X59055000Y-92583000D02*
X53975000Y-92583000D01*
X53975000Y-92583000D02*
X51435000Y-92583000D01*
X51435000Y-92583000D02*
X51435000Y-77343000D01*
X51435000Y-77343000D02*
X61595000Y-77343000D01*
%TD*%
%LPC*%
D13*
%TO.C,OUTPUT1*%
X74930000Y-45720000D03*
D14*
X74930000Y-48260000D03*
X74930000Y-50800000D03*
X74930000Y-53340000D03*
X74930000Y-55880000D03*
%TD*%
D13*
%TO.C,INPUT1*%
X49530000Y-45720000D03*
D14*
X49530000Y-48260000D03*
X49530000Y-50800000D03*
X49530000Y-53340000D03*
X49530000Y-55880000D03*
%TD*%
D15*
%TO.C,RV2*%
X65050000Y-66805000D03*
X74650000Y-66805000D03*
D16*
X67350000Y-74305000D03*
D17*
X69850000Y-74305000D03*
X72350000Y-74305000D03*
%TD*%
D15*
%TO.C,RV1*%
X50064000Y-66805000D03*
X59664000Y-66805000D03*
D16*
X52364000Y-74305000D03*
D17*
X54864000Y-74305000D03*
X57364000Y-74305000D03*
%TD*%
%TO.C,U2*%
X70612000Y-91186000D03*
X68072000Y-91186000D03*
X70612000Y-78486000D03*
X68072000Y-78486000D03*
%TD*%
%TO.C,U6*%
X68453000Y-58293000D03*
X68453000Y-60833000D03*
X55753000Y-58293000D03*
X55753000Y-60833000D03*
%TD*%
D13*
%TO.C,GND1*%
X55880000Y-96520000D03*
D14*
X58420000Y-96520000D03*
X60960000Y-96520000D03*
X63500000Y-96520000D03*
X66040000Y-96520000D03*
%TD*%
D13*
%TO.C,5V1*%
X55880000Y-50800000D03*
D14*
X58420000Y-50800000D03*
X60960000Y-50800000D03*
X63500000Y-50800000D03*
X66040000Y-50800000D03*
%TD*%
D17*
%TO.C,U5*%
X55245000Y-78613000D03*
X57785000Y-78613000D03*
X55245000Y-91313000D03*
X57785000Y-91313000D03*
%TD*%
%LPD*%
M02*
