%TF.GenerationSoftware,KiCad,Pcbnew,8.0.5*%
%TF.CreationDate,2024-11-22T15:59:57+05:30*%
%TF.ProjectId,kick,6b69636b-2e6b-4696-9361-645f70636258,rev?*%
%TF.SameCoordinates,Original*%
%TF.FileFunction,Legend,Bot*%
%TF.FilePolarity,Positive*%
%FSLAX46Y46*%
G04 Gerber Fmt 4.6, Leading zero omitted, Abs format (unit mm)*
G04 Created by KiCad (PCBNEW 8.0.5) date 2024-11-22 15:59:57*
%MOMM*%
%LPD*%
G01*
G04 APERTURE LIST*
%ADD10C,0.100000*%
%ADD11C,0.150000*%
%ADD12C,0.120000*%
%ADD13O,2.720000X3.240000*%
%ADD14R,1.800000X1.800000*%
%ADD15C,1.800000*%
%ADD16R,1.700000X1.700000*%
%ADD17O,1.700000X1.700000*%
%ADD18R,2.000000X2.000000*%
%ADD19O,2.000000X2.000000*%
G04 APERTURE END LIST*
D10*
X53882580Y-84581904D02*
X53073057Y-84581904D01*
X53073057Y-84581904D02*
X52977819Y-84534285D01*
X52977819Y-84534285D02*
X52930200Y-84486666D01*
X52930200Y-84486666D02*
X52882580Y-84391428D01*
X52882580Y-84391428D02*
X52882580Y-84200952D01*
X52882580Y-84200952D02*
X52930200Y-84105714D01*
X52930200Y-84105714D02*
X52977819Y-84058095D01*
X52977819Y-84058095D02*
X53073057Y-84010476D01*
X53073057Y-84010476D02*
X53882580Y-84010476D01*
X53549247Y-83105714D02*
X52882580Y-83105714D01*
X53930200Y-83343809D02*
X53215914Y-83581904D01*
X53215914Y-83581904D02*
X53215914Y-82962857D01*
D11*
X70996133Y-85388220D02*
X70996133Y-84626316D01*
X70615180Y-85007268D02*
X71377085Y-85007268D01*
X70996133Y-82848220D02*
X70996133Y-82086316D01*
X53004819Y-46776190D02*
X54004819Y-47109523D01*
X54004819Y-47109523D02*
X53004819Y-47442856D01*
X54100057Y-47538095D02*
X54100057Y-48299999D01*
X53957200Y-48490476D02*
X54004819Y-48633333D01*
X54004819Y-48633333D02*
X54004819Y-48871428D01*
X54004819Y-48871428D02*
X53957200Y-48966666D01*
X53957200Y-48966666D02*
X53909580Y-49014285D01*
X53909580Y-49014285D02*
X53814342Y-49061904D01*
X53814342Y-49061904D02*
X53719104Y-49061904D01*
X53719104Y-49061904D02*
X53623866Y-49014285D01*
X53623866Y-49014285D02*
X53576247Y-48966666D01*
X53576247Y-48966666D02*
X53528628Y-48871428D01*
X53528628Y-48871428D02*
X53481009Y-48680952D01*
X53481009Y-48680952D02*
X53433390Y-48585714D01*
X53433390Y-48585714D02*
X53385771Y-48538095D01*
X53385771Y-48538095D02*
X53290533Y-48490476D01*
X53290533Y-48490476D02*
X53195295Y-48490476D01*
X53195295Y-48490476D02*
X53100057Y-48538095D01*
X53100057Y-48538095D02*
X53052438Y-48585714D01*
X53052438Y-48585714D02*
X53004819Y-48680952D01*
X53004819Y-48680952D02*
X53004819Y-48919047D01*
X53004819Y-48919047D02*
X53052438Y-49061904D01*
X53004819Y-49490476D02*
X53814342Y-49490476D01*
X53814342Y-49490476D02*
X53909580Y-49538095D01*
X53909580Y-49538095D02*
X53957200Y-49585714D01*
X53957200Y-49585714D02*
X54004819Y-49680952D01*
X54004819Y-49680952D02*
X54004819Y-49871428D01*
X54004819Y-49871428D02*
X53957200Y-49966666D01*
X53957200Y-49966666D02*
X53909580Y-50014285D01*
X53909580Y-50014285D02*
X53814342Y-50061904D01*
X53814342Y-50061904D02*
X53004819Y-50061904D01*
X54004819Y-50538095D02*
X53004819Y-50538095D01*
X53004819Y-50538095D02*
X53004819Y-50919047D01*
X53004819Y-50919047D02*
X53052438Y-51014285D01*
X53052438Y-51014285D02*
X53100057Y-51061904D01*
X53100057Y-51061904D02*
X53195295Y-51109523D01*
X53195295Y-51109523D02*
X53338152Y-51109523D01*
X53338152Y-51109523D02*
X53433390Y-51061904D01*
X53433390Y-51061904D02*
X53481009Y-51014285D01*
X53481009Y-51014285D02*
X53528628Y-50919047D01*
X53528628Y-50919047D02*
X53528628Y-50538095D01*
X54004819Y-51538095D02*
X53004819Y-51538095D01*
X53004819Y-51538095D02*
X53004819Y-51919047D01*
X53004819Y-51919047D02*
X53052438Y-52014285D01*
X53052438Y-52014285D02*
X53100057Y-52061904D01*
X53100057Y-52061904D02*
X53195295Y-52109523D01*
X53195295Y-52109523D02*
X53338152Y-52109523D01*
X53338152Y-52109523D02*
X53433390Y-52061904D01*
X53433390Y-52061904D02*
X53481009Y-52014285D01*
X53481009Y-52014285D02*
X53528628Y-51919047D01*
X53528628Y-51919047D02*
X53528628Y-51538095D01*
X54004819Y-53014285D02*
X54004819Y-52538095D01*
X54004819Y-52538095D02*
X53004819Y-52538095D01*
X53528628Y-53538095D02*
X54004819Y-53538095D01*
X53004819Y-53204762D02*
X53528628Y-53538095D01*
X53528628Y-53538095D02*
X53004819Y-53871428D01*
X54004819Y-54728571D02*
X54004819Y-54157143D01*
X54004819Y-54442857D02*
X53004819Y-54442857D01*
X53004819Y-54442857D02*
X53147676Y-54347619D01*
X53147676Y-54347619D02*
X53242914Y-54252381D01*
X53242914Y-54252381D02*
X53290533Y-54157143D01*
X53052438Y-95281904D02*
X53004819Y-95186666D01*
X53004819Y-95186666D02*
X53004819Y-95043809D01*
X53004819Y-95043809D02*
X53052438Y-94900952D01*
X53052438Y-94900952D02*
X53147676Y-94805714D01*
X53147676Y-94805714D02*
X53242914Y-94758095D01*
X53242914Y-94758095D02*
X53433390Y-94710476D01*
X53433390Y-94710476D02*
X53576247Y-94710476D01*
X53576247Y-94710476D02*
X53766723Y-94758095D01*
X53766723Y-94758095D02*
X53861961Y-94805714D01*
X53861961Y-94805714D02*
X53957200Y-94900952D01*
X53957200Y-94900952D02*
X54004819Y-95043809D01*
X54004819Y-95043809D02*
X54004819Y-95139047D01*
X54004819Y-95139047D02*
X53957200Y-95281904D01*
X53957200Y-95281904D02*
X53909580Y-95329523D01*
X53909580Y-95329523D02*
X53576247Y-95329523D01*
X53576247Y-95329523D02*
X53576247Y-95139047D01*
X54004819Y-95758095D02*
X53004819Y-95758095D01*
X53004819Y-95758095D02*
X54004819Y-96329523D01*
X54004819Y-96329523D02*
X53004819Y-96329523D01*
X54004819Y-96805714D02*
X53004819Y-96805714D01*
X53004819Y-96805714D02*
X53004819Y-97043809D01*
X53004819Y-97043809D02*
X53052438Y-97186666D01*
X53052438Y-97186666D02*
X53147676Y-97281904D01*
X53147676Y-97281904D02*
X53242914Y-97329523D01*
X53242914Y-97329523D02*
X53433390Y-97377142D01*
X53433390Y-97377142D02*
X53576247Y-97377142D01*
X53576247Y-97377142D02*
X53766723Y-97329523D01*
X53766723Y-97329523D02*
X53861961Y-97281904D01*
X53861961Y-97281904D02*
X53957200Y-97186666D01*
X53957200Y-97186666D02*
X54004819Y-97043809D01*
X54004819Y-97043809D02*
X54004819Y-96805714D01*
X54004819Y-98329523D02*
X54004819Y-97758095D01*
X54004819Y-98043809D02*
X53004819Y-98043809D01*
X53004819Y-98043809D02*
X53147676Y-97948571D01*
X53147676Y-97948571D02*
X53242914Y-97853333D01*
X53242914Y-97853333D02*
X53290533Y-97758095D01*
D10*
%TO.C,U4*%
X54610000Y-78740000D02*
X69850000Y-78740000D01*
X54610000Y-88900000D02*
X54610000Y-78740000D01*
X69850000Y-78740000D02*
X69850000Y-81280000D01*
X69850000Y-81280000D02*
X69850000Y-86360000D01*
X69850000Y-86360000D02*
X69850000Y-88900000D01*
X69850000Y-88900000D02*
X54610000Y-88900000D01*
D12*
%TO.C,V_SUPPLY1*%
X54550000Y-49470000D02*
X55880000Y-49470000D01*
X54550000Y-50800000D02*
X54550000Y-49470000D01*
X57150000Y-52130000D02*
X57150000Y-49470000D01*
X67370000Y-49470000D02*
X57150000Y-49470000D01*
X67370000Y-52130000D02*
X57150000Y-52130000D01*
X67370000Y-52130000D02*
X67370000Y-49470000D01*
%TO.C,GND1*%
X54550000Y-95190000D02*
X55880000Y-95190000D01*
X54550000Y-96520000D02*
X54550000Y-95190000D01*
X57150000Y-97850000D02*
X57150000Y-95190000D01*
X67370000Y-95190000D02*
X57150000Y-95190000D01*
X67370000Y-97850000D02*
X57150000Y-97850000D01*
X67370000Y-97850000D02*
X67370000Y-95190000D01*
%TD*%
%LPC*%
D13*
%TO.C,RV2*%
X49810000Y-64265000D03*
X59410000Y-64265000D03*
D14*
X52110000Y-71765000D03*
D15*
X54610000Y-71765000D03*
X57110000Y-71765000D03*
%TD*%
D13*
%TO.C,RV4*%
X49175000Y-83315000D03*
X58775000Y-83315000D03*
D14*
X51475000Y-90815000D03*
D15*
X53975000Y-90815000D03*
X56475000Y-90815000D03*
%TD*%
D16*
%TO.C,INPUT1*%
X50800000Y-45720000D03*
D17*
X50800000Y-48260000D03*
X50800000Y-50800000D03*
X50800000Y-53340000D03*
X50800000Y-55880000D03*
%TD*%
D13*
%TO.C,RV3*%
X65050000Y-64265000D03*
X74650000Y-64265000D03*
D14*
X67350000Y-71765000D03*
D15*
X69850000Y-71765000D03*
X72350000Y-71765000D03*
%TD*%
D13*
%TO.C,RV1*%
X65050000Y-83315000D03*
X74650000Y-83315000D03*
D14*
X67350000Y-90815000D03*
D15*
X69850000Y-90815000D03*
X72350000Y-90815000D03*
%TD*%
D16*
%TO.C,OUTPUT1*%
X73660000Y-45720000D03*
D17*
X73660000Y-48260000D03*
X73660000Y-50800000D03*
X73660000Y-53340000D03*
X73660000Y-55880000D03*
%TD*%
D15*
%TO.C,U4*%
X68580000Y-82550000D03*
X68580000Y-85090000D03*
X55880000Y-82550000D03*
X55880000Y-85090000D03*
%TD*%
D18*
%TO.C,V_SUPPLY1*%
X55880000Y-50800000D03*
D19*
X58420000Y-50800000D03*
X60960000Y-50800000D03*
X63500000Y-50800000D03*
X66040000Y-50800000D03*
%TD*%
D18*
%TO.C,GND1*%
X55880000Y-96520000D03*
D19*
X58420000Y-96520000D03*
X60960000Y-96520000D03*
X63500000Y-96520000D03*
X66040000Y-96520000D03*
%TD*%
%LPD*%
M02*
