%TF.GenerationSoftware,KiCad,Pcbnew,8.0.5*%
%TF.CreationDate,2024-11-22T15:59:57+05:30*%
%TF.ProjectId,kick,6b69636b-2e6b-4696-9361-645f70636258,rev?*%
%TF.SameCoordinates,Original*%
%TF.FileFunction,Soldermask,Top*%
%TF.FilePolarity,Negative*%
%FSLAX46Y46*%
G04 Gerber Fmt 4.6, Leading zero omitted, Abs format (unit mm)*
G04 Created by KiCad (PCBNEW 8.0.5) date 2024-11-22 15:59:57*
%MOMM*%
%LPD*%
G01*
G04 APERTURE LIST*
G04 Aperture macros list*
%AMRoundRect*
0 Rectangle with rounded corners*
0 $1 Rounding radius*
0 $2 $3 $4 $5 $6 $7 $8 $9 X,Y pos of 4 corners*
0 Add a 4 corners polygon primitive as box body*
4,1,4,$2,$3,$4,$5,$6,$7,$8,$9,$2,$3,0*
0 Add four circle primitives for the rounded corners*
1,1,$1+$1,$2,$3*
1,1,$1+$1,$4,$5*
1,1,$1+$1,$6,$7*
1,1,$1+$1,$8,$9*
0 Add four rect primitives between the rounded corners*
20,1,$1+$1,$2,$3,$4,$5,0*
20,1,$1+$1,$4,$5,$6,$7,0*
20,1,$1+$1,$6,$7,$8,$9,0*
20,1,$1+$1,$8,$9,$2,$3,0*%
G04 Aperture macros list end*
%ADD10RoundRect,0.140000X-0.140000X-0.170000X0.140000X-0.170000X0.140000X0.170000X-0.140000X0.170000X0*%
%ADD11O,2.720000X3.240000*%
%ADD12R,1.800000X1.800000*%
%ADD13C,1.800000*%
%ADD14RoundRect,0.135000X-0.135000X-0.185000X0.135000X-0.185000X0.135000X0.185000X-0.135000X0.185000X0*%
%ADD15RoundRect,0.135000X0.135000X0.185000X-0.135000X0.185000X-0.135000X-0.185000X0.135000X-0.185000X0*%
%ADD16RoundRect,0.135000X0.185000X-0.135000X0.185000X0.135000X-0.185000X0.135000X-0.185000X-0.135000X0*%
%ADD17R,1.700000X1.700000*%
%ADD18O,1.700000X1.700000*%
%ADD19RoundRect,0.150000X-0.825000X-0.150000X0.825000X-0.150000X0.825000X0.150000X-0.825000X0.150000X0*%
%ADD20R,2.290000X3.000000*%
%ADD21RoundRect,0.140000X0.140000X0.170000X-0.140000X0.170000X-0.140000X-0.170000X0.140000X-0.170000X0*%
%ADD22R,2.000000X2.000000*%
%ADD23O,2.000000X2.000000*%
G04 APERTURE END LIST*
D10*
%TO.C,C5*%
X59210000Y-99695000D03*
X60170000Y-99695000D03*
%TD*%
D11*
%TO.C,RV2*%
X49810000Y-64265000D03*
X59410000Y-64265000D03*
D12*
X52110000Y-71765000D03*
D13*
X54610000Y-71765000D03*
X57110000Y-71765000D03*
%TD*%
D11*
%TO.C,RV4*%
X49175000Y-83315000D03*
X58775000Y-83315000D03*
D12*
X51475000Y-90815000D03*
D13*
X53975000Y-90815000D03*
X56475000Y-90815000D03*
%TD*%
D10*
%TO.C,C7*%
X49332000Y-103632000D03*
X50292000Y-103632000D03*
%TD*%
D14*
%TO.C,R11*%
X69338000Y-105029000D03*
X70358000Y-105029000D03*
%TD*%
D15*
%TO.C,R16*%
X67310000Y-102870000D03*
X66290000Y-102870000D03*
%TD*%
D16*
%TO.C,R5*%
X63246000Y-101223000D03*
X63246000Y-100203000D03*
%TD*%
D17*
%TO.C,INPUT1*%
X50800000Y-45720000D03*
D18*
X50800000Y-48260000D03*
X50800000Y-50800000D03*
X50800000Y-53340000D03*
X50800000Y-55880000D03*
%TD*%
D19*
%TO.C,U1*%
X59690000Y-53975000D03*
X59690000Y-55245000D03*
X59690000Y-56515000D03*
X59690000Y-57785000D03*
X64640000Y-57785000D03*
X64640000Y-56515000D03*
X64640000Y-55245000D03*
X64640000Y-53975000D03*
D20*
X62165000Y-55880000D03*
%TD*%
D14*
%TO.C,R14*%
X61341000Y-91313000D03*
X62361000Y-91313000D03*
%TD*%
D11*
%TO.C,RV3*%
X65050000Y-64265000D03*
X74650000Y-64265000D03*
D12*
X67350000Y-71765000D03*
D13*
X69850000Y-71765000D03*
X72350000Y-71765000D03*
%TD*%
D15*
%TO.C,R6*%
X60200000Y-101600000D03*
X59180000Y-101600000D03*
%TD*%
%TO.C,R12*%
X67187000Y-99568000D03*
X66167000Y-99568000D03*
%TD*%
D14*
%TO.C,R1*%
X56130000Y-57150000D03*
X57150000Y-57150000D03*
%TD*%
D21*
%TO.C,C4*%
X73152000Y-98044000D03*
X72192000Y-98044000D03*
%TD*%
D15*
%TO.C,R3*%
X62611000Y-76708000D03*
X61591000Y-76708000D03*
%TD*%
D14*
%TO.C,R4*%
X66800000Y-55245000D03*
X67820000Y-55245000D03*
%TD*%
D15*
%TO.C,R8*%
X50165000Y-99695000D03*
X49145000Y-99695000D03*
%TD*%
D14*
%TO.C,R9*%
X57527000Y-76708000D03*
X58547000Y-76708000D03*
%TD*%
D10*
%TO.C,C1*%
X56190000Y-55880000D03*
X57150000Y-55880000D03*
%TD*%
%TO.C,C3*%
X56190000Y-58420000D03*
X57150000Y-58420000D03*
%TD*%
D15*
%TO.C,R2*%
X65659000Y-76708000D03*
X64639000Y-76708000D03*
%TD*%
D11*
%TO.C,RV1*%
X65050000Y-83315000D03*
X74650000Y-83315000D03*
D12*
X67350000Y-90815000D03*
D13*
X69850000Y-90815000D03*
X72350000Y-90815000D03*
%TD*%
D21*
%TO.C,C6*%
X50165000Y-101346000D03*
X49205000Y-101346000D03*
%TD*%
D19*
%TO.C,U3*%
X69915000Y-99580000D03*
X69915000Y-100850000D03*
X69915000Y-102120000D03*
X69915000Y-103390000D03*
X74865000Y-103390000D03*
X74865000Y-102120000D03*
X74865000Y-100850000D03*
X74865000Y-99580000D03*
D20*
X72390000Y-101485000D03*
%TD*%
D21*
%TO.C,C2*%
X56205000Y-105156000D03*
X55245000Y-105156000D03*
%TD*%
D19*
%TO.C,U2*%
X52135000Y-99810000D03*
X52135000Y-101080000D03*
X52135000Y-102350000D03*
X52135000Y-103620000D03*
X57085000Y-103620000D03*
X57085000Y-102350000D03*
X57085000Y-101080000D03*
X57085000Y-99810000D03*
D20*
X54610000Y-101715000D03*
%TD*%
D14*
%TO.C,R13*%
X61466000Y-88773000D03*
X62486000Y-88773000D03*
%TD*%
%TO.C,R7*%
X71880000Y-95250000D03*
X72900000Y-95250000D03*
%TD*%
D17*
%TO.C,OUTPUT1*%
X73660000Y-45720000D03*
D18*
X73660000Y-48260000D03*
X73660000Y-50800000D03*
X73660000Y-53340000D03*
X73660000Y-55880000D03*
%TD*%
D15*
%TO.C,R10*%
X67310000Y-100838000D03*
X66290000Y-100838000D03*
%TD*%
D14*
%TO.C,R15*%
X66290000Y-101854000D03*
X67310000Y-101854000D03*
%TD*%
D13*
%TO.C,U4*%
X68580000Y-82550000D03*
X68580000Y-85090000D03*
X55880000Y-82550000D03*
X55880000Y-85090000D03*
%TD*%
D22*
%TO.C,V_SUPPLY1*%
X55880000Y-50800000D03*
D23*
X58420000Y-50800000D03*
X60960000Y-50800000D03*
X63500000Y-50800000D03*
X66040000Y-50800000D03*
%TD*%
D22*
%TO.C,GND1*%
X55880000Y-96520000D03*
D23*
X58420000Y-96520000D03*
X60960000Y-96520000D03*
X63500000Y-96520000D03*
X66040000Y-96520000D03*
%TD*%
M02*
