%TF.GenerationSoftware,KiCad,Pcbnew,8.0.5*%
%TF.CreationDate,2024-11-22T15:59:57+05:30*%
%TF.ProjectId,kick,6b69636b-2e6b-4696-9361-645f70636258,rev?*%
%TF.SameCoordinates,Original*%
%TF.FileFunction,Copper,L2,Inr*%
%TF.FilePolarity,Positive*%
%FSLAX46Y46*%
G04 Gerber Fmt 4.6, Leading zero omitted, Abs format (unit mm)*
G04 Created by KiCad (PCBNEW 8.0.5) date 2024-11-22 15:59:57*
%MOMM*%
%LPD*%
G01*
G04 APERTURE LIST*
%TA.AperFunction,ComponentPad*%
%ADD10O,2.720000X3.240000*%
%TD*%
%TA.AperFunction,ComponentPad*%
%ADD11R,1.800000X1.800000*%
%TD*%
%TA.AperFunction,ComponentPad*%
%ADD12C,1.800000*%
%TD*%
%TA.AperFunction,ComponentPad*%
%ADD13R,1.700000X1.700000*%
%TD*%
%TA.AperFunction,ComponentPad*%
%ADD14O,1.700000X1.700000*%
%TD*%
%TA.AperFunction,ComponentPad*%
%ADD15R,2.000000X2.000000*%
%TD*%
%TA.AperFunction,ComponentPad*%
%ADD16O,2.000000X2.000000*%
%TD*%
%TA.AperFunction,ViaPad*%
%ADD17C,0.700000*%
%TD*%
%TA.AperFunction,ViaPad*%
%ADD18C,4.000000*%
%TD*%
%TA.AperFunction,Conductor*%
%ADD19C,0.300000*%
%TD*%
%TA.AperFunction,Conductor*%
%ADD20C,0.500000*%
%TD*%
G04 APERTURE END LIST*
D10*
%TO.N,*%
%TO.C,RV2*%
X49810000Y-64265000D03*
X59410000Y-64265000D03*
D11*
%TO.N,CAP_MID*%
X52110000Y-71765000D03*
D12*
%TO.N,Net-(R9-Pad1)*%
X54610000Y-71765000D03*
%TO.N,unconnected-(RV2-Pad3)*%
X57110000Y-71765000D03*
%TD*%
D10*
%TO.N,*%
%TO.C,RV4*%
X49175000Y-83315000D03*
X58775000Y-83315000D03*
D11*
%TO.N,unconnected-(RV4-Pad1)*%
X51475000Y-90815000D03*
D12*
%TO.N,Net-(U4--)*%
X53975000Y-90815000D03*
%TO.N,Net-(R14-Pad1)*%
X56475000Y-90815000D03*
%TD*%
D13*
%TO.N,GATE_IN*%
%TO.C,INPUT1*%
X50800000Y-45720000D03*
D14*
%TO.N,Net-(INPUT1-Pin_2)*%
X50800000Y-48260000D03*
X50800000Y-50800000D03*
X50800000Y-53340000D03*
X50800000Y-55880000D03*
%TD*%
D10*
%TO.N,*%
%TO.C,RV3*%
X65050000Y-64265000D03*
X74650000Y-64265000D03*
D11*
%TO.N,Net-(U3A--)*%
X67350000Y-71765000D03*
D12*
%TO.N,Net-(R10-Pad1)*%
X69850000Y-71765000D03*
%TO.N,unconnected-(RV3-Pad3)*%
X72350000Y-71765000D03*
%TD*%
D10*
%TO.N,*%
%TO.C,RV1*%
X65050000Y-83315000D03*
X74650000Y-83315000D03*
D11*
%TO.N,Net-(U2A-+)*%
X67350000Y-90815000D03*
D12*
%TO.N,Net-(R7-Pad1)*%
X69850000Y-90815000D03*
%TO.N,unconnected-(RV1-Pad3)*%
X72350000Y-90815000D03*
%TD*%
D13*
%TO.N,KICK_OUT*%
%TO.C,OUTPUT1*%
X73660000Y-45720000D03*
D14*
X73660000Y-48260000D03*
X73660000Y-50800000D03*
X73660000Y-53340000D03*
X73660000Y-55880000D03*
%TD*%
D12*
%TO.N,Net-(U4--)*%
%TO.C,U4*%
X68580000Y-82550000D03*
%TO.N,TRIG_ENV*%
X68580000Y-85090000D03*
%TO.N,Net-(R9-Pad1)*%
X55880000Y-82550000D03*
%TO.N,CAP_MID*%
X55880000Y-85090000D03*
%TD*%
D15*
%TO.N,V_SUPPLY*%
%TO.C,V_SUPPLY1*%
X55880000Y-50800000D03*
D16*
X58420000Y-50800000D03*
X60960000Y-50800000D03*
X63500000Y-50800000D03*
X66040000Y-50800000D03*
%TD*%
D15*
%TO.N,GND*%
%TO.C,GND1*%
X55880000Y-96520000D03*
D16*
X58420000Y-96520000D03*
X60960000Y-96520000D03*
X63500000Y-96520000D03*
X66040000Y-96520000D03*
%TD*%
D17*
%TO.N,Net-(U3A--)*%
X70231000Y-106172000D03*
%TO.N,Net-(R10-Pad1)*%
X65659000Y-99125000D03*
D18*
%TO.N,*%
X62784908Y-106045000D03*
X62377580Y-43815000D03*
D17*
%TO.N,GND*%
X66040000Y-88265000D03*
X57785000Y-57785000D03*
X72009000Y-99187000D03*
X58420000Y-74930000D03*
X52197000Y-104648000D03*
X60198000Y-98679000D03*
X71882000Y-103632000D03*
%TO.N,TRIG_ENV*%
X64643000Y-58928000D03*
%TO.N,CAP_MID*%
X49275000Y-100584000D03*
X49022000Y-98552000D03*
X65298345Y-102411656D03*
%TO.N,GATE_IN*%
X57804803Y-56513169D03*
%TO.N,V_MID*%
X66548000Y-56515000D03*
X61087000Y-101727000D03*
X68326000Y-102489000D03*
X59055000Y-77851000D03*
X63627000Y-76708000D03*
X72898000Y-94107000D03*
%TO.N,V_SUPPLY*%
X73939000Y-98654000D03*
X66548000Y-76708000D03*
X55245000Y-58420000D03*
X66675000Y-53975000D03*
X58547000Y-99810000D03*
%TO.N,Net-(U2A-+)*%
X50419000Y-97028000D03*
X50419000Y-102616000D03*
%TO.N,Net-(R10-Pad1)*%
X70057976Y-98632975D03*
%TD*%
D19*
%TO.N,Net-(U3A--)*%
X63826106Y-102893945D02*
X65008395Y-101711656D01*
X63826106Y-102997000D02*
X63826106Y-102893945D01*
X65770656Y-101711656D02*
X70231000Y-106172000D01*
X65008395Y-101711656D02*
X65770656Y-101711656D01*
%TO.N,Net-(R10-Pad1)*%
X64135000Y-100076000D02*
X61784000Y-102427000D01*
X61784000Y-102427000D02*
X52135000Y-102427000D01*
X52135000Y-102427000D02*
X51689000Y-101981000D01*
X53086000Y-84455000D02*
X53086000Y-76708000D01*
X51689000Y-93853000D02*
X50927000Y-93091000D01*
X56007000Y-73787000D02*
X67828000Y-73787000D01*
X50927000Y-93091000D02*
X48768000Y-93091000D01*
X64135000Y-99125000D02*
X64135000Y-100076000D01*
X48768000Y-93091000D02*
X48768000Y-88773000D01*
X65659000Y-99125000D02*
X64135000Y-99125000D01*
X48768000Y-88773000D02*
X53086000Y-84455000D01*
X51689000Y-101981000D02*
X51689000Y-93853000D01*
X53086000Y-76708000D02*
X56007000Y-73787000D01*
X67828000Y-73787000D02*
X69850000Y-71765000D01*
X65659000Y-99125000D02*
X69565951Y-99125000D01*
%TO.N,CAP_MID*%
X65298345Y-102411656D02*
X64205001Y-103505000D01*
X64205001Y-103505000D02*
X49784000Y-103505000D01*
X49784000Y-103505000D02*
X49275000Y-102996000D01*
X49275000Y-102996000D02*
X49275000Y-100584000D01*
%TO.N,Net-(U3A--)*%
X65836000Y-73279000D02*
X67350000Y-71765000D01*
X51054000Y-102108000D02*
X51054000Y-101981000D01*
X48268000Y-93298107D02*
X48268000Y-88384000D01*
X63826106Y-102997000D02*
X51943000Y-102997000D01*
X51054000Y-101981000D02*
X51181000Y-101854000D01*
X51181000Y-94361000D02*
X50419000Y-93599000D01*
X48268000Y-88384000D02*
X52578000Y-84074000D01*
X51181000Y-101854000D02*
X51181000Y-94361000D01*
X52578000Y-84074000D02*
X52578000Y-76327000D01*
X52578000Y-76327000D02*
X55626000Y-73279000D01*
X50419000Y-93599000D02*
X50038000Y-93599000D01*
X48560893Y-93591000D02*
X48268000Y-93298107D01*
X50038000Y-93599000D02*
X50030000Y-93591000D01*
X50030000Y-93591000D02*
X48560893Y-93591000D01*
X51943000Y-102997000D02*
X51054000Y-102108000D01*
X55626000Y-73279000D02*
X65836000Y-73279000D01*
%TO.N,Net-(R10-Pad1)*%
X69565951Y-99125000D02*
X70057976Y-98632975D01*
%TO.N,TRIG_ENV*%
X64643000Y-58928000D02*
X64897000Y-58928000D01*
X64897000Y-58928000D02*
X75057000Y-69088000D01*
X75057000Y-69088000D02*
X75057000Y-78613000D01*
X75057000Y-78613000D02*
X68580000Y-85090000D01*
%TO.N,CAP_MID*%
X49275000Y-100584000D02*
X49275000Y-98805000D01*
X49275000Y-98805000D02*
X49022000Y-98552000D01*
%TO.N,GATE_IN*%
X57785000Y-56493366D02*
X57804803Y-56513169D01*
X57150000Y-53340000D02*
X57785000Y-53975000D01*
X53340000Y-53340000D02*
X57150000Y-53340000D01*
X53340000Y-48260000D02*
X53340000Y-49530000D01*
X57785000Y-53975000D02*
X57785000Y-56493366D01*
X53340000Y-49530000D02*
X53340000Y-53340000D01*
X50800000Y-45720000D02*
X53340000Y-48260000D01*
D20*
%TO.N,V_MID*%
X66548000Y-56515000D02*
X65924629Y-56515000D01*
X60198000Y-93345000D02*
X61722000Y-91821000D01*
X61912500Y-78422500D02*
X61686000Y-78649000D01*
X61686000Y-78649000D02*
X59853000Y-78649000D01*
X71120000Y-97155000D02*
X68580000Y-94615000D01*
X61087000Y-101727000D02*
X61087000Y-101092000D01*
X63843000Y-59259371D02*
X73822000Y-69238371D01*
X70389347Y-101060653D02*
X70389347Y-99432975D01*
X61686000Y-78649000D02*
X61686000Y-91785000D01*
X73822000Y-72736000D02*
X68199000Y-78359000D01*
X53340000Y-98425000D02*
X53340000Y-93345000D01*
X71120000Y-98702322D02*
X71120000Y-97155000D01*
X73822000Y-69238371D02*
X73822000Y-72736000D01*
X61087000Y-101092000D02*
X58420000Y-98425000D01*
X63843000Y-58596629D02*
X63843000Y-59259371D01*
X65924629Y-56515000D02*
X63843000Y-58596629D01*
X70389347Y-99432975D02*
X71120000Y-98702322D01*
X61686000Y-91785000D02*
X63373000Y-93472000D01*
X59853000Y-78649000D02*
X59055000Y-77851000D01*
X61722000Y-91821000D02*
X61686000Y-91785000D01*
X68580000Y-94615000D02*
X62103000Y-94615000D01*
X68199000Y-78359000D02*
X61976000Y-78359000D01*
X68326000Y-102489000D02*
X68961000Y-102489000D01*
X62103000Y-94615000D02*
X61722000Y-94234000D01*
X58420000Y-98425000D02*
X53340000Y-98425000D01*
X61976000Y-78359000D02*
X61912500Y-78422500D01*
X61722000Y-94234000D02*
X61722000Y-91821000D01*
X53340000Y-93345000D02*
X60198000Y-93345000D01*
X63627000Y-76708000D02*
X61912500Y-78422500D01*
X68961000Y-102489000D02*
X70389347Y-101060653D01*
X63373000Y-93472000D02*
X72263000Y-93472000D01*
X72263000Y-93472000D02*
X72898000Y-94107000D01*
D19*
%TO.N,Net-(U2A-+)*%
X50419000Y-102616000D02*
X50419000Y-97028000D01*
%TD*%
%TA.AperFunction,Conductor*%
%TO.N,V_MID*%
G36*
X64713039Y-74949685D02*
G01*
X64758794Y-75002489D01*
X64770000Y-75054000D01*
X64770000Y-81108746D01*
X64750315Y-81175785D01*
X64697511Y-81221540D01*
X64678094Y-81228520D01*
X64450679Y-81289456D01*
X64450677Y-81289456D01*
X64450676Y-81289457D01*
X64450669Y-81289459D01*
X64225359Y-81382786D01*
X64225348Y-81382791D01*
X64014151Y-81504727D01*
X64014135Y-81504738D01*
X63820656Y-81653199D01*
X63820649Y-81653205D01*
X63648205Y-81825649D01*
X63648199Y-81825656D01*
X63499738Y-82019135D01*
X63499727Y-82019151D01*
X63377791Y-82230348D01*
X63377786Y-82230359D01*
X63284459Y-82455669D01*
X63284456Y-82455679D01*
X63221335Y-82691253D01*
X63221333Y-82691264D01*
X63189500Y-82933048D01*
X63189500Y-83696951D01*
X63216013Y-83898333D01*
X63221334Y-83938744D01*
X63221335Y-83938746D01*
X63284456Y-84174320D01*
X63284459Y-84174330D01*
X63377786Y-84399640D01*
X63377791Y-84399651D01*
X63499727Y-84610848D01*
X63499738Y-84610864D01*
X63648199Y-84804343D01*
X63648205Y-84804350D01*
X63820649Y-84976794D01*
X63820655Y-84976799D01*
X64014144Y-85125268D01*
X64014151Y-85125272D01*
X64225348Y-85247208D01*
X64225353Y-85247210D01*
X64225356Y-85247212D01*
X64450679Y-85340544D01*
X64678094Y-85401479D01*
X64737754Y-85437844D01*
X64768283Y-85500691D01*
X64770000Y-85521254D01*
X64770000Y-93856000D01*
X64750315Y-93923039D01*
X64697511Y-93968794D01*
X64646000Y-93980000D01*
X59814000Y-93980000D01*
X59746961Y-93960315D01*
X59701206Y-93907511D01*
X59690000Y-93856000D01*
X59690000Y-85266635D01*
X59709685Y-85199596D01*
X59751997Y-85159249D01*
X59810856Y-85125268D01*
X60004345Y-84976799D01*
X60176799Y-84804345D01*
X60325268Y-84610856D01*
X60447212Y-84399644D01*
X60540544Y-84174321D01*
X60603666Y-83938744D01*
X60635500Y-83696944D01*
X60635500Y-82933056D01*
X60603666Y-82691256D01*
X60540544Y-82455679D01*
X60447212Y-82230356D01*
X60447210Y-82230353D01*
X60447208Y-82230348D01*
X60325272Y-82019151D01*
X60325268Y-82019144D01*
X60176799Y-81825655D01*
X60176794Y-81825649D01*
X60004350Y-81653205D01*
X60004343Y-81653199D01*
X59810864Y-81504738D01*
X59810862Y-81504737D01*
X59810856Y-81504732D01*
X59808755Y-81503519D01*
X59751998Y-81470749D01*
X59703783Y-81420181D01*
X59690000Y-81363363D01*
X59690000Y-75054000D01*
X59709685Y-74986961D01*
X59762489Y-74941206D01*
X59814000Y-74930000D01*
X64646000Y-74930000D01*
X64713039Y-74949685D01*
G37*
%TD.AperFunction*%
%TD*%
M02*
