M48
; DRILL file {KiCad 8.0.5} date 2024-11-22T15:59:57+0530
; FORMAT={-:-/ absolute / inch / decimal}
; #@! TF.CreationDate,2024-11-22T15:59:57+05:30
; #@! TF.GenerationSoftware,Kicad,Pcbnew,8.0.5
; #@! TF.FileFunction,Plated,1,4,PTH
FMAT,2
INCH
; #@! TA.AperFunction,Plated,PTH,ViaDrill
T1C0.0118
; #@! TA.AperFunction,Plated,PTH,ComponentDrill
T2C0.0394
; #@! TA.AperFunction,Plated,PTH,ComponentDrill
T3C0.0433
; #@! TA.AperFunction,Plated,PTH,ViaDrill
T4C0.1260
%
G90
G05
T1
X1.93Y-3.88
X1.94Y-3.96
X1.985Y-3.82
X1.985Y-4.04
X2.055Y-4.12
X2.175Y-2.3
X2.275Y-2.275
X2.2758Y-2.2249
X2.3Y-2.95
X2.305Y-3.9295
X2.325Y-3.065
X2.37Y-3.885
X2.405Y-4.005
X2.505Y-3.02
X2.545Y-2.32
X2.5708Y-4.032
X2.585Y-3.9026
X2.6Y-3.475
X2.62Y-2.225
X2.62Y-3.02
X2.625Y-2.125
X2.69Y-4.035
X2.7582Y-3.8832
X2.765Y-4.18
X2.83Y-4.08
X2.835Y-3.905
X2.87Y-3.705
X2.911Y-3.884
T2
X2.0Y-1.8
X2.0Y-1.9
X2.0Y-2.0
X2.0Y-2.1
X2.0Y-2.2
X2.0266Y-3.5754
X2.0516Y-2.8254
X2.125Y-3.5754
X2.15Y-2.8254
X2.2Y-2.0
X2.2Y-3.25
X2.2Y-3.35
X2.2Y-3.8
X2.2234Y-3.5754
X2.2484Y-2.8254
X2.3Y-2.0
X2.3Y-3.8
X2.4Y-2.0
X2.4Y-3.8
X2.5Y-2.0
X2.5Y-3.8
X2.6Y-2.0
X2.6Y-3.8
X2.6516Y-2.8254
X2.6516Y-3.5754
X2.7Y-3.25
X2.7Y-3.35
X2.75Y-2.8254
X2.75Y-3.5754
X2.8484Y-2.8254
X2.8484Y-3.5754
X2.9Y-1.8
X2.9Y-1.9
X2.9Y-2.0
X2.9Y-2.1
X2.9Y-2.2
T4
X2.4558Y-1.725
X2.4718Y-4.175
T3
G00X1.936Y-3.3037
M15
G01X1.936Y-3.2565
M16
G05
G00X1.961Y-2.5537
M15
G01X1.961Y-2.5065
M16
G05
G00X2.314Y-3.3037
M15
G01X2.314Y-3.2565
M16
G05
G00X2.339Y-2.5537
M15
G01X2.339Y-2.5065
M16
G05
G00X2.561Y-2.5537
M15
G01X2.561Y-2.5065
M16
G05
G00X2.561Y-3.3037
M15
G01X2.561Y-3.2565
M16
G05
G00X2.939Y-2.5537
M15
G01X2.939Y-2.5065
M16
G05
G00X2.939Y-3.3037
M15
G01X2.939Y-3.2565
M16
G05
M30
