%TF.GenerationSoftware,KiCad,Pcbnew,8.0.5*%
%TF.CreationDate,2024-11-22T15:59:57+05:30*%
%TF.ProjectId,kick,6b69636b-2e6b-4696-9361-645f70636258,rev?*%
%TF.SameCoordinates,Original*%
%TF.FileFunction,Copper,L3,Inr*%
%TF.FilePolarity,Positive*%
%FSLAX46Y46*%
G04 Gerber Fmt 4.6, Leading zero omitted, Abs format (unit mm)*
G04 Created by KiCad (PCBNEW 8.0.5) date 2024-11-22 15:59:57*
%MOMM*%
%LPD*%
G01*
G04 APERTURE LIST*
%TA.AperFunction,ComponentPad*%
%ADD10O,2.720000X3.240000*%
%TD*%
%TA.AperFunction,ComponentPad*%
%ADD11R,1.800000X1.800000*%
%TD*%
%TA.AperFunction,ComponentPad*%
%ADD12C,1.800000*%
%TD*%
%TA.AperFunction,ComponentPad*%
%ADD13R,1.700000X1.700000*%
%TD*%
%TA.AperFunction,ComponentPad*%
%ADD14O,1.700000X1.700000*%
%TD*%
%TA.AperFunction,ComponentPad*%
%ADD15R,2.000000X2.000000*%
%TD*%
%TA.AperFunction,ComponentPad*%
%ADD16O,2.000000X2.000000*%
%TD*%
%TA.AperFunction,ViaPad*%
%ADD17C,0.700000*%
%TD*%
%TA.AperFunction,ViaPad*%
%ADD18C,4.000000*%
%TD*%
G04 APERTURE END LIST*
D10*
%TO.N,*%
%TO.C,RV2*%
X49810000Y-64265000D03*
X59410000Y-64265000D03*
D11*
%TO.N,CAP_MID*%
X52110000Y-71765000D03*
D12*
%TO.N,Net-(R9-Pad1)*%
X54610000Y-71765000D03*
%TO.N,unconnected-(RV2-Pad3)*%
X57110000Y-71765000D03*
%TD*%
D10*
%TO.N,*%
%TO.C,RV4*%
X49175000Y-83315000D03*
X58775000Y-83315000D03*
D11*
%TO.N,unconnected-(RV4-Pad1)*%
X51475000Y-90815000D03*
D12*
%TO.N,Net-(U4--)*%
X53975000Y-90815000D03*
%TO.N,Net-(R14-Pad1)*%
X56475000Y-90815000D03*
%TD*%
D13*
%TO.N,GATE_IN*%
%TO.C,INPUT1*%
X50800000Y-45720000D03*
D14*
%TO.N,Net-(INPUT1-Pin_2)*%
X50800000Y-48260000D03*
X50800000Y-50800000D03*
X50800000Y-53340000D03*
X50800000Y-55880000D03*
%TD*%
D10*
%TO.N,*%
%TO.C,RV3*%
X65050000Y-64265000D03*
X74650000Y-64265000D03*
D11*
%TO.N,Net-(U3A--)*%
X67350000Y-71765000D03*
D12*
%TO.N,Net-(R10-Pad1)*%
X69850000Y-71765000D03*
%TO.N,unconnected-(RV3-Pad3)*%
X72350000Y-71765000D03*
%TD*%
D10*
%TO.N,*%
%TO.C,RV1*%
X65050000Y-83315000D03*
X74650000Y-83315000D03*
D11*
%TO.N,Net-(U2A-+)*%
X67350000Y-90815000D03*
D12*
%TO.N,Net-(R7-Pad1)*%
X69850000Y-90815000D03*
%TO.N,unconnected-(RV1-Pad3)*%
X72350000Y-90815000D03*
%TD*%
D13*
%TO.N,KICK_OUT*%
%TO.C,OUTPUT1*%
X73660000Y-45720000D03*
D14*
X73660000Y-48260000D03*
X73660000Y-50800000D03*
X73660000Y-53340000D03*
X73660000Y-55880000D03*
%TD*%
D12*
%TO.N,Net-(U4--)*%
%TO.C,U4*%
X68580000Y-82550000D03*
%TO.N,TRIG_ENV*%
X68580000Y-85090000D03*
%TO.N,Net-(R9-Pad1)*%
X55880000Y-82550000D03*
%TO.N,CAP_MID*%
X55880000Y-85090000D03*
%TD*%
D15*
%TO.N,V_SUPPLY*%
%TO.C,V_SUPPLY1*%
X55880000Y-50800000D03*
D16*
X58420000Y-50800000D03*
X60960000Y-50800000D03*
X63500000Y-50800000D03*
X66040000Y-50800000D03*
%TD*%
D15*
%TO.N,GND*%
%TO.C,GND1*%
X55880000Y-96520000D03*
D16*
X58420000Y-96520000D03*
X60960000Y-96520000D03*
X63500000Y-96520000D03*
X66040000Y-96520000D03*
%TD*%
D17*
%TO.N,Net-(U3A--)*%
X70231000Y-106172000D03*
%TO.N,Net-(R10-Pad1)*%
X65659000Y-99125000D03*
D18*
%TO.N,*%
X62784908Y-106045000D03*
X62377580Y-43815000D03*
D17*
%TO.N,GND*%
X66040000Y-88265000D03*
X57785000Y-57785000D03*
X72009000Y-99187000D03*
X58420000Y-74930000D03*
X52197000Y-104648000D03*
X60198000Y-98679000D03*
X71882000Y-103632000D03*
%TO.N,TRIG_ENV*%
X64643000Y-58928000D03*
%TO.N,CAP_MID*%
X49275000Y-100584000D03*
X49022000Y-98552000D03*
X65298345Y-102411656D03*
%TO.N,GATE_IN*%
X57804803Y-56513169D03*
%TO.N,V_MID*%
X66548000Y-56515000D03*
X61087000Y-101727000D03*
X68326000Y-102489000D03*
X59055000Y-77851000D03*
X63627000Y-76708000D03*
X72898000Y-94107000D03*
%TO.N,V_SUPPLY*%
X73939000Y-98654000D03*
X66548000Y-76708000D03*
X55245000Y-58420000D03*
X66675000Y-53975000D03*
X58547000Y-99810000D03*
%TO.N,Net-(U2A-+)*%
X50419000Y-97028000D03*
X50419000Y-102616000D03*
%TO.N,Net-(R10-Pad1)*%
X70057976Y-98632975D03*
%TD*%
%TA.AperFunction,Conductor*%
%TO.N,V_SUPPLY*%
G36*
X57954075Y-50607007D02*
G01*
X57920000Y-50734174D01*
X57920000Y-50865826D01*
X57954075Y-50992993D01*
X57986988Y-51050000D01*
X56313012Y-51050000D01*
X56345925Y-50992993D01*
X56380000Y-50865826D01*
X56380000Y-50734174D01*
X56345925Y-50607007D01*
X56313012Y-50550000D01*
X57986988Y-50550000D01*
X57954075Y-50607007D01*
G37*
%TD.AperFunction*%
%TA.AperFunction,Conductor*%
G36*
X60494075Y-50607007D02*
G01*
X60460000Y-50734174D01*
X60460000Y-50865826D01*
X60494075Y-50992993D01*
X60526988Y-51050000D01*
X58853012Y-51050000D01*
X58885925Y-50992993D01*
X58920000Y-50865826D01*
X58920000Y-50734174D01*
X58885925Y-50607007D01*
X58853012Y-50550000D01*
X60526988Y-50550000D01*
X60494075Y-50607007D01*
G37*
%TD.AperFunction*%
%TA.AperFunction,Conductor*%
G36*
X63034075Y-50607007D02*
G01*
X63000000Y-50734174D01*
X63000000Y-50865826D01*
X63034075Y-50992993D01*
X63066988Y-51050000D01*
X61393012Y-51050000D01*
X61425925Y-50992993D01*
X61460000Y-50865826D01*
X61460000Y-50734174D01*
X61425925Y-50607007D01*
X61393012Y-50550000D01*
X63066988Y-50550000D01*
X63034075Y-50607007D01*
G37*
%TD.AperFunction*%
%TA.AperFunction,Conductor*%
G36*
X65574075Y-50607007D02*
G01*
X65540000Y-50734174D01*
X65540000Y-50865826D01*
X65574075Y-50992993D01*
X65606988Y-51050000D01*
X63933012Y-51050000D01*
X63965925Y-50992993D01*
X64000000Y-50865826D01*
X64000000Y-50734174D01*
X63965925Y-50607007D01*
X63933012Y-50550000D01*
X65606988Y-50550000D01*
X65574075Y-50607007D01*
G37*
%TD.AperFunction*%
%TA.AperFunction,Conductor*%
G36*
X59870272Y-43199685D02*
G01*
X59916027Y-43252489D01*
X59925971Y-43321647D01*
X59925037Y-43327235D01*
X59891891Y-43500988D01*
X59891890Y-43500995D01*
X59872136Y-43814994D01*
X59872136Y-43815005D01*
X59891890Y-44129004D01*
X59891891Y-44129011D01*
X59891892Y-44129015D01*
X59948583Y-44426202D01*
X59950850Y-44438083D01*
X60048077Y-44737316D01*
X60048079Y-44737321D01*
X60182041Y-45022003D01*
X60182044Y-45022009D01*
X60350631Y-45287661D01*
X60350634Y-45287665D01*
X60551186Y-45530090D01*
X60551188Y-45530092D01*
X60780548Y-45745476D01*
X60780558Y-45745484D01*
X61035084Y-45930408D01*
X61035089Y-45930410D01*
X61035096Y-45930416D01*
X61310814Y-46081994D01*
X61310819Y-46081996D01*
X61310821Y-46081997D01*
X61310822Y-46081998D01*
X61603351Y-46197818D01*
X61603354Y-46197819D01*
X61908103Y-46276065D01*
X61908107Y-46276066D01*
X61973590Y-46284338D01*
X62220250Y-46315499D01*
X62220259Y-46315499D01*
X62220262Y-46315500D01*
X62220264Y-46315500D01*
X62534896Y-46315500D01*
X62534898Y-46315500D01*
X62534901Y-46315499D01*
X62534909Y-46315499D01*
X62721173Y-46291968D01*
X62847053Y-46276066D01*
X63151805Y-46197819D01*
X63151808Y-46197818D01*
X63444337Y-46081998D01*
X63444338Y-46081997D01*
X63444336Y-46081997D01*
X63444346Y-46081994D01*
X63720064Y-45930416D01*
X63974610Y-45745478D01*
X64203970Y-45530094D01*
X64404527Y-45287663D01*
X64573117Y-45022007D01*
X64707083Y-44737315D01*
X64804311Y-44438079D01*
X64863268Y-44129015D01*
X64883024Y-43815000D01*
X64863268Y-43500985D01*
X64830123Y-43327233D01*
X64836897Y-43257695D01*
X64880192Y-43202856D01*
X64946263Y-43180129D01*
X64951927Y-43180000D01*
X76076000Y-43180000D01*
X76143039Y-43199685D01*
X76188794Y-43252489D01*
X76200000Y-43304000D01*
X76200000Y-62624493D01*
X76180315Y-62691532D01*
X76127511Y-62737287D01*
X76058353Y-62747231D01*
X75994797Y-62718206D01*
X75988319Y-62712174D01*
X75879350Y-62603205D01*
X75879343Y-62603199D01*
X75685864Y-62454738D01*
X75685862Y-62454736D01*
X75685856Y-62454732D01*
X75685851Y-62454729D01*
X75685848Y-62454727D01*
X75474651Y-62332791D01*
X75474640Y-62332786D01*
X75249330Y-62239459D01*
X75249323Y-62239457D01*
X75249321Y-62239456D01*
X75013744Y-62176334D01*
X74973333Y-62171013D01*
X74771951Y-62144500D01*
X74771944Y-62144500D01*
X74528056Y-62144500D01*
X74528048Y-62144500D01*
X74297896Y-62174801D01*
X74286256Y-62176334D01*
X74050679Y-62239456D01*
X74050669Y-62239459D01*
X73825359Y-62332786D01*
X73825348Y-62332791D01*
X73614151Y-62454727D01*
X73614135Y-62454738D01*
X73420656Y-62603199D01*
X73420649Y-62603205D01*
X73248205Y-62775649D01*
X73248199Y-62775656D01*
X73099738Y-62969135D01*
X73099727Y-62969151D01*
X72977791Y-63180348D01*
X72977786Y-63180359D01*
X72884459Y-63405669D01*
X72884456Y-63405679D01*
X72821335Y-63641253D01*
X72821333Y-63641264D01*
X72789500Y-63883048D01*
X72789500Y-64646951D01*
X72816013Y-64848333D01*
X72821334Y-64888744D01*
X72821335Y-64888746D01*
X72884456Y-65124320D01*
X72884459Y-65124330D01*
X72977786Y-65349640D01*
X72977791Y-65349651D01*
X73099727Y-65560848D01*
X73099738Y-65560864D01*
X73248199Y-65754343D01*
X73248205Y-65754350D01*
X73420649Y-65926794D01*
X73420655Y-65926799D01*
X73614144Y-66075268D01*
X73614151Y-66075272D01*
X73825348Y-66197208D01*
X73825353Y-66197210D01*
X73825356Y-66197212D01*
X74050679Y-66290544D01*
X74286256Y-66353666D01*
X74528056Y-66385500D01*
X74528063Y-66385500D01*
X74771937Y-66385500D01*
X74771944Y-66385500D01*
X75013744Y-66353666D01*
X75249321Y-66290544D01*
X75474644Y-66197212D01*
X75685856Y-66075268D01*
X75879345Y-65926799D01*
X75909483Y-65896661D01*
X75988319Y-65817826D01*
X76049642Y-65784341D01*
X76119334Y-65789325D01*
X76175267Y-65831197D01*
X76199684Y-65896661D01*
X76200000Y-65905507D01*
X76200000Y-81674493D01*
X76180315Y-81741532D01*
X76127511Y-81787287D01*
X76058353Y-81797231D01*
X75994797Y-81768206D01*
X75988319Y-81762174D01*
X75879350Y-81653205D01*
X75879343Y-81653199D01*
X75685864Y-81504738D01*
X75685862Y-81504736D01*
X75685856Y-81504732D01*
X75685851Y-81504729D01*
X75685848Y-81504727D01*
X75474651Y-81382791D01*
X75474640Y-81382786D01*
X75249330Y-81289459D01*
X75249323Y-81289457D01*
X75249321Y-81289456D01*
X75013744Y-81226334D01*
X74973333Y-81221013D01*
X74771951Y-81194500D01*
X74771944Y-81194500D01*
X74528056Y-81194500D01*
X74528048Y-81194500D01*
X74297896Y-81224801D01*
X74286256Y-81226334D01*
X74140828Y-81265301D01*
X74050679Y-81289456D01*
X74050669Y-81289459D01*
X73825359Y-81382786D01*
X73825348Y-81382791D01*
X73614151Y-81504727D01*
X73614135Y-81504738D01*
X73420656Y-81653199D01*
X73420649Y-81653205D01*
X73248205Y-81825649D01*
X73248199Y-81825656D01*
X73099738Y-82019135D01*
X73099727Y-82019151D01*
X72977791Y-82230348D01*
X72977786Y-82230359D01*
X72884459Y-82455669D01*
X72884456Y-82455679D01*
X72859182Y-82550006D01*
X72821335Y-82691253D01*
X72821333Y-82691264D01*
X72789500Y-82933048D01*
X72789500Y-83696951D01*
X72809470Y-83848630D01*
X72821334Y-83938744D01*
X72852776Y-84056087D01*
X72884456Y-84174320D01*
X72884459Y-84174330D01*
X72977786Y-84399640D01*
X72977791Y-84399651D01*
X73099727Y-84610848D01*
X73099738Y-84610864D01*
X73248199Y-84804343D01*
X73248205Y-84804350D01*
X73420649Y-84976794D01*
X73420655Y-84976799D01*
X73614144Y-85125268D01*
X73614151Y-85125272D01*
X73825348Y-85247208D01*
X73825353Y-85247210D01*
X73825356Y-85247212D01*
X74050679Y-85340544D01*
X74286256Y-85403666D01*
X74528056Y-85435500D01*
X74528063Y-85435500D01*
X74771937Y-85435500D01*
X74771944Y-85435500D01*
X75013744Y-85403666D01*
X75249321Y-85340544D01*
X75474644Y-85247212D01*
X75685856Y-85125268D01*
X75879345Y-84976799D01*
X75909483Y-84946661D01*
X75988319Y-84867826D01*
X76049642Y-84834341D01*
X76119334Y-84839325D01*
X76175267Y-84881197D01*
X76199684Y-84946661D01*
X76200000Y-84955507D01*
X76200000Y-106556000D01*
X76180315Y-106623039D01*
X76127511Y-106668794D01*
X76076000Y-106680000D01*
X71130881Y-106680000D01*
X71063842Y-106660315D01*
X71018087Y-106607511D01*
X71008143Y-106538353D01*
X71012950Y-106517682D01*
X71034133Y-106452485D01*
X71067497Y-106349803D01*
X71086185Y-106172000D01*
X71067497Y-105994197D01*
X71012250Y-105824165D01*
X70922859Y-105669335D01*
X70876003Y-105617296D01*
X70803235Y-105536478D01*
X70803232Y-105536476D01*
X70803231Y-105536475D01*
X70803230Y-105536474D01*
X70658593Y-105431388D01*
X70495267Y-105358671D01*
X70495265Y-105358670D01*
X70367594Y-105331533D01*
X70320391Y-105321500D01*
X70141609Y-105321500D01*
X70110954Y-105328015D01*
X69966733Y-105358670D01*
X69966728Y-105358672D01*
X69803408Y-105431387D01*
X69658768Y-105536475D01*
X69539140Y-105669336D01*
X69449750Y-105824164D01*
X69449747Y-105824170D01*
X69394504Y-105994192D01*
X69394503Y-105994194D01*
X69375815Y-106172000D01*
X69394503Y-106349805D01*
X69394504Y-106349807D01*
X69449050Y-106517682D01*
X69451045Y-106587523D01*
X69414965Y-106647356D01*
X69352264Y-106678184D01*
X69331119Y-106680000D01*
X65359255Y-106680000D01*
X65292216Y-106660315D01*
X65246461Y-106607511D01*
X65236517Y-106538353D01*
X65237451Y-106532765D01*
X65239918Y-106519835D01*
X65270596Y-106359015D01*
X65270597Y-106359004D01*
X65290352Y-106045005D01*
X65290352Y-106044994D01*
X65270597Y-105730995D01*
X65270596Y-105730988D01*
X65270596Y-105730985D01*
X65211639Y-105421921D01*
X65114411Y-105122685D01*
X64980445Y-104837993D01*
X64811855Y-104572337D01*
X64811853Y-104572334D01*
X64611301Y-104329909D01*
X64611299Y-104329907D01*
X64381939Y-104114523D01*
X64381929Y-104114515D01*
X64127403Y-103929591D01*
X64127396Y-103929586D01*
X64127392Y-103929584D01*
X63851674Y-103778006D01*
X63851671Y-103778004D01*
X63851666Y-103778002D01*
X63851665Y-103778001D01*
X63559136Y-103662181D01*
X63559133Y-103662180D01*
X63441589Y-103632000D01*
X71026815Y-103632000D01*
X71045503Y-103809805D01*
X71045504Y-103809807D01*
X71100747Y-103979829D01*
X71100750Y-103979835D01*
X71190141Y-104134665D01*
X71231812Y-104180946D01*
X71309764Y-104267521D01*
X71309767Y-104267523D01*
X71309770Y-104267526D01*
X71454407Y-104372612D01*
X71617733Y-104445329D01*
X71792609Y-104482500D01*
X71792610Y-104482500D01*
X71971389Y-104482500D01*
X71971391Y-104482500D01*
X72146267Y-104445329D01*
X72309593Y-104372612D01*
X72454230Y-104267526D01*
X72573859Y-104134665D01*
X72663250Y-103979835D01*
X72718497Y-103809803D01*
X72737185Y-103632000D01*
X72718497Y-103454197D01*
X72663250Y-103284165D01*
X72573859Y-103129335D01*
X72499888Y-103047182D01*
X72454235Y-102996478D01*
X72454232Y-102996476D01*
X72454231Y-102996475D01*
X72454230Y-102996474D01*
X72309593Y-102891388D01*
X72146267Y-102818671D01*
X72146265Y-102818670D01*
X72018594Y-102791533D01*
X71971391Y-102781500D01*
X71792609Y-102781500D01*
X71761954Y-102788015D01*
X71617733Y-102818670D01*
X71617728Y-102818672D01*
X71454408Y-102891387D01*
X71309768Y-102996475D01*
X71190140Y-103129336D01*
X71100750Y-103284164D01*
X71100747Y-103284170D01*
X71045504Y-103454192D01*
X71045503Y-103454194D01*
X71026815Y-103632000D01*
X63441589Y-103632000D01*
X63254384Y-103583934D01*
X63254371Y-103583932D01*
X62942237Y-103544500D01*
X62942226Y-103544500D01*
X62627590Y-103544500D01*
X62627578Y-103544500D01*
X62315444Y-103583932D01*
X62315431Y-103583934D01*
X62010682Y-103662180D01*
X62010679Y-103662181D01*
X61718150Y-103778001D01*
X61718149Y-103778002D01*
X61442424Y-103929584D01*
X61442412Y-103929591D01*
X61187886Y-104114515D01*
X61187876Y-104114523D01*
X60958516Y-104329907D01*
X60958514Y-104329909D01*
X60757962Y-104572334D01*
X60757959Y-104572338D01*
X60589372Y-104837990D01*
X60589369Y-104837996D01*
X60455407Y-105122678D01*
X60455405Y-105122683D01*
X60358178Y-105421916D01*
X60299219Y-105730988D01*
X60299218Y-105730995D01*
X60279464Y-106044994D01*
X60279464Y-106045005D01*
X60299218Y-106359004D01*
X60299219Y-106359011D01*
X60299220Y-106359015D01*
X60329487Y-106517682D01*
X60332365Y-106532765D01*
X60325591Y-106602305D01*
X60282296Y-106657144D01*
X60216225Y-106679871D01*
X60210561Y-106680000D01*
X48384000Y-106680000D01*
X48316961Y-106660315D01*
X48271206Y-106607511D01*
X48260000Y-106556000D01*
X48260000Y-104648000D01*
X51341815Y-104648000D01*
X51360503Y-104825805D01*
X51360504Y-104825807D01*
X51415747Y-104995829D01*
X51415750Y-104995835D01*
X51505141Y-105150665D01*
X51546812Y-105196946D01*
X51624764Y-105283521D01*
X51624767Y-105283523D01*
X51624770Y-105283526D01*
X51769407Y-105388612D01*
X51932733Y-105461329D01*
X52107609Y-105498500D01*
X52107610Y-105498500D01*
X52286389Y-105498500D01*
X52286391Y-105498500D01*
X52461267Y-105461329D01*
X52624593Y-105388612D01*
X52769230Y-105283526D01*
X52888859Y-105150665D01*
X52978250Y-104995835D01*
X53033497Y-104825803D01*
X53052185Y-104648000D01*
X53033497Y-104470197D01*
X53001789Y-104372610D01*
X52978252Y-104300170D01*
X52978249Y-104300164D01*
X52888859Y-104145335D01*
X52842003Y-104093296D01*
X52769235Y-104012478D01*
X52769232Y-104012476D01*
X52769231Y-104012475D01*
X52769230Y-104012474D01*
X52624593Y-103907388D01*
X52461267Y-103834671D01*
X52461265Y-103834670D01*
X52333594Y-103807533D01*
X52286391Y-103797500D01*
X52107609Y-103797500D01*
X52076954Y-103804015D01*
X51932733Y-103834670D01*
X51932728Y-103834672D01*
X51769408Y-103907387D01*
X51624768Y-104012475D01*
X51505140Y-104145336D01*
X51415750Y-104300164D01*
X51415747Y-104300170D01*
X51360504Y-104470192D01*
X51360503Y-104470194D01*
X51341815Y-104648000D01*
X48260000Y-104648000D01*
X48260000Y-102616000D01*
X49563815Y-102616000D01*
X49582503Y-102793805D01*
X49582504Y-102793807D01*
X49637747Y-102963829D01*
X49637750Y-102963835D01*
X49727141Y-103118665D01*
X49768812Y-103164946D01*
X49846764Y-103251521D01*
X49846767Y-103251523D01*
X49846770Y-103251526D01*
X49991407Y-103356612D01*
X50154733Y-103429329D01*
X50329609Y-103466500D01*
X50329610Y-103466500D01*
X50508389Y-103466500D01*
X50508391Y-103466500D01*
X50683267Y-103429329D01*
X50846593Y-103356612D01*
X50991230Y-103251526D01*
X51110859Y-103118665D01*
X51200250Y-102963835D01*
X51255497Y-102793803D01*
X51274185Y-102616000D01*
X51255497Y-102438197D01*
X51214231Y-102311194D01*
X51200252Y-102268170D01*
X51200249Y-102268164D01*
X51178022Y-102229665D01*
X51110859Y-102113335D01*
X51064003Y-102061296D01*
X50991235Y-101980478D01*
X50991232Y-101980476D01*
X50991231Y-101980475D01*
X50991230Y-101980474D01*
X50846593Y-101875388D01*
X50683267Y-101802671D01*
X50683265Y-101802670D01*
X50555594Y-101775533D01*
X50508391Y-101765500D01*
X50329609Y-101765500D01*
X50298954Y-101772015D01*
X50154733Y-101802670D01*
X50154728Y-101802672D01*
X49991408Y-101875387D01*
X49846768Y-101980475D01*
X49727140Y-102113336D01*
X49637750Y-102268164D01*
X49637747Y-102268170D01*
X49582504Y-102438192D01*
X49582503Y-102438194D01*
X49563815Y-102616000D01*
X48260000Y-102616000D01*
X48260000Y-101727000D01*
X60231815Y-101727000D01*
X60250503Y-101904805D01*
X60250504Y-101904807D01*
X60305747Y-102074829D01*
X60305750Y-102074835D01*
X60395141Y-102229665D01*
X60429806Y-102268164D01*
X60514764Y-102362521D01*
X60514767Y-102362523D01*
X60514770Y-102362526D01*
X60659407Y-102467612D01*
X60822733Y-102540329D01*
X60997609Y-102577500D01*
X60997610Y-102577500D01*
X61176389Y-102577500D01*
X61176391Y-102577500D01*
X61351267Y-102540329D01*
X61514593Y-102467612D01*
X61591609Y-102411656D01*
X64443160Y-102411656D01*
X64461848Y-102589461D01*
X64461849Y-102589463D01*
X64517092Y-102759485D01*
X64517095Y-102759491D01*
X64606486Y-102914321D01*
X64648157Y-102960602D01*
X64726109Y-103047177D01*
X64726112Y-103047179D01*
X64726115Y-103047182D01*
X64870752Y-103152268D01*
X65034078Y-103224985D01*
X65208954Y-103262156D01*
X65208955Y-103262156D01*
X65387734Y-103262156D01*
X65387736Y-103262156D01*
X65562612Y-103224985D01*
X65725938Y-103152268D01*
X65870575Y-103047182D01*
X65990204Y-102914321D01*
X66079595Y-102759491D01*
X66134842Y-102589459D01*
X66145401Y-102489000D01*
X67470815Y-102489000D01*
X67489503Y-102666805D01*
X67489504Y-102666807D01*
X67544747Y-102836829D01*
X67544750Y-102836835D01*
X67634141Y-102991665D01*
X67638475Y-102996478D01*
X67753764Y-103124521D01*
X67753767Y-103124523D01*
X67753770Y-103124526D01*
X67898407Y-103229612D01*
X68061733Y-103302329D01*
X68236609Y-103339500D01*
X68236610Y-103339500D01*
X68415389Y-103339500D01*
X68415391Y-103339500D01*
X68590267Y-103302329D01*
X68753593Y-103229612D01*
X68898230Y-103124526D01*
X68903508Y-103118665D01*
X68924148Y-103095741D01*
X69017859Y-102991665D01*
X69107250Y-102836835D01*
X69162497Y-102666803D01*
X69181185Y-102489000D01*
X69162497Y-102311197D01*
X69107250Y-102141165D01*
X69017859Y-101986335D01*
X68944449Y-101904805D01*
X68898235Y-101853478D01*
X68898232Y-101853476D01*
X68898231Y-101853475D01*
X68898230Y-101853474D01*
X68753593Y-101748388D01*
X68590267Y-101675671D01*
X68590265Y-101675670D01*
X68462594Y-101648533D01*
X68415391Y-101638500D01*
X68236609Y-101638500D01*
X68205954Y-101645015D01*
X68061733Y-101675670D01*
X68061728Y-101675672D01*
X67898408Y-101748387D01*
X67753768Y-101853475D01*
X67634140Y-101986336D01*
X67544750Y-102141164D01*
X67544747Y-102141170D01*
X67489504Y-102311192D01*
X67489503Y-102311194D01*
X67470815Y-102489000D01*
X66145401Y-102489000D01*
X66153530Y-102411656D01*
X66134842Y-102233853D01*
X66104725Y-102141164D01*
X66079597Y-102063826D01*
X66079594Y-102063820D01*
X66034859Y-101986336D01*
X65990204Y-101908991D01*
X65940216Y-101853474D01*
X65870580Y-101776134D01*
X65870577Y-101776132D01*
X65870576Y-101776131D01*
X65870575Y-101776130D01*
X65725938Y-101671044D01*
X65562612Y-101598327D01*
X65562610Y-101598326D01*
X65434939Y-101571189D01*
X65387736Y-101561156D01*
X65208954Y-101561156D01*
X65178299Y-101567671D01*
X65034078Y-101598326D01*
X65034073Y-101598328D01*
X64870753Y-101671043D01*
X64726113Y-101776131D01*
X64606485Y-101908992D01*
X64517095Y-102063820D01*
X64517092Y-102063826D01*
X64461849Y-102233848D01*
X64461848Y-102233850D01*
X64443160Y-102411656D01*
X61591609Y-102411656D01*
X61659230Y-102362526D01*
X61778859Y-102229665D01*
X61868250Y-102074835D01*
X61923497Y-101904803D01*
X61942185Y-101727000D01*
X61923497Y-101549197D01*
X61868250Y-101379165D01*
X61778859Y-101224335D01*
X61732003Y-101172296D01*
X61659235Y-101091478D01*
X61659232Y-101091476D01*
X61659231Y-101091475D01*
X61659230Y-101091474D01*
X61514593Y-100986388D01*
X61351267Y-100913671D01*
X61351265Y-100913670D01*
X61223594Y-100886533D01*
X61176391Y-100876500D01*
X60997609Y-100876500D01*
X60966954Y-100883015D01*
X60822733Y-100913670D01*
X60822728Y-100913672D01*
X60659408Y-100986387D01*
X60514768Y-101091475D01*
X60395140Y-101224336D01*
X60305750Y-101379164D01*
X60305747Y-101379170D01*
X60250504Y-101549192D01*
X60250503Y-101549194D01*
X60231815Y-101727000D01*
X48260000Y-101727000D01*
X48260000Y-100989741D01*
X48279685Y-100922702D01*
X48332489Y-100876947D01*
X48401647Y-100867003D01*
X48465203Y-100896028D01*
X48491387Y-100927742D01*
X48583137Y-101086660D01*
X48583139Y-101086663D01*
X48702764Y-101219521D01*
X48702767Y-101219523D01*
X48702770Y-101219526D01*
X48847407Y-101324612D01*
X49010733Y-101397329D01*
X49185609Y-101434500D01*
X49185610Y-101434500D01*
X49364389Y-101434500D01*
X49364391Y-101434500D01*
X49539267Y-101397329D01*
X49702593Y-101324612D01*
X49847230Y-101219526D01*
X49966859Y-101086665D01*
X50056250Y-100931835D01*
X50111497Y-100761803D01*
X50130185Y-100584000D01*
X50111497Y-100406197D01*
X50056250Y-100236165D01*
X49966859Y-100081335D01*
X49893921Y-100000329D01*
X49847235Y-99948478D01*
X49847232Y-99948476D01*
X49847231Y-99948475D01*
X49847230Y-99948474D01*
X49702593Y-99843388D01*
X49539267Y-99770671D01*
X49539265Y-99770670D01*
X49411594Y-99743533D01*
X49364391Y-99733500D01*
X49185609Y-99733500D01*
X49154954Y-99740015D01*
X49010733Y-99770670D01*
X49010728Y-99770672D01*
X48847408Y-99843387D01*
X48702768Y-99948475D01*
X48583140Y-100081336D01*
X48491387Y-100240258D01*
X48440820Y-100288473D01*
X48372213Y-100301697D01*
X48307349Y-100275729D01*
X48266820Y-100218815D01*
X48260000Y-100178258D01*
X48260000Y-99293013D01*
X48279685Y-99225974D01*
X48332489Y-99180219D01*
X48401647Y-99170275D01*
X48456886Y-99192696D01*
X48594401Y-99292608D01*
X48594402Y-99292609D01*
X48594404Y-99292610D01*
X48594407Y-99292612D01*
X48757733Y-99365329D01*
X48932609Y-99402500D01*
X48932610Y-99402500D01*
X49111389Y-99402500D01*
X49111391Y-99402500D01*
X49286267Y-99365329D01*
X49449593Y-99292612D01*
X49594230Y-99187526D01*
X49599508Y-99181665D01*
X49620148Y-99158741D01*
X49713859Y-99054665D01*
X49803250Y-98899835D01*
X49858497Y-98729803D01*
X49877185Y-98552000D01*
X49858497Y-98374197D01*
X49829562Y-98285145D01*
X49803252Y-98204170D01*
X49803249Y-98204164D01*
X49713859Y-98049335D01*
X49651042Y-97979570D01*
X49594235Y-97916478D01*
X49594232Y-97916476D01*
X49594231Y-97916475D01*
X49594230Y-97916474D01*
X49449593Y-97811388D01*
X49286267Y-97738671D01*
X49286265Y-97738670D01*
X49158594Y-97711533D01*
X49111391Y-97701500D01*
X48932609Y-97701500D01*
X48905543Y-97707253D01*
X48757733Y-97738670D01*
X48757728Y-97738672D01*
X48594408Y-97811388D01*
X48594403Y-97811390D01*
X48456885Y-97911304D01*
X48391079Y-97934784D01*
X48323025Y-97918959D01*
X48274330Y-97868853D01*
X48260000Y-97810986D01*
X48260000Y-97028000D01*
X49563815Y-97028000D01*
X49582503Y-97205805D01*
X49582504Y-97205807D01*
X49637747Y-97375829D01*
X49637750Y-97375835D01*
X49727141Y-97530665D01*
X49760646Y-97567876D01*
X49846764Y-97663521D01*
X49846767Y-97663523D01*
X49846770Y-97663526D01*
X49991407Y-97768612D01*
X50154733Y-97841329D01*
X50329609Y-97878500D01*
X50329610Y-97878500D01*
X50508389Y-97878500D01*
X50508391Y-97878500D01*
X50683267Y-97841329D01*
X50846593Y-97768612D01*
X50991230Y-97663526D01*
X51110859Y-97530665D01*
X51200250Y-97375835D01*
X51255497Y-97205803D01*
X51274185Y-97028000D01*
X51255497Y-96850197D01*
X51200250Y-96680165D01*
X51110859Y-96525335D01*
X51064003Y-96473296D01*
X50991235Y-96392478D01*
X50991232Y-96392476D01*
X50991231Y-96392475D01*
X50991230Y-96392474D01*
X50846593Y-96287388D01*
X50683267Y-96214671D01*
X50683265Y-96214670D01*
X50555594Y-96187533D01*
X50508391Y-96177500D01*
X50329609Y-96177500D01*
X50298954Y-96184015D01*
X50154733Y-96214670D01*
X50154728Y-96214672D01*
X49991408Y-96287387D01*
X49846768Y-96392475D01*
X49727140Y-96525336D01*
X49637750Y-96680164D01*
X49637747Y-96680170D01*
X49582504Y-96850192D01*
X49582503Y-96850194D01*
X49563815Y-97028000D01*
X48260000Y-97028000D01*
X48260000Y-95472135D01*
X54379500Y-95472135D01*
X54379500Y-97567870D01*
X54379501Y-97567876D01*
X54385908Y-97627483D01*
X54436202Y-97762328D01*
X54436206Y-97762335D01*
X54522452Y-97877544D01*
X54522455Y-97877547D01*
X54637664Y-97963793D01*
X54637671Y-97963797D01*
X54772517Y-98014091D01*
X54772516Y-98014091D01*
X54779444Y-98014835D01*
X54832127Y-98020500D01*
X56927872Y-98020499D01*
X56987483Y-98014091D01*
X57122331Y-97963796D01*
X57237546Y-97877546D01*
X57323796Y-97762331D01*
X57323797Y-97762326D01*
X57328047Y-97754546D01*
X57331288Y-97756316D01*
X57362541Y-97714393D01*
X57427956Y-97689844D01*
X57496259Y-97704558D01*
X57513212Y-97715655D01*
X57596491Y-97780474D01*
X57815190Y-97898828D01*
X58050386Y-97979571D01*
X58295665Y-98020500D01*
X58544335Y-98020500D01*
X58789614Y-97979571D01*
X59024810Y-97898828D01*
X59243509Y-97780474D01*
X59439744Y-97627738D01*
X59598771Y-97454988D01*
X59658657Y-97418999D01*
X59728495Y-97421099D01*
X59781228Y-97454988D01*
X59940256Y-97627738D01*
X59940259Y-97627740D01*
X59940262Y-97627743D01*
X59969555Y-97650543D01*
X60010368Y-97707253D01*
X60014043Y-97777026D01*
X59979411Y-97837709D01*
X59939153Y-97861866D01*
X59939670Y-97863027D01*
X59770408Y-97938387D01*
X59625768Y-98043475D01*
X59506140Y-98176336D01*
X59416750Y-98331164D01*
X59416747Y-98331170D01*
X59361504Y-98501192D01*
X59361503Y-98501194D01*
X59342815Y-98679000D01*
X59361503Y-98856805D01*
X59361504Y-98856807D01*
X59416747Y-99026829D01*
X59416750Y-99026835D01*
X59506141Y-99181665D01*
X59546037Y-99225974D01*
X59625764Y-99314521D01*
X59625767Y-99314523D01*
X59625770Y-99314526D01*
X59770407Y-99419612D01*
X59933733Y-99492329D01*
X60108609Y-99529500D01*
X60108610Y-99529500D01*
X60287389Y-99529500D01*
X60287391Y-99529500D01*
X60462267Y-99492329D01*
X60625593Y-99419612D01*
X60770230Y-99314526D01*
X60780786Y-99302803D01*
X60811674Y-99268498D01*
X60889859Y-99181665D01*
X60922575Y-99125000D01*
X64803815Y-99125000D01*
X64822503Y-99302805D01*
X64822504Y-99302807D01*
X64877747Y-99472829D01*
X64877750Y-99472835D01*
X64967141Y-99627665D01*
X65008812Y-99673946D01*
X65086764Y-99760521D01*
X65086767Y-99760523D01*
X65086770Y-99760526D01*
X65231407Y-99865612D01*
X65394733Y-99938329D01*
X65569609Y-99975500D01*
X65569610Y-99975500D01*
X65748389Y-99975500D01*
X65748391Y-99975500D01*
X65923267Y-99938329D01*
X66086593Y-99865612D01*
X66231230Y-99760526D01*
X66350859Y-99627665D01*
X66440250Y-99472835D01*
X66495497Y-99302803D01*
X66514185Y-99125000D01*
X66495497Y-98947197D01*
X66440250Y-98777165D01*
X66357002Y-98632975D01*
X69202791Y-98632975D01*
X69221479Y-98810780D01*
X69221480Y-98810782D01*
X69276723Y-98980804D01*
X69276726Y-98980810D01*
X69366117Y-99135640D01*
X69397303Y-99170275D01*
X69485740Y-99268496D01*
X69485743Y-99268498D01*
X69485746Y-99268501D01*
X69630383Y-99373587D01*
X69793709Y-99446304D01*
X69968585Y-99483475D01*
X69968586Y-99483475D01*
X70147365Y-99483475D01*
X70147367Y-99483475D01*
X70322243Y-99446304D01*
X70485569Y-99373587D01*
X70630206Y-99268501D01*
X70703590Y-99187000D01*
X71153815Y-99187000D01*
X71172503Y-99364805D01*
X71172504Y-99364807D01*
X71227747Y-99534829D01*
X71227750Y-99534835D01*
X71317141Y-99689665D01*
X71356610Y-99733500D01*
X71436764Y-99822521D01*
X71436767Y-99822523D01*
X71436770Y-99822526D01*
X71581407Y-99927612D01*
X71744733Y-100000329D01*
X71919609Y-100037500D01*
X71919610Y-100037500D01*
X72098389Y-100037500D01*
X72098391Y-100037500D01*
X72273267Y-100000329D01*
X72436593Y-99927612D01*
X72581230Y-99822526D01*
X72700859Y-99689665D01*
X72790250Y-99534835D01*
X72845497Y-99364803D01*
X72864185Y-99187000D01*
X72845497Y-99009197D01*
X72809961Y-98899829D01*
X72790252Y-98839170D01*
X72790249Y-98839164D01*
X72773863Y-98810782D01*
X72700859Y-98684335D01*
X72645034Y-98622335D01*
X72581235Y-98551478D01*
X72581232Y-98551476D01*
X72581231Y-98551475D01*
X72581230Y-98551474D01*
X72436593Y-98446388D01*
X72273267Y-98373671D01*
X72273265Y-98373670D01*
X72145594Y-98346533D01*
X72098391Y-98336500D01*
X71919609Y-98336500D01*
X71888954Y-98343015D01*
X71744733Y-98373670D01*
X71744728Y-98373672D01*
X71581408Y-98446387D01*
X71436768Y-98551475D01*
X71317140Y-98684336D01*
X71227750Y-98839164D01*
X71227747Y-98839170D01*
X71172504Y-99009192D01*
X71172503Y-99009194D01*
X71153815Y-99187000D01*
X70703590Y-99187000D01*
X70749835Y-99135640D01*
X70839226Y-98980810D01*
X70894473Y-98810778D01*
X70913161Y-98632975D01*
X70894473Y-98455172D01*
X70854182Y-98331170D01*
X70839228Y-98285145D01*
X70839225Y-98285139D01*
X70792475Y-98204165D01*
X70749835Y-98130310D01*
X70697848Y-98072573D01*
X70630211Y-97997453D01*
X70630208Y-97997451D01*
X70630207Y-97997450D01*
X70630206Y-97997449D01*
X70485569Y-97892363D01*
X70322243Y-97819646D01*
X70322241Y-97819645D01*
X70194570Y-97792508D01*
X70147367Y-97782475D01*
X69968585Y-97782475D01*
X69937930Y-97788990D01*
X69793709Y-97819645D01*
X69793704Y-97819647D01*
X69630384Y-97892362D01*
X69485744Y-97997450D01*
X69366116Y-98130311D01*
X69276726Y-98285139D01*
X69276723Y-98285145D01*
X69221480Y-98455167D01*
X69221479Y-98455169D01*
X69202791Y-98632975D01*
X66357002Y-98632975D01*
X66350859Y-98622335D01*
X66287056Y-98551475D01*
X66231235Y-98489478D01*
X66231232Y-98489476D01*
X66231231Y-98489475D01*
X66231230Y-98489474D01*
X66086593Y-98384388D01*
X65923267Y-98311671D01*
X65923265Y-98311670D01*
X65795594Y-98284533D01*
X65748391Y-98274500D01*
X65569609Y-98274500D01*
X65538954Y-98281015D01*
X65394733Y-98311670D01*
X65394728Y-98311672D01*
X65231408Y-98384387D01*
X65086768Y-98489475D01*
X64967140Y-98622336D01*
X64877750Y-98777164D01*
X64877747Y-98777170D01*
X64822504Y-98947192D01*
X64822503Y-98947194D01*
X64803815Y-99125000D01*
X60922575Y-99125000D01*
X60979250Y-99026835D01*
X61034497Y-98856803D01*
X61053185Y-98679000D01*
X61034497Y-98501197D01*
X60993231Y-98374194D01*
X60979252Y-98331170D01*
X60979249Y-98331164D01*
X60967995Y-98311672D01*
X60907275Y-98206500D01*
X60890802Y-98138599D01*
X60913655Y-98072573D01*
X60968576Y-98029382D01*
X61014662Y-98020500D01*
X61084335Y-98020500D01*
X61329614Y-97979571D01*
X61564810Y-97898828D01*
X61783509Y-97780474D01*
X61979744Y-97627738D01*
X62138771Y-97454988D01*
X62198657Y-97418999D01*
X62268495Y-97421099D01*
X62321228Y-97454988D01*
X62480256Y-97627738D01*
X62676491Y-97780474D01*
X62676493Y-97780475D01*
X62883245Y-97892364D01*
X62895190Y-97898828D01*
X63130386Y-97979571D01*
X63375665Y-98020500D01*
X63624335Y-98020500D01*
X63869614Y-97979571D01*
X64104810Y-97898828D01*
X64323509Y-97780474D01*
X64519744Y-97627738D01*
X64678771Y-97454988D01*
X64738657Y-97418999D01*
X64808495Y-97421099D01*
X64861228Y-97454988D01*
X65020256Y-97627738D01*
X65216491Y-97780474D01*
X65216493Y-97780475D01*
X65423245Y-97892364D01*
X65435190Y-97898828D01*
X65670386Y-97979571D01*
X65915665Y-98020500D01*
X66164335Y-98020500D01*
X66409614Y-97979571D01*
X66644810Y-97898828D01*
X66863509Y-97780474D01*
X67059744Y-97627738D01*
X67228164Y-97444785D01*
X67364173Y-97236607D01*
X67464063Y-97008881D01*
X67525108Y-96767821D01*
X67532371Y-96680170D01*
X67545643Y-96520005D01*
X67545643Y-96519994D01*
X67525109Y-96272187D01*
X67525107Y-96272175D01*
X67464063Y-96031118D01*
X67364173Y-95803393D01*
X67228166Y-95595217D01*
X67206557Y-95571744D01*
X67059744Y-95412262D01*
X66863509Y-95259526D01*
X66863507Y-95259525D01*
X66863506Y-95259524D01*
X66644811Y-95141172D01*
X66644802Y-95141169D01*
X66409616Y-95060429D01*
X66164335Y-95019500D01*
X65915665Y-95019500D01*
X65670383Y-95060429D01*
X65435197Y-95141169D01*
X65435188Y-95141172D01*
X65216493Y-95259524D01*
X65020257Y-95412261D01*
X64861230Y-95585010D01*
X64801342Y-95621001D01*
X64731504Y-95618900D01*
X64678770Y-95585010D01*
X64639108Y-95541926D01*
X64519744Y-95412262D01*
X64323509Y-95259526D01*
X64323507Y-95259525D01*
X64323506Y-95259524D01*
X64104811Y-95141172D01*
X64104802Y-95141169D01*
X63869616Y-95060429D01*
X63624335Y-95019500D01*
X63375665Y-95019500D01*
X63130383Y-95060429D01*
X62895197Y-95141169D01*
X62895188Y-95141172D01*
X62676493Y-95259524D01*
X62480257Y-95412261D01*
X62321230Y-95585010D01*
X62261342Y-95621001D01*
X62191504Y-95618900D01*
X62138770Y-95585010D01*
X62099108Y-95541926D01*
X61979744Y-95412262D01*
X61783509Y-95259526D01*
X61783507Y-95259525D01*
X61783506Y-95259524D01*
X61564811Y-95141172D01*
X61564802Y-95141169D01*
X61329616Y-95060429D01*
X61084335Y-95019500D01*
X60835665Y-95019500D01*
X60590383Y-95060429D01*
X60355197Y-95141169D01*
X60355188Y-95141172D01*
X60136493Y-95259524D01*
X59940257Y-95412261D01*
X59781230Y-95585010D01*
X59721342Y-95621001D01*
X59651504Y-95618900D01*
X59598770Y-95585010D01*
X59559108Y-95541926D01*
X59439744Y-95412262D01*
X59243509Y-95259526D01*
X59243507Y-95259525D01*
X59243506Y-95259524D01*
X59024811Y-95141172D01*
X59024802Y-95141169D01*
X58789616Y-95060429D01*
X58544335Y-95019500D01*
X58295665Y-95019500D01*
X58050383Y-95060429D01*
X57815197Y-95141169D01*
X57815188Y-95141172D01*
X57596491Y-95259525D01*
X57596488Y-95259528D01*
X57513212Y-95324343D01*
X57448218Y-95349985D01*
X57379678Y-95336418D01*
X57329354Y-95287949D01*
X57328159Y-95285392D01*
X57328047Y-95285454D01*
X57323793Y-95277664D01*
X57237547Y-95162455D01*
X57237544Y-95162452D01*
X57122335Y-95076206D01*
X57122328Y-95076202D01*
X56987482Y-95025908D01*
X56987483Y-95025908D01*
X56927883Y-95019501D01*
X56927881Y-95019500D01*
X56927873Y-95019500D01*
X56927864Y-95019500D01*
X54832129Y-95019500D01*
X54832123Y-95019501D01*
X54772516Y-95025908D01*
X54637671Y-95076202D01*
X54637664Y-95076206D01*
X54522455Y-95162452D01*
X54522452Y-95162455D01*
X54436206Y-95277664D01*
X54436202Y-95277671D01*
X54385908Y-95412517D01*
X54379501Y-95472116D01*
X54379500Y-95472135D01*
X48260000Y-95472135D01*
X48260000Y-94107000D01*
X72042815Y-94107000D01*
X72061503Y-94284805D01*
X72061504Y-94284807D01*
X72116747Y-94454829D01*
X72116750Y-94454835D01*
X72206141Y-94609665D01*
X72247812Y-94655946D01*
X72325764Y-94742521D01*
X72325767Y-94742523D01*
X72325770Y-94742526D01*
X72470407Y-94847612D01*
X72633733Y-94920329D01*
X72808609Y-94957500D01*
X72808610Y-94957500D01*
X72987389Y-94957500D01*
X72987391Y-94957500D01*
X73162267Y-94920329D01*
X73325593Y-94847612D01*
X73470230Y-94742526D01*
X73589859Y-94609665D01*
X73679250Y-94454835D01*
X73734497Y-94284803D01*
X73753185Y-94107000D01*
X73734497Y-93929197D01*
X73679250Y-93759165D01*
X73589859Y-93604335D01*
X73543003Y-93552296D01*
X73470235Y-93471478D01*
X73470232Y-93471476D01*
X73470231Y-93471475D01*
X73470230Y-93471474D01*
X73325593Y-93366388D01*
X73162267Y-93293671D01*
X73162265Y-93293670D01*
X73034594Y-93266533D01*
X72987391Y-93256500D01*
X72808609Y-93256500D01*
X72777954Y-93263015D01*
X72633733Y-93293670D01*
X72633728Y-93293672D01*
X72470408Y-93366387D01*
X72325768Y-93471475D01*
X72206140Y-93604336D01*
X72116750Y-93759164D01*
X72116747Y-93759170D01*
X72061504Y-93929192D01*
X72061503Y-93929194D01*
X72042815Y-94107000D01*
X48260000Y-94107000D01*
X48260000Y-89867135D01*
X50074500Y-89867135D01*
X50074500Y-91762870D01*
X50074501Y-91762876D01*
X50080908Y-91822483D01*
X50131202Y-91957328D01*
X50131206Y-91957335D01*
X50217452Y-92072544D01*
X50217455Y-92072547D01*
X50332664Y-92158793D01*
X50332671Y-92158797D01*
X50467517Y-92209091D01*
X50467516Y-92209091D01*
X50474444Y-92209835D01*
X50527127Y-92215500D01*
X52422872Y-92215499D01*
X52482483Y-92209091D01*
X52617331Y-92158796D01*
X52732546Y-92072546D01*
X52818796Y-91957331D01*
X52837092Y-91908274D01*
X52878961Y-91852342D01*
X52944425Y-91827924D01*
X53012699Y-91842775D01*
X53029436Y-91853755D01*
X53206365Y-91991464D01*
X53206371Y-91991468D01*
X53206374Y-91991470D01*
X53410497Y-92101936D01*
X53524487Y-92141068D01*
X53630015Y-92177297D01*
X53630017Y-92177297D01*
X53630019Y-92177298D01*
X53858951Y-92215500D01*
X53858952Y-92215500D01*
X54091048Y-92215500D01*
X54091049Y-92215500D01*
X54319981Y-92177298D01*
X54539503Y-92101936D01*
X54743626Y-91991470D01*
X54926784Y-91848913D01*
X55083979Y-91678153D01*
X55121191Y-91621196D01*
X55174337Y-91575839D01*
X55243569Y-91566415D01*
X55306904Y-91595917D01*
X55328809Y-91621196D01*
X55366016Y-91678147D01*
X55366019Y-91678151D01*
X55366021Y-91678153D01*
X55523216Y-91848913D01*
X55523219Y-91848915D01*
X55523222Y-91848918D01*
X55706365Y-91991464D01*
X55706371Y-91991468D01*
X55706374Y-91991470D01*
X55910497Y-92101936D01*
X56024487Y-92141068D01*
X56130015Y-92177297D01*
X56130017Y-92177297D01*
X56130019Y-92177298D01*
X56358951Y-92215500D01*
X56358952Y-92215500D01*
X56591048Y-92215500D01*
X56591049Y-92215500D01*
X56819981Y-92177298D01*
X57039503Y-92101936D01*
X57243626Y-91991470D01*
X57426784Y-91848913D01*
X57583979Y-91678153D01*
X57710924Y-91483849D01*
X57804157Y-91271300D01*
X57861134Y-91046305D01*
X57880300Y-90815000D01*
X57880300Y-90814993D01*
X57861135Y-90583702D01*
X57861133Y-90583691D01*
X57804157Y-90358699D01*
X57710924Y-90146151D01*
X57583983Y-89951852D01*
X57583980Y-89951849D01*
X57583979Y-89951847D01*
X57505996Y-89867135D01*
X65949500Y-89867135D01*
X65949500Y-91762870D01*
X65949501Y-91762876D01*
X65955908Y-91822483D01*
X66006202Y-91957328D01*
X66006206Y-91957335D01*
X66092452Y-92072544D01*
X66092455Y-92072547D01*
X66207664Y-92158793D01*
X66207671Y-92158797D01*
X66342517Y-92209091D01*
X66342516Y-92209091D01*
X66349444Y-92209835D01*
X66402127Y-92215500D01*
X68297872Y-92215499D01*
X68357483Y-92209091D01*
X68492331Y-92158796D01*
X68607546Y-92072546D01*
X68693796Y-91957331D01*
X68712092Y-91908274D01*
X68753961Y-91852342D01*
X68819425Y-91827924D01*
X68887699Y-91842775D01*
X68904436Y-91853755D01*
X69081365Y-91991464D01*
X69081371Y-91991468D01*
X69081374Y-91991470D01*
X69285497Y-92101936D01*
X69399487Y-92141068D01*
X69505015Y-92177297D01*
X69505017Y-92177297D01*
X69505019Y-92177298D01*
X69733951Y-92215500D01*
X69733952Y-92215500D01*
X69966048Y-92215500D01*
X69966049Y-92215500D01*
X70194981Y-92177298D01*
X70414503Y-92101936D01*
X70618626Y-91991470D01*
X70801784Y-91848913D01*
X70958979Y-91678153D01*
X70996191Y-91621196D01*
X71049337Y-91575839D01*
X71118569Y-91566415D01*
X71181904Y-91595917D01*
X71203809Y-91621196D01*
X71241016Y-91678147D01*
X71241019Y-91678151D01*
X71241021Y-91678153D01*
X71398216Y-91848913D01*
X71398219Y-91848915D01*
X71398222Y-91848918D01*
X71581365Y-91991464D01*
X71581371Y-91991468D01*
X71581374Y-91991470D01*
X71785497Y-92101936D01*
X71899487Y-92141068D01*
X72005015Y-92177297D01*
X72005017Y-92177297D01*
X72005019Y-92177298D01*
X72233951Y-92215500D01*
X72233952Y-92215500D01*
X72466048Y-92215500D01*
X72466049Y-92215500D01*
X72694981Y-92177298D01*
X72914503Y-92101936D01*
X73118626Y-91991470D01*
X73301784Y-91848913D01*
X73458979Y-91678153D01*
X73585924Y-91483849D01*
X73679157Y-91271300D01*
X73736134Y-91046305D01*
X73755300Y-90815000D01*
X73755300Y-90814993D01*
X73736135Y-90583702D01*
X73736133Y-90583691D01*
X73679157Y-90358699D01*
X73585924Y-90146151D01*
X73458983Y-89951852D01*
X73458980Y-89951849D01*
X73458979Y-89951847D01*
X73301784Y-89781087D01*
X73301779Y-89781083D01*
X73301777Y-89781081D01*
X73118634Y-89638535D01*
X73118628Y-89638531D01*
X72914504Y-89528064D01*
X72914495Y-89528061D01*
X72694984Y-89452702D01*
X72504450Y-89420908D01*
X72466049Y-89414500D01*
X72233951Y-89414500D01*
X72195550Y-89420908D01*
X72005015Y-89452702D01*
X71785504Y-89528061D01*
X71785495Y-89528064D01*
X71581371Y-89638531D01*
X71581365Y-89638535D01*
X71398222Y-89781081D01*
X71398219Y-89781084D01*
X71398216Y-89781086D01*
X71398216Y-89781087D01*
X71250500Y-89941551D01*
X71241015Y-89951854D01*
X71203808Y-90008804D01*
X71150662Y-90054161D01*
X71081430Y-90063584D01*
X71018095Y-90034082D01*
X70996192Y-90008804D01*
X70958984Y-89951854D01*
X70958982Y-89951852D01*
X70958979Y-89951847D01*
X70801784Y-89781087D01*
X70801779Y-89781083D01*
X70801777Y-89781081D01*
X70618634Y-89638535D01*
X70618628Y-89638531D01*
X70414504Y-89528064D01*
X70414495Y-89528061D01*
X70194984Y-89452702D01*
X70004450Y-89420908D01*
X69966049Y-89414500D01*
X69733951Y-89414500D01*
X69695550Y-89420908D01*
X69505015Y-89452702D01*
X69285504Y-89528061D01*
X69285495Y-89528064D01*
X69081372Y-89638531D01*
X68904436Y-89776245D01*
X68839442Y-89801887D01*
X68770902Y-89788320D01*
X68720577Y-89739852D01*
X68712092Y-89721723D01*
X68693798Y-89672673D01*
X68693793Y-89672664D01*
X68607547Y-89557455D01*
X68607544Y-89557452D01*
X68492335Y-89471206D01*
X68492328Y-89471202D01*
X68357482Y-89420908D01*
X68357483Y-89420908D01*
X68297883Y-89414501D01*
X68297881Y-89414500D01*
X68297873Y-89414500D01*
X68297864Y-89414500D01*
X66402129Y-89414500D01*
X66402123Y-89414501D01*
X66342516Y-89420908D01*
X66207671Y-89471202D01*
X66207664Y-89471206D01*
X66092455Y-89557452D01*
X66092452Y-89557455D01*
X66006206Y-89672664D01*
X66006202Y-89672671D01*
X65955908Y-89807517D01*
X65949501Y-89867116D01*
X65949500Y-89867135D01*
X57505996Y-89867135D01*
X57426784Y-89781087D01*
X57426779Y-89781083D01*
X57426777Y-89781081D01*
X57243634Y-89638535D01*
X57243628Y-89638531D01*
X57039504Y-89528064D01*
X57039495Y-89528061D01*
X56819984Y-89452702D01*
X56629450Y-89420908D01*
X56591049Y-89414500D01*
X56358951Y-89414500D01*
X56320550Y-89420908D01*
X56130015Y-89452702D01*
X55910504Y-89528061D01*
X55910495Y-89528064D01*
X55706371Y-89638531D01*
X55706365Y-89638535D01*
X55523222Y-89781081D01*
X55523219Y-89781084D01*
X55523216Y-89781086D01*
X55523216Y-89781087D01*
X55375500Y-89941551D01*
X55366015Y-89951854D01*
X55328808Y-90008804D01*
X55275662Y-90054161D01*
X55206430Y-90063584D01*
X55143095Y-90034082D01*
X55121192Y-90008804D01*
X55083984Y-89951854D01*
X55083982Y-89951852D01*
X55083979Y-89951847D01*
X54926784Y-89781087D01*
X54926779Y-89781083D01*
X54926777Y-89781081D01*
X54743634Y-89638535D01*
X54743628Y-89638531D01*
X54539504Y-89528064D01*
X54539495Y-89528061D01*
X54319984Y-89452702D01*
X54129450Y-89420908D01*
X54091049Y-89414500D01*
X53858951Y-89414500D01*
X53820550Y-89420908D01*
X53630015Y-89452702D01*
X53410504Y-89528061D01*
X53410495Y-89528064D01*
X53206372Y-89638531D01*
X53029436Y-89776245D01*
X52964442Y-89801887D01*
X52895902Y-89788320D01*
X52845577Y-89739852D01*
X52837092Y-89721723D01*
X52818798Y-89672673D01*
X52818793Y-89672664D01*
X52732547Y-89557455D01*
X52732544Y-89557452D01*
X52617335Y-89471206D01*
X52617328Y-89471202D01*
X52482482Y-89420908D01*
X52482483Y-89420908D01*
X52422883Y-89414501D01*
X52422881Y-89414500D01*
X52422873Y-89414500D01*
X52422864Y-89414500D01*
X50527129Y-89414500D01*
X50527123Y-89414501D01*
X50467516Y-89420908D01*
X50332671Y-89471202D01*
X50332664Y-89471206D01*
X50217455Y-89557452D01*
X50217452Y-89557455D01*
X50131206Y-89672664D01*
X50131202Y-89672671D01*
X50080908Y-89807517D01*
X50074501Y-89867116D01*
X50074500Y-89867135D01*
X48260000Y-89867135D01*
X48260000Y-88265000D01*
X65184815Y-88265000D01*
X65203503Y-88442805D01*
X65203504Y-88442807D01*
X65258747Y-88612829D01*
X65258750Y-88612835D01*
X65348141Y-88767665D01*
X65389812Y-88813946D01*
X65467764Y-88900521D01*
X65467767Y-88900523D01*
X65467770Y-88900526D01*
X65612407Y-89005612D01*
X65775733Y-89078329D01*
X65950609Y-89115500D01*
X65950610Y-89115500D01*
X66129389Y-89115500D01*
X66129391Y-89115500D01*
X66304267Y-89078329D01*
X66467593Y-89005612D01*
X66612230Y-88900526D01*
X66731859Y-88767665D01*
X66821250Y-88612835D01*
X66876497Y-88442803D01*
X66895185Y-88265000D01*
X66876497Y-88087197D01*
X66821250Y-87917165D01*
X66731859Y-87762335D01*
X66685003Y-87710296D01*
X66612235Y-87629478D01*
X66612232Y-87629476D01*
X66612231Y-87629475D01*
X66612230Y-87629474D01*
X66467593Y-87524388D01*
X66304267Y-87451671D01*
X66304265Y-87451670D01*
X66176594Y-87424533D01*
X66129391Y-87414500D01*
X65950609Y-87414500D01*
X65919954Y-87421015D01*
X65775733Y-87451670D01*
X65775728Y-87451672D01*
X65612408Y-87524387D01*
X65467768Y-87629475D01*
X65348140Y-87762336D01*
X65258750Y-87917164D01*
X65258747Y-87917170D01*
X65203504Y-88087192D01*
X65203503Y-88087194D01*
X65184815Y-88265000D01*
X48260000Y-88265000D01*
X48260000Y-85395364D01*
X48279685Y-85328325D01*
X48332489Y-85282570D01*
X48401647Y-85272626D01*
X48431449Y-85280801D01*
X48575679Y-85340544D01*
X48811256Y-85403666D01*
X49053056Y-85435500D01*
X49053063Y-85435500D01*
X49296937Y-85435500D01*
X49296944Y-85435500D01*
X49538744Y-85403666D01*
X49774321Y-85340544D01*
X49999644Y-85247212D01*
X50210856Y-85125268D01*
X50404345Y-84976799D01*
X50576799Y-84804345D01*
X50725268Y-84610856D01*
X50847212Y-84399644D01*
X50940544Y-84174321D01*
X51003666Y-83938744D01*
X51035500Y-83696944D01*
X51035500Y-82933056D01*
X51003666Y-82691256D01*
X50965815Y-82549993D01*
X54474700Y-82549993D01*
X54474700Y-82550006D01*
X54493864Y-82781297D01*
X54493866Y-82781308D01*
X54550842Y-83006300D01*
X54644075Y-83218848D01*
X54771016Y-83413147D01*
X54771019Y-83413151D01*
X54771021Y-83413153D01*
X54928216Y-83583913D01*
X54928219Y-83583915D01*
X54928222Y-83583918D01*
X55105818Y-83722147D01*
X55146631Y-83778857D01*
X55150306Y-83848630D01*
X55115674Y-83909313D01*
X55105818Y-83917853D01*
X54928222Y-84056081D01*
X54928219Y-84056084D01*
X54771016Y-84226852D01*
X54644075Y-84421151D01*
X54550842Y-84633699D01*
X54493866Y-84858691D01*
X54493864Y-84858702D01*
X54474700Y-85089993D01*
X54474700Y-85090006D01*
X54493864Y-85321297D01*
X54493866Y-85321308D01*
X54550842Y-85546300D01*
X54644075Y-85758848D01*
X54771016Y-85953147D01*
X54771019Y-85953151D01*
X54771021Y-85953153D01*
X54928216Y-86123913D01*
X54928219Y-86123915D01*
X54928222Y-86123918D01*
X55111365Y-86266464D01*
X55111371Y-86266468D01*
X55111374Y-86266470D01*
X55315497Y-86376936D01*
X55429487Y-86416068D01*
X55535015Y-86452297D01*
X55535017Y-86452297D01*
X55535019Y-86452298D01*
X55763951Y-86490500D01*
X55763952Y-86490500D01*
X55996048Y-86490500D01*
X55996049Y-86490500D01*
X56224981Y-86452298D01*
X56444503Y-86376936D01*
X56648626Y-86266470D01*
X56831784Y-86123913D01*
X56988979Y-85953153D01*
X57115924Y-85758849D01*
X57209157Y-85546300D01*
X57266134Y-85321305D01*
X57270168Y-85272626D01*
X57285300Y-85090006D01*
X57285300Y-85089994D01*
X57279484Y-85019807D01*
X57293565Y-84951371D01*
X57342410Y-84901412D01*
X57410511Y-84885791D01*
X57476246Y-84909468D01*
X57490741Y-84921886D01*
X57545649Y-84976794D01*
X57545655Y-84976799D01*
X57739144Y-85125268D01*
X57739151Y-85125272D01*
X57950348Y-85247208D01*
X57950353Y-85247210D01*
X57950356Y-85247212D01*
X58175679Y-85340544D01*
X58411256Y-85403666D01*
X58653056Y-85435500D01*
X58653063Y-85435500D01*
X58896937Y-85435500D01*
X58896944Y-85435500D01*
X59138744Y-85403666D01*
X59374321Y-85340544D01*
X59599644Y-85247212D01*
X59810856Y-85125268D01*
X60004345Y-84976799D01*
X60176799Y-84804345D01*
X60325268Y-84610856D01*
X60447212Y-84399644D01*
X60540544Y-84174321D01*
X60603666Y-83938744D01*
X60635500Y-83696944D01*
X60635500Y-82933056D01*
X60635499Y-82933048D01*
X63189500Y-82933048D01*
X63189500Y-83696951D01*
X63209470Y-83848630D01*
X63221334Y-83938744D01*
X63252776Y-84056087D01*
X63284456Y-84174320D01*
X63284459Y-84174330D01*
X63377786Y-84399640D01*
X63377791Y-84399651D01*
X63499727Y-84610848D01*
X63499738Y-84610864D01*
X63648199Y-84804343D01*
X63648205Y-84804350D01*
X63820649Y-84976794D01*
X63820655Y-84976799D01*
X64014144Y-85125268D01*
X64014151Y-85125272D01*
X64225348Y-85247208D01*
X64225353Y-85247210D01*
X64225356Y-85247212D01*
X64450679Y-85340544D01*
X64686256Y-85403666D01*
X64928056Y-85435500D01*
X64928063Y-85435500D01*
X65171937Y-85435500D01*
X65171944Y-85435500D01*
X65413744Y-85403666D01*
X65649321Y-85340544D01*
X65874644Y-85247212D01*
X66085856Y-85125268D01*
X66279345Y-84976799D01*
X66451799Y-84804345D01*
X66600268Y-84610856D01*
X66722212Y-84399644D01*
X66815544Y-84174321D01*
X66878666Y-83938744D01*
X66910500Y-83696944D01*
X66910500Y-82933056D01*
X66878666Y-82691256D01*
X66840815Y-82549993D01*
X67174700Y-82549993D01*
X67174700Y-82550006D01*
X67193864Y-82781297D01*
X67193866Y-82781308D01*
X67250842Y-83006300D01*
X67344075Y-83218848D01*
X67471016Y-83413147D01*
X67471019Y-83413151D01*
X67471021Y-83413153D01*
X67628216Y-83583913D01*
X67628219Y-83583915D01*
X67628222Y-83583918D01*
X67805818Y-83722147D01*
X67846631Y-83778857D01*
X67850306Y-83848630D01*
X67815674Y-83909313D01*
X67805818Y-83917853D01*
X67628222Y-84056081D01*
X67628219Y-84056084D01*
X67471016Y-84226852D01*
X67344075Y-84421151D01*
X67250842Y-84633699D01*
X67193866Y-84858691D01*
X67193864Y-84858702D01*
X67174700Y-85089993D01*
X67174700Y-85090006D01*
X67193864Y-85321297D01*
X67193866Y-85321308D01*
X67250842Y-85546300D01*
X67344075Y-85758848D01*
X67471016Y-85953147D01*
X67471019Y-85953151D01*
X67471021Y-85953153D01*
X67628216Y-86123913D01*
X67628219Y-86123915D01*
X67628222Y-86123918D01*
X67811365Y-86266464D01*
X67811371Y-86266468D01*
X67811374Y-86266470D01*
X68015497Y-86376936D01*
X68129487Y-86416068D01*
X68235015Y-86452297D01*
X68235017Y-86452297D01*
X68235019Y-86452298D01*
X68463951Y-86490500D01*
X68463952Y-86490500D01*
X68696048Y-86490500D01*
X68696049Y-86490500D01*
X68924981Y-86452298D01*
X69144503Y-86376936D01*
X69348626Y-86266470D01*
X69531784Y-86123913D01*
X69688979Y-85953153D01*
X69815924Y-85758849D01*
X69909157Y-85546300D01*
X69966134Y-85321305D01*
X69970168Y-85272626D01*
X69985300Y-85090006D01*
X69985300Y-85089993D01*
X69966135Y-84858702D01*
X69966133Y-84858691D01*
X69909157Y-84633699D01*
X69815924Y-84421151D01*
X69688983Y-84226852D01*
X69688980Y-84226849D01*
X69688979Y-84226847D01*
X69531784Y-84056087D01*
X69354180Y-83917853D01*
X69313368Y-83861143D01*
X69309693Y-83791370D01*
X69344324Y-83730687D01*
X69354181Y-83722146D01*
X69531784Y-83583913D01*
X69688979Y-83413153D01*
X69815924Y-83218849D01*
X69909157Y-83006300D01*
X69966134Y-82781305D01*
X69973595Y-82691264D01*
X69985300Y-82550006D01*
X69985300Y-82549993D01*
X69966135Y-82318702D01*
X69966133Y-82318691D01*
X69909157Y-82093699D01*
X69815924Y-81881151D01*
X69688983Y-81686852D01*
X69688980Y-81686849D01*
X69688979Y-81686847D01*
X69531784Y-81516087D01*
X69531779Y-81516083D01*
X69531777Y-81516081D01*
X69348634Y-81373535D01*
X69348628Y-81373531D01*
X69144504Y-81263064D01*
X69144495Y-81263061D01*
X68924984Y-81187702D01*
X68753282Y-81159050D01*
X68696049Y-81149500D01*
X68463951Y-81149500D01*
X68418164Y-81157140D01*
X68235015Y-81187702D01*
X68015504Y-81263061D01*
X68015495Y-81263064D01*
X67811371Y-81373531D01*
X67811365Y-81373535D01*
X67628222Y-81516081D01*
X67628219Y-81516084D01*
X67471016Y-81686852D01*
X67344075Y-81881151D01*
X67250842Y-82093699D01*
X67193866Y-82318691D01*
X67193864Y-82318702D01*
X67174700Y-82549993D01*
X66840815Y-82549993D01*
X66815544Y-82455679D01*
X66722212Y-82230356D01*
X66722210Y-82230353D01*
X66722208Y-82230348D01*
X66600272Y-82019151D01*
X66600268Y-82019144D01*
X66538672Y-81938870D01*
X66451800Y-81825656D01*
X66451794Y-81825649D01*
X66279350Y-81653205D01*
X66279343Y-81653199D01*
X66085864Y-81504738D01*
X66085862Y-81504736D01*
X66085856Y-81504732D01*
X66085851Y-81504729D01*
X66085848Y-81504727D01*
X65874651Y-81382791D01*
X65874640Y-81382786D01*
X65649330Y-81289459D01*
X65649323Y-81289457D01*
X65649321Y-81289456D01*
X65413744Y-81226334D01*
X65373333Y-81221013D01*
X65171951Y-81194500D01*
X65171944Y-81194500D01*
X64928056Y-81194500D01*
X64928048Y-81194500D01*
X64697896Y-81224801D01*
X64686256Y-81226334D01*
X64540828Y-81265301D01*
X64450679Y-81289456D01*
X64450669Y-81289459D01*
X64225359Y-81382786D01*
X64225348Y-81382791D01*
X64014151Y-81504727D01*
X64014135Y-81504738D01*
X63820656Y-81653199D01*
X63820649Y-81653205D01*
X63648205Y-81825649D01*
X63648199Y-81825656D01*
X63499738Y-82019135D01*
X63499727Y-82019151D01*
X63377791Y-82230348D01*
X63377786Y-82230359D01*
X63284459Y-82455669D01*
X63284456Y-82455679D01*
X63259182Y-82550006D01*
X63221335Y-82691253D01*
X63221333Y-82691264D01*
X63189500Y-82933048D01*
X60635499Y-82933048D01*
X60603666Y-82691256D01*
X60540544Y-82455679D01*
X60447212Y-82230356D01*
X60447210Y-82230353D01*
X60447208Y-82230348D01*
X60325272Y-82019151D01*
X60325268Y-82019144D01*
X60263672Y-81938870D01*
X60176800Y-81825656D01*
X60176794Y-81825649D01*
X60004350Y-81653205D01*
X60004343Y-81653199D01*
X59810864Y-81504738D01*
X59810862Y-81504736D01*
X59810856Y-81504732D01*
X59810851Y-81504729D01*
X59810848Y-81504727D01*
X59599651Y-81382791D01*
X59599640Y-81382786D01*
X59374330Y-81289459D01*
X59374323Y-81289457D01*
X59374321Y-81289456D01*
X59138744Y-81226334D01*
X59098333Y-81221013D01*
X58896951Y-81194500D01*
X58896944Y-81194500D01*
X58653056Y-81194500D01*
X58653048Y-81194500D01*
X58422896Y-81224801D01*
X58411256Y-81226334D01*
X58265828Y-81265301D01*
X58175679Y-81289456D01*
X58175669Y-81289459D01*
X57950359Y-81382786D01*
X57950348Y-81382791D01*
X57739151Y-81504727D01*
X57739135Y-81504738D01*
X57545656Y-81653199D01*
X57545649Y-81653205D01*
X57373205Y-81825649D01*
X57373199Y-81825656D01*
X57321132Y-81893512D01*
X57264704Y-81934715D01*
X57194958Y-81938870D01*
X57134038Y-81904658D01*
X57119513Y-81884931D01*
X57118729Y-81885444D01*
X56988983Y-81686852D01*
X56988980Y-81686849D01*
X56988979Y-81686847D01*
X56831784Y-81516087D01*
X56831779Y-81516083D01*
X56831777Y-81516081D01*
X56648634Y-81373535D01*
X56648628Y-81373531D01*
X56444504Y-81263064D01*
X56444495Y-81263061D01*
X56224984Y-81187702D01*
X56053282Y-81159050D01*
X55996049Y-81149500D01*
X55763951Y-81149500D01*
X55718164Y-81157140D01*
X55535015Y-81187702D01*
X55315504Y-81263061D01*
X55315495Y-81263064D01*
X55111371Y-81373531D01*
X55111365Y-81373535D01*
X54928222Y-81516081D01*
X54928219Y-81516084D01*
X54771016Y-81686852D01*
X54644075Y-81881151D01*
X54550842Y-82093699D01*
X54493866Y-82318691D01*
X54493864Y-82318702D01*
X54474700Y-82549993D01*
X50965815Y-82549993D01*
X50940544Y-82455679D01*
X50847212Y-82230356D01*
X50847210Y-82230353D01*
X50847208Y-82230348D01*
X50725272Y-82019151D01*
X50725268Y-82019144D01*
X50663672Y-81938870D01*
X50576800Y-81825656D01*
X50576794Y-81825649D01*
X50404350Y-81653205D01*
X50404343Y-81653199D01*
X50210864Y-81504738D01*
X50210862Y-81504736D01*
X50210856Y-81504732D01*
X50210851Y-81504729D01*
X50210848Y-81504727D01*
X49999651Y-81382791D01*
X49999640Y-81382786D01*
X49774330Y-81289459D01*
X49774323Y-81289457D01*
X49774321Y-81289456D01*
X49538744Y-81226334D01*
X49498333Y-81221013D01*
X49296951Y-81194500D01*
X49296944Y-81194500D01*
X49053056Y-81194500D01*
X49053048Y-81194500D01*
X48822896Y-81224801D01*
X48811256Y-81226334D01*
X48665828Y-81265301D01*
X48575679Y-81289456D01*
X48575669Y-81289459D01*
X48431453Y-81349196D01*
X48361983Y-81356665D01*
X48299504Y-81325390D01*
X48263852Y-81265301D01*
X48260000Y-81234635D01*
X48260000Y-77851000D01*
X58199815Y-77851000D01*
X58218503Y-78028805D01*
X58218504Y-78028807D01*
X58273747Y-78198829D01*
X58273750Y-78198835D01*
X58363141Y-78353665D01*
X58404812Y-78399946D01*
X58482764Y-78486521D01*
X58482767Y-78486523D01*
X58482770Y-78486526D01*
X58627407Y-78591612D01*
X58790733Y-78664329D01*
X58965609Y-78701500D01*
X58965610Y-78701500D01*
X59144389Y-78701500D01*
X59144391Y-78701500D01*
X59319267Y-78664329D01*
X59482593Y-78591612D01*
X59627230Y-78486526D01*
X59746859Y-78353665D01*
X59836250Y-78198835D01*
X59891497Y-78028803D01*
X59910185Y-77851000D01*
X59891497Y-77673197D01*
X59836250Y-77503165D01*
X59746859Y-77348335D01*
X59700003Y-77296296D01*
X59627235Y-77215478D01*
X59627232Y-77215476D01*
X59627231Y-77215475D01*
X59627230Y-77215474D01*
X59482593Y-77110388D01*
X59319267Y-77037671D01*
X59319265Y-77037670D01*
X59191594Y-77010533D01*
X59144391Y-77000500D01*
X58965609Y-77000500D01*
X58934954Y-77007015D01*
X58790733Y-77037670D01*
X58790728Y-77037672D01*
X58627408Y-77110387D01*
X58482768Y-77215475D01*
X58363140Y-77348336D01*
X58273750Y-77503164D01*
X58273747Y-77503170D01*
X58218504Y-77673192D01*
X58218503Y-77673194D01*
X58199815Y-77851000D01*
X48260000Y-77851000D01*
X48260000Y-76708000D01*
X62771815Y-76708000D01*
X62790503Y-76885805D01*
X62790504Y-76885807D01*
X62845747Y-77055829D01*
X62845750Y-77055835D01*
X62935141Y-77210665D01*
X62939475Y-77215478D01*
X63054764Y-77343521D01*
X63054767Y-77343523D01*
X63054770Y-77343526D01*
X63199407Y-77448612D01*
X63362733Y-77521329D01*
X63537609Y-77558500D01*
X63537610Y-77558500D01*
X63716389Y-77558500D01*
X63716391Y-77558500D01*
X63891267Y-77521329D01*
X64054593Y-77448612D01*
X64199230Y-77343526D01*
X64318859Y-77210665D01*
X64408250Y-77055835D01*
X64463497Y-76885803D01*
X64482185Y-76708000D01*
X64463497Y-76530197D01*
X64408250Y-76360165D01*
X64318859Y-76205335D01*
X64272003Y-76153296D01*
X64199235Y-76072478D01*
X64199232Y-76072476D01*
X64199231Y-76072475D01*
X64199230Y-76072474D01*
X64054593Y-75967388D01*
X63891267Y-75894671D01*
X63891265Y-75894670D01*
X63763594Y-75867533D01*
X63716391Y-75857500D01*
X63537609Y-75857500D01*
X63506954Y-75864015D01*
X63362733Y-75894670D01*
X63362728Y-75894672D01*
X63199408Y-75967387D01*
X63054768Y-76072475D01*
X62935140Y-76205336D01*
X62845750Y-76360164D01*
X62845747Y-76360170D01*
X62790504Y-76530192D01*
X62790503Y-76530194D01*
X62771815Y-76708000D01*
X48260000Y-76708000D01*
X48260000Y-74930000D01*
X57564815Y-74930000D01*
X57583503Y-75107805D01*
X57583504Y-75107807D01*
X57638747Y-75277829D01*
X57638750Y-75277835D01*
X57728141Y-75432665D01*
X57769812Y-75478946D01*
X57847764Y-75565521D01*
X57847767Y-75565523D01*
X57847770Y-75565526D01*
X57992407Y-75670612D01*
X58155733Y-75743329D01*
X58330609Y-75780500D01*
X58330610Y-75780500D01*
X58509389Y-75780500D01*
X58509391Y-75780500D01*
X58684267Y-75743329D01*
X58847593Y-75670612D01*
X58992230Y-75565526D01*
X59111859Y-75432665D01*
X59201250Y-75277835D01*
X59256497Y-75107803D01*
X59275185Y-74930000D01*
X59256497Y-74752197D01*
X59201250Y-74582165D01*
X59111859Y-74427335D01*
X59065003Y-74375296D01*
X58992235Y-74294478D01*
X58992232Y-74294476D01*
X58992231Y-74294475D01*
X58992230Y-74294474D01*
X58847593Y-74189388D01*
X58684267Y-74116671D01*
X58684265Y-74116670D01*
X58556594Y-74089533D01*
X58509391Y-74079500D01*
X58330609Y-74079500D01*
X58299954Y-74086015D01*
X58155733Y-74116670D01*
X58155728Y-74116672D01*
X57992408Y-74189387D01*
X57847768Y-74294475D01*
X57728140Y-74427336D01*
X57638750Y-74582164D01*
X57638747Y-74582170D01*
X57583504Y-74752192D01*
X57583503Y-74752194D01*
X57564815Y-74930000D01*
X48260000Y-74930000D01*
X48260000Y-70817135D01*
X50709500Y-70817135D01*
X50709500Y-72712870D01*
X50709501Y-72712876D01*
X50715908Y-72772483D01*
X50766202Y-72907328D01*
X50766206Y-72907335D01*
X50852452Y-73022544D01*
X50852455Y-73022547D01*
X50967664Y-73108793D01*
X50967671Y-73108797D01*
X51102517Y-73159091D01*
X51102516Y-73159091D01*
X51109444Y-73159835D01*
X51162127Y-73165500D01*
X53057872Y-73165499D01*
X53117483Y-73159091D01*
X53252331Y-73108796D01*
X53367546Y-73022546D01*
X53453796Y-72907331D01*
X53472092Y-72858274D01*
X53513961Y-72802342D01*
X53579425Y-72777924D01*
X53647699Y-72792775D01*
X53664436Y-72803755D01*
X53841365Y-72941464D01*
X53841371Y-72941468D01*
X53841374Y-72941470D01*
X54045497Y-73051936D01*
X54159487Y-73091068D01*
X54265015Y-73127297D01*
X54265017Y-73127297D01*
X54265019Y-73127298D01*
X54493951Y-73165500D01*
X54493952Y-73165500D01*
X54726048Y-73165500D01*
X54726049Y-73165500D01*
X54954981Y-73127298D01*
X55174503Y-73051936D01*
X55378626Y-72941470D01*
X55561784Y-72798913D01*
X55718979Y-72628153D01*
X55756191Y-72571196D01*
X55809337Y-72525839D01*
X55878569Y-72516415D01*
X55941904Y-72545917D01*
X55963809Y-72571196D01*
X56001016Y-72628147D01*
X56001019Y-72628151D01*
X56001021Y-72628153D01*
X56158216Y-72798913D01*
X56158219Y-72798915D01*
X56158222Y-72798918D01*
X56341365Y-72941464D01*
X56341371Y-72941468D01*
X56341374Y-72941470D01*
X56545497Y-73051936D01*
X56659487Y-73091068D01*
X56765015Y-73127297D01*
X56765017Y-73127297D01*
X56765019Y-73127298D01*
X56993951Y-73165500D01*
X56993952Y-73165500D01*
X57226048Y-73165500D01*
X57226049Y-73165500D01*
X57454981Y-73127298D01*
X57674503Y-73051936D01*
X57878626Y-72941470D01*
X58061784Y-72798913D01*
X58218979Y-72628153D01*
X58345924Y-72433849D01*
X58439157Y-72221300D01*
X58496134Y-71996305D01*
X58515300Y-71765000D01*
X58515300Y-71764993D01*
X58496135Y-71533702D01*
X58496133Y-71533691D01*
X58439157Y-71308699D01*
X58345924Y-71096151D01*
X58218983Y-70901852D01*
X58218980Y-70901849D01*
X58218979Y-70901847D01*
X58140996Y-70817135D01*
X65949500Y-70817135D01*
X65949500Y-72712870D01*
X65949501Y-72712876D01*
X65955908Y-72772483D01*
X66006202Y-72907328D01*
X66006206Y-72907335D01*
X66092452Y-73022544D01*
X66092455Y-73022547D01*
X66207664Y-73108793D01*
X66207671Y-73108797D01*
X66342517Y-73159091D01*
X66342516Y-73159091D01*
X66349444Y-73159835D01*
X66402127Y-73165500D01*
X68297872Y-73165499D01*
X68357483Y-73159091D01*
X68492331Y-73108796D01*
X68607546Y-73022546D01*
X68693796Y-72907331D01*
X68712092Y-72858274D01*
X68753961Y-72802342D01*
X68819425Y-72777924D01*
X68887699Y-72792775D01*
X68904436Y-72803755D01*
X69081365Y-72941464D01*
X69081371Y-72941468D01*
X69081374Y-72941470D01*
X69285497Y-73051936D01*
X69399487Y-73091068D01*
X69505015Y-73127297D01*
X69505017Y-73127297D01*
X69505019Y-73127298D01*
X69733951Y-73165500D01*
X69733952Y-73165500D01*
X69966048Y-73165500D01*
X69966049Y-73165500D01*
X70194981Y-73127298D01*
X70414503Y-73051936D01*
X70618626Y-72941470D01*
X70801784Y-72798913D01*
X70958979Y-72628153D01*
X70996191Y-72571196D01*
X71049337Y-72525839D01*
X71118569Y-72516415D01*
X71181904Y-72545917D01*
X71203809Y-72571196D01*
X71241016Y-72628147D01*
X71241019Y-72628151D01*
X71241021Y-72628153D01*
X71398216Y-72798913D01*
X71398219Y-72798915D01*
X71398222Y-72798918D01*
X71581365Y-72941464D01*
X71581371Y-72941468D01*
X71581374Y-72941470D01*
X71785497Y-73051936D01*
X71899487Y-73091068D01*
X72005015Y-73127297D01*
X72005017Y-73127297D01*
X72005019Y-73127298D01*
X72233951Y-73165500D01*
X72233952Y-73165500D01*
X72466048Y-73165500D01*
X72466049Y-73165500D01*
X72694981Y-73127298D01*
X72914503Y-73051936D01*
X73118626Y-72941470D01*
X73301784Y-72798913D01*
X73458979Y-72628153D01*
X73585924Y-72433849D01*
X73679157Y-72221300D01*
X73736134Y-71996305D01*
X73755300Y-71765000D01*
X73755300Y-71764993D01*
X73736135Y-71533702D01*
X73736133Y-71533691D01*
X73679157Y-71308699D01*
X73585924Y-71096151D01*
X73458983Y-70901852D01*
X73458980Y-70901849D01*
X73458979Y-70901847D01*
X73301784Y-70731087D01*
X73301779Y-70731083D01*
X73301777Y-70731081D01*
X73118634Y-70588535D01*
X73118628Y-70588531D01*
X72914504Y-70478064D01*
X72914495Y-70478061D01*
X72694984Y-70402702D01*
X72504450Y-70370908D01*
X72466049Y-70364500D01*
X72233951Y-70364500D01*
X72195550Y-70370908D01*
X72005015Y-70402702D01*
X71785504Y-70478061D01*
X71785495Y-70478064D01*
X71581371Y-70588531D01*
X71581365Y-70588535D01*
X71398222Y-70731081D01*
X71398219Y-70731084D01*
X71398216Y-70731086D01*
X71398216Y-70731087D01*
X71250500Y-70891551D01*
X71241015Y-70901854D01*
X71203808Y-70958804D01*
X71150662Y-71004161D01*
X71081430Y-71013584D01*
X71018095Y-70984082D01*
X70996192Y-70958804D01*
X70958984Y-70901854D01*
X70958982Y-70901852D01*
X70958979Y-70901847D01*
X70801784Y-70731087D01*
X70801779Y-70731083D01*
X70801777Y-70731081D01*
X70618634Y-70588535D01*
X70618628Y-70588531D01*
X70414504Y-70478064D01*
X70414495Y-70478061D01*
X70194984Y-70402702D01*
X70004450Y-70370908D01*
X69966049Y-70364500D01*
X69733951Y-70364500D01*
X69695550Y-70370908D01*
X69505015Y-70402702D01*
X69285504Y-70478061D01*
X69285495Y-70478064D01*
X69081372Y-70588531D01*
X68904436Y-70726245D01*
X68839442Y-70751887D01*
X68770902Y-70738320D01*
X68720577Y-70689852D01*
X68712092Y-70671723D01*
X68693798Y-70622673D01*
X68693793Y-70622664D01*
X68607547Y-70507455D01*
X68607544Y-70507452D01*
X68492335Y-70421206D01*
X68492328Y-70421202D01*
X68357482Y-70370908D01*
X68357483Y-70370908D01*
X68297883Y-70364501D01*
X68297881Y-70364500D01*
X68297873Y-70364500D01*
X68297864Y-70364500D01*
X66402129Y-70364500D01*
X66402123Y-70364501D01*
X66342516Y-70370908D01*
X66207671Y-70421202D01*
X66207664Y-70421206D01*
X66092455Y-70507452D01*
X66092452Y-70507455D01*
X66006206Y-70622664D01*
X66006202Y-70622671D01*
X65955908Y-70757517D01*
X65949501Y-70817116D01*
X65949500Y-70817135D01*
X58140996Y-70817135D01*
X58061784Y-70731087D01*
X58061779Y-70731083D01*
X58061777Y-70731081D01*
X57878634Y-70588535D01*
X57878628Y-70588531D01*
X57674504Y-70478064D01*
X57674495Y-70478061D01*
X57454984Y-70402702D01*
X57264450Y-70370908D01*
X57226049Y-70364500D01*
X56993951Y-70364500D01*
X56955550Y-70370908D01*
X56765015Y-70402702D01*
X56545504Y-70478061D01*
X56545495Y-70478064D01*
X56341371Y-70588531D01*
X56341365Y-70588535D01*
X56158222Y-70731081D01*
X56158219Y-70731084D01*
X56158216Y-70731086D01*
X56158216Y-70731087D01*
X56010500Y-70891551D01*
X56001015Y-70901854D01*
X55963808Y-70958804D01*
X55910662Y-71004161D01*
X55841430Y-71013584D01*
X55778095Y-70984082D01*
X55756192Y-70958804D01*
X55718984Y-70901854D01*
X55718982Y-70901852D01*
X55718979Y-70901847D01*
X55561784Y-70731087D01*
X55561779Y-70731083D01*
X55561777Y-70731081D01*
X55378634Y-70588535D01*
X55378628Y-70588531D01*
X55174504Y-70478064D01*
X55174495Y-70478061D01*
X54954984Y-70402702D01*
X54764450Y-70370908D01*
X54726049Y-70364500D01*
X54493951Y-70364500D01*
X54455550Y-70370908D01*
X54265015Y-70402702D01*
X54045504Y-70478061D01*
X54045495Y-70478064D01*
X53841372Y-70588531D01*
X53664436Y-70726245D01*
X53599442Y-70751887D01*
X53530902Y-70738320D01*
X53480577Y-70689852D01*
X53472092Y-70671723D01*
X53453798Y-70622673D01*
X53453793Y-70622664D01*
X53367547Y-70507455D01*
X53367544Y-70507452D01*
X53252335Y-70421206D01*
X53252328Y-70421202D01*
X53117482Y-70370908D01*
X53117483Y-70370908D01*
X53057883Y-70364501D01*
X53057881Y-70364500D01*
X53057873Y-70364500D01*
X53057864Y-70364500D01*
X51162129Y-70364500D01*
X51162123Y-70364501D01*
X51102516Y-70370908D01*
X50967671Y-70421202D01*
X50967664Y-70421206D01*
X50852455Y-70507452D01*
X50852452Y-70507455D01*
X50766206Y-70622664D01*
X50766202Y-70622671D01*
X50715908Y-70757517D01*
X50709501Y-70817116D01*
X50709500Y-70817135D01*
X48260000Y-70817135D01*
X48260000Y-65905507D01*
X48279685Y-65838468D01*
X48332489Y-65792713D01*
X48401647Y-65782769D01*
X48465203Y-65811794D01*
X48471681Y-65817826D01*
X48580649Y-65926794D01*
X48580655Y-65926799D01*
X48774144Y-66075268D01*
X48774151Y-66075272D01*
X48985348Y-66197208D01*
X48985353Y-66197210D01*
X48985356Y-66197212D01*
X49210679Y-66290544D01*
X49446256Y-66353666D01*
X49688056Y-66385500D01*
X49688063Y-66385500D01*
X49931937Y-66385500D01*
X49931944Y-66385500D01*
X50173744Y-66353666D01*
X50409321Y-66290544D01*
X50634644Y-66197212D01*
X50845856Y-66075268D01*
X51039345Y-65926799D01*
X51211799Y-65754345D01*
X51360268Y-65560856D01*
X51482212Y-65349644D01*
X51575544Y-65124321D01*
X51638666Y-64888744D01*
X51670500Y-64646944D01*
X51670500Y-63883056D01*
X51670499Y-63883048D01*
X57549500Y-63883048D01*
X57549500Y-64646951D01*
X57576013Y-64848333D01*
X57581334Y-64888744D01*
X57581335Y-64888746D01*
X57644456Y-65124320D01*
X57644459Y-65124330D01*
X57737786Y-65349640D01*
X57737791Y-65349651D01*
X57859727Y-65560848D01*
X57859738Y-65560864D01*
X58008199Y-65754343D01*
X58008205Y-65754350D01*
X58180649Y-65926794D01*
X58180655Y-65926799D01*
X58374144Y-66075268D01*
X58374151Y-66075272D01*
X58585348Y-66197208D01*
X58585353Y-66197210D01*
X58585356Y-66197212D01*
X58810679Y-66290544D01*
X59046256Y-66353666D01*
X59288056Y-66385500D01*
X59288063Y-66385500D01*
X59531937Y-66385500D01*
X59531944Y-66385500D01*
X59773744Y-66353666D01*
X60009321Y-66290544D01*
X60234644Y-66197212D01*
X60445856Y-66075268D01*
X60639345Y-65926799D01*
X60811799Y-65754345D01*
X60960268Y-65560856D01*
X61082212Y-65349644D01*
X61175544Y-65124321D01*
X61238666Y-64888744D01*
X61270500Y-64646944D01*
X61270500Y-63883056D01*
X61270499Y-63883048D01*
X63189500Y-63883048D01*
X63189500Y-64646951D01*
X63216013Y-64848333D01*
X63221334Y-64888744D01*
X63221335Y-64888746D01*
X63284456Y-65124320D01*
X63284459Y-65124330D01*
X63377786Y-65349640D01*
X63377791Y-65349651D01*
X63499727Y-65560848D01*
X63499738Y-65560864D01*
X63648199Y-65754343D01*
X63648205Y-65754350D01*
X63820649Y-65926794D01*
X63820655Y-65926799D01*
X64014144Y-66075268D01*
X64014151Y-66075272D01*
X64225348Y-66197208D01*
X64225353Y-66197210D01*
X64225356Y-66197212D01*
X64450679Y-66290544D01*
X64686256Y-66353666D01*
X64928056Y-66385500D01*
X64928063Y-66385500D01*
X65171937Y-66385500D01*
X65171944Y-66385500D01*
X65413744Y-66353666D01*
X65649321Y-66290544D01*
X65874644Y-66197212D01*
X66085856Y-66075268D01*
X66279345Y-65926799D01*
X66451799Y-65754345D01*
X66600268Y-65560856D01*
X66722212Y-65349644D01*
X66815544Y-65124321D01*
X66878666Y-64888744D01*
X66910500Y-64646944D01*
X66910500Y-63883056D01*
X66878666Y-63641256D01*
X66815544Y-63405679D01*
X66722212Y-63180356D01*
X66722210Y-63180353D01*
X66722208Y-63180348D01*
X66600272Y-62969151D01*
X66600268Y-62969144D01*
X66451799Y-62775655D01*
X66451794Y-62775649D01*
X66279350Y-62603205D01*
X66279343Y-62603199D01*
X66085864Y-62454738D01*
X66085862Y-62454736D01*
X66085856Y-62454732D01*
X66085851Y-62454729D01*
X66085848Y-62454727D01*
X65874651Y-62332791D01*
X65874640Y-62332786D01*
X65649330Y-62239459D01*
X65649323Y-62239457D01*
X65649321Y-62239456D01*
X65413744Y-62176334D01*
X65373333Y-62171013D01*
X65171951Y-62144500D01*
X65171944Y-62144500D01*
X64928056Y-62144500D01*
X64928048Y-62144500D01*
X64697896Y-62174801D01*
X64686256Y-62176334D01*
X64450679Y-62239456D01*
X64450669Y-62239459D01*
X64225359Y-62332786D01*
X64225348Y-62332791D01*
X64014151Y-62454727D01*
X64014135Y-62454738D01*
X63820656Y-62603199D01*
X63820649Y-62603205D01*
X63648205Y-62775649D01*
X63648199Y-62775656D01*
X63499738Y-62969135D01*
X63499727Y-62969151D01*
X63377791Y-63180348D01*
X63377786Y-63180359D01*
X63284459Y-63405669D01*
X63284456Y-63405679D01*
X63221335Y-63641253D01*
X63221333Y-63641264D01*
X63189500Y-63883048D01*
X61270499Y-63883048D01*
X61238666Y-63641256D01*
X61175544Y-63405679D01*
X61082212Y-63180356D01*
X61082210Y-63180353D01*
X61082208Y-63180348D01*
X60960272Y-62969151D01*
X60960268Y-62969144D01*
X60811799Y-62775655D01*
X60811794Y-62775649D01*
X60639350Y-62603205D01*
X60639343Y-62603199D01*
X60445864Y-62454738D01*
X60445862Y-62454736D01*
X60445856Y-62454732D01*
X60445851Y-62454729D01*
X60445848Y-62454727D01*
X60234651Y-62332791D01*
X60234640Y-62332786D01*
X60009330Y-62239459D01*
X60009323Y-62239457D01*
X60009321Y-62239456D01*
X59773744Y-62176334D01*
X59733333Y-62171013D01*
X59531951Y-62144500D01*
X59531944Y-62144500D01*
X59288056Y-62144500D01*
X59288048Y-62144500D01*
X59057896Y-62174801D01*
X59046256Y-62176334D01*
X58810679Y-62239456D01*
X58810669Y-62239459D01*
X58585359Y-62332786D01*
X58585348Y-62332791D01*
X58374151Y-62454727D01*
X58374135Y-62454738D01*
X58180656Y-62603199D01*
X58180649Y-62603205D01*
X58008205Y-62775649D01*
X58008199Y-62775656D01*
X57859738Y-62969135D01*
X57859727Y-62969151D01*
X57737791Y-63180348D01*
X57737786Y-63180359D01*
X57644459Y-63405669D01*
X57644456Y-63405679D01*
X57581335Y-63641253D01*
X57581333Y-63641264D01*
X57549500Y-63883048D01*
X51670499Y-63883048D01*
X51638666Y-63641256D01*
X51575544Y-63405679D01*
X51482212Y-63180356D01*
X51482210Y-63180353D01*
X51482208Y-63180348D01*
X51360272Y-62969151D01*
X51360268Y-62969144D01*
X51211799Y-62775655D01*
X51211794Y-62775649D01*
X51039350Y-62603205D01*
X51039343Y-62603199D01*
X50845864Y-62454738D01*
X50845862Y-62454736D01*
X50845856Y-62454732D01*
X50845851Y-62454729D01*
X50845848Y-62454727D01*
X50634651Y-62332791D01*
X50634640Y-62332786D01*
X50409330Y-62239459D01*
X50409323Y-62239457D01*
X50409321Y-62239456D01*
X50173744Y-62176334D01*
X50133333Y-62171013D01*
X49931951Y-62144500D01*
X49931944Y-62144500D01*
X49688056Y-62144500D01*
X49688048Y-62144500D01*
X49457896Y-62174801D01*
X49446256Y-62176334D01*
X49210679Y-62239456D01*
X49210669Y-62239459D01*
X48985359Y-62332786D01*
X48985348Y-62332791D01*
X48774151Y-62454727D01*
X48774135Y-62454738D01*
X48580656Y-62603199D01*
X48580649Y-62603205D01*
X48471681Y-62712174D01*
X48410358Y-62745659D01*
X48340666Y-62740675D01*
X48284733Y-62698803D01*
X48260316Y-62633339D01*
X48260000Y-62624493D01*
X48260000Y-58928000D01*
X63787815Y-58928000D01*
X63806503Y-59105805D01*
X63806504Y-59105807D01*
X63861747Y-59275829D01*
X63861750Y-59275835D01*
X63951141Y-59430665D01*
X63992812Y-59476946D01*
X64070764Y-59563521D01*
X64070767Y-59563523D01*
X64070770Y-59563526D01*
X64215407Y-59668612D01*
X64378733Y-59741329D01*
X64553609Y-59778500D01*
X64553610Y-59778500D01*
X64732389Y-59778500D01*
X64732391Y-59778500D01*
X64907267Y-59741329D01*
X65070593Y-59668612D01*
X65215230Y-59563526D01*
X65334859Y-59430665D01*
X65424250Y-59275835D01*
X65479497Y-59105803D01*
X65498185Y-58928000D01*
X65479497Y-58750197D01*
X65424250Y-58580165D01*
X65334859Y-58425335D01*
X65288003Y-58373296D01*
X65215235Y-58292478D01*
X65215232Y-58292476D01*
X65215231Y-58292475D01*
X65215230Y-58292474D01*
X65070593Y-58187388D01*
X64907267Y-58114671D01*
X64907265Y-58114670D01*
X64779594Y-58087533D01*
X64732391Y-58077500D01*
X64553609Y-58077500D01*
X64522954Y-58084015D01*
X64378733Y-58114670D01*
X64378728Y-58114672D01*
X64215408Y-58187387D01*
X64070768Y-58292475D01*
X63951140Y-58425336D01*
X63861750Y-58580164D01*
X63861747Y-58580170D01*
X63806504Y-58750192D01*
X63806503Y-58750194D01*
X63787815Y-58928000D01*
X48260000Y-58928000D01*
X48260000Y-57785000D01*
X56929815Y-57785000D01*
X56948503Y-57962805D01*
X56948504Y-57962807D01*
X57003747Y-58132829D01*
X57003750Y-58132835D01*
X57093141Y-58287665D01*
X57097475Y-58292478D01*
X57212764Y-58420521D01*
X57212767Y-58420523D01*
X57212770Y-58420526D01*
X57357407Y-58525612D01*
X57520733Y-58598329D01*
X57695609Y-58635500D01*
X57695610Y-58635500D01*
X57874389Y-58635500D01*
X57874391Y-58635500D01*
X58049267Y-58598329D01*
X58212593Y-58525612D01*
X58357230Y-58420526D01*
X58476859Y-58287665D01*
X58566250Y-58132835D01*
X58621497Y-57962803D01*
X58640185Y-57785000D01*
X58621497Y-57607197D01*
X58566250Y-57437165D01*
X58476859Y-57282335D01*
X58441487Y-57243051D01*
X58411259Y-57180062D01*
X58419884Y-57110727D01*
X58441490Y-57077108D01*
X58496662Y-57015834D01*
X58586053Y-56861004D01*
X58641300Y-56690972D01*
X58659796Y-56515000D01*
X65692815Y-56515000D01*
X65711503Y-56692805D01*
X65711504Y-56692807D01*
X65766747Y-56862829D01*
X65766750Y-56862835D01*
X65856141Y-57017665D01*
X65888886Y-57054032D01*
X65975764Y-57150521D01*
X65975767Y-57150523D01*
X65975770Y-57150526D01*
X66120407Y-57255612D01*
X66283733Y-57328329D01*
X66458609Y-57365500D01*
X66458610Y-57365500D01*
X66637389Y-57365500D01*
X66637391Y-57365500D01*
X66812267Y-57328329D01*
X66975593Y-57255612D01*
X67120230Y-57150526D01*
X67121178Y-57149474D01*
X67156065Y-57110727D01*
X67239859Y-57017665D01*
X67329250Y-56862835D01*
X67384497Y-56692803D01*
X67403185Y-56515000D01*
X67384497Y-56337197D01*
X67329250Y-56167165D01*
X67239859Y-56012335D01*
X67193003Y-55960296D01*
X67120235Y-55879478D01*
X67120232Y-55879476D01*
X67120231Y-55879475D01*
X67120230Y-55879474D01*
X66975593Y-55774388D01*
X66812267Y-55701671D01*
X66812265Y-55701670D01*
X66684594Y-55674533D01*
X66637391Y-55664500D01*
X66458609Y-55664500D01*
X66427954Y-55671015D01*
X66283733Y-55701670D01*
X66283728Y-55701672D01*
X66120408Y-55774387D01*
X65975768Y-55879475D01*
X65856140Y-56012336D01*
X65766750Y-56167164D01*
X65766747Y-56167170D01*
X65711504Y-56337192D01*
X65711503Y-56337194D01*
X65692815Y-56515000D01*
X58659796Y-56515000D01*
X58659988Y-56513169D01*
X58641300Y-56335366D01*
X58586053Y-56165334D01*
X58496662Y-56010504D01*
X58449806Y-55958465D01*
X58377038Y-55877647D01*
X58377035Y-55877645D01*
X58377034Y-55877644D01*
X58377033Y-55877643D01*
X58232396Y-55772557D01*
X58069070Y-55699840D01*
X58069068Y-55699839D01*
X57941397Y-55672702D01*
X57894194Y-55662669D01*
X57715412Y-55662669D01*
X57684757Y-55669184D01*
X57540536Y-55699839D01*
X57540531Y-55699841D01*
X57377211Y-55772556D01*
X57232571Y-55877644D01*
X57112943Y-56010505D01*
X57023553Y-56165333D01*
X57023550Y-56165339D01*
X56968307Y-56335361D01*
X56968306Y-56335363D01*
X56949618Y-56513169D01*
X56968306Y-56690974D01*
X56968307Y-56690976D01*
X57023550Y-56860998D01*
X57023553Y-56861004D01*
X57112944Y-57015834D01*
X57148313Y-57055115D01*
X57178543Y-57118106D01*
X57169918Y-57187441D01*
X57148314Y-57221058D01*
X57093140Y-57282336D01*
X57003750Y-57437164D01*
X57003747Y-57437170D01*
X56948504Y-57607192D01*
X56948503Y-57607194D01*
X56929815Y-57785000D01*
X48260000Y-57785000D01*
X48260000Y-48259999D01*
X49444341Y-48259999D01*
X49444341Y-48260000D01*
X49464936Y-48495403D01*
X49464938Y-48495413D01*
X49526094Y-48723655D01*
X49526096Y-48723659D01*
X49526097Y-48723663D01*
X49625965Y-48937830D01*
X49625967Y-48937834D01*
X49761501Y-49131395D01*
X49761506Y-49131402D01*
X49928597Y-49298493D01*
X49928603Y-49298498D01*
X50114158Y-49428425D01*
X50157783Y-49483002D01*
X50164977Y-49552500D01*
X50133454Y-49614855D01*
X50114158Y-49631575D01*
X49928597Y-49761505D01*
X49761505Y-49928597D01*
X49625965Y-50122169D01*
X49625964Y-50122171D01*
X49526098Y-50336335D01*
X49526094Y-50336344D01*
X49464938Y-50564586D01*
X49464936Y-50564596D01*
X49444341Y-50799999D01*
X49444341Y-50800000D01*
X49464936Y-51035403D01*
X49464938Y-51035413D01*
X49526094Y-51263655D01*
X49526096Y-51263659D01*
X49526097Y-51263663D01*
X49625965Y-51477830D01*
X49625967Y-51477834D01*
X49761501Y-51671395D01*
X49761506Y-51671402D01*
X49928597Y-51838493D01*
X49928603Y-51838498D01*
X50114158Y-51968425D01*
X50157783Y-52023002D01*
X50164977Y-52092500D01*
X50133454Y-52154855D01*
X50114158Y-52171575D01*
X49928597Y-52301505D01*
X49761505Y-52468597D01*
X49625965Y-52662169D01*
X49625964Y-52662171D01*
X49526098Y-52876335D01*
X49526094Y-52876344D01*
X49464938Y-53104586D01*
X49464936Y-53104596D01*
X49444341Y-53339999D01*
X49444341Y-53340000D01*
X49464936Y-53575403D01*
X49464938Y-53575413D01*
X49526094Y-53803655D01*
X49526096Y-53803659D01*
X49526097Y-53803663D01*
X49625965Y-54017830D01*
X49625967Y-54017834D01*
X49761501Y-54211395D01*
X49761506Y-54211402D01*
X49928597Y-54378493D01*
X49928603Y-54378498D01*
X50114158Y-54508425D01*
X50157783Y-54563002D01*
X50164977Y-54632500D01*
X50133454Y-54694855D01*
X50114158Y-54711575D01*
X49928597Y-54841505D01*
X49761505Y-55008597D01*
X49625965Y-55202169D01*
X49625964Y-55202171D01*
X49526098Y-55416335D01*
X49526094Y-55416344D01*
X49464938Y-55644586D01*
X49464936Y-55644596D01*
X49444341Y-55879999D01*
X49444341Y-55880000D01*
X49464936Y-56115403D01*
X49464938Y-56115413D01*
X49526094Y-56343655D01*
X49526096Y-56343659D01*
X49526097Y-56343663D01*
X49605139Y-56513169D01*
X49625965Y-56557830D01*
X49625967Y-56557834D01*
X49720477Y-56692807D01*
X49761505Y-56751401D01*
X49928599Y-56918495D01*
X50025384Y-56986265D01*
X50122165Y-57054032D01*
X50122167Y-57054033D01*
X50122170Y-57054035D01*
X50336337Y-57153903D01*
X50336343Y-57153904D01*
X50336344Y-57153905D01*
X50391285Y-57168626D01*
X50564592Y-57215063D01*
X50752918Y-57231539D01*
X50799999Y-57235659D01*
X50800000Y-57235659D01*
X50800001Y-57235659D01*
X50839234Y-57232226D01*
X51035408Y-57215063D01*
X51263663Y-57153903D01*
X51477830Y-57054035D01*
X51671401Y-56918495D01*
X51838495Y-56751401D01*
X51974035Y-56557830D01*
X52073903Y-56343663D01*
X52135063Y-56115408D01*
X52155659Y-55880000D01*
X52135063Y-55644592D01*
X52073903Y-55416337D01*
X51974035Y-55202171D01*
X51838495Y-55008599D01*
X51838494Y-55008597D01*
X51671402Y-54841506D01*
X51671396Y-54841501D01*
X51485842Y-54711575D01*
X51442217Y-54656998D01*
X51435023Y-54587500D01*
X51466546Y-54525145D01*
X51485842Y-54508425D01*
X51508026Y-54492891D01*
X51671401Y-54378495D01*
X51838495Y-54211401D01*
X51974035Y-54017830D01*
X52073903Y-53803663D01*
X52135063Y-53575408D01*
X52155659Y-53340000D01*
X52135063Y-53104592D01*
X52073903Y-52876337D01*
X51974035Y-52662171D01*
X51838495Y-52468599D01*
X51838494Y-52468597D01*
X51671402Y-52301506D01*
X51671396Y-52301501D01*
X51485842Y-52171575D01*
X51442217Y-52116998D01*
X51435023Y-52047500D01*
X51466546Y-51985145D01*
X51485842Y-51968425D01*
X51508026Y-51952891D01*
X51671401Y-51838495D01*
X51838495Y-51671401D01*
X51974035Y-51477830D01*
X52073903Y-51263663D01*
X52135063Y-51035408D01*
X52155659Y-50800000D01*
X52135063Y-50564592D01*
X52073903Y-50336337D01*
X51974035Y-50122171D01*
X51838495Y-49928599D01*
X51838494Y-49928597D01*
X51671402Y-49761506D01*
X51671396Y-49761501D01*
X51658048Y-49752155D01*
X54380000Y-49752155D01*
X54380000Y-50550000D01*
X55446988Y-50550000D01*
X55414075Y-50607007D01*
X55380000Y-50734174D01*
X55380000Y-50865826D01*
X55414075Y-50992993D01*
X55446988Y-51050000D01*
X54380000Y-51050000D01*
X54380000Y-51847844D01*
X54386401Y-51907372D01*
X54386403Y-51907379D01*
X54436645Y-52042086D01*
X54436649Y-52042093D01*
X54522809Y-52157187D01*
X54522812Y-52157190D01*
X54637906Y-52243350D01*
X54637913Y-52243354D01*
X54772620Y-52293596D01*
X54772627Y-52293598D01*
X54832155Y-52299999D01*
X54832172Y-52300000D01*
X55630000Y-52300000D01*
X55630000Y-51233012D01*
X55687007Y-51265925D01*
X55814174Y-51300000D01*
X55945826Y-51300000D01*
X56072993Y-51265925D01*
X56130000Y-51233012D01*
X56130000Y-52300000D01*
X56927828Y-52300000D01*
X56927844Y-52299999D01*
X56987372Y-52293598D01*
X56987379Y-52293596D01*
X57122086Y-52243354D01*
X57122093Y-52243350D01*
X57237187Y-52157190D01*
X57237190Y-52157187D01*
X57323350Y-52042093D01*
X57327604Y-52034304D01*
X57330668Y-52035977D01*
X57362477Y-51993455D01*
X57427933Y-51969015D01*
X57496211Y-51983843D01*
X57512985Y-51994843D01*
X57596768Y-52060055D01*
X57596771Y-52060057D01*
X57815385Y-52178364D01*
X57815396Y-52178369D01*
X58050507Y-52259083D01*
X58169999Y-52279023D01*
X58170000Y-52279022D01*
X58170000Y-51233012D01*
X58227007Y-51265925D01*
X58354174Y-51300000D01*
X58485826Y-51300000D01*
X58612993Y-51265925D01*
X58670000Y-51233012D01*
X58670000Y-52279023D01*
X58789492Y-52259083D01*
X59024603Y-52178369D01*
X59024614Y-52178364D01*
X59243228Y-52060057D01*
X59243237Y-52060051D01*
X59439397Y-51907373D01*
X59439407Y-51907364D01*
X59598771Y-51734251D01*
X59658658Y-51698260D01*
X59728496Y-51700361D01*
X59781229Y-51734251D01*
X59940592Y-51907364D01*
X59940602Y-51907373D01*
X60136762Y-52060051D01*
X60136771Y-52060057D01*
X60355385Y-52178364D01*
X60355396Y-52178369D01*
X60590507Y-52259083D01*
X60709999Y-52279023D01*
X60710000Y-52279022D01*
X60710000Y-51233012D01*
X60767007Y-51265925D01*
X60894174Y-51300000D01*
X61025826Y-51300000D01*
X61152993Y-51265925D01*
X61210000Y-51233012D01*
X61210000Y-52279023D01*
X61329492Y-52259083D01*
X61564603Y-52178369D01*
X61564614Y-52178364D01*
X61783228Y-52060057D01*
X61783237Y-52060051D01*
X61979397Y-51907373D01*
X61979407Y-51907364D01*
X62138771Y-51734251D01*
X62198658Y-51698260D01*
X62268496Y-51700361D01*
X62321229Y-51734251D01*
X62480592Y-51907364D01*
X62480602Y-51907373D01*
X62676762Y-52060051D01*
X62676771Y-52060057D01*
X62895385Y-52178364D01*
X62895396Y-52178369D01*
X63130507Y-52259083D01*
X63249999Y-52279023D01*
X63250000Y-52279022D01*
X63250000Y-51233012D01*
X63307007Y-51265925D01*
X63434174Y-51300000D01*
X63565826Y-51300000D01*
X63692993Y-51265925D01*
X63750000Y-51233012D01*
X63750000Y-52279023D01*
X63869492Y-52259083D01*
X64104603Y-52178369D01*
X64104614Y-52178364D01*
X64323228Y-52060057D01*
X64323237Y-52060051D01*
X64519397Y-51907373D01*
X64519407Y-51907364D01*
X64678771Y-51734251D01*
X64738658Y-51698260D01*
X64808496Y-51700361D01*
X64861229Y-51734251D01*
X65020592Y-51907364D01*
X65020602Y-51907373D01*
X65216762Y-52060051D01*
X65216771Y-52060057D01*
X65435385Y-52178364D01*
X65435396Y-52178369D01*
X65670507Y-52259083D01*
X65789999Y-52279023D01*
X65790000Y-52279022D01*
X65790000Y-51233012D01*
X65847007Y-51265925D01*
X65974174Y-51300000D01*
X66105826Y-51300000D01*
X66232993Y-51265925D01*
X66290000Y-51233012D01*
X66290000Y-52279023D01*
X66409492Y-52259083D01*
X66644603Y-52178369D01*
X66644614Y-52178364D01*
X66863228Y-52060057D01*
X66863237Y-52060051D01*
X67059397Y-51907373D01*
X67059407Y-51907364D01*
X67227767Y-51724478D01*
X67363732Y-51516367D01*
X67463588Y-51288716D01*
X67524040Y-51050000D01*
X66473012Y-51050000D01*
X66505925Y-50992993D01*
X66540000Y-50865826D01*
X66540000Y-50734174D01*
X66505925Y-50607007D01*
X66473012Y-50550000D01*
X67524040Y-50550000D01*
X67463588Y-50311283D01*
X67363732Y-50083632D01*
X67227767Y-49875521D01*
X67059407Y-49692635D01*
X67059397Y-49692626D01*
X66863237Y-49539948D01*
X66863228Y-49539942D01*
X66644614Y-49421635D01*
X66644603Y-49421630D01*
X66409492Y-49340916D01*
X66290000Y-49320976D01*
X66290000Y-50366988D01*
X66232993Y-50334075D01*
X66105826Y-50300000D01*
X65974174Y-50300000D01*
X65847007Y-50334075D01*
X65790000Y-50366988D01*
X65790000Y-49320976D01*
X65789999Y-49320976D01*
X65670507Y-49340916D01*
X65435396Y-49421630D01*
X65435385Y-49421635D01*
X65216771Y-49539942D01*
X65216762Y-49539948D01*
X65020602Y-49692626D01*
X65020598Y-49692630D01*
X64861229Y-49865749D01*
X64801342Y-49901739D01*
X64731504Y-49899638D01*
X64678771Y-49865749D01*
X64519401Y-49692630D01*
X64519397Y-49692626D01*
X64323237Y-49539948D01*
X64323228Y-49539942D01*
X64104614Y-49421635D01*
X64104603Y-49421630D01*
X63869492Y-49340916D01*
X63750000Y-49320976D01*
X63750000Y-50366988D01*
X63692993Y-50334075D01*
X63565826Y-50300000D01*
X63434174Y-50300000D01*
X63307007Y-50334075D01*
X63250000Y-50366988D01*
X63250000Y-49320976D01*
X63249999Y-49320976D01*
X63130507Y-49340916D01*
X62895396Y-49421630D01*
X62895385Y-49421635D01*
X62676771Y-49539942D01*
X62676762Y-49539948D01*
X62480602Y-49692626D01*
X62480598Y-49692630D01*
X62321229Y-49865749D01*
X62261342Y-49901739D01*
X62191504Y-49899638D01*
X62138771Y-49865749D01*
X61979401Y-49692630D01*
X61979397Y-49692626D01*
X61783237Y-49539948D01*
X61783228Y-49539942D01*
X61564614Y-49421635D01*
X61564603Y-49421630D01*
X61329492Y-49340916D01*
X61210000Y-49320976D01*
X61210000Y-50366988D01*
X61152993Y-50334075D01*
X61025826Y-50300000D01*
X60894174Y-50300000D01*
X60767007Y-50334075D01*
X60710000Y-50366988D01*
X60710000Y-49320976D01*
X60709999Y-49320976D01*
X60590507Y-49340916D01*
X60355396Y-49421630D01*
X60355385Y-49421635D01*
X60136771Y-49539942D01*
X60136762Y-49539948D01*
X59940602Y-49692626D01*
X59940598Y-49692630D01*
X59781229Y-49865749D01*
X59721342Y-49901739D01*
X59651504Y-49899638D01*
X59598771Y-49865749D01*
X59439401Y-49692630D01*
X59439397Y-49692626D01*
X59243237Y-49539948D01*
X59243228Y-49539942D01*
X59024614Y-49421635D01*
X59024603Y-49421630D01*
X58789492Y-49340916D01*
X58670000Y-49320976D01*
X58670000Y-50366988D01*
X58612993Y-50334075D01*
X58485826Y-50300000D01*
X58354174Y-50300000D01*
X58227007Y-50334075D01*
X58170000Y-50366988D01*
X58170000Y-49320976D01*
X58169999Y-49320976D01*
X58050507Y-49340916D01*
X57815396Y-49421630D01*
X57815385Y-49421635D01*
X57596771Y-49539942D01*
X57596762Y-49539948D01*
X57512984Y-49605156D01*
X57447990Y-49630799D01*
X57379450Y-49617232D01*
X57329126Y-49568764D01*
X57327672Y-49565658D01*
X57327604Y-49565696D01*
X57323350Y-49557906D01*
X57237190Y-49442812D01*
X57237187Y-49442809D01*
X57122093Y-49356649D01*
X57122086Y-49356645D01*
X56987379Y-49306403D01*
X56987372Y-49306401D01*
X56927844Y-49300000D01*
X56130000Y-49300000D01*
X56130000Y-50366988D01*
X56072993Y-50334075D01*
X55945826Y-50300000D01*
X55814174Y-50300000D01*
X55687007Y-50334075D01*
X55630000Y-50366988D01*
X55630000Y-49300000D01*
X54832155Y-49300000D01*
X54772627Y-49306401D01*
X54772620Y-49306403D01*
X54637913Y-49356645D01*
X54637906Y-49356649D01*
X54522812Y-49442809D01*
X54522809Y-49442812D01*
X54436649Y-49557906D01*
X54436645Y-49557913D01*
X54386403Y-49692620D01*
X54386401Y-49692627D01*
X54380000Y-49752155D01*
X51658048Y-49752155D01*
X51485842Y-49631575D01*
X51442217Y-49576998D01*
X51435023Y-49507500D01*
X51466546Y-49445145D01*
X51485842Y-49428425D01*
X51508026Y-49412891D01*
X51671401Y-49298495D01*
X51838495Y-49131401D01*
X51974035Y-48937830D01*
X52073903Y-48723663D01*
X52135063Y-48495408D01*
X52155659Y-48260000D01*
X52155659Y-48259999D01*
X72304341Y-48259999D01*
X72304341Y-48260000D01*
X72324936Y-48495403D01*
X72324938Y-48495413D01*
X72386094Y-48723655D01*
X72386096Y-48723659D01*
X72386097Y-48723663D01*
X72485965Y-48937830D01*
X72485967Y-48937834D01*
X72621501Y-49131395D01*
X72621506Y-49131402D01*
X72788597Y-49298493D01*
X72788603Y-49298498D01*
X72974158Y-49428425D01*
X73017783Y-49483002D01*
X73024977Y-49552500D01*
X72993454Y-49614855D01*
X72974158Y-49631575D01*
X72788597Y-49761505D01*
X72621505Y-49928597D01*
X72485965Y-50122169D01*
X72485964Y-50122171D01*
X72386098Y-50336335D01*
X72386094Y-50336344D01*
X72324938Y-50564586D01*
X72324936Y-50564596D01*
X72304341Y-50799999D01*
X72304341Y-50800000D01*
X72324936Y-51035403D01*
X72324938Y-51035413D01*
X72386094Y-51263655D01*
X72386096Y-51263659D01*
X72386097Y-51263663D01*
X72485965Y-51477830D01*
X72485967Y-51477834D01*
X72621501Y-51671395D01*
X72621506Y-51671402D01*
X72788597Y-51838493D01*
X72788603Y-51838498D01*
X72974158Y-51968425D01*
X73017783Y-52023002D01*
X73024977Y-52092500D01*
X72993454Y-52154855D01*
X72974158Y-52171575D01*
X72788597Y-52301505D01*
X72621505Y-52468597D01*
X72485965Y-52662169D01*
X72485964Y-52662171D01*
X72386098Y-52876335D01*
X72386094Y-52876344D01*
X72324938Y-53104586D01*
X72324936Y-53104596D01*
X72304341Y-53339999D01*
X72304341Y-53340000D01*
X72324936Y-53575403D01*
X72324938Y-53575413D01*
X72386094Y-53803655D01*
X72386096Y-53803659D01*
X72386097Y-53803663D01*
X72485965Y-54017830D01*
X72485967Y-54017834D01*
X72621501Y-54211395D01*
X72621506Y-54211402D01*
X72788597Y-54378493D01*
X72788603Y-54378498D01*
X72974158Y-54508425D01*
X73017783Y-54563002D01*
X73024977Y-54632500D01*
X72993454Y-54694855D01*
X72974158Y-54711575D01*
X72788597Y-54841505D01*
X72621505Y-55008597D01*
X72485965Y-55202169D01*
X72485964Y-55202171D01*
X72386098Y-55416335D01*
X72386094Y-55416344D01*
X72324938Y-55644586D01*
X72324936Y-55644596D01*
X72304341Y-55879999D01*
X72304341Y-55880000D01*
X72324936Y-56115403D01*
X72324938Y-56115413D01*
X72386094Y-56343655D01*
X72386096Y-56343659D01*
X72386097Y-56343663D01*
X72465139Y-56513169D01*
X72485965Y-56557830D01*
X72485967Y-56557834D01*
X72580477Y-56692807D01*
X72621505Y-56751401D01*
X72788599Y-56918495D01*
X72885384Y-56986265D01*
X72982165Y-57054032D01*
X72982167Y-57054033D01*
X72982170Y-57054035D01*
X73196337Y-57153903D01*
X73196343Y-57153904D01*
X73196344Y-57153905D01*
X73251285Y-57168626D01*
X73424592Y-57215063D01*
X73612918Y-57231539D01*
X73659999Y-57235659D01*
X73660000Y-57235659D01*
X73660001Y-57235659D01*
X73699234Y-57232226D01*
X73895408Y-57215063D01*
X74123663Y-57153903D01*
X74337830Y-57054035D01*
X74531401Y-56918495D01*
X74698495Y-56751401D01*
X74834035Y-56557830D01*
X74933903Y-56343663D01*
X74995063Y-56115408D01*
X75015659Y-55880000D01*
X74995063Y-55644592D01*
X74933903Y-55416337D01*
X74834035Y-55202171D01*
X74698495Y-55008599D01*
X74698494Y-55008597D01*
X74531402Y-54841506D01*
X74531396Y-54841501D01*
X74345842Y-54711575D01*
X74302217Y-54656998D01*
X74295023Y-54587500D01*
X74326546Y-54525145D01*
X74345842Y-54508425D01*
X74368026Y-54492891D01*
X74531401Y-54378495D01*
X74698495Y-54211401D01*
X74834035Y-54017830D01*
X74933903Y-53803663D01*
X74995063Y-53575408D01*
X75015659Y-53340000D01*
X74995063Y-53104592D01*
X74933903Y-52876337D01*
X74834035Y-52662171D01*
X74698495Y-52468599D01*
X74698494Y-52468597D01*
X74531402Y-52301506D01*
X74531396Y-52301501D01*
X74345842Y-52171575D01*
X74302217Y-52116998D01*
X74295023Y-52047500D01*
X74326546Y-51985145D01*
X74345842Y-51968425D01*
X74368026Y-51952891D01*
X74531401Y-51838495D01*
X74698495Y-51671401D01*
X74834035Y-51477830D01*
X74933903Y-51263663D01*
X74995063Y-51035408D01*
X75015659Y-50800000D01*
X74995063Y-50564592D01*
X74933903Y-50336337D01*
X74834035Y-50122171D01*
X74698495Y-49928599D01*
X74698494Y-49928597D01*
X74531402Y-49761506D01*
X74531396Y-49761501D01*
X74345842Y-49631575D01*
X74302217Y-49576998D01*
X74295023Y-49507500D01*
X74326546Y-49445145D01*
X74345842Y-49428425D01*
X74368026Y-49412891D01*
X74531401Y-49298495D01*
X74698495Y-49131401D01*
X74834035Y-48937830D01*
X74933903Y-48723663D01*
X74995063Y-48495408D01*
X75015659Y-48260000D01*
X74995063Y-48024592D01*
X74933903Y-47796337D01*
X74834035Y-47582171D01*
X74698495Y-47388599D01*
X74576567Y-47266671D01*
X74543084Y-47205351D01*
X74548068Y-47135659D01*
X74589939Y-47079725D01*
X74620915Y-47062810D01*
X74752331Y-47013796D01*
X74867546Y-46927546D01*
X74953796Y-46812331D01*
X75004091Y-46677483D01*
X75010500Y-46617873D01*
X75010499Y-44822128D01*
X75004091Y-44762517D01*
X74994691Y-44737315D01*
X74953797Y-44627671D01*
X74953793Y-44627664D01*
X74867547Y-44512455D01*
X74867544Y-44512452D01*
X74752335Y-44426206D01*
X74752328Y-44426202D01*
X74617482Y-44375908D01*
X74617483Y-44375908D01*
X74557883Y-44369501D01*
X74557881Y-44369500D01*
X74557873Y-44369500D01*
X74557864Y-44369500D01*
X72762129Y-44369500D01*
X72762123Y-44369501D01*
X72702516Y-44375908D01*
X72567671Y-44426202D01*
X72567664Y-44426206D01*
X72452455Y-44512452D01*
X72452452Y-44512455D01*
X72366206Y-44627664D01*
X72366202Y-44627671D01*
X72315908Y-44762517D01*
X72309501Y-44822116D01*
X72309501Y-44822123D01*
X72309500Y-44822135D01*
X72309500Y-46617870D01*
X72309501Y-46617876D01*
X72315908Y-46677483D01*
X72366202Y-46812328D01*
X72366206Y-46812335D01*
X72452452Y-46927544D01*
X72452455Y-46927547D01*
X72567664Y-47013793D01*
X72567671Y-47013797D01*
X72699081Y-47062810D01*
X72755015Y-47104681D01*
X72779432Y-47170145D01*
X72764580Y-47238418D01*
X72743430Y-47266673D01*
X72621503Y-47388600D01*
X72485965Y-47582169D01*
X72485964Y-47582171D01*
X72386098Y-47796335D01*
X72386094Y-47796344D01*
X72324938Y-48024586D01*
X72324936Y-48024596D01*
X72304341Y-48259999D01*
X52155659Y-48259999D01*
X52135063Y-48024592D01*
X52073903Y-47796337D01*
X51974035Y-47582171D01*
X51838495Y-47388599D01*
X51716567Y-47266671D01*
X51683084Y-47205351D01*
X51688068Y-47135659D01*
X51729939Y-47079725D01*
X51760915Y-47062810D01*
X51892331Y-47013796D01*
X52007546Y-46927546D01*
X52093796Y-46812331D01*
X52144091Y-46677483D01*
X52150500Y-46617873D01*
X52150499Y-44822128D01*
X52144091Y-44762517D01*
X52134691Y-44737315D01*
X52093797Y-44627671D01*
X52093793Y-44627664D01*
X52007547Y-44512455D01*
X52007544Y-44512452D01*
X51892335Y-44426206D01*
X51892328Y-44426202D01*
X51757482Y-44375908D01*
X51757483Y-44375908D01*
X51697883Y-44369501D01*
X51697881Y-44369500D01*
X51697873Y-44369500D01*
X51697864Y-44369500D01*
X49902129Y-44369500D01*
X49902123Y-44369501D01*
X49842516Y-44375908D01*
X49707671Y-44426202D01*
X49707664Y-44426206D01*
X49592455Y-44512452D01*
X49592452Y-44512455D01*
X49506206Y-44627664D01*
X49506202Y-44627671D01*
X49455908Y-44762517D01*
X49449501Y-44822116D01*
X49449501Y-44822123D01*
X49449500Y-44822135D01*
X49449500Y-46617870D01*
X49449501Y-46617876D01*
X49455908Y-46677483D01*
X49506202Y-46812328D01*
X49506206Y-46812335D01*
X49592452Y-46927544D01*
X49592455Y-46927547D01*
X49707664Y-47013793D01*
X49707671Y-47013797D01*
X49839081Y-47062810D01*
X49895015Y-47104681D01*
X49919432Y-47170145D01*
X49904580Y-47238418D01*
X49883430Y-47266673D01*
X49761503Y-47388600D01*
X49625965Y-47582169D01*
X49625964Y-47582171D01*
X49526098Y-47796335D01*
X49526094Y-47796344D01*
X49464938Y-48024586D01*
X49464936Y-48024596D01*
X49444341Y-48259999D01*
X48260000Y-48259999D01*
X48260000Y-43304000D01*
X48279685Y-43236961D01*
X48332489Y-43191206D01*
X48384000Y-43180000D01*
X59803233Y-43180000D01*
X59870272Y-43199685D01*
G37*
%TD.AperFunction*%
%TD*%
M02*
