%TF.GenerationSoftware,KiCad,Pcbnew,8.0.5*%
%TF.CreationDate,2024-11-22T15:59:57+05:30*%
%TF.ProjectId,kick,6b69636b-2e6b-4696-9361-645f70636258,rev?*%
%TF.SameCoordinates,Original*%
%TF.FileFunction,Legend,Top*%
%TF.FilePolarity,Positive*%
%FSLAX46Y46*%
G04 Gerber Fmt 4.6, Leading zero omitted, Abs format (unit mm)*
G04 Created by KiCad (PCBNEW 8.0.5) date 2024-11-22 15:59:57*
%MOMM*%
%LPD*%
G01*
G04 APERTURE LIST*
G04 Aperture macros list*
%AMRoundRect*
0 Rectangle with rounded corners*
0 $1 Rounding radius*
0 $2 $3 $4 $5 $6 $7 $8 $9 X,Y pos of 4 corners*
0 Add a 4 corners polygon primitive as box body*
4,1,4,$2,$3,$4,$5,$6,$7,$8,$9,$2,$3,0*
0 Add four circle primitives for the rounded corners*
1,1,$1+$1,$2,$3*
1,1,$1+$1,$4,$5*
1,1,$1+$1,$6,$7*
1,1,$1+$1,$8,$9*
0 Add four rect primitives between the rounded corners*
20,1,$1+$1,$2,$3,$4,$5,0*
20,1,$1+$1,$4,$5,$6,$7,0*
20,1,$1+$1,$6,$7,$8,$9,0*
20,1,$1+$1,$8,$9,$2,$3,0*%
G04 Aperture macros list end*
%ADD10C,0.100000*%
%ADD11C,0.150000*%
%ADD12C,0.200000*%
%ADD13C,0.400000*%
%ADD14C,0.120000*%
%ADD15RoundRect,0.140000X-0.140000X-0.170000X0.140000X-0.170000X0.140000X0.170000X-0.140000X0.170000X0*%
%ADD16O,2.720000X3.240000*%
%ADD17R,1.800000X1.800000*%
%ADD18C,1.800000*%
%ADD19RoundRect,0.135000X-0.135000X-0.185000X0.135000X-0.185000X0.135000X0.185000X-0.135000X0.185000X0*%
%ADD20RoundRect,0.135000X0.135000X0.185000X-0.135000X0.185000X-0.135000X-0.185000X0.135000X-0.185000X0*%
%ADD21RoundRect,0.135000X0.185000X-0.135000X0.185000X0.135000X-0.185000X0.135000X-0.185000X-0.135000X0*%
%ADD22R,1.700000X1.700000*%
%ADD23O,1.700000X1.700000*%
%ADD24RoundRect,0.150000X-0.825000X-0.150000X0.825000X-0.150000X0.825000X0.150000X-0.825000X0.150000X0*%
%ADD25R,2.290000X3.000000*%
%ADD26RoundRect,0.140000X0.140000X0.170000X-0.140000X0.170000X-0.140000X-0.170000X0.140000X-0.170000X0*%
%ADD27R,2.000000X2.000000*%
%ADD28O,2.000000X2.000000*%
G04 APERTURE END LIST*
D10*
X70866000Y-52959000D02*
X70866000Y-56642000D01*
X53213000Y-47498000D02*
X53213000Y-50292000D01*
X70866000Y-48260000D02*
X70866000Y-44831000D01*
X53213000Y-54102000D02*
X53213000Y-56896000D01*
D11*
X67778571Y-74799819D02*
X67778571Y-73799819D01*
X67778571Y-73799819D02*
X68016666Y-73799819D01*
X68016666Y-73799819D02*
X68159523Y-73847438D01*
X68159523Y-73847438D02*
X68254761Y-73942676D01*
X68254761Y-73942676D02*
X68302380Y-74037914D01*
X68302380Y-74037914D02*
X68349999Y-74228390D01*
X68349999Y-74228390D02*
X68349999Y-74371247D01*
X68349999Y-74371247D02*
X68302380Y-74561723D01*
X68302380Y-74561723D02*
X68254761Y-74656961D01*
X68254761Y-74656961D02*
X68159523Y-74752200D01*
X68159523Y-74752200D02*
X68016666Y-74799819D01*
X68016666Y-74799819D02*
X67778571Y-74799819D01*
X68778571Y-74276009D02*
X69111904Y-74276009D01*
X69254761Y-74799819D02*
X68778571Y-74799819D01*
X68778571Y-74799819D02*
X68778571Y-73799819D01*
X68778571Y-73799819D02*
X69254761Y-73799819D01*
X70254761Y-74704580D02*
X70207142Y-74752200D01*
X70207142Y-74752200D02*
X70064285Y-74799819D01*
X70064285Y-74799819D02*
X69969047Y-74799819D01*
X69969047Y-74799819D02*
X69826190Y-74752200D01*
X69826190Y-74752200D02*
X69730952Y-74656961D01*
X69730952Y-74656961D02*
X69683333Y-74561723D01*
X69683333Y-74561723D02*
X69635714Y-74371247D01*
X69635714Y-74371247D02*
X69635714Y-74228390D01*
X69635714Y-74228390D02*
X69683333Y-74037914D01*
X69683333Y-74037914D02*
X69730952Y-73942676D01*
X69730952Y-73942676D02*
X69826190Y-73847438D01*
X69826190Y-73847438D02*
X69969047Y-73799819D01*
X69969047Y-73799819D02*
X70064285Y-73799819D01*
X70064285Y-73799819D02*
X70207142Y-73847438D01*
X70207142Y-73847438D02*
X70254761Y-73895057D01*
X70635714Y-74514104D02*
X71111904Y-74514104D01*
X70540476Y-74799819D02*
X70873809Y-73799819D01*
X70873809Y-73799819D02*
X71207142Y-74799819D01*
X71730952Y-74323628D02*
X71730952Y-74799819D01*
X71397619Y-73799819D02*
X71730952Y-74323628D01*
X71730952Y-74323628D02*
X72064285Y-73799819D01*
X53717819Y-53839856D02*
X52717819Y-53839856D01*
X52717819Y-53839856D02*
X53432104Y-53506523D01*
X53432104Y-53506523D02*
X52717819Y-53173190D01*
X52717819Y-53173190D02*
X53717819Y-53173190D01*
X52717819Y-52696999D02*
X53527342Y-52696999D01*
X53527342Y-52696999D02*
X53622580Y-52649380D01*
X53622580Y-52649380D02*
X53670200Y-52601761D01*
X53670200Y-52601761D02*
X53717819Y-52506523D01*
X53717819Y-52506523D02*
X53717819Y-52316047D01*
X53717819Y-52316047D02*
X53670200Y-52220809D01*
X53670200Y-52220809D02*
X53622580Y-52173190D01*
X53622580Y-52173190D02*
X53527342Y-52125571D01*
X53527342Y-52125571D02*
X52717819Y-52125571D01*
X53717819Y-51173190D02*
X53717819Y-51649380D01*
X53717819Y-51649380D02*
X52717819Y-51649380D01*
X52717819Y-50982713D02*
X52717819Y-50411285D01*
X53717819Y-50696999D02*
X52717819Y-50696999D01*
X71085104Y-52569808D02*
X71085104Y-52093618D01*
X71370819Y-52665046D02*
X70370819Y-52331713D01*
X70370819Y-52331713D02*
X71370819Y-51998380D01*
X70370819Y-51665046D02*
X71180342Y-51665046D01*
X71180342Y-51665046D02*
X71275580Y-51617427D01*
X71275580Y-51617427D02*
X71323200Y-51569808D01*
X71323200Y-51569808D02*
X71370819Y-51474570D01*
X71370819Y-51474570D02*
X71370819Y-51284094D01*
X71370819Y-51284094D02*
X71323200Y-51188856D01*
X71323200Y-51188856D02*
X71275580Y-51141237D01*
X71275580Y-51141237D02*
X71180342Y-51093618D01*
X71180342Y-51093618D02*
X70370819Y-51093618D01*
X71370819Y-50617427D02*
X70370819Y-50617427D01*
X70370819Y-50617427D02*
X70370819Y-50379332D01*
X70370819Y-50379332D02*
X70418438Y-50236475D01*
X70418438Y-50236475D02*
X70513676Y-50141237D01*
X70513676Y-50141237D02*
X70608914Y-50093618D01*
X70608914Y-50093618D02*
X70799390Y-50045999D01*
X70799390Y-50045999D02*
X70942247Y-50045999D01*
X70942247Y-50045999D02*
X71132723Y-50093618D01*
X71132723Y-50093618D02*
X71227961Y-50141237D01*
X71227961Y-50141237D02*
X71323200Y-50236475D01*
X71323200Y-50236475D02*
X71370819Y-50379332D01*
X71370819Y-50379332D02*
X71370819Y-50617427D01*
X71370819Y-49617427D02*
X70370819Y-49617427D01*
X70370819Y-48950761D02*
X70370819Y-48760285D01*
X70370819Y-48760285D02*
X70418438Y-48665047D01*
X70418438Y-48665047D02*
X70513676Y-48569809D01*
X70513676Y-48569809D02*
X70704152Y-48522190D01*
X70704152Y-48522190D02*
X71037485Y-48522190D01*
X71037485Y-48522190D02*
X71227961Y-48569809D01*
X71227961Y-48569809D02*
X71323200Y-48665047D01*
X71323200Y-48665047D02*
X71370819Y-48760285D01*
X71370819Y-48760285D02*
X71370819Y-48950761D01*
X71370819Y-48950761D02*
X71323200Y-49045999D01*
X71323200Y-49045999D02*
X71227961Y-49141237D01*
X71227961Y-49141237D02*
X71037485Y-49188856D01*
X71037485Y-49188856D02*
X70704152Y-49188856D01*
X70704152Y-49188856D02*
X70513676Y-49141237D01*
X70513676Y-49141237D02*
X70418438Y-49045999D01*
X70418438Y-49045999D02*
X70370819Y-48950761D01*
X53276666Y-74276009D02*
X52943333Y-74276009D01*
X52943333Y-74799819D02*
X52943333Y-73799819D01*
X52943333Y-73799819D02*
X53419523Y-73799819D01*
X54371904Y-74799819D02*
X54038571Y-74323628D01*
X53800476Y-74799819D02*
X53800476Y-73799819D01*
X53800476Y-73799819D02*
X54181428Y-73799819D01*
X54181428Y-73799819D02*
X54276666Y-73847438D01*
X54276666Y-73847438D02*
X54324285Y-73895057D01*
X54324285Y-73895057D02*
X54371904Y-73990295D01*
X54371904Y-73990295D02*
X54371904Y-74133152D01*
X54371904Y-74133152D02*
X54324285Y-74228390D01*
X54324285Y-74228390D02*
X54276666Y-74276009D01*
X54276666Y-74276009D02*
X54181428Y-74323628D01*
X54181428Y-74323628D02*
X53800476Y-74323628D01*
X54800476Y-74276009D02*
X55133809Y-74276009D01*
X55276666Y-74799819D02*
X54800476Y-74799819D01*
X54800476Y-74799819D02*
X54800476Y-73799819D01*
X54800476Y-73799819D02*
X55276666Y-73799819D01*
X56371904Y-74895057D02*
X56276666Y-74847438D01*
X56276666Y-74847438D02*
X56181428Y-74752200D01*
X56181428Y-74752200D02*
X56038571Y-74609342D01*
X56038571Y-74609342D02*
X55943333Y-74561723D01*
X55943333Y-74561723D02*
X55848095Y-74561723D01*
X55895714Y-74799819D02*
X55800476Y-74752200D01*
X55800476Y-74752200D02*
X55705238Y-74656961D01*
X55705238Y-74656961D02*
X55657619Y-74466485D01*
X55657619Y-74466485D02*
X55657619Y-74133152D01*
X55657619Y-74133152D02*
X55705238Y-73942676D01*
X55705238Y-73942676D02*
X55800476Y-73847438D01*
X55800476Y-73847438D02*
X55895714Y-73799819D01*
X55895714Y-73799819D02*
X56086190Y-73799819D01*
X56086190Y-73799819D02*
X56181428Y-73847438D01*
X56181428Y-73847438D02*
X56276666Y-73942676D01*
X56276666Y-73942676D02*
X56324285Y-74133152D01*
X56324285Y-74133152D02*
X56324285Y-74466485D01*
X56324285Y-74466485D02*
X56276666Y-74656961D01*
X56276666Y-74656961D02*
X56181428Y-74752200D01*
X56181428Y-74752200D02*
X56086190Y-74799819D01*
X56086190Y-74799819D02*
X55895714Y-74799819D01*
X53184588Y-45272438D02*
X53089350Y-45224819D01*
X53089350Y-45224819D02*
X52946493Y-45224819D01*
X52946493Y-45224819D02*
X52803636Y-45272438D01*
X52803636Y-45272438D02*
X52708398Y-45367676D01*
X52708398Y-45367676D02*
X52660779Y-45462914D01*
X52660779Y-45462914D02*
X52613160Y-45653390D01*
X52613160Y-45653390D02*
X52613160Y-45796247D01*
X52613160Y-45796247D02*
X52660779Y-45986723D01*
X52660779Y-45986723D02*
X52708398Y-46081961D01*
X52708398Y-46081961D02*
X52803636Y-46177200D01*
X52803636Y-46177200D02*
X52946493Y-46224819D01*
X52946493Y-46224819D02*
X53041731Y-46224819D01*
X53041731Y-46224819D02*
X53184588Y-46177200D01*
X53184588Y-46177200D02*
X53232207Y-46129580D01*
X53232207Y-46129580D02*
X53232207Y-45796247D01*
X53232207Y-45796247D02*
X53041731Y-45796247D01*
X53613160Y-45939104D02*
X54089350Y-45939104D01*
X53517922Y-46224819D02*
X53851255Y-45224819D01*
X53851255Y-45224819D02*
X54184588Y-46224819D01*
X54375065Y-45224819D02*
X54946493Y-45224819D01*
X54660779Y-46224819D02*
X54660779Y-45224819D01*
X55279827Y-45701009D02*
X55613160Y-45701009D01*
X55756017Y-46224819D02*
X55279827Y-46224819D01*
X55279827Y-46224819D02*
X55279827Y-45224819D01*
X55279827Y-45224819D02*
X55756017Y-45224819D01*
X55946494Y-46320057D02*
X56708398Y-46320057D01*
X56946494Y-46224819D02*
X56946494Y-45224819D01*
X57422684Y-46224819D02*
X57422684Y-45224819D01*
X57422684Y-45224819D02*
X57994112Y-46224819D01*
X57994112Y-46224819D02*
X57994112Y-45224819D01*
X49612779Y-43557819D02*
X49612779Y-42557819D01*
X50088969Y-43557819D02*
X50088969Y-42557819D01*
X50088969Y-42557819D02*
X50660397Y-43557819D01*
X50660397Y-43557819D02*
X50660397Y-42557819D01*
X51136588Y-43557819D02*
X51136588Y-42557819D01*
X51136588Y-42557819D02*
X51517540Y-42557819D01*
X51517540Y-42557819D02*
X51612778Y-42605438D01*
X51612778Y-42605438D02*
X51660397Y-42653057D01*
X51660397Y-42653057D02*
X51708016Y-42748295D01*
X51708016Y-42748295D02*
X51708016Y-42891152D01*
X51708016Y-42891152D02*
X51660397Y-42986390D01*
X51660397Y-42986390D02*
X51612778Y-43034009D01*
X51612778Y-43034009D02*
X51517540Y-43081628D01*
X51517540Y-43081628D02*
X51136588Y-43081628D01*
X52136588Y-42557819D02*
X52136588Y-43367342D01*
X52136588Y-43367342D02*
X52184207Y-43462580D01*
X52184207Y-43462580D02*
X52231826Y-43510200D01*
X52231826Y-43510200D02*
X52327064Y-43557819D01*
X52327064Y-43557819D02*
X52517540Y-43557819D01*
X52517540Y-43557819D02*
X52612778Y-43510200D01*
X52612778Y-43510200D02*
X52660397Y-43462580D01*
X52660397Y-43462580D02*
X52708016Y-43367342D01*
X52708016Y-43367342D02*
X52708016Y-42557819D01*
X53041350Y-42557819D02*
X53612778Y-42557819D01*
X53327064Y-43557819D02*
X53327064Y-42557819D01*
D12*
X72957327Y-106207275D02*
X72957327Y-105207275D01*
X73528755Y-106207275D02*
X73100184Y-105635846D01*
X73528755Y-105207275D02*
X72957327Y-105778703D01*
X73957327Y-106207275D02*
X73957327Y-105207275D01*
X75004945Y-106112036D02*
X74957326Y-106159656D01*
X74957326Y-106159656D02*
X74814469Y-106207275D01*
X74814469Y-106207275D02*
X74719231Y-106207275D01*
X74719231Y-106207275D02*
X74576374Y-106159656D01*
X74576374Y-106159656D02*
X74481136Y-106064417D01*
X74481136Y-106064417D02*
X74433517Y-105969179D01*
X74433517Y-105969179D02*
X74385898Y-105778703D01*
X74385898Y-105778703D02*
X74385898Y-105635846D01*
X74385898Y-105635846D02*
X74433517Y-105445370D01*
X74433517Y-105445370D02*
X74481136Y-105350132D01*
X74481136Y-105350132D02*
X74576374Y-105254894D01*
X74576374Y-105254894D02*
X74719231Y-105207275D01*
X74719231Y-105207275D02*
X74814469Y-105207275D01*
X74814469Y-105207275D02*
X74957326Y-105254894D01*
X74957326Y-105254894D02*
X75004945Y-105302513D01*
X75433517Y-106207275D02*
X75433517Y-105207275D01*
X76004945Y-106207275D02*
X75576374Y-105635846D01*
X76004945Y-105207275D02*
X75433517Y-105778703D01*
X72814470Y-106817219D02*
X72909708Y-106817219D01*
X72909708Y-106817219D02*
X73004946Y-106864838D01*
X73004946Y-106864838D02*
X73052565Y-106912457D01*
X73052565Y-106912457D02*
X73100184Y-107007695D01*
X73100184Y-107007695D02*
X73147803Y-107198171D01*
X73147803Y-107198171D02*
X73147803Y-107436266D01*
X73147803Y-107436266D02*
X73100184Y-107626742D01*
X73100184Y-107626742D02*
X73052565Y-107721980D01*
X73052565Y-107721980D02*
X73004946Y-107769600D01*
X73004946Y-107769600D02*
X72909708Y-107817219D01*
X72909708Y-107817219D02*
X72814470Y-107817219D01*
X72814470Y-107817219D02*
X72719232Y-107769600D01*
X72719232Y-107769600D02*
X72671613Y-107721980D01*
X72671613Y-107721980D02*
X72623994Y-107626742D01*
X72623994Y-107626742D02*
X72576375Y-107436266D01*
X72576375Y-107436266D02*
X72576375Y-107198171D01*
X72576375Y-107198171D02*
X72623994Y-107007695D01*
X72623994Y-107007695D02*
X72671613Y-106912457D01*
X72671613Y-106912457D02*
X72719232Y-106864838D01*
X72719232Y-106864838D02*
X72814470Y-106817219D01*
X73576375Y-107721980D02*
X73623994Y-107769600D01*
X73623994Y-107769600D02*
X73576375Y-107817219D01*
X73576375Y-107817219D02*
X73528756Y-107769600D01*
X73528756Y-107769600D02*
X73576375Y-107721980D01*
X73576375Y-107721980D02*
X73576375Y-107817219D01*
X74576374Y-107817219D02*
X74004946Y-107817219D01*
X74290660Y-107817219D02*
X74290660Y-106817219D01*
X74290660Y-106817219D02*
X74195422Y-106960076D01*
X74195422Y-106960076D02*
X74100184Y-107055314D01*
X74100184Y-107055314D02*
X74004946Y-107102933D01*
X75004946Y-107721980D02*
X75052565Y-107769600D01*
X75052565Y-107769600D02*
X75004946Y-107817219D01*
X75004946Y-107817219D02*
X74957327Y-107769600D01*
X74957327Y-107769600D02*
X75004946Y-107721980D01*
X75004946Y-107721980D02*
X75004946Y-107817219D01*
X75671612Y-106817219D02*
X75766850Y-106817219D01*
X75766850Y-106817219D02*
X75862088Y-106864838D01*
X75862088Y-106864838D02*
X75909707Y-106912457D01*
X75909707Y-106912457D02*
X75957326Y-107007695D01*
X75957326Y-107007695D02*
X76004945Y-107198171D01*
X76004945Y-107198171D02*
X76004945Y-107436266D01*
X76004945Y-107436266D02*
X75957326Y-107626742D01*
X75957326Y-107626742D02*
X75909707Y-107721980D01*
X75909707Y-107721980D02*
X75862088Y-107769600D01*
X75862088Y-107769600D02*
X75766850Y-107817219D01*
X75766850Y-107817219D02*
X75671612Y-107817219D01*
X75671612Y-107817219D02*
X75576374Y-107769600D01*
X75576374Y-107769600D02*
X75528755Y-107721980D01*
X75528755Y-107721980D02*
X75481136Y-107626742D01*
X75481136Y-107626742D02*
X75433517Y-107436266D01*
X75433517Y-107436266D02*
X75433517Y-107198171D01*
X75433517Y-107198171D02*
X75481136Y-107007695D01*
X75481136Y-107007695D02*
X75528755Y-106912457D01*
X75528755Y-106912457D02*
X75576374Y-106864838D01*
X75576374Y-106864838D02*
X75671612Y-106817219D01*
D13*
X59159347Y-48502438D02*
X59159347Y-46502438D01*
X60302204Y-48502438D02*
X59445061Y-47359580D01*
X60302204Y-46502438D02*
X59159347Y-47645295D01*
X61159347Y-48502438D02*
X61159347Y-46502438D01*
X63254585Y-48311961D02*
X63159347Y-48407200D01*
X63159347Y-48407200D02*
X62873633Y-48502438D01*
X62873633Y-48502438D02*
X62683157Y-48502438D01*
X62683157Y-48502438D02*
X62397442Y-48407200D01*
X62397442Y-48407200D02*
X62206966Y-48216723D01*
X62206966Y-48216723D02*
X62111728Y-48026247D01*
X62111728Y-48026247D02*
X62016490Y-47645295D01*
X62016490Y-47645295D02*
X62016490Y-47359580D01*
X62016490Y-47359580D02*
X62111728Y-46978628D01*
X62111728Y-46978628D02*
X62206966Y-46788152D01*
X62206966Y-46788152D02*
X62397442Y-46597676D01*
X62397442Y-46597676D02*
X62683157Y-46502438D01*
X62683157Y-46502438D02*
X62873633Y-46502438D01*
X62873633Y-46502438D02*
X63159347Y-46597676D01*
X63159347Y-46597676D02*
X63254585Y-46692914D01*
X64111728Y-48502438D02*
X64111728Y-46502438D01*
X65254585Y-48502438D02*
X64397442Y-47359580D01*
X65254585Y-46502438D02*
X64111728Y-47645295D01*
D11*
X52522619Y-93326009D02*
X52189286Y-93326009D01*
X52189286Y-93849819D02*
X52189286Y-92849819D01*
X52189286Y-92849819D02*
X52665476Y-92849819D01*
X53046429Y-93849819D02*
X53046429Y-92849819D01*
X53046429Y-92849819D02*
X53379762Y-93564104D01*
X53379762Y-93564104D02*
X53713095Y-92849819D01*
X53713095Y-92849819D02*
X53713095Y-93849819D01*
X54379762Y-92849819D02*
X54570238Y-92849819D01*
X54570238Y-92849819D02*
X54665476Y-92897438D01*
X54665476Y-92897438D02*
X54760714Y-92992676D01*
X54760714Y-92992676D02*
X54808333Y-93183152D01*
X54808333Y-93183152D02*
X54808333Y-93516485D01*
X54808333Y-93516485D02*
X54760714Y-93706961D01*
X54760714Y-93706961D02*
X54665476Y-93802200D01*
X54665476Y-93802200D02*
X54570238Y-93849819D01*
X54570238Y-93849819D02*
X54379762Y-93849819D01*
X54379762Y-93849819D02*
X54284524Y-93802200D01*
X54284524Y-93802200D02*
X54189286Y-93706961D01*
X54189286Y-93706961D02*
X54141667Y-93516485D01*
X54141667Y-93516485D02*
X54141667Y-93183152D01*
X54141667Y-93183152D02*
X54189286Y-92992676D01*
X54189286Y-92992676D02*
X54284524Y-92897438D01*
X54284524Y-92897438D02*
X54379762Y-92849819D01*
X55236905Y-93849819D02*
X55236905Y-92849819D01*
X55236905Y-92849819D02*
X55475000Y-92849819D01*
X55475000Y-92849819D02*
X55617857Y-92897438D01*
X55617857Y-92897438D02*
X55713095Y-92992676D01*
X55713095Y-92992676D02*
X55760714Y-93087914D01*
X55760714Y-93087914D02*
X55808333Y-93278390D01*
X55808333Y-93278390D02*
X55808333Y-93421247D01*
X55808333Y-93421247D02*
X55760714Y-93611723D01*
X55760714Y-93611723D02*
X55713095Y-93706961D01*
X55713095Y-93706961D02*
X55617857Y-93802200D01*
X55617857Y-93802200D02*
X55475000Y-93849819D01*
X55475000Y-93849819D02*
X55236905Y-93849819D01*
X69593220Y-42684819D02*
X69783696Y-42684819D01*
X69783696Y-42684819D02*
X69878934Y-42732438D01*
X69878934Y-42732438D02*
X69974172Y-42827676D01*
X69974172Y-42827676D02*
X70021791Y-43018152D01*
X70021791Y-43018152D02*
X70021791Y-43351485D01*
X70021791Y-43351485D02*
X69974172Y-43541961D01*
X69974172Y-43541961D02*
X69878934Y-43637200D01*
X69878934Y-43637200D02*
X69783696Y-43684819D01*
X69783696Y-43684819D02*
X69593220Y-43684819D01*
X69593220Y-43684819D02*
X69497982Y-43637200D01*
X69497982Y-43637200D02*
X69402744Y-43541961D01*
X69402744Y-43541961D02*
X69355125Y-43351485D01*
X69355125Y-43351485D02*
X69355125Y-43018152D01*
X69355125Y-43018152D02*
X69402744Y-42827676D01*
X69402744Y-42827676D02*
X69497982Y-42732438D01*
X69497982Y-42732438D02*
X69593220Y-42684819D01*
X70450363Y-42684819D02*
X70450363Y-43494342D01*
X70450363Y-43494342D02*
X70497982Y-43589580D01*
X70497982Y-43589580D02*
X70545601Y-43637200D01*
X70545601Y-43637200D02*
X70640839Y-43684819D01*
X70640839Y-43684819D02*
X70831315Y-43684819D01*
X70831315Y-43684819D02*
X70926553Y-43637200D01*
X70926553Y-43637200D02*
X70974172Y-43589580D01*
X70974172Y-43589580D02*
X71021791Y-43494342D01*
X71021791Y-43494342D02*
X71021791Y-42684819D01*
X71355125Y-42684819D02*
X71926553Y-42684819D01*
X71640839Y-43684819D02*
X71640839Y-42684819D01*
X72259887Y-43684819D02*
X72259887Y-42684819D01*
X72259887Y-42684819D02*
X72640839Y-42684819D01*
X72640839Y-42684819D02*
X72736077Y-42732438D01*
X72736077Y-42732438D02*
X72783696Y-42780057D01*
X72783696Y-42780057D02*
X72831315Y-42875295D01*
X72831315Y-42875295D02*
X72831315Y-43018152D01*
X72831315Y-43018152D02*
X72783696Y-43113390D01*
X72783696Y-43113390D02*
X72736077Y-43161009D01*
X72736077Y-43161009D02*
X72640839Y-43208628D01*
X72640839Y-43208628D02*
X72259887Y-43208628D01*
X73259887Y-42684819D02*
X73259887Y-43494342D01*
X73259887Y-43494342D02*
X73307506Y-43589580D01*
X73307506Y-43589580D02*
X73355125Y-43637200D01*
X73355125Y-43637200D02*
X73450363Y-43684819D01*
X73450363Y-43684819D02*
X73640839Y-43684819D01*
X73640839Y-43684819D02*
X73736077Y-43637200D01*
X73736077Y-43637200D02*
X73783696Y-43589580D01*
X73783696Y-43589580D02*
X73831315Y-43494342D01*
X73831315Y-43494342D02*
X73831315Y-42684819D01*
X74164649Y-42684819D02*
X74736077Y-42684819D01*
X74450363Y-43684819D02*
X74450363Y-42684819D01*
X67445238Y-92849819D02*
X68016666Y-92849819D01*
X67730952Y-93849819D02*
X67730952Y-92849819D01*
X68350000Y-93849819D02*
X68350000Y-92849819D01*
X68350000Y-93326009D02*
X68921428Y-93326009D01*
X68921428Y-93849819D02*
X68921428Y-92849819D01*
X69397619Y-92849819D02*
X69397619Y-93659342D01*
X69397619Y-93659342D02*
X69445238Y-93754580D01*
X69445238Y-93754580D02*
X69492857Y-93802200D01*
X69492857Y-93802200D02*
X69588095Y-93849819D01*
X69588095Y-93849819D02*
X69778571Y-93849819D01*
X69778571Y-93849819D02*
X69873809Y-93802200D01*
X69873809Y-93802200D02*
X69921428Y-93754580D01*
X69921428Y-93754580D02*
X69969047Y-93659342D01*
X69969047Y-93659342D02*
X69969047Y-92849819D01*
X70445238Y-93849819D02*
X70445238Y-92849819D01*
X70445238Y-92849819D02*
X70778571Y-93564104D01*
X70778571Y-93564104D02*
X71111904Y-92849819D01*
X71111904Y-92849819D02*
X71111904Y-93849819D01*
X71588095Y-93849819D02*
X71588095Y-92849819D01*
X71588095Y-92849819D02*
X71969047Y-92849819D01*
X71969047Y-92849819D02*
X72064285Y-92897438D01*
X72064285Y-92897438D02*
X72111904Y-92945057D01*
X72111904Y-92945057D02*
X72159523Y-93040295D01*
X72159523Y-93040295D02*
X72159523Y-93183152D01*
X72159523Y-93183152D02*
X72111904Y-93278390D01*
X72111904Y-93278390D02*
X72064285Y-93326009D01*
X72064285Y-93326009D02*
X71969047Y-93373628D01*
X71969047Y-93373628D02*
X71588095Y-93373628D01*
D12*
X48963006Y-105683465D02*
X49105863Y-105731084D01*
X49105863Y-105731084D02*
X49153482Y-105778703D01*
X49153482Y-105778703D02*
X49201101Y-105873941D01*
X49201101Y-105873941D02*
X49201101Y-106016798D01*
X49201101Y-106016798D02*
X49153482Y-106112036D01*
X49153482Y-106112036D02*
X49105863Y-106159656D01*
X49105863Y-106159656D02*
X49010625Y-106207275D01*
X49010625Y-106207275D02*
X48629673Y-106207275D01*
X48629673Y-106207275D02*
X48629673Y-105207275D01*
X48629673Y-105207275D02*
X48963006Y-105207275D01*
X48963006Y-105207275D02*
X49058244Y-105254894D01*
X49058244Y-105254894D02*
X49105863Y-105302513D01*
X49105863Y-105302513D02*
X49153482Y-105397751D01*
X49153482Y-105397751D02*
X49153482Y-105492989D01*
X49153482Y-105492989D02*
X49105863Y-105588227D01*
X49105863Y-105588227D02*
X49058244Y-105635846D01*
X49058244Y-105635846D02*
X48963006Y-105683465D01*
X48963006Y-105683465D02*
X48629673Y-105683465D01*
X50201101Y-106207275D02*
X49867768Y-105731084D01*
X49629673Y-106207275D02*
X49629673Y-105207275D01*
X49629673Y-105207275D02*
X50010625Y-105207275D01*
X50010625Y-105207275D02*
X50105863Y-105254894D01*
X50105863Y-105254894D02*
X50153482Y-105302513D01*
X50153482Y-105302513D02*
X50201101Y-105397751D01*
X50201101Y-105397751D02*
X50201101Y-105540608D01*
X50201101Y-105540608D02*
X50153482Y-105635846D01*
X50153482Y-105635846D02*
X50105863Y-105683465D01*
X50105863Y-105683465D02*
X50010625Y-105731084D01*
X50010625Y-105731084D02*
X49629673Y-105731084D01*
X50629673Y-105683465D02*
X50963006Y-105683465D01*
X51105863Y-106207275D02*
X50629673Y-106207275D01*
X50629673Y-106207275D02*
X50629673Y-105207275D01*
X50629673Y-105207275D02*
X51105863Y-105207275D01*
X51486816Y-105921560D02*
X51963006Y-105921560D01*
X51391578Y-106207275D02*
X51724911Y-105207275D01*
X51724911Y-105207275D02*
X52058244Y-106207275D01*
X52391578Y-106207275D02*
X52391578Y-105207275D01*
X52391578Y-105207275D02*
X52629673Y-105207275D01*
X52629673Y-105207275D02*
X52772530Y-105254894D01*
X52772530Y-105254894D02*
X52867768Y-105350132D01*
X52867768Y-105350132D02*
X52915387Y-105445370D01*
X52915387Y-105445370D02*
X52963006Y-105635846D01*
X52963006Y-105635846D02*
X52963006Y-105778703D01*
X52963006Y-105778703D02*
X52915387Y-105969179D01*
X52915387Y-105969179D02*
X52867768Y-106064417D01*
X52867768Y-106064417D02*
X52772530Y-106159656D01*
X52772530Y-106159656D02*
X52629673Y-106207275D01*
X52629673Y-106207275D02*
X52391578Y-106207275D01*
X48629673Y-107817219D02*
X48629673Y-106817219D01*
X48629673Y-106817219D02*
X48963006Y-107531504D01*
X48963006Y-107531504D02*
X49296339Y-106817219D01*
X49296339Y-106817219D02*
X49296339Y-107817219D01*
X49963006Y-106817219D02*
X50153482Y-106817219D01*
X50153482Y-106817219D02*
X50248720Y-106864838D01*
X50248720Y-106864838D02*
X50343958Y-106960076D01*
X50343958Y-106960076D02*
X50391577Y-107150552D01*
X50391577Y-107150552D02*
X50391577Y-107483885D01*
X50391577Y-107483885D02*
X50343958Y-107674361D01*
X50343958Y-107674361D02*
X50248720Y-107769600D01*
X50248720Y-107769600D02*
X50153482Y-107817219D01*
X50153482Y-107817219D02*
X49963006Y-107817219D01*
X49963006Y-107817219D02*
X49867768Y-107769600D01*
X49867768Y-107769600D02*
X49772530Y-107674361D01*
X49772530Y-107674361D02*
X49724911Y-107483885D01*
X49724911Y-107483885D02*
X49724911Y-107150552D01*
X49724911Y-107150552D02*
X49772530Y-106960076D01*
X49772530Y-106960076D02*
X49867768Y-106864838D01*
X49867768Y-106864838D02*
X49963006Y-106817219D01*
X50820149Y-107817219D02*
X50820149Y-106817219D01*
X50820149Y-106817219D02*
X51058244Y-106817219D01*
X51058244Y-106817219D02*
X51201101Y-106864838D01*
X51201101Y-106864838D02*
X51296339Y-106960076D01*
X51296339Y-106960076D02*
X51343958Y-107055314D01*
X51343958Y-107055314D02*
X51391577Y-107245790D01*
X51391577Y-107245790D02*
X51391577Y-107388647D01*
X51391577Y-107388647D02*
X51343958Y-107579123D01*
X51343958Y-107579123D02*
X51296339Y-107674361D01*
X51296339Y-107674361D02*
X51201101Y-107769600D01*
X51201101Y-107769600D02*
X51058244Y-107817219D01*
X51058244Y-107817219D02*
X50820149Y-107817219D01*
X51820149Y-106817219D02*
X51820149Y-107626742D01*
X51820149Y-107626742D02*
X51867768Y-107721980D01*
X51867768Y-107721980D02*
X51915387Y-107769600D01*
X51915387Y-107769600D02*
X52010625Y-107817219D01*
X52010625Y-107817219D02*
X52201101Y-107817219D01*
X52201101Y-107817219D02*
X52296339Y-107769600D01*
X52296339Y-107769600D02*
X52343958Y-107721980D01*
X52343958Y-107721980D02*
X52391577Y-107626742D01*
X52391577Y-107626742D02*
X52391577Y-106817219D01*
X53343958Y-107817219D02*
X52867768Y-107817219D01*
X52867768Y-107817219D02*
X52867768Y-106817219D01*
X53629673Y-107531504D02*
X54105863Y-107531504D01*
X53534435Y-107817219D02*
X53867768Y-106817219D01*
X53867768Y-106817219D02*
X54201101Y-107817219D01*
X55105863Y-107817219D02*
X54772530Y-107341028D01*
X54534435Y-107817219D02*
X54534435Y-106817219D01*
X54534435Y-106817219D02*
X54915387Y-106817219D01*
X54915387Y-106817219D02*
X55010625Y-106864838D01*
X55010625Y-106864838D02*
X55058244Y-106912457D01*
X55058244Y-106912457D02*
X55105863Y-107007695D01*
X55105863Y-107007695D02*
X55105863Y-107150552D01*
X55105863Y-107150552D02*
X55058244Y-107245790D01*
X55058244Y-107245790D02*
X55010625Y-107293409D01*
X55010625Y-107293409D02*
X54915387Y-107341028D01*
X54915387Y-107341028D02*
X54534435Y-107341028D01*
D10*
X61478333Y-99946966D02*
X61445000Y-99980300D01*
X61445000Y-99980300D02*
X61345000Y-100013633D01*
X61345000Y-100013633D02*
X61278333Y-100013633D01*
X61278333Y-100013633D02*
X61178333Y-99980300D01*
X61178333Y-99980300D02*
X61111667Y-99913633D01*
X61111667Y-99913633D02*
X61078333Y-99846966D01*
X61078333Y-99846966D02*
X61045000Y-99713633D01*
X61045000Y-99713633D02*
X61045000Y-99613633D01*
X61045000Y-99613633D02*
X61078333Y-99480300D01*
X61078333Y-99480300D02*
X61111667Y-99413633D01*
X61111667Y-99413633D02*
X61178333Y-99346966D01*
X61178333Y-99346966D02*
X61278333Y-99313633D01*
X61278333Y-99313633D02*
X61345000Y-99313633D01*
X61345000Y-99313633D02*
X61445000Y-99346966D01*
X61445000Y-99346966D02*
X61478333Y-99380300D01*
X62111667Y-99313633D02*
X61778333Y-99313633D01*
X61778333Y-99313633D02*
X61745000Y-99646966D01*
X61745000Y-99646966D02*
X61778333Y-99613633D01*
X61778333Y-99613633D02*
X61845000Y-99580300D01*
X61845000Y-99580300D02*
X62011667Y-99580300D01*
X62011667Y-99580300D02*
X62078333Y-99613633D01*
X62078333Y-99613633D02*
X62111667Y-99646966D01*
X62111667Y-99646966D02*
X62145000Y-99713633D01*
X62145000Y-99713633D02*
X62145000Y-99880300D01*
X62145000Y-99880300D02*
X62111667Y-99946966D01*
X62111667Y-99946966D02*
X62078333Y-99980300D01*
X62078333Y-99980300D02*
X62011667Y-100013633D01*
X62011667Y-100013633D02*
X61845000Y-100013633D01*
X61845000Y-100013633D02*
X61778333Y-99980300D01*
X61778333Y-99980300D02*
X61745000Y-99946966D01*
X47889333Y-103883966D02*
X47856000Y-103917300D01*
X47856000Y-103917300D02*
X47756000Y-103950633D01*
X47756000Y-103950633D02*
X47689333Y-103950633D01*
X47689333Y-103950633D02*
X47589333Y-103917300D01*
X47589333Y-103917300D02*
X47522667Y-103850633D01*
X47522667Y-103850633D02*
X47489333Y-103783966D01*
X47489333Y-103783966D02*
X47456000Y-103650633D01*
X47456000Y-103650633D02*
X47456000Y-103550633D01*
X47456000Y-103550633D02*
X47489333Y-103417300D01*
X47489333Y-103417300D02*
X47522667Y-103350633D01*
X47522667Y-103350633D02*
X47589333Y-103283966D01*
X47589333Y-103283966D02*
X47689333Y-103250633D01*
X47689333Y-103250633D02*
X47756000Y-103250633D01*
X47756000Y-103250633D02*
X47856000Y-103283966D01*
X47856000Y-103283966D02*
X47889333Y-103317300D01*
X48122667Y-103250633D02*
X48589333Y-103250633D01*
X48589333Y-103250633D02*
X48289333Y-103950633D01*
X69399999Y-106490633D02*
X69166666Y-106157300D01*
X68999999Y-106490633D02*
X68999999Y-105790633D01*
X68999999Y-105790633D02*
X69266666Y-105790633D01*
X69266666Y-105790633D02*
X69333333Y-105823966D01*
X69333333Y-105823966D02*
X69366666Y-105857300D01*
X69366666Y-105857300D02*
X69399999Y-105923966D01*
X69399999Y-105923966D02*
X69399999Y-106023966D01*
X69399999Y-106023966D02*
X69366666Y-106090633D01*
X69366666Y-106090633D02*
X69333333Y-106123966D01*
X69333333Y-106123966D02*
X69266666Y-106157300D01*
X69266666Y-106157300D02*
X68999999Y-106157300D01*
X70066666Y-106490633D02*
X69666666Y-106490633D01*
X69866666Y-106490633D02*
X69866666Y-105790633D01*
X69866666Y-105790633D02*
X69799999Y-105890633D01*
X69799999Y-105890633D02*
X69733333Y-105957300D01*
X69733333Y-105957300D02*
X69666666Y-105990633D01*
X70733333Y-106490633D02*
X70333333Y-106490633D01*
X70533333Y-106490633D02*
X70533333Y-105790633D01*
X70533333Y-105790633D02*
X70466666Y-105890633D01*
X70466666Y-105890633D02*
X70400000Y-105957300D01*
X70400000Y-105957300D02*
X70333333Y-105990633D01*
X64446999Y-103315633D02*
X64213666Y-102982300D01*
X64046999Y-103315633D02*
X64046999Y-102615633D01*
X64046999Y-102615633D02*
X64313666Y-102615633D01*
X64313666Y-102615633D02*
X64380333Y-102648966D01*
X64380333Y-102648966D02*
X64413666Y-102682300D01*
X64413666Y-102682300D02*
X64446999Y-102748966D01*
X64446999Y-102748966D02*
X64446999Y-102848966D01*
X64446999Y-102848966D02*
X64413666Y-102915633D01*
X64413666Y-102915633D02*
X64380333Y-102948966D01*
X64380333Y-102948966D02*
X64313666Y-102982300D01*
X64313666Y-102982300D02*
X64046999Y-102982300D01*
X65113666Y-103315633D02*
X64713666Y-103315633D01*
X64913666Y-103315633D02*
X64913666Y-102615633D01*
X64913666Y-102615633D02*
X64846999Y-102715633D01*
X64846999Y-102715633D02*
X64780333Y-102782300D01*
X64780333Y-102782300D02*
X64713666Y-102815633D01*
X65713666Y-102615633D02*
X65580333Y-102615633D01*
X65580333Y-102615633D02*
X65513666Y-102648966D01*
X65513666Y-102648966D02*
X65480333Y-102682300D01*
X65480333Y-102682300D02*
X65413666Y-102782300D01*
X65413666Y-102782300D02*
X65380333Y-102915633D01*
X65380333Y-102915633D02*
X65380333Y-103182300D01*
X65380333Y-103182300D02*
X65413666Y-103248966D01*
X65413666Y-103248966D02*
X65447000Y-103282300D01*
X65447000Y-103282300D02*
X65513666Y-103315633D01*
X65513666Y-103315633D02*
X65647000Y-103315633D01*
X65647000Y-103315633D02*
X65713666Y-103282300D01*
X65713666Y-103282300D02*
X65747000Y-103248966D01*
X65747000Y-103248966D02*
X65780333Y-103182300D01*
X65780333Y-103182300D02*
X65780333Y-103015633D01*
X65780333Y-103015633D02*
X65747000Y-102948966D01*
X65747000Y-102948966D02*
X65713666Y-102915633D01*
X65713666Y-102915633D02*
X65647000Y-102882300D01*
X65647000Y-102882300D02*
X65513666Y-102882300D01*
X65513666Y-102882300D02*
X65447000Y-102915633D01*
X65447000Y-102915633D02*
X65413666Y-102948966D01*
X65413666Y-102948966D02*
X65380333Y-103015633D01*
X63564633Y-102736666D02*
X63231300Y-102969999D01*
X63564633Y-103136666D02*
X62864633Y-103136666D01*
X62864633Y-103136666D02*
X62864633Y-102869999D01*
X62864633Y-102869999D02*
X62897966Y-102803333D01*
X62897966Y-102803333D02*
X62931300Y-102769999D01*
X62931300Y-102769999D02*
X62997966Y-102736666D01*
X62997966Y-102736666D02*
X63097966Y-102736666D01*
X63097966Y-102736666D02*
X63164633Y-102769999D01*
X63164633Y-102769999D02*
X63197966Y-102803333D01*
X63197966Y-102803333D02*
X63231300Y-102869999D01*
X63231300Y-102869999D02*
X63231300Y-103136666D01*
X62864633Y-102103333D02*
X62864633Y-102436666D01*
X62864633Y-102436666D02*
X63197966Y-102469999D01*
X63197966Y-102469999D02*
X63164633Y-102436666D01*
X63164633Y-102436666D02*
X63131300Y-102369999D01*
X63131300Y-102369999D02*
X63131300Y-102203333D01*
X63131300Y-102203333D02*
X63164633Y-102136666D01*
X63164633Y-102136666D02*
X63197966Y-102103333D01*
X63197966Y-102103333D02*
X63264633Y-102069999D01*
X63264633Y-102069999D02*
X63431300Y-102069999D01*
X63431300Y-102069999D02*
X63497966Y-102103333D01*
X63497966Y-102103333D02*
X63531300Y-102136666D01*
X63531300Y-102136666D02*
X63564633Y-102203333D01*
X63564633Y-102203333D02*
X63564633Y-102369999D01*
X63564633Y-102369999D02*
X63531300Y-102436666D01*
X63531300Y-102436666D02*
X63497966Y-102469999D01*
D11*
X56388095Y-53429819D02*
X56388095Y-54239342D01*
X56388095Y-54239342D02*
X56435714Y-54334580D01*
X56435714Y-54334580D02*
X56483333Y-54382200D01*
X56483333Y-54382200D02*
X56578571Y-54429819D01*
X56578571Y-54429819D02*
X56769047Y-54429819D01*
X56769047Y-54429819D02*
X56864285Y-54382200D01*
X56864285Y-54382200D02*
X56911904Y-54334580D01*
X56911904Y-54334580D02*
X56959523Y-54239342D01*
X56959523Y-54239342D02*
X56959523Y-53429819D01*
X57959523Y-54429819D02*
X57388095Y-54429819D01*
X57673809Y-54429819D02*
X57673809Y-53429819D01*
X57673809Y-53429819D02*
X57578571Y-53572676D01*
X57578571Y-53572676D02*
X57483333Y-53667914D01*
X57483333Y-53667914D02*
X57388095Y-53715533D01*
D10*
X61400999Y-90461633D02*
X61167666Y-90128300D01*
X61000999Y-90461633D02*
X61000999Y-89761633D01*
X61000999Y-89761633D02*
X61267666Y-89761633D01*
X61267666Y-89761633D02*
X61334333Y-89794966D01*
X61334333Y-89794966D02*
X61367666Y-89828300D01*
X61367666Y-89828300D02*
X61400999Y-89894966D01*
X61400999Y-89894966D02*
X61400999Y-89994966D01*
X61400999Y-89994966D02*
X61367666Y-90061633D01*
X61367666Y-90061633D02*
X61334333Y-90094966D01*
X61334333Y-90094966D02*
X61267666Y-90128300D01*
X61267666Y-90128300D02*
X61000999Y-90128300D01*
X62067666Y-90461633D02*
X61667666Y-90461633D01*
X61867666Y-90461633D02*
X61867666Y-89761633D01*
X61867666Y-89761633D02*
X61800999Y-89861633D01*
X61800999Y-89861633D02*
X61734333Y-89928300D01*
X61734333Y-89928300D02*
X61667666Y-89961633D01*
X62667666Y-89994966D02*
X62667666Y-90461633D01*
X62501000Y-89728300D02*
X62334333Y-90228300D01*
X62334333Y-90228300D02*
X62767666Y-90228300D01*
D11*
X62804819Y-64860238D02*
X62328628Y-65193571D01*
X62804819Y-65431666D02*
X61804819Y-65431666D01*
X61804819Y-65431666D02*
X61804819Y-65050714D01*
X61804819Y-65050714D02*
X61852438Y-64955476D01*
X61852438Y-64955476D02*
X61900057Y-64907857D01*
X61900057Y-64907857D02*
X61995295Y-64860238D01*
X61995295Y-64860238D02*
X62138152Y-64860238D01*
X62138152Y-64860238D02*
X62233390Y-64907857D01*
X62233390Y-64907857D02*
X62281009Y-64955476D01*
X62281009Y-64955476D02*
X62328628Y-65050714D01*
X62328628Y-65050714D02*
X62328628Y-65431666D01*
X61804819Y-64574523D02*
X62804819Y-64241190D01*
X62804819Y-64241190D02*
X61804819Y-63907857D01*
X61804819Y-63669761D02*
X61804819Y-63050714D01*
X61804819Y-63050714D02*
X62185771Y-63384047D01*
X62185771Y-63384047D02*
X62185771Y-63241190D01*
X62185771Y-63241190D02*
X62233390Y-63145952D01*
X62233390Y-63145952D02*
X62281009Y-63098333D01*
X62281009Y-63098333D02*
X62376247Y-63050714D01*
X62376247Y-63050714D02*
X62614342Y-63050714D01*
X62614342Y-63050714D02*
X62709580Y-63098333D01*
X62709580Y-63098333D02*
X62757200Y-63145952D01*
X62757200Y-63145952D02*
X62804819Y-63241190D01*
X62804819Y-63241190D02*
X62804819Y-63526904D01*
X62804819Y-63526904D02*
X62757200Y-63622142D01*
X62757200Y-63622142D02*
X62709580Y-63669761D01*
D10*
X61478333Y-101918633D02*
X61245000Y-101585300D01*
X61078333Y-101918633D02*
X61078333Y-101218633D01*
X61078333Y-101218633D02*
X61345000Y-101218633D01*
X61345000Y-101218633D02*
X61411667Y-101251966D01*
X61411667Y-101251966D02*
X61445000Y-101285300D01*
X61445000Y-101285300D02*
X61478333Y-101351966D01*
X61478333Y-101351966D02*
X61478333Y-101451966D01*
X61478333Y-101451966D02*
X61445000Y-101518633D01*
X61445000Y-101518633D02*
X61411667Y-101551966D01*
X61411667Y-101551966D02*
X61345000Y-101585300D01*
X61345000Y-101585300D02*
X61078333Y-101585300D01*
X62078333Y-101218633D02*
X61945000Y-101218633D01*
X61945000Y-101218633D02*
X61878333Y-101251966D01*
X61878333Y-101251966D02*
X61845000Y-101285300D01*
X61845000Y-101285300D02*
X61778333Y-101385300D01*
X61778333Y-101385300D02*
X61745000Y-101518633D01*
X61745000Y-101518633D02*
X61745000Y-101785300D01*
X61745000Y-101785300D02*
X61778333Y-101851966D01*
X61778333Y-101851966D02*
X61811667Y-101885300D01*
X61811667Y-101885300D02*
X61878333Y-101918633D01*
X61878333Y-101918633D02*
X62011667Y-101918633D01*
X62011667Y-101918633D02*
X62078333Y-101885300D01*
X62078333Y-101885300D02*
X62111667Y-101851966D01*
X62111667Y-101851966D02*
X62145000Y-101785300D01*
X62145000Y-101785300D02*
X62145000Y-101618633D01*
X62145000Y-101618633D02*
X62111667Y-101551966D01*
X62111667Y-101551966D02*
X62078333Y-101518633D01*
X62078333Y-101518633D02*
X62011667Y-101485300D01*
X62011667Y-101485300D02*
X61878333Y-101485300D01*
X61878333Y-101485300D02*
X61811667Y-101518633D01*
X61811667Y-101518633D02*
X61778333Y-101551966D01*
X61778333Y-101551966D02*
X61745000Y-101618633D01*
X64069999Y-99886633D02*
X63836666Y-99553300D01*
X63669999Y-99886633D02*
X63669999Y-99186633D01*
X63669999Y-99186633D02*
X63936666Y-99186633D01*
X63936666Y-99186633D02*
X64003333Y-99219966D01*
X64003333Y-99219966D02*
X64036666Y-99253300D01*
X64036666Y-99253300D02*
X64069999Y-99319966D01*
X64069999Y-99319966D02*
X64069999Y-99419966D01*
X64069999Y-99419966D02*
X64036666Y-99486633D01*
X64036666Y-99486633D02*
X64003333Y-99519966D01*
X64003333Y-99519966D02*
X63936666Y-99553300D01*
X63936666Y-99553300D02*
X63669999Y-99553300D01*
X64736666Y-99886633D02*
X64336666Y-99886633D01*
X64536666Y-99886633D02*
X64536666Y-99186633D01*
X64536666Y-99186633D02*
X64469999Y-99286633D01*
X64469999Y-99286633D02*
X64403333Y-99353300D01*
X64403333Y-99353300D02*
X64336666Y-99386633D01*
X65003333Y-99253300D02*
X65036666Y-99219966D01*
X65036666Y-99219966D02*
X65103333Y-99186633D01*
X65103333Y-99186633D02*
X65270000Y-99186633D01*
X65270000Y-99186633D02*
X65336666Y-99219966D01*
X65336666Y-99219966D02*
X65370000Y-99253300D01*
X65370000Y-99253300D02*
X65403333Y-99319966D01*
X65403333Y-99319966D02*
X65403333Y-99386633D01*
X65403333Y-99386633D02*
X65370000Y-99486633D01*
X65370000Y-99486633D02*
X64970000Y-99886633D01*
X64970000Y-99886633D02*
X65403333Y-99886633D01*
X55128333Y-57468633D02*
X54895000Y-57135300D01*
X54728333Y-57468633D02*
X54728333Y-56768633D01*
X54728333Y-56768633D02*
X54995000Y-56768633D01*
X54995000Y-56768633D02*
X55061667Y-56801966D01*
X55061667Y-56801966D02*
X55095000Y-56835300D01*
X55095000Y-56835300D02*
X55128333Y-56901966D01*
X55128333Y-56901966D02*
X55128333Y-57001966D01*
X55128333Y-57001966D02*
X55095000Y-57068633D01*
X55095000Y-57068633D02*
X55061667Y-57101966D01*
X55061667Y-57101966D02*
X54995000Y-57135300D01*
X54995000Y-57135300D02*
X54728333Y-57135300D01*
X55795000Y-57468633D02*
X55395000Y-57468633D01*
X55595000Y-57468633D02*
X55595000Y-56768633D01*
X55595000Y-56768633D02*
X55528333Y-56868633D01*
X55528333Y-56868633D02*
X55461667Y-56935300D01*
X55461667Y-56935300D02*
X55395000Y-56968633D01*
X70876333Y-98295966D02*
X70843000Y-98329300D01*
X70843000Y-98329300D02*
X70743000Y-98362633D01*
X70743000Y-98362633D02*
X70676333Y-98362633D01*
X70676333Y-98362633D02*
X70576333Y-98329300D01*
X70576333Y-98329300D02*
X70509667Y-98262633D01*
X70509667Y-98262633D02*
X70476333Y-98195966D01*
X70476333Y-98195966D02*
X70443000Y-98062633D01*
X70443000Y-98062633D02*
X70443000Y-97962633D01*
X70443000Y-97962633D02*
X70476333Y-97829300D01*
X70476333Y-97829300D02*
X70509667Y-97762633D01*
X70509667Y-97762633D02*
X70576333Y-97695966D01*
X70576333Y-97695966D02*
X70676333Y-97662633D01*
X70676333Y-97662633D02*
X70743000Y-97662633D01*
X70743000Y-97662633D02*
X70843000Y-97695966D01*
X70843000Y-97695966D02*
X70876333Y-97729300D01*
X71476333Y-97895966D02*
X71476333Y-98362633D01*
X71309667Y-97629300D02*
X71143000Y-98129300D01*
X71143000Y-98129300D02*
X71576333Y-98129300D01*
X61984333Y-75883633D02*
X61751000Y-75550300D01*
X61584333Y-75883633D02*
X61584333Y-75183633D01*
X61584333Y-75183633D02*
X61851000Y-75183633D01*
X61851000Y-75183633D02*
X61917667Y-75216966D01*
X61917667Y-75216966D02*
X61951000Y-75250300D01*
X61951000Y-75250300D02*
X61984333Y-75316966D01*
X61984333Y-75316966D02*
X61984333Y-75416966D01*
X61984333Y-75416966D02*
X61951000Y-75483633D01*
X61951000Y-75483633D02*
X61917667Y-75516966D01*
X61917667Y-75516966D02*
X61851000Y-75550300D01*
X61851000Y-75550300D02*
X61584333Y-75550300D01*
X62217667Y-75183633D02*
X62651000Y-75183633D01*
X62651000Y-75183633D02*
X62417667Y-75450300D01*
X62417667Y-75450300D02*
X62517667Y-75450300D01*
X62517667Y-75450300D02*
X62584333Y-75483633D01*
X62584333Y-75483633D02*
X62617667Y-75516966D01*
X62617667Y-75516966D02*
X62651000Y-75583633D01*
X62651000Y-75583633D02*
X62651000Y-75750300D01*
X62651000Y-75750300D02*
X62617667Y-75816966D01*
X62617667Y-75816966D02*
X62584333Y-75850300D01*
X62584333Y-75850300D02*
X62517667Y-75883633D01*
X62517667Y-75883633D02*
X62317667Y-75883633D01*
X62317667Y-75883633D02*
X62251000Y-75850300D01*
X62251000Y-75850300D02*
X62217667Y-75816966D01*
X69098333Y-55563633D02*
X68865000Y-55230300D01*
X68698333Y-55563633D02*
X68698333Y-54863633D01*
X68698333Y-54863633D02*
X68965000Y-54863633D01*
X68965000Y-54863633D02*
X69031667Y-54896966D01*
X69031667Y-54896966D02*
X69065000Y-54930300D01*
X69065000Y-54930300D02*
X69098333Y-54996966D01*
X69098333Y-54996966D02*
X69098333Y-55096966D01*
X69098333Y-55096966D02*
X69065000Y-55163633D01*
X69065000Y-55163633D02*
X69031667Y-55196966D01*
X69031667Y-55196966D02*
X68965000Y-55230300D01*
X68965000Y-55230300D02*
X68698333Y-55230300D01*
X69698333Y-55096966D02*
X69698333Y-55563633D01*
X69531667Y-54830300D02*
X69365000Y-55330300D01*
X69365000Y-55330300D02*
X69798333Y-55330300D01*
X47889333Y-100013633D02*
X47656000Y-99680300D01*
X47489333Y-100013633D02*
X47489333Y-99313633D01*
X47489333Y-99313633D02*
X47756000Y-99313633D01*
X47756000Y-99313633D02*
X47822667Y-99346966D01*
X47822667Y-99346966D02*
X47856000Y-99380300D01*
X47856000Y-99380300D02*
X47889333Y-99446966D01*
X47889333Y-99446966D02*
X47889333Y-99546966D01*
X47889333Y-99546966D02*
X47856000Y-99613633D01*
X47856000Y-99613633D02*
X47822667Y-99646966D01*
X47822667Y-99646966D02*
X47756000Y-99680300D01*
X47756000Y-99680300D02*
X47489333Y-99680300D01*
X48289333Y-99613633D02*
X48222667Y-99580300D01*
X48222667Y-99580300D02*
X48189333Y-99546966D01*
X48189333Y-99546966D02*
X48156000Y-99480300D01*
X48156000Y-99480300D02*
X48156000Y-99446966D01*
X48156000Y-99446966D02*
X48189333Y-99380300D01*
X48189333Y-99380300D02*
X48222667Y-99346966D01*
X48222667Y-99346966D02*
X48289333Y-99313633D01*
X48289333Y-99313633D02*
X48422667Y-99313633D01*
X48422667Y-99313633D02*
X48489333Y-99346966D01*
X48489333Y-99346966D02*
X48522667Y-99380300D01*
X48522667Y-99380300D02*
X48556000Y-99446966D01*
X48556000Y-99446966D02*
X48556000Y-99480300D01*
X48556000Y-99480300D02*
X48522667Y-99546966D01*
X48522667Y-99546966D02*
X48489333Y-99580300D01*
X48489333Y-99580300D02*
X48422667Y-99613633D01*
X48422667Y-99613633D02*
X48289333Y-99613633D01*
X48289333Y-99613633D02*
X48222667Y-99646966D01*
X48222667Y-99646966D02*
X48189333Y-99680300D01*
X48189333Y-99680300D02*
X48156000Y-99746966D01*
X48156000Y-99746966D02*
X48156000Y-99880300D01*
X48156000Y-99880300D02*
X48189333Y-99946966D01*
X48189333Y-99946966D02*
X48222667Y-99980300D01*
X48222667Y-99980300D02*
X48289333Y-100013633D01*
X48289333Y-100013633D02*
X48422667Y-100013633D01*
X48422667Y-100013633D02*
X48489333Y-99980300D01*
X48489333Y-99980300D02*
X48522667Y-99946966D01*
X48522667Y-99946966D02*
X48556000Y-99880300D01*
X48556000Y-99880300D02*
X48556000Y-99746966D01*
X48556000Y-99746966D02*
X48522667Y-99680300D01*
X48522667Y-99680300D02*
X48489333Y-99646966D01*
X48489333Y-99646966D02*
X48422667Y-99613633D01*
X57920333Y-75856633D02*
X57687000Y-75523300D01*
X57520333Y-75856633D02*
X57520333Y-75156633D01*
X57520333Y-75156633D02*
X57787000Y-75156633D01*
X57787000Y-75156633D02*
X57853667Y-75189966D01*
X57853667Y-75189966D02*
X57887000Y-75223300D01*
X57887000Y-75223300D02*
X57920333Y-75289966D01*
X57920333Y-75289966D02*
X57920333Y-75389966D01*
X57920333Y-75389966D02*
X57887000Y-75456633D01*
X57887000Y-75456633D02*
X57853667Y-75489966D01*
X57853667Y-75489966D02*
X57787000Y-75523300D01*
X57787000Y-75523300D02*
X57520333Y-75523300D01*
X58253667Y-75856633D02*
X58387000Y-75856633D01*
X58387000Y-75856633D02*
X58453667Y-75823300D01*
X58453667Y-75823300D02*
X58487000Y-75789966D01*
X58487000Y-75789966D02*
X58553667Y-75689966D01*
X58553667Y-75689966D02*
X58587000Y-75556633D01*
X58587000Y-75556633D02*
X58587000Y-75289966D01*
X58587000Y-75289966D02*
X58553667Y-75223300D01*
X58553667Y-75223300D02*
X58520333Y-75189966D01*
X58520333Y-75189966D02*
X58453667Y-75156633D01*
X58453667Y-75156633D02*
X58320333Y-75156633D01*
X58320333Y-75156633D02*
X58253667Y-75189966D01*
X58253667Y-75189966D02*
X58220333Y-75223300D01*
X58220333Y-75223300D02*
X58187000Y-75289966D01*
X58187000Y-75289966D02*
X58187000Y-75456633D01*
X58187000Y-75456633D02*
X58220333Y-75523300D01*
X58220333Y-75523300D02*
X58253667Y-75556633D01*
X58253667Y-75556633D02*
X58320333Y-75589966D01*
X58320333Y-75589966D02*
X58453667Y-75589966D01*
X58453667Y-75589966D02*
X58520333Y-75556633D01*
X58520333Y-75556633D02*
X58553667Y-75523300D01*
X58553667Y-75523300D02*
X58587000Y-75456633D01*
X55128333Y-56131966D02*
X55095000Y-56165300D01*
X55095000Y-56165300D02*
X54995000Y-56198633D01*
X54995000Y-56198633D02*
X54928333Y-56198633D01*
X54928333Y-56198633D02*
X54828333Y-56165300D01*
X54828333Y-56165300D02*
X54761667Y-56098633D01*
X54761667Y-56098633D02*
X54728333Y-56031966D01*
X54728333Y-56031966D02*
X54695000Y-55898633D01*
X54695000Y-55898633D02*
X54695000Y-55798633D01*
X54695000Y-55798633D02*
X54728333Y-55665300D01*
X54728333Y-55665300D02*
X54761667Y-55598633D01*
X54761667Y-55598633D02*
X54828333Y-55531966D01*
X54828333Y-55531966D02*
X54928333Y-55498633D01*
X54928333Y-55498633D02*
X54995000Y-55498633D01*
X54995000Y-55498633D02*
X55095000Y-55531966D01*
X55095000Y-55531966D02*
X55128333Y-55565300D01*
X55795000Y-56198633D02*
X55395000Y-56198633D01*
X55595000Y-56198633D02*
X55595000Y-55498633D01*
X55595000Y-55498633D02*
X55528333Y-55598633D01*
X55528333Y-55598633D02*
X55461667Y-55665300D01*
X55461667Y-55665300D02*
X55395000Y-55698633D01*
X55128333Y-58671966D02*
X55095000Y-58705300D01*
X55095000Y-58705300D02*
X54995000Y-58738633D01*
X54995000Y-58738633D02*
X54928333Y-58738633D01*
X54928333Y-58738633D02*
X54828333Y-58705300D01*
X54828333Y-58705300D02*
X54761667Y-58638633D01*
X54761667Y-58638633D02*
X54728333Y-58571966D01*
X54728333Y-58571966D02*
X54695000Y-58438633D01*
X54695000Y-58438633D02*
X54695000Y-58338633D01*
X54695000Y-58338633D02*
X54728333Y-58205300D01*
X54728333Y-58205300D02*
X54761667Y-58138633D01*
X54761667Y-58138633D02*
X54828333Y-58071966D01*
X54828333Y-58071966D02*
X54928333Y-58038633D01*
X54928333Y-58038633D02*
X54995000Y-58038633D01*
X54995000Y-58038633D02*
X55095000Y-58071966D01*
X55095000Y-58071966D02*
X55128333Y-58105300D01*
X55361667Y-58038633D02*
X55795000Y-58038633D01*
X55795000Y-58038633D02*
X55561667Y-58305300D01*
X55561667Y-58305300D02*
X55661667Y-58305300D01*
X55661667Y-58305300D02*
X55728333Y-58338633D01*
X55728333Y-58338633D02*
X55761667Y-58371966D01*
X55761667Y-58371966D02*
X55795000Y-58438633D01*
X55795000Y-58438633D02*
X55795000Y-58605300D01*
X55795000Y-58605300D02*
X55761667Y-58671966D01*
X55761667Y-58671966D02*
X55728333Y-58705300D01*
X55728333Y-58705300D02*
X55661667Y-58738633D01*
X55661667Y-58738633D02*
X55461667Y-58738633D01*
X55461667Y-58738633D02*
X55395000Y-58705300D01*
X55395000Y-58705300D02*
X55361667Y-58671966D01*
X65032333Y-75883633D02*
X64799000Y-75550300D01*
X64632333Y-75883633D02*
X64632333Y-75183633D01*
X64632333Y-75183633D02*
X64899000Y-75183633D01*
X64899000Y-75183633D02*
X64965667Y-75216966D01*
X64965667Y-75216966D02*
X64999000Y-75250300D01*
X64999000Y-75250300D02*
X65032333Y-75316966D01*
X65032333Y-75316966D02*
X65032333Y-75416966D01*
X65032333Y-75416966D02*
X64999000Y-75483633D01*
X64999000Y-75483633D02*
X64965667Y-75516966D01*
X64965667Y-75516966D02*
X64899000Y-75550300D01*
X64899000Y-75550300D02*
X64632333Y-75550300D01*
X65299000Y-75250300D02*
X65332333Y-75216966D01*
X65332333Y-75216966D02*
X65399000Y-75183633D01*
X65399000Y-75183633D02*
X65565667Y-75183633D01*
X65565667Y-75183633D02*
X65632333Y-75216966D01*
X65632333Y-75216966D02*
X65665667Y-75250300D01*
X65665667Y-75250300D02*
X65699000Y-75316966D01*
X65699000Y-75316966D02*
X65699000Y-75383633D01*
X65699000Y-75383633D02*
X65665667Y-75483633D01*
X65665667Y-75483633D02*
X65265667Y-75883633D01*
X65265667Y-75883633D02*
X65699000Y-75883633D01*
X47889333Y-101597966D02*
X47856000Y-101631300D01*
X47856000Y-101631300D02*
X47756000Y-101664633D01*
X47756000Y-101664633D02*
X47689333Y-101664633D01*
X47689333Y-101664633D02*
X47589333Y-101631300D01*
X47589333Y-101631300D02*
X47522667Y-101564633D01*
X47522667Y-101564633D02*
X47489333Y-101497966D01*
X47489333Y-101497966D02*
X47456000Y-101364633D01*
X47456000Y-101364633D02*
X47456000Y-101264633D01*
X47456000Y-101264633D02*
X47489333Y-101131300D01*
X47489333Y-101131300D02*
X47522667Y-101064633D01*
X47522667Y-101064633D02*
X47589333Y-100997966D01*
X47589333Y-100997966D02*
X47689333Y-100964633D01*
X47689333Y-100964633D02*
X47756000Y-100964633D01*
X47756000Y-100964633D02*
X47856000Y-100997966D01*
X47856000Y-100997966D02*
X47889333Y-101031300D01*
X48489333Y-100964633D02*
X48356000Y-100964633D01*
X48356000Y-100964633D02*
X48289333Y-100997966D01*
X48289333Y-100997966D02*
X48256000Y-101031300D01*
X48256000Y-101031300D02*
X48189333Y-101131300D01*
X48189333Y-101131300D02*
X48156000Y-101264633D01*
X48156000Y-101264633D02*
X48156000Y-101531300D01*
X48156000Y-101531300D02*
X48189333Y-101597966D01*
X48189333Y-101597966D02*
X48222667Y-101631300D01*
X48222667Y-101631300D02*
X48289333Y-101664633D01*
X48289333Y-101664633D02*
X48422667Y-101664633D01*
X48422667Y-101664633D02*
X48489333Y-101631300D01*
X48489333Y-101631300D02*
X48522667Y-101597966D01*
X48522667Y-101597966D02*
X48556000Y-101531300D01*
X48556000Y-101531300D02*
X48556000Y-101364633D01*
X48556000Y-101364633D02*
X48522667Y-101297966D01*
X48522667Y-101297966D02*
X48489333Y-101264633D01*
X48489333Y-101264633D02*
X48422667Y-101231300D01*
X48422667Y-101231300D02*
X48289333Y-101231300D01*
X48289333Y-101231300D02*
X48222667Y-101264633D01*
X48222667Y-101264633D02*
X48189333Y-101297966D01*
X48189333Y-101297966D02*
X48156000Y-101364633D01*
D11*
X74168095Y-97539819D02*
X74168095Y-98349342D01*
X74168095Y-98349342D02*
X74215714Y-98444580D01*
X74215714Y-98444580D02*
X74263333Y-98492200D01*
X74263333Y-98492200D02*
X74358571Y-98539819D01*
X74358571Y-98539819D02*
X74549047Y-98539819D01*
X74549047Y-98539819D02*
X74644285Y-98492200D01*
X74644285Y-98492200D02*
X74691904Y-98444580D01*
X74691904Y-98444580D02*
X74739523Y-98349342D01*
X74739523Y-98349342D02*
X74739523Y-97539819D01*
X75120476Y-97539819D02*
X75739523Y-97539819D01*
X75739523Y-97539819D02*
X75406190Y-97920771D01*
X75406190Y-97920771D02*
X75549047Y-97920771D01*
X75549047Y-97920771D02*
X75644285Y-97968390D01*
X75644285Y-97968390D02*
X75691904Y-98016009D01*
X75691904Y-98016009D02*
X75739523Y-98111247D01*
X75739523Y-98111247D02*
X75739523Y-98349342D01*
X75739523Y-98349342D02*
X75691904Y-98444580D01*
X75691904Y-98444580D02*
X75644285Y-98492200D01*
X75644285Y-98492200D02*
X75549047Y-98539819D01*
X75549047Y-98539819D02*
X75263333Y-98539819D01*
X75263333Y-98539819D02*
X75168095Y-98492200D01*
X75168095Y-98492200D02*
X75120476Y-98444580D01*
D10*
X57513333Y-105407966D02*
X57480000Y-105441300D01*
X57480000Y-105441300D02*
X57380000Y-105474633D01*
X57380000Y-105474633D02*
X57313333Y-105474633D01*
X57313333Y-105474633D02*
X57213333Y-105441300D01*
X57213333Y-105441300D02*
X57146667Y-105374633D01*
X57146667Y-105374633D02*
X57113333Y-105307966D01*
X57113333Y-105307966D02*
X57080000Y-105174633D01*
X57080000Y-105174633D02*
X57080000Y-105074633D01*
X57080000Y-105074633D02*
X57113333Y-104941300D01*
X57113333Y-104941300D02*
X57146667Y-104874633D01*
X57146667Y-104874633D02*
X57213333Y-104807966D01*
X57213333Y-104807966D02*
X57313333Y-104774633D01*
X57313333Y-104774633D02*
X57380000Y-104774633D01*
X57380000Y-104774633D02*
X57480000Y-104807966D01*
X57480000Y-104807966D02*
X57513333Y-104841300D01*
X57780000Y-104841300D02*
X57813333Y-104807966D01*
X57813333Y-104807966D02*
X57880000Y-104774633D01*
X57880000Y-104774633D02*
X58046667Y-104774633D01*
X58046667Y-104774633D02*
X58113333Y-104807966D01*
X58113333Y-104807966D02*
X58146667Y-104841300D01*
X58146667Y-104841300D02*
X58180000Y-104907966D01*
X58180000Y-104907966D02*
X58180000Y-104974633D01*
X58180000Y-104974633D02*
X58146667Y-105074633D01*
X58146667Y-105074633D02*
X57746667Y-105474633D01*
X57746667Y-105474633D02*
X58180000Y-105474633D01*
D11*
X50673095Y-97769819D02*
X50673095Y-98579342D01*
X50673095Y-98579342D02*
X50720714Y-98674580D01*
X50720714Y-98674580D02*
X50768333Y-98722200D01*
X50768333Y-98722200D02*
X50863571Y-98769819D01*
X50863571Y-98769819D02*
X51054047Y-98769819D01*
X51054047Y-98769819D02*
X51149285Y-98722200D01*
X51149285Y-98722200D02*
X51196904Y-98674580D01*
X51196904Y-98674580D02*
X51244523Y-98579342D01*
X51244523Y-98579342D02*
X51244523Y-97769819D01*
X51673095Y-97865057D02*
X51720714Y-97817438D01*
X51720714Y-97817438D02*
X51815952Y-97769819D01*
X51815952Y-97769819D02*
X52054047Y-97769819D01*
X52054047Y-97769819D02*
X52149285Y-97817438D01*
X52149285Y-97817438D02*
X52196904Y-97865057D01*
X52196904Y-97865057D02*
X52244523Y-97960295D01*
X52244523Y-97960295D02*
X52244523Y-98055533D01*
X52244523Y-98055533D02*
X52196904Y-98198390D01*
X52196904Y-98198390D02*
X51625476Y-98769819D01*
X51625476Y-98769819D02*
X52244523Y-98769819D01*
D10*
X61525999Y-87921633D02*
X61292666Y-87588300D01*
X61125999Y-87921633D02*
X61125999Y-87221633D01*
X61125999Y-87221633D02*
X61392666Y-87221633D01*
X61392666Y-87221633D02*
X61459333Y-87254966D01*
X61459333Y-87254966D02*
X61492666Y-87288300D01*
X61492666Y-87288300D02*
X61525999Y-87354966D01*
X61525999Y-87354966D02*
X61525999Y-87454966D01*
X61525999Y-87454966D02*
X61492666Y-87521633D01*
X61492666Y-87521633D02*
X61459333Y-87554966D01*
X61459333Y-87554966D02*
X61392666Y-87588300D01*
X61392666Y-87588300D02*
X61125999Y-87588300D01*
X62192666Y-87921633D02*
X61792666Y-87921633D01*
X61992666Y-87921633D02*
X61992666Y-87221633D01*
X61992666Y-87221633D02*
X61925999Y-87321633D01*
X61925999Y-87321633D02*
X61859333Y-87388300D01*
X61859333Y-87388300D02*
X61792666Y-87421633D01*
X62426000Y-87221633D02*
X62859333Y-87221633D01*
X62859333Y-87221633D02*
X62626000Y-87488300D01*
X62626000Y-87488300D02*
X62726000Y-87488300D01*
X62726000Y-87488300D02*
X62792666Y-87521633D01*
X62792666Y-87521633D02*
X62826000Y-87554966D01*
X62826000Y-87554966D02*
X62859333Y-87621633D01*
X62859333Y-87621633D02*
X62859333Y-87788300D01*
X62859333Y-87788300D02*
X62826000Y-87854966D01*
X62826000Y-87854966D02*
X62792666Y-87888300D01*
X62792666Y-87888300D02*
X62726000Y-87921633D01*
X62726000Y-87921633D02*
X62526000Y-87921633D01*
X62526000Y-87921633D02*
X62459333Y-87888300D01*
X62459333Y-87888300D02*
X62426000Y-87854966D01*
X74178333Y-95568633D02*
X73945000Y-95235300D01*
X73778333Y-95568633D02*
X73778333Y-94868633D01*
X73778333Y-94868633D02*
X74045000Y-94868633D01*
X74045000Y-94868633D02*
X74111667Y-94901966D01*
X74111667Y-94901966D02*
X74145000Y-94935300D01*
X74145000Y-94935300D02*
X74178333Y-95001966D01*
X74178333Y-95001966D02*
X74178333Y-95101966D01*
X74178333Y-95101966D02*
X74145000Y-95168633D01*
X74145000Y-95168633D02*
X74111667Y-95201966D01*
X74111667Y-95201966D02*
X74045000Y-95235300D01*
X74045000Y-95235300D02*
X73778333Y-95235300D01*
X74411667Y-94868633D02*
X74878333Y-94868633D01*
X74878333Y-94868633D02*
X74578333Y-95568633D01*
X64192999Y-101156633D02*
X63959666Y-100823300D01*
X63792999Y-101156633D02*
X63792999Y-100456633D01*
X63792999Y-100456633D02*
X64059666Y-100456633D01*
X64059666Y-100456633D02*
X64126333Y-100489966D01*
X64126333Y-100489966D02*
X64159666Y-100523300D01*
X64159666Y-100523300D02*
X64192999Y-100589966D01*
X64192999Y-100589966D02*
X64192999Y-100689966D01*
X64192999Y-100689966D02*
X64159666Y-100756633D01*
X64159666Y-100756633D02*
X64126333Y-100789966D01*
X64126333Y-100789966D02*
X64059666Y-100823300D01*
X64059666Y-100823300D02*
X63792999Y-100823300D01*
X64859666Y-101156633D02*
X64459666Y-101156633D01*
X64659666Y-101156633D02*
X64659666Y-100456633D01*
X64659666Y-100456633D02*
X64592999Y-100556633D01*
X64592999Y-100556633D02*
X64526333Y-100623300D01*
X64526333Y-100623300D02*
X64459666Y-100656633D01*
X65293000Y-100456633D02*
X65359666Y-100456633D01*
X65359666Y-100456633D02*
X65426333Y-100489966D01*
X65426333Y-100489966D02*
X65459666Y-100523300D01*
X65459666Y-100523300D02*
X65493000Y-100589966D01*
X65493000Y-100589966D02*
X65526333Y-100723300D01*
X65526333Y-100723300D02*
X65526333Y-100889966D01*
X65526333Y-100889966D02*
X65493000Y-101023300D01*
X65493000Y-101023300D02*
X65459666Y-101089966D01*
X65459666Y-101089966D02*
X65426333Y-101123300D01*
X65426333Y-101123300D02*
X65359666Y-101156633D01*
X65359666Y-101156633D02*
X65293000Y-101156633D01*
X65293000Y-101156633D02*
X65226333Y-101123300D01*
X65226333Y-101123300D02*
X65193000Y-101089966D01*
X65193000Y-101089966D02*
X65159666Y-101023300D01*
X65159666Y-101023300D02*
X65126333Y-100889966D01*
X65126333Y-100889966D02*
X65126333Y-100723300D01*
X65126333Y-100723300D02*
X65159666Y-100589966D01*
X65159666Y-100589966D02*
X65193000Y-100523300D01*
X65193000Y-100523300D02*
X65226333Y-100489966D01*
X65226333Y-100489966D02*
X65293000Y-100456633D01*
X64317999Y-102172633D02*
X64084666Y-101839300D01*
X63917999Y-102172633D02*
X63917999Y-101472633D01*
X63917999Y-101472633D02*
X64184666Y-101472633D01*
X64184666Y-101472633D02*
X64251333Y-101505966D01*
X64251333Y-101505966D02*
X64284666Y-101539300D01*
X64284666Y-101539300D02*
X64317999Y-101605966D01*
X64317999Y-101605966D02*
X64317999Y-101705966D01*
X64317999Y-101705966D02*
X64284666Y-101772633D01*
X64284666Y-101772633D02*
X64251333Y-101805966D01*
X64251333Y-101805966D02*
X64184666Y-101839300D01*
X64184666Y-101839300D02*
X63917999Y-101839300D01*
X64984666Y-102172633D02*
X64584666Y-102172633D01*
X64784666Y-102172633D02*
X64784666Y-101472633D01*
X64784666Y-101472633D02*
X64717999Y-101572633D01*
X64717999Y-101572633D02*
X64651333Y-101639300D01*
X64651333Y-101639300D02*
X64584666Y-101672633D01*
X65618000Y-101472633D02*
X65284666Y-101472633D01*
X65284666Y-101472633D02*
X65251333Y-101805966D01*
X65251333Y-101805966D02*
X65284666Y-101772633D01*
X65284666Y-101772633D02*
X65351333Y-101739300D01*
X65351333Y-101739300D02*
X65518000Y-101739300D01*
X65518000Y-101739300D02*
X65584666Y-101772633D01*
X65584666Y-101772633D02*
X65618000Y-101805966D01*
X65618000Y-101805966D02*
X65651333Y-101872633D01*
X65651333Y-101872633D02*
X65651333Y-102039300D01*
X65651333Y-102039300D02*
X65618000Y-102105966D01*
X65618000Y-102105966D02*
X65584666Y-102139300D01*
X65584666Y-102139300D02*
X65518000Y-102172633D01*
X65518000Y-102172633D02*
X65351333Y-102172633D01*
X65351333Y-102172633D02*
X65284666Y-102139300D01*
X65284666Y-102139300D02*
X65251333Y-102105966D01*
D14*
%TO.C,C5*%
X59582164Y-99335000D02*
X59797836Y-99335000D01*
X59582164Y-100055000D02*
X59797836Y-100055000D01*
%TO.C,RV2*%
X49730000Y-70885000D02*
X49730000Y-66165000D01*
X49740000Y-62355000D02*
X49740000Y-59295000D01*
X50920000Y-70885000D02*
X49740000Y-70885000D01*
X53820000Y-70885000D02*
X53290000Y-70885000D01*
X56270000Y-70885000D02*
X55440000Y-70885000D01*
X59480000Y-59295000D02*
X49740000Y-59295000D01*
X59480000Y-62355000D02*
X59480000Y-59295000D01*
X59480000Y-70885000D02*
X57990000Y-70885000D01*
X59480000Y-70885000D02*
X59480000Y-66165000D01*
%TO.C,RV4*%
X49095000Y-89935000D02*
X49095000Y-85215000D01*
X49105000Y-81405000D02*
X49105000Y-78345000D01*
X50285000Y-89935000D02*
X49105000Y-89935000D01*
X53185000Y-89935000D02*
X52655000Y-89935000D01*
X55635000Y-89935000D02*
X54805000Y-89935000D01*
X58845000Y-78345000D02*
X49105000Y-78345000D01*
X58845000Y-81405000D02*
X58845000Y-78345000D01*
X58845000Y-89935000D02*
X57355000Y-89935000D01*
X58845000Y-89935000D02*
X58845000Y-85215000D01*
%TO.C,C7*%
X49704164Y-103272000D02*
X49919836Y-103272000D01*
X49704164Y-103992000D02*
X49919836Y-103992000D01*
%TO.C,R11*%
X69694359Y-104649000D02*
X70001641Y-104649000D01*
X69694359Y-105409000D02*
X70001641Y-105409000D01*
%TO.C,R16*%
X66953641Y-103250000D02*
X66646359Y-103250000D01*
X66953641Y-102490000D02*
X66646359Y-102490000D01*
%TO.C,R5*%
X62866000Y-100866641D02*
X62866000Y-100559359D01*
X63626000Y-100866641D02*
X63626000Y-100559359D01*
%TO.C,INPUT1*%
X49470000Y-46990000D02*
X49470000Y-57210000D01*
X49470000Y-46990000D02*
X52130000Y-46990000D01*
X49470000Y-57210000D02*
X52130000Y-57210000D01*
X50800000Y-44390000D02*
X52130000Y-44390000D01*
X52130000Y-44390000D02*
X52130000Y-45720000D01*
X52130000Y-46990000D02*
X52130000Y-57210000D01*
%TO.C,U1*%
X62165000Y-53320000D02*
X60215000Y-53320000D01*
X62165000Y-53320000D02*
X64115000Y-53320000D01*
X62165000Y-58440000D02*
X60215000Y-58440000D01*
X62165000Y-58440000D02*
X64115000Y-58440000D01*
X59465000Y-53415000D02*
X59225000Y-53085000D01*
X59705000Y-53085000D01*
X59465000Y-53415000D01*
G36*
X59465000Y-53415000D02*
G01*
X59225000Y-53085000D01*
X59705000Y-53085000D01*
X59465000Y-53415000D01*
G37*
%TO.C,R14*%
X61697359Y-90933000D02*
X62004641Y-90933000D01*
X61697359Y-91693000D02*
X62004641Y-91693000D01*
%TO.C,RV3*%
X64970000Y-70885000D02*
X64970000Y-66165000D01*
X64980000Y-62355000D02*
X64980000Y-59295000D01*
X66160000Y-70885000D02*
X64980000Y-70885000D01*
X69060000Y-70885000D02*
X68530000Y-70885000D01*
X71510000Y-70885000D02*
X70680000Y-70885000D01*
X74720000Y-59295000D02*
X64980000Y-59295000D01*
X74720000Y-62355000D02*
X74720000Y-59295000D01*
X74720000Y-70885000D02*
X73230000Y-70885000D01*
X74720000Y-70885000D02*
X74720000Y-66165000D01*
%TO.C,R6*%
X59843641Y-101220000D02*
X59536359Y-101220000D01*
X59843641Y-101980000D02*
X59536359Y-101980000D01*
%TO.C,R12*%
X66830641Y-99188000D02*
X66523359Y-99188000D01*
X66830641Y-99948000D02*
X66523359Y-99948000D01*
%TO.C,R1*%
X56486359Y-56770000D02*
X56793641Y-56770000D01*
X56486359Y-57530000D02*
X56793641Y-57530000D01*
%TO.C,C4*%
X72779836Y-97684000D02*
X72564164Y-97684000D01*
X72779836Y-98404000D02*
X72564164Y-98404000D01*
%TO.C,R3*%
X62254641Y-76328000D02*
X61947359Y-76328000D01*
X62254641Y-77088000D02*
X61947359Y-77088000D01*
%TO.C,R4*%
X67156359Y-54865000D02*
X67463641Y-54865000D01*
X67156359Y-55625000D02*
X67463641Y-55625000D01*
%TO.C,R8*%
X49808641Y-99315000D02*
X49501359Y-99315000D01*
X49808641Y-100075000D02*
X49501359Y-100075000D01*
%TO.C,R9*%
X57883359Y-76328000D02*
X58190641Y-76328000D01*
X57883359Y-77088000D02*
X58190641Y-77088000D01*
%TO.C,C1*%
X56562164Y-55520000D02*
X56777836Y-55520000D01*
X56562164Y-56240000D02*
X56777836Y-56240000D01*
%TO.C,C3*%
X56562164Y-58060000D02*
X56777836Y-58060000D01*
X56562164Y-58780000D02*
X56777836Y-58780000D01*
%TO.C,R2*%
X65302641Y-76328000D02*
X64995359Y-76328000D01*
X65302641Y-77088000D02*
X64995359Y-77088000D01*
%TO.C,RV1*%
X64970000Y-89935000D02*
X64970000Y-85215000D01*
X64980000Y-81405000D02*
X64980000Y-78345000D01*
X66160000Y-89935000D02*
X64980000Y-89935000D01*
X69060000Y-89935000D02*
X68530000Y-89935000D01*
X71510000Y-89935000D02*
X70680000Y-89935000D01*
X74720000Y-78345000D02*
X64980000Y-78345000D01*
X74720000Y-81405000D02*
X74720000Y-78345000D01*
X74720000Y-89935000D02*
X73230000Y-89935000D01*
X74720000Y-89935000D02*
X74720000Y-85215000D01*
%TO.C,C6*%
X49792836Y-100986000D02*
X49577164Y-100986000D01*
X49792836Y-101706000D02*
X49577164Y-101706000D01*
%TO.C,U3*%
X72390000Y-98925000D02*
X70440000Y-98925000D01*
X72390000Y-98925000D02*
X74340000Y-98925000D01*
X72390000Y-104045000D02*
X70440000Y-104045000D01*
X72390000Y-104045000D02*
X74340000Y-104045000D01*
X69690000Y-99020000D02*
X69450000Y-98690000D01*
X69930000Y-98690000D01*
X69690000Y-99020000D01*
G36*
X69690000Y-99020000D02*
G01*
X69450000Y-98690000D01*
X69930000Y-98690000D01*
X69690000Y-99020000D01*
G37*
%TO.C,C2*%
X55832836Y-104796000D02*
X55617164Y-104796000D01*
X55832836Y-105516000D02*
X55617164Y-105516000D01*
%TO.C,U2*%
X54610000Y-99155000D02*
X52660000Y-99155000D01*
X54610000Y-99155000D02*
X56560000Y-99155000D01*
X54610000Y-104275000D02*
X52660000Y-104275000D01*
X54610000Y-104275000D02*
X56560000Y-104275000D01*
X51910000Y-99250000D02*
X51670000Y-98920000D01*
X52150000Y-98920000D01*
X51910000Y-99250000D01*
G36*
X51910000Y-99250000D02*
G01*
X51670000Y-98920000D01*
X52150000Y-98920000D01*
X51910000Y-99250000D01*
G37*
%TO.C,R13*%
X61822359Y-88393000D02*
X62129641Y-88393000D01*
X61822359Y-89153000D02*
X62129641Y-89153000D01*
%TO.C,R7*%
X72236359Y-94870000D02*
X72543641Y-94870000D01*
X72236359Y-95630000D02*
X72543641Y-95630000D01*
%TO.C,OUTPUT1*%
X72330000Y-46990000D02*
X72330000Y-57210000D01*
X72330000Y-46990000D02*
X74990000Y-46990000D01*
X72330000Y-57210000D02*
X74990000Y-57210000D01*
X73660000Y-44390000D02*
X74990000Y-44390000D01*
X74990000Y-44390000D02*
X74990000Y-45720000D01*
X74990000Y-46990000D02*
X74990000Y-57210000D01*
%TO.C,R10*%
X66953641Y-100458000D02*
X66646359Y-100458000D01*
X66953641Y-101218000D02*
X66646359Y-101218000D01*
%TO.C,R15*%
X66646359Y-101474000D02*
X66953641Y-101474000D01*
X66646359Y-102234000D02*
X66953641Y-102234000D01*
%TD*%
%LPC*%
D15*
%TO.C,C5*%
X59210000Y-99695000D03*
X60170000Y-99695000D03*
%TD*%
D16*
%TO.C,RV2*%
X49810000Y-64265000D03*
X59410000Y-64265000D03*
D17*
X52110000Y-71765000D03*
D18*
X54610000Y-71765000D03*
X57110000Y-71765000D03*
%TD*%
D16*
%TO.C,RV4*%
X49175000Y-83315000D03*
X58775000Y-83315000D03*
D17*
X51475000Y-90815000D03*
D18*
X53975000Y-90815000D03*
X56475000Y-90815000D03*
%TD*%
D15*
%TO.C,C7*%
X49332000Y-103632000D03*
X50292000Y-103632000D03*
%TD*%
D19*
%TO.C,R11*%
X69338000Y-105029000D03*
X70358000Y-105029000D03*
%TD*%
D20*
%TO.C,R16*%
X67310000Y-102870000D03*
X66290000Y-102870000D03*
%TD*%
D21*
%TO.C,R5*%
X63246000Y-101223000D03*
X63246000Y-100203000D03*
%TD*%
D22*
%TO.C,INPUT1*%
X50800000Y-45720000D03*
D23*
X50800000Y-48260000D03*
X50800000Y-50800000D03*
X50800000Y-53340000D03*
X50800000Y-55880000D03*
%TD*%
D24*
%TO.C,U1*%
X59690000Y-53975000D03*
X59690000Y-55245000D03*
X59690000Y-56515000D03*
X59690000Y-57785000D03*
X64640000Y-57785000D03*
X64640000Y-56515000D03*
X64640000Y-55245000D03*
X64640000Y-53975000D03*
D25*
X62165000Y-55880000D03*
%TD*%
D19*
%TO.C,R14*%
X61341000Y-91313000D03*
X62361000Y-91313000D03*
%TD*%
D16*
%TO.C,RV3*%
X65050000Y-64265000D03*
X74650000Y-64265000D03*
D17*
X67350000Y-71765000D03*
D18*
X69850000Y-71765000D03*
X72350000Y-71765000D03*
%TD*%
D20*
%TO.C,R6*%
X60200000Y-101600000D03*
X59180000Y-101600000D03*
%TD*%
%TO.C,R12*%
X67187000Y-99568000D03*
X66167000Y-99568000D03*
%TD*%
D19*
%TO.C,R1*%
X56130000Y-57150000D03*
X57150000Y-57150000D03*
%TD*%
D26*
%TO.C,C4*%
X73152000Y-98044000D03*
X72192000Y-98044000D03*
%TD*%
D20*
%TO.C,R3*%
X62611000Y-76708000D03*
X61591000Y-76708000D03*
%TD*%
D19*
%TO.C,R4*%
X66800000Y-55245000D03*
X67820000Y-55245000D03*
%TD*%
D20*
%TO.C,R8*%
X50165000Y-99695000D03*
X49145000Y-99695000D03*
%TD*%
D19*
%TO.C,R9*%
X57527000Y-76708000D03*
X58547000Y-76708000D03*
%TD*%
D15*
%TO.C,C1*%
X56190000Y-55880000D03*
X57150000Y-55880000D03*
%TD*%
%TO.C,C3*%
X56190000Y-58420000D03*
X57150000Y-58420000D03*
%TD*%
D20*
%TO.C,R2*%
X65659000Y-76708000D03*
X64639000Y-76708000D03*
%TD*%
D16*
%TO.C,RV1*%
X65050000Y-83315000D03*
X74650000Y-83315000D03*
D17*
X67350000Y-90815000D03*
D18*
X69850000Y-90815000D03*
X72350000Y-90815000D03*
%TD*%
D26*
%TO.C,C6*%
X50165000Y-101346000D03*
X49205000Y-101346000D03*
%TD*%
D24*
%TO.C,U3*%
X69915000Y-99580000D03*
X69915000Y-100850000D03*
X69915000Y-102120000D03*
X69915000Y-103390000D03*
X74865000Y-103390000D03*
X74865000Y-102120000D03*
X74865000Y-100850000D03*
X74865000Y-99580000D03*
D25*
X72390000Y-101485000D03*
%TD*%
D26*
%TO.C,C2*%
X56205000Y-105156000D03*
X55245000Y-105156000D03*
%TD*%
D24*
%TO.C,U2*%
X52135000Y-99810000D03*
X52135000Y-101080000D03*
X52135000Y-102350000D03*
X52135000Y-103620000D03*
X57085000Y-103620000D03*
X57085000Y-102350000D03*
X57085000Y-101080000D03*
X57085000Y-99810000D03*
D25*
X54610000Y-101715000D03*
%TD*%
D19*
%TO.C,R13*%
X61466000Y-88773000D03*
X62486000Y-88773000D03*
%TD*%
%TO.C,R7*%
X71880000Y-95250000D03*
X72900000Y-95250000D03*
%TD*%
D22*
%TO.C,OUTPUT1*%
X73660000Y-45720000D03*
D23*
X73660000Y-48260000D03*
X73660000Y-50800000D03*
X73660000Y-53340000D03*
X73660000Y-55880000D03*
%TD*%
D20*
%TO.C,R10*%
X67310000Y-100838000D03*
X66290000Y-100838000D03*
%TD*%
D19*
%TO.C,R15*%
X66290000Y-101854000D03*
X67310000Y-101854000D03*
%TD*%
D18*
%TO.C,U4*%
X68580000Y-82550000D03*
X68580000Y-85090000D03*
X55880000Y-82550000D03*
X55880000Y-85090000D03*
%TD*%
D27*
%TO.C,V_SUPPLY1*%
X55880000Y-50800000D03*
D28*
X58420000Y-50800000D03*
X60960000Y-50800000D03*
X63500000Y-50800000D03*
X66040000Y-50800000D03*
%TD*%
D27*
%TO.C,GND1*%
X55880000Y-96520000D03*
D28*
X58420000Y-96520000D03*
X60960000Y-96520000D03*
X63500000Y-96520000D03*
X66040000Y-96520000D03*
%TD*%
%LPD*%
M02*
