%TF.GenerationSoftware,KiCad,Pcbnew,8.0.5*%
%TF.CreationDate,2024-11-22T15:59:57+05:30*%
%TF.ProjectId,kick,6b69636b-2e6b-4696-9361-645f70636258,rev?*%
%TF.SameCoordinates,Original*%
%TF.FileFunction,Soldermask,Bot*%
%TF.FilePolarity,Negative*%
%FSLAX46Y46*%
G04 Gerber Fmt 4.6, Leading zero omitted, Abs format (unit mm)*
G04 Created by KiCad (PCBNEW 8.0.5) date 2024-11-22 15:59:57*
%MOMM*%
%LPD*%
G01*
G04 APERTURE LIST*
%ADD10O,2.720000X3.240000*%
%ADD11R,1.800000X1.800000*%
%ADD12C,1.800000*%
%ADD13R,1.700000X1.700000*%
%ADD14O,1.700000X1.700000*%
%ADD15R,2.000000X2.000000*%
%ADD16O,2.000000X2.000000*%
G04 APERTURE END LIST*
D10*
%TO.C,RV2*%
X49810000Y-64265000D03*
X59410000Y-64265000D03*
D11*
X52110000Y-71765000D03*
D12*
X54610000Y-71765000D03*
X57110000Y-71765000D03*
%TD*%
D10*
%TO.C,RV4*%
X49175000Y-83315000D03*
X58775000Y-83315000D03*
D11*
X51475000Y-90815000D03*
D12*
X53975000Y-90815000D03*
X56475000Y-90815000D03*
%TD*%
D13*
%TO.C,INPUT1*%
X50800000Y-45720000D03*
D14*
X50800000Y-48260000D03*
X50800000Y-50800000D03*
X50800000Y-53340000D03*
X50800000Y-55880000D03*
%TD*%
D10*
%TO.C,RV3*%
X65050000Y-64265000D03*
X74650000Y-64265000D03*
D11*
X67350000Y-71765000D03*
D12*
X69850000Y-71765000D03*
X72350000Y-71765000D03*
%TD*%
D10*
%TO.C,RV1*%
X65050000Y-83315000D03*
X74650000Y-83315000D03*
D11*
X67350000Y-90815000D03*
D12*
X69850000Y-90815000D03*
X72350000Y-90815000D03*
%TD*%
D13*
%TO.C,OUTPUT1*%
X73660000Y-45720000D03*
D14*
X73660000Y-48260000D03*
X73660000Y-50800000D03*
X73660000Y-53340000D03*
X73660000Y-55880000D03*
%TD*%
D12*
%TO.C,U4*%
X68580000Y-82550000D03*
X68580000Y-85090000D03*
X55880000Y-82550000D03*
X55880000Y-85090000D03*
%TD*%
D15*
%TO.C,V_SUPPLY1*%
X55880000Y-50800000D03*
D16*
X58420000Y-50800000D03*
X60960000Y-50800000D03*
X63500000Y-50800000D03*
X66040000Y-50800000D03*
%TD*%
D15*
%TO.C,GND1*%
X55880000Y-96520000D03*
D16*
X58420000Y-96520000D03*
X60960000Y-96520000D03*
X63500000Y-96520000D03*
X66040000Y-96520000D03*
%TD*%
M02*
