%TF.GenerationSoftware,KiCad,Pcbnew,8.0.5*%
%TF.CreationDate,2024-11-15T23:36:42+05:30*%
%TF.ProjectId,buff_mix,62756666-5f6d-4697-982e-6b696361645f,rev?*%
%TF.SameCoordinates,Original*%
%TF.FileFunction,Copper,L1,Top*%
%TF.FilePolarity,Positive*%
%FSLAX46Y46*%
G04 Gerber Fmt 4.6, Leading zero omitted, Abs format (unit mm)*
G04 Created by KiCad (PCBNEW 8.0.5) date 2024-11-15 23:36:42*
%MOMM*%
%LPD*%
G01*
G04 APERTURE LIST*
G04 Aperture macros list*
%AMRoundRect*
0 Rectangle with rounded corners*
0 $1 Rounding radius*
0 $2 $3 $4 $5 $6 $7 $8 $9 X,Y pos of 4 corners*
0 Add a 4 corners polygon primitive as box body*
4,1,4,$2,$3,$4,$5,$6,$7,$8,$9,$2,$3,0*
0 Add four circle primitives for the rounded corners*
1,1,$1+$1,$2,$3*
1,1,$1+$1,$4,$5*
1,1,$1+$1,$6,$7*
1,1,$1+$1,$8,$9*
0 Add four rect primitives between the rounded corners*
20,1,$1+$1,$2,$3,$4,$5,0*
20,1,$1+$1,$4,$5,$6,$7,0*
20,1,$1+$1,$6,$7,$8,$9,0*
20,1,$1+$1,$8,$9,$2,$3,0*%
G04 Aperture macros list end*
%TA.AperFunction,HeatsinkPad*%
%ADD10R,2.290000X3.000000*%
%TD*%
%TA.AperFunction,SMDPad,CuDef*%
%ADD11RoundRect,0.150000X-0.825000X-0.150000X0.825000X-0.150000X0.825000X0.150000X-0.825000X0.150000X0*%
%TD*%
%TA.AperFunction,ComponentPad*%
%ADD12R,1.800000X1.800000*%
%TD*%
%TA.AperFunction,ComponentPad*%
%ADD13C,1.800000*%
%TD*%
%TA.AperFunction,ComponentPad*%
%ADD14O,2.720000X3.240000*%
%TD*%
%TA.AperFunction,SMDPad,CuDef*%
%ADD15RoundRect,0.135000X0.185000X-0.135000X0.185000X0.135000X-0.185000X0.135000X-0.185000X-0.135000X0*%
%TD*%
%TA.AperFunction,SMDPad,CuDef*%
%ADD16RoundRect,0.135000X0.135000X0.185000X-0.135000X0.185000X-0.135000X-0.185000X0.135000X-0.185000X0*%
%TD*%
%TA.AperFunction,SMDPad,CuDef*%
%ADD17RoundRect,0.135000X-0.135000X-0.185000X0.135000X-0.185000X0.135000X0.185000X-0.135000X0.185000X0*%
%TD*%
%TA.AperFunction,ComponentPad*%
%ADD18R,1.700000X1.700000*%
%TD*%
%TA.AperFunction,ComponentPad*%
%ADD19O,1.700000X1.700000*%
%TD*%
%TA.AperFunction,SMDPad,CuDef*%
%ADD20RoundRect,0.140000X0.140000X0.170000X-0.140000X0.170000X-0.140000X-0.170000X0.140000X-0.170000X0*%
%TD*%
%TA.AperFunction,ViaPad*%
%ADD21C,0.700000*%
%TD*%
%TA.AperFunction,ViaPad*%
%ADD22C,4.000000*%
%TD*%
%TA.AperFunction,Conductor*%
%ADD23C,0.300000*%
%TD*%
%TA.AperFunction,Conductor*%
%ADD24C,0.500000*%
%TD*%
G04 APERTURE END LIST*
D10*
%TO.P,U4,9*%
%TO.N,N/C*%
X54610000Y-102120000D03*
D11*
%TO.P,U4,8,V+*%
%TO.N,+5V*%
X57085000Y-100215000D03*
%TO.P,U4,7*%
%TO.N,Net-(R22-Pad1)*%
X57085000Y-101485000D03*
%TO.P,U4,6,-*%
%TO.N,Net-(U4B--)*%
X57085000Y-102755000D03*
%TO.P,U4,5,+*%
%TO.N,+2.5V*%
X57085000Y-104025000D03*
%TO.P,U4,4,V-*%
%TO.N,GND*%
X52135000Y-104025000D03*
%TO.P,U4,3,+*%
%TO.N,+2.5V*%
X52135000Y-102755000D03*
%TO.P,U4,2,-*%
%TO.N,Net-(U4A--)*%
X52135000Y-101485000D03*
%TO.P,U4,1*%
%TO.N,Net-(R18-Pad1)*%
X52135000Y-100215000D03*
%TD*%
%TO.P,U3,1*%
%TO.N,Net-(R14-Pad1)*%
X68010000Y-99580000D03*
%TO.P,U3,2,-*%
%TO.N,Net-(U3A--)*%
X68010000Y-100850000D03*
%TO.P,U3,3,+*%
%TO.N,+2.5V*%
X68010000Y-102120000D03*
%TO.P,U3,4,V-*%
%TO.N,GND*%
X68010000Y-103390000D03*
%TO.P,U3,5,+*%
%TO.N,+2.5V*%
X72960000Y-103390000D03*
%TO.P,U3,6,-*%
%TO.N,Net-(U3B--)*%
X72960000Y-102120000D03*
%TO.P,U3,7*%
%TO.N,Net-(R17-Pad1)*%
X72960000Y-100850000D03*
%TO.P,U3,8,V+*%
%TO.N,+5V*%
X72960000Y-99580000D03*
D10*
%TO.P,U3,9*%
%TO.N,N/C*%
X70485000Y-101485000D03*
%TD*%
D11*
%TO.P,U2,1*%
%TO.N,Net-(R5-Pad1)*%
X51565000Y-71120000D03*
%TO.P,U2,2,-*%
%TO.N,Net-(U2A--)*%
X51565000Y-72390000D03*
%TO.P,U2,3,+*%
%TO.N,+2.5V*%
X51565000Y-73660000D03*
%TO.P,U2,4,V-*%
%TO.N,GND*%
X51565000Y-74930000D03*
%TO.P,U2,5,+*%
%TO.N,+2.5V*%
X56515000Y-74930000D03*
%TO.P,U2,6,-*%
%TO.N,Net-(U2B--)*%
X56515000Y-73660000D03*
%TO.P,U2,7*%
%TO.N,Net-(R13-Pad2)*%
X56515000Y-72390000D03*
%TO.P,U2,8,V+*%
%TO.N,+5V*%
X56515000Y-71120000D03*
D10*
%TO.P,U2,9*%
%TO.N,N/C*%
X54040000Y-73025000D03*
%TD*%
D11*
%TO.P,U1,1*%
%TO.N,Net-(R1-Pad1)*%
X68075000Y-71120000D03*
%TO.P,U1,2,-*%
%TO.N,Net-(U1A--)*%
X68075000Y-72390000D03*
%TO.P,U1,3,+*%
%TO.N,+2.5V*%
X68075000Y-73660000D03*
%TO.P,U1,4,V-*%
%TO.N,GND*%
X68075000Y-74930000D03*
%TO.P,U1,5,+*%
%TO.N,+2.5V*%
X73025000Y-74930000D03*
%TO.P,U1,6,-*%
%TO.N,Net-(U1B--)*%
X73025000Y-73660000D03*
%TO.P,U1,7*%
%TO.N,Net-(R4-Pad1)*%
X73025000Y-72390000D03*
%TO.P,U1,8,V+*%
%TO.N,+5V*%
X73025000Y-71120000D03*
D10*
%TO.P,U1,9*%
%TO.N,N/C*%
X70550000Y-73025000D03*
%TD*%
D12*
%TO.P,RV2,1,1*%
%TO.N,unconnected-(RV2-Pad1)*%
X59730000Y-90815000D03*
D13*
%TO.P,RV2,3,3*%
%TO.N,Net-(U3B--)*%
X64730000Y-90815000D03*
%TO.P,RV2,2,2*%
%TO.N,Net-(R14-Pad2)*%
X62230000Y-90815000D03*
D14*
%TO.P,RV2,*%
%TO.N,*%
X67030000Y-83315000D03*
X57430000Y-83315000D03*
%TD*%
D12*
%TO.P,RV1,1,1*%
%TO.N,unconnected-(RV1-Pad1)*%
X59730000Y-66685000D03*
D13*
%TO.P,RV1,3,3*%
%TO.N,Net-(U1B--)*%
X64730000Y-66685000D03*
%TO.P,RV1,2,2*%
%TO.N,Net-(R1-Pad2)*%
X62230000Y-66685000D03*
D14*
%TO.P,RV1,*%
%TO.N,*%
X67030000Y-59185000D03*
X57430000Y-59185000D03*
%TD*%
D15*
%TO.P,R24,1*%
%TO.N,Net-(U4B--)*%
X60325000Y-102620000D03*
%TO.P,R24,2*%
%TO.N,Net-(R22-Pad1)*%
X60325000Y-101600000D03*
%TD*%
D16*
%TO.P,R23,1*%
%TO.N,INB_3*%
X60075000Y-104140000D03*
%TO.P,R23,2*%
%TO.N,Net-(U4B--)*%
X59055000Y-104140000D03*
%TD*%
D17*
%TO.P,R22,1*%
%TO.N,Net-(R22-Pad1)*%
X59305000Y-100330000D03*
%TO.P,R22,2*%
%TO.N,Net-(R14-Pad2)*%
X60325000Y-100330000D03*
%TD*%
D15*
%TO.P,R21,2*%
%TO.N,Net-(R18-Pad1)*%
X49530000Y-100455000D03*
%TO.P,R21,1*%
%TO.N,Net-(U4A--)*%
X49530000Y-101475000D03*
%TD*%
D17*
%TO.P,R20,2*%
%TO.N,Net-(U4A--)*%
X49530000Y-102870000D03*
%TO.P,R20,1*%
%TO.N,INB_2*%
X48510000Y-102870000D03*
%TD*%
D15*
%TO.P,R19,2*%
%TO.N,Net-(R17-Pad1)*%
X74930000Y-102360000D03*
%TO.P,R19,1*%
%TO.N,Net-(U3B--)*%
X74930000Y-103380000D03*
%TD*%
D16*
%TO.P,R18,2*%
%TO.N,Net-(R14-Pad2)*%
X48445000Y-99060000D03*
%TO.P,R18,1*%
%TO.N,Net-(R18-Pad1)*%
X49465000Y-99060000D03*
%TD*%
D15*
%TO.P,R17,2*%
%TO.N,OUTB*%
X74930000Y-99695000D03*
%TO.P,R17,1*%
%TO.N,Net-(R17-Pad1)*%
X74930000Y-100715000D03*
%TD*%
%TO.P,R16,2*%
%TO.N,Net-(R14-Pad1)*%
X64770000Y-101725000D03*
%TO.P,R16,1*%
%TO.N,Net-(U3A--)*%
X64770000Y-102745000D03*
%TD*%
D17*
%TO.P,R15,1*%
%TO.N,INB_1*%
X64770000Y-104140000D03*
%TO.P,R15,2*%
%TO.N,Net-(U3A--)*%
X65790000Y-104140000D03*
%TD*%
D16*
%TO.P,R14,1*%
%TO.N,Net-(R14-Pad1)*%
X65790000Y-100330000D03*
%TO.P,R14,2*%
%TO.N,Net-(R14-Pad2)*%
X64770000Y-100330000D03*
%TD*%
D15*
%TO.P,R13,1*%
%TO.N,Net-(U2B--)*%
X58545000Y-73410000D03*
%TO.P,R13,2*%
%TO.N,Net-(R13-Pad2)*%
X58545000Y-72390000D03*
%TD*%
D17*
%TO.P,R12,1*%
%TO.N,+2.5V*%
X63375000Y-77470000D03*
%TO.P,R12,2*%
%TO.N,GND*%
X64395000Y-77470000D03*
%TD*%
%TO.P,R11,1*%
%TO.N,+5V*%
X59305000Y-77470000D03*
%TO.P,R11,2*%
%TO.N,+2.5V*%
X60325000Y-77470000D03*
%TD*%
D16*
%TO.P,R10,2*%
%TO.N,Net-(U2B--)*%
X58545000Y-74930000D03*
%TO.P,R10,1*%
%TO.N,INA_3*%
X59565000Y-74930000D03*
%TD*%
D17*
%TO.P,R9,1*%
%TO.N,Net-(R13-Pad2)*%
X58545000Y-71120000D03*
%TO.P,R9,2*%
%TO.N,Net-(R1-Pad2)*%
X59565000Y-71120000D03*
%TD*%
D15*
%TO.P,R8,1*%
%TO.N,Net-(U2A--)*%
X49276000Y-73535000D03*
%TO.P,R8,2*%
%TO.N,Net-(R5-Pad1)*%
X49276000Y-72515000D03*
%TD*%
D17*
%TO.P,R7,1*%
%TO.N,INA_2*%
X48256000Y-74930000D03*
%TO.P,R7,2*%
%TO.N,Net-(U2A--)*%
X49276000Y-74930000D03*
%TD*%
D15*
%TO.P,R6,2*%
%TO.N,Net-(R4-Pad1)*%
X74930000Y-73660000D03*
%TO.P,R6,1*%
%TO.N,Net-(U1B--)*%
X74930000Y-74680000D03*
%TD*%
D16*
%TO.P,R5,2*%
%TO.N,Net-(R1-Pad2)*%
X48256000Y-71120000D03*
%TO.P,R5,1*%
%TO.N,Net-(R5-Pad1)*%
X49276000Y-71120000D03*
%TD*%
D15*
%TO.P,R4,2*%
%TO.N,OUTA*%
X74930000Y-71120000D03*
%TO.P,R4,1*%
%TO.N,Net-(R4-Pad1)*%
X74930000Y-72140000D03*
%TD*%
%TO.P,R3,1*%
%TO.N,Net-(U1A--)*%
X66040000Y-73410000D03*
%TO.P,R3,2*%
%TO.N,Net-(R1-Pad1)*%
X66040000Y-72390000D03*
%TD*%
D17*
%TO.P,R2,2*%
%TO.N,Net-(U1A--)*%
X66040000Y-74930000D03*
%TO.P,R2,1*%
%TO.N,INA_1*%
X65020000Y-74930000D03*
%TD*%
%TO.P,R1,2*%
%TO.N,Net-(R1-Pad2)*%
X66040000Y-71120000D03*
%TO.P,R1,1*%
%TO.N,Net-(R1-Pad1)*%
X65020000Y-71120000D03*
%TD*%
D18*
%TO.P,OUT2,1,Pin_1*%
%TO.N,OUTB*%
X74295000Y-81280000D03*
D19*
%TO.P,OUT2,2,Pin_2*%
X74295000Y-83820000D03*
%TO.P,OUT2,3,Pin_3*%
X74295000Y-86360000D03*
%TD*%
D18*
%TO.P,OUT1,1,Pin_1*%
%TO.N,OUTA*%
X74320000Y-57165000D03*
D19*
%TO.P,OUT1,2,Pin_2*%
X74320000Y-59705000D03*
%TO.P,OUT1,3,Pin_3*%
X74320000Y-62245000D03*
%TD*%
%TO.P,IN2,3,Pin_3*%
%TO.N,INB_3*%
X50165000Y-86360000D03*
%TO.P,IN2,2,Pin_2*%
%TO.N,INB_2*%
X50165000Y-83820000D03*
D18*
%TO.P,IN2,1,Pin_1*%
%TO.N,INB_1*%
X50165000Y-81280000D03*
%TD*%
%TO.P,IN1,1,Pin_1*%
%TO.N,INA_1*%
X50165000Y-57150000D03*
D19*
%TO.P,IN1,2,Pin_2*%
%TO.N,INA_2*%
X50165000Y-59690000D03*
%TO.P,IN1,3,Pin_3*%
%TO.N,INA_3*%
X50165000Y-62230000D03*
%TD*%
D20*
%TO.P,C4,1*%
%TO.N,+5V*%
X52070000Y-98425000D03*
%TO.P,C4,2*%
%TO.N,GND*%
X51110000Y-98425000D03*
%TD*%
%TO.P,C3,1*%
%TO.N,+5V*%
X73660000Y-96520000D03*
%TO.P,C3,2*%
%TO.N,GND*%
X72700000Y-96520000D03*
%TD*%
%TO.P,C2,1*%
%TO.N,+5V*%
X56360000Y-69215000D03*
%TO.P,C2,2*%
%TO.N,GND*%
X55400000Y-69215000D03*
%TD*%
%TO.P,C1,1*%
%TO.N,+5V*%
X73660000Y-67945000D03*
%TO.P,C1,2*%
%TO.N,GND*%
X72700000Y-67945000D03*
%TD*%
D19*
%TO.P,GND1,5,Pin_5*%
%TO.N,GND*%
X66040000Y-96520000D03*
%TO.P,GND1,4,Pin_4*%
X63500000Y-96520000D03*
%TO.P,GND1,3,Pin_3*%
X60960000Y-96520000D03*
%TO.P,GND1,2,Pin_2*%
X58420000Y-96520000D03*
D18*
%TO.P,GND1,1,Pin_1*%
X55880000Y-96520000D03*
%TD*%
%TO.P,5V1,1,Pin_1*%
%TO.N,+5V*%
X55880000Y-50800000D03*
D19*
%TO.P,5V1,2,Pin_2*%
X58420000Y-50800000D03*
%TO.P,5V1,3,Pin_3*%
X60960000Y-50800000D03*
%TO.P,5V1,4,Pin_4*%
X63500000Y-50800000D03*
%TO.P,5V1,5,Pin_5*%
X66040000Y-50800000D03*
%TD*%
D21*
%TO.N,Net-(U3B--)*%
X71755000Y-90805000D03*
X74995000Y-90805000D03*
%TO.N,Net-(U1B--)*%
X73025000Y-65405000D03*
X75565000Y-65405000D03*
%TO.N,GND*%
X53975000Y-106045000D03*
X50165000Y-97155000D03*
%TO.N,+5V*%
X54610000Y-99695000D03*
%TO.N,+2.5V*%
X50165000Y-74295000D03*
X66140000Y-101700000D03*
X50165000Y-104140000D03*
X57785000Y-106045000D03*
X69215000Y-104775000D03*
%TO.N,GND*%
X70485000Y-97155000D03*
X67627500Y-105092500D03*
%TO.N,+5V*%
X73660000Y-98425000D03*
X56515000Y-69850000D03*
%TO.N,GND*%
X53975000Y-68645000D03*
X51435000Y-76070000D03*
%TO.N,+2.5V*%
X56515000Y-76070000D03*
X61595000Y-77470000D03*
%TO.N,+5V*%
X52774314Y-78670686D03*
%TO.N,GND*%
X67945000Y-77470000D03*
%TO.N,+2.5V*%
X73660000Y-76200000D03*
%TO.N,+5V*%
X74930000Y-68580000D03*
%TO.N,GND*%
X69215000Y-76835000D03*
X72390000Y-69215000D03*
%TO.N,Net-(R14-Pad2)*%
X53975000Y-92710000D03*
X52005000Y-93345000D03*
X52832000Y-96520000D03*
X59690000Y-99125000D03*
X64135000Y-99760000D03*
X69215000Y-94615000D03*
%TO.N,Net-(R1-Pad2)*%
X61814975Y-68445025D03*
X55827342Y-65405000D03*
X63500000Y-69215000D03*
X60325000Y-72390000D03*
%TO.N,+2.5V*%
X66740000Y-74295000D03*
D22*
%TO.N,*%
X62377580Y-43815000D03*
X62377580Y-43815000D03*
X62377580Y-43815000D03*
X62377580Y-43815000D03*
X62784908Y-106045000D03*
%TD*%
D23*
%TO.N,Net-(R14-Pad2)*%
X52832000Y-96520000D02*
X53405000Y-95947000D01*
X53405000Y-95947000D02*
X53405000Y-93915000D01*
X53405000Y-93915000D02*
X53975000Y-93345000D01*
X62230000Y-93345000D02*
X62230000Y-90815000D01*
X53975000Y-93345000D02*
X62230000Y-93345000D01*
%TO.N,INB_3*%
X60075000Y-104140000D02*
X60960000Y-104140000D01*
X60325000Y-98425000D02*
X53340000Y-98425000D01*
X52070000Y-97155000D02*
X52070000Y-94269950D01*
X60960000Y-104140000D02*
X61595000Y-103505000D01*
X52705000Y-93634950D02*
X52705000Y-88900000D01*
X61595000Y-103505000D02*
X61595000Y-99695000D01*
X53340000Y-98425000D02*
X52070000Y-97155000D01*
X61595000Y-99695000D02*
X60325000Y-98425000D01*
X52070000Y-94269950D02*
X52705000Y-93634950D01*
X52705000Y-88900000D02*
X50165000Y-86360000D01*
%TO.N,Net-(U3B--)*%
X74995000Y-90805000D02*
X75600000Y-91410000D01*
X75600000Y-91410000D02*
X75600000Y-102710000D01*
X75600000Y-102710000D02*
X74930000Y-103380000D01*
X71755000Y-90805000D02*
X71745000Y-90815000D01*
X71745000Y-90815000D02*
X64730000Y-90815000D01*
%TO.N,INB_1*%
X64770000Y-104140000D02*
X62865000Y-102235000D01*
X69448738Y-96455000D02*
X69597500Y-96455000D01*
X73025000Y-93027500D02*
X73025000Y-89535000D01*
X62865000Y-102235000D02*
X62865000Y-99695000D01*
X73025000Y-89535000D02*
X70485000Y-86995000D01*
X62865000Y-99695000D02*
X63500000Y-99060000D01*
X63500000Y-99060000D02*
X66843738Y-99060000D01*
X66843738Y-99060000D02*
X69448738Y-96455000D01*
X69597500Y-96455000D02*
X73025000Y-93027500D01*
X70485000Y-86995000D02*
X55880000Y-86995000D01*
X55880000Y-86995000D02*
X50165000Y-81280000D01*
%TO.N,Net-(U1B--)*%
X73025000Y-65405000D02*
X66010000Y-65405000D01*
X66010000Y-65405000D02*
X64730000Y-66685000D01*
X76130000Y-65970000D02*
X75565000Y-65405000D01*
X76130000Y-73480000D02*
X76130000Y-65970000D01*
X74930000Y-74680000D02*
X76130000Y-73480000D01*
%TO.N,OUTA*%
X74930000Y-71120000D02*
X75630000Y-70420000D01*
X75565000Y-66675000D02*
X73660000Y-64770000D01*
X75630000Y-70420000D02*
X75630000Y-68290050D01*
X73660000Y-64770000D02*
X73660000Y-62905000D01*
X75565000Y-68225050D02*
X75565000Y-66675000D01*
X75630000Y-68290050D02*
X75565000Y-68225050D01*
X73660000Y-62905000D02*
X74320000Y-62245000D01*
D24*
%TO.N,+5V*%
X53975000Y-77470000D02*
X59305000Y-77470000D01*
X52774314Y-78670686D02*
X53975000Y-77470000D01*
D23*
%TO.N,Net-(R14-Pad2)*%
X69215000Y-94615000D02*
X67945000Y-93345000D01*
X64760000Y-93345000D02*
X62230000Y-90815000D01*
X67945000Y-93345000D02*
X64760000Y-93345000D01*
D24*
%TO.N,+5V*%
X74930000Y-68580000D02*
X74930000Y-69215000D01*
X73660000Y-67945000D02*
X74295000Y-67945000D01*
X74930000Y-69215000D02*
X73025000Y-71120000D01*
X74295000Y-67945000D02*
X74930000Y-68580000D01*
D23*
%TO.N,Net-(R1-Pad2)*%
X55827342Y-65405000D02*
X53922342Y-67310000D01*
X52066000Y-67310000D02*
X48256000Y-71120000D01*
X53922342Y-67310000D02*
X52066000Y-67310000D01*
%TO.N,INA_3*%
X50165000Y-62230000D02*
X55172894Y-62230000D01*
X57285000Y-64342106D02*
X57285000Y-67447106D01*
X57285000Y-67447106D02*
X61595000Y-71757106D01*
X61595000Y-71757106D02*
X61595000Y-74930000D01*
X55172894Y-62230000D02*
X57285000Y-64342106D01*
X61595000Y-74930000D02*
X59565000Y-74930000D01*
%TO.N,INA_2*%
X50165000Y-59690000D02*
X53340000Y-59690000D01*
X53340000Y-59690000D02*
X57785000Y-64135000D01*
X57785000Y-64135000D02*
X57785000Y-67240000D01*
X49530000Y-76200000D02*
X49526000Y-76200000D01*
X57785000Y-67240000D02*
X62230000Y-71685000D01*
X62230000Y-71685000D02*
X62230000Y-75435000D01*
X62230000Y-75435000D02*
X60895000Y-76770000D01*
X60895000Y-76770000D02*
X50100000Y-76770000D01*
X50100000Y-76770000D02*
X49530000Y-76200000D01*
X49526000Y-76200000D02*
X48256000Y-74930000D01*
D24*
%TO.N,+2.5V*%
X66140000Y-101700000D02*
X66560000Y-102120000D01*
X66560000Y-102120000D02*
X68010000Y-102120000D01*
D23*
%TO.N,Net-(U3A--)*%
X64770000Y-102745000D02*
X65440000Y-102075000D01*
X65440000Y-102075000D02*
X65440000Y-101387106D01*
X65440000Y-101387106D02*
X65827106Y-101000000D01*
X67860000Y-101000000D02*
X68010000Y-100850000D01*
X65827106Y-101000000D02*
X67860000Y-101000000D01*
D24*
%TO.N,+2.5V*%
X69215000Y-104775000D02*
X71575000Y-104775000D01*
X71575000Y-104775000D02*
X72960000Y-103390000D01*
%TO.N,GND*%
X70485000Y-97155000D02*
X72065000Y-97155000D01*
X72065000Y-97155000D02*
X72700000Y-96520000D01*
X53975000Y-106045000D02*
X53975000Y-105865000D01*
X53975000Y-105865000D02*
X52135000Y-104025000D01*
X51110000Y-98100000D02*
X50165000Y-97155000D01*
X51110000Y-98425000D02*
X51110000Y-98100000D01*
%TO.N,+5V*%
X54610000Y-99695000D02*
X56565000Y-99695000D01*
X52070000Y-98425000D02*
X52349999Y-98425000D01*
X53619999Y-99695000D02*
X54610000Y-99695000D01*
X56565000Y-99695000D02*
X57085000Y-100215000D01*
X52349999Y-98425000D02*
X53619999Y-99695000D01*
%TO.N,+2.5V*%
X50800000Y-73660000D02*
X50165000Y-74295000D01*
X51565000Y-73660000D02*
X50800000Y-73660000D01*
X51550000Y-102755000D02*
X50165000Y-104140000D01*
X52135000Y-102755000D02*
X51550000Y-102755000D01*
X57085000Y-105345000D02*
X57785000Y-106045000D01*
X57085000Y-104025000D02*
X57085000Y-105345000D01*
%TO.N,GND*%
X68010000Y-103390000D02*
X68010000Y-104710000D01*
X68010000Y-104710000D02*
X67627500Y-105092500D01*
%TO.N,+5V*%
X73660000Y-98425000D02*
X73660000Y-98880000D01*
X73660000Y-96520000D02*
X73660000Y-98425000D01*
X73660000Y-98880000D02*
X72960000Y-99580000D01*
%TO.N,GND*%
X54675000Y-68645000D02*
X55245000Y-69215000D01*
X55245000Y-69215000D02*
X55400000Y-69215000D01*
%TO.N,+5V*%
X56515000Y-69850000D02*
X56515000Y-69370000D01*
X56515000Y-71120000D02*
X56515000Y-69850000D01*
X56515000Y-69370000D02*
X56360000Y-69215000D01*
%TO.N,GND*%
X53975000Y-68645000D02*
X54675000Y-68645000D01*
X51565000Y-76040000D02*
X51435000Y-76170000D01*
X51435000Y-76170000D02*
X51435000Y-76070000D01*
X51565000Y-74930000D02*
X51565000Y-76040000D01*
%TO.N,+2.5V*%
X56515000Y-74930000D02*
X56515000Y-76070000D01*
X61595000Y-77470000D02*
X60325000Y-77470000D01*
%TO.N,GND*%
X64395000Y-77470000D02*
X67945000Y-77470000D01*
%TO.N,+2.5V*%
X63375000Y-77470000D02*
X61595000Y-77470000D01*
X73025000Y-75565000D02*
X73660000Y-76200000D01*
X73025000Y-74930000D02*
X73025000Y-75565000D01*
%TO.N,GND*%
X68075000Y-75695000D02*
X68075000Y-74930000D01*
X69215000Y-76835000D02*
X68075000Y-75695000D01*
X72700000Y-67945000D02*
X72700000Y-68905000D01*
X72700000Y-68905000D02*
X72390000Y-69215000D01*
D23*
%TO.N,INB_2*%
X48510000Y-102870000D02*
X47825000Y-102185000D01*
X47825000Y-102185000D02*
X47825000Y-86160000D01*
X47825000Y-86160000D02*
X50165000Y-83820000D01*
%TO.N,Net-(U4A--)*%
X49530000Y-101475000D02*
X52125000Y-101475000D01*
X52125000Y-101475000D02*
X52135000Y-101485000D01*
X49530000Y-101475000D02*
X49530000Y-102870000D01*
%TO.N,Net-(R18-Pad1)*%
X49530000Y-100455000D02*
X51895000Y-100455000D01*
X51895000Y-100455000D02*
X52135000Y-100215000D01*
X49530000Y-100455000D02*
X49530000Y-99125000D01*
X49530000Y-99125000D02*
X49465000Y-99060000D01*
%TO.N,Net-(R14-Pad2)*%
X53975000Y-92710000D02*
X61595000Y-92710000D01*
X61595000Y-91450000D02*
X62230000Y-90815000D01*
X61595000Y-92710000D02*
X61595000Y-91450000D01*
X48445000Y-99060000D02*
X48445000Y-96905000D01*
X48445000Y-96905000D02*
X52005000Y-93345000D01*
%TO.N,Net-(U4B--)*%
X59055000Y-104140000D02*
X57670000Y-102755000D01*
X57670000Y-102755000D02*
X57085000Y-102755000D01*
%TO.N,Net-(R22-Pad1)*%
X59305000Y-100330000D02*
X58150000Y-101485000D01*
X58150000Y-101485000D02*
X57085000Y-101485000D01*
%TO.N,Net-(R14-Pad2)*%
X60325000Y-99760000D02*
X59690000Y-99125000D01*
X60325000Y-100330000D02*
X60325000Y-99760000D01*
%TO.N,Net-(U4B--)*%
X60325000Y-102620000D02*
X60325000Y-102870000D01*
X60325000Y-102870000D02*
X59055000Y-104140000D01*
%TO.N,Net-(R22-Pad1)*%
X60325000Y-101600000D02*
X60325000Y-101350000D01*
X60325000Y-101350000D02*
X59305000Y-100330000D01*
%TO.N,Net-(R14-Pad2)*%
X64705000Y-100330000D02*
X64135000Y-99760000D01*
X64770000Y-100330000D02*
X64705000Y-100330000D01*
%TO.N,Net-(U3A--)*%
X64770000Y-102745000D02*
X64770000Y-103120000D01*
X64770000Y-103120000D02*
X65790000Y-104140000D01*
%TO.N,Net-(R14-Pad1)*%
X64770000Y-101725000D02*
X64770000Y-101350000D01*
X64770000Y-101350000D02*
X65790000Y-100330000D01*
X65790000Y-100330000D02*
X66540000Y-99580000D01*
X66540000Y-99580000D02*
X68010000Y-99580000D01*
%TO.N,Net-(U3B--)*%
X74930000Y-103380000D02*
X73670000Y-102120000D01*
X73670000Y-102120000D02*
X72960000Y-102120000D01*
%TO.N,Net-(R17-Pad1)*%
X74930000Y-100715000D02*
X74930000Y-102360000D01*
X74930000Y-100715000D02*
X73095000Y-100715000D01*
X73095000Y-100715000D02*
X72960000Y-100850000D01*
%TO.N,OUTB*%
X74295000Y-81280000D02*
X74295000Y-86360000D01*
X74930000Y-99695000D02*
X74930000Y-93345000D01*
X74930000Y-93345000D02*
X74295000Y-92710000D01*
X74295000Y-92710000D02*
X74295000Y-86360000D01*
%TO.N,Net-(R1-Pad2)*%
X63500000Y-69215000D02*
X62230000Y-67945000D01*
X62230000Y-67945000D02*
X62230000Y-66685000D01*
X61814975Y-68445025D02*
X61814975Y-67100025D01*
X61814975Y-67100025D02*
X62230000Y-66685000D01*
X60325000Y-71880000D02*
X59565000Y-71120000D01*
X60325000Y-72390000D02*
X60325000Y-71880000D01*
%TO.N,Net-(U2B--)*%
X58545000Y-74930000D02*
X58545000Y-73410000D01*
%TO.N,Net-(R13-Pad2)*%
X58545000Y-72390000D02*
X56515000Y-72390000D01*
%TO.N,Net-(U2B--)*%
X58545000Y-73410000D02*
X56765000Y-73410000D01*
X56765000Y-73410000D02*
X56515000Y-73660000D01*
%TO.N,Net-(R13-Pad2)*%
X58545000Y-71120000D02*
X58545000Y-72390000D01*
%TO.N,Net-(R5-Pad1)*%
X51565000Y-71120000D02*
X49276000Y-71120000D01*
X49276000Y-72515000D02*
X49276000Y-71120000D01*
%TO.N,Net-(U2A--)*%
X49276000Y-73535000D02*
X50421000Y-72390000D01*
X50421000Y-72390000D02*
X51565000Y-72390000D01*
X49276000Y-74930000D02*
X49276000Y-73535000D01*
%TO.N,Net-(U1B--)*%
X74930000Y-74680000D02*
X73910000Y-73660000D01*
X73910000Y-73660000D02*
X73025000Y-73660000D01*
%TO.N,Net-(R4-Pad1)*%
X74930000Y-72140000D02*
X74930000Y-73660000D01*
X74930000Y-72140000D02*
X73275000Y-72140000D01*
X73275000Y-72140000D02*
X73025000Y-72390000D01*
%TO.N,OUTA*%
X74320000Y-57165000D02*
X74320000Y-62245000D01*
%TO.N,INA_1*%
X50165000Y-57150000D02*
X51435000Y-55880000D01*
X51435000Y-55880000D02*
X63500000Y-55880000D01*
X63500000Y-62865000D02*
X60980000Y-65385000D01*
X60980000Y-65385000D02*
X60980000Y-68600000D01*
X63500000Y-55880000D02*
X63500000Y-62865000D01*
X65020000Y-72640000D02*
X65020000Y-74930000D01*
X60980000Y-68600000D02*
X65020000Y-72640000D01*
%TO.N,Net-(R1-Pad2)*%
X66040000Y-70485000D02*
X65405000Y-69850000D01*
X65405000Y-69850000D02*
X65395000Y-69850000D01*
X65395000Y-69850000D02*
X62230000Y-66685000D01*
X66040000Y-71120000D02*
X66040000Y-70485000D01*
D24*
%TO.N,+2.5V*%
X67375000Y-73660000D02*
X66740000Y-74295000D01*
X68075000Y-73660000D02*
X67375000Y-73660000D01*
D23*
%TO.N,Net-(U1A--)*%
X66040000Y-73410000D02*
X67060000Y-72390000D01*
X67060000Y-72390000D02*
X68075000Y-72390000D01*
%TO.N,Net-(R1-Pad1)*%
X65020000Y-71120000D02*
X65020000Y-71370000D01*
X65020000Y-71370000D02*
X66040000Y-72390000D01*
X66040000Y-72390000D02*
X67310000Y-71120000D01*
X67310000Y-71120000D02*
X68075000Y-71120000D01*
%TO.N,Net-(U1A--)*%
X66040000Y-74930000D02*
X66040000Y-73410000D01*
D24*
%TO.N,GND*%
X55880000Y-96520000D02*
X66040000Y-96520000D01*
%TO.N,+5V*%
X55880000Y-50800000D02*
X66040000Y-50800000D01*
%TD*%
M02*
