%TF.GenerationSoftware,KiCad,Pcbnew,8.0.5*%
%TF.CreationDate,2024-11-09T04:24:37+05:30*%
%TF.ProjectId,dc_power,64635f70-6f77-4657-922e-6b696361645f,rev?*%
%TF.SameCoordinates,Original*%
%TF.FileFunction,Copper,L1,Top*%
%TF.FilePolarity,Positive*%
%FSLAX46Y46*%
G04 Gerber Fmt 4.6, Leading zero omitted, Abs format (unit mm)*
G04 Created by KiCad (PCBNEW 8.0.5) date 2024-11-09 04:24:37*
%MOMM*%
%LPD*%
G01*
G04 APERTURE LIST*
G04 Aperture macros list*
%AMRoundRect*
0 Rectangle with rounded corners*
0 $1 Rounding radius*
0 $2 $3 $4 $5 $6 $7 $8 $9 X,Y pos of 4 corners*
0 Add a 4 corners polygon primitive as box body*
4,1,4,$2,$3,$4,$5,$6,$7,$8,$9,$2,$3,0*
0 Add four circle primitives for the rounded corners*
1,1,$1+$1,$2,$3*
1,1,$1+$1,$4,$5*
1,1,$1+$1,$6,$7*
1,1,$1+$1,$8,$9*
0 Add four rect primitives between the rounded corners*
20,1,$1+$1,$2,$3,$4,$5,0*
20,1,$1+$1,$4,$5,$6,$7,0*
20,1,$1+$1,$6,$7,$8,$9,0*
20,1,$1+$1,$8,$9,$2,$3,0*%
G04 Aperture macros list end*
%TA.AperFunction,NonConductor*%
%ADD10C,0.200000*%
%TD*%
%TA.AperFunction,Conductor*%
%ADD11C,0.200000*%
%TD*%
%TA.AperFunction,SMDPad,CuDef*%
%ADD12R,4.200000X3.600000*%
%TD*%
%TA.AperFunction,SMDPad,CuDef*%
%ADD13R,4.400000X3.400000*%
%TD*%
%TA.AperFunction,SMDPad,CuDef*%
%ADD14R,7.000000X3.400000*%
%TD*%
%TA.AperFunction,SMDPad,CuDef*%
%ADD15RoundRect,0.375000X-0.625000X-0.375000X0.625000X-0.375000X0.625000X0.375000X-0.625000X0.375000X0*%
%TD*%
%TA.AperFunction,SMDPad,CuDef*%
%ADD16RoundRect,0.500000X-0.500000X-1.400000X0.500000X-1.400000X0.500000X1.400000X-0.500000X1.400000X0*%
%TD*%
%TA.AperFunction,SMDPad,CuDef*%
%ADD17RoundRect,0.250000X0.250000X0.475000X-0.250000X0.475000X-0.250000X-0.475000X0.250000X-0.475000X0*%
%TD*%
%TA.AperFunction,SMDPad,CuDef*%
%ADD18RoundRect,0.250000X-0.250000X-0.475000X0.250000X-0.475000X0.250000X0.475000X-0.250000X0.475000X0*%
%TD*%
%TA.AperFunction,SMDPad,CuDef*%
%ADD19RoundRect,0.250000X0.475000X-0.250000X0.475000X0.250000X-0.475000X0.250000X-0.475000X-0.250000X0*%
%TD*%
%TA.AperFunction,ComponentPad*%
%ADD20R,1.700000X1.700000*%
%TD*%
%TA.AperFunction,ComponentPad*%
%ADD21O,1.700000X1.700000*%
%TD*%
%TA.AperFunction,ViaPad*%
%ADD22C,0.700000*%
%TD*%
%TA.AperFunction,ViaPad*%
%ADD23C,4.000000*%
%TD*%
%TA.AperFunction,Conductor*%
%ADD24C,0.500000*%
%TD*%
G04 APERTURE END LIST*
D10*
X76200000Y-93345000D02*
X48895000Y-93345000D01*
X48895000Y-87630000D01*
X65405000Y-87630000D01*
X65405000Y-83820000D01*
X70485000Y-83820000D01*
X70485000Y-65405000D01*
X73025000Y-65405000D01*
X73025000Y-44450000D01*
X76200000Y-44450000D01*
X76200000Y-93345000D01*
%TA.AperFunction,NonConductor*%
G36*
X76200000Y-93345000D02*
G01*
X48895000Y-93345000D01*
X48895000Y-87630000D01*
X65405000Y-87630000D01*
X65405000Y-83820000D01*
X70485000Y-83820000D01*
X70485000Y-65405000D01*
X73025000Y-65405000D01*
X73025000Y-44450000D01*
X76200000Y-44450000D01*
X76200000Y-93345000D01*
G37*
%TD.AperFunction*%
D11*
%TO.N,GND*%
X63500000Y-67945000D02*
X68580000Y-67945000D01*
X68580000Y-78105000D01*
X59690000Y-78105000D01*
X59690000Y-75565000D01*
X51435000Y-75565000D01*
X51435000Y-59055000D01*
X63500000Y-59055000D01*
X63500000Y-67945000D01*
%TA.AperFunction,Conductor*%
G36*
X63500000Y-67945000D02*
G01*
X68580000Y-67945000D01*
X68580000Y-78105000D01*
X59690000Y-78105000D01*
X59690000Y-75565000D01*
X51435000Y-75565000D01*
X51435000Y-59055000D01*
X63500000Y-59055000D01*
X63500000Y-67945000D01*
G37*
%TD.AperFunction*%
%TD*%
D12*
%TO.P,J1,1*%
%TO.N,GND*%
X60950000Y-67650000D03*
D13*
%TO.P,J1,2*%
%TO.N,unconnected-(J1-Pad2)*%
X68040000Y-62330000D03*
D14*
%TO.P,J1,3*%
%TO.N,Net-(C1-Pad1)*%
X67120000Y-56280000D03*
%TD*%
D15*
%TO.P,U1,1,GND*%
%TO.N,GND*%
X66090000Y-77075000D03*
%TO.P,U1,2,VO*%
%TO.N,Net-(U1-VO)*%
X66090000Y-79375000D03*
%TO.P,U1,3,VI*%
%TO.N,Net-(U1-VI)*%
X66090000Y-81675000D03*
D16*
%TO.P,U1,4*%
%TO.N,N/C*%
X72390000Y-79375000D03*
%TD*%
D17*
%TO.P,FB2,1*%
%TO.N,Net-(U1-VO)*%
X62230000Y-79375000D03*
%TO.P,FB2,2*%
%TO.N,+5V*%
X60330000Y-79375000D03*
%TD*%
D18*
%TO.P,FB1,1*%
%TO.N,Net-(C1-Pad1)*%
X60330000Y-85090000D03*
%TO.P,FB1,2*%
%TO.N,Net-(U1-VI)*%
X62230000Y-85090000D03*
%TD*%
D19*
%TO.P,C4,1*%
%TO.N,+5V*%
X53340000Y-76830000D03*
%TO.P,C4,2*%
%TO.N,GND*%
X53340000Y-74930000D03*
%TD*%
%TO.P,C3,1*%
%TO.N,+5V*%
X57150000Y-76830000D03*
%TO.P,C3,2*%
%TO.N,GND*%
X57150000Y-74930000D03*
%TD*%
%TO.P,C2,1*%
%TO.N,Net-(C1-Pad1)*%
X53340000Y-83500000D03*
%TO.P,C2,2*%
%TO.N,GND*%
X53340000Y-81600000D03*
%TD*%
%TO.P,C1,1*%
%TO.N,Net-(C1-Pad1)*%
X57150000Y-83500000D03*
%TO.P,C1,2*%
%TO.N,GND*%
X57150000Y-81600000D03*
%TD*%
D20*
%TO.P,GND1,1,Pin_1*%
%TO.N,GND*%
X55880000Y-96520000D03*
D21*
%TO.P,GND1,2,Pin_2*%
X58420000Y-96520000D03*
%TO.P,GND1,3,Pin_3*%
X60960000Y-96520000D03*
%TO.P,GND1,4,Pin_4*%
X63500000Y-96520000D03*
%TO.P,GND1,5,Pin_5*%
X66040000Y-96520000D03*
%TD*%
D20*
%TO.P,5V1,1,Pin_1*%
%TO.N,+5V*%
X55880000Y-50800000D03*
D21*
%TO.P,5V1,2,Pin_2*%
X58420000Y-50800000D03*
%TO.P,5V1,3,Pin_3*%
X60960000Y-50800000D03*
%TO.P,5V1,4,Pin_4*%
X63500000Y-50800000D03*
%TO.P,5V1,5,Pin_5*%
X66040000Y-50800000D03*
%TD*%
D22*
%TO.N,GND*%
X60960000Y-74930000D03*
X64770000Y-74930000D03*
X62865000Y-74930000D03*
X66675000Y-74930000D03*
X66675000Y-69215000D03*
X57150000Y-69215000D03*
X55245000Y-69215000D03*
X53340000Y-69215000D03*
X64770000Y-69215000D03*
X60960000Y-71120000D03*
X57150000Y-71120000D03*
X55245000Y-71120000D03*
X53340000Y-71120000D03*
X64770000Y-71120000D03*
X62865000Y-71120000D03*
X59055000Y-71120000D03*
X66675000Y-71120000D03*
X66675000Y-73025000D03*
X64770000Y-73025000D03*
X62865000Y-73025000D03*
X60960000Y-73025000D03*
X59055000Y-73025000D03*
X57150000Y-73025000D03*
X55245000Y-73025000D03*
X53340000Y-73025000D03*
X53340000Y-80010000D03*
D23*
%TO.N,*%
X62784908Y-106045000D03*
X62377580Y-43815000D03*
%TD*%
D24*
%TO.N,GND*%
X53340000Y-81600000D02*
X53340000Y-80010000D01*
X65945000Y-76930000D02*
X66090000Y-77075000D01*
%TO.N,+5V*%
X55880000Y-50800000D02*
X52705000Y-50800000D01*
X52705000Y-50800000D02*
X50165000Y-53340000D01*
X50165000Y-76200000D02*
X50800000Y-76835000D01*
X50165000Y-53340000D02*
X50165000Y-76200000D01*
X50800000Y-76835000D02*
X50805000Y-76830000D01*
X50805000Y-76830000D02*
X53340000Y-76830000D01*
%TO.N,GND*%
X63740000Y-77075000D02*
X61595000Y-74930000D01*
X66090000Y-77075000D02*
X63740000Y-77075000D01*
X61595000Y-74930000D02*
X57150000Y-74930000D01*
%TO.N,Net-(U1-VO)*%
X62230000Y-79375000D02*
X66090000Y-79375000D01*
%TO.N,+5V*%
X60330000Y-79375000D02*
X59695000Y-79375000D01*
X59695000Y-79375000D02*
X57150000Y-76830000D01*
%TO.N,Net-(U1-VI)*%
X66090000Y-81675000D02*
X65645000Y-81675000D01*
X65645000Y-81675000D02*
X62230000Y-85090000D01*
%TO.N,Net-(C1-Pad1)*%
X57150000Y-83500000D02*
X58740000Y-83500000D01*
X58740000Y-83500000D02*
X60330000Y-85090000D01*
X57150000Y-83500000D02*
X53340000Y-83500000D01*
%TO.N,GND*%
X57150000Y-81600000D02*
X53340000Y-81600000D01*
%TO.N,+5V*%
X57150000Y-76830000D02*
X53340000Y-76830000D01*
%TO.N,GND*%
X57150000Y-74930000D02*
X53340000Y-74930000D01*
X55880000Y-96520000D02*
X66040000Y-96520000D01*
%TO.N,+5V*%
X55880000Y-50800000D02*
X66040000Y-50800000D01*
%TO.N,Net-(C1-Pad1)*%
X71120000Y-52280000D02*
X71120000Y-46355000D01*
X71120000Y-46355000D02*
X54229000Y-46355000D01*
X48895000Y-51689000D02*
X48895000Y-81915000D01*
X67120000Y-56280000D02*
X71120000Y-52280000D01*
X54229000Y-46355000D02*
X48895000Y-51689000D01*
X48895000Y-81915000D02*
X50480000Y-83500000D01*
X50480000Y-83500000D02*
X53340000Y-83500000D01*
%TD*%
M02*
